%TF.GenerationSoftware,KiCad,Pcbnew,8.0.2*%
%TF.CreationDate,2024-06-01T19:30:16+08:00*%
%TF.ProjectId,encoder,656e636f-6465-4722-9e6b-696361645f70,rev?*%
%TF.SameCoordinates,Original*%
%TF.FileFunction,Drillmap*%
%TF.FilePolarity,Positive*%
%FSLAX45Y45*%
G04 Gerber Fmt 4.5, Leading zero omitted, Abs format (unit mm)*
G04 Created by KiCad (PCBNEW 8.0.2) date 2024-06-01 19:30:16*
%MOMM*%
%LPD*%
G01*
G04 APERTURE LIST*
%ADD10C,0.200000*%
%ADD11C,0.100000*%
%ADD12C,0.220000*%
G04 APERTURE END LIST*
D10*
X18490000Y-7385000D02*
X19834212Y-6816586D01*
X19834212Y-8137624D02*
X18490000Y-7569210D01*
X21567895Y-7569210D02*
X20223683Y-8137624D01*
X21567895Y-7385001D02*
G75*
G02*
X21567891Y-7569200I-38945J-92099D01*
G01*
X21567895Y-7385001D02*
X21567895Y-7385000D01*
X20223683Y-6816586D02*
X21567895Y-7385000D01*
X18490000Y-7569209D02*
X18490000Y-7569210D01*
X18490000Y-7569209D02*
G75*
G02*
X18489997Y-7384993I38950J92109D01*
G01*
X20223683Y-8137624D02*
G75*
G02*
X19834213Y-8137622I-194733J460514D01*
G01*
X21567895Y-7569209D02*
X21567895Y-7569210D01*
X18490000Y-7385001D02*
X18490000Y-7385000D01*
X19834212Y-6816586D02*
G75*
G02*
X20223683Y-6816586I194735J-460517D01*
G01*
D11*
X19868091Y-7476909D02*
X19893091Y-7501909D01*
X19893091Y-7476909D02*
X19868091Y-7501909D01*
X20042500Y-7570000D02*
X20067500Y-7595000D01*
X20067500Y-7570000D02*
X20042500Y-7595000D01*
X20142500Y-7570000D02*
X20167500Y-7595000D01*
X20167500Y-7570000D02*
X20142500Y-7595000D01*
X19923295Y-7351291D02*
G75*
G02*
X19893295Y-7351291I-15000J0D01*
G01*
X19893295Y-7351291D02*
G75*
G02*
X19923295Y-7351291I15000J0D01*
G01*
X20302500Y-7660500D02*
G75*
G02*
X20272500Y-7660500I-15000J0D01*
G01*
X20272500Y-7660500D02*
G75*
G02*
X20302500Y-7660500I15000J0D01*
G01*
X18865000Y-7450000D02*
X18865000Y-7490000D01*
X18845000Y-7470000D02*
X18885000Y-7470000D01*
X18913327Y-7333327D02*
X18913327Y-7373327D01*
X18893327Y-7353327D02*
X18933327Y-7353327D01*
X18913327Y-7566673D02*
X18913327Y-7606673D01*
X18893327Y-7586673D02*
X18933327Y-7586673D01*
X19030000Y-7285000D02*
X19030000Y-7325000D01*
X19010000Y-7305000D02*
X19050000Y-7305000D01*
X19030000Y-7615000D02*
X19030000Y-7655000D01*
X19010000Y-7635000D02*
X19050000Y-7635000D01*
X19146673Y-7333327D02*
X19146673Y-7373327D01*
X19126673Y-7353327D02*
X19166673Y-7353327D01*
X19146673Y-7566673D02*
X19146673Y-7606673D01*
X19126673Y-7586673D02*
X19166673Y-7586673D01*
X19195000Y-7450000D02*
X19195000Y-7490000D01*
X19175000Y-7470000D02*
X19215000Y-7470000D01*
X20865000Y-7450000D02*
X20865000Y-7490000D01*
X20845000Y-7470000D02*
X20885000Y-7470000D01*
X20913327Y-7333327D02*
X20913327Y-7373327D01*
X20893327Y-7353327D02*
X20933327Y-7353327D01*
X20913327Y-7566673D02*
X20913327Y-7606673D01*
X20893327Y-7586673D02*
X20933327Y-7586673D01*
X21030000Y-7285000D02*
X21030000Y-7325000D01*
X21010000Y-7305000D02*
X21050000Y-7305000D01*
X21030000Y-7615000D02*
X21030000Y-7655000D01*
X21010000Y-7635000D02*
X21050000Y-7635000D01*
X21146673Y-7333327D02*
X21146673Y-7373327D01*
X21126673Y-7353327D02*
X21166673Y-7353327D01*
X21146673Y-7566673D02*
X21146673Y-7606673D01*
X21126673Y-7586673D02*
X21166673Y-7586673D01*
X21195000Y-7450000D02*
X21195000Y-7490000D01*
X21175000Y-7470000D02*
X21215000Y-7470000D01*
D12*
X19107783Y-7547782D02*
X19107783Y-7392217D01*
X18952218Y-7392217D01*
X18952218Y-7547782D01*
X19107783Y-7547782D01*
X21107783Y-7547782D02*
X21107783Y-7392217D01*
X20952218Y-7392217D01*
X20952218Y-7547782D01*
X21107783Y-7547782D01*
D10*
X18679721Y-8498588D02*
X18679721Y-8298588D01*
X18679721Y-8298588D02*
X18727340Y-8298588D01*
X18727340Y-8298588D02*
X18755912Y-8308112D01*
X18755912Y-8308112D02*
X18774959Y-8327159D01*
X18774959Y-8327159D02*
X18784483Y-8346207D01*
X18784483Y-8346207D02*
X18794007Y-8384302D01*
X18794007Y-8384302D02*
X18794007Y-8412874D01*
X18794007Y-8412874D02*
X18784483Y-8450969D01*
X18784483Y-8450969D02*
X18774959Y-8470017D01*
X18774959Y-8470017D02*
X18755912Y-8489064D01*
X18755912Y-8489064D02*
X18727340Y-8498588D01*
X18727340Y-8498588D02*
X18679721Y-8498588D01*
X18879721Y-8498588D02*
X18879721Y-8365255D01*
X18879721Y-8403350D02*
X18889245Y-8384302D01*
X18889245Y-8384302D02*
X18898769Y-8374778D01*
X18898769Y-8374778D02*
X18917817Y-8365255D01*
X18917817Y-8365255D02*
X18936864Y-8365255D01*
X19003531Y-8498588D02*
X19003531Y-8365255D01*
X19003531Y-8298588D02*
X18994007Y-8308112D01*
X18994007Y-8308112D02*
X19003531Y-8317636D01*
X19003531Y-8317636D02*
X19013055Y-8308112D01*
X19013055Y-8308112D02*
X19003531Y-8298588D01*
X19003531Y-8298588D02*
X19003531Y-8317636D01*
X19127340Y-8498588D02*
X19108293Y-8489064D01*
X19108293Y-8489064D02*
X19098769Y-8470017D01*
X19098769Y-8470017D02*
X19098769Y-8298588D01*
X19232102Y-8498588D02*
X19213055Y-8489064D01*
X19213055Y-8489064D02*
X19203531Y-8470017D01*
X19203531Y-8470017D02*
X19203531Y-8298588D01*
X19460674Y-8498588D02*
X19460674Y-8298588D01*
X19460674Y-8298588D02*
X19527340Y-8441445D01*
X19527340Y-8441445D02*
X19594007Y-8298588D01*
X19594007Y-8298588D02*
X19594007Y-8498588D01*
X19774959Y-8498588D02*
X19774959Y-8393826D01*
X19774959Y-8393826D02*
X19765436Y-8374778D01*
X19765436Y-8374778D02*
X19746388Y-8365255D01*
X19746388Y-8365255D02*
X19708293Y-8365255D01*
X19708293Y-8365255D02*
X19689245Y-8374778D01*
X19774959Y-8489064D02*
X19755912Y-8498588D01*
X19755912Y-8498588D02*
X19708293Y-8498588D01*
X19708293Y-8498588D02*
X19689245Y-8489064D01*
X19689245Y-8489064D02*
X19679721Y-8470017D01*
X19679721Y-8470017D02*
X19679721Y-8450969D01*
X19679721Y-8450969D02*
X19689245Y-8431921D01*
X19689245Y-8431921D02*
X19708293Y-8422398D01*
X19708293Y-8422398D02*
X19755912Y-8422398D01*
X19755912Y-8422398D02*
X19774959Y-8412874D01*
X19870198Y-8365255D02*
X19870198Y-8565255D01*
X19870198Y-8374778D02*
X19889245Y-8365255D01*
X19889245Y-8365255D02*
X19927340Y-8365255D01*
X19927340Y-8365255D02*
X19946388Y-8374778D01*
X19946388Y-8374778D02*
X19955912Y-8384302D01*
X19955912Y-8384302D02*
X19965436Y-8403350D01*
X19965436Y-8403350D02*
X19965436Y-8460493D01*
X19965436Y-8460493D02*
X19955912Y-8479540D01*
X19955912Y-8479540D02*
X19946388Y-8489064D01*
X19946388Y-8489064D02*
X19927340Y-8498588D01*
X19927340Y-8498588D02*
X19889245Y-8498588D01*
X19889245Y-8498588D02*
X19870198Y-8489064D01*
X20051150Y-8479540D02*
X20060674Y-8489064D01*
X20060674Y-8489064D02*
X20051150Y-8498588D01*
X20051150Y-8498588D02*
X20041626Y-8489064D01*
X20041626Y-8489064D02*
X20051150Y-8479540D01*
X20051150Y-8479540D02*
X20051150Y-8498588D01*
X20051150Y-8374778D02*
X20060674Y-8384302D01*
X20060674Y-8384302D02*
X20051150Y-8393826D01*
X20051150Y-8393826D02*
X20041626Y-8384302D01*
X20041626Y-8384302D02*
X20051150Y-8374778D01*
X20051150Y-8374778D02*
X20051150Y-8393826D01*
D11*
X18393945Y-8814604D02*
X18418945Y-8839604D01*
X18418945Y-8814604D02*
X18393945Y-8839604D01*
D10*
X18717817Y-8718588D02*
X18736864Y-8718588D01*
X18736864Y-8718588D02*
X18755912Y-8728112D01*
X18755912Y-8728112D02*
X18765436Y-8737636D01*
X18765436Y-8737636D02*
X18774959Y-8756683D01*
X18774959Y-8756683D02*
X18784483Y-8794778D01*
X18784483Y-8794778D02*
X18784483Y-8842398D01*
X18784483Y-8842398D02*
X18774959Y-8880493D01*
X18774959Y-8880493D02*
X18765436Y-8899540D01*
X18765436Y-8899540D02*
X18755912Y-8909064D01*
X18755912Y-8909064D02*
X18736864Y-8918588D01*
X18736864Y-8918588D02*
X18717817Y-8918588D01*
X18717817Y-8918588D02*
X18698769Y-8909064D01*
X18698769Y-8909064D02*
X18689245Y-8899540D01*
X18689245Y-8899540D02*
X18679721Y-8880493D01*
X18679721Y-8880493D02*
X18670198Y-8842398D01*
X18670198Y-8842398D02*
X18670198Y-8794778D01*
X18670198Y-8794778D02*
X18679721Y-8756683D01*
X18679721Y-8756683D02*
X18689245Y-8737636D01*
X18689245Y-8737636D02*
X18698769Y-8728112D01*
X18698769Y-8728112D02*
X18717817Y-8718588D01*
X18870198Y-8899540D02*
X18879721Y-8909064D01*
X18879721Y-8909064D02*
X18870198Y-8918588D01*
X18870198Y-8918588D02*
X18860674Y-8909064D01*
X18860674Y-8909064D02*
X18870198Y-8899540D01*
X18870198Y-8899540D02*
X18870198Y-8918588D01*
X18955912Y-8737636D02*
X18965436Y-8728112D01*
X18965436Y-8728112D02*
X18984483Y-8718588D01*
X18984483Y-8718588D02*
X19032102Y-8718588D01*
X19032102Y-8718588D02*
X19051150Y-8728112D01*
X19051150Y-8728112D02*
X19060674Y-8737636D01*
X19060674Y-8737636D02*
X19070198Y-8756683D01*
X19070198Y-8756683D02*
X19070198Y-8775731D01*
X19070198Y-8775731D02*
X19060674Y-8804302D01*
X19060674Y-8804302D02*
X18946388Y-8918588D01*
X18946388Y-8918588D02*
X19070198Y-8918588D01*
X19251150Y-8718588D02*
X19155912Y-8718588D01*
X19155912Y-8718588D02*
X19146388Y-8813826D01*
X19146388Y-8813826D02*
X19155912Y-8804302D01*
X19155912Y-8804302D02*
X19174959Y-8794778D01*
X19174959Y-8794778D02*
X19222579Y-8794778D01*
X19222579Y-8794778D02*
X19241626Y-8804302D01*
X19241626Y-8804302D02*
X19251150Y-8813826D01*
X19251150Y-8813826D02*
X19260674Y-8832874D01*
X19260674Y-8832874D02*
X19260674Y-8880493D01*
X19260674Y-8880493D02*
X19251150Y-8899540D01*
X19251150Y-8899540D02*
X19241626Y-8909064D01*
X19241626Y-8909064D02*
X19222579Y-8918588D01*
X19222579Y-8918588D02*
X19174959Y-8918588D01*
X19174959Y-8918588D02*
X19155912Y-8909064D01*
X19155912Y-8909064D02*
X19146388Y-8899540D01*
X19384483Y-8718588D02*
X19403531Y-8718588D01*
X19403531Y-8718588D02*
X19422579Y-8728112D01*
X19422579Y-8728112D02*
X19432102Y-8737636D01*
X19432102Y-8737636D02*
X19441626Y-8756683D01*
X19441626Y-8756683D02*
X19451150Y-8794778D01*
X19451150Y-8794778D02*
X19451150Y-8842398D01*
X19451150Y-8842398D02*
X19441626Y-8880493D01*
X19441626Y-8880493D02*
X19432102Y-8899540D01*
X19432102Y-8899540D02*
X19422579Y-8909064D01*
X19422579Y-8909064D02*
X19403531Y-8918588D01*
X19403531Y-8918588D02*
X19384483Y-8918588D01*
X19384483Y-8918588D02*
X19365436Y-8909064D01*
X19365436Y-8909064D02*
X19355912Y-8899540D01*
X19355912Y-8899540D02*
X19346388Y-8880493D01*
X19346388Y-8880493D02*
X19336864Y-8842398D01*
X19336864Y-8842398D02*
X19336864Y-8794778D01*
X19336864Y-8794778D02*
X19346388Y-8756683D01*
X19346388Y-8756683D02*
X19355912Y-8737636D01*
X19355912Y-8737636D02*
X19365436Y-8728112D01*
X19365436Y-8728112D02*
X19384483Y-8718588D01*
X19536864Y-8918588D02*
X19536864Y-8785255D01*
X19536864Y-8804302D02*
X19546388Y-8794778D01*
X19546388Y-8794778D02*
X19565436Y-8785255D01*
X19565436Y-8785255D02*
X19594007Y-8785255D01*
X19594007Y-8785255D02*
X19613055Y-8794778D01*
X19613055Y-8794778D02*
X19622579Y-8813826D01*
X19622579Y-8813826D02*
X19622579Y-8918588D01*
X19622579Y-8813826D02*
X19632102Y-8794778D01*
X19632102Y-8794778D02*
X19651150Y-8785255D01*
X19651150Y-8785255D02*
X19679721Y-8785255D01*
X19679721Y-8785255D02*
X19698769Y-8794778D01*
X19698769Y-8794778D02*
X19708293Y-8813826D01*
X19708293Y-8813826D02*
X19708293Y-8918588D01*
X19803531Y-8918588D02*
X19803531Y-8785255D01*
X19803531Y-8804302D02*
X19813055Y-8794778D01*
X19813055Y-8794778D02*
X19832102Y-8785255D01*
X19832102Y-8785255D02*
X19860674Y-8785255D01*
X19860674Y-8785255D02*
X19879721Y-8794778D01*
X19879721Y-8794778D02*
X19889245Y-8813826D01*
X19889245Y-8813826D02*
X19889245Y-8918588D01*
X19889245Y-8813826D02*
X19898769Y-8794778D01*
X19898769Y-8794778D02*
X19917817Y-8785255D01*
X19917817Y-8785255D02*
X19946388Y-8785255D01*
X19946388Y-8785255D02*
X19965436Y-8794778D01*
X19965436Y-8794778D02*
X19974960Y-8813826D01*
X19974960Y-8813826D02*
X19974960Y-8918588D01*
X20365436Y-8709064D02*
X20194007Y-8966207D01*
X20622579Y-8718588D02*
X20641626Y-8718588D01*
X20641626Y-8718588D02*
X20660674Y-8728112D01*
X20660674Y-8728112D02*
X20670198Y-8737636D01*
X20670198Y-8737636D02*
X20679722Y-8756683D01*
X20679722Y-8756683D02*
X20689245Y-8794778D01*
X20689245Y-8794778D02*
X20689245Y-8842398D01*
X20689245Y-8842398D02*
X20679722Y-8880493D01*
X20679722Y-8880493D02*
X20670198Y-8899540D01*
X20670198Y-8899540D02*
X20660674Y-8909064D01*
X20660674Y-8909064D02*
X20641626Y-8918588D01*
X20641626Y-8918588D02*
X20622579Y-8918588D01*
X20622579Y-8918588D02*
X20603531Y-8909064D01*
X20603531Y-8909064D02*
X20594007Y-8899540D01*
X20594007Y-8899540D02*
X20584483Y-8880493D01*
X20584483Y-8880493D02*
X20574960Y-8842398D01*
X20574960Y-8842398D02*
X20574960Y-8794778D01*
X20574960Y-8794778D02*
X20584483Y-8756683D01*
X20584483Y-8756683D02*
X20594007Y-8737636D01*
X20594007Y-8737636D02*
X20603531Y-8728112D01*
X20603531Y-8728112D02*
X20622579Y-8718588D01*
X20774960Y-8899540D02*
X20784483Y-8909064D01*
X20784483Y-8909064D02*
X20774960Y-8918588D01*
X20774960Y-8918588D02*
X20765436Y-8909064D01*
X20765436Y-8909064D02*
X20774960Y-8899540D01*
X20774960Y-8899540D02*
X20774960Y-8918588D01*
X20908293Y-8718588D02*
X20927341Y-8718588D01*
X20927341Y-8718588D02*
X20946388Y-8728112D01*
X20946388Y-8728112D02*
X20955912Y-8737636D01*
X20955912Y-8737636D02*
X20965436Y-8756683D01*
X20965436Y-8756683D02*
X20974960Y-8794778D01*
X20974960Y-8794778D02*
X20974960Y-8842398D01*
X20974960Y-8842398D02*
X20965436Y-8880493D01*
X20965436Y-8880493D02*
X20955912Y-8899540D01*
X20955912Y-8899540D02*
X20946388Y-8909064D01*
X20946388Y-8909064D02*
X20927341Y-8918588D01*
X20927341Y-8918588D02*
X20908293Y-8918588D01*
X20908293Y-8918588D02*
X20889245Y-8909064D01*
X20889245Y-8909064D02*
X20879722Y-8899540D01*
X20879722Y-8899540D02*
X20870198Y-8880493D01*
X20870198Y-8880493D02*
X20860674Y-8842398D01*
X20860674Y-8842398D02*
X20860674Y-8794778D01*
X20860674Y-8794778D02*
X20870198Y-8756683D01*
X20870198Y-8756683D02*
X20879722Y-8737636D01*
X20879722Y-8737636D02*
X20889245Y-8728112D01*
X20889245Y-8728112D02*
X20908293Y-8718588D01*
X21098769Y-8718588D02*
X21117817Y-8718588D01*
X21117817Y-8718588D02*
X21136864Y-8728112D01*
X21136864Y-8728112D02*
X21146388Y-8737636D01*
X21146388Y-8737636D02*
X21155912Y-8756683D01*
X21155912Y-8756683D02*
X21165436Y-8794778D01*
X21165436Y-8794778D02*
X21165436Y-8842398D01*
X21165436Y-8842398D02*
X21155912Y-8880493D01*
X21155912Y-8880493D02*
X21146388Y-8899540D01*
X21146388Y-8899540D02*
X21136864Y-8909064D01*
X21136864Y-8909064D02*
X21117817Y-8918588D01*
X21117817Y-8918588D02*
X21098769Y-8918588D01*
X21098769Y-8918588D02*
X21079722Y-8909064D01*
X21079722Y-8909064D02*
X21070198Y-8899540D01*
X21070198Y-8899540D02*
X21060674Y-8880493D01*
X21060674Y-8880493D02*
X21051150Y-8842398D01*
X21051150Y-8842398D02*
X21051150Y-8794778D01*
X21051150Y-8794778D02*
X21060674Y-8756683D01*
X21060674Y-8756683D02*
X21070198Y-8737636D01*
X21070198Y-8737636D02*
X21079722Y-8728112D01*
X21079722Y-8728112D02*
X21098769Y-8718588D01*
X21260674Y-8918588D02*
X21298769Y-8918588D01*
X21298769Y-8918588D02*
X21317817Y-8909064D01*
X21317817Y-8909064D02*
X21327341Y-8899540D01*
X21327341Y-8899540D02*
X21346388Y-8870969D01*
X21346388Y-8870969D02*
X21355912Y-8832874D01*
X21355912Y-8832874D02*
X21355912Y-8756683D01*
X21355912Y-8756683D02*
X21346388Y-8737636D01*
X21346388Y-8737636D02*
X21336864Y-8728112D01*
X21336864Y-8728112D02*
X21317817Y-8718588D01*
X21317817Y-8718588D02*
X21279722Y-8718588D01*
X21279722Y-8718588D02*
X21260674Y-8728112D01*
X21260674Y-8728112D02*
X21251150Y-8737636D01*
X21251150Y-8737636D02*
X21241626Y-8756683D01*
X21241626Y-8756683D02*
X21241626Y-8804302D01*
X21241626Y-8804302D02*
X21251150Y-8823350D01*
X21251150Y-8823350D02*
X21260674Y-8832874D01*
X21260674Y-8832874D02*
X21279722Y-8842398D01*
X21279722Y-8842398D02*
X21317817Y-8842398D01*
X21317817Y-8842398D02*
X21336864Y-8832874D01*
X21336864Y-8832874D02*
X21346388Y-8823350D01*
X21346388Y-8823350D02*
X21355912Y-8804302D01*
X21470198Y-8804302D02*
X21451150Y-8794778D01*
X21451150Y-8794778D02*
X21441626Y-8785255D01*
X21441626Y-8785255D02*
X21432103Y-8766207D01*
X21432103Y-8766207D02*
X21432103Y-8756683D01*
X21432103Y-8756683D02*
X21441626Y-8737636D01*
X21441626Y-8737636D02*
X21451150Y-8728112D01*
X21451150Y-8728112D02*
X21470198Y-8718588D01*
X21470198Y-8718588D02*
X21508293Y-8718588D01*
X21508293Y-8718588D02*
X21527341Y-8728112D01*
X21527341Y-8728112D02*
X21536864Y-8737636D01*
X21536864Y-8737636D02*
X21546388Y-8756683D01*
X21546388Y-8756683D02*
X21546388Y-8766207D01*
X21546388Y-8766207D02*
X21536864Y-8785255D01*
X21536864Y-8785255D02*
X21527341Y-8794778D01*
X21527341Y-8794778D02*
X21508293Y-8804302D01*
X21508293Y-8804302D02*
X21470198Y-8804302D01*
X21470198Y-8804302D02*
X21451150Y-8813826D01*
X21451150Y-8813826D02*
X21441626Y-8823350D01*
X21441626Y-8823350D02*
X21432103Y-8842398D01*
X21432103Y-8842398D02*
X21432103Y-8880493D01*
X21432103Y-8880493D02*
X21441626Y-8899540D01*
X21441626Y-8899540D02*
X21451150Y-8909064D01*
X21451150Y-8909064D02*
X21470198Y-8918588D01*
X21470198Y-8918588D02*
X21508293Y-8918588D01*
X21508293Y-8918588D02*
X21527341Y-8909064D01*
X21527341Y-8909064D02*
X21536864Y-8899540D01*
X21536864Y-8899540D02*
X21546388Y-8880493D01*
X21546388Y-8880493D02*
X21546388Y-8842398D01*
X21546388Y-8842398D02*
X21536864Y-8823350D01*
X21536864Y-8823350D02*
X21527341Y-8813826D01*
X21527341Y-8813826D02*
X21508293Y-8804302D01*
X21622579Y-8718588D02*
X21622579Y-8756683D01*
X21698769Y-8718588D02*
X21698769Y-8756683D01*
X21994007Y-8994778D02*
X21984484Y-8985255D01*
X21984484Y-8985255D02*
X21965436Y-8956683D01*
X21965436Y-8956683D02*
X21955912Y-8937636D01*
X21955912Y-8937636D02*
X21946388Y-8909064D01*
X21946388Y-8909064D02*
X21936865Y-8861445D01*
X21936865Y-8861445D02*
X21936865Y-8823350D01*
X21936865Y-8823350D02*
X21946388Y-8775731D01*
X21946388Y-8775731D02*
X21955912Y-8747159D01*
X21955912Y-8747159D02*
X21965436Y-8728112D01*
X21965436Y-8728112D02*
X21984484Y-8699540D01*
X21984484Y-8699540D02*
X21994007Y-8690017D01*
X22051150Y-8718588D02*
X22174960Y-8718588D01*
X22174960Y-8718588D02*
X22108293Y-8794778D01*
X22108293Y-8794778D02*
X22136865Y-8794778D01*
X22136865Y-8794778D02*
X22155912Y-8804302D01*
X22155912Y-8804302D02*
X22165436Y-8813826D01*
X22165436Y-8813826D02*
X22174960Y-8832874D01*
X22174960Y-8832874D02*
X22174960Y-8880493D01*
X22174960Y-8880493D02*
X22165436Y-8899540D01*
X22165436Y-8899540D02*
X22155912Y-8909064D01*
X22155912Y-8909064D02*
X22136865Y-8918588D01*
X22136865Y-8918588D02*
X22079722Y-8918588D01*
X22079722Y-8918588D02*
X22060674Y-8909064D01*
X22060674Y-8909064D02*
X22051150Y-8899540D01*
X22413055Y-8918588D02*
X22413055Y-8718588D01*
X22498769Y-8918588D02*
X22498769Y-8813826D01*
X22498769Y-8813826D02*
X22489245Y-8794778D01*
X22489245Y-8794778D02*
X22470198Y-8785255D01*
X22470198Y-8785255D02*
X22441626Y-8785255D01*
X22441626Y-8785255D02*
X22422579Y-8794778D01*
X22422579Y-8794778D02*
X22413055Y-8804302D01*
X22622579Y-8918588D02*
X22603531Y-8909064D01*
X22603531Y-8909064D02*
X22594007Y-8899540D01*
X22594007Y-8899540D02*
X22584484Y-8880493D01*
X22584484Y-8880493D02*
X22584484Y-8823350D01*
X22584484Y-8823350D02*
X22594007Y-8804302D01*
X22594007Y-8804302D02*
X22603531Y-8794778D01*
X22603531Y-8794778D02*
X22622579Y-8785255D01*
X22622579Y-8785255D02*
X22651150Y-8785255D01*
X22651150Y-8785255D02*
X22670198Y-8794778D01*
X22670198Y-8794778D02*
X22679722Y-8804302D01*
X22679722Y-8804302D02*
X22689245Y-8823350D01*
X22689245Y-8823350D02*
X22689245Y-8880493D01*
X22689245Y-8880493D02*
X22679722Y-8899540D01*
X22679722Y-8899540D02*
X22670198Y-8909064D01*
X22670198Y-8909064D02*
X22651150Y-8918588D01*
X22651150Y-8918588D02*
X22622579Y-8918588D01*
X22803531Y-8918588D02*
X22784484Y-8909064D01*
X22784484Y-8909064D02*
X22774960Y-8890017D01*
X22774960Y-8890017D02*
X22774960Y-8718588D01*
X22955912Y-8909064D02*
X22936865Y-8918588D01*
X22936865Y-8918588D02*
X22898769Y-8918588D01*
X22898769Y-8918588D02*
X22879722Y-8909064D01*
X22879722Y-8909064D02*
X22870198Y-8890017D01*
X22870198Y-8890017D02*
X22870198Y-8813826D01*
X22870198Y-8813826D02*
X22879722Y-8794778D01*
X22879722Y-8794778D02*
X22898769Y-8785255D01*
X22898769Y-8785255D02*
X22936865Y-8785255D01*
X22936865Y-8785255D02*
X22955912Y-8794778D01*
X22955912Y-8794778D02*
X22965436Y-8813826D01*
X22965436Y-8813826D02*
X22965436Y-8832874D01*
X22965436Y-8832874D02*
X22870198Y-8851921D01*
X23041626Y-8909064D02*
X23060674Y-8918588D01*
X23060674Y-8918588D02*
X23098769Y-8918588D01*
X23098769Y-8918588D02*
X23117817Y-8909064D01*
X23117817Y-8909064D02*
X23127341Y-8890017D01*
X23127341Y-8890017D02*
X23127341Y-8880493D01*
X23127341Y-8880493D02*
X23117817Y-8861445D01*
X23117817Y-8861445D02*
X23098769Y-8851921D01*
X23098769Y-8851921D02*
X23070198Y-8851921D01*
X23070198Y-8851921D02*
X23051150Y-8842398D01*
X23051150Y-8842398D02*
X23041626Y-8823350D01*
X23041626Y-8823350D02*
X23041626Y-8813826D01*
X23041626Y-8813826D02*
X23051150Y-8794778D01*
X23051150Y-8794778D02*
X23070198Y-8785255D01*
X23070198Y-8785255D02*
X23098769Y-8785255D01*
X23098769Y-8785255D02*
X23117817Y-8794778D01*
X23194007Y-8994778D02*
X23203531Y-8985255D01*
X23203531Y-8985255D02*
X23222579Y-8956683D01*
X23222579Y-8956683D02*
X23232103Y-8937636D01*
X23232103Y-8937636D02*
X23241626Y-8909064D01*
X23241626Y-8909064D02*
X23251150Y-8861445D01*
X23251150Y-8861445D02*
X23251150Y-8823350D01*
X23251150Y-8823350D02*
X23241626Y-8775731D01*
X23241626Y-8775731D02*
X23232103Y-8747159D01*
X23232103Y-8747159D02*
X23222579Y-8728112D01*
X23222579Y-8728112D02*
X23203531Y-8699540D01*
X23203531Y-8699540D02*
X23194007Y-8690017D01*
D11*
X18418945Y-9091104D02*
G75*
G02*
X18388945Y-9091104I-15000J0D01*
G01*
X18388945Y-9091104D02*
G75*
G02*
X18418945Y-9091104I15000J0D01*
G01*
D10*
X18717817Y-8982588D02*
X18736864Y-8982588D01*
X18736864Y-8982588D02*
X18755912Y-8992112D01*
X18755912Y-8992112D02*
X18765436Y-9001636D01*
X18765436Y-9001636D02*
X18774959Y-9020683D01*
X18774959Y-9020683D02*
X18784483Y-9058778D01*
X18784483Y-9058778D02*
X18784483Y-9106398D01*
X18784483Y-9106398D02*
X18774959Y-9144493D01*
X18774959Y-9144493D02*
X18765436Y-9163540D01*
X18765436Y-9163540D02*
X18755912Y-9173064D01*
X18755912Y-9173064D02*
X18736864Y-9182588D01*
X18736864Y-9182588D02*
X18717817Y-9182588D01*
X18717817Y-9182588D02*
X18698769Y-9173064D01*
X18698769Y-9173064D02*
X18689245Y-9163540D01*
X18689245Y-9163540D02*
X18679721Y-9144493D01*
X18679721Y-9144493D02*
X18670198Y-9106398D01*
X18670198Y-9106398D02*
X18670198Y-9058778D01*
X18670198Y-9058778D02*
X18679721Y-9020683D01*
X18679721Y-9020683D02*
X18689245Y-9001636D01*
X18689245Y-9001636D02*
X18698769Y-8992112D01*
X18698769Y-8992112D02*
X18717817Y-8982588D01*
X18870198Y-9163540D02*
X18879721Y-9173064D01*
X18879721Y-9173064D02*
X18870198Y-9182588D01*
X18870198Y-9182588D02*
X18860674Y-9173064D01*
X18860674Y-9173064D02*
X18870198Y-9163540D01*
X18870198Y-9163540D02*
X18870198Y-9182588D01*
X18946388Y-8982588D02*
X19070198Y-8982588D01*
X19070198Y-8982588D02*
X19003531Y-9058778D01*
X19003531Y-9058778D02*
X19032102Y-9058778D01*
X19032102Y-9058778D02*
X19051150Y-9068302D01*
X19051150Y-9068302D02*
X19060674Y-9077826D01*
X19060674Y-9077826D02*
X19070198Y-9096874D01*
X19070198Y-9096874D02*
X19070198Y-9144493D01*
X19070198Y-9144493D02*
X19060674Y-9163540D01*
X19060674Y-9163540D02*
X19051150Y-9173064D01*
X19051150Y-9173064D02*
X19032102Y-9182588D01*
X19032102Y-9182588D02*
X18974959Y-9182588D01*
X18974959Y-9182588D02*
X18955912Y-9173064D01*
X18955912Y-9173064D02*
X18946388Y-9163540D01*
X19194007Y-8982588D02*
X19213055Y-8982588D01*
X19213055Y-8982588D02*
X19232102Y-8992112D01*
X19232102Y-8992112D02*
X19241626Y-9001636D01*
X19241626Y-9001636D02*
X19251150Y-9020683D01*
X19251150Y-9020683D02*
X19260674Y-9058778D01*
X19260674Y-9058778D02*
X19260674Y-9106398D01*
X19260674Y-9106398D02*
X19251150Y-9144493D01*
X19251150Y-9144493D02*
X19241626Y-9163540D01*
X19241626Y-9163540D02*
X19232102Y-9173064D01*
X19232102Y-9173064D02*
X19213055Y-9182588D01*
X19213055Y-9182588D02*
X19194007Y-9182588D01*
X19194007Y-9182588D02*
X19174959Y-9173064D01*
X19174959Y-9173064D02*
X19165436Y-9163540D01*
X19165436Y-9163540D02*
X19155912Y-9144493D01*
X19155912Y-9144493D02*
X19146388Y-9106398D01*
X19146388Y-9106398D02*
X19146388Y-9058778D01*
X19146388Y-9058778D02*
X19155912Y-9020683D01*
X19155912Y-9020683D02*
X19165436Y-9001636D01*
X19165436Y-9001636D02*
X19174959Y-8992112D01*
X19174959Y-8992112D02*
X19194007Y-8982588D01*
X19384483Y-8982588D02*
X19403531Y-8982588D01*
X19403531Y-8982588D02*
X19422579Y-8992112D01*
X19422579Y-8992112D02*
X19432102Y-9001636D01*
X19432102Y-9001636D02*
X19441626Y-9020683D01*
X19441626Y-9020683D02*
X19451150Y-9058778D01*
X19451150Y-9058778D02*
X19451150Y-9106398D01*
X19451150Y-9106398D02*
X19441626Y-9144493D01*
X19441626Y-9144493D02*
X19432102Y-9163540D01*
X19432102Y-9163540D02*
X19422579Y-9173064D01*
X19422579Y-9173064D02*
X19403531Y-9182588D01*
X19403531Y-9182588D02*
X19384483Y-9182588D01*
X19384483Y-9182588D02*
X19365436Y-9173064D01*
X19365436Y-9173064D02*
X19355912Y-9163540D01*
X19355912Y-9163540D02*
X19346388Y-9144493D01*
X19346388Y-9144493D02*
X19336864Y-9106398D01*
X19336864Y-9106398D02*
X19336864Y-9058778D01*
X19336864Y-9058778D02*
X19346388Y-9020683D01*
X19346388Y-9020683D02*
X19355912Y-9001636D01*
X19355912Y-9001636D02*
X19365436Y-8992112D01*
X19365436Y-8992112D02*
X19384483Y-8982588D01*
X19536864Y-9182588D02*
X19536864Y-9049255D01*
X19536864Y-9068302D02*
X19546388Y-9058778D01*
X19546388Y-9058778D02*
X19565436Y-9049255D01*
X19565436Y-9049255D02*
X19594007Y-9049255D01*
X19594007Y-9049255D02*
X19613055Y-9058778D01*
X19613055Y-9058778D02*
X19622579Y-9077826D01*
X19622579Y-9077826D02*
X19622579Y-9182588D01*
X19622579Y-9077826D02*
X19632102Y-9058778D01*
X19632102Y-9058778D02*
X19651150Y-9049255D01*
X19651150Y-9049255D02*
X19679721Y-9049255D01*
X19679721Y-9049255D02*
X19698769Y-9058778D01*
X19698769Y-9058778D02*
X19708293Y-9077826D01*
X19708293Y-9077826D02*
X19708293Y-9182588D01*
X19803531Y-9182588D02*
X19803531Y-9049255D01*
X19803531Y-9068302D02*
X19813055Y-9058778D01*
X19813055Y-9058778D02*
X19832102Y-9049255D01*
X19832102Y-9049255D02*
X19860674Y-9049255D01*
X19860674Y-9049255D02*
X19879721Y-9058778D01*
X19879721Y-9058778D02*
X19889245Y-9077826D01*
X19889245Y-9077826D02*
X19889245Y-9182588D01*
X19889245Y-9077826D02*
X19898769Y-9058778D01*
X19898769Y-9058778D02*
X19917817Y-9049255D01*
X19917817Y-9049255D02*
X19946388Y-9049255D01*
X19946388Y-9049255D02*
X19965436Y-9058778D01*
X19965436Y-9058778D02*
X19974960Y-9077826D01*
X19974960Y-9077826D02*
X19974960Y-9182588D01*
X20365436Y-8973064D02*
X20194007Y-9230207D01*
X20622579Y-8982588D02*
X20641626Y-8982588D01*
X20641626Y-8982588D02*
X20660674Y-8992112D01*
X20660674Y-8992112D02*
X20670198Y-9001636D01*
X20670198Y-9001636D02*
X20679722Y-9020683D01*
X20679722Y-9020683D02*
X20689245Y-9058778D01*
X20689245Y-9058778D02*
X20689245Y-9106398D01*
X20689245Y-9106398D02*
X20679722Y-9144493D01*
X20679722Y-9144493D02*
X20670198Y-9163540D01*
X20670198Y-9163540D02*
X20660674Y-9173064D01*
X20660674Y-9173064D02*
X20641626Y-9182588D01*
X20641626Y-9182588D02*
X20622579Y-9182588D01*
X20622579Y-9182588D02*
X20603531Y-9173064D01*
X20603531Y-9173064D02*
X20594007Y-9163540D01*
X20594007Y-9163540D02*
X20584483Y-9144493D01*
X20584483Y-9144493D02*
X20574960Y-9106398D01*
X20574960Y-9106398D02*
X20574960Y-9058778D01*
X20574960Y-9058778D02*
X20584483Y-9020683D01*
X20584483Y-9020683D02*
X20594007Y-9001636D01*
X20594007Y-9001636D02*
X20603531Y-8992112D01*
X20603531Y-8992112D02*
X20622579Y-8982588D01*
X20774960Y-9163540D02*
X20784483Y-9173064D01*
X20784483Y-9173064D02*
X20774960Y-9182588D01*
X20774960Y-9182588D02*
X20765436Y-9173064D01*
X20765436Y-9173064D02*
X20774960Y-9163540D01*
X20774960Y-9163540D02*
X20774960Y-9182588D01*
X20908293Y-8982588D02*
X20927341Y-8982588D01*
X20927341Y-8982588D02*
X20946388Y-8992112D01*
X20946388Y-8992112D02*
X20955912Y-9001636D01*
X20955912Y-9001636D02*
X20965436Y-9020683D01*
X20965436Y-9020683D02*
X20974960Y-9058778D01*
X20974960Y-9058778D02*
X20974960Y-9106398D01*
X20974960Y-9106398D02*
X20965436Y-9144493D01*
X20965436Y-9144493D02*
X20955912Y-9163540D01*
X20955912Y-9163540D02*
X20946388Y-9173064D01*
X20946388Y-9173064D02*
X20927341Y-9182588D01*
X20927341Y-9182588D02*
X20908293Y-9182588D01*
X20908293Y-9182588D02*
X20889245Y-9173064D01*
X20889245Y-9173064D02*
X20879722Y-9163540D01*
X20879722Y-9163540D02*
X20870198Y-9144493D01*
X20870198Y-9144493D02*
X20860674Y-9106398D01*
X20860674Y-9106398D02*
X20860674Y-9058778D01*
X20860674Y-9058778D02*
X20870198Y-9020683D01*
X20870198Y-9020683D02*
X20879722Y-9001636D01*
X20879722Y-9001636D02*
X20889245Y-8992112D01*
X20889245Y-8992112D02*
X20908293Y-8982588D01*
X21165436Y-9182588D02*
X21051150Y-9182588D01*
X21108293Y-9182588D02*
X21108293Y-8982588D01*
X21108293Y-8982588D02*
X21089245Y-9011159D01*
X21089245Y-9011159D02*
X21070198Y-9030207D01*
X21070198Y-9030207D02*
X21051150Y-9039731D01*
X21355912Y-9182588D02*
X21241626Y-9182588D01*
X21298769Y-9182588D02*
X21298769Y-8982588D01*
X21298769Y-8982588D02*
X21279722Y-9011159D01*
X21279722Y-9011159D02*
X21260674Y-9030207D01*
X21260674Y-9030207D02*
X21241626Y-9039731D01*
X21470198Y-9068302D02*
X21451150Y-9058778D01*
X21451150Y-9058778D02*
X21441626Y-9049255D01*
X21441626Y-9049255D02*
X21432103Y-9030207D01*
X21432103Y-9030207D02*
X21432103Y-9020683D01*
X21432103Y-9020683D02*
X21441626Y-9001636D01*
X21441626Y-9001636D02*
X21451150Y-8992112D01*
X21451150Y-8992112D02*
X21470198Y-8982588D01*
X21470198Y-8982588D02*
X21508293Y-8982588D01*
X21508293Y-8982588D02*
X21527341Y-8992112D01*
X21527341Y-8992112D02*
X21536864Y-9001636D01*
X21536864Y-9001636D02*
X21546388Y-9020683D01*
X21546388Y-9020683D02*
X21546388Y-9030207D01*
X21546388Y-9030207D02*
X21536864Y-9049255D01*
X21536864Y-9049255D02*
X21527341Y-9058778D01*
X21527341Y-9058778D02*
X21508293Y-9068302D01*
X21508293Y-9068302D02*
X21470198Y-9068302D01*
X21470198Y-9068302D02*
X21451150Y-9077826D01*
X21451150Y-9077826D02*
X21441626Y-9087350D01*
X21441626Y-9087350D02*
X21432103Y-9106398D01*
X21432103Y-9106398D02*
X21432103Y-9144493D01*
X21432103Y-9144493D02*
X21441626Y-9163540D01*
X21441626Y-9163540D02*
X21451150Y-9173064D01*
X21451150Y-9173064D02*
X21470198Y-9182588D01*
X21470198Y-9182588D02*
X21508293Y-9182588D01*
X21508293Y-9182588D02*
X21527341Y-9173064D01*
X21527341Y-9173064D02*
X21536864Y-9163540D01*
X21536864Y-9163540D02*
X21546388Y-9144493D01*
X21546388Y-9144493D02*
X21546388Y-9106398D01*
X21546388Y-9106398D02*
X21536864Y-9087350D01*
X21536864Y-9087350D02*
X21527341Y-9077826D01*
X21527341Y-9077826D02*
X21508293Y-9068302D01*
X21622579Y-8982588D02*
X21622579Y-9020683D01*
X21698769Y-8982588D02*
X21698769Y-9020683D01*
X21994007Y-9258778D02*
X21984484Y-9249255D01*
X21984484Y-9249255D02*
X21965436Y-9220683D01*
X21965436Y-9220683D02*
X21955912Y-9201636D01*
X21955912Y-9201636D02*
X21946388Y-9173064D01*
X21946388Y-9173064D02*
X21936865Y-9125445D01*
X21936865Y-9125445D02*
X21936865Y-9087350D01*
X21936865Y-9087350D02*
X21946388Y-9039731D01*
X21946388Y-9039731D02*
X21955912Y-9011159D01*
X21955912Y-9011159D02*
X21965436Y-8992112D01*
X21965436Y-8992112D02*
X21984484Y-8963540D01*
X21984484Y-8963540D02*
X21994007Y-8954017D01*
X22060674Y-9001636D02*
X22070198Y-8992112D01*
X22070198Y-8992112D02*
X22089245Y-8982588D01*
X22089245Y-8982588D02*
X22136865Y-8982588D01*
X22136865Y-8982588D02*
X22155912Y-8992112D01*
X22155912Y-8992112D02*
X22165436Y-9001636D01*
X22165436Y-9001636D02*
X22174960Y-9020683D01*
X22174960Y-9020683D02*
X22174960Y-9039731D01*
X22174960Y-9039731D02*
X22165436Y-9068302D01*
X22165436Y-9068302D02*
X22051150Y-9182588D01*
X22051150Y-9182588D02*
X22174960Y-9182588D01*
X22413055Y-9182588D02*
X22413055Y-8982588D01*
X22498769Y-9182588D02*
X22498769Y-9077826D01*
X22498769Y-9077826D02*
X22489245Y-9058778D01*
X22489245Y-9058778D02*
X22470198Y-9049255D01*
X22470198Y-9049255D02*
X22441626Y-9049255D01*
X22441626Y-9049255D02*
X22422579Y-9058778D01*
X22422579Y-9058778D02*
X22413055Y-9068302D01*
X22622579Y-9182588D02*
X22603531Y-9173064D01*
X22603531Y-9173064D02*
X22594007Y-9163540D01*
X22594007Y-9163540D02*
X22584484Y-9144493D01*
X22584484Y-9144493D02*
X22584484Y-9087350D01*
X22584484Y-9087350D02*
X22594007Y-9068302D01*
X22594007Y-9068302D02*
X22603531Y-9058778D01*
X22603531Y-9058778D02*
X22622579Y-9049255D01*
X22622579Y-9049255D02*
X22651150Y-9049255D01*
X22651150Y-9049255D02*
X22670198Y-9058778D01*
X22670198Y-9058778D02*
X22679722Y-9068302D01*
X22679722Y-9068302D02*
X22689245Y-9087350D01*
X22689245Y-9087350D02*
X22689245Y-9144493D01*
X22689245Y-9144493D02*
X22679722Y-9163540D01*
X22679722Y-9163540D02*
X22670198Y-9173064D01*
X22670198Y-9173064D02*
X22651150Y-9182588D01*
X22651150Y-9182588D02*
X22622579Y-9182588D01*
X22803531Y-9182588D02*
X22784484Y-9173064D01*
X22784484Y-9173064D02*
X22774960Y-9154017D01*
X22774960Y-9154017D02*
X22774960Y-8982588D01*
X22955912Y-9173064D02*
X22936865Y-9182588D01*
X22936865Y-9182588D02*
X22898769Y-9182588D01*
X22898769Y-9182588D02*
X22879722Y-9173064D01*
X22879722Y-9173064D02*
X22870198Y-9154017D01*
X22870198Y-9154017D02*
X22870198Y-9077826D01*
X22870198Y-9077826D02*
X22879722Y-9058778D01*
X22879722Y-9058778D02*
X22898769Y-9049255D01*
X22898769Y-9049255D02*
X22936865Y-9049255D01*
X22936865Y-9049255D02*
X22955912Y-9058778D01*
X22955912Y-9058778D02*
X22965436Y-9077826D01*
X22965436Y-9077826D02*
X22965436Y-9096874D01*
X22965436Y-9096874D02*
X22870198Y-9115921D01*
X23041626Y-9173064D02*
X23060674Y-9182588D01*
X23060674Y-9182588D02*
X23098769Y-9182588D01*
X23098769Y-9182588D02*
X23117817Y-9173064D01*
X23117817Y-9173064D02*
X23127341Y-9154017D01*
X23127341Y-9154017D02*
X23127341Y-9144493D01*
X23127341Y-9144493D02*
X23117817Y-9125445D01*
X23117817Y-9125445D02*
X23098769Y-9115921D01*
X23098769Y-9115921D02*
X23070198Y-9115921D01*
X23070198Y-9115921D02*
X23051150Y-9106398D01*
X23051150Y-9106398D02*
X23041626Y-9087350D01*
X23041626Y-9087350D02*
X23041626Y-9077826D01*
X23041626Y-9077826D02*
X23051150Y-9058778D01*
X23051150Y-9058778D02*
X23070198Y-9049255D01*
X23070198Y-9049255D02*
X23098769Y-9049255D01*
X23098769Y-9049255D02*
X23117817Y-9058778D01*
X23194007Y-9258778D02*
X23203531Y-9249255D01*
X23203531Y-9249255D02*
X23222579Y-9220683D01*
X23222579Y-9220683D02*
X23232103Y-9201636D01*
X23232103Y-9201636D02*
X23241626Y-9173064D01*
X23241626Y-9173064D02*
X23251150Y-9125445D01*
X23251150Y-9125445D02*
X23251150Y-9087350D01*
X23251150Y-9087350D02*
X23241626Y-9039731D01*
X23241626Y-9039731D02*
X23232103Y-9011159D01*
X23232103Y-9011159D02*
X23222579Y-8992112D01*
X23222579Y-8992112D02*
X23203531Y-8963540D01*
X23203531Y-8963540D02*
X23194007Y-8954017D01*
D11*
X18398945Y-9335104D02*
X18398945Y-9375104D01*
X18378945Y-9355104D02*
X18418945Y-9355104D01*
D10*
X18717817Y-9246588D02*
X18736864Y-9246588D01*
X18736864Y-9246588D02*
X18755912Y-9256112D01*
X18755912Y-9256112D02*
X18765436Y-9265636D01*
X18765436Y-9265636D02*
X18774959Y-9284683D01*
X18774959Y-9284683D02*
X18784483Y-9322778D01*
X18784483Y-9322778D02*
X18784483Y-9370398D01*
X18784483Y-9370398D02*
X18774959Y-9408493D01*
X18774959Y-9408493D02*
X18765436Y-9427540D01*
X18765436Y-9427540D02*
X18755912Y-9437064D01*
X18755912Y-9437064D02*
X18736864Y-9446588D01*
X18736864Y-9446588D02*
X18717817Y-9446588D01*
X18717817Y-9446588D02*
X18698769Y-9437064D01*
X18698769Y-9437064D02*
X18689245Y-9427540D01*
X18689245Y-9427540D02*
X18679721Y-9408493D01*
X18679721Y-9408493D02*
X18670198Y-9370398D01*
X18670198Y-9370398D02*
X18670198Y-9322778D01*
X18670198Y-9322778D02*
X18679721Y-9284683D01*
X18679721Y-9284683D02*
X18689245Y-9265636D01*
X18689245Y-9265636D02*
X18698769Y-9256112D01*
X18698769Y-9256112D02*
X18717817Y-9246588D01*
X18870198Y-9427540D02*
X18879721Y-9437064D01*
X18879721Y-9437064D02*
X18870198Y-9446588D01*
X18870198Y-9446588D02*
X18860674Y-9437064D01*
X18860674Y-9437064D02*
X18870198Y-9427540D01*
X18870198Y-9427540D02*
X18870198Y-9446588D01*
X19051150Y-9313255D02*
X19051150Y-9446588D01*
X19003531Y-9237064D02*
X18955912Y-9379921D01*
X18955912Y-9379921D02*
X19079721Y-9379921D01*
X19194007Y-9246588D02*
X19213055Y-9246588D01*
X19213055Y-9246588D02*
X19232102Y-9256112D01*
X19232102Y-9256112D02*
X19241626Y-9265636D01*
X19241626Y-9265636D02*
X19251150Y-9284683D01*
X19251150Y-9284683D02*
X19260674Y-9322778D01*
X19260674Y-9322778D02*
X19260674Y-9370398D01*
X19260674Y-9370398D02*
X19251150Y-9408493D01*
X19251150Y-9408493D02*
X19241626Y-9427540D01*
X19241626Y-9427540D02*
X19232102Y-9437064D01*
X19232102Y-9437064D02*
X19213055Y-9446588D01*
X19213055Y-9446588D02*
X19194007Y-9446588D01*
X19194007Y-9446588D02*
X19174959Y-9437064D01*
X19174959Y-9437064D02*
X19165436Y-9427540D01*
X19165436Y-9427540D02*
X19155912Y-9408493D01*
X19155912Y-9408493D02*
X19146388Y-9370398D01*
X19146388Y-9370398D02*
X19146388Y-9322778D01*
X19146388Y-9322778D02*
X19155912Y-9284683D01*
X19155912Y-9284683D02*
X19165436Y-9265636D01*
X19165436Y-9265636D02*
X19174959Y-9256112D01*
X19174959Y-9256112D02*
X19194007Y-9246588D01*
X19384483Y-9246588D02*
X19403531Y-9246588D01*
X19403531Y-9246588D02*
X19422579Y-9256112D01*
X19422579Y-9256112D02*
X19432102Y-9265636D01*
X19432102Y-9265636D02*
X19441626Y-9284683D01*
X19441626Y-9284683D02*
X19451150Y-9322778D01*
X19451150Y-9322778D02*
X19451150Y-9370398D01*
X19451150Y-9370398D02*
X19441626Y-9408493D01*
X19441626Y-9408493D02*
X19432102Y-9427540D01*
X19432102Y-9427540D02*
X19422579Y-9437064D01*
X19422579Y-9437064D02*
X19403531Y-9446588D01*
X19403531Y-9446588D02*
X19384483Y-9446588D01*
X19384483Y-9446588D02*
X19365436Y-9437064D01*
X19365436Y-9437064D02*
X19355912Y-9427540D01*
X19355912Y-9427540D02*
X19346388Y-9408493D01*
X19346388Y-9408493D02*
X19336864Y-9370398D01*
X19336864Y-9370398D02*
X19336864Y-9322778D01*
X19336864Y-9322778D02*
X19346388Y-9284683D01*
X19346388Y-9284683D02*
X19355912Y-9265636D01*
X19355912Y-9265636D02*
X19365436Y-9256112D01*
X19365436Y-9256112D02*
X19384483Y-9246588D01*
X19536864Y-9446588D02*
X19536864Y-9313255D01*
X19536864Y-9332302D02*
X19546388Y-9322778D01*
X19546388Y-9322778D02*
X19565436Y-9313255D01*
X19565436Y-9313255D02*
X19594007Y-9313255D01*
X19594007Y-9313255D02*
X19613055Y-9322778D01*
X19613055Y-9322778D02*
X19622579Y-9341826D01*
X19622579Y-9341826D02*
X19622579Y-9446588D01*
X19622579Y-9341826D02*
X19632102Y-9322778D01*
X19632102Y-9322778D02*
X19651150Y-9313255D01*
X19651150Y-9313255D02*
X19679721Y-9313255D01*
X19679721Y-9313255D02*
X19698769Y-9322778D01*
X19698769Y-9322778D02*
X19708293Y-9341826D01*
X19708293Y-9341826D02*
X19708293Y-9446588D01*
X19803531Y-9446588D02*
X19803531Y-9313255D01*
X19803531Y-9332302D02*
X19813055Y-9322778D01*
X19813055Y-9322778D02*
X19832102Y-9313255D01*
X19832102Y-9313255D02*
X19860674Y-9313255D01*
X19860674Y-9313255D02*
X19879721Y-9322778D01*
X19879721Y-9322778D02*
X19889245Y-9341826D01*
X19889245Y-9341826D02*
X19889245Y-9446588D01*
X19889245Y-9341826D02*
X19898769Y-9322778D01*
X19898769Y-9322778D02*
X19917817Y-9313255D01*
X19917817Y-9313255D02*
X19946388Y-9313255D01*
X19946388Y-9313255D02*
X19965436Y-9322778D01*
X19965436Y-9322778D02*
X19974960Y-9341826D01*
X19974960Y-9341826D02*
X19974960Y-9446588D01*
X20365436Y-9237064D02*
X20194007Y-9494207D01*
X20622579Y-9246588D02*
X20641626Y-9246588D01*
X20641626Y-9246588D02*
X20660674Y-9256112D01*
X20660674Y-9256112D02*
X20670198Y-9265636D01*
X20670198Y-9265636D02*
X20679722Y-9284683D01*
X20679722Y-9284683D02*
X20689245Y-9322778D01*
X20689245Y-9322778D02*
X20689245Y-9370398D01*
X20689245Y-9370398D02*
X20679722Y-9408493D01*
X20679722Y-9408493D02*
X20670198Y-9427540D01*
X20670198Y-9427540D02*
X20660674Y-9437064D01*
X20660674Y-9437064D02*
X20641626Y-9446588D01*
X20641626Y-9446588D02*
X20622579Y-9446588D01*
X20622579Y-9446588D02*
X20603531Y-9437064D01*
X20603531Y-9437064D02*
X20594007Y-9427540D01*
X20594007Y-9427540D02*
X20584483Y-9408493D01*
X20584483Y-9408493D02*
X20574960Y-9370398D01*
X20574960Y-9370398D02*
X20574960Y-9322778D01*
X20574960Y-9322778D02*
X20584483Y-9284683D01*
X20584483Y-9284683D02*
X20594007Y-9265636D01*
X20594007Y-9265636D02*
X20603531Y-9256112D01*
X20603531Y-9256112D02*
X20622579Y-9246588D01*
X20774960Y-9427540D02*
X20784483Y-9437064D01*
X20784483Y-9437064D02*
X20774960Y-9446588D01*
X20774960Y-9446588D02*
X20765436Y-9437064D01*
X20765436Y-9437064D02*
X20774960Y-9427540D01*
X20774960Y-9427540D02*
X20774960Y-9446588D01*
X20908293Y-9246588D02*
X20927341Y-9246588D01*
X20927341Y-9246588D02*
X20946388Y-9256112D01*
X20946388Y-9256112D02*
X20955912Y-9265636D01*
X20955912Y-9265636D02*
X20965436Y-9284683D01*
X20965436Y-9284683D02*
X20974960Y-9322778D01*
X20974960Y-9322778D02*
X20974960Y-9370398D01*
X20974960Y-9370398D02*
X20965436Y-9408493D01*
X20965436Y-9408493D02*
X20955912Y-9427540D01*
X20955912Y-9427540D02*
X20946388Y-9437064D01*
X20946388Y-9437064D02*
X20927341Y-9446588D01*
X20927341Y-9446588D02*
X20908293Y-9446588D01*
X20908293Y-9446588D02*
X20889245Y-9437064D01*
X20889245Y-9437064D02*
X20879722Y-9427540D01*
X20879722Y-9427540D02*
X20870198Y-9408493D01*
X20870198Y-9408493D02*
X20860674Y-9370398D01*
X20860674Y-9370398D02*
X20860674Y-9322778D01*
X20860674Y-9322778D02*
X20870198Y-9284683D01*
X20870198Y-9284683D02*
X20879722Y-9265636D01*
X20879722Y-9265636D02*
X20889245Y-9256112D01*
X20889245Y-9256112D02*
X20908293Y-9246588D01*
X21165436Y-9446588D02*
X21051150Y-9446588D01*
X21108293Y-9446588D02*
X21108293Y-9246588D01*
X21108293Y-9246588D02*
X21089245Y-9275159D01*
X21089245Y-9275159D02*
X21070198Y-9294207D01*
X21070198Y-9294207D02*
X21051150Y-9303731D01*
X21346388Y-9246588D02*
X21251150Y-9246588D01*
X21251150Y-9246588D02*
X21241626Y-9341826D01*
X21241626Y-9341826D02*
X21251150Y-9332302D01*
X21251150Y-9332302D02*
X21270198Y-9322778D01*
X21270198Y-9322778D02*
X21317817Y-9322778D01*
X21317817Y-9322778D02*
X21336864Y-9332302D01*
X21336864Y-9332302D02*
X21346388Y-9341826D01*
X21346388Y-9341826D02*
X21355912Y-9360874D01*
X21355912Y-9360874D02*
X21355912Y-9408493D01*
X21355912Y-9408493D02*
X21346388Y-9427540D01*
X21346388Y-9427540D02*
X21336864Y-9437064D01*
X21336864Y-9437064D02*
X21317817Y-9446588D01*
X21317817Y-9446588D02*
X21270198Y-9446588D01*
X21270198Y-9446588D02*
X21251150Y-9437064D01*
X21251150Y-9437064D02*
X21241626Y-9427540D01*
X21422579Y-9246588D02*
X21555912Y-9246588D01*
X21555912Y-9246588D02*
X21470198Y-9446588D01*
X21622579Y-9246588D02*
X21622579Y-9284683D01*
X21698769Y-9246588D02*
X21698769Y-9284683D01*
X21994007Y-9522778D02*
X21984484Y-9513255D01*
X21984484Y-9513255D02*
X21965436Y-9484683D01*
X21965436Y-9484683D02*
X21955912Y-9465636D01*
X21955912Y-9465636D02*
X21946388Y-9437064D01*
X21946388Y-9437064D02*
X21936865Y-9389445D01*
X21936865Y-9389445D02*
X21936865Y-9351350D01*
X21936865Y-9351350D02*
X21946388Y-9303731D01*
X21946388Y-9303731D02*
X21955912Y-9275159D01*
X21955912Y-9275159D02*
X21965436Y-9256112D01*
X21965436Y-9256112D02*
X21984484Y-9227540D01*
X21984484Y-9227540D02*
X21994007Y-9218017D01*
X22174960Y-9446588D02*
X22060674Y-9446588D01*
X22117817Y-9446588D02*
X22117817Y-9246588D01*
X22117817Y-9246588D02*
X22098769Y-9275159D01*
X22098769Y-9275159D02*
X22079722Y-9294207D01*
X22079722Y-9294207D02*
X22060674Y-9303731D01*
X22346388Y-9246588D02*
X22308293Y-9246588D01*
X22308293Y-9246588D02*
X22289245Y-9256112D01*
X22289245Y-9256112D02*
X22279722Y-9265636D01*
X22279722Y-9265636D02*
X22260674Y-9294207D01*
X22260674Y-9294207D02*
X22251150Y-9332302D01*
X22251150Y-9332302D02*
X22251150Y-9408493D01*
X22251150Y-9408493D02*
X22260674Y-9427540D01*
X22260674Y-9427540D02*
X22270198Y-9437064D01*
X22270198Y-9437064D02*
X22289245Y-9446588D01*
X22289245Y-9446588D02*
X22327341Y-9446588D01*
X22327341Y-9446588D02*
X22346388Y-9437064D01*
X22346388Y-9437064D02*
X22355912Y-9427540D01*
X22355912Y-9427540D02*
X22365436Y-9408493D01*
X22365436Y-9408493D02*
X22365436Y-9360874D01*
X22365436Y-9360874D02*
X22355912Y-9341826D01*
X22355912Y-9341826D02*
X22346388Y-9332302D01*
X22346388Y-9332302D02*
X22327341Y-9322778D01*
X22327341Y-9322778D02*
X22289245Y-9322778D01*
X22289245Y-9322778D02*
X22270198Y-9332302D01*
X22270198Y-9332302D02*
X22260674Y-9341826D01*
X22260674Y-9341826D02*
X22251150Y-9360874D01*
X22603531Y-9446588D02*
X22603531Y-9246588D01*
X22689245Y-9446588D02*
X22689245Y-9341826D01*
X22689245Y-9341826D02*
X22679722Y-9322778D01*
X22679722Y-9322778D02*
X22660674Y-9313255D01*
X22660674Y-9313255D02*
X22632103Y-9313255D01*
X22632103Y-9313255D02*
X22613055Y-9322778D01*
X22613055Y-9322778D02*
X22603531Y-9332302D01*
X22813055Y-9446588D02*
X22794007Y-9437064D01*
X22794007Y-9437064D02*
X22784484Y-9427540D01*
X22784484Y-9427540D02*
X22774960Y-9408493D01*
X22774960Y-9408493D02*
X22774960Y-9351350D01*
X22774960Y-9351350D02*
X22784484Y-9332302D01*
X22784484Y-9332302D02*
X22794007Y-9322778D01*
X22794007Y-9322778D02*
X22813055Y-9313255D01*
X22813055Y-9313255D02*
X22841626Y-9313255D01*
X22841626Y-9313255D02*
X22860674Y-9322778D01*
X22860674Y-9322778D02*
X22870198Y-9332302D01*
X22870198Y-9332302D02*
X22879722Y-9351350D01*
X22879722Y-9351350D02*
X22879722Y-9408493D01*
X22879722Y-9408493D02*
X22870198Y-9427540D01*
X22870198Y-9427540D02*
X22860674Y-9437064D01*
X22860674Y-9437064D02*
X22841626Y-9446588D01*
X22841626Y-9446588D02*
X22813055Y-9446588D01*
X22994007Y-9446588D02*
X22974960Y-9437064D01*
X22974960Y-9437064D02*
X22965436Y-9418017D01*
X22965436Y-9418017D02*
X22965436Y-9246588D01*
X23146388Y-9437064D02*
X23127341Y-9446588D01*
X23127341Y-9446588D02*
X23089245Y-9446588D01*
X23089245Y-9446588D02*
X23070198Y-9437064D01*
X23070198Y-9437064D02*
X23060674Y-9418017D01*
X23060674Y-9418017D02*
X23060674Y-9341826D01*
X23060674Y-9341826D02*
X23070198Y-9322778D01*
X23070198Y-9322778D02*
X23089245Y-9313255D01*
X23089245Y-9313255D02*
X23127341Y-9313255D01*
X23127341Y-9313255D02*
X23146388Y-9322778D01*
X23146388Y-9322778D02*
X23155912Y-9341826D01*
X23155912Y-9341826D02*
X23155912Y-9360874D01*
X23155912Y-9360874D02*
X23060674Y-9379921D01*
X23232103Y-9437064D02*
X23251150Y-9446588D01*
X23251150Y-9446588D02*
X23289245Y-9446588D01*
X23289245Y-9446588D02*
X23308293Y-9437064D01*
X23308293Y-9437064D02*
X23317817Y-9418017D01*
X23317817Y-9418017D02*
X23317817Y-9408493D01*
X23317817Y-9408493D02*
X23308293Y-9389445D01*
X23308293Y-9389445D02*
X23289245Y-9379921D01*
X23289245Y-9379921D02*
X23260674Y-9379921D01*
X23260674Y-9379921D02*
X23241626Y-9370398D01*
X23241626Y-9370398D02*
X23232103Y-9351350D01*
X23232103Y-9351350D02*
X23232103Y-9341826D01*
X23232103Y-9341826D02*
X23241626Y-9322778D01*
X23241626Y-9322778D02*
X23260674Y-9313255D01*
X23260674Y-9313255D02*
X23289245Y-9313255D01*
X23289245Y-9313255D02*
X23308293Y-9322778D01*
X23384484Y-9522778D02*
X23394007Y-9513255D01*
X23394007Y-9513255D02*
X23413055Y-9484683D01*
X23413055Y-9484683D02*
X23422579Y-9465636D01*
X23422579Y-9465636D02*
X23432103Y-9437064D01*
X23432103Y-9437064D02*
X23441626Y-9389445D01*
X23441626Y-9389445D02*
X23441626Y-9351350D01*
X23441626Y-9351350D02*
X23432103Y-9303731D01*
X23432103Y-9303731D02*
X23422579Y-9275159D01*
X23422579Y-9275159D02*
X23413055Y-9256112D01*
X23413055Y-9256112D02*
X23394007Y-9227540D01*
X23394007Y-9227540D02*
X23384484Y-9218017D01*
X18389656Y-9689816D02*
X18389656Y-9548393D01*
X18248233Y-9548393D01*
X18248233Y-9689816D01*
X18389656Y-9689816D01*
X18670198Y-9529636D02*
X18679721Y-9520112D01*
X18679721Y-9520112D02*
X18698769Y-9510588D01*
X18698769Y-9510588D02*
X18746388Y-9510588D01*
X18746388Y-9510588D02*
X18765436Y-9520112D01*
X18765436Y-9520112D02*
X18774959Y-9529636D01*
X18774959Y-9529636D02*
X18784483Y-9548683D01*
X18784483Y-9548683D02*
X18784483Y-9567731D01*
X18784483Y-9567731D02*
X18774959Y-9596302D01*
X18774959Y-9596302D02*
X18660674Y-9710588D01*
X18660674Y-9710588D02*
X18784483Y-9710588D01*
X18870198Y-9691540D02*
X18879721Y-9701064D01*
X18879721Y-9701064D02*
X18870198Y-9710588D01*
X18870198Y-9710588D02*
X18860674Y-9701064D01*
X18860674Y-9701064D02*
X18870198Y-9691540D01*
X18870198Y-9691540D02*
X18870198Y-9710588D01*
X18955912Y-9529636D02*
X18965436Y-9520112D01*
X18965436Y-9520112D02*
X18984483Y-9510588D01*
X18984483Y-9510588D02*
X19032102Y-9510588D01*
X19032102Y-9510588D02*
X19051150Y-9520112D01*
X19051150Y-9520112D02*
X19060674Y-9529636D01*
X19060674Y-9529636D02*
X19070198Y-9548683D01*
X19070198Y-9548683D02*
X19070198Y-9567731D01*
X19070198Y-9567731D02*
X19060674Y-9596302D01*
X19060674Y-9596302D02*
X18946388Y-9710588D01*
X18946388Y-9710588D02*
X19070198Y-9710588D01*
X19194007Y-9510588D02*
X19213055Y-9510588D01*
X19213055Y-9510588D02*
X19232102Y-9520112D01*
X19232102Y-9520112D02*
X19241626Y-9529636D01*
X19241626Y-9529636D02*
X19251150Y-9548683D01*
X19251150Y-9548683D02*
X19260674Y-9586778D01*
X19260674Y-9586778D02*
X19260674Y-9634398D01*
X19260674Y-9634398D02*
X19251150Y-9672493D01*
X19251150Y-9672493D02*
X19241626Y-9691540D01*
X19241626Y-9691540D02*
X19232102Y-9701064D01*
X19232102Y-9701064D02*
X19213055Y-9710588D01*
X19213055Y-9710588D02*
X19194007Y-9710588D01*
X19194007Y-9710588D02*
X19174959Y-9701064D01*
X19174959Y-9701064D02*
X19165436Y-9691540D01*
X19165436Y-9691540D02*
X19155912Y-9672493D01*
X19155912Y-9672493D02*
X19146388Y-9634398D01*
X19146388Y-9634398D02*
X19146388Y-9586778D01*
X19146388Y-9586778D02*
X19155912Y-9548683D01*
X19155912Y-9548683D02*
X19165436Y-9529636D01*
X19165436Y-9529636D02*
X19174959Y-9520112D01*
X19174959Y-9520112D02*
X19194007Y-9510588D01*
X19384483Y-9510588D02*
X19403531Y-9510588D01*
X19403531Y-9510588D02*
X19422579Y-9520112D01*
X19422579Y-9520112D02*
X19432102Y-9529636D01*
X19432102Y-9529636D02*
X19441626Y-9548683D01*
X19441626Y-9548683D02*
X19451150Y-9586778D01*
X19451150Y-9586778D02*
X19451150Y-9634398D01*
X19451150Y-9634398D02*
X19441626Y-9672493D01*
X19441626Y-9672493D02*
X19432102Y-9691540D01*
X19432102Y-9691540D02*
X19422579Y-9701064D01*
X19422579Y-9701064D02*
X19403531Y-9710588D01*
X19403531Y-9710588D02*
X19384483Y-9710588D01*
X19384483Y-9710588D02*
X19365436Y-9701064D01*
X19365436Y-9701064D02*
X19355912Y-9691540D01*
X19355912Y-9691540D02*
X19346388Y-9672493D01*
X19346388Y-9672493D02*
X19336864Y-9634398D01*
X19336864Y-9634398D02*
X19336864Y-9586778D01*
X19336864Y-9586778D02*
X19346388Y-9548683D01*
X19346388Y-9548683D02*
X19355912Y-9529636D01*
X19355912Y-9529636D02*
X19365436Y-9520112D01*
X19365436Y-9520112D02*
X19384483Y-9510588D01*
X19536864Y-9710588D02*
X19536864Y-9577255D01*
X19536864Y-9596302D02*
X19546388Y-9586778D01*
X19546388Y-9586778D02*
X19565436Y-9577255D01*
X19565436Y-9577255D02*
X19594007Y-9577255D01*
X19594007Y-9577255D02*
X19613055Y-9586778D01*
X19613055Y-9586778D02*
X19622579Y-9605826D01*
X19622579Y-9605826D02*
X19622579Y-9710588D01*
X19622579Y-9605826D02*
X19632102Y-9586778D01*
X19632102Y-9586778D02*
X19651150Y-9577255D01*
X19651150Y-9577255D02*
X19679721Y-9577255D01*
X19679721Y-9577255D02*
X19698769Y-9586778D01*
X19698769Y-9586778D02*
X19708293Y-9605826D01*
X19708293Y-9605826D02*
X19708293Y-9710588D01*
X19803531Y-9710588D02*
X19803531Y-9577255D01*
X19803531Y-9596302D02*
X19813055Y-9586778D01*
X19813055Y-9586778D02*
X19832102Y-9577255D01*
X19832102Y-9577255D02*
X19860674Y-9577255D01*
X19860674Y-9577255D02*
X19879721Y-9586778D01*
X19879721Y-9586778D02*
X19889245Y-9605826D01*
X19889245Y-9605826D02*
X19889245Y-9710588D01*
X19889245Y-9605826D02*
X19898769Y-9586778D01*
X19898769Y-9586778D02*
X19917817Y-9577255D01*
X19917817Y-9577255D02*
X19946388Y-9577255D01*
X19946388Y-9577255D02*
X19965436Y-9586778D01*
X19965436Y-9586778D02*
X19974960Y-9605826D01*
X19974960Y-9605826D02*
X19974960Y-9710588D01*
X20365436Y-9501064D02*
X20194007Y-9758207D01*
X20622579Y-9510588D02*
X20641626Y-9510588D01*
X20641626Y-9510588D02*
X20660674Y-9520112D01*
X20660674Y-9520112D02*
X20670198Y-9529636D01*
X20670198Y-9529636D02*
X20679722Y-9548683D01*
X20679722Y-9548683D02*
X20689245Y-9586778D01*
X20689245Y-9586778D02*
X20689245Y-9634398D01*
X20689245Y-9634398D02*
X20679722Y-9672493D01*
X20679722Y-9672493D02*
X20670198Y-9691540D01*
X20670198Y-9691540D02*
X20660674Y-9701064D01*
X20660674Y-9701064D02*
X20641626Y-9710588D01*
X20641626Y-9710588D02*
X20622579Y-9710588D01*
X20622579Y-9710588D02*
X20603531Y-9701064D01*
X20603531Y-9701064D02*
X20594007Y-9691540D01*
X20594007Y-9691540D02*
X20584483Y-9672493D01*
X20584483Y-9672493D02*
X20574960Y-9634398D01*
X20574960Y-9634398D02*
X20574960Y-9586778D01*
X20574960Y-9586778D02*
X20584483Y-9548683D01*
X20584483Y-9548683D02*
X20594007Y-9529636D01*
X20594007Y-9529636D02*
X20603531Y-9520112D01*
X20603531Y-9520112D02*
X20622579Y-9510588D01*
X20774960Y-9691540D02*
X20784483Y-9701064D01*
X20784483Y-9701064D02*
X20774960Y-9710588D01*
X20774960Y-9710588D02*
X20765436Y-9701064D01*
X20765436Y-9701064D02*
X20774960Y-9691540D01*
X20774960Y-9691540D02*
X20774960Y-9710588D01*
X20908293Y-9510588D02*
X20927341Y-9510588D01*
X20927341Y-9510588D02*
X20946388Y-9520112D01*
X20946388Y-9520112D02*
X20955912Y-9529636D01*
X20955912Y-9529636D02*
X20965436Y-9548683D01*
X20965436Y-9548683D02*
X20974960Y-9586778D01*
X20974960Y-9586778D02*
X20974960Y-9634398D01*
X20974960Y-9634398D02*
X20965436Y-9672493D01*
X20965436Y-9672493D02*
X20955912Y-9691540D01*
X20955912Y-9691540D02*
X20946388Y-9701064D01*
X20946388Y-9701064D02*
X20927341Y-9710588D01*
X20927341Y-9710588D02*
X20908293Y-9710588D01*
X20908293Y-9710588D02*
X20889245Y-9701064D01*
X20889245Y-9701064D02*
X20879722Y-9691540D01*
X20879722Y-9691540D02*
X20870198Y-9672493D01*
X20870198Y-9672493D02*
X20860674Y-9634398D01*
X20860674Y-9634398D02*
X20860674Y-9586778D01*
X20860674Y-9586778D02*
X20870198Y-9548683D01*
X20870198Y-9548683D02*
X20879722Y-9529636D01*
X20879722Y-9529636D02*
X20889245Y-9520112D01*
X20889245Y-9520112D02*
X20908293Y-9510588D01*
X21089245Y-9596302D02*
X21070198Y-9586778D01*
X21070198Y-9586778D02*
X21060674Y-9577255D01*
X21060674Y-9577255D02*
X21051150Y-9558207D01*
X21051150Y-9558207D02*
X21051150Y-9548683D01*
X21051150Y-9548683D02*
X21060674Y-9529636D01*
X21060674Y-9529636D02*
X21070198Y-9520112D01*
X21070198Y-9520112D02*
X21089245Y-9510588D01*
X21089245Y-9510588D02*
X21127341Y-9510588D01*
X21127341Y-9510588D02*
X21146388Y-9520112D01*
X21146388Y-9520112D02*
X21155912Y-9529636D01*
X21155912Y-9529636D02*
X21165436Y-9548683D01*
X21165436Y-9548683D02*
X21165436Y-9558207D01*
X21165436Y-9558207D02*
X21155912Y-9577255D01*
X21155912Y-9577255D02*
X21146388Y-9586778D01*
X21146388Y-9586778D02*
X21127341Y-9596302D01*
X21127341Y-9596302D02*
X21089245Y-9596302D01*
X21089245Y-9596302D02*
X21070198Y-9605826D01*
X21070198Y-9605826D02*
X21060674Y-9615350D01*
X21060674Y-9615350D02*
X21051150Y-9634398D01*
X21051150Y-9634398D02*
X21051150Y-9672493D01*
X21051150Y-9672493D02*
X21060674Y-9691540D01*
X21060674Y-9691540D02*
X21070198Y-9701064D01*
X21070198Y-9701064D02*
X21089245Y-9710588D01*
X21089245Y-9710588D02*
X21127341Y-9710588D01*
X21127341Y-9710588D02*
X21146388Y-9701064D01*
X21146388Y-9701064D02*
X21155912Y-9691540D01*
X21155912Y-9691540D02*
X21165436Y-9672493D01*
X21165436Y-9672493D02*
X21165436Y-9634398D01*
X21165436Y-9634398D02*
X21155912Y-9615350D01*
X21155912Y-9615350D02*
X21146388Y-9605826D01*
X21146388Y-9605826D02*
X21127341Y-9596302D01*
X21336864Y-9510588D02*
X21298769Y-9510588D01*
X21298769Y-9510588D02*
X21279722Y-9520112D01*
X21279722Y-9520112D02*
X21270198Y-9529636D01*
X21270198Y-9529636D02*
X21251150Y-9558207D01*
X21251150Y-9558207D02*
X21241626Y-9596302D01*
X21241626Y-9596302D02*
X21241626Y-9672493D01*
X21241626Y-9672493D02*
X21251150Y-9691540D01*
X21251150Y-9691540D02*
X21260674Y-9701064D01*
X21260674Y-9701064D02*
X21279722Y-9710588D01*
X21279722Y-9710588D02*
X21317817Y-9710588D01*
X21317817Y-9710588D02*
X21336864Y-9701064D01*
X21336864Y-9701064D02*
X21346388Y-9691540D01*
X21346388Y-9691540D02*
X21355912Y-9672493D01*
X21355912Y-9672493D02*
X21355912Y-9624874D01*
X21355912Y-9624874D02*
X21346388Y-9605826D01*
X21346388Y-9605826D02*
X21336864Y-9596302D01*
X21336864Y-9596302D02*
X21317817Y-9586778D01*
X21317817Y-9586778D02*
X21279722Y-9586778D01*
X21279722Y-9586778D02*
X21260674Y-9596302D01*
X21260674Y-9596302D02*
X21251150Y-9605826D01*
X21251150Y-9605826D02*
X21241626Y-9624874D01*
X21527341Y-9510588D02*
X21489245Y-9510588D01*
X21489245Y-9510588D02*
X21470198Y-9520112D01*
X21470198Y-9520112D02*
X21460674Y-9529636D01*
X21460674Y-9529636D02*
X21441626Y-9558207D01*
X21441626Y-9558207D02*
X21432103Y-9596302D01*
X21432103Y-9596302D02*
X21432103Y-9672493D01*
X21432103Y-9672493D02*
X21441626Y-9691540D01*
X21441626Y-9691540D02*
X21451150Y-9701064D01*
X21451150Y-9701064D02*
X21470198Y-9710588D01*
X21470198Y-9710588D02*
X21508293Y-9710588D01*
X21508293Y-9710588D02*
X21527341Y-9701064D01*
X21527341Y-9701064D02*
X21536864Y-9691540D01*
X21536864Y-9691540D02*
X21546388Y-9672493D01*
X21546388Y-9672493D02*
X21546388Y-9624874D01*
X21546388Y-9624874D02*
X21536864Y-9605826D01*
X21536864Y-9605826D02*
X21527341Y-9596302D01*
X21527341Y-9596302D02*
X21508293Y-9586778D01*
X21508293Y-9586778D02*
X21470198Y-9586778D01*
X21470198Y-9586778D02*
X21451150Y-9596302D01*
X21451150Y-9596302D02*
X21441626Y-9605826D01*
X21441626Y-9605826D02*
X21432103Y-9624874D01*
X21622579Y-9510588D02*
X21622579Y-9548683D01*
X21698769Y-9510588D02*
X21698769Y-9548683D01*
X21994007Y-9786778D02*
X21984484Y-9777255D01*
X21984484Y-9777255D02*
X21965436Y-9748683D01*
X21965436Y-9748683D02*
X21955912Y-9729636D01*
X21955912Y-9729636D02*
X21946388Y-9701064D01*
X21946388Y-9701064D02*
X21936865Y-9653445D01*
X21936865Y-9653445D02*
X21936865Y-9615350D01*
X21936865Y-9615350D02*
X21946388Y-9567731D01*
X21946388Y-9567731D02*
X21955912Y-9539159D01*
X21955912Y-9539159D02*
X21965436Y-9520112D01*
X21965436Y-9520112D02*
X21984484Y-9491540D01*
X21984484Y-9491540D02*
X21994007Y-9482017D01*
X22060674Y-9529636D02*
X22070198Y-9520112D01*
X22070198Y-9520112D02*
X22089245Y-9510588D01*
X22089245Y-9510588D02*
X22136865Y-9510588D01*
X22136865Y-9510588D02*
X22155912Y-9520112D01*
X22155912Y-9520112D02*
X22165436Y-9529636D01*
X22165436Y-9529636D02*
X22174960Y-9548683D01*
X22174960Y-9548683D02*
X22174960Y-9567731D01*
X22174960Y-9567731D02*
X22165436Y-9596302D01*
X22165436Y-9596302D02*
X22051150Y-9710588D01*
X22051150Y-9710588D02*
X22174960Y-9710588D01*
X22413055Y-9710588D02*
X22413055Y-9510588D01*
X22498769Y-9710588D02*
X22498769Y-9605826D01*
X22498769Y-9605826D02*
X22489245Y-9586778D01*
X22489245Y-9586778D02*
X22470198Y-9577255D01*
X22470198Y-9577255D02*
X22441626Y-9577255D01*
X22441626Y-9577255D02*
X22422579Y-9586778D01*
X22422579Y-9586778D02*
X22413055Y-9596302D01*
X22622579Y-9710588D02*
X22603531Y-9701064D01*
X22603531Y-9701064D02*
X22594007Y-9691540D01*
X22594007Y-9691540D02*
X22584484Y-9672493D01*
X22584484Y-9672493D02*
X22584484Y-9615350D01*
X22584484Y-9615350D02*
X22594007Y-9596302D01*
X22594007Y-9596302D02*
X22603531Y-9586778D01*
X22603531Y-9586778D02*
X22622579Y-9577255D01*
X22622579Y-9577255D02*
X22651150Y-9577255D01*
X22651150Y-9577255D02*
X22670198Y-9586778D01*
X22670198Y-9586778D02*
X22679722Y-9596302D01*
X22679722Y-9596302D02*
X22689245Y-9615350D01*
X22689245Y-9615350D02*
X22689245Y-9672493D01*
X22689245Y-9672493D02*
X22679722Y-9691540D01*
X22679722Y-9691540D02*
X22670198Y-9701064D01*
X22670198Y-9701064D02*
X22651150Y-9710588D01*
X22651150Y-9710588D02*
X22622579Y-9710588D01*
X22803531Y-9710588D02*
X22784484Y-9701064D01*
X22784484Y-9701064D02*
X22774960Y-9682017D01*
X22774960Y-9682017D02*
X22774960Y-9510588D01*
X22955912Y-9701064D02*
X22936865Y-9710588D01*
X22936865Y-9710588D02*
X22898769Y-9710588D01*
X22898769Y-9710588D02*
X22879722Y-9701064D01*
X22879722Y-9701064D02*
X22870198Y-9682017D01*
X22870198Y-9682017D02*
X22870198Y-9605826D01*
X22870198Y-9605826D02*
X22879722Y-9586778D01*
X22879722Y-9586778D02*
X22898769Y-9577255D01*
X22898769Y-9577255D02*
X22936865Y-9577255D01*
X22936865Y-9577255D02*
X22955912Y-9586778D01*
X22955912Y-9586778D02*
X22965436Y-9605826D01*
X22965436Y-9605826D02*
X22965436Y-9624874D01*
X22965436Y-9624874D02*
X22870198Y-9643921D01*
X23041626Y-9701064D02*
X23060674Y-9710588D01*
X23060674Y-9710588D02*
X23098769Y-9710588D01*
X23098769Y-9710588D02*
X23117817Y-9701064D01*
X23117817Y-9701064D02*
X23127341Y-9682017D01*
X23127341Y-9682017D02*
X23127341Y-9672493D01*
X23127341Y-9672493D02*
X23117817Y-9653445D01*
X23117817Y-9653445D02*
X23098769Y-9643921D01*
X23098769Y-9643921D02*
X23070198Y-9643921D01*
X23070198Y-9643921D02*
X23051150Y-9634398D01*
X23051150Y-9634398D02*
X23041626Y-9615350D01*
X23041626Y-9615350D02*
X23041626Y-9605826D01*
X23041626Y-9605826D02*
X23051150Y-9586778D01*
X23051150Y-9586778D02*
X23070198Y-9577255D01*
X23070198Y-9577255D02*
X23098769Y-9577255D01*
X23098769Y-9577255D02*
X23117817Y-9586778D01*
X23194007Y-9786778D02*
X23203531Y-9777255D01*
X23203531Y-9777255D02*
X23222579Y-9748683D01*
X23222579Y-9748683D02*
X23232103Y-9729636D01*
X23232103Y-9729636D02*
X23241626Y-9701064D01*
X23241626Y-9701064D02*
X23251150Y-9653445D01*
X23251150Y-9653445D02*
X23251150Y-9615350D01*
X23251150Y-9615350D02*
X23241626Y-9567731D01*
X23241626Y-9567731D02*
X23232103Y-9539159D01*
X23232103Y-9539159D02*
X23222579Y-9520112D01*
X23222579Y-9520112D02*
X23203531Y-9491540D01*
X23203531Y-9491540D02*
X23194007Y-9482017D01*
M02*
