%TF.GenerationSoftware,KiCad,Pcbnew,8.0.2*%
%TF.CreationDate,2024-06-01T19:30:19+08:00*%
%TF.ProjectId,encoder,656e636f-6465-4722-9e6b-696361645f70,rev?*%
%TF.SameCoordinates,Original*%
%TF.FileFunction,Copper,L2,Bot*%
%TF.FilePolarity,Positive*%
%FSLAX46Y46*%
G04 Gerber Fmt 4.6, Leading zero omitted, Abs format (unit mm)*
G04 Created by KiCad (PCBNEW 8.0.2) date 2024-06-01 19:30:19*
%MOMM*%
%LPD*%
G01*
G04 APERTURE LIST*
%TA.AperFunction,ComponentPad*%
%ADD10C,0.700000*%
%TD*%
%TA.AperFunction,ComponentPad*%
%ADD11C,4.400000*%
%TD*%
%TA.AperFunction,SMDPad,CuDef*%
%ADD12R,0.400000X1.500000*%
%TD*%
%TA.AperFunction,SMDPad,CuDef*%
%ADD13R,1.800000X2.000000*%
%TD*%
%TA.AperFunction,ViaPad*%
%ADD14C,0.600000*%
%TD*%
%TA.AperFunction,ViaPad*%
%ADD15C,0.500000*%
%TD*%
%TA.AperFunction,Conductor*%
%ADD16C,0.300000*%
%TD*%
%TA.AperFunction,Conductor*%
%ADD17C,0.250000*%
%TD*%
G04 APERTURE END LIST*
D10*
%TO.P,H4,1*%
%TO.N,N/C*%
X210300000Y-76350000D03*
X209133274Y-75866726D03*
X211466726Y-75866726D03*
X208650000Y-74700000D03*
D11*
X210300000Y-74700000D03*
D10*
X211950000Y-74700000D03*
X209133274Y-73533274D03*
X211466726Y-73533274D03*
X210300000Y-73050000D03*
%TD*%
%TO.P,H3,1*%
%TO.N,N/C*%
X188650000Y-74700000D03*
X189133274Y-73533274D03*
X189133274Y-75866726D03*
X190300000Y-73050000D03*
D11*
X190300000Y-74700000D03*
D10*
X190300000Y-76350000D03*
X191466726Y-73533274D03*
X191466726Y-75866726D03*
X191950000Y-74700000D03*
%TD*%
D12*
%TO.P,J1,1,Pin_1*%
%TO.N,GND*%
X199050000Y-73575000D03*
%TO.P,J1,2,Pin_2*%
%TO.N,+3V3*%
X199550000Y-75825000D03*
%TO.P,J1,3,Pin_3*%
%TO.N,/CLK*%
X200050000Y-73575000D03*
%TO.P,J1,4,Pin_4*%
%TO.N,/MISO*%
X200550000Y-75825000D03*
%TO.P,J1,5,Pin_5*%
%TO.N,/MOSI*%
X201050000Y-73575000D03*
%TO.P,J1,6,Pin_6*%
%TO.N,/CSN*%
X201550000Y-75825000D03*
D13*
%TO.P,J1,7*%
%TO.N,N/C*%
X203150000Y-74700000D03*
%TO.P,J1,8*%
X197450000Y-74700000D03*
%TD*%
D14*
%TO.N,+3V3*%
X202875000Y-76605000D03*
%TO.N,GND*%
X199082948Y-73512906D03*
D15*
%TO.N,/CLK*%
X198805913Y-74894087D03*
%TO.N,/MISO*%
X200550000Y-75825000D03*
%TO.N,/CSN*%
X201550000Y-75825000D03*
%TD*%
D16*
%TO.N,+3V3*%
X202488974Y-76991026D02*
X202875000Y-76605000D01*
X200066026Y-76991026D02*
X202488974Y-76991026D01*
X199550000Y-76475000D02*
X200066026Y-76991026D01*
X199550000Y-75825000D02*
X199550000Y-76475000D01*
D17*
%TO.N,/CLK*%
X199050000Y-74650000D02*
X198805913Y-74894087D01*
X199525000Y-74650000D02*
X199050000Y-74650000D01*
X200050000Y-74125000D02*
X199525000Y-74650000D01*
X200050000Y-73575000D02*
X200050000Y-74125000D01*
%TD*%
M02*
