M48
; DRILL file {KiCad 8.0.2} date 2024-06-01T19:30:18+0800
; FORMAT={-:-/ absolute / inch / decimal}
; #@! TF.CreationDate,2024-06-01T19:30:18+08:00
; #@! TF.GenerationSoftware,Kicad,Pcbnew,8.0.2
; #@! TF.FileFunction,Plated,1,2,PTH
FMAT,2
INCH
; #@! TA.AperFunction,Plated,PTH,ViaDrill
T1C0.0098
; #@! TA.AperFunction,Plated,PTH,ViaDrill
T2C0.0118
; #@! TA.AperFunction,Plated,PTH,ComponentDrill
T3C0.0157
; #@! TA.AperFunction,Plated,PTH,ComponentDrill
T4C0.0866
%
G90
G05
T1
X7.827Y-2.9486
X7.8957Y-2.9852
X7.935Y-2.9852
T2
X7.8379Y-2.8942
X7.9872Y-3.0159
T3
X7.4272Y-2.9409
X7.4462Y-2.895
X7.4462Y-2.9869
X7.4921Y-2.876
X7.4921Y-3.0059
X7.5381Y-2.895
X7.5381Y-2.9869
X7.5571Y-2.9409
X8.2146Y-2.9409
X8.2336Y-2.895
X8.2336Y-2.9869
X8.2795Y-2.876
X8.2795Y-3.0059
X8.3255Y-2.895
X8.3255Y-2.9869
X8.3445Y-2.9409
T4
X7.4921Y-2.9409
X8.2795Y-2.9409
M30
