%TF.GenerationSoftware,KiCad,Pcbnew,8.0.2*%
%TF.CreationDate,2024-06-01T19:30:19+08:00*%
%TF.ProjectId,encoder,656e636f-6465-4722-9e6b-696361645f70,rev?*%
%TF.SameCoordinates,Original*%
%TF.FileFunction,Copper,L1,Top*%
%TF.FilePolarity,Positive*%
%FSLAX46Y46*%
G04 Gerber Fmt 4.6, Leading zero omitted, Abs format (unit mm)*
G04 Created by KiCad (PCBNEW 8.0.2) date 2024-06-01 19:30:19*
%MOMM*%
%LPD*%
G01*
G04 APERTURE LIST*
G04 Aperture macros list*
%AMRoundRect*
0 Rectangle with rounded corners*
0 $1 Rounding radius*
0 $2 $3 $4 $5 $6 $7 $8 $9 X,Y pos of 4 corners*
0 Add a 4 corners polygon primitive as box body*
4,1,4,$2,$3,$4,$5,$6,$7,$8,$9,$2,$3,0*
0 Add four circle primitives for the rounded corners*
1,1,$1+$1,$2,$3*
1,1,$1+$1,$4,$5*
1,1,$1+$1,$6,$7*
1,1,$1+$1,$8,$9*
0 Add four rect primitives between the rounded corners*
20,1,$1+$1,$2,$3,$4,$5,0*
20,1,$1+$1,$4,$5,$6,$7,0*
20,1,$1+$1,$6,$7,$8,$9,0*
20,1,$1+$1,$8,$9,$2,$3,0*%
%AMRotRect*
0 Rectangle, with rotation*
0 The origin of the aperture is its center*
0 $1 length*
0 $2 width*
0 $3 Rotation angle, in degrees counterclockwise*
0 Add horizontal line*
21,1,$1,$2,0,0,$3*%
G04 Aperture macros list end*
%TA.AperFunction,SMDPad,CuDef*%
%ADD10RoundRect,0.237500X0.237500X-0.300000X0.237500X0.300000X-0.237500X0.300000X-0.237500X-0.300000X0*%
%TD*%
%TA.AperFunction,ComponentPad*%
%ADD11C,0.700000*%
%TD*%
%TA.AperFunction,ComponentPad*%
%ADD12C,4.400000*%
%TD*%
%TA.AperFunction,SMDPad,CuDef*%
%ADD13RotRect,1.200000X1.400000X225.000000*%
%TD*%
%TA.AperFunction,SMDPad,CuDef*%
%ADD14RoundRect,0.150000X0.725000X0.150000X-0.725000X0.150000X-0.725000X-0.150000X0.725000X-0.150000X0*%
%TD*%
%TA.AperFunction,ViaPad*%
%ADD15C,0.600000*%
%TD*%
%TA.AperFunction,ViaPad*%
%ADD16C,0.500000*%
%TD*%
%TA.AperFunction,Conductor*%
%ADD17C,0.300000*%
%TD*%
%TA.AperFunction,Conductor*%
%ADD18C,0.250000*%
%TD*%
%TA.AperFunction,Conductor*%
%ADD19C,0.400000*%
%TD*%
G04 APERTURE END LIST*
D10*
%TO.P,C3,2*%
%TO.N,GND*%
X206600000Y-73475000D03*
%TO.P,C3,1*%
%TO.N,+3V3*%
X206600000Y-75200000D03*
%TD*%
D11*
%TO.P,H4,1*%
%TO.N,N/C*%
X210300000Y-76350000D03*
X209133274Y-75866726D03*
X211466726Y-75866726D03*
X208650000Y-74700000D03*
D12*
X210300000Y-74700000D03*
D11*
X211950000Y-74700000D03*
X209133274Y-73533274D03*
X211466726Y-73533274D03*
X210300000Y-73050000D03*
%TD*%
D13*
%TO.P,U2,2,2*%
%TO.N,GND*%
X203429031Y-79470969D03*
%TO.P,U2,1,1*%
%TO.N,+3V3*%
X205770969Y-77129031D03*
%TD*%
D11*
%TO.P,H3,1*%
%TO.N,N/C*%
X188650000Y-74700000D03*
X189133274Y-73533274D03*
X189133274Y-75866726D03*
X190300000Y-73050000D03*
D12*
X190300000Y-74700000D03*
D11*
X190300000Y-76350000D03*
X191466726Y-73533274D03*
X191466726Y-75866726D03*
X191950000Y-74700000D03*
%TD*%
D10*
%TO.P,C2,2*%
%TO.N,GND*%
X205100000Y-73475000D03*
%TO.P,C2,1*%
%TO.N,+3V3*%
X205100000Y-75200000D03*
%TD*%
D14*
%TO.P,U1,8,Z*%
%TO.N,/CSN*%
X197725000Y-76605000D03*
%TO.P,U1,7,B*%
%TO.N,/CLK*%
X197725000Y-75335000D03*
%TO.P,U1,6,A*%
%TO.N,/MISO*%
X197725000Y-74065000D03*
%TO.P,U1,5,PUSH*%
%TO.N,unconnected-(U1-PUSH-Pad5)*%
X197725000Y-72795000D03*
%TO.P,U1,4,GND*%
%TO.N,GND*%
X202875000Y-72795000D03*
%TO.P,U1,3,OUT*%
%TO.N,unconnected-(U1-OUT-Pad3)*%
X202875000Y-74065000D03*
%TO.P,U1,2,MODE*%
%TO.N,+3V3*%
X202875000Y-75335000D03*
%TO.P,U1,1,VDD*%
X202875000Y-76605000D03*
%TD*%
D15*
%TO.N,+3V3*%
X202875000Y-76605000D03*
%TO.N,GND*%
X199082948Y-73512906D03*
D16*
%TO.N,/CLK*%
X198805913Y-74894087D03*
%TO.N,/MISO*%
X200550000Y-75825000D03*
%TO.N,/CSN*%
X201550000Y-75825000D03*
%TD*%
D17*
%TO.N,GND*%
X199800854Y-72795000D02*
X199082948Y-73512906D01*
X202875000Y-72795000D02*
X199800854Y-72795000D01*
D18*
%TO.N,/CLK*%
X198165913Y-74894087D02*
X197725000Y-75335000D01*
X198805913Y-74894087D02*
X198165913Y-74894087D01*
%TO.N,/MISO*%
X198790000Y-74065000D02*
X200550000Y-75825000D01*
X197725000Y-74065000D02*
X198790000Y-74065000D01*
%TO.N,/CSN*%
X200770000Y-76605000D02*
X201550000Y-75825000D01*
X197725000Y-76605000D02*
X200770000Y-76605000D01*
D19*
%TO.N,GND*%
X207475000Y-74350000D02*
X206600000Y-73475000D01*
X206600000Y-73475000D02*
X205100000Y-73475000D01*
X202875000Y-72860000D02*
X204485000Y-72860000D01*
X203429031Y-79470969D02*
X204984667Y-79470969D01*
X204485000Y-72860000D02*
X205100000Y-73475000D01*
X207475000Y-76980636D02*
X207475000Y-74350000D01*
X204984667Y-79470969D02*
X207475000Y-76980636D01*
%TO.N,+3V3*%
X205100000Y-76458062D02*
X205770969Y-77129031D01*
X204280000Y-75200000D02*
X202875000Y-76605000D01*
X204600000Y-75100000D02*
X203780000Y-75100000D01*
X205106002Y-75200000D02*
X206600000Y-75200000D01*
X205100000Y-75200000D02*
X205100000Y-76458062D01*
X205100000Y-75200000D02*
X203010000Y-75200000D01*
%TD*%
M02*
