%TF.GenerationSoftware,KiCad,Pcbnew,8.0.2*%
%TF.CreationDate,2024-06-01T19:30:20+08:00*%
%TF.ProjectId,encoder,656e636f-6465-4722-9e6b-696361645f70,rev?*%
%TF.SameCoordinates,Original*%
%TF.FileFunction,Legend,Top*%
%TF.FilePolarity,Positive*%
%FSLAX46Y46*%
G04 Gerber Fmt 4.6, Leading zero omitted, Abs format (unit mm)*
G04 Created by KiCad (PCBNEW 8.0.2) date 2024-06-01 19:30:20*
%MOMM*%
%LPD*%
G01*
G04 APERTURE LIST*
%ADD10C,0.150000*%
%ADD11C,0.120000*%
%ADD12C,0.254000*%
G04 APERTURE END LIST*
D10*
G36*
X199723708Y-70357823D02*
G01*
X199755035Y-70388067D01*
X199790438Y-70456818D01*
X199791594Y-70659554D01*
X199758298Y-70728175D01*
X199728052Y-70759504D01*
X199659262Y-70794928D01*
X199504093Y-70796018D01*
X199435564Y-70762767D01*
X199404237Y-70732521D01*
X199368865Y-70663833D01*
X199368123Y-70460115D01*
X199400974Y-70392412D01*
X199431218Y-70361085D01*
X199500009Y-70325661D01*
X199655178Y-70324571D01*
X199723708Y-70357823D01*
G37*
G36*
X201580851Y-69976871D02*
G01*
X201612178Y-70007115D01*
X201650532Y-70081596D01*
X201695135Y-70254968D01*
X201696388Y-70474641D01*
X201654266Y-70648159D01*
X201615441Y-70728175D01*
X201585195Y-70759504D01*
X201516215Y-70795026D01*
X201456054Y-70795815D01*
X201387945Y-70762767D01*
X201356618Y-70732521D01*
X201318263Y-70658040D01*
X201273660Y-70484668D01*
X201272407Y-70264995D01*
X201314529Y-70091477D01*
X201353355Y-70011460D01*
X201383599Y-69980133D01*
X201452580Y-69944611D01*
X201512741Y-69943822D01*
X201580851Y-69976871D01*
G37*
G36*
X202907163Y-71055930D02*
G01*
X197250668Y-71055930D01*
X197250668Y-69869819D01*
X197361779Y-69869819D01*
X197363220Y-70884451D01*
X197374419Y-70911487D01*
X197395111Y-70932179D01*
X197422147Y-70943378D01*
X197451411Y-70943378D01*
X197478447Y-70932179D01*
X197499139Y-70911487D01*
X197510338Y-70884451D01*
X197511779Y-70869819D01*
X197510834Y-70204441D01*
X197702209Y-70612619D01*
X197705982Y-70622993D01*
X197708218Y-70625435D01*
X197709642Y-70628471D01*
X197718051Y-70636171D01*
X197725746Y-70644574D01*
X197728764Y-70645982D01*
X197731223Y-70648234D01*
X197741935Y-70652129D01*
X197752264Y-70656950D01*
X197755592Y-70657096D01*
X197758724Y-70658235D01*
X197770118Y-70657734D01*
X197781500Y-70658234D01*
X197784628Y-70657096D01*
X197787960Y-70656950D01*
X197798295Y-70652126D01*
X197809001Y-70648234D01*
X197811456Y-70645984D01*
X197814478Y-70644575D01*
X197822179Y-70636164D01*
X197830582Y-70628470D01*
X197833065Y-70624277D01*
X197834242Y-70622993D01*
X197834902Y-70621177D01*
X197838076Y-70615820D01*
X198028920Y-70204943D01*
X198029886Y-70884451D01*
X198041085Y-70911487D01*
X198061777Y-70932179D01*
X198088813Y-70943378D01*
X198118077Y-70943378D01*
X198145113Y-70932179D01*
X198165805Y-70911487D01*
X198177004Y-70884451D01*
X198178445Y-70869819D01*
X198177026Y-69870923D01*
X198177575Y-69858431D01*
X198177006Y-69856867D01*
X198177004Y-69855187D01*
X198363220Y-69855187D01*
X198363220Y-69884451D01*
X198374419Y-69911487D01*
X198395111Y-69932179D01*
X198422147Y-69943378D01*
X198436779Y-69944819D01*
X198647598Y-69944300D01*
X198648934Y-70884451D01*
X198660133Y-70911487D01*
X198680825Y-70932179D01*
X198707861Y-70943378D01*
X198737125Y-70943378D01*
X198764161Y-70932179D01*
X198784853Y-70911487D01*
X198796052Y-70884451D01*
X198797493Y-70869819D01*
X198796681Y-70298390D01*
X199218922Y-70298390D01*
X199220267Y-70667692D01*
X199219511Y-70669961D01*
X199220316Y-70681302D01*
X199220363Y-70693974D01*
X199221394Y-70696463D01*
X199221585Y-70699151D01*
X199226840Y-70712883D01*
X199275530Y-70807435D01*
X199279180Y-70816247D01*
X199281563Y-70819151D01*
X199282291Y-70820564D01*
X199283789Y-70821863D01*
X199288507Y-70827612D01*
X199337542Y-70874953D01*
X199343176Y-70881450D01*
X199346321Y-70883429D01*
X199347492Y-70884560D01*
X199349319Y-70885317D01*
X199355619Y-70889282D01*
X199441508Y-70930957D01*
X199442730Y-70932179D01*
X199451589Y-70935848D01*
X199464588Y-70942156D01*
X199467277Y-70942347D01*
X199469766Y-70943378D01*
X199484398Y-70944819D01*
X199663485Y-70943560D01*
X199665493Y-70944230D01*
X199676165Y-70943471D01*
X199689506Y-70943378D01*
X199691995Y-70942346D01*
X199694683Y-70942156D01*
X199708415Y-70936901D01*
X199802969Y-70888209D01*
X199811780Y-70884560D01*
X199814682Y-70882177D01*
X199816096Y-70881450D01*
X199817396Y-70879950D01*
X199823146Y-70875232D01*
X199870487Y-70826195D01*
X199876981Y-70820564D01*
X199878960Y-70817418D01*
X199880092Y-70816247D01*
X199880849Y-70814417D01*
X199884813Y-70808121D01*
X199926488Y-70722231D01*
X199927710Y-70721010D01*
X199931379Y-70712150D01*
X199937687Y-70699152D01*
X199937878Y-70696462D01*
X199938909Y-70693974D01*
X199940350Y-70679342D01*
X199939057Y-70452736D01*
X199939761Y-70450627D01*
X199938983Y-70439684D01*
X199938909Y-70426615D01*
X199937878Y-70424126D01*
X199937687Y-70421437D01*
X199932432Y-70407706D01*
X199883740Y-70313151D01*
X199880091Y-70304341D01*
X199877708Y-70301438D01*
X199876981Y-70300025D01*
X199875482Y-70298725D01*
X199870764Y-70292976D01*
X199821728Y-70245634D01*
X199816096Y-70239140D01*
X199812950Y-70237160D01*
X199811780Y-70236030D01*
X199809952Y-70235272D01*
X199803653Y-70231308D01*
X199717764Y-70189633D01*
X199716542Y-70188411D01*
X199707676Y-70184738D01*
X199694683Y-70178434D01*
X199691995Y-70178243D01*
X199689506Y-70177212D01*
X199674874Y-70175771D01*
X199495785Y-70177029D01*
X199493778Y-70176360D01*
X199483105Y-70177118D01*
X199469766Y-70177212D01*
X199467277Y-70178242D01*
X199464588Y-70178434D01*
X199450857Y-70183689D01*
X199391525Y-70214241D01*
X199409174Y-70141539D01*
X199490713Y-70017156D01*
X199526456Y-69980133D01*
X199595247Y-69944709D01*
X199784744Y-69943378D01*
X199811780Y-69932179D01*
X199832472Y-69911487D01*
X199843671Y-69884451D01*
X199843671Y-69855187D01*
X200125125Y-69855187D01*
X200125125Y-69884451D01*
X200136324Y-69911487D01*
X200157016Y-69932179D01*
X200184052Y-69943378D01*
X200198684Y-69944819D01*
X200752271Y-69943648D01*
X200363404Y-70854292D01*
X200363047Y-70883553D01*
X200373915Y-70910723D01*
X200394354Y-70931667D01*
X200421252Y-70943194D01*
X200450513Y-70943551D01*
X200477683Y-70932683D01*
X200498627Y-70912244D01*
X200505715Y-70899363D01*
X200782679Y-70250771D01*
X201123684Y-70250771D01*
X201125014Y-70484166D01*
X201123773Y-70492512D01*
X201125114Y-70501583D01*
X201125125Y-70503498D01*
X201125547Y-70504519D01*
X201125923Y-70507056D01*
X201173440Y-70691754D01*
X201173966Y-70699151D01*
X201178168Y-70710133D01*
X201178489Y-70711378D01*
X201178811Y-70711813D01*
X201179221Y-70712883D01*
X201227911Y-70807435D01*
X201231561Y-70816247D01*
X201233944Y-70819151D01*
X201234672Y-70820564D01*
X201236170Y-70821863D01*
X201240888Y-70827612D01*
X201289923Y-70874953D01*
X201295557Y-70881450D01*
X201298702Y-70883429D01*
X201299873Y-70884560D01*
X201301700Y-70885317D01*
X201308000Y-70889282D01*
X201393889Y-70930957D01*
X201395111Y-70932179D01*
X201403970Y-70935848D01*
X201416969Y-70942156D01*
X201419658Y-70942347D01*
X201422147Y-70943378D01*
X201436779Y-70944819D01*
X201521085Y-70943713D01*
X201522636Y-70944230D01*
X201531905Y-70943571D01*
X201546649Y-70943378D01*
X201549138Y-70942346D01*
X201551826Y-70942156D01*
X201565558Y-70936901D01*
X201660112Y-70888209D01*
X201668923Y-70884560D01*
X201671825Y-70882177D01*
X201673239Y-70881450D01*
X201674539Y-70879950D01*
X201680289Y-70875232D01*
X201727630Y-70826195D01*
X201734124Y-70820564D01*
X201736103Y-70817418D01*
X201737235Y-70816247D01*
X201737992Y-70814417D01*
X201741956Y-70808121D01*
X201786224Y-70716888D01*
X201790307Y-70711378D01*
X201794242Y-70700362D01*
X201794830Y-70699152D01*
X201794868Y-70698611D01*
X201795254Y-70697532D01*
X201840494Y-70511166D01*
X201843671Y-70503498D01*
X201844568Y-70494383D01*
X201845023Y-70492512D01*
X201844860Y-70491419D01*
X201845112Y-70488866D01*
X201843781Y-70255470D01*
X201845023Y-70247125D01*
X201843681Y-70238053D01*
X201843671Y-70236139D01*
X201843248Y-70235117D01*
X201842873Y-70232581D01*
X201820637Y-70146152D01*
X202076654Y-70146152D01*
X202078728Y-70175342D01*
X202091815Y-70201517D01*
X202113923Y-70220690D01*
X202141684Y-70229944D01*
X202170874Y-70227870D01*
X202184606Y-70222615D01*
X202279162Y-70173922D01*
X202287971Y-70170274D01*
X202290873Y-70167891D01*
X202292287Y-70167164D01*
X202293586Y-70165665D01*
X202299336Y-70160947D01*
X202362101Y-70096958D01*
X202363093Y-70795702D01*
X202136433Y-70796260D01*
X202109397Y-70807459D01*
X202088705Y-70828151D01*
X202077506Y-70855187D01*
X202077506Y-70884451D01*
X202088705Y-70911487D01*
X202109397Y-70932179D01*
X202136433Y-70943378D01*
X202151065Y-70944819D01*
X202737125Y-70943378D01*
X202764161Y-70932179D01*
X202784853Y-70911487D01*
X202796052Y-70884451D01*
X202796052Y-70855187D01*
X202784853Y-70828151D01*
X202764161Y-70807459D01*
X202737125Y-70796260D01*
X202722493Y-70794819D01*
X202511673Y-70795337D01*
X202510368Y-69876868D01*
X202511779Y-69869740D01*
X202510348Y-69862587D01*
X202510338Y-69855187D01*
X202507496Y-69848326D01*
X202506040Y-69841045D01*
X202501950Y-69834938D01*
X202499139Y-69828151D01*
X202493890Y-69822902D01*
X202489757Y-69816730D01*
X202483640Y-69812652D01*
X202478447Y-69807459D01*
X202471587Y-69804617D01*
X202465408Y-69800498D01*
X202458199Y-69799072D01*
X202451411Y-69796260D01*
X202443984Y-69796260D01*
X202436700Y-69794819D01*
X202429495Y-69796260D01*
X202422147Y-69796260D01*
X202415286Y-69799101D01*
X202408006Y-69800558D01*
X202401900Y-69804646D01*
X202395111Y-69807459D01*
X202389860Y-69812709D01*
X202383691Y-69816841D01*
X202374470Y-69828099D01*
X202374419Y-69828151D01*
X202374409Y-69828173D01*
X202374375Y-69828216D01*
X202287633Y-69960534D01*
X202204899Y-70044880D01*
X202105081Y-70096283D01*
X202085908Y-70118391D01*
X202076654Y-70146152D01*
X201820637Y-70146152D01*
X201795355Y-70047882D01*
X201794830Y-70040485D01*
X201790626Y-70029502D01*
X201790307Y-70028259D01*
X201789984Y-70027823D01*
X201789575Y-70026754D01*
X201740883Y-69932199D01*
X201737234Y-69923389D01*
X201734851Y-69920486D01*
X201734124Y-69919073D01*
X201732625Y-69917773D01*
X201727907Y-69912024D01*
X201678871Y-69864682D01*
X201673239Y-69858188D01*
X201670093Y-69856208D01*
X201668923Y-69855078D01*
X201667095Y-69854320D01*
X201660796Y-69850356D01*
X201574907Y-69808681D01*
X201573685Y-69807459D01*
X201564819Y-69803786D01*
X201551826Y-69797482D01*
X201549138Y-69797291D01*
X201546649Y-69796260D01*
X201532017Y-69794819D01*
X201447709Y-69795924D01*
X201446159Y-69795408D01*
X201436888Y-69796066D01*
X201422147Y-69796260D01*
X201419658Y-69797290D01*
X201416969Y-69797482D01*
X201403238Y-69802737D01*
X201308683Y-69851428D01*
X201299873Y-69855078D01*
X201296970Y-69857460D01*
X201295557Y-69858188D01*
X201294257Y-69859686D01*
X201288508Y-69864405D01*
X201241166Y-69913440D01*
X201234672Y-69919073D01*
X201232692Y-69922218D01*
X201231562Y-69923389D01*
X201230804Y-69925216D01*
X201226840Y-69931516D01*
X201182573Y-70022747D01*
X201178489Y-70028259D01*
X201174551Y-70039278D01*
X201173966Y-70040486D01*
X201173927Y-70041025D01*
X201173542Y-70042105D01*
X201128301Y-70228470D01*
X201125125Y-70236139D01*
X201124227Y-70245253D01*
X201123773Y-70247125D01*
X201123935Y-70248217D01*
X201123684Y-70250771D01*
X200782679Y-70250771D01*
X200927452Y-69911744D01*
X200927710Y-69911487D01*
X200932481Y-69899968D01*
X200938725Y-69885347D01*
X200938730Y-69884881D01*
X200938909Y-69884451D01*
X200938909Y-69870265D01*
X200939082Y-69856085D01*
X200938909Y-69855652D01*
X200938909Y-69855187D01*
X200933487Y-69842097D01*
X200928214Y-69828915D01*
X200927888Y-69828581D01*
X200927710Y-69828151D01*
X200917670Y-69818111D01*
X200907775Y-69807972D01*
X200907347Y-69807788D01*
X200907018Y-69807459D01*
X200893883Y-69802018D01*
X200880877Y-69796444D01*
X200880412Y-69796438D01*
X200879982Y-69796260D01*
X200865350Y-69794819D01*
X200184052Y-69796260D01*
X200157016Y-69807459D01*
X200136324Y-69828151D01*
X200125125Y-69855187D01*
X199843671Y-69855187D01*
X199832472Y-69828151D01*
X199811780Y-69807459D01*
X199784744Y-69796260D01*
X199770112Y-69794819D01*
X199591023Y-69796077D01*
X199589016Y-69795408D01*
X199578343Y-69796166D01*
X199565004Y-69796260D01*
X199562515Y-69797290D01*
X199559826Y-69797482D01*
X199546095Y-69802737D01*
X199451540Y-69851428D01*
X199442730Y-69855078D01*
X199439827Y-69857460D01*
X199438414Y-69858188D01*
X199437114Y-69859686D01*
X199431365Y-69864405D01*
X199388351Y-69908958D01*
X199383691Y-69912079D01*
X199374479Y-69923325D01*
X199374419Y-69923389D01*
X199374409Y-69923411D01*
X199374375Y-69923454D01*
X199280027Y-70067374D01*
X199273727Y-70075878D01*
X199272856Y-70078313D01*
X199272220Y-70079285D01*
X199271860Y-70081101D01*
X199268780Y-70089724D01*
X199223539Y-70276089D01*
X199220363Y-70283758D01*
X199219465Y-70292872D01*
X199219011Y-70294744D01*
X199219173Y-70295836D01*
X199218922Y-70298390D01*
X198796681Y-70298390D01*
X198796178Y-69943935D01*
X199022839Y-69943378D01*
X199049875Y-69932179D01*
X199070567Y-69911487D01*
X199081766Y-69884451D01*
X199081766Y-69855187D01*
X199070567Y-69828151D01*
X199049875Y-69807459D01*
X199022839Y-69796260D01*
X199008207Y-69794819D01*
X198422147Y-69796260D01*
X198395111Y-69807459D01*
X198374419Y-69828151D01*
X198363220Y-69855187D01*
X198177004Y-69855187D01*
X198172022Y-69843160D01*
X198167575Y-69830930D01*
X198166445Y-69829696D01*
X198165805Y-69828151D01*
X198156605Y-69818951D01*
X198147811Y-69809348D01*
X198146294Y-69808640D01*
X198145113Y-69807459D01*
X198133100Y-69802482D01*
X198121293Y-69796973D01*
X198119620Y-69796899D01*
X198118077Y-69796260D01*
X198105071Y-69796260D01*
X198092057Y-69795688D01*
X198090484Y-69796260D01*
X198088813Y-69796260D01*
X198076794Y-69801238D01*
X198064556Y-69805689D01*
X198063322Y-69806819D01*
X198061777Y-69807459D01*
X198052578Y-69816657D01*
X198042975Y-69825452D01*
X198041799Y-69827436D01*
X198041085Y-69828151D01*
X198040408Y-69829784D01*
X198035481Y-69838102D01*
X197770577Y-70408422D01*
X197503878Y-69839592D01*
X197499139Y-69828151D01*
X197497962Y-69826974D01*
X197497249Y-69825453D01*
X197487652Y-69816664D01*
X197478447Y-69807459D01*
X197476901Y-69806818D01*
X197475668Y-69805689D01*
X197463437Y-69801241D01*
X197451411Y-69796260D01*
X197449737Y-69796260D01*
X197448167Y-69795689D01*
X197435166Y-69796260D01*
X197422147Y-69796260D01*
X197420602Y-69796899D01*
X197418931Y-69796973D01*
X197407132Y-69802479D01*
X197395111Y-69807459D01*
X197393928Y-69808641D01*
X197392413Y-69809349D01*
X197383624Y-69818945D01*
X197374419Y-69828151D01*
X197373778Y-69829696D01*
X197372649Y-69830930D01*
X197368201Y-69843160D01*
X197363220Y-69855187D01*
X197362993Y-69857482D01*
X197362649Y-69858431D01*
X197362726Y-69860197D01*
X197361779Y-69869819D01*
X197250668Y-69869819D01*
X197250668Y-69683708D01*
X202907163Y-69683708D01*
X202907163Y-71055930D01*
G37*
D11*
%TO.C,C3*%
X206090000Y-74483767D02*
X206090000Y-74191233D01*
X207110000Y-74483767D02*
X207110000Y-74191233D01*
D10*
%TO.C,U2*%
X203884408Y-78297172D02*
X204602828Y-79015592D01*
X204423223Y-78117566D02*
X204782434Y-78476777D01*
X204602828Y-78297172D02*
X203884408Y-78297172D01*
X204602828Y-78297172D02*
X204602828Y-77578751D01*
X204602828Y-78297172D02*
X204602828Y-79015592D01*
X204602828Y-78297172D02*
X205321249Y-78297172D01*
D12*
X204956382Y-76529405D02*
X202835061Y-78650725D01*
D10*
X204962039Y-78656382D02*
X204243618Y-77937961D01*
X205141644Y-77758356D02*
X204064013Y-78835987D01*
X205321249Y-78297172D02*
X204602828Y-77578751D01*
D12*
X206370595Y-77943618D02*
X204249275Y-80064939D01*
D11*
%TO.C,C2*%
X204590000Y-74483767D02*
X204590000Y-74191233D01*
X205610000Y-74483767D02*
X205610000Y-74191233D01*
%TO.C,U1*%
X203240000Y-77495000D02*
X202760000Y-77495000D01*
X203000000Y-77165000D01*
X203240000Y-77495000D01*
G36*
X203240000Y-77495000D02*
G01*
X202760000Y-77495000D01*
X203000000Y-77165000D01*
X203240000Y-77495000D01*
G37*
X200300000Y-72140000D02*
X198350000Y-72140000D01*
X200300000Y-72140000D02*
X202250000Y-72140000D01*
X200300000Y-77260000D02*
X198350000Y-77260000D01*
X200300000Y-77260000D02*
X202250000Y-77260000D01*
%TD*%
M02*
