%TF.GenerationSoftware,KiCad,Pcbnew,8.0.2*%
%TF.CreationDate,2024-06-01T19:30:20+08:00*%
%TF.ProjectId,encoder,656e636f-6465-4722-9e6b-696361645f70,rev?*%
%TF.SameCoordinates,Original*%
%TF.FileFunction,Legend,Bot*%
%TF.FilePolarity,Positive*%
%FSLAX46Y46*%
G04 Gerber Fmt 4.6, Leading zero omitted, Abs format (unit mm)*
G04 Created by KiCad (PCBNEW 8.0.2) date 2024-06-01 19:30:20*
%MOMM*%
%LPD*%
G01*
G04 APERTURE LIST*
%ADD10C,0.150000*%
%ADD11C,0.254000*%
%ADD12C,0.120000*%
G04 APERTURE END LIST*
D10*
X198739411Y-71517438D02*
X198834649Y-71469819D01*
X198834649Y-71469819D02*
X198977506Y-71469819D01*
X198977506Y-71469819D02*
X199120363Y-71517438D01*
X199120363Y-71517438D02*
X199215601Y-71612676D01*
X199215601Y-71612676D02*
X199263220Y-71707914D01*
X199263220Y-71707914D02*
X199310839Y-71898390D01*
X199310839Y-71898390D02*
X199310839Y-72041247D01*
X199310839Y-72041247D02*
X199263220Y-72231723D01*
X199263220Y-72231723D02*
X199215601Y-72326961D01*
X199215601Y-72326961D02*
X199120363Y-72422200D01*
X199120363Y-72422200D02*
X198977506Y-72469819D01*
X198977506Y-72469819D02*
X198882268Y-72469819D01*
X198882268Y-72469819D02*
X198739411Y-72422200D01*
X198739411Y-72422200D02*
X198691792Y-72374580D01*
X198691792Y-72374580D02*
X198691792Y-72041247D01*
X198691792Y-72041247D02*
X198882268Y-72041247D01*
D11*
%TO.C,J1*%
X204667000Y-75843000D02*
X204667000Y-73557000D01*
X201951000Y-75843000D02*
X204667000Y-75843000D01*
X201443000Y-73557000D02*
X204667000Y-73557000D01*
X200981000Y-75843000D02*
X201119000Y-75843000D01*
X200619000Y-73557000D02*
X200481000Y-73557000D01*
X199981000Y-75843000D02*
X200119000Y-75843000D01*
X199619000Y-73557000D02*
X199481000Y-73557000D01*
X199119000Y-75843000D02*
X195933000Y-75843000D01*
X198531000Y-73557000D02*
X195933000Y-73557000D01*
X195933000Y-73557000D02*
X195933000Y-75843000D01*
X198589000Y-73049000D02*
G75*
G02*
X198335000Y-73049000I-127000J0D01*
G01*
X198335000Y-73049000D02*
G75*
G02*
X198589000Y-73049000I127000J0D01*
G01*
D12*
X202205000Y-75335000D02*
X201824000Y-75335000D01*
X201824000Y-74954000D01*
X199157000Y-74954000D01*
X199157000Y-75335000D01*
X198776000Y-75335000D01*
X198776000Y-74446000D01*
X202205000Y-74446000D01*
X202205000Y-75335000D01*
G36*
X202205000Y-75335000D02*
G01*
X201824000Y-75335000D01*
X201824000Y-74954000D01*
X199157000Y-74954000D01*
X199157000Y-75335000D01*
X198776000Y-75335000D01*
X198776000Y-74446000D01*
X202205000Y-74446000D01*
X202205000Y-75335000D01*
G37*
%TD*%
M02*
