M48
; DRILL file {KiCad 8.0.2} date 2024-07-05T22:45:19+0800
; FORMAT={-:-/ absolute / inch / decimal}
; #@! TF.CreationDate,2024-07-05T22:45:19+08:00
; #@! TF.GenerationSoftware,Kicad,Pcbnew,8.0.2
; #@! TF.FileFunction,Plated,1,2,PTH
FMAT,2
INCH
; #@! TA.AperFunction,Plated,PTH,ViaDrill
T1C0.0098
; #@! TA.AperFunction,Plated,PTH,ViaDrill
T2C0.0197
; #@! TA.AperFunction,Plated,PTH,ComponentDrill
T3C0.0197
; #@! TA.AperFunction,Plated,PTH,ViaDrill
T4C0.0236
; #@! TA.AperFunction,Plated,PTH,ViaDrill
T5C0.0315
; #@! TA.AperFunction,Plated,PTH,ComponentDrill
T6C0.0472
; #@! TA.AperFunction,Plated,PTH,ComponentDrill
T7C0.0591
; #@! TA.AperFunction,Plated,PTH,ComponentDrill
T8C0.0630
; #@! TA.AperFunction,Plated,PTH,ComponentDrill
T9C0.0709
; #@! TA.AperFunction,Plated,PTH,ComponentDrill
T10C0.0866
%
G90
G05
T1
X4.2441Y-2.748
X4.3209Y-2.7402
X4.4252Y-2.6693
X4.4252Y-3.1324
X4.5089Y-2.5761
X4.5089Y-2.7533
X4.5546Y-2.4822
X4.5591Y-2.5674
X4.5591Y-3.8976
X4.5613Y-3.9274
X4.9119Y-3.5541
X5.0709Y-3.2323
X5.0896Y-3.4803
X5.1182Y-3.0944
X5.1196Y-3.3268
X5.1978Y-2.6352
X5.1978Y-2.6942
X5.2008Y-2.9252
X5.3561Y-3.3053
X5.3595Y-3.394
T2
X4.4567Y-3.2028
X4.7184Y-4.0076
X4.7888Y-3.4506
X4.9847Y-3.4537
X4.9847Y-3.6742
X5.0709Y-3.311
X5.0787Y-3.9606
T4
X4.3346Y-2.5615
X4.4087Y-3.6021
X4.4449Y-2.5182
X4.5709Y-4.1142
X4.5748Y-2.9528
X4.6713Y-3.6337
X4.7534Y-3.6066
X4.8902Y-2.7244
X5.1339Y-4.0984
X5.1619Y-3.5787
X5.2726Y-3.646
X5.3292Y-3.5066
X5.4532Y-3.5979
T5
X4.0591Y-3.4016
X4.0602Y-3.4557
X4.0602Y-3.5118
X4.6934Y-3.7264
T6
X3.2067Y-3.0863
X3.2067Y-3.1847
X3.2067Y-3.2831
X3.452Y-3.5284
X3.5504Y-3.5284
X3.6489Y-3.5284
X4.2018Y-2.3507
X4.3271Y-2.2254
X5.3816Y-2.2254
X5.5069Y-2.3507
X5.8012Y-3.0824
X5.8012Y-3.1808
X5.8012Y-3.2792
X6.0465Y-3.5245
X6.1449Y-3.5245
X6.2433Y-3.5245
T7
X4.2366Y-2.4551
X4.4314Y-2.2602
X5.2772Y-2.2602
X5.4721Y-2.4551
T8
X3.4134Y-2.7795
X3.4134Y-2.9567
X3.689Y-2.7795
X3.689Y-2.9567
X6.0079Y-2.7756
X6.0079Y-2.9528
X6.2835Y-2.7756
X6.2835Y-2.9528
T9
X3.3014Y-2.9879
X3.3014Y-3.3816
X3.7994Y-2.9879
X3.7994Y-3.3816
X5.8959Y-2.9839
X5.8959Y-3.3776
X6.3939Y-2.9839
X6.3939Y-3.3776
T10
X4.0669Y-2.6339
X4.0669Y-3.7402
X5.6417Y-2.6339
X5.6417Y-3.7402
T3
G00X4.6724Y-3.9941
M15
G01X4.6724Y-3.9665
M16
G05
G00X4.6724Y-4.1437
M15
G01X4.6724Y-4.1161
M16
G05
G00X5.0126Y-3.9941
M15
G01X5.0126Y-3.9665
M16
G05
G00X5.0126Y-4.1437
M15
G01X5.0126Y-4.1161
M16
G05
M30
