%TF.GenerationSoftware,KiCad,Pcbnew,8.0.2*%
%TF.CreationDate,2024-07-05T22:45:24+08:00*%
%TF.ProjectId,controller,636f6e74-726f-46c6-9c65-722e6b696361,rev?*%
%TF.SameCoordinates,Original*%
%TF.FileFunction,Legend,Top*%
%TF.FilePolarity,Positive*%
%FSLAX46Y46*%
G04 Gerber Fmt 4.6, Leading zero omitted, Abs format (unit mm)*
G04 Created by KiCad (PCBNEW 8.0.2) date 2024-07-05 22:45:24*
%MOMM*%
%LPD*%
G01*
G04 APERTURE LIST*
%ADD10C,0.150000*%
%ADD11C,0.300000*%
%ADD12C,0.187500*%
%ADD13C,0.120000*%
%ADD14C,0.254000*%
G04 APERTURE END LIST*
D10*
X126469819Y-81406077D02*
X126469819Y-80834649D01*
X127469819Y-81120363D02*
X126469819Y-81120363D01*
D11*
G36*
X117807581Y-87517495D02*
G01*
X112802135Y-87517495D01*
X112802135Y-85702184D01*
X112968802Y-85702184D01*
X112971949Y-85731421D01*
X113283601Y-87213647D01*
X113283195Y-87224621D01*
X113289449Y-87241460D01*
X113293239Y-87259482D01*
X113299624Y-87268854D01*
X113303573Y-87279484D01*
X113315950Y-87292815D01*
X113326194Y-87307849D01*
X113335678Y-87314063D01*
X113343396Y-87322375D01*
X113359936Y-87329956D01*
X113375149Y-87339923D01*
X113386288Y-87342034D01*
X113396601Y-87346761D01*
X113414781Y-87347434D01*
X113432652Y-87350822D01*
X113443755Y-87348508D01*
X113455089Y-87348929D01*
X113472141Y-87342595D01*
X113489950Y-87338885D01*
X113499321Y-87332499D01*
X113509952Y-87328551D01*
X113523286Y-87316170D01*
X113538317Y-87305929D01*
X113544529Y-87296446D01*
X113552843Y-87288728D01*
X113567656Y-87263326D01*
X113609523Y-87171564D01*
X114212749Y-87171564D01*
X114212749Y-87230092D01*
X114235147Y-87284164D01*
X114276531Y-87325548D01*
X114330603Y-87347946D01*
X114359867Y-87350828D01*
X114791116Y-87349425D01*
X114799229Y-87350440D01*
X114803057Y-87349387D01*
X115246274Y-87347946D01*
X115300346Y-87325548D01*
X115341730Y-87284164D01*
X115364128Y-87230092D01*
X115364128Y-87171564D01*
X115354704Y-87148813D01*
X115648629Y-87148813D01*
X115648820Y-87149377D01*
X115648785Y-87149974D01*
X115658182Y-87177061D01*
X115667379Y-87204255D01*
X115667840Y-87204900D01*
X115667968Y-87205268D01*
X115668658Y-87206045D01*
X115684481Y-87228176D01*
X115752253Y-87302095D01*
X115761705Y-87314248D01*
X115765235Y-87316255D01*
X115768421Y-87319730D01*
X115768954Y-87319993D01*
X115769351Y-87320440D01*
X115791341Y-87331101D01*
X115812581Y-87343180D01*
X115816943Y-87343725D01*
X115820884Y-87345674D01*
X115821480Y-87345713D01*
X115822015Y-87345973D01*
X115846397Y-87347407D01*
X115870657Y-87350440D01*
X115874894Y-87349274D01*
X115879280Y-87349567D01*
X115879847Y-87349375D01*
X115880440Y-87349410D01*
X115903528Y-87341400D01*
X115927090Y-87334921D01*
X115930556Y-87332224D01*
X115934722Y-87330816D01*
X115935170Y-87330423D01*
X115935734Y-87330228D01*
X115959521Y-87312940D01*
X116053932Y-87225390D01*
X116059125Y-87220847D01*
X116059373Y-87220345D01*
X116059836Y-87219916D01*
X116072397Y-87194007D01*
X116085069Y-87168384D01*
X116085108Y-87167791D01*
X116085370Y-87167252D01*
X116087062Y-87138477D01*
X116088962Y-87109988D01*
X116088771Y-87109425D01*
X116088807Y-87108827D01*
X116079369Y-87081624D01*
X116070212Y-87054546D01*
X116069752Y-87053903D01*
X116069624Y-87053533D01*
X116068928Y-87052750D01*
X116053111Y-87030624D01*
X115985341Y-86956707D01*
X115975886Y-86944550D01*
X115972353Y-86942541D01*
X115969171Y-86939070D01*
X115968635Y-86938805D01*
X115968239Y-86938359D01*
X115946259Y-86927702D01*
X115925010Y-86915619D01*
X115920647Y-86915073D01*
X115916709Y-86913126D01*
X115916111Y-86913086D01*
X115915575Y-86912826D01*
X115891194Y-86911391D01*
X115866934Y-86908359D01*
X115862696Y-86909524D01*
X115858312Y-86909232D01*
X115857744Y-86909423D01*
X115857150Y-86909389D01*
X115834069Y-86917396D01*
X115810501Y-86923877D01*
X115807031Y-86926575D01*
X115802870Y-86927983D01*
X115802421Y-86928375D01*
X115801855Y-86928572D01*
X115778069Y-86945860D01*
X115683692Y-87033379D01*
X115678465Y-87037953D01*
X115678215Y-87038458D01*
X115677755Y-87038885D01*
X115665268Y-87064638D01*
X115652521Y-87090416D01*
X115652481Y-87091012D01*
X115652221Y-87091549D01*
X115650536Y-87120194D01*
X115648629Y-87148813D01*
X115354704Y-87148813D01*
X115341730Y-87117492D01*
X115300346Y-87076108D01*
X115246274Y-87053710D01*
X115217010Y-87050828D01*
X114957932Y-87051670D01*
X114998192Y-86724621D01*
X116417123Y-86724621D01*
X116418106Y-86727267D01*
X116418106Y-86730092D01*
X116428261Y-86754609D01*
X116437501Y-86779484D01*
X116439422Y-86781553D01*
X116440504Y-86784164D01*
X116459268Y-86802928D01*
X116477324Y-86822375D01*
X116479892Y-86823552D01*
X116481888Y-86825548D01*
X116506395Y-86835699D01*
X116530529Y-86846761D01*
X116533351Y-86846865D01*
X116535960Y-86847946D01*
X116565224Y-86850828D01*
X117111679Y-86849183D01*
X117067398Y-87211618D01*
X117082917Y-87268051D01*
X117118848Y-87314248D01*
X117169724Y-87343180D01*
X117227800Y-87350440D01*
X117284233Y-87334921D01*
X117330430Y-87298990D01*
X117359362Y-87248114D01*
X117365852Y-87219433D01*
X117411198Y-86848282D01*
X117523060Y-86847946D01*
X117577132Y-86825548D01*
X117618516Y-86784164D01*
X117640914Y-86730092D01*
X117640914Y-86671564D01*
X117618516Y-86617492D01*
X117577132Y-86576108D01*
X117523060Y-86553710D01*
X117493796Y-86550828D01*
X117447524Y-86550967D01*
X117491622Y-86190038D01*
X117476103Y-86133605D01*
X117440172Y-86087408D01*
X117389296Y-86058476D01*
X117331220Y-86051217D01*
X117274787Y-86066735D01*
X117228590Y-86102666D01*
X117199658Y-86153542D01*
X117193168Y-86182223D01*
X117148005Y-86551868D01*
X116797411Y-86552923D01*
X117202229Y-85664095D01*
X117204397Y-85605607D01*
X117184019Y-85550744D01*
X117144196Y-85507853D01*
X117090991Y-85483467D01*
X117032503Y-85481299D01*
X116977640Y-85501677D01*
X116934749Y-85541500D01*
X116919936Y-85566902D01*
X116442231Y-86615764D01*
X116440504Y-86617492D01*
X116431053Y-86640307D01*
X116419291Y-86666133D01*
X116419186Y-86668955D01*
X116418106Y-86671564D01*
X116418106Y-86698101D01*
X116417123Y-86724621D01*
X114998192Y-86724621D01*
X115120661Y-85729757D01*
X115125452Y-85712903D01*
X115124132Y-85701558D01*
X115125551Y-85690038D01*
X115120772Y-85672662D01*
X115118692Y-85654769D01*
X115113085Y-85644709D01*
X115110032Y-85633605D01*
X115098972Y-85619385D01*
X115090200Y-85603645D01*
X115081168Y-85596495D01*
X115074101Y-85587408D01*
X115058441Y-85578503D01*
X115044311Y-85567316D01*
X115033233Y-85564167D01*
X115023225Y-85558476D01*
X115005346Y-85556241D01*
X114988014Y-85551315D01*
X114976575Y-85552645D01*
X114965149Y-85551217D01*
X114947777Y-85555993D01*
X114929880Y-85558075D01*
X114919819Y-85563681D01*
X114908716Y-85566735D01*
X114894496Y-85577794D01*
X114878756Y-85586567D01*
X114865308Y-85600496D01*
X114862519Y-85602666D01*
X114861522Y-85604417D01*
X114858332Y-85607723D01*
X114706863Y-85802841D01*
X114706641Y-85803003D01*
X114568596Y-85928656D01*
X114404675Y-86008746D01*
X114365286Y-86052035D01*
X114345463Y-86107102D01*
X114348220Y-86165564D01*
X114373142Y-86218521D01*
X114416431Y-86257910D01*
X114471498Y-86277733D01*
X114529960Y-86274976D01*
X114557666Y-86265123D01*
X114705428Y-86192928D01*
X114721450Y-86187370D01*
X114730978Y-86180444D01*
X114734703Y-86178625D01*
X114737085Y-86176006D01*
X114745237Y-86170082D01*
X114769792Y-86147730D01*
X114658396Y-87052644D01*
X114330603Y-87053710D01*
X114276531Y-87076108D01*
X114235147Y-87117492D01*
X114212749Y-87171564D01*
X113609523Y-87171564D01*
X114264729Y-85735523D01*
X114266897Y-85677036D01*
X114246519Y-85622172D01*
X114206696Y-85579282D01*
X114153490Y-85554896D01*
X114095003Y-85552727D01*
X114040140Y-85573105D01*
X113997249Y-85612928D01*
X113982436Y-85638330D01*
X113485192Y-86728159D01*
X113256853Y-85642174D01*
X113223898Y-85593807D01*
X113174943Y-85561733D01*
X113117440Y-85550834D01*
X113060142Y-85562771D01*
X113011775Y-85595726D01*
X112979701Y-85644681D01*
X112968802Y-85702184D01*
X112802135Y-85702184D01*
X112802135Y-85314632D01*
X117807581Y-85314632D01*
X117807581Y-87517495D01*
G37*
D10*
X127469819Y-79415601D02*
X127469819Y-79225125D01*
X127469819Y-79225125D02*
X127422200Y-79129887D01*
X127422200Y-79129887D02*
X127374580Y-79082268D01*
X127374580Y-79082268D02*
X127231723Y-78987030D01*
X127231723Y-78987030D02*
X127041247Y-78939411D01*
X127041247Y-78939411D02*
X126660295Y-78939411D01*
X126660295Y-78939411D02*
X126565057Y-78987030D01*
X126565057Y-78987030D02*
X126517438Y-79034649D01*
X126517438Y-79034649D02*
X126469819Y-79129887D01*
X126469819Y-79129887D02*
X126469819Y-79320363D01*
X126469819Y-79320363D02*
X126517438Y-79415601D01*
X126517438Y-79415601D02*
X126565057Y-79463220D01*
X126565057Y-79463220D02*
X126660295Y-79510839D01*
X126660295Y-79510839D02*
X126898390Y-79510839D01*
X126898390Y-79510839D02*
X126993628Y-79463220D01*
X126993628Y-79463220D02*
X127041247Y-79415601D01*
X127041247Y-79415601D02*
X127088866Y-79320363D01*
X127088866Y-79320363D02*
X127088866Y-79129887D01*
X127088866Y-79129887D02*
X127041247Y-79034649D01*
X127041247Y-79034649D02*
X126993628Y-78987030D01*
X126993628Y-78987030D02*
X126898390Y-78939411D01*
X126717438Y-83739411D02*
X126669819Y-83834649D01*
X126669819Y-83834649D02*
X126669819Y-83977506D01*
X126669819Y-83977506D02*
X126717438Y-84120363D01*
X126717438Y-84120363D02*
X126812676Y-84215601D01*
X126812676Y-84215601D02*
X126907914Y-84263220D01*
X126907914Y-84263220D02*
X127098390Y-84310839D01*
X127098390Y-84310839D02*
X127241247Y-84310839D01*
X127241247Y-84310839D02*
X127431723Y-84263220D01*
X127431723Y-84263220D02*
X127526961Y-84215601D01*
X127526961Y-84215601D02*
X127622200Y-84120363D01*
X127622200Y-84120363D02*
X127669819Y-83977506D01*
X127669819Y-83977506D02*
X127669819Y-83882268D01*
X127669819Y-83882268D02*
X127622200Y-83739411D01*
X127622200Y-83739411D02*
X127574580Y-83691792D01*
X127574580Y-83691792D02*
X127241247Y-83691792D01*
X127241247Y-83691792D02*
X127241247Y-83882268D01*
X126946009Y-82263220D02*
X126946009Y-81929887D01*
X127469819Y-81787030D02*
X127469819Y-82263220D01*
X127469819Y-82263220D02*
X126469819Y-82263220D01*
X126469819Y-82263220D02*
X126469819Y-81787030D01*
X127469819Y-79891792D02*
X126993628Y-80225125D01*
X127469819Y-80463220D02*
X126469819Y-80463220D01*
X126469819Y-80463220D02*
X126469819Y-80082268D01*
X126469819Y-80082268D02*
X126517438Y-79987030D01*
X126517438Y-79987030D02*
X126565057Y-79939411D01*
X126565057Y-79939411D02*
X126660295Y-79891792D01*
X126660295Y-79891792D02*
X126803152Y-79891792D01*
X126803152Y-79891792D02*
X126898390Y-79939411D01*
X126898390Y-79939411D02*
X126946009Y-79987030D01*
X126946009Y-79987030D02*
X126993628Y-80082268D01*
X126993628Y-80082268D02*
X126993628Y-80463220D01*
G36*
X109566358Y-97376770D02*
G01*
X109640150Y-97449152D01*
X109680843Y-97607323D01*
X109682146Y-97922077D01*
X109642032Y-98087325D01*
X109571565Y-98159166D01*
X109502119Y-98194928D01*
X109346950Y-98196018D01*
X109278628Y-98162867D01*
X109204835Y-98090485D01*
X109164142Y-97932313D01*
X109162839Y-97617559D01*
X109202953Y-97452311D01*
X109273421Y-97380470D01*
X109342866Y-97344709D01*
X109498035Y-97343619D01*
X109566358Y-97376770D01*
G37*
G36*
X112709215Y-97376770D02*
G01*
X112783007Y-97449152D01*
X112823700Y-97607323D01*
X112825003Y-97922077D01*
X112784889Y-98087325D01*
X112714422Y-98159166D01*
X112644976Y-98194928D01*
X112489807Y-98196018D01*
X112421485Y-98162867D01*
X112347692Y-98090485D01*
X112306999Y-97932313D01*
X112305696Y-97617559D01*
X112345810Y-97452311D01*
X112416278Y-97380470D01*
X112485723Y-97344709D01*
X112640892Y-97343619D01*
X112709215Y-97376770D01*
G37*
G36*
X114845258Y-98694025D02*
G01*
X108903049Y-98694025D01*
X108903049Y-98507993D01*
X111014160Y-98507993D01*
X111019899Y-98536687D01*
X111036182Y-98561002D01*
X111060531Y-98577235D01*
X111089239Y-98582914D01*
X111117933Y-98577175D01*
X111142248Y-98560892D01*
X111151564Y-98549516D01*
X111781210Y-97603152D01*
X112157017Y-97603152D01*
X112158377Y-97931588D01*
X112157106Y-97940131D01*
X112158450Y-97949223D01*
X112158458Y-97951117D01*
X112158880Y-97952138D01*
X112159256Y-97954675D01*
X112206077Y-98136666D01*
X112206077Y-98141592D01*
X112209421Y-98149667D01*
X112211822Y-98158997D01*
X112215141Y-98163476D01*
X112217275Y-98168628D01*
X112226603Y-98179994D01*
X112322370Y-98273932D01*
X112328890Y-98281450D01*
X112332083Y-98283460D01*
X112333206Y-98284561D01*
X112335038Y-98285319D01*
X112341333Y-98289282D01*
X112427222Y-98330957D01*
X112428444Y-98332179D01*
X112437303Y-98335848D01*
X112450302Y-98342156D01*
X112452991Y-98342347D01*
X112455480Y-98343378D01*
X112470112Y-98344819D01*
X112649199Y-98343560D01*
X112651207Y-98344230D01*
X112661879Y-98343471D01*
X112675220Y-98343378D01*
X112677709Y-98342346D01*
X112680397Y-98342156D01*
X112694129Y-98336901D01*
X112788683Y-98288209D01*
X112797494Y-98284560D01*
X112800396Y-98282177D01*
X112801810Y-98281450D01*
X112803109Y-98279951D01*
X112808859Y-98275233D01*
X112897454Y-98184909D01*
X112901456Y-98182509D01*
X112906541Y-98175645D01*
X112913425Y-98168628D01*
X112915558Y-98163476D01*
X112918878Y-98158997D01*
X112923825Y-98145151D01*
X112969065Y-97958785D01*
X112972242Y-97951117D01*
X112973139Y-97942002D01*
X112973594Y-97940131D01*
X112973431Y-97939038D01*
X112973683Y-97936485D01*
X112972322Y-97608048D01*
X112973594Y-97599506D01*
X112972249Y-97590413D01*
X112972242Y-97588520D01*
X112971819Y-97587498D01*
X112971444Y-97584962D01*
X112924623Y-97402970D01*
X112924623Y-97398045D01*
X112921277Y-97389968D01*
X112918878Y-97380640D01*
X112915559Y-97376161D01*
X112913425Y-97371008D01*
X112904097Y-97359643D01*
X112812522Y-97269819D01*
X113252255Y-97269819D01*
X113253696Y-98284451D01*
X113264895Y-98311487D01*
X113285587Y-98332179D01*
X113312623Y-98343378D01*
X113341887Y-98343378D01*
X113368923Y-98332179D01*
X113389615Y-98311487D01*
X113400814Y-98284451D01*
X113402255Y-98269819D01*
X113401617Y-97820701D01*
X113675220Y-97819568D01*
X113702256Y-97808369D01*
X113722948Y-97787677D01*
X113734147Y-97760641D01*
X113734147Y-97731377D01*
X113722948Y-97704341D01*
X113702256Y-97683649D01*
X113675220Y-97672450D01*
X113660588Y-97671009D01*
X113401406Y-97672082D01*
X113400940Y-97344602D01*
X113818077Y-97343378D01*
X113845113Y-97332179D01*
X113865805Y-97311487D01*
X113877004Y-97284451D01*
X113877004Y-97269819D01*
X114109398Y-97269819D01*
X114110839Y-98284451D01*
X114122038Y-98311487D01*
X114142730Y-98332179D01*
X114169766Y-98343378D01*
X114199030Y-98343378D01*
X114226066Y-98332179D01*
X114246758Y-98311487D01*
X114257957Y-98284451D01*
X114259398Y-98269819D01*
X114258760Y-97820701D01*
X114532363Y-97819568D01*
X114559399Y-97808369D01*
X114580091Y-97787677D01*
X114591290Y-97760641D01*
X114591290Y-97731377D01*
X114580091Y-97704341D01*
X114559399Y-97683649D01*
X114532363Y-97672450D01*
X114517731Y-97671009D01*
X114258549Y-97672082D01*
X114258083Y-97344602D01*
X114675220Y-97343378D01*
X114702256Y-97332179D01*
X114722948Y-97311487D01*
X114734147Y-97284451D01*
X114734147Y-97255187D01*
X114722948Y-97228151D01*
X114702256Y-97207459D01*
X114675220Y-97196260D01*
X114660588Y-97194819D01*
X114169766Y-97196260D01*
X114142730Y-97207459D01*
X114122038Y-97228151D01*
X114110839Y-97255187D01*
X114109398Y-97269819D01*
X113877004Y-97269819D01*
X113877004Y-97255187D01*
X113865805Y-97228151D01*
X113845113Y-97207459D01*
X113818077Y-97196260D01*
X113803445Y-97194819D01*
X113312623Y-97196260D01*
X113285587Y-97207459D01*
X113264895Y-97228151D01*
X113253696Y-97255187D01*
X113252255Y-97269819D01*
X112812522Y-97269819D01*
X112808334Y-97265711D01*
X112801810Y-97258188D01*
X112798613Y-97256175D01*
X112797494Y-97255078D01*
X112795666Y-97254320D01*
X112789367Y-97250356D01*
X112703478Y-97208681D01*
X112702256Y-97207459D01*
X112693390Y-97203786D01*
X112680397Y-97197482D01*
X112677709Y-97197291D01*
X112675220Y-97196260D01*
X112660588Y-97194819D01*
X112481499Y-97196077D01*
X112479492Y-97195408D01*
X112468819Y-97196166D01*
X112455480Y-97196260D01*
X112452991Y-97197290D01*
X112450302Y-97197482D01*
X112436571Y-97202737D01*
X112342021Y-97251425D01*
X112333206Y-97255077D01*
X112330300Y-97257461D01*
X112328890Y-97258188D01*
X112327591Y-97259684D01*
X112321841Y-97264405D01*
X112233245Y-97354726D01*
X112229244Y-97357128D01*
X112224157Y-97363991D01*
X112217276Y-97371008D01*
X112215142Y-97376158D01*
X112211822Y-97380640D01*
X112206875Y-97394486D01*
X112161634Y-97580851D01*
X112158458Y-97588520D01*
X112157560Y-97597634D01*
X112157106Y-97599506D01*
X112157268Y-97600598D01*
X112157017Y-97603152D01*
X111781210Y-97603152D01*
X112015623Y-97250828D01*
X112021302Y-97222121D01*
X112015563Y-97193426D01*
X111999280Y-97169111D01*
X111974931Y-97152878D01*
X111946223Y-97147200D01*
X111917529Y-97152939D01*
X111893214Y-97169222D01*
X111883898Y-97180597D01*
X111019839Y-98479285D01*
X111014160Y-98507993D01*
X108903049Y-98507993D01*
X108903049Y-97603152D01*
X109014160Y-97603152D01*
X109015520Y-97931588D01*
X109014249Y-97940131D01*
X109015593Y-97949223D01*
X109015601Y-97951117D01*
X109016023Y-97952138D01*
X109016399Y-97954675D01*
X109063220Y-98136666D01*
X109063220Y-98141592D01*
X109066564Y-98149667D01*
X109068965Y-98158997D01*
X109072284Y-98163476D01*
X109074418Y-98168628D01*
X109083746Y-98179994D01*
X109179513Y-98273932D01*
X109186033Y-98281450D01*
X109189226Y-98283460D01*
X109190349Y-98284561D01*
X109192181Y-98285319D01*
X109198476Y-98289282D01*
X109284365Y-98330957D01*
X109285587Y-98332179D01*
X109294446Y-98335848D01*
X109307445Y-98342156D01*
X109310134Y-98342347D01*
X109312623Y-98343378D01*
X109327255Y-98344819D01*
X109506342Y-98343560D01*
X109508350Y-98344230D01*
X109519022Y-98343471D01*
X109532363Y-98343378D01*
X109534852Y-98342346D01*
X109537540Y-98342156D01*
X109551272Y-98336901D01*
X109645826Y-98288209D01*
X109654637Y-98284560D01*
X109657539Y-98282177D01*
X109658953Y-98281450D01*
X109660252Y-98279951D01*
X109666002Y-98275233D01*
X109754597Y-98184909D01*
X109758599Y-98182509D01*
X109763684Y-98175645D01*
X109770568Y-98168628D01*
X109772701Y-98163476D01*
X109776021Y-98158997D01*
X109780968Y-98145151D01*
X109826208Y-97958785D01*
X109829385Y-97951117D01*
X109830282Y-97942002D01*
X109830737Y-97940131D01*
X109830574Y-97939038D01*
X109830826Y-97936485D01*
X109829465Y-97608048D01*
X109830737Y-97599506D01*
X109829392Y-97590413D01*
X109829385Y-97588520D01*
X109828962Y-97587498D01*
X109828587Y-97584962D01*
X109781766Y-97402970D01*
X109781766Y-97398045D01*
X109778420Y-97389968D01*
X109776021Y-97380640D01*
X109772702Y-97376161D01*
X109770568Y-97371008D01*
X109761240Y-97359643D01*
X109669665Y-97269819D01*
X110109398Y-97269819D01*
X110110839Y-98284451D01*
X110122038Y-98311487D01*
X110142730Y-98332179D01*
X110169766Y-98343378D01*
X110199030Y-98343378D01*
X110226066Y-98332179D01*
X110246758Y-98311487D01*
X110257957Y-98284451D01*
X110259398Y-98269819D01*
X110258375Y-97549749D01*
X110689722Y-98302448D01*
X110693466Y-98311487D01*
X110696828Y-98314849D01*
X110699218Y-98319019D01*
X110707106Y-98325127D01*
X110714158Y-98332179D01*
X110718576Y-98334009D01*
X110722356Y-98336936D01*
X110731977Y-98339560D01*
X110741194Y-98343378D01*
X110745975Y-98343378D01*
X110750587Y-98344636D01*
X110760484Y-98343378D01*
X110770458Y-98343378D01*
X110774873Y-98341548D01*
X110779617Y-98340946D01*
X110788281Y-98335995D01*
X110797494Y-98332179D01*
X110800872Y-98328800D01*
X110805026Y-98326427D01*
X110811135Y-98318537D01*
X110818186Y-98311487D01*
X110820015Y-98307070D01*
X110822943Y-98303290D01*
X110825567Y-98293666D01*
X110829385Y-98284451D01*
X110830121Y-98276968D01*
X110830643Y-98275058D01*
X110830455Y-98273582D01*
X110830826Y-98269819D01*
X110829385Y-97255187D01*
X110818186Y-97228151D01*
X110797494Y-97207459D01*
X110770458Y-97196260D01*
X110741194Y-97196260D01*
X110714158Y-97207459D01*
X110693466Y-97228151D01*
X110682267Y-97255187D01*
X110680826Y-97269819D01*
X110681848Y-97989888D01*
X110250501Y-97237189D01*
X110246758Y-97228151D01*
X110243395Y-97224788D01*
X110241006Y-97220619D01*
X110233116Y-97214509D01*
X110226066Y-97207459D01*
X110221649Y-97205629D01*
X110217869Y-97202702D01*
X110208245Y-97200077D01*
X110199030Y-97196260D01*
X110194249Y-97196260D01*
X110189637Y-97195002D01*
X110179740Y-97196260D01*
X110169766Y-97196260D01*
X110165350Y-97198089D01*
X110160607Y-97198692D01*
X110151942Y-97203642D01*
X110142730Y-97207459D01*
X110139351Y-97210837D01*
X110135198Y-97213211D01*
X110129088Y-97221100D01*
X110122038Y-97228151D01*
X110120208Y-97232567D01*
X110117281Y-97236348D01*
X110114656Y-97245971D01*
X110110839Y-97255187D01*
X110110102Y-97262669D01*
X110109581Y-97264580D01*
X110109768Y-97266055D01*
X110109398Y-97269819D01*
X109669665Y-97269819D01*
X109665477Y-97265711D01*
X109658953Y-97258188D01*
X109655756Y-97256175D01*
X109654637Y-97255078D01*
X109652809Y-97254320D01*
X109646510Y-97250356D01*
X109560621Y-97208681D01*
X109559399Y-97207459D01*
X109550533Y-97203786D01*
X109537540Y-97197482D01*
X109534852Y-97197291D01*
X109532363Y-97196260D01*
X109517731Y-97194819D01*
X109338642Y-97196077D01*
X109336635Y-97195408D01*
X109325962Y-97196166D01*
X109312623Y-97196260D01*
X109310134Y-97197290D01*
X109307445Y-97197482D01*
X109293714Y-97202737D01*
X109199164Y-97251425D01*
X109190349Y-97255077D01*
X109187443Y-97257461D01*
X109186033Y-97258188D01*
X109184734Y-97259684D01*
X109178984Y-97264405D01*
X109090388Y-97354726D01*
X109086387Y-97357128D01*
X109081300Y-97363991D01*
X109074419Y-97371008D01*
X109072285Y-97376158D01*
X109068965Y-97380640D01*
X109064018Y-97394486D01*
X109018777Y-97580851D01*
X109015601Y-97588520D01*
X109014703Y-97597634D01*
X109014249Y-97599506D01*
X109014411Y-97600598D01*
X109014160Y-97603152D01*
X108903049Y-97603152D01*
X108903049Y-97036089D01*
X114845258Y-97036089D01*
X114845258Y-98694025D01*
G37*
G36*
X132966565Y-97376871D02*
G01*
X132997892Y-97407115D01*
X133033350Y-97475972D01*
X133034335Y-97583604D01*
X133001155Y-97651985D01*
X132970910Y-97683313D01*
X132902222Y-97718684D01*
X132776071Y-97719144D01*
X132773249Y-97718646D01*
X132770915Y-97719162D01*
X132610997Y-97719745D01*
X132610464Y-97344550D01*
X132897798Y-97343503D01*
X132966565Y-97376871D01*
G37*
G36*
X136911925Y-98455930D02*
G01*
X132350668Y-98455930D01*
X132350668Y-97269819D01*
X132461779Y-97269819D01*
X132463220Y-98284451D01*
X132474419Y-98311487D01*
X132495111Y-98332179D01*
X132522147Y-98343378D01*
X132551411Y-98343378D01*
X132578447Y-98332179D01*
X132599139Y-98311487D01*
X132610338Y-98284451D01*
X132611779Y-98269819D01*
X132611208Y-97868356D01*
X132735431Y-97867904D01*
X133056336Y-98323989D01*
X133081015Y-98339716D01*
X133109832Y-98344802D01*
X133138403Y-98338472D01*
X133162377Y-98321690D01*
X133178104Y-98297012D01*
X133183189Y-98268194D01*
X133176860Y-98239623D01*
X133169650Y-98226810D01*
X132916793Y-97867439D01*
X132919691Y-97867233D01*
X132932363Y-97867187D01*
X132934852Y-97866155D01*
X132937540Y-97865965D01*
X132951272Y-97860710D01*
X133045828Y-97812017D01*
X133054637Y-97808369D01*
X133057539Y-97805986D01*
X133058953Y-97805259D01*
X133060252Y-97803760D01*
X133066002Y-97799042D01*
X133113343Y-97750006D01*
X133119838Y-97744374D01*
X133121817Y-97741228D01*
X133122948Y-97740058D01*
X133123705Y-97738230D01*
X133127670Y-97731931D01*
X133169345Y-97646041D01*
X133170567Y-97644820D01*
X133174236Y-97635960D01*
X133180544Y-97622962D01*
X133180735Y-97620272D01*
X133181766Y-97617784D01*
X133183207Y-97603152D01*
X133182002Y-97471521D01*
X133182618Y-97469675D01*
X133181892Y-97459460D01*
X133181766Y-97445663D01*
X133180735Y-97443174D01*
X133180544Y-97440485D01*
X133175289Y-97426754D01*
X133126597Y-97332199D01*
X133122948Y-97323389D01*
X133120565Y-97320486D01*
X133119838Y-97319073D01*
X133118339Y-97317773D01*
X133113621Y-97312024D01*
X133069906Y-97269819D01*
X133461779Y-97269819D01*
X133463220Y-98284451D01*
X133474419Y-98311487D01*
X133495111Y-98332179D01*
X133522147Y-98343378D01*
X133536779Y-98344819D01*
X134027601Y-98343378D01*
X134054637Y-98332179D01*
X134075329Y-98311487D01*
X134086528Y-98284451D01*
X134086528Y-98255187D01*
X134075329Y-98228151D01*
X134054637Y-98207459D01*
X134027601Y-98196260D01*
X134012969Y-98194819D01*
X133611674Y-98195997D01*
X133611141Y-97820701D01*
X133884744Y-97819568D01*
X133911780Y-97808369D01*
X133932472Y-97787677D01*
X133943671Y-97760641D01*
X133943671Y-97731377D01*
X133932472Y-97704341D01*
X133911780Y-97683649D01*
X133884744Y-97672450D01*
X133870112Y-97671009D01*
X133610930Y-97672082D01*
X133610629Y-97460295D01*
X134318922Y-97460295D01*
X134320027Y-97544601D01*
X134319511Y-97546152D01*
X134320169Y-97555421D01*
X134320363Y-97570165D01*
X134321394Y-97572654D01*
X134321585Y-97575342D01*
X134326840Y-97589074D01*
X134375532Y-97683630D01*
X134379181Y-97692439D01*
X134381563Y-97695341D01*
X134382291Y-97696755D01*
X134383789Y-97698054D01*
X134388508Y-97703804D01*
X134437543Y-97751145D01*
X134443176Y-97757640D01*
X134446321Y-97759619D01*
X134447492Y-97760750D01*
X134449319Y-97761507D01*
X134455619Y-97765472D01*
X134546851Y-97809740D01*
X134552362Y-97813823D01*
X134563377Y-97817758D01*
X134564588Y-97818346D01*
X134565128Y-97818384D01*
X134566208Y-97818770D01*
X134743691Y-97861854D01*
X134823708Y-97900680D01*
X134855035Y-97930924D01*
X134890557Y-97999905D01*
X134891346Y-98060066D01*
X134858298Y-98128175D01*
X134828052Y-98159504D01*
X134759302Y-98194907D01*
X134552521Y-98196086D01*
X134403302Y-98147789D01*
X134374112Y-98149864D01*
X134347939Y-98162950D01*
X134328765Y-98185057D01*
X134319511Y-98212820D01*
X134321586Y-98242010D01*
X134334672Y-98268183D01*
X134356779Y-98287357D01*
X134370205Y-98293351D01*
X134512786Y-98339500D01*
X134522147Y-98343378D01*
X134525910Y-98343748D01*
X134527398Y-98344230D01*
X134529372Y-98344089D01*
X134536779Y-98344819D01*
X134763383Y-98343526D01*
X134765493Y-98344230D01*
X134776435Y-98343452D01*
X134789506Y-98343378D01*
X134791995Y-98342346D01*
X134794683Y-98342156D01*
X134808415Y-98336901D01*
X134902969Y-98288209D01*
X134911780Y-98284560D01*
X134914682Y-98282177D01*
X134916096Y-98281450D01*
X134917396Y-98279950D01*
X134923146Y-98275232D01*
X134970487Y-98226195D01*
X134976981Y-98220564D01*
X134978960Y-98217418D01*
X134980092Y-98216247D01*
X134980849Y-98214417D01*
X134984813Y-98208121D01*
X135026488Y-98122231D01*
X135027710Y-98121010D01*
X135031379Y-98112150D01*
X135037687Y-98099152D01*
X135037878Y-98096462D01*
X135038909Y-98093974D01*
X135040350Y-98079342D01*
X135039244Y-97995034D01*
X135039761Y-97993484D01*
X135039102Y-97984213D01*
X135038909Y-97969472D01*
X135037878Y-97966983D01*
X135037687Y-97964294D01*
X135032432Y-97950563D01*
X134983740Y-97856008D01*
X134980091Y-97847198D01*
X134977708Y-97844295D01*
X134976981Y-97842882D01*
X134975482Y-97841582D01*
X134970764Y-97835833D01*
X134921728Y-97788491D01*
X134916096Y-97781997D01*
X134912950Y-97780017D01*
X134911780Y-97778887D01*
X134909952Y-97778129D01*
X134903653Y-97774165D01*
X134812421Y-97729898D01*
X134806910Y-97725814D01*
X134795890Y-97721876D01*
X134794683Y-97721291D01*
X134794143Y-97721252D01*
X134793064Y-97720867D01*
X134615580Y-97677782D01*
X134535564Y-97638957D01*
X134504236Y-97608712D01*
X134468714Y-97539731D01*
X134467925Y-97479570D01*
X134500974Y-97411460D01*
X134531218Y-97380133D01*
X134599969Y-97344730D01*
X134806750Y-97343551D01*
X134955969Y-97391849D01*
X134985159Y-97389774D01*
X135011333Y-97376688D01*
X135030507Y-97354580D01*
X135039761Y-97326818D01*
X135037686Y-97297628D01*
X135024599Y-97271455D01*
X135022713Y-97269819D01*
X135318922Y-97269819D01*
X135320363Y-98284451D01*
X135331562Y-98311487D01*
X135352254Y-98332179D01*
X135379290Y-98343378D01*
X135393922Y-98344819D01*
X135884744Y-98343378D01*
X135911780Y-98332179D01*
X135932472Y-98311487D01*
X135943671Y-98284451D01*
X135943671Y-98255187D01*
X135932472Y-98228151D01*
X135911780Y-98207459D01*
X135884744Y-98196260D01*
X135870112Y-98194819D01*
X135468817Y-98195997D01*
X135468284Y-97820701D01*
X135741887Y-97819568D01*
X135768923Y-97808369D01*
X135789615Y-97787677D01*
X135800814Y-97760641D01*
X135800814Y-97731377D01*
X135789615Y-97704341D01*
X135768923Y-97683649D01*
X135741887Y-97672450D01*
X135727255Y-97671009D01*
X135468073Y-97672082D01*
X135467607Y-97344602D01*
X135884744Y-97343378D01*
X135911780Y-97332179D01*
X135932472Y-97311487D01*
X135943671Y-97284451D01*
X135943671Y-97255187D01*
X136082268Y-97255187D01*
X136082268Y-97284451D01*
X136093467Y-97311487D01*
X136114159Y-97332179D01*
X136141195Y-97343378D01*
X136155827Y-97344819D01*
X136366646Y-97344300D01*
X136367982Y-98284451D01*
X136379181Y-98311487D01*
X136399873Y-98332179D01*
X136426909Y-98343378D01*
X136456173Y-98343378D01*
X136483209Y-98332179D01*
X136503901Y-98311487D01*
X136515100Y-98284451D01*
X136516541Y-98269819D01*
X136515226Y-97343935D01*
X136741887Y-97343378D01*
X136768923Y-97332179D01*
X136789615Y-97311487D01*
X136800814Y-97284451D01*
X136800814Y-97255187D01*
X136789615Y-97228151D01*
X136768923Y-97207459D01*
X136741887Y-97196260D01*
X136727255Y-97194819D01*
X136141195Y-97196260D01*
X136114159Y-97207459D01*
X136093467Y-97228151D01*
X136082268Y-97255187D01*
X135943671Y-97255187D01*
X135932472Y-97228151D01*
X135911780Y-97207459D01*
X135884744Y-97196260D01*
X135870112Y-97194819D01*
X135379290Y-97196260D01*
X135352254Y-97207459D01*
X135331562Y-97228151D01*
X135320363Y-97255187D01*
X135318922Y-97269819D01*
X135022713Y-97269819D01*
X135002492Y-97252281D01*
X134989067Y-97246287D01*
X134846488Y-97200138D01*
X134837125Y-97196260D01*
X134833359Y-97195889D01*
X134831873Y-97195408D01*
X134829898Y-97195548D01*
X134822493Y-97194819D01*
X134595887Y-97196111D01*
X134593778Y-97195408D01*
X134582835Y-97196185D01*
X134569766Y-97196260D01*
X134567277Y-97197290D01*
X134564588Y-97197482D01*
X134550857Y-97202737D01*
X134456302Y-97251428D01*
X134447492Y-97255078D01*
X134444589Y-97257460D01*
X134443176Y-97258188D01*
X134441876Y-97259686D01*
X134436127Y-97264405D01*
X134388785Y-97313440D01*
X134382291Y-97319073D01*
X134380311Y-97322218D01*
X134379181Y-97323389D01*
X134378423Y-97325216D01*
X134374459Y-97331516D01*
X134332784Y-97417404D01*
X134331562Y-97418627D01*
X134327889Y-97427492D01*
X134321585Y-97440486D01*
X134321394Y-97443173D01*
X134320363Y-97445663D01*
X134318922Y-97460295D01*
X133610629Y-97460295D01*
X133610464Y-97344602D01*
X134027601Y-97343378D01*
X134054637Y-97332179D01*
X134075329Y-97311487D01*
X134086528Y-97284451D01*
X134086528Y-97255187D01*
X134075329Y-97228151D01*
X134054637Y-97207459D01*
X134027601Y-97196260D01*
X134012969Y-97194819D01*
X133522147Y-97196260D01*
X133495111Y-97207459D01*
X133474419Y-97228151D01*
X133463220Y-97255187D01*
X133461779Y-97269819D01*
X133069906Y-97269819D01*
X133064585Y-97264682D01*
X133058953Y-97258188D01*
X133055807Y-97256208D01*
X133054637Y-97255078D01*
X133052809Y-97254320D01*
X133046510Y-97250356D01*
X132960621Y-97208681D01*
X132959399Y-97207459D01*
X132950533Y-97203786D01*
X132937540Y-97197482D01*
X132934852Y-97197291D01*
X132932363Y-97196260D01*
X132917731Y-97194819D01*
X132522147Y-97196260D01*
X132495111Y-97207459D01*
X132474419Y-97228151D01*
X132463220Y-97255187D01*
X132461779Y-97269819D01*
X132350668Y-97269819D01*
X132350668Y-97083708D01*
X136911925Y-97083708D01*
X136911925Y-98455930D01*
G37*
X126669819Y-83406077D02*
X127669819Y-83072744D01*
X127669819Y-83072744D02*
X126669819Y-82739411D01*
D12*
X123025926Y-81354500D02*
X123597355Y-81354500D01*
X123311640Y-81640214D02*
X123311640Y-81068785D01*
X120739926Y-81354500D02*
X121311355Y-81354500D01*
D13*
%TO.C,D3*%
X119350000Y-99550000D02*
X119350000Y-100700000D01*
X126650000Y-99550000D02*
X119350000Y-99550000D01*
X126650000Y-105050000D02*
X119350000Y-105050000D01*
%TO.C,Q3*%
X115357500Y-78840000D02*
X114707500Y-78840000D01*
X115357500Y-78840000D02*
X116007500Y-78840000D01*
X115357500Y-81960000D02*
X114707500Y-81960000D01*
X115357500Y-81960000D02*
X116007500Y-81960000D01*
X114195000Y-78890000D02*
X113955000Y-78560000D01*
X114435000Y-78560000D01*
X114195000Y-78890000D01*
G36*
X114195000Y-78890000D02*
G01*
X113955000Y-78560000D01*
X114435000Y-78560000D01*
X114195000Y-78890000D01*
G37*
%TO.C,C4*%
X117802500Y-93721267D02*
X117802500Y-93428733D01*
X118822500Y-93721267D02*
X118822500Y-93428733D01*
%TO.C,J3*%
X128680000Y-85061000D02*
X128172000Y-85061000D01*
X128426000Y-84680000D01*
X128680000Y-85061000D01*
G36*
X128680000Y-85061000D02*
G01*
X128172000Y-85061000D01*
X128426000Y-84680000D01*
X128680000Y-85061000D01*
G37*
D14*
X133650000Y-84569000D02*
X133650000Y-78631000D01*
X129188000Y-85700000D02*
X131569000Y-85700000D01*
X129188000Y-84631000D02*
X129188000Y-85700000D01*
X129188000Y-78569000D02*
X129188000Y-77500000D01*
X129188000Y-77500000D02*
X131569000Y-77500000D01*
D13*
%TO.C,U3*%
X132402500Y-92662500D02*
X132402500Y-91862500D01*
X132402500Y-92662500D02*
X132402500Y-93462500D01*
X135522500Y-92662500D02*
X135522500Y-91862500D01*
X135522500Y-92662500D02*
X135522500Y-93462500D01*
X132452500Y-93962500D02*
X132122500Y-94202500D01*
X132122500Y-93722500D01*
X132452500Y-93962500D01*
G36*
X132452500Y-93962500D02*
G01*
X132122500Y-94202500D01*
X132122500Y-93722500D01*
X132452500Y-93962500D01*
G37*
%TO.C,R11*%
X111877500Y-80729724D02*
X111877500Y-80220276D01*
X112922500Y-80729724D02*
X112922500Y-80220276D01*
%TO.C,Q2*%
X126802500Y-91262500D02*
X126802500Y-90612500D01*
X126802500Y-91262500D02*
X126802500Y-91912500D01*
X129922500Y-91262500D02*
X129922500Y-90612500D01*
X129922500Y-91262500D02*
X129922500Y-91912500D01*
X130202500Y-90340000D02*
X129872500Y-90100000D01*
X130202500Y-89860000D01*
X130202500Y-90340000D01*
G36*
X130202500Y-90340000D02*
G01*
X129872500Y-90100000D01*
X130202500Y-89860000D01*
X130202500Y-90340000D01*
G37*
%TO.C,C7*%
X130752500Y-92908767D02*
X130752500Y-92616233D01*
X131772500Y-92908767D02*
X131772500Y-92616233D01*
D14*
%TO.C,SW1*%
X131063052Y-102294307D02*
X131417312Y-101940047D01*
X131065173Y-103707814D02*
X131063052Y-102294307D01*
X131140834Y-103783474D02*
X131608231Y-104250872D01*
X131417312Y-101940047D02*
X133894307Y-99463052D01*
X131418019Y-102646447D02*
X134246447Y-99818019D01*
X131418019Y-103353553D02*
X131418019Y-102646447D01*
X131418019Y-103353553D02*
X131961785Y-103897319D01*
X133349128Y-105991769D02*
X133894307Y-106536948D01*
X133702681Y-105638215D02*
X134246447Y-106181981D01*
X133894307Y-99463052D02*
X135307814Y-99465173D01*
X134246447Y-99818019D02*
X134953553Y-99818019D01*
X134953553Y-99818019D02*
X135497319Y-100361785D01*
X134953553Y-106181981D02*
X134246447Y-106181981D01*
X135307814Y-106534827D02*
X133894307Y-106536948D01*
X135850872Y-100008231D02*
X135307814Y-99465173D01*
X137238215Y-102102681D02*
X137781981Y-102646447D01*
X137781981Y-102646447D02*
X137781981Y-103353553D01*
X137781981Y-103353553D02*
X134953553Y-106181981D01*
X138136948Y-102294307D02*
X137591769Y-101749128D01*
X138136948Y-102294307D02*
X138136948Y-103705693D01*
X138136948Y-103705693D02*
X135307814Y-106534827D01*
X136104828Y-103000000D02*
G75*
G02*
X133100828Y-103000000I-1502000J0D01*
G01*
X133100828Y-103000000D02*
G75*
G02*
X136104828Y-103000000I1502000J0D01*
G01*
%TO.C,SW2*%
X91158000Y-80892000D02*
G75*
G02*
X89204000Y-80892000I-977000J0D01*
G01*
X89204000Y-80892000D02*
G75*
G02*
X91158000Y-80892000I977000J0D01*
G01*
X96281000Y-80892000D02*
G75*
G02*
X84081000Y-80892000I-6100000J0D01*
G01*
X84081000Y-80892000D02*
G75*
G02*
X96281000Y-80892000I6100000J0D01*
G01*
X93813000Y-80890000D02*
G75*
G02*
X86545000Y-80890000I-3634000J0D01*
G01*
X86545000Y-80890000D02*
G75*
G02*
X93813000Y-80890000I3634000J0D01*
G01*
X97828000Y-85228000D02*
X97828000Y-76555000D01*
X96728000Y-87461000D02*
X94928000Y-87461000D01*
X96728000Y-74361000D02*
X94806000Y-74361000D01*
X94928000Y-89761000D02*
X94378000Y-90311000D01*
X94928000Y-87461000D02*
X94928000Y-89761000D01*
X94478000Y-74021000D02*
X94478000Y-71679000D01*
X94378000Y-90311000D02*
X93577000Y-90311000D01*
X93680000Y-81892000D02*
X86680000Y-81892000D01*
X93680000Y-79891000D02*
X86680000Y-79892000D01*
X93144000Y-69392000D02*
X87255000Y-69392000D01*
X91880000Y-72692000D02*
X88580000Y-72692000D01*
X91880000Y-71492000D02*
X91880000Y-72692000D01*
X91784000Y-90311000D02*
X91077000Y-90311000D01*
X91433000Y-78644000D02*
X91433000Y-79894000D01*
X91430000Y-83142000D02*
X88930000Y-83142000D01*
X91430000Y-81892000D02*
X91430000Y-83142000D01*
X91181000Y-73691000D02*
X91181000Y-70793000D01*
X91181000Y-70793000D02*
X89180000Y-70793000D01*
X89284000Y-90311000D02*
X88577000Y-90311000D01*
X89180000Y-73691000D02*
X89281000Y-73691000D01*
X89180000Y-70793000D02*
X89180000Y-73691000D01*
X88933000Y-79894000D02*
X88933000Y-78644000D01*
X88933000Y-78644000D02*
X91433000Y-78644000D01*
X88930000Y-83142000D02*
X88930000Y-81892000D01*
X88580000Y-72692000D02*
X88580000Y-71492000D01*
X88580000Y-71492000D02*
X91880000Y-71492000D01*
X86784000Y-90311000D02*
X85928000Y-90311000D01*
X85928000Y-90311000D02*
X85428000Y-89811000D01*
X85878000Y-73911000D02*
X85878000Y-71647000D01*
X85428000Y-89811000D02*
X85428000Y-87461000D01*
X85428000Y-87461000D02*
X83628000Y-87461000D01*
X83628000Y-87461000D02*
X83628000Y-87355000D01*
X83628000Y-74311000D02*
X85628000Y-74311000D01*
X82980000Y-84697000D02*
X82980000Y-77086000D01*
X82972000Y-84705000D02*
X82980000Y-84697000D01*
X82972000Y-77078000D02*
X82980000Y-77086000D01*
X82392000Y-85661000D02*
X81378000Y-85661000D01*
X81378000Y-85661000D02*
X80828000Y-85111000D01*
X81328000Y-76161000D02*
X82399000Y-76161000D01*
X80828000Y-85111000D02*
X80828000Y-84336000D01*
X80828000Y-82448000D02*
X80828000Y-81836000D01*
X80828000Y-79948000D02*
X80828000Y-79336000D01*
X80828000Y-77448000D02*
X80828000Y-76661000D01*
X80828000Y-76661000D02*
X81328000Y-76161000D01*
D13*
%TO.C,R1*%
X136090000Y-93842224D02*
X136090000Y-93332776D01*
X137135000Y-93842224D02*
X137135000Y-93332776D01*
%TO.C,R10*%
X124357776Y-87402500D02*
X124867224Y-87402500D01*
X124357776Y-88447500D02*
X124867224Y-88447500D01*
%TO.C,R3*%
X119390000Y-93879724D02*
X119390000Y-93370276D01*
X120435000Y-93879724D02*
X120435000Y-93370276D01*
%TO.C,R8*%
X123227500Y-95429724D02*
X123227500Y-94920276D01*
X124272500Y-95429724D02*
X124272500Y-94920276D01*
%TO.C,D2*%
X121277500Y-91825000D02*
X121277500Y-94285000D01*
X121277500Y-94285000D02*
X122747500Y-94285000D01*
X122747500Y-94285000D02*
X122747500Y-91825000D01*
%TO.C,C2*%
X109865000Y-63401248D02*
X109865000Y-63923752D01*
X111335000Y-63401248D02*
X111335000Y-63923752D01*
%TO.C,C1*%
X137702500Y-93733767D02*
X137702500Y-93441233D01*
X138722500Y-93733767D02*
X138722500Y-93441233D01*
%TO.C,D5*%
X121812500Y-86835000D02*
X124272500Y-86835000D01*
X124272500Y-85365000D02*
X121812500Y-85365000D01*
X124272500Y-86835000D02*
X124272500Y-85365000D01*
%TO.C,R4*%
X119467224Y-90502500D02*
X118957776Y-90502500D01*
X119467224Y-91547500D02*
X118957776Y-91547500D01*
D14*
%TO.C,SW5*%
X108541732Y-103784373D02*
X108543853Y-102370866D01*
X108896699Y-102725127D02*
X109440465Y-102181361D01*
X108896699Y-103432233D02*
X108896699Y-102725127D01*
X109086911Y-101827808D02*
X108543853Y-102370866D01*
X111018727Y-106261368D02*
X108541732Y-103784373D01*
X111181361Y-100440465D02*
X111725127Y-99896699D01*
X111372987Y-99541732D02*
X110827808Y-100086911D01*
X111372987Y-99541732D02*
X112784373Y-99541732D01*
X111372987Y-106615628D02*
X111018727Y-106261368D01*
X111725127Y-99896699D02*
X112432233Y-99896699D01*
X111725127Y-106260661D02*
X108896699Y-103432233D01*
X112432233Y-99896699D02*
X115260661Y-102725127D01*
X112432233Y-106260661D02*
X111725127Y-106260661D01*
X112432233Y-106260661D02*
X112975999Y-105716895D01*
X112784373Y-99541732D02*
X115613507Y-102370866D01*
X112786494Y-106613507D02*
X111372987Y-106615628D01*
X112862154Y-106537846D02*
X113329552Y-106070449D01*
X114716895Y-103975999D02*
X115260661Y-103432233D01*
X115070449Y-104329552D02*
X115615628Y-103784373D01*
X115260661Y-102725127D02*
X115260661Y-103432233D01*
X115613507Y-102370866D02*
X115615628Y-103784373D01*
X113580680Y-103075852D02*
G75*
G02*
X110576680Y-103075852I-1502000J0D01*
G01*
X110576680Y-103075852D02*
G75*
G02*
X113580680Y-103075852I1502000J0D01*
G01*
D13*
%TO.C,D4*%
X123202500Y-91212500D02*
X123202500Y-90562500D01*
X123202500Y-91212500D02*
X123202500Y-91862500D01*
X126322500Y-91212500D02*
X126322500Y-90562500D01*
X126322500Y-91212500D02*
X126322500Y-91862500D01*
X123252500Y-92375000D02*
X122922500Y-92615000D01*
X122922500Y-92135000D01*
X123252500Y-92375000D01*
G36*
X123252500Y-92375000D02*
G01*
X122922500Y-92615000D01*
X122922500Y-92135000D01*
X123252500Y-92375000D01*
G37*
%TO.C,D1*%
X113127500Y-90040000D02*
X113127500Y-91510000D01*
X113127500Y-91510000D02*
X115587500Y-91510000D01*
X115587500Y-90040000D02*
X113127500Y-90040000D01*
%TO.C,Q1*%
X126612500Y-93615000D02*
X125962500Y-93615000D01*
X126612500Y-93615000D02*
X127262500Y-93615000D01*
X126612500Y-96735000D02*
X125962500Y-96735000D01*
X126612500Y-96735000D02*
X127262500Y-96735000D01*
X125450000Y-93665000D02*
X125210000Y-93335000D01*
X125690000Y-93335000D01*
X125450000Y-93665000D01*
G36*
X125450000Y-93665000D02*
G01*
X125210000Y-93335000D01*
X125690000Y-93335000D01*
X125450000Y-93665000D01*
G37*
%TO.C,U4*%
X114350000Y-55200000D02*
X114350000Y-61700000D01*
X114350000Y-55200000D02*
X132350000Y-55200000D01*
X114350000Y-75200000D02*
X114350000Y-74950000D01*
X132350000Y-55200000D02*
X132350000Y-61700000D01*
X132350000Y-61200000D02*
X114400000Y-61200000D01*
X132350000Y-74950000D02*
X132350000Y-75200000D01*
X132350000Y-75200000D02*
X114350000Y-75200000D01*
%TO.C,C11*%
X128490000Y-102053733D02*
X128490000Y-102346267D01*
X129510000Y-102053733D02*
X129510000Y-102346267D01*
%TO.C,C5*%
X110727500Y-93636252D02*
X110727500Y-93113748D01*
X112197500Y-93636252D02*
X112197500Y-93113748D01*
D14*
%TO.C,SW3*%
X157058000Y-80792000D02*
G75*
G02*
X155104000Y-80792000I-977000J0D01*
G01*
X155104000Y-80792000D02*
G75*
G02*
X157058000Y-80792000I977000J0D01*
G01*
X162181000Y-80792000D02*
G75*
G02*
X149981000Y-80792000I-6100000J0D01*
G01*
X149981000Y-80792000D02*
G75*
G02*
X162181000Y-80792000I6100000J0D01*
G01*
X159713000Y-80790000D02*
G75*
G02*
X152445000Y-80790000I-3634000J0D01*
G01*
X152445000Y-80790000D02*
G75*
G02*
X159713000Y-80790000I3634000J0D01*
G01*
X163728000Y-85128000D02*
X163728000Y-76455000D01*
X162628000Y-87361000D02*
X160828000Y-87361000D01*
X162628000Y-74261000D02*
X160706000Y-74261000D01*
X160828000Y-89661000D02*
X160278000Y-90211000D01*
X160828000Y-87361000D02*
X160828000Y-89661000D01*
X160378000Y-73921000D02*
X160378000Y-71579000D01*
X160278000Y-90211000D02*
X159477000Y-90211000D01*
X159580000Y-81792000D02*
X152580000Y-81792000D01*
X159580000Y-79791000D02*
X152580000Y-79792000D01*
X159044000Y-69292000D02*
X153155000Y-69292000D01*
X157780000Y-72592000D02*
X154480000Y-72592000D01*
X157780000Y-71392000D02*
X157780000Y-72592000D01*
X157684000Y-90211000D02*
X156977000Y-90211000D01*
X157333000Y-78544000D02*
X157333000Y-79794000D01*
X157330000Y-83042000D02*
X154830000Y-83042000D01*
X157330000Y-81792000D02*
X157330000Y-83042000D01*
X157081000Y-73591000D02*
X157081000Y-70693000D01*
X157081000Y-70693000D02*
X155080000Y-70693000D01*
X155184000Y-90211000D02*
X154477000Y-90211000D01*
X155080000Y-73591000D02*
X155181000Y-73591000D01*
X155080000Y-70693000D02*
X155080000Y-73591000D01*
X154833000Y-79794000D02*
X154833000Y-78544000D01*
X154833000Y-78544000D02*
X157333000Y-78544000D01*
X154830000Y-83042000D02*
X154830000Y-81792000D01*
X154480000Y-72592000D02*
X154480000Y-71392000D01*
X154480000Y-71392000D02*
X157780000Y-71392000D01*
X152684000Y-90211000D02*
X151828000Y-90211000D01*
X151828000Y-90211000D02*
X151328000Y-89711000D01*
X151778000Y-73811000D02*
X151778000Y-71547000D01*
X151328000Y-89711000D02*
X151328000Y-87361000D01*
X151328000Y-87361000D02*
X149528000Y-87361000D01*
X149528000Y-87361000D02*
X149528000Y-87255000D01*
X149528000Y-74211000D02*
X151528000Y-74211000D01*
X148880000Y-84597000D02*
X148880000Y-76986000D01*
X148872000Y-84605000D02*
X148880000Y-84597000D01*
X148872000Y-76978000D02*
X148880000Y-76986000D01*
X148292000Y-85561000D02*
X147278000Y-85561000D01*
X147278000Y-85561000D02*
X146728000Y-85011000D01*
X147228000Y-76061000D02*
X148299000Y-76061000D01*
X146728000Y-85011000D02*
X146728000Y-84236000D01*
X146728000Y-82348000D02*
X146728000Y-81736000D01*
X146728000Y-79848000D02*
X146728000Y-79236000D01*
X146728000Y-77348000D02*
X146728000Y-76561000D01*
X146728000Y-76561000D02*
X147228000Y-76061000D01*
D13*
%TO.C,R2*%
X111377500Y-72945276D02*
X111377500Y-73454724D01*
X112422500Y-72945276D02*
X112422500Y-73454724D01*
D14*
%TO.C,U1*%
X115962500Y-92125000D02*
X114162500Y-92125000D01*
X115962500Y-95225000D02*
X114162500Y-95225000D01*
X113792500Y-92024000D02*
G75*
G02*
X113538500Y-92024000I-127000J0D01*
G01*
X113538500Y-92024000D02*
G75*
G02*
X113792500Y-92024000I127000J0D01*
G01*
D13*
%TO.C,R9*%
X128107776Y-87877500D02*
X128617224Y-87877500D01*
X128107776Y-88922500D02*
X128617224Y-88922500D01*
%TO.C,C9*%
X133816233Y-89052500D02*
X134108767Y-89052500D01*
X133816233Y-90072500D02*
X134108767Y-90072500D01*
D14*
%TO.C,BUZZER2*%
X118406000Y-83724000D02*
X118406000Y-81031000D01*
X118407000Y-79660000D02*
X123994000Y-79660000D01*
X118407000Y-79868000D02*
X118407000Y-79660000D01*
X119422000Y-84740000D02*
X118406000Y-83724000D01*
X123994000Y-79660000D02*
X123994000Y-79869000D01*
X123994000Y-81031000D02*
X123994000Y-83369000D01*
X123994000Y-84531000D02*
X123994000Y-84740000D01*
X123994000Y-84740000D02*
X119422000Y-84740000D01*
D13*
%TO.C,C3*%
X111890000Y-63316233D02*
X111890000Y-63608767D01*
X112910000Y-63316233D02*
X112910000Y-63608767D01*
%TD*%
M02*
