%TF.GenerationSoftware,KiCad,Pcbnew,8.0.2*%
%TF.CreationDate,2024-07-05T22:45:23+08:00*%
%TF.ProjectId,controller,636f6e74-726f-46c6-9c65-722e6b696361,rev?*%
%TF.SameCoordinates,Original*%
%TF.FileFunction,Copper,L2,Bot*%
%TF.FilePolarity,Positive*%
%FSLAX46Y46*%
G04 Gerber Fmt 4.6, Leading zero omitted, Abs format (unit mm)*
G04 Created by KiCad (PCBNEW 8.0.2) date 2024-07-05 22:45:23*
%MOMM*%
%LPD*%
G01*
G04 APERTURE LIST*
%TA.AperFunction,ComponentPad*%
%ADD10C,1.800000*%
%TD*%
%TA.AperFunction,ComponentPad*%
%ADD11C,2.200000*%
%TD*%
%TA.AperFunction,ComponentPad*%
%ADD12C,4.400000*%
%TD*%
%TA.AperFunction,ComponentPad*%
%ADD13C,2.500000*%
%TD*%
%TA.AperFunction,SMDPad,CuDef*%
%ADD14R,0.900000X1.200000*%
%TD*%
%TA.AperFunction,SMDPad,CuDef*%
%ADD15R,0.800000X1.200000*%
%TD*%
%TA.AperFunction,SMDPad,CuDef*%
%ADD16R,0.700000X1.200000*%
%TD*%
%TA.AperFunction,ComponentPad*%
%ADD17O,1.200000X1.700000*%
%TD*%
%TA.AperFunction,SMDPad,CuDef*%
%ADD18R,1.800000X3.900000*%
%TD*%
%TA.AperFunction,SMDPad,CuDef*%
%ADD19R,1.200000X4.000000*%
%TD*%
%TA.AperFunction,ViaPad*%
%ADD20C,0.500000*%
%TD*%
%TA.AperFunction,ViaPad*%
%ADD21C,0.900000*%
%TD*%
%TA.AperFunction,ViaPad*%
%ADD22C,1.200000*%
%TD*%
%TA.AperFunction,ViaPad*%
%ADD23C,1.500000*%
%TD*%
%TA.AperFunction,Conductor*%
%ADD24C,0.250000*%
%TD*%
%TA.AperFunction,Conductor*%
%ADD25C,0.200000*%
%TD*%
%TA.AperFunction,Conductor*%
%ADD26C,0.500000*%
%TD*%
%TA.AperFunction,Conductor*%
%ADD27C,0.300000*%
%TD*%
%TA.AperFunction,Conductor*%
%ADD28C,0.800000*%
%TD*%
G04 APERTURE END LIST*
D10*
%TO.P,SW4,1,1*%
%TO.N,GND*%
X136692893Y-56525126D03*
%TO.P,SW4,2,2*%
%TO.N,/IO3*%
X139874874Y-59707107D03*
D11*
%TO.P,SW4,3,3*%
%TO.N,unconnected-(SW4-Pad3)*%
X138990990Y-62358757D03*
%TO.P,SW4,4,4*%
%TO.N,unconnected-(SW4-Pad4)*%
X134041243Y-57409010D03*
%TD*%
D12*
%TO.P,H1,1*%
%TO.N,N/C*%
X103300000Y-95000000D03*
%TD*%
D11*
%TO.P,SW2,d,d*%
%TO.N,GND*%
X86700000Y-70600000D03*
%TO.P,SW2,c,c*%
%TO.N,/L_BUTTON*%
X86700000Y-75100000D03*
%TO.P,SW2,b,b*%
%TO.N,GND*%
X93700000Y-70600000D03*
%TO.P,SW2,a,a*%
%TO.N,/L_BUTTON*%
X93700000Y-75100000D03*
D13*
%TO.P,SW2,10,GND*%
%TO.N,GND*%
X83855000Y-85892000D03*
%TO.P,SW2,9,GND*%
X83855000Y-75892000D03*
%TO.P,SW2,8,GND*%
X96505000Y-75892000D03*
%TO.P,SW2,7,GND*%
X96505000Y-85892000D03*
D10*
%TO.P,SW2,6,B*%
X92681000Y-89622000D03*
%TO.P,SW2,5,DTA*%
%TO.N,/ADC1_CH4*%
X90180000Y-89622000D03*
%TO.P,SW2,4,A*%
%TO.N,+3V3*%
X87681000Y-89622000D03*
%TO.P,SW2,3,A*%
%TO.N,GND*%
X81451000Y-83392000D03*
%TO.P,SW2,2,DTA*%
%TO.N,/ADC1_CH0*%
X81451000Y-80892000D03*
%TO.P,SW2,1,B*%
%TO.N,+3V3*%
X81451000Y-78392000D03*
%TD*%
D12*
%TO.P,H3,1*%
%TO.N,N/C*%
X143300000Y-95000000D03*
%TD*%
%TO.P,H4,1*%
%TO.N,N/C*%
X103300000Y-66900000D03*
%TD*%
D11*
%TO.P,SW3,d,d*%
%TO.N,GND*%
X152600000Y-70500000D03*
%TO.P,SW3,c,c*%
%TO.N,/R_BUTTON*%
X152600000Y-75000000D03*
%TO.P,SW3,b,b*%
%TO.N,GND*%
X159600000Y-70500000D03*
%TO.P,SW3,a,a*%
%TO.N,/R_BUTTON*%
X159600000Y-75000000D03*
D13*
%TO.P,SW3,10,GND*%
%TO.N,GND*%
X149755000Y-85792000D03*
%TO.P,SW3,9,GND*%
X149755000Y-75792000D03*
%TO.P,SW3,8,GND*%
X162405000Y-75792000D03*
%TO.P,SW3,7,GND*%
X162405000Y-85792000D03*
D10*
%TO.P,SW3,6,B*%
X158581000Y-89522000D03*
%TO.P,SW3,5,DTA*%
%TO.N,/ADC1_CH2*%
X156080000Y-89522000D03*
%TO.P,SW3,4,A*%
%TO.N,+3V3*%
X153581000Y-89522000D03*
%TO.P,SW3,3,A*%
%TO.N,GND*%
X147351000Y-83292000D03*
%TO.P,SW3,2,DTA*%
%TO.N,/ADC1_CH1*%
X147351000Y-80792000D03*
%TO.P,SW3,1,B*%
%TO.N,+3V3*%
X147351000Y-78292000D03*
%TD*%
D12*
%TO.P,H2,1*%
%TO.N,N/C*%
X143300000Y-66900000D03*
%TD*%
D14*
%TO.P,J1,B12,GND*%
%TO.N,GND*%
X125750000Y-101120000D03*
D15*
%TO.P,J1,B9,VBUS*%
%TO.N,Net-(U1-VCC)*%
X124520000Y-101120000D03*
D16*
%TO.P,J1,B5,CC2*%
%TO.N,unconnected-(J1-CC2-PadB5)*%
X122500000Y-101120000D03*
D14*
%TO.P,J1,A12,GND*%
%TO.N,GND*%
X120250000Y-101120000D03*
D15*
%TO.P,J1,A9,VBUS*%
%TO.N,Net-(U1-VCC)*%
X121480000Y-101120000D03*
D16*
%TO.P,J1,A5,CC1*%
%TO.N,unconnected-(J1-CC1-PadA5)*%
X123500000Y-101120000D03*
D17*
%TO.P,J1,16*%
%TO.N,N/C*%
X118680000Y-104900000D03*
%TO.P,J1,15*%
X127320000Y-104900000D03*
%TO.P,J1,14*%
X118680000Y-101100000D03*
%TO.P,J1,13*%
X127320000Y-101100000D03*
%TD*%
D18*
%TO.P,J2,4*%
%TO.N,N/C*%
X99930000Y-80225000D03*
%TO.P,J2,3*%
X108870000Y-80225000D03*
D19*
%TO.P,J2,2,Pin_2*%
%TO.N,GND*%
X105670000Y-87775000D03*
%TO.P,J2,1,Pin_1*%
%TO.N,+BATT*%
X103130000Y-87775000D03*
%TD*%
D10*
%TO.P,SW7,1,1*%
%TO.N,GND*%
X106725126Y-59707107D03*
%TO.P,SW7,2,2*%
%TO.N,/IO9*%
X109907107Y-56525126D03*
D11*
%TO.P,SW7,3,3*%
%TO.N,unconnected-(SW7-Pad3)*%
X112558757Y-57409010D03*
%TO.P,SW7,4,4*%
%TO.N,unconnected-(SW7-Pad4)*%
X107609010Y-62358757D03*
%TD*%
D20*
%TO.N,/IO9*%
X115799999Y-65213173D03*
%TO.N,/EN*%
X130002494Y-78598753D03*
X128800000Y-82100000D03*
D21*
%TO.N,GND*%
X129000000Y-100600000D03*
D22*
X112900000Y-63962500D03*
D21*
X126612500Y-87725000D03*
D22*
X111981524Y-91494024D03*
X116200000Y-75000000D03*
X135361286Y-89066456D03*
X110100000Y-65062500D03*
X133923177Y-92608463D03*
X130400000Y-104100000D03*
X120737501Y-91607264D03*
X116100000Y-104500000D03*
D21*
X119848624Y-101793644D03*
X113200000Y-81350000D03*
X128800000Y-84100000D03*
D22*
X138512500Y-91387500D03*
X124210000Y-69200000D03*
X131112500Y-90900000D03*
X118650351Y-92296290D03*
D20*
%TO.N,+3V3*%
X136130913Y-86206587D03*
D23*
%TO.N,Net-(U1-VCC)*%
X119212500Y-94650000D03*
%TO.N,+BATT*%
X103100000Y-86400000D03*
X103130000Y-89200000D03*
X103130000Y-87775000D03*
D21*
%TO.N,VCC*%
X126612500Y-93325000D03*
X121634522Y-87645000D03*
D20*
%TO.N,/RGB*%
X114525107Y-69932822D03*
X115856585Y-99756589D03*
%TO.N,/POWER_EN*%
X136044759Y-83955239D03*
X129275000Y-88400000D03*
%TO.N,/ADC1_CH4*%
X114525107Y-65432822D03*
%TO.N,/IO3*%
X132025107Y-66932822D03*
%TO.N,Net-(D4-C)*%
X115800000Y-99000000D03*
X124762500Y-90275000D03*
%TO.N,/KEY*%
X132100000Y-74300000D03*
X130038857Y-84499519D03*
%TO.N,/R_BUTTON*%
X132025107Y-68432822D03*
%TO.N,/ADC1_CH0*%
X115687380Y-63047786D03*
%TO.N,/BEEPER*%
X112400000Y-79562500D03*
X112400000Y-67800000D03*
%TO.N,/L_BUTTON*%
X107800000Y-69800000D03*
X109750000Y-69600000D03*
%TD*%
D24*
%TO.N,/ADC1_CH0*%
X113200000Y-62400000D02*
X111400000Y-62400000D01*
X113600000Y-62400000D02*
X113200000Y-62400000D01*
X115039594Y-62400000D02*
X113600000Y-62400000D01*
%TO.N,/IO9*%
X109907107Y-57107107D02*
X109907107Y-56525126D01*
X114200000Y-61400000D02*
X109907107Y-57107107D01*
X114852767Y-61400000D02*
X114200000Y-61400000D01*
X116262380Y-62809613D02*
X114852767Y-61400000D01*
X116262380Y-64750792D02*
X116262380Y-62809613D01*
X115799999Y-65213173D02*
X116262380Y-64750792D01*
%TO.N,/ADC1_CH0*%
X80226000Y-79667000D02*
X81451000Y-80892000D01*
X80226000Y-77293613D02*
X80226000Y-79667000D01*
X83844613Y-73675000D02*
X80226000Y-77293613D01*
X102429110Y-64200000D02*
X92954110Y-73675000D01*
X109600000Y-64200000D02*
X102429110Y-64200000D01*
X115687380Y-63047786D02*
X115039594Y-62400000D01*
X92954110Y-73675000D02*
X83844613Y-73675000D01*
X111400000Y-62400000D02*
X109600000Y-64200000D01*
D25*
%TO.N,/IO3*%
X139250822Y-59707107D02*
X139874874Y-59707107D01*
X132025107Y-66932822D02*
X139250822Y-59707107D01*
D24*
%TO.N,/EN*%
X130002494Y-78598753D02*
X128800000Y-79801247D01*
X128800000Y-79801247D02*
X128800000Y-82100000D01*
D26*
%TO.N,GND*%
X119848624Y-101793644D02*
X119848624Y-101521376D01*
X119848624Y-101521376D02*
X120250000Y-101120000D01*
X120250000Y-101270000D02*
X120250000Y-101120000D01*
D27*
%TO.N,+3V3*%
X153581000Y-84522000D02*
X147351000Y-78292000D01*
D25*
X136130913Y-86206587D02*
X137373913Y-86206587D01*
X137373913Y-86206587D02*
X145288500Y-78292000D01*
X145288500Y-78292000D02*
X147351000Y-78292000D01*
D27*
X153581000Y-89522000D02*
X153581000Y-84522000D01*
D28*
%TO.N,Net-(U1-VCC)*%
X124520000Y-99880000D02*
X124520000Y-100400000D01*
X121480000Y-96917500D02*
X119212500Y-94650000D01*
X124520000Y-100400000D02*
X124520000Y-101120000D01*
X121480000Y-101120000D02*
X121480000Y-96917500D01*
X124520000Y-100400000D02*
X124520000Y-99957500D01*
X124520000Y-99957500D02*
X119212500Y-94650000D01*
%TO.N,+BATT*%
X103130000Y-86430000D02*
X103100000Y-86400000D01*
X103130000Y-87775000D02*
X103130000Y-86430000D01*
D26*
%TO.N,VCC*%
X126612500Y-93325000D02*
X126612500Y-91135050D01*
X123122450Y-87645000D02*
X121634522Y-87645000D01*
X126612500Y-91135050D02*
X123122450Y-87645000D01*
D25*
%TO.N,/RGB*%
X114537607Y-96427925D02*
X114537607Y-96000000D01*
D24*
X115856585Y-99756589D02*
X115743416Y-99756589D01*
D25*
X115856585Y-99756589D02*
X115778771Y-99756589D01*
D24*
X114525107Y-98538280D02*
X114525107Y-69932822D01*
X114525107Y-98502925D02*
X114525107Y-96012500D01*
D25*
X115778771Y-99756589D02*
X114525107Y-98502925D01*
D24*
X115743416Y-99756589D02*
X114525107Y-98538280D01*
X114525107Y-96012500D02*
X114537607Y-96000000D01*
%TO.N,/POWER_EN*%
X136044759Y-83955239D02*
X136044759Y-84955241D01*
X132600000Y-88400000D02*
X129275000Y-88400000D01*
X132600000Y-88400000D02*
X136044759Y-84955241D01*
%TO.N,/ADC1_CH4*%
X114525107Y-65432822D02*
X111967178Y-65432822D01*
X111800000Y-65600000D02*
X111055000Y-65600000D01*
X97302000Y-79353000D02*
X97302000Y-82500000D01*
X111967178Y-65432822D02*
X111800000Y-65600000D01*
X97302000Y-82500000D02*
X90180000Y-89622000D01*
X111055000Y-65600000D02*
X97302000Y-79353000D01*
D25*
%TO.N,/IO3*%
X131867178Y-66932822D02*
X132025107Y-66932822D01*
D24*
%TO.N,Net-(D4-C)*%
X115800000Y-99000000D02*
X115800000Y-96542220D01*
X119809956Y-92532264D02*
X122505236Y-92532264D01*
X115800000Y-96542220D02*
X119809956Y-92532264D01*
X122505236Y-92532264D02*
X124762500Y-90275000D01*
%TO.N,/KEY*%
X132100000Y-82438376D02*
X132100000Y-74300000D01*
X130038857Y-84499519D02*
X132100000Y-82438376D01*
%TO.N,/R_BUTTON*%
X132025107Y-68432822D02*
X132025107Y-68975107D01*
X136950001Y-73900001D02*
X151500001Y-73900001D01*
X132025107Y-68975107D02*
X136950001Y-73900001D01*
X151500001Y-73900001D02*
X152600000Y-75000000D01*
X159600000Y-75000000D02*
X152600000Y-75000000D01*
%TO.N,/BEEPER*%
X112400000Y-79562500D02*
X112400000Y-67800000D01*
%TO.N,/L_BUTTON*%
X108000000Y-69600000D02*
X107800000Y-69800000D01*
X109750000Y-69600000D02*
X108000000Y-69600000D01*
%TD*%
%TA.AperFunction,Conductor*%
%TO.N,GND*%
G36*
X135635564Y-53249691D02*
G01*
X135656206Y-53266325D01*
X140645445Y-58255564D01*
X140678930Y-58316887D01*
X140673946Y-58386579D01*
X140632074Y-58442512D01*
X140566610Y-58466929D01*
X140498747Y-58452300D01*
X140439383Y-58420174D01*
X140439380Y-58420173D01*
X140439377Y-58420171D01*
X140439371Y-58420169D01*
X140439369Y-58420168D01*
X140219858Y-58344809D01*
X140048156Y-58316157D01*
X139990923Y-58306607D01*
X139758825Y-58306607D01*
X139713038Y-58314247D01*
X139529889Y-58344809D01*
X139310378Y-58420168D01*
X139310369Y-58420171D01*
X139106245Y-58530638D01*
X139106239Y-58530642D01*
X138923096Y-58673188D01*
X138923093Y-58673191D01*
X138765890Y-58843959D01*
X138638949Y-59038258D01*
X138545716Y-59250806D01*
X138488740Y-59475798D01*
X138488738Y-59475810D01*
X138479469Y-59587677D01*
X138454316Y-59652862D01*
X138443574Y-59665118D01*
X131949866Y-66158826D01*
X131888543Y-66192311D01*
X131876073Y-66194365D01*
X131867780Y-66195299D01*
X131857048Y-66196509D01*
X131857047Y-66196509D01*
X131697414Y-66252366D01*
X131697409Y-66252369D01*
X131554222Y-66342340D01*
X131554216Y-66342345D01*
X131434630Y-66461931D01*
X131344651Y-66605132D01*
X131320302Y-66674715D01*
X131310656Y-66695744D01*
X131307602Y-66701034D01*
X131307601Y-66701036D01*
X131297385Y-66739160D01*
X131294656Y-66748007D01*
X131288793Y-66764765D01*
X131288792Y-66764768D01*
X131288575Y-66766698D01*
X131285132Y-66784887D01*
X131266678Y-66853760D01*
X131266678Y-67011878D01*
X131285132Y-67080751D01*
X131288578Y-67098962D01*
X131288794Y-67100882D01*
X131288795Y-67100886D01*
X131294658Y-67117645D01*
X131297388Y-67126495D01*
X131307599Y-67164601D01*
X131307600Y-67164604D01*
X131307601Y-67164606D01*
X131310653Y-67169892D01*
X131320303Y-67190931D01*
X131344650Y-67260510D01*
X131344655Y-67260521D01*
X131434625Y-67403706D01*
X131434630Y-67403712D01*
X131554216Y-67523298D01*
X131554219Y-67523300D01*
X131640999Y-67577829D01*
X131687290Y-67630164D01*
X131697937Y-67699217D01*
X131669562Y-67763066D01*
X131640999Y-67787815D01*
X131554219Y-67842343D01*
X131554216Y-67842345D01*
X131434630Y-67961931D01*
X131434625Y-67961937D01*
X131344654Y-68105124D01*
X131344652Y-68105127D01*
X131288792Y-68264765D01*
X131269858Y-68432819D01*
X131269858Y-68432824D01*
X131288793Y-68600879D01*
X131344650Y-68760512D01*
X131380600Y-68817724D01*
X131399607Y-68883697D01*
X131399607Y-69036718D01*
X131423642Y-69157551D01*
X131423647Y-69157568D01*
X131470792Y-69271388D01*
X131470795Y-69271393D01*
X131492390Y-69303711D01*
X131492391Y-69303714D01*
X131492392Y-69303714D01*
X131539248Y-69373839D01*
X131539251Y-69373843D01*
X131630693Y-69465285D01*
X131630715Y-69465305D01*
X136461017Y-74295607D01*
X136461046Y-74295638D01*
X136551265Y-74385857D01*
X136551268Y-74385859D01*
X136628191Y-74437257D01*
X136653711Y-74454310D01*
X136653713Y-74454311D01*
X136653716Y-74454313D01*
X136720397Y-74481932D01*
X136720399Y-74481934D01*
X136760641Y-74498602D01*
X136767549Y-74501464D01*
X136779741Y-74503889D01*
X136888391Y-74525500D01*
X136888393Y-74525501D01*
X136888394Y-74525501D01*
X136888395Y-74525501D01*
X150910645Y-74525501D01*
X150977684Y-74545186D01*
X151023439Y-74597990D01*
X151033383Y-74667148D01*
X151031219Y-74678447D01*
X151014318Y-74748847D01*
X151014317Y-74748852D01*
X151013675Y-74757014D01*
X150994551Y-75000000D01*
X151014317Y-75251151D01*
X151073126Y-75496110D01*
X151169533Y-75728859D01*
X151301160Y-75943653D01*
X151301161Y-75943656D01*
X151301164Y-75943659D01*
X151464776Y-76135224D01*
X151581860Y-76235223D01*
X151656343Y-76298838D01*
X151656346Y-76298839D01*
X151871140Y-76430466D01*
X152103889Y-76526873D01*
X152348852Y-76585683D01*
X152600000Y-76605449D01*
X152851148Y-76585683D01*
X153096111Y-76526873D01*
X153328859Y-76430466D01*
X153543659Y-76298836D01*
X153735224Y-76135224D01*
X153898836Y-75943659D01*
X154030466Y-75728859D01*
X154041572Y-75702048D01*
X154085412Y-75647644D01*
X154151706Y-75625579D01*
X154156133Y-75625500D01*
X158043867Y-75625500D01*
X158110906Y-75645185D01*
X158156661Y-75697989D01*
X158158428Y-75702048D01*
X158169532Y-75728856D01*
X158169533Y-75728858D01*
X158301160Y-75943653D01*
X158301161Y-75943656D01*
X158301164Y-75943659D01*
X158464776Y-76135224D01*
X158581860Y-76235223D01*
X158656343Y-76298838D01*
X158656346Y-76298839D01*
X158871140Y-76430466D01*
X159103889Y-76526873D01*
X159348852Y-76585683D01*
X159600000Y-76605449D01*
X159851148Y-76585683D01*
X160096111Y-76526873D01*
X160328859Y-76430466D01*
X160543659Y-76298836D01*
X160735224Y-76135224D01*
X160898836Y-75943659D01*
X161030466Y-75728859D01*
X161126873Y-75496111D01*
X161185683Y-75251148D01*
X161205449Y-75000000D01*
X161185683Y-74748852D01*
X161126873Y-74503889D01*
X161099272Y-74437254D01*
X161030466Y-74271140D01*
X160898839Y-74056346D01*
X160898838Y-74056343D01*
X160861875Y-74013066D01*
X160735224Y-73864776D01*
X160608571Y-73756604D01*
X160543656Y-73701161D01*
X160543653Y-73701160D01*
X160328859Y-73569533D01*
X160096110Y-73473126D01*
X159851151Y-73414317D01*
X159600000Y-73394551D01*
X159348848Y-73414317D01*
X159103889Y-73473126D01*
X158871140Y-73569533D01*
X158656346Y-73701160D01*
X158656343Y-73701161D01*
X158464776Y-73864776D01*
X158301161Y-74056343D01*
X158301160Y-74056346D01*
X158169533Y-74271141D01*
X158169532Y-74271143D01*
X158158428Y-74297952D01*
X158114588Y-74352356D01*
X158048294Y-74374421D01*
X158043867Y-74374500D01*
X154156133Y-74374500D01*
X154089094Y-74354815D01*
X154043339Y-74302011D01*
X154041572Y-74297952D01*
X154030467Y-74271143D01*
X154030466Y-74271141D01*
X153898839Y-74056346D01*
X153898838Y-74056343D01*
X153861875Y-74013066D01*
X153735224Y-73864776D01*
X153608571Y-73756604D01*
X153543656Y-73701161D01*
X153543653Y-73701160D01*
X153328859Y-73569533D01*
X153096110Y-73473126D01*
X152851151Y-73414317D01*
X152600000Y-73394551D01*
X152348848Y-73414317D01*
X152103889Y-73473126D01*
X152077075Y-73484233D01*
X152007605Y-73491700D01*
X151945126Y-73460424D01*
X151941942Y-73457351D01*
X151898737Y-73414145D01*
X151898734Y-73414142D01*
X151845711Y-73378714D01*
X151796287Y-73345689D01*
X151796284Y-73345687D01*
X151796283Y-73345687D01*
X151766548Y-73333371D01*
X151715793Y-73312348D01*
X151682453Y-73298538D01*
X151682449Y-73298537D01*
X151682445Y-73298536D01*
X151570481Y-73276265D01*
X151570480Y-73276265D01*
X151561612Y-73274501D01*
X151561608Y-73274501D01*
X151561607Y-73274501D01*
X137260453Y-73274501D01*
X137193414Y-73254816D01*
X137172772Y-73238182D01*
X132757945Y-68823355D01*
X132724460Y-68762032D01*
X132728585Y-68694719D01*
X132761420Y-68600882D01*
X132761420Y-68600881D01*
X132780356Y-68432824D01*
X132780356Y-68432819D01*
X132761421Y-68264765D01*
X132705561Y-68105127D01*
X132705559Y-68105124D01*
X132615588Y-67961937D01*
X132615583Y-67961931D01*
X132495997Y-67842345D01*
X132409215Y-67787816D01*
X132362924Y-67735481D01*
X132352276Y-67666427D01*
X132380651Y-67602579D01*
X132409215Y-67577828D01*
X132495997Y-67523299D01*
X132615584Y-67403712D01*
X132662460Y-67329110D01*
X132705559Y-67260519D01*
X132705562Y-67260513D01*
X132705563Y-67260512D01*
X132761420Y-67100881D01*
X132763563Y-67081859D01*
X132790626Y-67017447D01*
X132799092Y-67008070D01*
X132907162Y-66900000D01*
X140594564Y-66900000D01*
X140614289Y-67226099D01*
X140673178Y-67547452D01*
X140770366Y-67859342D01*
X140770370Y-67859354D01*
X140770373Y-67859361D01*
X140904455Y-68157279D01*
X140961036Y-68250875D01*
X141073473Y-68436868D01*
X141274954Y-68694039D01*
X141505960Y-68925045D01*
X141763131Y-69126526D01*
X141763134Y-69126528D01*
X141763137Y-69126530D01*
X142042721Y-69295545D01*
X142340639Y-69429627D01*
X142340652Y-69429631D01*
X142340657Y-69429633D01*
X142652547Y-69526821D01*
X142973896Y-69585710D01*
X143300000Y-69605436D01*
X143626104Y-69585710D01*
X143947453Y-69526821D01*
X144259361Y-69429627D01*
X144557279Y-69295545D01*
X144836863Y-69126530D01*
X145094036Y-68925048D01*
X145325048Y-68694036D01*
X145526530Y-68436863D01*
X145695545Y-68157279D01*
X145829627Y-67859361D01*
X145926821Y-67547453D01*
X145985710Y-67226104D01*
X146005436Y-66900000D01*
X145985710Y-66573896D01*
X145926821Y-66252547D01*
X145900829Y-66169135D01*
X145829633Y-65940657D01*
X145829631Y-65940652D01*
X145829627Y-65940639D01*
X145695545Y-65642721D01*
X145526530Y-65363137D01*
X145526528Y-65363134D01*
X145526526Y-65363131D01*
X145325045Y-65105960D01*
X145094039Y-64874954D01*
X144836868Y-64673473D01*
X144829306Y-64668901D01*
X144557279Y-64504455D01*
X144259361Y-64370373D01*
X144259354Y-64370370D01*
X144259342Y-64370366D01*
X143947452Y-64273178D01*
X143626099Y-64214289D01*
X143300000Y-64194564D01*
X142973900Y-64214289D01*
X142652547Y-64273178D01*
X142340657Y-64370366D01*
X142340641Y-64370372D01*
X142340639Y-64370373D01*
X142154412Y-64454187D01*
X142104035Y-64476860D01*
X142042721Y-64504455D01*
X141995970Y-64532717D01*
X141763131Y-64673473D01*
X141505960Y-64874954D01*
X141274954Y-65105960D01*
X141073473Y-65363131D01*
X140966029Y-65540865D01*
X140904455Y-65642721D01*
X140786993Y-65903712D01*
X140770372Y-65940642D01*
X140770366Y-65940657D01*
X140673178Y-66252547D01*
X140614289Y-66573900D01*
X140594564Y-66900000D01*
X132907162Y-66900000D01*
X137208464Y-62598698D01*
X137269785Y-62565215D01*
X137339477Y-62570199D01*
X137395410Y-62612071D01*
X137416717Y-62657434D01*
X137464116Y-62854867D01*
X137560523Y-63087616D01*
X137692150Y-63302410D01*
X137692151Y-63302413D01*
X137747594Y-63367328D01*
X137855766Y-63493981D01*
X137990736Y-63609256D01*
X138047333Y-63657595D01*
X138047336Y-63657596D01*
X138262130Y-63789223D01*
X138456174Y-63869598D01*
X138494879Y-63885630D01*
X138739842Y-63944440D01*
X138990990Y-63964206D01*
X139242138Y-63944440D01*
X139487101Y-63885630D01*
X139719849Y-63789223D01*
X139934649Y-63657593D01*
X140126214Y-63493981D01*
X140289826Y-63302416D01*
X140421456Y-63087616D01*
X140517863Y-62854868D01*
X140576673Y-62609905D01*
X140596439Y-62358757D01*
X140576673Y-62107609D01*
X140517863Y-61862646D01*
X140491308Y-61798537D01*
X140421456Y-61629897D01*
X140289829Y-61415103D01*
X140289828Y-61415101D01*
X140289827Y-61415100D01*
X140289826Y-61415098D01*
X140164044Y-61267826D01*
X140135475Y-61204069D01*
X140145912Y-61134983D01*
X140192043Y-61082507D01*
X140218073Y-61070017D01*
X140271679Y-61051613D01*
X140439377Y-60994043D01*
X140643500Y-60883577D01*
X140826658Y-60741020D01*
X140983853Y-60570260D01*
X141110798Y-60375956D01*
X141204031Y-60163407D01*
X141261008Y-59938412D01*
X141280174Y-59707107D01*
X141280174Y-59707100D01*
X141261009Y-59475809D01*
X141261007Y-59475798D01*
X141204031Y-59250806D01*
X141127510Y-59076357D01*
X141118607Y-59007057D01*
X141148584Y-58943945D01*
X141207923Y-58907058D01*
X141277785Y-58908108D01*
X141328747Y-58938866D01*
X145319887Y-62930006D01*
X149819962Y-62930006D01*
X149819963Y-62930006D01*
X150387898Y-62362094D01*
X150449220Y-62328612D01*
X150450720Y-62328296D01*
X150839354Y-62248961D01*
X150844212Y-62248070D01*
X151700453Y-62108912D01*
X151706006Y-62108141D01*
X152567362Y-62008486D01*
X152572965Y-62007968D01*
X153438000Y-61947967D01*
X153443658Y-61947705D01*
X154310487Y-61927488D01*
X154316147Y-61927487D01*
X155182988Y-61947090D01*
X155188646Y-61947348D01*
X156053724Y-62006737D01*
X156059328Y-62007251D01*
X156920710Y-62106291D01*
X156926350Y-62107070D01*
X157782258Y-62245553D01*
X157787852Y-62246590D01*
X158636548Y-62424236D01*
X158642053Y-62425521D01*
X159481649Y-62641936D01*
X159487129Y-62643483D01*
X160315920Y-62898224D01*
X160321324Y-62900022D01*
X160397738Y-62927408D01*
X161137550Y-63192551D01*
X161142813Y-63194575D01*
X161582842Y-63375483D01*
X161944758Y-63524277D01*
X161949974Y-63526563D01*
X162735908Y-63892727D01*
X162741013Y-63895250D01*
X163509295Y-64297108D01*
X163514280Y-64299863D01*
X163778968Y-64454187D01*
X164162107Y-64677573D01*
X164263320Y-64736584D01*
X164268168Y-64739562D01*
X164743959Y-65047079D01*
X164996337Y-65210197D01*
X165001043Y-65213393D01*
X165602780Y-65642725D01*
X165706858Y-65716983D01*
X165711417Y-65720396D01*
X166393366Y-66255862D01*
X166397763Y-66259481D01*
X166632547Y-66461931D01*
X167054413Y-66825700D01*
X167058615Y-66829495D01*
X167688577Y-67425269D01*
X167692600Y-67429252D01*
X168206396Y-67961937D01*
X168294539Y-68053320D01*
X168298395Y-68057506D01*
X168386151Y-68157276D01*
X168871036Y-68708543D01*
X168874698Y-68712904D01*
X169416843Y-69389548D01*
X169420301Y-69394073D01*
X169930810Y-70094901D01*
X169934056Y-70099580D01*
X170411835Y-70823089D01*
X170414864Y-70827913D01*
X170858932Y-71572619D01*
X170861735Y-71577576D01*
X171271128Y-72341861D01*
X171273701Y-72346941D01*
X171647581Y-73129242D01*
X171649918Y-73134436D01*
X171987470Y-73933044D01*
X171989567Y-73938339D01*
X172290114Y-74751656D01*
X172291964Y-74757041D01*
X172554838Y-75583256D01*
X172556440Y-75588722D01*
X172781103Y-76426154D01*
X172782452Y-76431687D01*
X172968431Y-77278559D01*
X172969524Y-77284148D01*
X173116417Y-78138638D01*
X173117253Y-78144271D01*
X173224761Y-79004632D01*
X173225337Y-79010298D01*
X173293224Y-79874660D01*
X173293540Y-79880346D01*
X173321671Y-80746944D01*
X173321725Y-80752639D01*
X173310036Y-81619612D01*
X173309828Y-81625303D01*
X173258345Y-82490790D01*
X173257877Y-82496466D01*
X173166706Y-83358721D01*
X173165977Y-83364369D01*
X173035316Y-84221495D01*
X173034329Y-84227104D01*
X172864445Y-85077354D01*
X172863201Y-85082911D01*
X172654461Y-85924448D01*
X172652963Y-85929943D01*
X172405806Y-86760997D01*
X172404058Y-86766417D01*
X172118991Y-87585286D01*
X172116997Y-87590614D01*
X171794646Y-88395500D01*
X171792413Y-88400723D01*
X171433443Y-89189958D01*
X171430967Y-89195087D01*
X171036131Y-89967023D01*
X171033422Y-89972032D01*
X170603570Y-90725007D01*
X170600634Y-90729887D01*
X170136639Y-91462365D01*
X170133481Y-91467104D01*
X169636383Y-92177451D01*
X169633012Y-92182041D01*
X169103788Y-92868856D01*
X169100209Y-92873286D01*
X168540027Y-93535057D01*
X168536249Y-93539318D01*
X167946273Y-94174670D01*
X167942303Y-94178754D01*
X167323757Y-94786365D01*
X167319604Y-94790261D01*
X166673829Y-95368815D01*
X166669501Y-95372517D01*
X165997837Y-95920815D01*
X165993344Y-95924314D01*
X165297204Y-96441201D01*
X165292554Y-96444490D01*
X164573436Y-96928855D01*
X164568641Y-96931927D01*
X163828038Y-97382764D01*
X163823107Y-97385613D01*
X163062565Y-97801982D01*
X163057533Y-97804588D01*
X162476351Y-98088896D01*
X162278680Y-98185595D01*
X162273508Y-98187979D01*
X161477974Y-98532826D01*
X161472698Y-98534970D01*
X160662202Y-98842914D01*
X160656834Y-98844814D01*
X159833040Y-99115223D01*
X159827589Y-99116875D01*
X158992232Y-99349178D01*
X158986712Y-99350577D01*
X158141580Y-99544278D01*
X158136032Y-99545416D01*
X157282872Y-99700113D01*
X157277277Y-99700996D01*
X156417925Y-99816354D01*
X156412264Y-99816982D01*
X155548532Y-99892761D01*
X155542849Y-99893128D01*
X154676564Y-99929168D01*
X154670870Y-99929274D01*
X153803827Y-99925500D01*
X153798134Y-99925344D01*
X152932193Y-99881764D01*
X152926514Y-99881347D01*
X152063156Y-99798022D01*
X152058196Y-99797443D01*
X151669750Y-99744093D01*
X151669654Y-99744079D01*
X151605917Y-99715457D01*
X151598856Y-99708924D01*
X150819963Y-98930006D01*
X150819962Y-98930006D01*
X143320013Y-98930006D01*
X135156257Y-107093763D01*
X135094934Y-107127248D01*
X135068576Y-107130082D01*
X132071326Y-107130082D01*
X132004287Y-107110397D01*
X131983644Y-107093762D01*
X130819913Y-105930006D01*
X130819912Y-105930006D01*
X128356949Y-105930006D01*
X128289910Y-105910321D01*
X128244155Y-105857517D01*
X128234211Y-105788359D01*
X128256632Y-105733119D01*
X128261232Y-105726788D01*
X128339873Y-105572445D01*
X128393402Y-105407701D01*
X128420500Y-105236611D01*
X128420500Y-104563389D01*
X128393402Y-104392299D01*
X128339873Y-104227555D01*
X128261232Y-104073212D01*
X128159414Y-103933072D01*
X128036928Y-103810586D01*
X127896788Y-103708768D01*
X127742445Y-103630127D01*
X127577701Y-103576598D01*
X127577699Y-103576597D01*
X127577698Y-103576597D01*
X127446271Y-103555781D01*
X127406611Y-103549500D01*
X127233389Y-103549500D01*
X127193728Y-103555781D01*
X127062302Y-103576597D01*
X126897552Y-103630128D01*
X126743211Y-103708768D01*
X126663256Y-103766859D01*
X126603072Y-103810586D01*
X126603070Y-103810588D01*
X126603069Y-103810588D01*
X126480588Y-103933069D01*
X126480588Y-103933070D01*
X126480586Y-103933072D01*
X126436859Y-103993256D01*
X126378768Y-104073211D01*
X126300128Y-104227552D01*
X126246597Y-104392302D01*
X126219500Y-104563389D01*
X126219500Y-105236611D01*
X126246598Y-105407701D01*
X126300127Y-105572445D01*
X126378768Y-105726788D01*
X126383367Y-105733118D01*
X126406849Y-105798923D01*
X126391025Y-105866977D01*
X126340921Y-105915674D01*
X126283051Y-105930006D01*
X119716949Y-105930006D01*
X119649910Y-105910321D01*
X119604155Y-105857517D01*
X119594211Y-105788359D01*
X119616632Y-105733119D01*
X119621232Y-105726788D01*
X119699873Y-105572445D01*
X119753402Y-105407701D01*
X119780500Y-105236611D01*
X119780500Y-104563389D01*
X119753402Y-104392299D01*
X119699873Y-104227555D01*
X119621232Y-104073212D01*
X119519414Y-103933072D01*
X119396928Y-103810586D01*
X119256788Y-103708768D01*
X119102445Y-103630127D01*
X118937701Y-103576598D01*
X118937699Y-103576597D01*
X118937698Y-103576597D01*
X118806271Y-103555781D01*
X118766611Y-103549500D01*
X118593389Y-103549500D01*
X118553728Y-103555781D01*
X118422302Y-103576597D01*
X118257552Y-103630128D01*
X118103211Y-103708768D01*
X118023256Y-103766859D01*
X117963072Y-103810586D01*
X117963070Y-103810588D01*
X117963069Y-103810588D01*
X117840588Y-103933069D01*
X117840588Y-103933070D01*
X117840586Y-103933072D01*
X117796859Y-103993256D01*
X117738768Y-104073211D01*
X117660128Y-104227552D01*
X117606597Y-104392302D01*
X117579500Y-104563389D01*
X117579500Y-105236611D01*
X117606598Y-105407701D01*
X117660127Y-105572445D01*
X117738768Y-105726788D01*
X117743367Y-105733118D01*
X117766849Y-105798923D01*
X117751025Y-105866977D01*
X117700921Y-105915674D01*
X117643051Y-105930006D01*
X115819860Y-105930006D01*
X114656257Y-107093758D01*
X114594936Y-107127247D01*
X114568570Y-107130082D01*
X111571200Y-107130082D01*
X111504161Y-107110397D01*
X111483518Y-107093763D01*
X105153242Y-100763389D01*
X117579500Y-100763389D01*
X117579500Y-101436611D01*
X117606598Y-101607701D01*
X117658642Y-101767876D01*
X117660128Y-101772447D01*
X117688170Y-101827483D01*
X117738768Y-101926788D01*
X117840586Y-102066928D01*
X117963072Y-102189414D01*
X118103212Y-102291232D01*
X118257555Y-102369873D01*
X118422299Y-102423402D01*
X118593389Y-102450500D01*
X118593390Y-102450500D01*
X118766610Y-102450500D01*
X118766611Y-102450500D01*
X118937701Y-102423402D01*
X119102445Y-102369873D01*
X119256788Y-102291232D01*
X119396928Y-102189414D01*
X119519414Y-102066928D01*
X119621232Y-101926788D01*
X119699873Y-101772445D01*
X119753402Y-101607701D01*
X119780500Y-101436611D01*
X119780500Y-100763389D01*
X119753402Y-100592299D01*
X119699873Y-100427555D01*
X119621232Y-100273212D01*
X119519414Y-100133072D01*
X119396928Y-100010586D01*
X119256788Y-99908768D01*
X119102445Y-99830127D01*
X118937701Y-99776598D01*
X118937699Y-99776597D01*
X118937698Y-99776597D01*
X118806271Y-99755781D01*
X118766611Y-99749500D01*
X118593389Y-99749500D01*
X118553728Y-99755781D01*
X118422302Y-99776597D01*
X118257552Y-99830128D01*
X118103211Y-99908768D01*
X118050575Y-99947011D01*
X117963072Y-100010586D01*
X117963070Y-100010588D01*
X117963069Y-100010588D01*
X117840588Y-100133069D01*
X117840588Y-100133070D01*
X117840586Y-100133072D01*
X117796859Y-100193256D01*
X117738768Y-100273211D01*
X117660128Y-100427552D01*
X117660127Y-100427554D01*
X117660127Y-100427555D01*
X117638894Y-100492902D01*
X117606597Y-100592302D01*
X117579500Y-100763389D01*
X105153242Y-100763389D01*
X103319887Y-98930006D01*
X95819811Y-98930006D01*
X95819810Y-98930006D01*
X95040939Y-99708925D01*
X94979617Y-99742411D01*
X94970123Y-99744093D01*
X94581622Y-99797439D01*
X94576665Y-99798019D01*
X93713255Y-99881338D01*
X93707575Y-99881754D01*
X92841662Y-99925321D01*
X92835969Y-99925477D01*
X91968933Y-99929240D01*
X91963239Y-99929134D01*
X91096940Y-99893082D01*
X91091257Y-99892714D01*
X90227552Y-99816927D01*
X90221892Y-99816299D01*
X89362574Y-99700934D01*
X89356948Y-99700047D01*
X88503828Y-99545348D01*
X88498250Y-99544204D01*
X87653116Y-99350493D01*
X87647595Y-99349093D01*
X86812276Y-99116790D01*
X86806826Y-99115139D01*
X85983033Y-98844720D01*
X85977664Y-98842820D01*
X85167146Y-98534859D01*
X85161871Y-98532714D01*
X84366389Y-98187881D01*
X84361217Y-98185497D01*
X83582381Y-97804489D01*
X83577324Y-97801869D01*
X82816792Y-97385496D01*
X82811861Y-97382648D01*
X82071267Y-96931807D01*
X82066472Y-96928735D01*
X81347339Y-96444352D01*
X81342690Y-96441062D01*
X80898630Y-96111339D01*
X80646581Y-95924188D01*
X80642113Y-95920709D01*
X79970425Y-95372382D01*
X79966098Y-95368680D01*
X79554589Y-95000000D01*
X100594564Y-95000000D01*
X100614289Y-95326099D01*
X100673178Y-95647452D01*
X100770366Y-95959342D01*
X100770370Y-95959354D01*
X100770373Y-95959361D01*
X100904455Y-96257279D01*
X101039466Y-96480614D01*
X101073473Y-96536868D01*
X101274954Y-96794039D01*
X101505960Y-97025045D01*
X101763131Y-97226526D01*
X101763134Y-97226528D01*
X101763137Y-97226530D01*
X102042721Y-97395545D01*
X102340639Y-97529627D01*
X102340652Y-97529631D01*
X102340657Y-97529633D01*
X102652547Y-97626821D01*
X102973896Y-97685710D01*
X103300000Y-97705436D01*
X103626104Y-97685710D01*
X103947453Y-97626821D01*
X104259361Y-97529627D01*
X104557279Y-97395545D01*
X104836863Y-97226530D01*
X105094036Y-97025048D01*
X105325048Y-96794036D01*
X105526530Y-96536863D01*
X105695545Y-96257279D01*
X105829627Y-95959361D01*
X105926821Y-95647453D01*
X105985710Y-95326104D01*
X106005436Y-95000000D01*
X105985710Y-94673896D01*
X105926821Y-94352547D01*
X105898527Y-94261747D01*
X105829633Y-94040657D01*
X105829631Y-94040652D01*
X105829627Y-94040639D01*
X105695545Y-93742721D01*
X105526530Y-93463137D01*
X105526528Y-93463134D01*
X105526526Y-93463131D01*
X105325045Y-93205960D01*
X105094039Y-92974954D01*
X104836868Y-92773473D01*
X104820991Y-92763875D01*
X104557279Y-92604455D01*
X104259361Y-92470373D01*
X104259354Y-92470370D01*
X104259342Y-92470366D01*
X103947452Y-92373178D01*
X103626099Y-92314289D01*
X103300000Y-92294564D01*
X102973900Y-92314289D01*
X102652547Y-92373178D01*
X102340657Y-92470366D01*
X102340641Y-92470372D01*
X102340639Y-92470373D01*
X102150933Y-92555752D01*
X102042725Y-92604453D01*
X102042723Y-92604454D01*
X101763131Y-92773473D01*
X101505960Y-92974954D01*
X101274954Y-93205960D01*
X101073473Y-93463131D01*
X100946708Y-93672825D01*
X100904455Y-93742721D01*
X100778600Y-94022361D01*
X100770372Y-94040642D01*
X100770366Y-94040657D01*
X100673178Y-94352547D01*
X100614289Y-94673900D01*
X100594564Y-95000000D01*
X79554589Y-95000000D01*
X79320347Y-94790137D01*
X79316201Y-94786248D01*
X79127235Y-94600620D01*
X78697665Y-94178637D01*
X78693695Y-94174554D01*
X78103718Y-93539191D01*
X78099940Y-93534930D01*
X77780677Y-93157764D01*
X77539745Y-92873134D01*
X77536188Y-92868730D01*
X77006980Y-92181925D01*
X77003612Y-92177340D01*
X76831087Y-91930801D01*
X76506492Y-91466952D01*
X76503338Y-91462216D01*
X76039369Y-90729766D01*
X76036433Y-90724886D01*
X75606588Y-89971915D01*
X75603879Y-89966906D01*
X75528622Y-89819770D01*
X75209049Y-89194970D01*
X75206600Y-89189900D01*
X74847610Y-88400608D01*
X74845374Y-88395375D01*
X74779921Y-88231943D01*
X74523024Y-87590483D01*
X74521031Y-87585153D01*
X74511237Y-87557020D01*
X74235978Y-86766315D01*
X74234231Y-86760896D01*
X74213117Y-86689901D01*
X73987083Y-85929851D01*
X73985585Y-85924357D01*
X73844106Y-85353973D01*
X73776843Y-85082801D01*
X73775603Y-85077257D01*
X73763534Y-85016852D01*
X73605720Y-84226991D01*
X73604743Y-84221437D01*
X73474081Y-83364281D01*
X73473353Y-83358641D01*
X73458580Y-83218924D01*
X73382185Y-82496386D01*
X73381718Y-82490719D01*
X73330236Y-81625204D01*
X73330031Y-81619574D01*
X73318344Y-80752561D01*
X73318398Y-80746884D01*
X73321196Y-80660702D01*
X73346533Y-79880252D01*
X73346844Y-79874650D01*
X73414740Y-79010210D01*
X73415309Y-79004620D01*
X73522824Y-78144217D01*
X73523658Y-78138599D01*
X73525504Y-78127862D01*
X73670558Y-77284082D01*
X73671638Y-77278555D01*
X73857626Y-76431647D01*
X73858973Y-76426126D01*
X73893122Y-76298838D01*
X74083646Y-75588669D01*
X74085233Y-75583256D01*
X74348115Y-74757014D01*
X74349961Y-74751642D01*
X74350245Y-74750875D01*
X74650508Y-73938327D01*
X74652601Y-73933043D01*
X74696529Y-73829115D01*
X74990169Y-73134399D01*
X74992481Y-73129260D01*
X75366388Y-72346906D01*
X75368921Y-72341906D01*
X75778353Y-71577548D01*
X75781102Y-71572686D01*
X76225224Y-70827889D01*
X76228216Y-70823126D01*
X76706018Y-70099580D01*
X76709234Y-70094944D01*
X77219781Y-69394064D01*
X77223201Y-69389590D01*
X77765379Y-68712904D01*
X77768981Y-68708612D01*
X78341681Y-68057509D01*
X78345482Y-68053382D01*
X78947440Y-67429294D01*
X78951445Y-67425327D01*
X79581444Y-66829517D01*
X79585622Y-66825745D01*
X80242280Y-66259516D01*
X80246650Y-66255919D01*
X80928611Y-65720442D01*
X80933167Y-65717032D01*
X81409020Y-65377516D01*
X81638968Y-65213450D01*
X81643670Y-65210256D01*
X82371857Y-64739605D01*
X82376701Y-64736631D01*
X82376782Y-64736584D01*
X83125731Y-64299912D01*
X83130681Y-64297176D01*
X83899031Y-63895279D01*
X83904057Y-63892795D01*
X84690062Y-63526595D01*
X84695181Y-63524352D01*
X85497171Y-63194627D01*
X85502429Y-63192606D01*
X86084086Y-62984142D01*
X86318671Y-62900068D01*
X86324074Y-62898271D01*
X86465285Y-62854867D01*
X87152858Y-62643527D01*
X87158269Y-62641999D01*
X87997917Y-62425567D01*
X88003403Y-62424286D01*
X88852132Y-62246629D01*
X88857655Y-62245605D01*
X89713601Y-62107112D01*
X89719229Y-62106334D01*
X90580606Y-62007291D01*
X90586222Y-62006775D01*
X91451285Y-61947383D01*
X91456943Y-61947125D01*
X92323779Y-61927517D01*
X92329439Y-61927518D01*
X93196262Y-61947730D01*
X93201919Y-61947992D01*
X94066948Y-62007986D01*
X94072550Y-62008504D01*
X94933857Y-62108148D01*
X94939497Y-62108931D01*
X95795670Y-62248072D01*
X95800519Y-62248960D01*
X96189001Y-62328261D01*
X96250747Y-62360955D01*
X96251795Y-62361991D01*
X96819811Y-62930006D01*
X101319887Y-62930006D01*
X108422142Y-55827768D01*
X108483463Y-55794285D01*
X108553155Y-55799269D01*
X108609088Y-55841141D01*
X108633505Y-55906605D01*
X108623377Y-55965261D01*
X108577950Y-56068825D01*
X108520973Y-56293817D01*
X108520971Y-56293828D01*
X108501807Y-56525119D01*
X108501807Y-56525132D01*
X108520971Y-56756423D01*
X108520973Y-56756434D01*
X108577949Y-56981426D01*
X108671182Y-57193974D01*
X108798123Y-57388273D01*
X108798126Y-57388277D01*
X108798128Y-57388279D01*
X108955323Y-57559039D01*
X108955326Y-57559041D01*
X108955329Y-57559044D01*
X109138472Y-57701590D01*
X109138478Y-57701594D01*
X109138481Y-57701596D01*
X109342604Y-57812062D01*
X109456594Y-57851194D01*
X109562122Y-57887423D01*
X109562124Y-57887423D01*
X109562126Y-57887424D01*
X109791058Y-57925626D01*
X109791060Y-57925626D01*
X109791066Y-57925627D01*
X109796169Y-57926050D01*
X109796049Y-57927497D01*
X109856713Y-57945311D01*
X109877355Y-57961945D01*
X113478228Y-61562819D01*
X113511713Y-61624142D01*
X113506729Y-61693834D01*
X113464857Y-61749767D01*
X113399393Y-61774184D01*
X113390547Y-61774500D01*
X111338388Y-61774500D01*
X111217555Y-61798535D01*
X111217547Y-61798537D01*
X111103716Y-61845687D01*
X111001265Y-61914142D01*
X111001262Y-61914145D01*
X109377229Y-63538181D01*
X109315906Y-63571666D01*
X109289548Y-63574500D01*
X108944441Y-63574500D01*
X108877402Y-63554815D01*
X108831647Y-63502011D01*
X108821703Y-63432853D01*
X108850151Y-63369969D01*
X108907843Y-63302419D01*
X108907846Y-63302416D01*
X109039476Y-63087616D01*
X109135883Y-62854868D01*
X109194693Y-62609905D01*
X109214459Y-62358757D01*
X109194693Y-62107609D01*
X109135883Y-61862646D01*
X109109328Y-61798537D01*
X109039476Y-61629897D01*
X108907849Y-61415103D01*
X108907848Y-61415100D01*
X108782067Y-61267830D01*
X108744234Y-61223533D01*
X108564490Y-61070017D01*
X108552666Y-61059918D01*
X108552663Y-61059917D01*
X108337869Y-60928290D01*
X108105120Y-60831883D01*
X107860161Y-60773074D01*
X107609010Y-60753308D01*
X107357858Y-60773074D01*
X107112899Y-60831883D01*
X106880150Y-60928290D01*
X106665356Y-61059917D01*
X106665353Y-61059918D01*
X106473786Y-61223533D01*
X106310171Y-61415100D01*
X106310170Y-61415103D01*
X106178543Y-61629897D01*
X106082136Y-61862646D01*
X106023327Y-62107605D01*
X106003561Y-62358757D01*
X106023327Y-62609908D01*
X106082136Y-62854867D01*
X106178543Y-63087616D01*
X106310170Y-63302410D01*
X106310176Y-63302419D01*
X106367869Y-63369969D01*
X106396440Y-63433730D01*
X106386003Y-63502816D01*
X106339872Y-63555292D01*
X106273579Y-63574500D01*
X102496851Y-63574500D01*
X102496831Y-63574499D01*
X102490717Y-63574499D01*
X102367504Y-63574499D01*
X102266707Y-63594548D01*
X102266702Y-63594548D01*
X102246658Y-63598536D01*
X102246655Y-63598537D01*
X102220780Y-63609256D01*
X102220777Y-63609257D01*
X102132831Y-63645684D01*
X102132818Y-63645691D01*
X102030377Y-63714141D01*
X102030373Y-63714144D01*
X92731339Y-73013181D01*
X92670016Y-73046666D01*
X92643658Y-73049500D01*
X83912354Y-73049500D01*
X83912334Y-73049499D01*
X83906220Y-73049499D01*
X83783007Y-73049499D01*
X83682210Y-73069548D01*
X83682205Y-73069548D01*
X83662162Y-73073536D01*
X83662160Y-73073536D01*
X83615010Y-73093067D01*
X83548332Y-73120685D01*
X83548330Y-73120686D01*
X83445879Y-73189141D01*
X83445876Y-73189144D01*
X80691369Y-75943653D01*
X79827269Y-76807753D01*
X79827267Y-76807755D01*
X79785863Y-76849159D01*
X79740142Y-76894879D01*
X79716874Y-76929703D01*
X79716873Y-76929704D01*
X79671690Y-76997322D01*
X79671685Y-76997331D01*
X79638347Y-77077820D01*
X79632823Y-77091156D01*
X79624537Y-77111158D01*
X79624535Y-77111166D01*
X79600500Y-77232002D01*
X79600500Y-79728609D01*
X79609156Y-79772124D01*
X79609156Y-79772126D01*
X79624535Y-79849444D01*
X79624538Y-79849454D01*
X79638347Y-79882792D01*
X79638347Y-79882793D01*
X79671685Y-79963281D01*
X79671690Y-79963290D01*
X79705870Y-80014442D01*
X79705872Y-80014445D01*
X79705874Y-80014447D01*
X79740142Y-80065733D01*
X79827267Y-80152858D01*
X79827268Y-80152858D01*
X79834335Y-80159925D01*
X79834334Y-80159925D01*
X79834338Y-80159928D01*
X80069650Y-80395240D01*
X80103135Y-80456563D01*
X80102175Y-80513361D01*
X80064866Y-80660690D01*
X80064864Y-80660702D01*
X80045700Y-80891993D01*
X80045700Y-80892006D01*
X80064864Y-81123297D01*
X80064866Y-81123308D01*
X80121842Y-81348300D01*
X80215075Y-81560848D01*
X80342016Y-81755147D01*
X80342019Y-81755151D01*
X80342021Y-81755153D01*
X80499216Y-81925913D01*
X80499219Y-81925915D01*
X80499222Y-81925918D01*
X80682365Y-82068464D01*
X80682371Y-82068468D01*
X80682374Y-82068470D01*
X80886497Y-82178936D01*
X80993307Y-82215604D01*
X81106015Y-82254297D01*
X81106017Y-82254297D01*
X81106019Y-82254298D01*
X81334951Y-82292500D01*
X81334952Y-82292500D01*
X81567048Y-82292500D01*
X81567049Y-82292500D01*
X81795981Y-82254298D01*
X82015503Y-82178936D01*
X82219626Y-82068470D01*
X82252993Y-82042500D01*
X82289391Y-82014170D01*
X82402784Y-81925913D01*
X82559979Y-81755153D01*
X82686924Y-81560849D01*
X82780157Y-81348300D01*
X82837134Y-81123305D01*
X82848797Y-80982551D01*
X82856300Y-80892006D01*
X82856300Y-80891993D01*
X82848797Y-80801448D01*
X84730500Y-80801448D01*
X84730500Y-80982551D01*
X84758829Y-81161410D01*
X84814787Y-81333636D01*
X84814788Y-81333639D01*
X84897006Y-81494997D01*
X85003441Y-81641494D01*
X85003445Y-81641499D01*
X85131500Y-81769554D01*
X85131505Y-81769558D01*
X85209072Y-81825913D01*
X85278006Y-81875996D01*
X85375973Y-81925913D01*
X85439360Y-81958211D01*
X85439363Y-81958212D01*
X85470929Y-81968468D01*
X85611591Y-82014171D01*
X85694429Y-82027291D01*
X85790449Y-82042500D01*
X85790454Y-82042500D01*
X85971551Y-82042500D01*
X86058259Y-82028765D01*
X86150409Y-82014171D01*
X86322639Y-81958211D01*
X86483994Y-81875996D01*
X86630501Y-81769553D01*
X86758553Y-81641501D01*
X86864996Y-81494994D01*
X86947211Y-81333639D01*
X87003171Y-81161409D01*
X87025044Y-81023308D01*
X87031500Y-80982551D01*
X87031500Y-80801448D01*
X93330500Y-80801448D01*
X93330500Y-80982551D01*
X93358829Y-81161410D01*
X93414787Y-81333636D01*
X93414788Y-81333639D01*
X93497006Y-81494997D01*
X93603441Y-81641494D01*
X93603445Y-81641499D01*
X93731500Y-81769554D01*
X93731505Y-81769558D01*
X93809072Y-81825913D01*
X93878006Y-81875996D01*
X93975973Y-81925913D01*
X94039360Y-81958211D01*
X94039363Y-81958212D01*
X94070929Y-81968468D01*
X94211591Y-82014171D01*
X94294429Y-82027291D01*
X94390449Y-82042500D01*
X94390454Y-82042500D01*
X94571551Y-82042500D01*
X94658259Y-82028765D01*
X94750409Y-82014171D01*
X94922639Y-81958211D01*
X95083994Y-81875996D01*
X95230501Y-81769553D01*
X95358553Y-81641501D01*
X95464996Y-81494994D01*
X95547211Y-81333639D01*
X95603171Y-81161409D01*
X95625044Y-81023308D01*
X95631500Y-80982551D01*
X95631500Y-80801448D01*
X95609205Y-80660690D01*
X95603171Y-80622591D01*
X95547211Y-80450361D01*
X95547211Y-80450360D01*
X95496258Y-80350361D01*
X95464996Y-80289006D01*
X95431539Y-80242956D01*
X95358558Y-80142505D01*
X95358554Y-80142500D01*
X95230499Y-80014445D01*
X95230494Y-80014441D01*
X95083997Y-79908006D01*
X95083996Y-79908005D01*
X95083994Y-79908004D01*
X95032300Y-79881664D01*
X94922639Y-79825788D01*
X94922636Y-79825787D01*
X94750410Y-79769829D01*
X94571551Y-79741500D01*
X94571546Y-79741500D01*
X94390454Y-79741500D01*
X94390449Y-79741500D01*
X94211589Y-79769829D01*
X94039363Y-79825787D01*
X94039360Y-79825788D01*
X93878002Y-79908006D01*
X93731505Y-80014441D01*
X93731500Y-80014445D01*
X93603445Y-80142500D01*
X93603441Y-80142505D01*
X93497006Y-80289002D01*
X93414788Y-80450360D01*
X93414787Y-80450363D01*
X93358829Y-80622589D01*
X93330500Y-80801448D01*
X87031500Y-80801448D01*
X87009205Y-80660690D01*
X87003171Y-80622591D01*
X86947211Y-80450361D01*
X86947211Y-80450360D01*
X86896258Y-80350361D01*
X86864996Y-80289006D01*
X86831539Y-80242956D01*
X86758558Y-80142505D01*
X86758554Y-80142500D01*
X86630499Y-80014445D01*
X86630494Y-80014441D01*
X86483997Y-79908006D01*
X86483996Y-79908005D01*
X86483994Y-79908004D01*
X86432300Y-79881664D01*
X86322639Y-79825788D01*
X86322636Y-79825787D01*
X86150410Y-79769829D01*
X85971551Y-79741500D01*
X85971546Y-79741500D01*
X85790454Y-79741500D01*
X85790449Y-79741500D01*
X85611589Y-79769829D01*
X85439363Y-79825787D01*
X85439360Y-79825788D01*
X85278002Y-79908006D01*
X85131505Y-80014441D01*
X85131500Y-80014445D01*
X85003445Y-80142500D01*
X85003441Y-80142505D01*
X84897006Y-80289002D01*
X84814788Y-80450360D01*
X84814787Y-80450363D01*
X84758829Y-80622589D01*
X84730500Y-80801448D01*
X82848797Y-80801448D01*
X82837135Y-80660702D01*
X82837133Y-80660691D01*
X82780157Y-80435699D01*
X82686924Y-80223151D01*
X82559983Y-80028852D01*
X82559980Y-80028849D01*
X82559979Y-80028847D01*
X82402784Y-79858087D01*
X82250876Y-79739852D01*
X82210064Y-79683143D01*
X82206389Y-79613370D01*
X82241020Y-79552687D01*
X82250871Y-79544150D01*
X82402784Y-79425913D01*
X82559979Y-79255153D01*
X82686924Y-79060849D01*
X82780157Y-78848300D01*
X82837134Y-78623305D01*
X82837135Y-78623297D01*
X82856300Y-78392006D01*
X82856300Y-78391993D01*
X82837135Y-78160702D01*
X82837133Y-78160691D01*
X82780157Y-77935699D01*
X82686924Y-77723151D01*
X82559983Y-77528852D01*
X82559980Y-77528849D01*
X82559979Y-77528847D01*
X82402784Y-77358087D01*
X82402779Y-77358083D01*
X82402777Y-77358081D01*
X82219634Y-77215535D01*
X82219628Y-77215531D01*
X82015504Y-77105064D01*
X82015495Y-77105061D01*
X81795984Y-77029702D01*
X81672386Y-77009077D01*
X81609501Y-76978626D01*
X81573061Y-76919011D01*
X81574637Y-76849159D01*
X81605113Y-76799089D01*
X84067385Y-74336819D01*
X84128708Y-74303334D01*
X84155066Y-74300500D01*
X85113215Y-74300500D01*
X85180254Y-74320185D01*
X85226009Y-74372989D01*
X85235953Y-74442147D01*
X85227776Y-74471952D01*
X85173127Y-74603885D01*
X85173127Y-74603887D01*
X85114317Y-74848848D01*
X85094551Y-75100000D01*
X85114317Y-75351151D01*
X85173126Y-75596110D01*
X85269533Y-75828859D01*
X85401160Y-76043653D01*
X85401161Y-76043656D01*
X85401164Y-76043659D01*
X85564776Y-76235224D01*
X85639260Y-76298839D01*
X85756343Y-76398838D01*
X85756346Y-76398839D01*
X85971140Y-76530466D01*
X86203889Y-76626873D01*
X86448852Y-76685683D01*
X86700000Y-76705449D01*
X86951148Y-76685683D01*
X87196111Y-76626873D01*
X87428859Y-76530466D01*
X87643659Y-76398836D01*
X87835224Y-76235224D01*
X87998836Y-76043659D01*
X88130466Y-75828859D01*
X88226873Y-75596111D01*
X88285683Y-75351148D01*
X88305449Y-75100000D01*
X88285683Y-74848852D01*
X88226873Y-74603889D01*
X88226872Y-74603886D01*
X88226872Y-74603885D01*
X88172224Y-74471952D01*
X88164755Y-74402483D01*
X88196030Y-74340004D01*
X88256119Y-74304352D01*
X88286785Y-74300500D01*
X92113215Y-74300500D01*
X92180254Y-74320185D01*
X92226009Y-74372989D01*
X92235953Y-74442147D01*
X92227776Y-74471952D01*
X92173127Y-74603885D01*
X92173127Y-74603887D01*
X92114317Y-74848848D01*
X92094551Y-75100000D01*
X92114317Y-75351151D01*
X92173126Y-75596110D01*
X92269533Y-75828859D01*
X92401160Y-76043653D01*
X92401161Y-76043656D01*
X92401164Y-76043659D01*
X92564776Y-76235224D01*
X92639260Y-76298839D01*
X92756343Y-76398838D01*
X92756346Y-76398839D01*
X92971140Y-76530466D01*
X93203889Y-76626873D01*
X93448852Y-76685683D01*
X93700000Y-76705449D01*
X93951148Y-76685683D01*
X94196111Y-76626873D01*
X94428859Y-76530466D01*
X94643659Y-76398836D01*
X94835224Y-76235224D01*
X94998836Y-76043659D01*
X95130466Y-75828859D01*
X95226873Y-75596111D01*
X95285683Y-75351148D01*
X95305449Y-75100000D01*
X95285683Y-74848852D01*
X95226873Y-74603889D01*
X95185451Y-74503886D01*
X95130466Y-74371140D01*
X94998839Y-74156346D01*
X94998838Y-74156343D01*
X94913432Y-74056346D01*
X94835224Y-73964776D01*
X94708571Y-73856604D01*
X94643656Y-73801161D01*
X94643653Y-73801160D01*
X94428859Y-73669533D01*
X94196102Y-73573123D01*
X94195680Y-73572986D01*
X94195540Y-73572890D01*
X94191609Y-73571262D01*
X94191951Y-73570436D01*
X94138006Y-73533547D01*
X94110811Y-73469187D01*
X94122728Y-73400341D01*
X94146319Y-73367379D01*
X100400837Y-67112862D01*
X100462158Y-67079379D01*
X100531850Y-67084363D01*
X100587783Y-67126235D01*
X100612200Y-67191699D01*
X100612290Y-67193055D01*
X100614289Y-67226100D01*
X100673178Y-67547452D01*
X100770366Y-67859342D01*
X100770370Y-67859354D01*
X100770373Y-67859361D01*
X100904455Y-68157279D01*
X100961036Y-68250875D01*
X101073473Y-68436868D01*
X101274954Y-68694039D01*
X101505960Y-68925045D01*
X101763131Y-69126526D01*
X101763134Y-69126528D01*
X101763137Y-69126530D01*
X102042721Y-69295545D01*
X102340639Y-69429627D01*
X102340652Y-69429631D01*
X102340657Y-69429633D01*
X102652547Y-69526821D01*
X102973896Y-69585710D01*
X103300000Y-69605436D01*
X103626104Y-69585710D01*
X103947453Y-69526821D01*
X104259361Y-69429627D01*
X104557279Y-69295545D01*
X104836863Y-69126530D01*
X105094036Y-68925048D01*
X105325048Y-68694036D01*
X105526530Y-68436863D01*
X105695545Y-68157279D01*
X105829627Y-67859361D01*
X105926821Y-67547453D01*
X105985710Y-67226104D01*
X106005436Y-66900000D01*
X105985710Y-66573896D01*
X105926821Y-66252547D01*
X105900829Y-66169135D01*
X105829633Y-65940657D01*
X105829631Y-65940652D01*
X105829627Y-65940639D01*
X105695545Y-65642721D01*
X105526530Y-65363137D01*
X105526528Y-65363134D01*
X105526526Y-65363131D01*
X105325045Y-65105960D01*
X105256266Y-65037181D01*
X105222781Y-64975858D01*
X105227765Y-64906166D01*
X105269637Y-64850233D01*
X105335101Y-64825816D01*
X105343947Y-64825500D01*
X109661608Y-64825500D01*
X109661608Y-64825499D01*
X109727476Y-64812398D01*
X109727477Y-64812398D01*
X109746140Y-64808685D01*
X109782452Y-64801463D01*
X109815792Y-64787652D01*
X109896286Y-64754312D01*
X109947509Y-64720084D01*
X109998733Y-64685858D01*
X110085858Y-64598733D01*
X110085858Y-64598731D01*
X110096066Y-64588524D01*
X110096067Y-64588521D01*
X111622772Y-63061819D01*
X111684095Y-63028334D01*
X111710453Y-63025500D01*
X113138394Y-63025500D01*
X113538394Y-63025500D01*
X114729142Y-63025500D01*
X114796181Y-63045185D01*
X114816823Y-63061819D01*
X114920405Y-63165401D01*
X114949766Y-63212127D01*
X115006925Y-63375480D01*
X115006927Y-63375483D01*
X115096898Y-63518670D01*
X115096903Y-63518676D01*
X115216489Y-63638262D01*
X115216495Y-63638267D01*
X115359682Y-63728238D01*
X115359688Y-63728241D01*
X115359690Y-63728242D01*
X115519321Y-63784099D01*
X115526763Y-63784937D01*
X115591176Y-63812003D01*
X115630732Y-63869598D01*
X115636880Y-63908158D01*
X115636880Y-64387148D01*
X115617195Y-64454187D01*
X115564391Y-64499942D01*
X115553835Y-64504189D01*
X115472312Y-64532715D01*
X115472301Y-64532720D01*
X115329114Y-64622691D01*
X115329108Y-64622696D01*
X115209522Y-64742282D01*
X115209520Y-64742285D01*
X115169976Y-64805218D01*
X115117641Y-64851509D01*
X115048587Y-64862156D01*
X114999011Y-64844239D01*
X114852799Y-64752367D01*
X114852798Y-64752366D01*
X114852797Y-64752366D01*
X114807829Y-64736631D01*
X114693163Y-64696507D01*
X114525110Y-64677573D01*
X114525104Y-64677573D01*
X114357050Y-64696507D01*
X114197414Y-64752367D01*
X114140203Y-64788316D01*
X114074231Y-64807322D01*
X111905571Y-64807322D01*
X111880050Y-64812398D01*
X111880049Y-64812397D01*
X111784733Y-64831357D01*
X111784725Y-64831359D01*
X111670894Y-64878509D01*
X111588979Y-64933244D01*
X111588978Y-64933245D01*
X111563378Y-64950350D01*
X111562582Y-64949159D01*
X111504876Y-64973667D01*
X111490524Y-64974500D01*
X110993389Y-64974500D01*
X110932971Y-64986518D01*
X110895259Y-64994019D01*
X110872550Y-64998536D01*
X110872548Y-64998537D01*
X110839207Y-65012347D01*
X110758719Y-65045684D01*
X110758705Y-65045692D01*
X110656272Y-65114138D01*
X110656267Y-65114142D01*
X110569142Y-65201267D01*
X110569139Y-65201270D01*
X96903270Y-78867139D01*
X96903267Y-78867142D01*
X96877909Y-78892500D01*
X96816141Y-78954267D01*
X96816139Y-78954270D01*
X96804277Y-78972021D01*
X96804278Y-78972022D01*
X96747689Y-79056712D01*
X96747687Y-79056716D01*
X96722588Y-79117309D01*
X96722589Y-79117310D01*
X96700537Y-79170548D01*
X96700536Y-79170551D01*
X96700536Y-79170552D01*
X96700535Y-79170553D01*
X96696820Y-79189229D01*
X96696821Y-79189230D01*
X96683709Y-79255153D01*
X96683708Y-79255155D01*
X96676500Y-79291391D01*
X96676500Y-82189547D01*
X96656815Y-82256586D01*
X96640181Y-82277228D01*
X90678520Y-88238888D01*
X90617197Y-88272373D01*
X90550577Y-88268488D01*
X90524986Y-88259702D01*
X90334204Y-88227867D01*
X90296049Y-88221500D01*
X90063951Y-88221500D01*
X90018164Y-88229140D01*
X89835015Y-88259702D01*
X89615504Y-88335061D01*
X89615495Y-88335064D01*
X89411371Y-88445531D01*
X89411365Y-88445535D01*
X89228222Y-88588081D01*
X89228219Y-88588084D01*
X89228216Y-88588086D01*
X89228216Y-88588087D01*
X89149618Y-88673467D01*
X89071018Y-88758850D01*
X89034309Y-88815039D01*
X88981162Y-88860395D01*
X88911931Y-88869819D01*
X88848595Y-88840317D01*
X88826691Y-88815039D01*
X88789981Y-88758850D01*
X88789980Y-88758849D01*
X88789979Y-88758847D01*
X88632784Y-88588087D01*
X88632779Y-88588083D01*
X88632777Y-88588081D01*
X88449634Y-88445535D01*
X88449628Y-88445531D01*
X88245504Y-88335064D01*
X88245495Y-88335061D01*
X88025984Y-88259702D01*
X87854282Y-88231050D01*
X87797049Y-88221500D01*
X87564951Y-88221500D01*
X87519164Y-88229140D01*
X87336015Y-88259702D01*
X87116504Y-88335061D01*
X87116495Y-88335064D01*
X86912371Y-88445531D01*
X86912365Y-88445535D01*
X86729222Y-88588081D01*
X86729219Y-88588084D01*
X86572016Y-88758852D01*
X86445075Y-88953151D01*
X86351842Y-89165699D01*
X86294866Y-89390691D01*
X86294864Y-89390702D01*
X86275700Y-89621993D01*
X86275700Y-89622006D01*
X86294864Y-89853297D01*
X86294866Y-89853308D01*
X86351842Y-90078300D01*
X86445075Y-90290848D01*
X86572016Y-90485147D01*
X86572019Y-90485151D01*
X86572021Y-90485153D01*
X86729216Y-90655913D01*
X86729219Y-90655915D01*
X86729222Y-90655918D01*
X86912365Y-90798464D01*
X86912371Y-90798468D01*
X86912374Y-90798470D01*
X87116497Y-90908936D01*
X87156008Y-90922500D01*
X87336015Y-90984297D01*
X87336017Y-90984297D01*
X87336019Y-90984298D01*
X87564951Y-91022500D01*
X87564952Y-91022500D01*
X87797048Y-91022500D01*
X87797049Y-91022500D01*
X88025981Y-90984298D01*
X88245503Y-90908936D01*
X88449626Y-90798470D01*
X88632784Y-90655913D01*
X88789979Y-90485153D01*
X88826691Y-90428960D01*
X88879837Y-90383604D01*
X88949068Y-90374180D01*
X89012404Y-90403682D01*
X89034309Y-90428961D01*
X89071016Y-90485147D01*
X89071019Y-90485151D01*
X89071021Y-90485153D01*
X89228216Y-90655913D01*
X89228219Y-90655915D01*
X89228222Y-90655918D01*
X89411365Y-90798464D01*
X89411371Y-90798468D01*
X89411374Y-90798470D01*
X89615497Y-90908936D01*
X89655008Y-90922500D01*
X89835015Y-90984297D01*
X89835017Y-90984297D01*
X89835019Y-90984298D01*
X90063951Y-91022500D01*
X90063952Y-91022500D01*
X90296048Y-91022500D01*
X90296049Y-91022500D01*
X90524981Y-90984298D01*
X90744503Y-90908936D01*
X90948626Y-90798470D01*
X91131784Y-90655913D01*
X91288979Y-90485153D01*
X91415924Y-90290849D01*
X91509157Y-90078300D01*
X91566134Y-89853305D01*
X91566135Y-89853297D01*
X91585300Y-89622006D01*
X91585300Y-89621993D01*
X91566135Y-89390702D01*
X91566132Y-89390686D01*
X91556740Y-89353602D01*
X91528823Y-89243361D01*
X91531447Y-89173544D01*
X91561345Y-89125243D01*
X94286591Y-86399997D01*
X101844723Y-86399997D01*
X101844723Y-86400002D01*
X101863793Y-86617975D01*
X101863793Y-86617979D01*
X101920422Y-86829322D01*
X101920424Y-86829326D01*
X101920425Y-86829330D01*
X102005984Y-87012812D01*
X102015186Y-87032545D01*
X102014314Y-87032951D01*
X102029500Y-87089619D01*
X102029500Y-87148602D01*
X102017882Y-87201006D01*
X101950427Y-87345663D01*
X101950422Y-87345677D01*
X101893793Y-87557020D01*
X101893793Y-87557024D01*
X101874723Y-87774997D01*
X101874723Y-87775002D01*
X101893793Y-87992975D01*
X101893793Y-87992979D01*
X101950422Y-88204322D01*
X101950424Y-88204326D01*
X101950425Y-88204330D01*
X102016268Y-88345531D01*
X102017882Y-88348992D01*
X102029500Y-88401397D01*
X102029500Y-88573602D01*
X102017882Y-88626006D01*
X101950427Y-88770663D01*
X101950422Y-88770677D01*
X101893793Y-88982020D01*
X101893793Y-88982023D01*
X101875602Y-89189958D01*
X101874723Y-89200000D01*
X101891405Y-89390686D01*
X101893793Y-89417975D01*
X101893793Y-89417979D01*
X101950422Y-89629322D01*
X101950427Y-89629336D01*
X102017895Y-89774022D01*
X102029334Y-89819770D01*
X102029499Y-89822856D01*
X102035908Y-89882483D01*
X102086202Y-90017328D01*
X102086206Y-90017335D01*
X102172452Y-90132544D01*
X102172455Y-90132547D01*
X102287664Y-90218793D01*
X102287671Y-90218797D01*
X102332618Y-90235561D01*
X102422517Y-90269091D01*
X102456247Y-90272717D01*
X102496908Y-90285983D01*
X102497454Y-90284814D01*
X102502361Y-90287102D01*
X102700670Y-90379575D01*
X102912023Y-90436207D01*
X103094926Y-90452208D01*
X103129998Y-90455277D01*
X103130000Y-90455277D01*
X103130002Y-90455277D01*
X103158254Y-90452805D01*
X103347977Y-90436207D01*
X103559330Y-90379575D01*
X103757639Y-90287102D01*
X103757638Y-90287102D01*
X103762546Y-90284814D01*
X103763093Y-90285987D01*
X103803757Y-90272716D01*
X103837483Y-90269091D01*
X103972331Y-90218796D01*
X104087546Y-90132546D01*
X104173796Y-90017331D01*
X104224091Y-89882483D01*
X104229130Y-89835619D01*
X104230498Y-89822897D01*
X104230498Y-89822886D01*
X104230500Y-89822873D01*
X104230500Y-89822856D01*
X104230663Y-89819808D01*
X104242103Y-89774019D01*
X104309575Y-89629330D01*
X104366207Y-89417977D01*
X104385277Y-89200000D01*
X104384398Y-89189958D01*
X104366207Y-88982023D01*
X104366206Y-88982020D01*
X104309577Y-88770677D01*
X104309576Y-88770676D01*
X104309575Y-88770670D01*
X104242117Y-88626007D01*
X104230499Y-88573602D01*
X104230499Y-88401397D01*
X104242117Y-88348992D01*
X104243731Y-88345531D01*
X104309575Y-88204330D01*
X104366207Y-87992977D01*
X104385277Y-87775000D01*
X104385233Y-87774500D01*
X104380425Y-87719544D01*
X104366207Y-87557023D01*
X104309575Y-87345670D01*
X104242117Y-87201006D01*
X104230499Y-87148601D01*
X104230499Y-86962063D01*
X104242117Y-86909658D01*
X104249185Y-86894500D01*
X104279575Y-86829330D01*
X104336207Y-86617977D01*
X104355277Y-86400000D01*
X104336207Y-86182023D01*
X104279575Y-85970670D01*
X104260541Y-85929851D01*
X104242117Y-85890340D01*
X104230499Y-85837936D01*
X104230499Y-85727129D01*
X104230498Y-85727123D01*
X104224091Y-85667516D01*
X104173797Y-85532671D01*
X104173793Y-85532664D01*
X104087547Y-85417455D01*
X104087544Y-85417452D01*
X103972335Y-85331206D01*
X103972328Y-85331202D01*
X103837482Y-85280908D01*
X103837483Y-85280908D01*
X103777883Y-85274501D01*
X103777881Y-85274500D01*
X103777873Y-85274500D01*
X103777865Y-85274500D01*
X103672784Y-85274500D01*
X103620379Y-85262882D01*
X103529330Y-85220425D01*
X103529326Y-85220424D01*
X103529322Y-85220422D01*
X103317977Y-85163793D01*
X103100002Y-85144723D01*
X103099998Y-85144723D01*
X102954682Y-85157436D01*
X102882023Y-85163793D01*
X102882020Y-85163793D01*
X102670675Y-85220423D01*
X102670671Y-85220424D01*
X102670670Y-85220425D01*
X102637629Y-85235832D01*
X102579617Y-85262883D01*
X102527217Y-85274500D01*
X102482131Y-85274500D01*
X102482122Y-85274501D01*
X102422516Y-85280908D01*
X102287671Y-85331202D01*
X102287664Y-85331206D01*
X102172455Y-85417452D01*
X102172452Y-85417455D01*
X102086206Y-85532664D01*
X102086202Y-85532671D01*
X102035908Y-85667516D01*
X102030123Y-85721326D01*
X102015090Y-85767411D01*
X102015186Y-85767456D01*
X102014821Y-85768238D01*
X102014228Y-85770057D01*
X102012901Y-85772355D01*
X101920426Y-85970668D01*
X101920422Y-85970677D01*
X101863793Y-86182020D01*
X101863793Y-86182024D01*
X101844723Y-86399997D01*
X94286591Y-86399997D01*
X97700729Y-82985860D01*
X97700733Y-82985858D01*
X97787858Y-82898733D01*
X97829566Y-82836313D01*
X97856312Y-82796286D01*
X97903463Y-82682451D01*
X97906121Y-82669091D01*
X97922676Y-82585858D01*
X97922677Y-82585858D01*
X97922677Y-82585851D01*
X97927500Y-82561609D01*
X97927500Y-79663451D01*
X97947185Y-79596412D01*
X97963815Y-79575774D01*
X98317819Y-79221769D01*
X98379142Y-79188285D01*
X98448834Y-79193269D01*
X98504767Y-79235141D01*
X98529184Y-79300605D01*
X98529500Y-79309451D01*
X98529500Y-82222870D01*
X98529501Y-82222876D01*
X98535908Y-82282483D01*
X98586202Y-82417328D01*
X98586206Y-82417335D01*
X98672452Y-82532544D01*
X98672455Y-82532547D01*
X98787664Y-82618793D01*
X98787671Y-82618797D01*
X98922517Y-82669091D01*
X98922516Y-82669091D01*
X98929444Y-82669835D01*
X98982127Y-82675500D01*
X100877872Y-82675499D01*
X100937483Y-82669091D01*
X101072331Y-82618796D01*
X101187546Y-82532546D01*
X101273796Y-82417331D01*
X101324091Y-82282483D01*
X101330500Y-82222873D01*
X101330499Y-78227135D01*
X107469500Y-78227135D01*
X107469500Y-82222870D01*
X107469501Y-82222876D01*
X107475908Y-82282483D01*
X107526202Y-82417328D01*
X107526206Y-82417335D01*
X107612452Y-82532544D01*
X107612455Y-82532547D01*
X107727664Y-82618793D01*
X107727671Y-82618797D01*
X107862517Y-82669091D01*
X107862516Y-82669091D01*
X107869444Y-82669835D01*
X107922127Y-82675500D01*
X109817872Y-82675499D01*
X109877483Y-82669091D01*
X110012331Y-82618796D01*
X110127546Y-82532546D01*
X110213796Y-82417331D01*
X110264091Y-82282483D01*
X110270500Y-82222873D01*
X110270499Y-78227128D01*
X110264091Y-78167517D01*
X110261549Y-78160702D01*
X110213797Y-78032671D01*
X110213793Y-78032664D01*
X110127547Y-77917455D01*
X110127544Y-77917452D01*
X110012335Y-77831206D01*
X110012328Y-77831202D01*
X109877482Y-77780908D01*
X109877483Y-77780908D01*
X109817883Y-77774501D01*
X109817881Y-77774500D01*
X109817873Y-77774500D01*
X109817864Y-77774500D01*
X107922129Y-77774500D01*
X107922123Y-77774501D01*
X107862516Y-77780908D01*
X107727671Y-77831202D01*
X107727664Y-77831206D01*
X107612455Y-77917452D01*
X107612452Y-77917455D01*
X107526206Y-78032664D01*
X107526202Y-78032671D01*
X107475908Y-78167517D01*
X107469501Y-78227116D01*
X107469501Y-78227123D01*
X107469500Y-78227135D01*
X101330499Y-78227135D01*
X101330499Y-78227128D01*
X101324091Y-78167517D01*
X101321549Y-78160702D01*
X101273797Y-78032671D01*
X101273793Y-78032664D01*
X101187547Y-77917455D01*
X101187544Y-77917452D01*
X101072335Y-77831206D01*
X101072328Y-77831202D01*
X100937482Y-77780908D01*
X100937483Y-77780908D01*
X100877883Y-77774501D01*
X100877881Y-77774500D01*
X100877873Y-77774500D01*
X100877865Y-77774500D01*
X100064451Y-77774500D01*
X99997412Y-77754815D01*
X99951657Y-77702011D01*
X99941713Y-77632853D01*
X99970738Y-77569297D01*
X99976770Y-77562819D01*
X107151430Y-70388159D01*
X107212753Y-70354674D01*
X107282445Y-70359658D01*
X107323659Y-70386145D01*
X107323667Y-70386136D01*
X107323761Y-70386211D01*
X107326792Y-70388159D01*
X107329109Y-70390476D01*
X107329115Y-70390481D01*
X107472302Y-70480452D01*
X107472305Y-70480454D01*
X107472309Y-70480455D01*
X107472310Y-70480456D01*
X107544913Y-70505860D01*
X107631943Y-70536314D01*
X107799997Y-70555249D01*
X107800000Y-70555249D01*
X107800003Y-70555249D01*
X107968056Y-70536314D01*
X107968059Y-70536313D01*
X108127690Y-70480456D01*
X108127692Y-70480454D01*
X108127694Y-70480454D01*
X108127697Y-70480452D01*
X108270884Y-70390481D01*
X108270885Y-70390480D01*
X108270890Y-70390477D01*
X108390477Y-70270890D01*
X108390477Y-70270889D01*
X108395401Y-70265966D01*
X108396599Y-70267164D01*
X108446628Y-70232048D01*
X108486389Y-70225500D01*
X109299124Y-70225500D01*
X109365095Y-70244505D01*
X109422310Y-70280456D01*
X109543621Y-70322904D01*
X109581943Y-70336314D01*
X109749997Y-70355249D01*
X109750000Y-70355249D01*
X109750003Y-70355249D01*
X109918056Y-70336314D01*
X109918059Y-70336313D01*
X110077690Y-70280456D01*
X110077692Y-70280454D01*
X110077694Y-70280454D01*
X110077697Y-70280452D01*
X110220884Y-70190481D01*
X110220885Y-70190480D01*
X110220890Y-70190477D01*
X110340477Y-70070890D01*
X110427230Y-69932824D01*
X110430452Y-69927697D01*
X110430454Y-69927694D01*
X110430454Y-69927692D01*
X110430456Y-69927690D01*
X110486313Y-69768059D01*
X110486313Y-69768058D01*
X110486314Y-69768056D01*
X110505249Y-69600002D01*
X110505249Y-69599997D01*
X110486314Y-69431943D01*
X110441443Y-69303710D01*
X110430456Y-69272310D01*
X110430455Y-69272309D01*
X110430454Y-69272305D01*
X110430452Y-69272302D01*
X110340481Y-69129115D01*
X110340476Y-69129109D01*
X110220890Y-69009523D01*
X110220884Y-69009518D01*
X110077697Y-68919547D01*
X110077694Y-68919545D01*
X109918056Y-68863685D01*
X109750003Y-68844751D01*
X109749997Y-68844751D01*
X109581943Y-68863685D01*
X109422307Y-68919545D01*
X109365096Y-68955494D01*
X109299124Y-68974500D01*
X108864452Y-68974500D01*
X108797413Y-68954815D01*
X108751658Y-68902011D01*
X108741714Y-68832853D01*
X108770739Y-68769297D01*
X108776771Y-68762819D01*
X109739593Y-67799997D01*
X111644751Y-67799997D01*
X111644751Y-67800002D01*
X111663686Y-67968057D01*
X111719543Y-68127690D01*
X111755493Y-68184902D01*
X111774500Y-68250875D01*
X111774500Y-79111623D01*
X111755494Y-79177595D01*
X111719545Y-79234807D01*
X111663685Y-79394443D01*
X111644751Y-79562497D01*
X111644751Y-79562499D01*
X111663685Y-79730556D01*
X111719545Y-79890194D01*
X111719547Y-79890197D01*
X111809518Y-80033384D01*
X111809523Y-80033390D01*
X111929109Y-80152976D01*
X111929115Y-80152981D01*
X112072302Y-80242952D01*
X112072305Y-80242954D01*
X112072309Y-80242955D01*
X112072310Y-80242956D01*
X112144913Y-80268360D01*
X112231943Y-80298814D01*
X112399997Y-80317749D01*
X112400000Y-80317749D01*
X112400003Y-80317749D01*
X112568056Y-80298814D01*
X112596097Y-80289002D01*
X112727690Y-80242956D01*
X112727692Y-80242954D01*
X112727694Y-80242954D01*
X112727697Y-80242952D01*
X112870884Y-80152981D01*
X112870885Y-80152980D01*
X112870890Y-80152977D01*
X112990477Y-80033390D01*
X112990481Y-80033384D01*
X113080452Y-79890197D01*
X113080454Y-79890194D01*
X113080454Y-79890192D01*
X113080456Y-79890190D01*
X113136313Y-79730559D01*
X113136313Y-79730558D01*
X113136314Y-79730556D01*
X113155249Y-79562499D01*
X113155249Y-79562497D01*
X113136314Y-79394443D01*
X113122904Y-79356121D01*
X113080456Y-79234810D01*
X113051819Y-79189234D01*
X113044506Y-79177595D01*
X113025500Y-79111623D01*
X113025500Y-69932819D01*
X113769858Y-69932819D01*
X113769858Y-69932824D01*
X113788793Y-70100879D01*
X113844650Y-70260512D01*
X113880600Y-70317724D01*
X113899607Y-70383697D01*
X113899607Y-98599891D01*
X113923642Y-98720724D01*
X113923647Y-98720741D01*
X113970792Y-98834560D01*
X113970797Y-98834569D01*
X114005021Y-98885787D01*
X114005022Y-98885789D01*
X114039248Y-98937013D01*
X114130693Y-99028458D01*
X114130715Y-99028478D01*
X115151582Y-100049345D01*
X115172258Y-100078486D01*
X115172423Y-100078383D01*
X115174265Y-100081315D01*
X115175624Y-100083230D01*
X115176133Y-100084288D01*
X115266103Y-100227473D01*
X115266108Y-100227479D01*
X115385694Y-100347065D01*
X115385700Y-100347070D01*
X115528887Y-100437041D01*
X115528890Y-100437043D01*
X115528894Y-100437044D01*
X115528895Y-100437045D01*
X115601498Y-100462449D01*
X115688528Y-100492903D01*
X115856582Y-100511838D01*
X115856585Y-100511838D01*
X115856588Y-100511838D01*
X116024641Y-100492903D01*
X116024644Y-100492902D01*
X116184275Y-100437045D01*
X116184277Y-100437043D01*
X116184279Y-100437043D01*
X116184282Y-100437041D01*
X116327469Y-100347070D01*
X116327470Y-100347069D01*
X116327475Y-100347066D01*
X116447062Y-100227479D01*
X116447066Y-100227473D01*
X116537037Y-100084286D01*
X116537039Y-100084283D01*
X116537039Y-100084281D01*
X116537041Y-100084279D01*
X116592898Y-99924648D01*
X116592898Y-99924647D01*
X116592899Y-99924645D01*
X116611834Y-99756591D01*
X116611834Y-99756586D01*
X116592899Y-99588532D01*
X116574279Y-99535319D01*
X116537041Y-99428899D01*
X116537039Y-99428896D01*
X116537039Y-99428895D01*
X116509720Y-99385418D01*
X116490719Y-99318182D01*
X116497672Y-99278490D01*
X116536313Y-99168061D01*
X116536313Y-99168059D01*
X116555249Y-99000002D01*
X116555249Y-98999997D01*
X116536314Y-98831943D01*
X116522904Y-98793621D01*
X116480456Y-98672310D01*
X116474295Y-98662505D01*
X116444506Y-98615095D01*
X116425500Y-98549123D01*
X116425500Y-96852671D01*
X116445185Y-96785632D01*
X116461814Y-96764995D01*
X117948328Y-95278480D01*
X118009649Y-95244997D01*
X118079341Y-95249981D01*
X118135274Y-95291853D01*
X118137570Y-95295023D01*
X118250902Y-95456877D01*
X118405623Y-95611598D01*
X118584861Y-95737102D01*
X118783170Y-95829575D01*
X118994523Y-95886207D01*
X119147570Y-95899595D01*
X119212637Y-95925047D01*
X119224443Y-95935442D01*
X120543181Y-97254180D01*
X120576666Y-97315503D01*
X120579500Y-97341861D01*
X120579500Y-101767870D01*
X120579501Y-101767876D01*
X120585908Y-101827483D01*
X120636202Y-101962328D01*
X120636206Y-101962335D01*
X120722452Y-102077544D01*
X120722455Y-102077547D01*
X120837664Y-102163793D01*
X120837671Y-102163797D01*
X120972517Y-102214091D01*
X120972516Y-102214091D01*
X120979444Y-102214835D01*
X121032127Y-102220500D01*
X121927872Y-102220499D01*
X121975759Y-102215351D01*
X121995197Y-102213262D01*
X121995311Y-102214330D01*
X122034688Y-102214329D01*
X122034803Y-102213261D01*
X122042514Y-102214089D01*
X122042517Y-102214091D01*
X122102127Y-102220500D01*
X122897872Y-102220499D01*
X122957483Y-102214091D01*
X122957485Y-102214090D01*
X122957487Y-102214090D01*
X122965031Y-102212308D01*
X122965377Y-102213775D01*
X123026342Y-102209408D01*
X123041378Y-102213822D01*
X123042513Y-102214089D01*
X123042517Y-102214091D01*
X123102127Y-102220500D01*
X123897872Y-102220499D01*
X123945759Y-102215351D01*
X123965197Y-102213262D01*
X123965311Y-102214330D01*
X124004688Y-102214329D01*
X124004803Y-102213261D01*
X124012514Y-102214089D01*
X124012517Y-102214091D01*
X124072127Y-102220500D01*
X124967872Y-102220499D01*
X125027483Y-102214091D01*
X125162331Y-102163796D01*
X125277546Y-102077546D01*
X125363796Y-101962331D01*
X125414091Y-101827483D01*
X125420500Y-101767873D01*
X125420500Y-101198013D01*
X125420500Y-100763389D01*
X126219500Y-100763389D01*
X126219500Y-101436611D01*
X126246598Y-101607701D01*
X126298642Y-101767876D01*
X126300128Y-101772447D01*
X126328170Y-101827483D01*
X126378768Y-101926788D01*
X126480586Y-102066928D01*
X126603072Y-102189414D01*
X126743212Y-102291232D01*
X126897555Y-102369873D01*
X127062299Y-102423402D01*
X127233389Y-102450500D01*
X127233390Y-102450500D01*
X127406610Y-102450500D01*
X127406611Y-102450500D01*
X127577701Y-102423402D01*
X127742445Y-102369873D01*
X127896788Y-102291232D01*
X128036928Y-102189414D01*
X128159414Y-102066928D01*
X128261232Y-101926788D01*
X128339873Y-101772445D01*
X128393402Y-101607701D01*
X128420500Y-101436611D01*
X128420500Y-100763389D01*
X128393402Y-100592299D01*
X128339873Y-100427555D01*
X128261232Y-100273212D01*
X128159414Y-100133072D01*
X128036928Y-100010586D01*
X127896788Y-99908768D01*
X127742445Y-99830127D01*
X127577701Y-99776598D01*
X127577699Y-99776597D01*
X127577698Y-99776597D01*
X127446271Y-99755781D01*
X127406611Y-99749500D01*
X127233389Y-99749500D01*
X127193728Y-99755781D01*
X127062302Y-99776597D01*
X126897552Y-99830128D01*
X126743211Y-99908768D01*
X126690575Y-99947011D01*
X126603072Y-100010586D01*
X126603070Y-100010588D01*
X126603069Y-100010588D01*
X126480588Y-100133069D01*
X126480588Y-100133070D01*
X126480586Y-100133072D01*
X126436859Y-100193256D01*
X126378768Y-100273211D01*
X126300128Y-100427552D01*
X126300127Y-100427554D01*
X126300127Y-100427555D01*
X126278894Y-100492902D01*
X126246597Y-100592302D01*
X126219500Y-100763389D01*
X125420500Y-100763389D01*
X125420500Y-100311309D01*
X125420500Y-99868809D01*
X125420500Y-99868808D01*
X125420500Y-99791309D01*
X125420500Y-99791306D01*
X125420499Y-99791304D01*
X125385896Y-99617341D01*
X125385893Y-99617332D01*
X125318016Y-99453459D01*
X125318009Y-99453446D01*
X125219464Y-99305965D01*
X125219461Y-99305961D01*
X125094038Y-99180538D01*
X125094034Y-99180535D01*
X124946546Y-99081986D01*
X124920575Y-99071229D01*
X124880348Y-99044349D01*
X120835999Y-95000000D01*
X140594564Y-95000000D01*
X140614289Y-95326099D01*
X140673178Y-95647452D01*
X140770366Y-95959342D01*
X140770370Y-95959354D01*
X140770373Y-95959361D01*
X140904455Y-96257279D01*
X141039466Y-96480614D01*
X141073473Y-96536868D01*
X141274954Y-96794039D01*
X141505960Y-97025045D01*
X141763131Y-97226526D01*
X141763134Y-97226528D01*
X141763137Y-97226530D01*
X142042721Y-97395545D01*
X142340639Y-97529627D01*
X142340652Y-97529631D01*
X142340657Y-97529633D01*
X142652547Y-97626821D01*
X142973896Y-97685710D01*
X143300000Y-97705436D01*
X143626104Y-97685710D01*
X143947453Y-97626821D01*
X144259361Y-97529627D01*
X144557279Y-97395545D01*
X144836863Y-97226530D01*
X145094036Y-97025048D01*
X145325048Y-96794036D01*
X145526530Y-96536863D01*
X145695545Y-96257279D01*
X145829627Y-95959361D01*
X145926821Y-95647453D01*
X145985710Y-95326104D01*
X146005436Y-95000000D01*
X145985710Y-94673896D01*
X145926821Y-94352547D01*
X145898527Y-94261747D01*
X145829633Y-94040657D01*
X145829631Y-94040652D01*
X145829627Y-94040639D01*
X145695545Y-93742721D01*
X145526530Y-93463137D01*
X145526528Y-93463134D01*
X145526526Y-93463131D01*
X145325045Y-93205960D01*
X145094039Y-92974954D01*
X144836868Y-92773473D01*
X144820991Y-92763875D01*
X144557279Y-92604455D01*
X144259361Y-92470373D01*
X144259354Y-92470370D01*
X144259342Y-92470366D01*
X143947452Y-92373178D01*
X143626099Y-92314289D01*
X143300000Y-92294564D01*
X142973900Y-92314289D01*
X142652547Y-92373178D01*
X142340657Y-92470366D01*
X142340641Y-92470372D01*
X142340639Y-92470373D01*
X142150933Y-92555752D01*
X142042725Y-92604453D01*
X142042723Y-92604454D01*
X141763131Y-92773473D01*
X141505960Y-92974954D01*
X141274954Y-93205960D01*
X141073473Y-93463131D01*
X140946708Y-93672825D01*
X140904455Y-93742721D01*
X140778600Y-94022361D01*
X140770372Y-94040642D01*
X140770366Y-94040657D01*
X140673178Y-94352547D01*
X140614289Y-94673900D01*
X140594564Y-95000000D01*
X120835999Y-95000000D01*
X120497942Y-94661943D01*
X120464457Y-94600620D01*
X120462096Y-94585078D01*
X120448707Y-94432023D01*
X120392075Y-94220670D01*
X120299602Y-94022362D01*
X120299600Y-94022359D01*
X120299599Y-94022357D01*
X120174099Y-93843124D01*
X120174098Y-93843123D01*
X120019377Y-93688402D01*
X119857538Y-93575081D01*
X119813914Y-93520504D01*
X119806722Y-93451006D01*
X119838244Y-93388651D01*
X119840908Y-93385900D01*
X120032728Y-93194080D01*
X120094051Y-93160598D01*
X120120408Y-93157764D01*
X122566844Y-93157764D01*
X122566844Y-93157763D01*
X122662842Y-93138669D01*
X122662843Y-93138669D01*
X122687678Y-93133729D01*
X122687678Y-93133728D01*
X122687688Y-93133727D01*
X122721028Y-93119916D01*
X122801522Y-93086576D01*
X122852745Y-93052348D01*
X122903969Y-93018122D01*
X122991094Y-92930997D01*
X122991094Y-92930995D01*
X123001302Y-92920788D01*
X123001304Y-92920785D01*
X124880116Y-91041972D01*
X124926841Y-91012613D01*
X124930554Y-91011313D01*
X124930559Y-91011313D01*
X125090190Y-90955456D01*
X125179241Y-90899500D01*
X125246478Y-90880500D01*
X125313313Y-90900867D01*
X125332895Y-90916813D01*
X125825681Y-91409599D01*
X125859166Y-91470922D01*
X125862000Y-91497280D01*
X125862000Y-92696836D01*
X125842315Y-92763875D01*
X125833855Y-92775499D01*
X125818364Y-92794375D01*
X125818360Y-92794381D01*
X125730104Y-92959497D01*
X125675753Y-93138666D01*
X125675752Y-93138668D01*
X125657401Y-93325000D01*
X125675752Y-93511331D01*
X125675753Y-93511333D01*
X125730104Y-93690502D01*
X125818362Y-93855623D01*
X125818364Y-93855626D01*
X125937142Y-94000357D01*
X126081873Y-94119135D01*
X126081876Y-94119137D01*
X126193194Y-94178637D01*
X126246999Y-94207396D01*
X126426166Y-94261746D01*
X126426168Y-94261747D01*
X126442874Y-94263392D01*
X126612500Y-94280099D01*
X126798831Y-94261747D01*
X126978001Y-94207396D01*
X127143125Y-94119136D01*
X127287857Y-94000357D01*
X127406636Y-93855625D01*
X127494896Y-93690501D01*
X127549247Y-93511331D01*
X127567599Y-93325000D01*
X127549247Y-93138669D01*
X127494896Y-92959499D01*
X127406636Y-92794375D01*
X127391145Y-92775499D01*
X127363833Y-92711188D01*
X127363000Y-92696836D01*
X127363000Y-91061129D01*
X127334159Y-90916142D01*
X127334158Y-90916141D01*
X127334158Y-90916137D01*
X127320970Y-90884298D01*
X127277585Y-90779557D01*
X127221355Y-90695402D01*
X127221353Y-90695399D01*
X127195454Y-90656636D01*
X127195452Y-90656634D01*
X124938816Y-88399997D01*
X128519751Y-88399997D01*
X128519751Y-88400002D01*
X128538685Y-88568056D01*
X128594545Y-88727694D01*
X128594547Y-88727697D01*
X128684518Y-88870884D01*
X128684523Y-88870890D01*
X128804109Y-88990476D01*
X128804115Y-88990481D01*
X128947302Y-89080452D01*
X128947305Y-89080454D01*
X128947309Y-89080455D01*
X128947310Y-89080456D01*
X129019913Y-89105860D01*
X129106943Y-89136314D01*
X129274997Y-89155249D01*
X129275000Y-89155249D01*
X129275003Y-89155249D01*
X129443056Y-89136314D01*
X129443059Y-89136313D01*
X129602690Y-89080456D01*
X129659904Y-89044505D01*
X129725876Y-89025500D01*
X132661608Y-89025500D01*
X132661608Y-89025499D01*
X132733464Y-89011207D01*
X132733465Y-89011207D01*
X132758296Y-89006267D01*
X132782452Y-89001463D01*
X132829384Y-88982023D01*
X132896286Y-88954312D01*
X132947509Y-88920084D01*
X132998733Y-88885858D01*
X133085858Y-88798733D01*
X133085859Y-88798731D01*
X133092925Y-88791665D01*
X133092928Y-88791661D01*
X135301866Y-86582722D01*
X135363187Y-86549239D01*
X135432879Y-86554223D01*
X135488812Y-86596095D01*
X135494538Y-86604432D01*
X135540434Y-86677475D01*
X135660022Y-86797063D01*
X135660028Y-86797068D01*
X135803215Y-86887039D01*
X135803218Y-86887041D01*
X135803222Y-86887042D01*
X135803223Y-86887043D01*
X135867853Y-86909658D01*
X135962856Y-86942901D01*
X136130910Y-86961836D01*
X136130913Y-86961836D01*
X136130916Y-86961836D01*
X136298969Y-86942901D01*
X136322769Y-86934573D01*
X136458603Y-86887043D01*
X136555604Y-86826092D01*
X136621576Y-86807087D01*
X137287244Y-86807087D01*
X137287260Y-86807088D01*
X137294856Y-86807088D01*
X137452967Y-86807088D01*
X137452970Y-86807088D01*
X137605698Y-86766164D01*
X137676746Y-86725144D01*
X137742629Y-86687107D01*
X137854433Y-86575303D01*
X137854433Y-86575301D01*
X137864637Y-86565098D01*
X137864640Y-86565093D01*
X145500916Y-78928819D01*
X145562239Y-78895334D01*
X145588597Y-78892500D01*
X146004199Y-78892500D01*
X146071238Y-78912185D01*
X146113253Y-78957481D01*
X146115075Y-78960848D01*
X146242016Y-79155147D01*
X146242019Y-79155151D01*
X146242021Y-79155153D01*
X146399216Y-79325913D01*
X146399219Y-79325915D01*
X146399222Y-79325918D01*
X146551122Y-79444147D01*
X146591935Y-79500857D01*
X146595610Y-79570630D01*
X146560978Y-79631313D01*
X146551122Y-79639853D01*
X146399222Y-79758081D01*
X146399219Y-79758084D01*
X146399216Y-79758086D01*
X146399216Y-79758087D01*
X146353264Y-79808004D01*
X146242016Y-79928852D01*
X146115075Y-80123151D01*
X146021842Y-80335699D01*
X145964866Y-80560691D01*
X145964864Y-80560702D01*
X145945700Y-80791993D01*
X145945700Y-80792006D01*
X145964864Y-81023297D01*
X145964866Y-81023308D01*
X146021842Y-81248300D01*
X146115075Y-81460848D01*
X146242016Y-81655147D01*
X146242019Y-81655151D01*
X146242021Y-81655153D01*
X146399216Y-81825913D01*
X146399219Y-81825915D01*
X146399222Y-81825918D01*
X146582365Y-81968464D01*
X146582371Y-81968468D01*
X146582374Y-81968470D01*
X146666820Y-82014170D01*
X146767157Y-82068470D01*
X146786497Y-82078936D01*
X146900487Y-82118068D01*
X147006015Y-82154297D01*
X147006017Y-82154297D01*
X147006019Y-82154298D01*
X147234951Y-82192500D01*
X147234952Y-82192500D01*
X147467048Y-82192500D01*
X147467049Y-82192500D01*
X147695981Y-82154298D01*
X147915503Y-82078936D01*
X148119626Y-81968470D01*
X148152993Y-81942500D01*
X148189391Y-81914170D01*
X148302784Y-81825913D01*
X148459979Y-81655153D01*
X148586924Y-81460849D01*
X148680157Y-81248300D01*
X148737134Y-81023305D01*
X148747581Y-80897222D01*
X148772733Y-80832041D01*
X148829135Y-80790802D01*
X148898879Y-80786603D01*
X148958838Y-80819784D01*
X152894181Y-84755127D01*
X152927666Y-84816450D01*
X152930500Y-84842808D01*
X152930500Y-88207714D01*
X152910815Y-88274753D01*
X152865519Y-88316768D01*
X152812376Y-88345528D01*
X152812365Y-88345535D01*
X152629222Y-88488081D01*
X152629219Y-88488084D01*
X152472016Y-88658852D01*
X152345075Y-88853151D01*
X152251842Y-89065699D01*
X152194866Y-89290691D01*
X152194864Y-89290702D01*
X152175700Y-89521993D01*
X152175700Y-89522006D01*
X152194864Y-89753297D01*
X152194866Y-89753308D01*
X152251842Y-89978300D01*
X152345075Y-90190848D01*
X152472016Y-90385147D01*
X152472019Y-90385151D01*
X152472021Y-90385153D01*
X152629216Y-90555913D01*
X152629219Y-90555915D01*
X152629222Y-90555918D01*
X152812365Y-90698464D01*
X152812371Y-90698468D01*
X152812374Y-90698470D01*
X152979860Y-90789109D01*
X152997157Y-90798470D01*
X153016497Y-90808936D01*
X153111038Y-90841392D01*
X153236015Y-90884297D01*
X153236017Y-90884297D01*
X153236019Y-90884298D01*
X153464951Y-90922500D01*
X153464952Y-90922500D01*
X153697048Y-90922500D01*
X153697049Y-90922500D01*
X153925981Y-90884298D01*
X154145503Y-90808936D01*
X154349626Y-90698470D01*
X154532784Y-90555913D01*
X154689979Y-90385153D01*
X154726691Y-90328960D01*
X154779837Y-90283604D01*
X154849068Y-90274180D01*
X154912404Y-90303682D01*
X154934309Y-90328961D01*
X154971016Y-90385147D01*
X154971019Y-90385151D01*
X154971021Y-90385153D01*
X155128216Y-90555913D01*
X155128219Y-90555915D01*
X155128222Y-90555918D01*
X155311365Y-90698464D01*
X155311371Y-90698468D01*
X155311374Y-90698470D01*
X155478860Y-90789109D01*
X155496157Y-90798470D01*
X155515497Y-90808936D01*
X155610038Y-90841392D01*
X155735015Y-90884297D01*
X155735017Y-90884297D01*
X155735019Y-90884298D01*
X155963951Y-90922500D01*
X155963952Y-90922500D01*
X156196048Y-90922500D01*
X156196049Y-90922500D01*
X156424981Y-90884298D01*
X156644503Y-90808936D01*
X156848626Y-90698470D01*
X157031784Y-90555913D01*
X157188979Y-90385153D01*
X157315924Y-90190849D01*
X157409157Y-89978300D01*
X157466134Y-89753305D01*
X157466135Y-89753297D01*
X157485300Y-89522006D01*
X157485300Y-89521993D01*
X157466135Y-89290702D01*
X157466133Y-89290691D01*
X157409157Y-89065699D01*
X157315924Y-88853151D01*
X157188983Y-88658852D01*
X157188980Y-88658849D01*
X157188979Y-88658847D01*
X157031784Y-88488087D01*
X157031779Y-88488083D01*
X157031777Y-88488081D01*
X156848634Y-88345535D01*
X156848628Y-88345531D01*
X156644504Y-88235064D01*
X156644495Y-88235061D01*
X156424984Y-88159702D01*
X156253282Y-88131050D01*
X156196049Y-88121500D01*
X155963951Y-88121500D01*
X155918164Y-88129140D01*
X155735015Y-88159702D01*
X155515504Y-88235061D01*
X155515495Y-88235064D01*
X155311371Y-88345531D01*
X155311365Y-88345535D01*
X155128222Y-88488081D01*
X155128219Y-88488084D01*
X154971018Y-88658850D01*
X154934309Y-88715039D01*
X154881162Y-88760395D01*
X154811931Y-88769819D01*
X154748595Y-88740317D01*
X154726691Y-88715039D01*
X154689981Y-88658850D01*
X154689980Y-88658849D01*
X154689979Y-88658847D01*
X154532784Y-88488087D01*
X154532779Y-88488083D01*
X154532777Y-88488081D01*
X154349634Y-88345535D01*
X154349623Y-88345528D01*
X154296481Y-88316768D01*
X154246891Y-88267548D01*
X154231500Y-88207714D01*
X154231500Y-84457928D01*
X154206502Y-84332261D01*
X154206501Y-84332260D01*
X154206501Y-84332256D01*
X154157465Y-84213873D01*
X154096945Y-84123298D01*
X154096945Y-84123297D01*
X154086277Y-84107331D01*
X152074774Y-82095828D01*
X152041289Y-82034505D01*
X152046273Y-81964813D01*
X152088145Y-81908880D01*
X152124138Y-81890216D01*
X152222633Y-81858213D01*
X152222639Y-81858211D01*
X152383994Y-81775996D01*
X152530501Y-81669553D01*
X152658553Y-81541501D01*
X152764996Y-81394994D01*
X152847211Y-81233639D01*
X152903171Y-81061409D01*
X152917765Y-80969259D01*
X152931500Y-80882551D01*
X152931500Y-80701448D01*
X159230500Y-80701448D01*
X159230500Y-80882551D01*
X159258829Y-81061410D01*
X159314787Y-81233636D01*
X159314788Y-81233639D01*
X159397006Y-81394997D01*
X159503441Y-81541494D01*
X159503445Y-81541499D01*
X159631500Y-81669554D01*
X159631505Y-81669558D01*
X159749310Y-81755147D01*
X159778006Y-81775996D01*
X159875973Y-81825913D01*
X159939360Y-81858211D01*
X159939363Y-81858212D01*
X160025476Y-81886191D01*
X160111591Y-81914171D01*
X160185740Y-81925915D01*
X160290449Y-81942500D01*
X160290454Y-81942500D01*
X160471551Y-81942500D01*
X160558259Y-81928765D01*
X160650409Y-81914171D01*
X160822639Y-81858211D01*
X160983994Y-81775996D01*
X161130501Y-81669553D01*
X161258553Y-81541501D01*
X161364996Y-81394994D01*
X161447211Y-81233639D01*
X161503171Y-81061409D01*
X161517765Y-80969259D01*
X161531500Y-80882551D01*
X161531500Y-80701448D01*
X161504936Y-80533736D01*
X161503171Y-80522591D01*
X161447211Y-80350361D01*
X161447211Y-80350360D01*
X161392483Y-80242952D01*
X161364996Y-80189006D01*
X161343868Y-80159925D01*
X161258558Y-80042505D01*
X161258554Y-80042500D01*
X161130499Y-79914445D01*
X161130494Y-79914441D01*
X160983997Y-79808006D01*
X160983996Y-79808005D01*
X160983994Y-79808004D01*
X160909072Y-79769829D01*
X160822639Y-79725788D01*
X160822636Y-79725787D01*
X160650410Y-79669829D01*
X160471551Y-79641500D01*
X160471546Y-79641500D01*
X160290454Y-79641500D01*
X160290449Y-79641500D01*
X160111589Y-79669829D01*
X159939363Y-79725787D01*
X159939360Y-79725788D01*
X159778002Y-79808006D01*
X159631505Y-79914441D01*
X159631500Y-79914445D01*
X159503445Y-80042500D01*
X159503441Y-80042505D01*
X159397006Y-80189002D01*
X159314788Y-80350360D01*
X159314787Y-80350363D01*
X159258829Y-80522589D01*
X159230500Y-80701448D01*
X152931500Y-80701448D01*
X152904936Y-80533736D01*
X152903171Y-80522591D01*
X152847211Y-80350361D01*
X152847211Y-80350360D01*
X152792483Y-80242952D01*
X152764996Y-80189006D01*
X152743868Y-80159925D01*
X152658558Y-80042505D01*
X152658554Y-80042500D01*
X152530499Y-79914445D01*
X152530494Y-79914441D01*
X152383997Y-79808006D01*
X152383996Y-79808005D01*
X152383994Y-79808004D01*
X152309072Y-79769829D01*
X152222639Y-79725788D01*
X152222636Y-79725787D01*
X152050410Y-79669829D01*
X151871551Y-79641500D01*
X151871546Y-79641500D01*
X151690454Y-79641500D01*
X151690449Y-79641500D01*
X151511589Y-79669829D01*
X151339363Y-79725787D01*
X151339360Y-79725788D01*
X151178002Y-79808006D01*
X151031505Y-79914441D01*
X151031500Y-79914445D01*
X150903445Y-80042500D01*
X150903441Y-80042505D01*
X150797006Y-80189002D01*
X150714789Y-80350360D01*
X150682783Y-80448863D01*
X150643345Y-80506538D01*
X150578986Y-80533736D01*
X150510140Y-80521821D01*
X150477171Y-80498225D01*
X148739493Y-78760547D01*
X148706008Y-78699224D01*
X148706969Y-78642425D01*
X148737131Y-78523317D01*
X148737131Y-78523316D01*
X148737134Y-78523305D01*
X148737135Y-78523297D01*
X148756300Y-78292006D01*
X148756300Y-78291993D01*
X148737135Y-78060702D01*
X148737133Y-78060691D01*
X148680157Y-77835699D01*
X148586924Y-77623151D01*
X148459983Y-77428852D01*
X148459980Y-77428849D01*
X148459979Y-77428847D01*
X148302784Y-77258087D01*
X148302779Y-77258083D01*
X148302777Y-77258081D01*
X148119634Y-77115535D01*
X148119628Y-77115531D01*
X147915504Y-77005064D01*
X147915495Y-77005061D01*
X147695984Y-76929702D01*
X147487298Y-76894879D01*
X147467049Y-76891500D01*
X147234951Y-76891500D01*
X147214702Y-76894879D01*
X147006015Y-76929702D01*
X146786504Y-77005061D01*
X146786495Y-77005064D01*
X146582371Y-77115531D01*
X146582365Y-77115535D01*
X146399222Y-77258081D01*
X146399219Y-77258084D01*
X146242016Y-77428852D01*
X146115075Y-77623151D01*
X146113253Y-77626519D01*
X146064033Y-77676109D01*
X146004199Y-77691500D01*
X145367557Y-77691500D01*
X145209442Y-77691500D01*
X145056715Y-77732423D01*
X145056714Y-77732423D01*
X145056712Y-77732424D01*
X145056709Y-77732425D01*
X145006596Y-77761359D01*
X145006595Y-77761360D01*
X144983836Y-77774500D01*
X144919785Y-77811479D01*
X144919782Y-77811481D01*
X144813812Y-77917452D01*
X144807980Y-77923284D01*
X144807978Y-77923286D01*
X140976112Y-81755153D01*
X137161497Y-85569768D01*
X137100174Y-85603253D01*
X137073816Y-85606087D01*
X136621576Y-85606087D01*
X136555603Y-85587080D01*
X136528760Y-85570213D01*
X136482469Y-85517878D01*
X136471822Y-85448824D01*
X136500198Y-85384976D01*
X136507041Y-85377549D01*
X136530617Y-85353974D01*
X136583720Y-85274500D01*
X136599071Y-85251526D01*
X136646222Y-85137692D01*
X136670259Y-85016848D01*
X136670259Y-84893634D01*
X136670259Y-84406114D01*
X136689266Y-84340141D01*
X136725215Y-84282929D01*
X136744788Y-84226991D01*
X136781072Y-84123298D01*
X136800008Y-83955239D01*
X136794803Y-83909042D01*
X136781073Y-83787182D01*
X136725213Y-83627544D01*
X136725211Y-83627541D01*
X136635240Y-83484354D01*
X136635235Y-83484348D01*
X136515649Y-83364762D01*
X136515643Y-83364757D01*
X136372456Y-83274786D01*
X136372453Y-83274784D01*
X136212815Y-83218924D01*
X136044762Y-83199990D01*
X136044756Y-83199990D01*
X135876702Y-83218924D01*
X135717064Y-83274784D01*
X135717061Y-83274786D01*
X135573874Y-83364757D01*
X135573868Y-83364762D01*
X135454282Y-83484348D01*
X135454277Y-83484354D01*
X135364306Y-83627541D01*
X135364304Y-83627544D01*
X135308444Y-83787182D01*
X135289510Y-83955236D01*
X135289510Y-83955241D01*
X135308445Y-84123296D01*
X135364302Y-84282929D01*
X135400252Y-84340141D01*
X135419259Y-84406114D01*
X135419259Y-84644789D01*
X135399574Y-84711828D01*
X135382940Y-84732470D01*
X132377229Y-87738181D01*
X132315906Y-87771666D01*
X132289548Y-87774500D01*
X129725876Y-87774500D01*
X129659904Y-87755494D01*
X129602692Y-87719545D01*
X129602691Y-87719544D01*
X129602690Y-87719544D01*
X129564370Y-87706135D01*
X129443056Y-87663685D01*
X129275003Y-87644751D01*
X129274997Y-87644751D01*
X129106943Y-87663685D01*
X128947305Y-87719545D01*
X128947302Y-87719547D01*
X128804115Y-87809518D01*
X128804109Y-87809523D01*
X128684523Y-87929109D01*
X128684518Y-87929115D01*
X128594547Y-88072302D01*
X128594545Y-88072305D01*
X128538685Y-88231943D01*
X128519751Y-88399997D01*
X124938816Y-88399997D01*
X123600871Y-87062052D01*
X123600864Y-87062046D01*
X123527179Y-87012812D01*
X123527179Y-87012813D01*
X123477941Y-86979913D01*
X123341367Y-86923343D01*
X123341357Y-86923340D01*
X123196370Y-86894500D01*
X123196368Y-86894500D01*
X122262685Y-86894500D01*
X122195646Y-86874815D01*
X122184026Y-86866358D01*
X122165147Y-86850864D01*
X122165146Y-86850863D01*
X122165143Y-86850861D01*
X122165141Y-86850860D01*
X122000024Y-86762604D01*
X121820855Y-86708253D01*
X121820853Y-86708252D01*
X121634522Y-86689901D01*
X121448190Y-86708252D01*
X121448188Y-86708253D01*
X121269019Y-86762604D01*
X121103898Y-86850862D01*
X121103895Y-86850864D01*
X120959164Y-86969642D01*
X120840386Y-87114373D01*
X120840384Y-87114376D01*
X120752126Y-87279497D01*
X120697775Y-87458666D01*
X120697774Y-87458668D01*
X120679423Y-87645000D01*
X120697774Y-87831331D01*
X120697775Y-87831333D01*
X120752126Y-88010502D01*
X120840384Y-88175623D01*
X120840386Y-88175626D01*
X120959164Y-88320357D01*
X121103895Y-88439135D01*
X121103898Y-88439137D01*
X121269019Y-88527395D01*
X121269021Y-88527396D01*
X121421341Y-88573602D01*
X121448188Y-88581746D01*
X121448190Y-88581747D01*
X121464896Y-88583392D01*
X121634522Y-88600099D01*
X121820853Y-88581747D01*
X122000023Y-88527396D01*
X122165147Y-88439136D01*
X122184019Y-88423647D01*
X122248328Y-88396334D01*
X122262685Y-88395500D01*
X122760220Y-88395500D01*
X122827259Y-88415185D01*
X122847901Y-88431819D01*
X124120686Y-89704604D01*
X124154171Y-89765927D01*
X124149187Y-89835619D01*
X124137999Y-89858257D01*
X124082044Y-89947308D01*
X124024888Y-90110654D01*
X123995527Y-90157381D01*
X122282465Y-91870445D01*
X122221142Y-91903930D01*
X122194784Y-91906764D01*
X119748345Y-91906764D01*
X119687927Y-91918782D01*
X119644699Y-91927380D01*
X119627502Y-91930801D01*
X119513672Y-91977951D01*
X119513663Y-91977956D01*
X119411224Y-92046404D01*
X119367661Y-92089967D01*
X119324098Y-92133531D01*
X119324095Y-92133534D01*
X115401270Y-96056359D01*
X115401267Y-96056362D01*
X115374788Y-96082841D01*
X115313464Y-96116325D01*
X115243772Y-96111339D01*
X115187839Y-96069467D01*
X115163424Y-96004002D01*
X115163108Y-95995158D01*
X115163108Y-95938390D01*
X115152990Y-95887527D01*
X115150607Y-95863335D01*
X115150607Y-84499516D01*
X129283608Y-84499516D01*
X129283608Y-84499521D01*
X129302542Y-84667575D01*
X129358402Y-84827213D01*
X129358404Y-84827216D01*
X129448375Y-84970403D01*
X129448380Y-84970409D01*
X129567966Y-85089995D01*
X129567972Y-85090000D01*
X129711159Y-85179971D01*
X129711162Y-85179973D01*
X129711166Y-85179974D01*
X129711167Y-85179975D01*
X129783770Y-85205379D01*
X129870800Y-85235833D01*
X130038854Y-85254768D01*
X130038857Y-85254768D01*
X130038860Y-85254768D01*
X130206913Y-85235833D01*
X130206916Y-85235832D01*
X130366547Y-85179975D01*
X130366549Y-85179973D01*
X130366551Y-85179973D01*
X130366554Y-85179971D01*
X130509741Y-85090000D01*
X130509742Y-85089999D01*
X130509747Y-85089996D01*
X130629334Y-84970409D01*
X130629338Y-84970403D01*
X130719309Y-84827216D01*
X130719312Y-84827211D01*
X130719313Y-84827209D01*
X130775170Y-84667578D01*
X130775170Y-84667573D01*
X130776470Y-84663860D01*
X130805829Y-84617135D01*
X132585857Y-82837110D01*
X132654311Y-82734662D01*
X132658106Y-82725500D01*
X132701463Y-82620828D01*
X132725500Y-82499982D01*
X132725500Y-74750875D01*
X132744507Y-74684902D01*
X132780456Y-74627690D01*
X132816213Y-74525501D01*
X132836313Y-74468059D01*
X132850742Y-74340004D01*
X132855249Y-74300002D01*
X132855249Y-74299997D01*
X132836314Y-74131943D01*
X132780454Y-73972305D01*
X132780452Y-73972302D01*
X132690481Y-73829115D01*
X132690476Y-73829109D01*
X132570890Y-73709523D01*
X132570884Y-73709518D01*
X132427697Y-73619547D01*
X132427694Y-73619545D01*
X132268056Y-73563685D01*
X132100003Y-73544751D01*
X132099997Y-73544751D01*
X131931943Y-73563685D01*
X131772305Y-73619545D01*
X131772302Y-73619547D01*
X131629115Y-73709518D01*
X131629109Y-73709523D01*
X131509523Y-73829109D01*
X131509518Y-73829115D01*
X131419547Y-73972302D01*
X131419545Y-73972305D01*
X131363685Y-74131943D01*
X131344751Y-74299997D01*
X131344751Y-74300002D01*
X131363686Y-74468057D01*
X131419543Y-74627690D01*
X131455493Y-74684902D01*
X131474500Y-74750875D01*
X131474500Y-82127923D01*
X131454815Y-82194962D01*
X131438181Y-82215604D01*
X129921238Y-83732546D01*
X129874511Y-83761907D01*
X129870798Y-83763205D01*
X129870798Y-83763206D01*
X129834390Y-83775945D01*
X129711165Y-83819063D01*
X129711159Y-83819066D01*
X129567972Y-83909037D01*
X129567966Y-83909042D01*
X129448380Y-84028628D01*
X129448375Y-84028634D01*
X129358404Y-84171821D01*
X129358402Y-84171824D01*
X129302542Y-84331462D01*
X129283608Y-84499516D01*
X115150607Y-84499516D01*
X115150607Y-82099997D01*
X128044751Y-82099997D01*
X128044751Y-82100002D01*
X128063685Y-82268056D01*
X128119545Y-82427694D01*
X128119547Y-82427697D01*
X128209518Y-82570884D01*
X128209523Y-82570890D01*
X128329109Y-82690476D01*
X128329115Y-82690481D01*
X128472302Y-82780452D01*
X128472305Y-82780454D01*
X128472309Y-82780455D01*
X128472310Y-82780456D01*
X128544913Y-82805860D01*
X128631943Y-82836314D01*
X128799997Y-82855249D01*
X128800000Y-82855249D01*
X128800003Y-82855249D01*
X128968056Y-82836314D01*
X128968073Y-82836308D01*
X129127690Y-82780456D01*
X129127692Y-82780454D01*
X129127694Y-82780454D01*
X129127697Y-82780452D01*
X129270884Y-82690481D01*
X129270885Y-82690480D01*
X129270890Y-82690477D01*
X129390477Y-82570890D01*
X129414570Y-82532547D01*
X129480452Y-82427697D01*
X129480454Y-82427694D01*
X129480454Y-82427692D01*
X129480456Y-82427690D01*
X129536313Y-82268059D01*
X129536313Y-82268058D01*
X129536314Y-82268056D01*
X129555249Y-82100002D01*
X129555249Y-82099997D01*
X129536314Y-81931943D01*
X129516736Y-81875993D01*
X129480456Y-81772310D01*
X129469672Y-81755147D01*
X129444506Y-81715095D01*
X129425500Y-81649123D01*
X129425500Y-80111698D01*
X129445185Y-80044659D01*
X129461815Y-80024021D01*
X130120110Y-79365725D01*
X130166835Y-79336366D01*
X130170548Y-79335066D01*
X130170553Y-79335066D01*
X130330184Y-79279209D01*
X130330186Y-79279208D01*
X130330191Y-79279205D01*
X130473378Y-79189234D01*
X130473379Y-79189233D01*
X130473384Y-79189230D01*
X130592971Y-79069643D01*
X130598497Y-79060849D01*
X130682946Y-78926450D01*
X130682948Y-78926447D01*
X130682948Y-78926445D01*
X130682950Y-78926443D01*
X130738807Y-78766812D01*
X130738807Y-78766811D01*
X130738808Y-78766809D01*
X130757743Y-78598755D01*
X130757743Y-78598750D01*
X130738808Y-78430696D01*
X130682948Y-78271058D01*
X130682946Y-78271055D01*
X130592975Y-78127868D01*
X130592970Y-78127862D01*
X130473384Y-78008276D01*
X130473378Y-78008271D01*
X130330191Y-77918300D01*
X130330188Y-77918298D01*
X130170550Y-77862438D01*
X130002497Y-77843504D01*
X130002491Y-77843504D01*
X129834437Y-77862438D01*
X129674799Y-77918298D01*
X129674796Y-77918300D01*
X129531609Y-78008271D01*
X129531603Y-78008276D01*
X129412017Y-78127862D01*
X129412012Y-78127868D01*
X129322041Y-78271055D01*
X129322038Y-78271061D01*
X129264882Y-78434407D01*
X129235521Y-78481134D01*
X128401270Y-79315386D01*
X128314144Y-79402511D01*
X128314141Y-79402515D01*
X128295975Y-79429703D01*
X128295974Y-79429704D01*
X128245690Y-79504956D01*
X128245688Y-79504960D01*
X128245688Y-79504961D01*
X128221855Y-79562500D01*
X128199892Y-79615524D01*
X128199889Y-79615531D01*
X128198539Y-79618787D01*
X128198536Y-79618797D01*
X128189655Y-79663451D01*
X128179297Y-79715530D01*
X128178687Y-79718595D01*
X128178686Y-79718600D01*
X128174500Y-79739641D01*
X128174500Y-81649123D01*
X128155494Y-81715095D01*
X128119545Y-81772307D01*
X128063685Y-81931943D01*
X128044751Y-82099997D01*
X115150607Y-82099997D01*
X115150607Y-70383697D01*
X115169614Y-70317724D01*
X115205563Y-70260512D01*
X115217814Y-70225500D01*
X115261420Y-70100881D01*
X115280356Y-69932822D01*
X115279779Y-69927697D01*
X115261421Y-69764765D01*
X115205561Y-69605127D01*
X115205559Y-69605124D01*
X115115588Y-69461937D01*
X115115583Y-69461931D01*
X114995997Y-69342345D01*
X114995991Y-69342340D01*
X114852804Y-69252369D01*
X114852801Y-69252367D01*
X114693163Y-69196507D01*
X114525110Y-69177573D01*
X114525104Y-69177573D01*
X114357050Y-69196507D01*
X114197412Y-69252367D01*
X114197409Y-69252369D01*
X114054222Y-69342340D01*
X114054216Y-69342345D01*
X113934630Y-69461931D01*
X113934625Y-69461937D01*
X113844654Y-69605124D01*
X113844652Y-69605127D01*
X113788792Y-69764765D01*
X113769858Y-69932819D01*
X113025500Y-69932819D01*
X113025500Y-68250875D01*
X113044507Y-68184902D01*
X113080456Y-68127690D01*
X113106479Y-68053320D01*
X113136313Y-67968059D01*
X113155249Y-67800000D01*
X113155249Y-67799997D01*
X113136314Y-67631943D01*
X113080454Y-67472305D01*
X113080452Y-67472302D01*
X112990481Y-67329115D01*
X112990476Y-67329109D01*
X112870890Y-67209523D01*
X112870884Y-67209518D01*
X112727697Y-67119547D01*
X112727694Y-67119545D01*
X112568056Y-67063685D01*
X112400003Y-67044751D01*
X112399997Y-67044751D01*
X112231943Y-67063685D01*
X112072305Y-67119545D01*
X112072302Y-67119547D01*
X111929115Y-67209518D01*
X111929109Y-67209523D01*
X111809523Y-67329109D01*
X111809518Y-67329115D01*
X111719547Y-67472302D01*
X111719545Y-67472305D01*
X111663685Y-67631943D01*
X111644751Y-67799997D01*
X109739593Y-67799997D01*
X111277771Y-66261819D01*
X111339094Y-66228334D01*
X111365452Y-66225500D01*
X111861607Y-66225500D01*
X111922029Y-66213481D01*
X111982452Y-66201463D01*
X111982455Y-66201461D01*
X111982458Y-66201461D01*
X112011522Y-66189420D01*
X112015792Y-66187652D01*
X112096286Y-66154312D01*
X112157696Y-66113278D01*
X112198733Y-66085858D01*
X112198733Y-66085857D01*
X112203799Y-66082473D01*
X112204594Y-66083663D01*
X112262299Y-66059156D01*
X112276654Y-66058322D01*
X114074231Y-66058322D01*
X114140202Y-66077327D01*
X114197417Y-66113278D01*
X114314686Y-66154312D01*
X114357050Y-66169136D01*
X114525104Y-66188071D01*
X114525107Y-66188071D01*
X114525110Y-66188071D01*
X114693163Y-66169136D01*
X114693166Y-66169135D01*
X114852797Y-66113278D01*
X114852799Y-66113276D01*
X114852801Y-66113276D01*
X114852804Y-66113274D01*
X114995991Y-66023303D01*
X114995992Y-66023302D01*
X114995997Y-66023299D01*
X115115584Y-65903712D01*
X115155130Y-65840775D01*
X115207462Y-65794486D01*
X115276516Y-65783837D01*
X115326095Y-65801756D01*
X115329108Y-65803649D01*
X115329109Y-65803650D01*
X115388196Y-65840777D01*
X115472306Y-65893627D01*
X115472304Y-65893627D01*
X115472308Y-65893628D01*
X115472309Y-65893629D01*
X115501125Y-65903712D01*
X115631942Y-65949487D01*
X115799996Y-65968422D01*
X115799999Y-65968422D01*
X115800002Y-65968422D01*
X115968055Y-65949487D01*
X115993290Y-65940657D01*
X116127689Y-65893629D01*
X116127691Y-65893627D01*
X116127693Y-65893627D01*
X116127696Y-65893625D01*
X116270883Y-65803654D01*
X116270884Y-65803653D01*
X116270889Y-65803650D01*
X116390476Y-65684063D01*
X116480455Y-65540863D01*
X116536312Y-65381232D01*
X116536312Y-65381226D01*
X116537611Y-65377516D01*
X116566969Y-65330791D01*
X116748237Y-65149526D01*
X116771880Y-65114143D01*
X116771881Y-65114142D01*
X116816690Y-65047080D01*
X116816690Y-65047079D01*
X116816691Y-65047078D01*
X116863843Y-64933244D01*
X116880101Y-64851509D01*
X116881659Y-64843677D01*
X116881659Y-64843674D01*
X116887880Y-64812399D01*
X116887880Y-64689186D01*
X116887880Y-62748007D01*
X116863843Y-62627161D01*
X116823278Y-62529229D01*
X116816692Y-62513328D01*
X116816691Y-62513327D01*
X116816690Y-62513324D01*
X116799637Y-62487804D01*
X116799636Y-62487803D01*
X116748238Y-62410880D01*
X116748236Y-62410877D01*
X116658017Y-62320658D01*
X116657986Y-62320629D01*
X115749038Y-61411681D01*
X115715553Y-61350358D01*
X115720537Y-61280666D01*
X115762409Y-61224733D01*
X115827873Y-61200316D01*
X115836719Y-61200000D01*
X132400000Y-61200000D01*
X132400000Y-58233583D01*
X132419685Y-58166544D01*
X132472489Y-58120789D01*
X132541647Y-58110845D01*
X132605203Y-58139870D01*
X132629727Y-58168793D01*
X132742403Y-58352663D01*
X132742404Y-58352666D01*
X132742407Y-58352669D01*
X132906019Y-58544234D01*
X133054309Y-58670885D01*
X133097586Y-58707848D01*
X133097589Y-58707849D01*
X133312383Y-58839476D01*
X133475542Y-58907058D01*
X133545132Y-58935883D01*
X133790095Y-58994693D01*
X134041243Y-59014459D01*
X134292391Y-58994693D01*
X134537354Y-58935883D01*
X134770102Y-58839476D01*
X134984902Y-58707846D01*
X135176467Y-58544234D01*
X135340079Y-58352669D01*
X135471709Y-58137869D01*
X135568116Y-57905121D01*
X135626926Y-57660158D01*
X135646692Y-57409010D01*
X135626926Y-57157862D01*
X135568116Y-56912899D01*
X135471709Y-56680150D01*
X135340082Y-56465356D01*
X135340081Y-56465353D01*
X135193584Y-56293828D01*
X135176467Y-56273786D01*
X135049814Y-56165614D01*
X134984899Y-56110171D01*
X134984896Y-56110170D01*
X134770102Y-55978543D01*
X134537353Y-55882136D01*
X134292394Y-55823327D01*
X134041243Y-55803561D01*
X133790091Y-55823327D01*
X133545132Y-55882136D01*
X133312383Y-55978543D01*
X133097589Y-56110170D01*
X133097586Y-56110171D01*
X132906019Y-56273786D01*
X132742404Y-56465353D01*
X132742403Y-56465356D01*
X132629727Y-56649226D01*
X132577915Y-56696101D01*
X132508986Y-56707524D01*
X132444823Y-56679866D01*
X132405798Y-56621911D01*
X132400000Y-56584436D01*
X132400000Y-55352229D01*
X132419685Y-55285190D01*
X132437366Y-55263513D01*
X134483781Y-53265285D01*
X134545498Y-53232534D01*
X134570411Y-53230006D01*
X135568525Y-53230006D01*
X135635564Y-53249691D01*
G37*
%TD.AperFunction*%
%TD*%
M02*
