%TF.GenerationSoftware,KiCad,Pcbnew,8.0.2*%
%TF.CreationDate,2024-07-05T22:45:23+08:00*%
%TF.ProjectId,controller,636f6e74-726f-46c6-9c65-722e6b696361,rev?*%
%TF.SameCoordinates,Original*%
%TF.FileFunction,Copper,L1,Top*%
%TF.FilePolarity,Positive*%
%FSLAX46Y46*%
G04 Gerber Fmt 4.6, Leading zero omitted, Abs format (unit mm)*
G04 Created by KiCad (PCBNEW 8.0.2) date 2024-07-05 22:45:23*
%MOMM*%
%LPD*%
G01*
G04 APERTURE LIST*
G04 Aperture macros list*
%AMRoundRect*
0 Rectangle with rounded corners*
0 $1 Rounding radius*
0 $2 $3 $4 $5 $6 $7 $8 $9 X,Y pos of 4 corners*
0 Add a 4 corners polygon primitive as box body*
4,1,4,$2,$3,$4,$5,$6,$7,$8,$9,$2,$3,0*
0 Add four circle primitives for the rounded corners*
1,1,$1+$1,$2,$3*
1,1,$1+$1,$4,$5*
1,1,$1+$1,$6,$7*
1,1,$1+$1,$8,$9*
0 Add four rect primitives between the rounded corners*
20,1,$1+$1,$2,$3,$4,$5,0*
20,1,$1+$1,$4,$5,$6,$7,0*
20,1,$1+$1,$6,$7,$8,$9,0*
20,1,$1+$1,$8,$9,$2,$3,0*%
%AMRotRect*
0 Rectangle, with rotation*
0 The origin of the aperture is its center*
0 $1 length*
0 $2 width*
0 $3 Rotation angle, in degrees counterclockwise*
0 Add horizontal line*
21,1,$1,$2,0,0,$3*%
G04 Aperture macros list end*
%TA.AperFunction,ComponentPad*%
%ADD10C,1.800000*%
%TD*%
%TA.AperFunction,ComponentPad*%
%ADD11C,2.200000*%
%TD*%
%TA.AperFunction,SMDPad,CuDef*%
%ADD12R,1.500000X0.900000*%
%TD*%
%TA.AperFunction,SMDPad,CuDef*%
%ADD13RoundRect,0.150000X-0.587500X-0.150000X0.587500X-0.150000X0.587500X0.150000X-0.587500X0.150000X0*%
%TD*%
%TA.AperFunction,SMDPad,CuDef*%
%ADD14RoundRect,0.237500X0.237500X-0.300000X0.237500X0.300000X-0.237500X0.300000X-0.237500X-0.300000X0*%
%TD*%
%TA.AperFunction,SMDPad,CuDef*%
%ADD15R,2.000000X1.200000*%
%TD*%
%TA.AperFunction,SMDPad,CuDef*%
%ADD16R,1.600000X0.600000*%
%TD*%
%TA.AperFunction,SMDPad,CuDef*%
%ADD17RoundRect,0.150000X0.150000X-0.512500X0.150000X0.512500X-0.150000X0.512500X-0.150000X-0.512500X0*%
%TD*%
%TA.AperFunction,ComponentPad*%
%ADD18C,4.400000*%
%TD*%
%TA.AperFunction,SMDPad,CuDef*%
%ADD19RoundRect,0.237500X0.237500X-0.250000X0.237500X0.250000X-0.237500X0.250000X-0.237500X-0.250000X0*%
%TD*%
%TA.AperFunction,SMDPad,CuDef*%
%ADD20RoundRect,0.150000X-0.150000X0.587500X-0.150000X-0.587500X0.150000X-0.587500X0.150000X0.587500X0*%
%TD*%
%TA.AperFunction,SMDPad,CuDef*%
%ADD21RotRect,2.000000X2.000000X45.000000*%
%TD*%
%TA.AperFunction,ComponentPad*%
%ADD22C,2.500000*%
%TD*%
%TA.AperFunction,SMDPad,CuDef*%
%ADD23RoundRect,0.237500X-0.250000X-0.237500X0.250000X-0.237500X0.250000X0.237500X-0.250000X0.237500X0*%
%TD*%
%TA.AperFunction,SMDPad,CuDef*%
%ADD24RoundRect,0.237500X0.237500X-0.287500X0.237500X0.287500X-0.237500X0.287500X-0.237500X-0.287500X0*%
%TD*%
%TA.AperFunction,SMDPad,CuDef*%
%ADD25RoundRect,0.250000X-0.475000X0.337500X-0.475000X-0.337500X0.475000X-0.337500X0.475000X0.337500X0*%
%TD*%
%TA.AperFunction,SMDPad,CuDef*%
%ADD26RoundRect,0.237500X0.287500X0.237500X-0.287500X0.237500X-0.287500X-0.237500X0.287500X-0.237500X0*%
%TD*%
%TA.AperFunction,SMDPad,CuDef*%
%ADD27RoundRect,0.237500X0.250000X0.237500X-0.250000X0.237500X-0.250000X-0.237500X0.250000X-0.237500X0*%
%TD*%
%TA.AperFunction,SMDPad,CuDef*%
%ADD28RotRect,2.000000X2.000000X135.000000*%
%TD*%
%TA.AperFunction,SMDPad,CuDef*%
%ADD29RoundRect,0.150000X0.150000X-0.587500X0.150000X0.587500X-0.150000X0.587500X-0.150000X-0.587500X0*%
%TD*%
%TA.AperFunction,SMDPad,CuDef*%
%ADD30RoundRect,0.237500X-0.287500X-0.237500X0.287500X-0.237500X0.287500X0.237500X-0.287500X0.237500X0*%
%TD*%
%TA.AperFunction,SMDPad,CuDef*%
%ADD31R,0.700000X0.700000*%
%TD*%
%TA.AperFunction,SMDPad,CuDef*%
%ADD32RoundRect,0.237500X-0.237500X0.300000X-0.237500X-0.300000X0.237500X-0.300000X0.237500X0.300000X0*%
%TD*%
%TA.AperFunction,SMDPad,CuDef*%
%ADD33RoundRect,0.250000X0.475000X-0.337500X0.475000X0.337500X-0.475000X0.337500X-0.475000X-0.337500X0*%
%TD*%
%TA.AperFunction,SMDPad,CuDef*%
%ADD34RoundRect,0.237500X-0.237500X0.250000X-0.237500X-0.250000X0.237500X-0.250000X0.237500X0.250000X0*%
%TD*%
%TA.AperFunction,SMDPad,CuDef*%
%ADD35R,1.100000X0.600000*%
%TD*%
%TA.AperFunction,SMDPad,CuDef*%
%ADD36RoundRect,0.237500X-0.300000X-0.237500X0.300000X-0.237500X0.300000X0.237500X-0.300000X0.237500X0*%
%TD*%
%TA.AperFunction,SMDPad,CuDef*%
%ADD37R,1.700000X0.700000*%
%TD*%
%TA.AperFunction,ComponentPad*%
%ADD38O,1.200000X1.700000*%
%TD*%
%TA.AperFunction,ViaPad*%
%ADD39C,0.500000*%
%TD*%
%TA.AperFunction,ViaPad*%
%ADD40C,0.900000*%
%TD*%
%TA.AperFunction,ViaPad*%
%ADD41C,1.200000*%
%TD*%
%TA.AperFunction,ViaPad*%
%ADD42C,1.500000*%
%TD*%
%TA.AperFunction,Conductor*%
%ADD43C,0.250000*%
%TD*%
%TA.AperFunction,Conductor*%
%ADD44C,0.600000*%
%TD*%
%TA.AperFunction,Conductor*%
%ADD45C,0.500000*%
%TD*%
%TA.AperFunction,Conductor*%
%ADD46C,0.300000*%
%TD*%
%TA.AperFunction,Conductor*%
%ADD47C,0.200000*%
%TD*%
%TA.AperFunction,Conductor*%
%ADD48C,0.800000*%
%TD*%
%TA.AperFunction,Conductor*%
%ADD49C,1.000000*%
%TD*%
G04 APERTURE END LIST*
D10*
%TO.P,SW4,1,1*%
%TO.N,GND*%
X136692893Y-56525126D03*
%TO.P,SW4,2,2*%
%TO.N,/IO3*%
X139874874Y-59707107D03*
D11*
%TO.P,SW4,3,3*%
%TO.N,unconnected-(SW4-Pad3)*%
X138990990Y-62358757D03*
%TO.P,SW4,4,4*%
%TO.N,unconnected-(SW4-Pad4)*%
X134041243Y-57409010D03*
%TD*%
D12*
%TO.P,D3,1,VDD*%
%TO.N,VCC*%
X125450000Y-103950000D03*
%TO.P,D3,2,DOUT*%
%TO.N,unconnected-(D3-DOUT-Pad2)*%
X125450000Y-100650000D03*
%TO.P,D3,3,VSS*%
%TO.N,GND*%
X120550000Y-100650000D03*
%TO.P,D3,4,DIN*%
%TO.N,/RGB*%
X120550000Y-103950000D03*
%TD*%
D13*
%TO.P,Q3,1,G*%
%TO.N,/BEEPER*%
X114420000Y-79450000D03*
%TO.P,Q3,2,S*%
%TO.N,GND*%
X114420000Y-81350000D03*
%TO.P,Q3,3,D*%
%TO.N,Net-(BUZZER2--)*%
X116295000Y-80400000D03*
%TD*%
D14*
%TO.P,C4,1*%
%TO.N,Net-(U1-VCC)*%
X118312500Y-94437500D03*
%TO.P,C4,2*%
%TO.N,GND*%
X118312500Y-92712500D03*
%TD*%
D15*
%TO.P,J3,8*%
%TO.N,N/C*%
X132800000Y-85400000D03*
%TO.P,J3,7*%
X132800000Y-77800000D03*
D16*
%TO.P,J3,6,Pin_6*%
%TO.N,/IO9*%
X128800000Y-79100000D03*
%TO.P,J3,5,Pin_5*%
%TO.N,/RXD*%
X128800000Y-80100000D03*
%TO.P,J3,4,Pin_4*%
%TO.N,/TXD*%
X128800000Y-81100000D03*
%TO.P,J3,3,Pin_3*%
%TO.N,/EN*%
X128800000Y-82100000D03*
%TO.P,J3,2,Pin_2*%
%TO.N,+3V3*%
X128800000Y-83100000D03*
%TO.P,J3,1,Pin_1*%
%TO.N,GND*%
X128800000Y-84100000D03*
%TD*%
D17*
%TO.P,U3,1,VIN*%
%TO.N,VCC*%
X133012500Y-93800000D03*
%TO.P,U3,2,GND*%
%TO.N,GND*%
X133962500Y-93800000D03*
%TO.P,U3,3,CE*%
%TO.N,VCC*%
X134912500Y-93800000D03*
%TO.P,U3,4,NC*%
%TO.N,unconnected-(U3-NC-Pad4)*%
X134912500Y-91525000D03*
%TO.P,U3,5,VOUT*%
%TO.N,+3V3*%
X133012500Y-91525000D03*
%TD*%
D18*
%TO.P,H1,1*%
%TO.N,N/C*%
X103300000Y-95000000D03*
%TD*%
D19*
%TO.P,R11,1*%
%TO.N,GND*%
X112400000Y-81387500D03*
%TO.P,R11,2*%
%TO.N,/BEEPER*%
X112400000Y-79562500D03*
%TD*%
D20*
%TO.P,Q2,1,G*%
%TO.N,/POWER_EN*%
X129312500Y-90325000D03*
%TO.P,Q2,2,S*%
%TO.N,GND*%
X127412500Y-90325000D03*
%TO.P,Q2,3,D*%
%TO.N,Net-(Q1-G)*%
X128362500Y-92200000D03*
%TD*%
D14*
%TO.P,C7,1*%
%TO.N,VCC*%
X131262500Y-93625000D03*
%TO.P,C7,2*%
%TO.N,GND*%
X131262500Y-91900000D03*
%TD*%
D21*
%TO.P,SW1,1,1*%
%TO.N,GND*%
X132478680Y-105121320D03*
%TO.P,SW1,2,2*%
%TO.N,/EN*%
X136721320Y-100878680D03*
%TD*%
D11*
%TO.P,SW2,d,d*%
%TO.N,GND*%
X86700000Y-70600000D03*
%TO.P,SW2,c,c*%
%TO.N,/L_BUTTON*%
X86700000Y-75100000D03*
%TO.P,SW2,b,b*%
%TO.N,GND*%
X93700000Y-70600000D03*
%TO.P,SW2,a,a*%
%TO.N,/L_BUTTON*%
X93700000Y-75100000D03*
D22*
%TO.P,SW2,10,GND*%
%TO.N,GND*%
X83855000Y-85892000D03*
%TO.P,SW2,9,GND*%
X83855000Y-75892000D03*
%TO.P,SW2,8,GND*%
X96505000Y-75892000D03*
%TO.P,SW2,7,GND*%
X96505000Y-85892000D03*
D10*
%TO.P,SW2,6,B*%
X92681000Y-89622000D03*
%TO.P,SW2,5,DTA*%
%TO.N,/ADC1_CH4*%
X90180000Y-89622000D03*
%TO.P,SW2,4,A*%
%TO.N,+3V3*%
X87681000Y-89622000D03*
%TO.P,SW2,3,A*%
%TO.N,GND*%
X81451000Y-83392000D03*
%TO.P,SW2,2,DTA*%
%TO.N,/ADC1_CH0*%
X81451000Y-80892000D03*
%TO.P,SW2,1,B*%
%TO.N,+3V3*%
X81451000Y-78392000D03*
%TD*%
D19*
%TO.P,R1,1*%
%TO.N,/EN*%
X136612500Y-94500000D03*
%TO.P,R1,2*%
%TO.N,+3V3*%
X136612500Y-92675000D03*
%TD*%
D23*
%TO.P,R10,1*%
%TO.N,Net-(D5-K)*%
X123700000Y-87925000D03*
%TO.P,R10,2*%
%TO.N,GND*%
X125525000Y-87925000D03*
%TD*%
D19*
%TO.P,R3,1*%
%TO.N,Net-(U1-VCC)*%
X119912500Y-94537500D03*
%TO.P,R3,2*%
%TO.N,Net-(D1-A)*%
X119912500Y-92712500D03*
%TD*%
%TO.P,R8,1*%
%TO.N,+BATT*%
X123750000Y-96087500D03*
%TO.P,R8,2*%
%TO.N,Net-(Q1-G)*%
X123750000Y-94262500D03*
%TD*%
D24*
%TO.P,D2,1,K*%
%TO.N,Net-(D2-K)*%
X122012500Y-93500000D03*
%TO.P,D2,2,A*%
%TO.N,Net-(D1-A)*%
X122012500Y-91750000D03*
%TD*%
D25*
%TO.P,C2,1*%
%TO.N,+3V3*%
X110600000Y-62625000D03*
%TO.P,C2,2*%
%TO.N,GND*%
X110600000Y-64700000D03*
%TD*%
D14*
%TO.P,C1,1*%
%TO.N,/EN*%
X138212500Y-94450000D03*
%TO.P,C1,2*%
%TO.N,GND*%
X138212500Y-92725000D03*
%TD*%
D18*
%TO.P,H3,1*%
%TO.N,N/C*%
X143300000Y-95000000D03*
%TD*%
D26*
%TO.P,D5,1,K*%
%TO.N,Net-(D5-K)*%
X123487500Y-86100000D03*
%TO.P,D5,2,A*%
%TO.N,VCC*%
X121737500Y-86100000D03*
%TD*%
D18*
%TO.P,H4,1*%
%TO.N,N/C*%
X103300000Y-66900000D03*
%TD*%
D27*
%TO.P,R4,1*%
%TO.N,GND*%
X120125000Y-91025000D03*
%TO.P,R4,2*%
%TO.N,Net-(U1-PROG)*%
X118300000Y-91025000D03*
%TD*%
D28*
%TO.P,SW5,1,1*%
%TO.N,GND*%
X114200000Y-105200000D03*
%TO.P,SW5,2,2*%
%TO.N,Net-(D4-C)*%
X109957360Y-100957360D03*
%TD*%
D29*
%TO.P,D4,1,A*%
%TO.N,/KEY*%
X123812500Y-92150000D03*
%TO.P,D4,2,A*%
%TO.N,Net-(Q1-G)*%
X125712500Y-92150000D03*
%TO.P,D4,3,C*%
%TO.N,Net-(D4-C)*%
X124762500Y-90275000D03*
%TD*%
D30*
%TO.P,D1,1,K*%
%TO.N,Net-(D1-K)*%
X113912500Y-90775000D03*
%TO.P,D1,2,A*%
%TO.N,Net-(D1-A)*%
X115662500Y-90775000D03*
%TD*%
D13*
%TO.P,Q1,1,G*%
%TO.N,Net-(Q1-G)*%
X125675000Y-94225000D03*
%TO.P,Q1,2,S*%
%TO.N,+BATT*%
X125675000Y-96125000D03*
%TO.P,Q1,3,D*%
%TO.N,VCC*%
X127550000Y-95175000D03*
%TD*%
D12*
%TO.P,U4,1,3V3*%
%TO.N,+3V3*%
X114600000Y-62300000D03*
%TO.P,U4,2,EN*%
%TO.N,/EN*%
X114600000Y-63800000D03*
%TO.P,U4,3,IO4*%
%TO.N,/ADC1_CH4*%
X114600000Y-65300000D03*
%TO.P,U4,4,IO5*%
%TO.N,/BEEPER*%
X114600000Y-66800000D03*
%TO.P,U4,5,IO6*%
%TO.N,/L_BUTTON*%
X114600000Y-68300000D03*
%TO.P,U4,6,IO7*%
%TO.N,/RGB*%
X114600000Y-69800000D03*
%TO.P,U4,7,IO8*%
%TO.N,Net-(U4-IO8)*%
X114600000Y-71300000D03*
%TO.P,U4,8,IO9*%
%TO.N,/IO9*%
X114600000Y-72800000D03*
%TO.P,U4,9,GND*%
%TO.N,GND*%
X114600000Y-74300000D03*
%TO.P,U4,10,IO10*%
%TO.N,/KEY*%
X132100000Y-74300000D03*
%TO.P,U4,11,RXD*%
%TO.N,/RXD*%
X132100000Y-72800000D03*
%TO.P,U4,12,TXD*%
%TO.N,/TXD*%
X132100000Y-71300000D03*
%TO.P,U4,13,IO18*%
%TO.N,/POWER_EN*%
X132100000Y-69800000D03*
%TO.P,U4,14,IO19*%
%TO.N,/R_BUTTON*%
X132100000Y-68300000D03*
%TO.P,U4,15,IO3*%
%TO.N,/IO3*%
X132100000Y-66800000D03*
%TO.P,U4,16,IO2*%
%TO.N,/ADC1_CH2*%
X132100000Y-65300000D03*
%TO.P,U4,17,IO1*%
%TO.N,/ADC1_CH1*%
X132100000Y-63800000D03*
%TO.P,U4,18,IO0*%
%TO.N,/ADC1_CH0*%
X132100000Y-62300000D03*
D31*
%TO.P,U4,19,EP*%
%TO.N,GND*%
X123210000Y-67400000D03*
X123210000Y-68500000D03*
X123210000Y-69600000D03*
X124260000Y-67400000D03*
X124260000Y-68500000D03*
X124260000Y-69600000D03*
X125410000Y-67400000D03*
X125410000Y-68500000D03*
X125410000Y-69600000D03*
%TD*%
D32*
%TO.P,C11,1*%
%TO.N,GND*%
X129000000Y-101337500D03*
%TO.P,C11,2*%
%TO.N,VCC*%
X129000000Y-103062500D03*
%TD*%
D33*
%TO.P,C5,1*%
%TO.N,+BATT*%
X111462500Y-94412500D03*
%TO.P,C5,2*%
%TO.N,GND*%
X111462500Y-92337500D03*
%TD*%
D11*
%TO.P,SW3,d,d*%
%TO.N,GND*%
X152600000Y-70500000D03*
%TO.P,SW3,c,c*%
%TO.N,/R_BUTTON*%
X152600000Y-75000000D03*
%TO.P,SW3,b,b*%
%TO.N,GND*%
X159600000Y-70500000D03*
%TO.P,SW3,a,a*%
%TO.N,/R_BUTTON*%
X159600000Y-75000000D03*
D22*
%TO.P,SW3,10,GND*%
%TO.N,GND*%
X149755000Y-85792000D03*
%TO.P,SW3,9,GND*%
X149755000Y-75792000D03*
%TO.P,SW3,8,GND*%
X162405000Y-75792000D03*
%TO.P,SW3,7,GND*%
X162405000Y-85792000D03*
D10*
%TO.P,SW3,6,B*%
X158581000Y-89522000D03*
%TO.P,SW3,5,DTA*%
%TO.N,/ADC1_CH2*%
X156080000Y-89522000D03*
%TO.P,SW3,4,A*%
%TO.N,+3V3*%
X153581000Y-89522000D03*
%TO.P,SW3,3,A*%
%TO.N,GND*%
X147351000Y-83292000D03*
%TO.P,SW3,2,DTA*%
%TO.N,/ADC1_CH1*%
X147351000Y-80792000D03*
%TO.P,SW3,1,B*%
%TO.N,+3V3*%
X147351000Y-78292000D03*
%TD*%
D34*
%TO.P,R2,1*%
%TO.N,Net-(U4-IO8)*%
X111900000Y-72287500D03*
%TO.P,R2,2*%
%TO.N,+3V3*%
X111900000Y-74112500D03*
%TD*%
D35*
%TO.P,U1,1,/CHRG*%
%TO.N,Net-(D1-K)*%
X113712500Y-92725000D03*
%TO.P,U1,2,GND*%
%TO.N,GND*%
X113712500Y-93675000D03*
%TO.P,U1,3,BAT*%
%TO.N,+BATT*%
X113712500Y-94625000D03*
%TO.P,U1,4,VCC*%
%TO.N,Net-(U1-VCC)*%
X116412500Y-94625000D03*
%TO.P,U1,5,STDBY*%
%TO.N,Net-(D2-K)*%
X116412500Y-93675000D03*
%TO.P,U1,6,PROG*%
%TO.N,Net-(U1-PROG)*%
X116412500Y-92725000D03*
%TD*%
D23*
%TO.P,R9,1*%
%TO.N,GND*%
X127450000Y-88400000D03*
%TO.P,R9,2*%
%TO.N,/POWER_EN*%
X129275000Y-88400000D03*
%TD*%
D18*
%TO.P,H2,1*%
%TO.N,N/C*%
X143300000Y-66900000D03*
%TD*%
D36*
%TO.P,C9,1*%
%TO.N,+3V3*%
X133100000Y-89562500D03*
%TO.P,C9,2*%
%TO.N,GND*%
X134825000Y-89562500D03*
%TD*%
D37*
%TO.P,BUZZER2,1,+*%
%TO.N,+3V3*%
X123500000Y-80450000D03*
%TO.P,BUZZER2,2,-*%
%TO.N,Net-(BUZZER2--)*%
X118900000Y-80450000D03*
%TO.P,BUZZER2,3*%
%TO.N,unconnected-(BUZZER2-Pad3)*%
X123500000Y-83950000D03*
%TD*%
D32*
%TO.P,C3,1*%
%TO.N,+3V3*%
X112400000Y-62600000D03*
%TO.P,C3,2*%
%TO.N,GND*%
X112400000Y-64325000D03*
%TD*%
D38*
%TO.P,J1,16*%
%TO.N,N/C*%
X118680000Y-104900000D03*
%TO.P,J1,15*%
X127320000Y-104900000D03*
%TO.P,J1,14*%
X118680000Y-101100000D03*
%TO.P,J1,13*%
X127320000Y-101100000D03*
%TD*%
D10*
%TO.P,SW7,1,1*%
%TO.N,GND*%
X106725126Y-59707107D03*
%TO.P,SW7,2,2*%
%TO.N,/IO9*%
X109907107Y-56525126D03*
D11*
%TO.P,SW7,3,3*%
%TO.N,unconnected-(SW7-Pad3)*%
X112558757Y-57409010D03*
%TO.P,SW7,4,4*%
%TO.N,unconnected-(SW7-Pad4)*%
X107609010Y-62358757D03*
%TD*%
D39*
%TO.N,/IO9*%
X115799999Y-65213173D03*
%TO.N,/EN*%
X130002494Y-78598753D03*
X128800000Y-82100000D03*
D40*
%TO.N,GND*%
X129000000Y-100600000D03*
D41*
X112900000Y-63962500D03*
D40*
X126612500Y-87725000D03*
D41*
X111981524Y-91494024D03*
X116200000Y-75000000D03*
X135361286Y-89066456D03*
X110100000Y-65062500D03*
X133923177Y-92608463D03*
X130400000Y-104100000D03*
X120737501Y-91607264D03*
X116100000Y-104500000D03*
D40*
X119848624Y-101793644D03*
X113200000Y-81350000D03*
X128800000Y-84100000D03*
D41*
X138512500Y-91387500D03*
X124210000Y-69200000D03*
X131112500Y-90900000D03*
X118650351Y-92296290D03*
D39*
%TO.N,+3V3*%
X136130913Y-86206587D03*
D42*
%TO.N,Net-(U1-VCC)*%
X119212500Y-94650000D03*
%TO.N,+BATT*%
X103100000Y-86400000D03*
X103130000Y-89200000D03*
X103130000Y-87775000D03*
D40*
%TO.N,VCC*%
X126612500Y-93325000D03*
X121634522Y-87645000D03*
D39*
%TO.N,/RGB*%
X114525107Y-69932822D03*
X115856585Y-99756589D03*
%TO.N,/POWER_EN*%
X136044759Y-83955239D03*
X129275000Y-88400000D03*
%TO.N,/ADC1_CH4*%
X114525107Y-65432822D03*
%TO.N,/IO3*%
X132025107Y-66932822D03*
%TO.N,Net-(D4-C)*%
X115800000Y-99000000D03*
X124762500Y-90275000D03*
%TO.N,/KEY*%
X132100000Y-74300000D03*
X130038857Y-84499519D03*
%TO.N,/R_BUTTON*%
X132025107Y-68432822D03*
%TO.N,/ADC1_CH0*%
X115687380Y-63047786D03*
%TO.N,/BEEPER*%
X112400000Y-79562500D03*
X112400000Y-67800000D03*
%TO.N,/L_BUTTON*%
X107800000Y-69800000D03*
X109750000Y-69600000D03*
%TD*%
D43*
%TO.N,/IO9*%
X115799999Y-71900001D02*
X115799999Y-65213173D01*
X114900000Y-72800000D02*
X115799999Y-71900001D01*
X114600000Y-72800000D02*
X114900000Y-72800000D01*
%TO.N,/ADC1_CH0*%
X116302344Y-62432822D02*
X132025107Y-62432822D01*
X115687380Y-63047786D02*
X116302344Y-62432822D01*
D44*
%TO.N,/EN*%
X138162500Y-94500000D02*
X138212500Y-94450000D01*
D43*
X126000000Y-72400000D02*
X123800000Y-72400000D01*
X136612500Y-94500000D02*
X136612500Y-100769860D01*
X137412500Y-86136153D02*
X137412500Y-94300000D01*
D44*
X136612500Y-94500000D02*
X137612500Y-94500000D01*
D43*
X137412500Y-94300000D02*
X137612500Y-94500000D01*
X130002494Y-78598753D02*
X130002494Y-76402494D01*
X136612500Y-100769860D02*
X136721320Y-100878680D01*
X130002494Y-76402494D02*
X126000000Y-72400000D01*
D44*
X137612500Y-94500000D02*
X138162500Y-94500000D01*
D43*
X115332822Y-63932822D02*
X114525107Y-63932822D01*
X128800000Y-82100000D02*
X133376347Y-82100000D01*
X133376347Y-82100000D02*
X137412500Y-86136153D01*
X123800000Y-72400000D02*
X115332822Y-63932822D01*
D45*
%TO.N,GND*%
X126000000Y-88400000D02*
X125525000Y-87925000D01*
X119848624Y-101793644D02*
X120550000Y-101092268D01*
X125410000Y-69600000D02*
X125410000Y-68500000D01*
D44*
X134865242Y-89562500D02*
X134825000Y-89562500D01*
D43*
X123210000Y-67400000D02*
X125410000Y-67400000D01*
D44*
X133962500Y-93800000D02*
X133962500Y-92647786D01*
X112600000Y-64325000D02*
X110975000Y-64325000D01*
D43*
X125410000Y-67400000D02*
X125410000Y-68500000D01*
D45*
X120155237Y-91025000D02*
X120737501Y-91607264D01*
D44*
X125360000Y-68100000D02*
X125310000Y-68100000D01*
X111462500Y-92013048D02*
X111462500Y-92337500D01*
X125360000Y-68100000D02*
X124260000Y-68100000D01*
D45*
X120125000Y-91025000D02*
X120155237Y-91025000D01*
X120550000Y-101092268D02*
X120550000Y-100650000D01*
D44*
X110975000Y-64325000D02*
X110600000Y-64700000D01*
D45*
X127450000Y-90287500D02*
X127412500Y-90325000D01*
D44*
X114300000Y-105200000D02*
X115400000Y-105200000D01*
D45*
X127287500Y-88400000D02*
X126612500Y-87725000D01*
X129000000Y-101337500D02*
X129000000Y-100600000D01*
X118312500Y-92634141D02*
X118650351Y-92296290D01*
D46*
X114420000Y-81350000D02*
X113200000Y-81350000D01*
D44*
X133962500Y-92647786D02*
X133923177Y-92608463D01*
D45*
X126412500Y-87925000D02*
X126612500Y-87725000D01*
X127450000Y-88400000D02*
X127450000Y-90287500D01*
D44*
X138212500Y-92725000D02*
X138212500Y-91687500D01*
X112600000Y-64625000D02*
X111275000Y-64625000D01*
D45*
X113162500Y-81387500D02*
X113200000Y-81350000D01*
D44*
X138212500Y-91687500D02*
X138512500Y-91387500D01*
X111981524Y-91494024D02*
X111462500Y-92013048D01*
X112600000Y-64325000D02*
X112600000Y-64262500D01*
D45*
X112400000Y-81387500D02*
X113162500Y-81387500D01*
D44*
X112812500Y-93675000D02*
X113712500Y-93675000D01*
X115092285Y-75000000D02*
X116200000Y-75000000D01*
X115400000Y-105200000D02*
X116100000Y-104500000D01*
X124260000Y-68100000D02*
X123160000Y-69200000D01*
D43*
X123210000Y-67400000D02*
X123210000Y-68500000D01*
D45*
X125525000Y-87925000D02*
X126412500Y-87925000D01*
X127450000Y-88400000D02*
X127287500Y-88400000D01*
D44*
X111981524Y-92844024D02*
X112812500Y-93675000D01*
X125360000Y-68100000D02*
X123160000Y-68100000D01*
X125310000Y-68100000D02*
X124210000Y-69200000D01*
X112600000Y-64262500D02*
X112900000Y-63962500D01*
D45*
X127450000Y-88400000D02*
X126000000Y-88400000D01*
D44*
X111981524Y-91494024D02*
X111981524Y-92844024D01*
D45*
X118312500Y-92712500D02*
X118312500Y-92634141D01*
D44*
X131521320Y-105221320D02*
X130400000Y-104100000D01*
X132278680Y-105221320D02*
X131521320Y-105221320D01*
X112162500Y-64700000D02*
X112900000Y-63962500D01*
X110600000Y-64700000D02*
X112162500Y-64700000D01*
X114525107Y-74432822D02*
X115092285Y-75000000D01*
X135361286Y-89066456D02*
X134865242Y-89562500D01*
%TO.N,+3V3*%
X131300000Y-84700000D02*
X129700000Y-83100000D01*
D47*
X136612500Y-91921948D02*
X135215552Y-90525000D01*
D44*
X109000000Y-64225000D02*
X109000000Y-71212500D01*
X117387500Y-79600000D02*
X112293750Y-74506250D01*
X110600000Y-62625000D02*
X114275000Y-62625000D01*
X112293750Y-74506250D02*
X111900000Y-74112500D01*
D48*
X133100000Y-89562500D02*
X133100000Y-91437500D01*
D47*
X133100000Y-89237500D02*
X136130913Y-86206587D01*
D44*
X122650000Y-79600000D02*
X117387500Y-79600000D01*
D47*
X81451000Y-78392000D02*
X87681000Y-84622000D01*
D48*
X133100000Y-89512500D02*
X133100000Y-89562500D01*
D44*
X133100000Y-89562500D02*
X131300000Y-87762500D01*
D47*
X135215552Y-90525000D02*
X134012500Y-90525000D01*
D44*
X110600000Y-62625000D02*
X109000000Y-64225000D01*
D48*
X133100000Y-91437500D02*
X133012500Y-91525000D01*
D43*
X87681000Y-89622000D02*
X89836000Y-87467000D01*
X111400000Y-74112500D02*
X111900000Y-74112500D01*
D44*
X126150000Y-83100000D02*
X123500000Y-80450000D01*
X109000000Y-71212500D02*
X112293750Y-74506250D01*
D47*
X136612500Y-92675000D02*
X136612500Y-91921948D01*
D44*
X131300000Y-87762500D02*
X131300000Y-84700000D01*
X129700000Y-83100000D02*
X128800000Y-83100000D01*
X123500000Y-80450000D02*
X122650000Y-79600000D01*
X114275000Y-62625000D02*
X114600000Y-62300000D01*
D47*
X134012500Y-90525000D02*
X133012500Y-91525000D01*
X133100000Y-89562500D02*
X133100000Y-89237500D01*
D43*
X98045500Y-87467000D02*
X111400000Y-74112500D01*
X89836000Y-87467000D02*
X98045500Y-87467000D01*
D47*
X87681000Y-84622000D02*
X87681000Y-89622000D01*
D44*
X128800000Y-83100000D02*
X126150000Y-83100000D01*
D48*
%TO.N,Net-(U1-VCC)*%
X116412500Y-94625000D02*
X119650000Y-94625000D01*
X119650000Y-94625000D02*
X119787500Y-94487500D01*
X119112500Y-94625000D02*
X116412500Y-94625000D01*
D49*
%TO.N,+BATT*%
X103100000Y-90698780D02*
X106813720Y-94412500D01*
D48*
X111675000Y-94625000D02*
X112612500Y-94625000D01*
X112612500Y-94625000D02*
X113712500Y-94625000D01*
X103100000Y-86400000D02*
X103100000Y-88590986D01*
X103100000Y-86400000D02*
X103100000Y-88137500D01*
D49*
X106813720Y-94412500D02*
X111462500Y-94412500D01*
D48*
X113987500Y-96000000D02*
X124887500Y-96000000D01*
D49*
X103100000Y-86400000D02*
X103100000Y-90698780D01*
D48*
X112612500Y-94625000D02*
X113987500Y-96000000D01*
X111462500Y-94412500D02*
X111675000Y-94625000D01*
%TO.N,VCC*%
X133497684Y-95062500D02*
X134516456Y-95062500D01*
D43*
X131262500Y-100800000D02*
X129000000Y-103062500D01*
D45*
X127550000Y-95175000D02*
X127550000Y-94262500D01*
D48*
X129712500Y-95175000D02*
X131262500Y-93625000D01*
D43*
X125450000Y-103950000D02*
X125850000Y-103950000D01*
X125850000Y-103950000D02*
X126737500Y-103062500D01*
D48*
X133012500Y-94577316D02*
X133497684Y-95062500D01*
X133012500Y-93800000D02*
X133012500Y-94577316D01*
X134912500Y-94666456D02*
X134912500Y-93800000D01*
D43*
X126737500Y-103062500D02*
X129000000Y-103062500D01*
D45*
X121634522Y-86202978D02*
X121737500Y-86100000D01*
D43*
X131262500Y-93625000D02*
X131262500Y-100800000D01*
D45*
X127550000Y-94262500D02*
X126612500Y-93325000D01*
X121634522Y-87645000D02*
X121634522Y-86202978D01*
D43*
X134912500Y-93800000D02*
X134912500Y-94962500D01*
D48*
X127550000Y-95175000D02*
X129712500Y-95175000D01*
X134516456Y-95062500D02*
X134912500Y-94666456D01*
X132837500Y-93625000D02*
X133012500Y-93800000D01*
X131262500Y-93625000D02*
X132837500Y-93625000D01*
D43*
%TO.N,Net-(Q1-G)*%
X123787500Y-94225000D02*
X123750000Y-94262500D01*
X125675000Y-94225000D02*
X123787500Y-94225000D01*
X125675000Y-94225000D02*
X125675000Y-92187500D01*
X125712500Y-92150000D02*
X128312500Y-92150000D01*
X125675000Y-92187500D02*
X125712500Y-92150000D01*
X128312500Y-92150000D02*
X128362500Y-92200000D01*
%TO.N,Net-(D1-K)*%
X113912500Y-92525000D02*
X113712500Y-92725000D01*
X113912500Y-90775000D02*
X113912500Y-92525000D01*
%TO.N,Net-(D1-A)*%
X122012500Y-91225000D02*
X121012500Y-90225000D01*
X119912500Y-92712500D02*
X121050000Y-92712500D01*
X121012500Y-90225000D02*
X116212500Y-90225000D01*
X116212500Y-90225000D02*
X115662500Y-90775000D01*
X121050000Y-92712500D02*
X122012500Y-91750000D01*
%TO.N,Net-(D2-K)*%
X116512500Y-93575000D02*
X116412500Y-93675000D01*
X121937500Y-93575000D02*
X116512500Y-93575000D01*
X122012500Y-93500000D02*
X121937500Y-93575000D01*
D48*
%TO.N,Net-(U1-PROG)*%
X118112500Y-91025000D02*
X116412500Y-92725000D01*
X118300000Y-91025000D02*
X118112500Y-91025000D01*
D43*
%TO.N,/TXD*%
X134600000Y-78250000D02*
X131750000Y-81100000D01*
X131750000Y-81100000D02*
X128800000Y-81100000D01*
X132025107Y-71432822D02*
X132832822Y-71432822D01*
X132832822Y-71432822D02*
X134600000Y-73200000D01*
X134600000Y-73200000D02*
X134600000Y-78250000D01*
%TO.N,/RXD*%
X131675107Y-72932822D02*
X132025107Y-72932822D01*
X130750000Y-73857929D02*
X130750000Y-79200000D01*
X130750000Y-73857929D02*
X131675107Y-72932822D01*
X129850000Y-80100000D02*
X130750000Y-79200000D01*
X128800000Y-80100000D02*
X129850000Y-80100000D01*
%TO.N,/IO9*%
X128800000Y-76400000D02*
X125332822Y-72932822D01*
X125332822Y-72932822D02*
X114525107Y-72932822D01*
X128800000Y-76400000D02*
X128800000Y-79100000D01*
%TO.N,/RGB*%
X115856585Y-100256585D02*
X115856585Y-99756589D01*
X119550000Y-103950000D02*
X115856585Y-100256585D01*
X120550000Y-103950000D02*
X119550000Y-103950000D01*
%TO.N,/POWER_EN*%
X136044759Y-73444759D02*
X136044759Y-83955239D01*
X129312500Y-88437500D02*
X129275000Y-88400000D01*
X129312500Y-90325000D02*
X129312500Y-88437500D01*
X132400000Y-69800000D02*
X136044759Y-73444759D01*
X132100000Y-69800000D02*
X132400000Y-69800000D01*
X132025107Y-69932822D02*
X132828964Y-69932822D01*
D47*
%TO.N,/ADC1_CH1*%
X132325107Y-63932822D02*
X132025107Y-63932822D01*
D43*
X146126000Y-79567000D02*
X146126000Y-77476000D01*
X147351000Y-80792000D02*
X146126000Y-79567000D01*
X146126000Y-77476000D02*
X132450000Y-63800000D01*
X132450000Y-63800000D02*
X132100000Y-63800000D01*
%TO.N,/ADC1_CH2*%
X148625000Y-82067000D02*
X156080000Y-89522000D01*
D47*
X132025107Y-65432822D02*
X132325107Y-65432822D01*
D43*
X132100000Y-65300000D02*
X132400000Y-65300000D01*
X144000000Y-76900000D02*
X144000000Y-79223412D01*
X132400000Y-65300000D02*
X144000000Y-76900000D01*
X144000000Y-79223412D02*
X146843588Y-82067000D01*
X146843588Y-82067000D02*
X148625000Y-82067000D01*
D47*
%TO.N,Net-(U4-IO8)*%
X111900000Y-72287500D02*
X112754678Y-71432822D01*
X112754678Y-71432822D02*
X114525107Y-71432822D01*
D43*
%TO.N,Net-(D4-C)*%
X109957360Y-100957360D02*
X113842640Y-100957360D01*
X113842640Y-100957360D02*
X115800000Y-99000000D01*
%TO.N,/KEY*%
X123812500Y-92150000D02*
X123812500Y-89302076D01*
X126960424Y-85200000D02*
X129338376Y-85200000D01*
X124712500Y-87447924D02*
X126960424Y-85200000D01*
X129338376Y-85200000D02*
X130038857Y-84499519D01*
X124712500Y-88402076D02*
X124712500Y-87447924D01*
X123812500Y-89302076D02*
X124712500Y-88402076D01*
D45*
%TO.N,Net-(D5-K)*%
X123487500Y-87712500D02*
X123700000Y-87925000D01*
X123487500Y-86100000D02*
X123487500Y-87712500D01*
D43*
%TO.N,/BEEPER*%
X114525107Y-66932822D02*
X113267178Y-66932822D01*
D46*
X112512500Y-79450000D02*
X112400000Y-79562500D01*
X114420000Y-79450000D02*
X112512500Y-79450000D01*
D43*
X113267178Y-66932822D02*
X112400000Y-67800000D01*
%TO.N,/L_BUTTON*%
X99000000Y-69800000D02*
X93700000Y-75100000D01*
X107800000Y-69800000D02*
X99000000Y-69800000D01*
X93700000Y-75100000D02*
X86700000Y-75100000D01*
X110917178Y-68432822D02*
X109750000Y-69600000D01*
X114525107Y-68432822D02*
X110917178Y-68432822D01*
D46*
%TO.N,Net-(BUZZER2--)*%
X116295000Y-80400000D02*
X118850000Y-80400000D01*
X118850000Y-80400000D02*
X118900000Y-80450000D01*
%TD*%
M02*
