%TF.GenerationSoftware,KiCad,Pcbnew,8.0.2*%
%TF.CreationDate,2024-07-05T22:45:18+08:00*%
%TF.ProjectId,controller,636f6e74-726f-46c6-9c65-722e6b696361,rev?*%
%TF.SameCoordinates,Original*%
%TF.FileFunction,Drillmap*%
%TF.FilePolarity,Positive*%
%FSLAX45Y45*%
G04 Gerber Fmt 4.5, Leading zero omitted, Abs format (unit mm)*
G04 Created by KiCad (PCBNEW 8.0.2) date 2024-07-05 22:45:18*
%MOMM*%
%LPD*%
G01*
G04 APERTURE LIST*
%ADD10C,0.200000*%
%ADD11C,0.100000*%
%ADD12C,0.120000*%
%ADD13C,0.150000*%
%ADD14C,0.160000*%
%ADD15C,0.180000*%
%ADD16C,0.220000*%
G04 APERTURE END LIST*
D10*
X13561989Y-5323001D02*
X13451991Y-5323001D01*
X11420000Y-6120000D02*
X11420000Y-5530000D01*
X13451991Y-5323001D02*
X13240000Y-5530000D01*
X15041417Y-6233582D02*
X14981996Y-6293001D01*
X11211986Y-5323001D02*
X11101991Y-5323001D01*
X14531989Y-6293001D02*
X13561989Y-5323001D01*
X9501145Y-9973842D02*
X9501151Y-9973841D01*
X11461994Y-10713008D02*
X11581986Y-10593001D01*
X13081991Y-10593001D02*
X13201996Y-10713008D01*
X9501145Y-9973842D02*
G75*
G02*
X9622568Y-6233575I-269145J1880842D01*
G01*
X15041422Y-6233575D02*
X15041417Y-6233582D01*
X14332001Y-9893001D02*
X15081996Y-9893001D01*
X11420000Y-5530000D02*
X11211986Y-5323001D01*
X11581986Y-10593001D02*
X12331996Y-10593001D01*
X13201996Y-10713008D02*
X13511994Y-10713008D01*
X9501143Y-9973844D02*
X9501145Y-9973842D01*
X12331996Y-10593001D02*
X13081991Y-10593001D01*
X14981996Y-6293001D02*
X14531989Y-6293001D01*
X11151984Y-10713008D02*
X11461994Y-10713008D01*
X9581981Y-9893001D02*
X10331989Y-9893001D01*
X15081996Y-9893001D02*
X15162834Y-9973841D01*
X9681981Y-6293001D02*
X9622563Y-6233582D01*
X15041422Y-6233575D02*
G75*
G02*
X15162833Y-9973841I390582J-1859425D01*
G01*
X10331989Y-9893001D02*
X11151984Y-10713008D01*
X13511994Y-10713008D02*
X14332001Y-9893001D01*
X9622563Y-6233582D02*
X9622568Y-6233575D01*
X13240000Y-6120000D02*
X11420000Y-6120000D01*
X9501151Y-9973841D02*
X9501143Y-9973844D01*
X11101991Y-5323001D02*
X10131989Y-6293001D01*
X10131989Y-6293001D02*
X9681981Y-6293001D01*
X9501145Y-9973842D02*
X9581981Y-9893001D01*
X13240000Y-5530000D02*
X13240000Y-6120000D01*
D11*
X10767500Y-6967500D02*
X10792500Y-6992500D01*
X10792500Y-6967500D02*
X10767500Y-6992500D01*
X10962500Y-6947500D02*
X10987500Y-6972500D01*
X10987500Y-6947500D02*
X10962500Y-6972500D01*
X11227500Y-6767500D02*
X11252500Y-6792500D01*
X11252500Y-6767500D02*
X11227500Y-6792500D01*
X11227500Y-7943750D02*
X11252500Y-7968750D01*
X11252500Y-7943750D02*
X11227500Y-7968750D01*
X11440011Y-6530782D02*
X11465011Y-6555782D01*
X11465011Y-6530782D02*
X11440011Y-6555782D01*
X11440011Y-6980782D02*
X11465011Y-7005782D01*
X11465011Y-6980782D02*
X11440011Y-7005782D01*
X11556238Y-6292279D02*
X11581238Y-6317279D01*
X11581238Y-6292279D02*
X11556238Y-6317279D01*
X11567500Y-6508817D02*
X11592500Y-6533817D01*
X11592500Y-6508817D02*
X11567500Y-6533817D01*
X11567500Y-9887500D02*
X11592500Y-9912500D01*
X11592500Y-9887500D02*
X11567500Y-9912500D01*
X11573158Y-9963159D02*
X11598158Y-9988159D01*
X11598158Y-9963159D02*
X11573158Y-9988159D01*
X12463750Y-9015000D02*
X12488750Y-9040000D01*
X12488750Y-9015000D02*
X12463750Y-9040000D01*
X12867500Y-8197500D02*
X12892500Y-8222500D01*
X12892500Y-8197500D02*
X12867500Y-8222500D01*
X12915000Y-8827500D02*
X12940000Y-8852500D01*
X12940000Y-8827500D02*
X12915000Y-8852500D01*
X12987749Y-7847375D02*
X13012749Y-7872375D01*
X13012749Y-7847375D02*
X12987749Y-7872375D01*
X12991386Y-8437452D02*
X13016386Y-8462452D01*
X13016386Y-8437452D02*
X12991386Y-8462452D01*
X13190011Y-6680782D02*
X13215011Y-6705782D01*
X13215011Y-6680782D02*
X13190011Y-6705782D01*
X13190011Y-6830782D02*
X13215011Y-6855782D01*
X13215011Y-6830782D02*
X13190011Y-6855782D01*
X13197500Y-7417500D02*
X13222500Y-7442500D01*
X13222500Y-7417500D02*
X13197500Y-7442500D01*
X13591976Y-8383024D02*
X13616976Y-8408024D01*
X13616976Y-8383024D02*
X13591976Y-8408024D01*
X13600591Y-8608159D02*
X13625591Y-8633159D01*
X13625591Y-8608159D02*
X13600591Y-8633159D01*
X11345000Y-8135000D02*
G75*
G02*
X11295000Y-8135000I-25000J0D01*
G01*
X11295000Y-8135000D02*
G75*
G02*
X11345000Y-8135000I25000J0D01*
G01*
X12009862Y-10179364D02*
G75*
G02*
X11959862Y-10179364I-25000J0D01*
G01*
X11959862Y-10179364D02*
G75*
G02*
X12009862Y-10179364I25000J0D01*
G01*
X12188452Y-8764500D02*
G75*
G02*
X12138452Y-8764500I-25000J0D01*
G01*
X12138452Y-8764500D02*
G75*
G02*
X12188452Y-8764500I25000J0D01*
G01*
X12686250Y-8772500D02*
G75*
G02*
X12636250Y-8772500I-25000J0D01*
G01*
X12636250Y-8772500D02*
G75*
G02*
X12686250Y-8772500I25000J0D01*
G01*
X12686250Y-9332500D02*
G75*
G02*
X12636250Y-9332500I-25000J0D01*
G01*
X12636250Y-9332500D02*
G75*
G02*
X12686250Y-9332500I25000J0D01*
G01*
X12905000Y-8410000D02*
G75*
G02*
X12855000Y-8410000I-25000J0D01*
G01*
X12855000Y-8410000D02*
G75*
G02*
X12905000Y-8410000I25000J0D01*
G01*
X12925000Y-10060000D02*
G75*
G02*
X12875000Y-10060000I-25000J0D01*
G01*
X12875000Y-10060000D02*
G75*
G02*
X12925000Y-10060000I25000J0D01*
G01*
X11868000Y-10085000D02*
X11868000Y-10135000D01*
X11843000Y-10110000D02*
X11893000Y-10110000D01*
X11893000Y-10145000D02*
X11893000Y-10075000D01*
X11843000Y-10075000D02*
G75*
G02*
X11893000Y-10075000I25000J0D01*
G01*
X11843000Y-10075000D02*
X11843000Y-10145000D01*
X11843000Y-10145000D02*
G75*
G03*
X11893000Y-10145000I25000J0D01*
G01*
X11868000Y-10465000D02*
X11868000Y-10515000D01*
X11843000Y-10490000D02*
X11893000Y-10490000D01*
X11893000Y-10525000D02*
X11893000Y-10455000D01*
X11843000Y-10455000D02*
G75*
G02*
X11893000Y-10455000I25000J0D01*
G01*
X11843000Y-10455000D02*
X11843000Y-10525000D01*
X11843000Y-10525000D02*
G75*
G03*
X11893000Y-10525000I25000J0D01*
G01*
X12732000Y-10085000D02*
X12732000Y-10135000D01*
X12707000Y-10110000D02*
X12757000Y-10110000D01*
X12757000Y-10145000D02*
X12757000Y-10075000D01*
X12707000Y-10075000D02*
G75*
G02*
X12757000Y-10075000I25000J0D01*
G01*
X12707000Y-10075000D02*
X12707000Y-10145000D01*
X12707000Y-10145000D02*
G75*
G03*
X12757000Y-10145000I25000J0D01*
G01*
X12732000Y-10465000D02*
X12732000Y-10515000D01*
X12707000Y-10490000D02*
X12757000Y-10490000D01*
X12757000Y-10525000D02*
X12757000Y-10455000D01*
X12707000Y-10455000D02*
G75*
G02*
X12757000Y-10455000I25000J0D01*
G01*
X12707000Y-10455000D02*
X12707000Y-10525000D01*
X12707000Y-10525000D02*
G75*
G03*
X12757000Y-10525000I25000J0D01*
G01*
X11031213Y-6527463D02*
X11031213Y-6485037D01*
X10988787Y-6485037D01*
X10988787Y-6527463D01*
X11031213Y-6527463D01*
X11219366Y-9170616D02*
X11219366Y-9128189D01*
X11176939Y-9128189D01*
X11176939Y-9170616D01*
X11219366Y-9170616D01*
X11311213Y-6417463D02*
X11311213Y-6375037D01*
X11268787Y-6375037D01*
X11268787Y-6417463D01*
X11311213Y-6417463D01*
X11631213Y-10471213D02*
X11631213Y-10428787D01*
X11588787Y-10428787D01*
X11588787Y-10471213D01*
X11631213Y-10471213D01*
X11641213Y-7521213D02*
X11641213Y-7478787D01*
X11598787Y-7478787D01*
X11598787Y-7521213D01*
X11641213Y-7521213D01*
X11886248Y-9250842D02*
X11886248Y-9208416D01*
X11843822Y-9208416D01*
X11843822Y-9250842D01*
X11886248Y-9250842D01*
X12094963Y-9181940D02*
X12094963Y-9139513D01*
X12052537Y-9139513D01*
X12052537Y-9181940D01*
X12094963Y-9181940D01*
X12442213Y-6941213D02*
X12442213Y-6898787D01*
X12399787Y-6898787D01*
X12399787Y-6941213D01*
X12442213Y-6941213D01*
X13061213Y-10431213D02*
X13061213Y-10388787D01*
X13018787Y-10388787D01*
X13018787Y-10431213D01*
X13061213Y-10431213D01*
X13132463Y-9111213D02*
X13132463Y-9068787D01*
X13090037Y-9068787D01*
X13090037Y-9111213D01*
X13132463Y-9111213D01*
X13413531Y-9282060D02*
X13413531Y-9239633D01*
X13371104Y-9239633D01*
X13371104Y-9282060D01*
X13413531Y-9282060D01*
X13557342Y-8927859D02*
X13557342Y-8885432D01*
X13514915Y-8885432D01*
X13514915Y-8927859D01*
X13557342Y-8927859D01*
X13872463Y-9159963D02*
X13872463Y-9117537D01*
X13830037Y-9117537D01*
X13830037Y-9159963D01*
X13872463Y-9159963D01*
X10310000Y-8680000D02*
X10350000Y-8640000D01*
X10310000Y-8600000D01*
X10270000Y-8640000D01*
X10310000Y-8680000D01*
X10313000Y-8817500D02*
X10353000Y-8777500D01*
X10313000Y-8737500D01*
X10273000Y-8777500D01*
X10313000Y-8817500D01*
X10313000Y-8960000D02*
X10353000Y-8920000D01*
X10313000Y-8880000D01*
X10273000Y-8920000D01*
X10313000Y-8960000D01*
X11921250Y-9505000D02*
X11961250Y-9465000D01*
X11921250Y-9425000D01*
X11881250Y-9465000D01*
X11921250Y-9505000D01*
D12*
X8085100Y-7779200D02*
X8205100Y-7899200D01*
X8205100Y-7779200D02*
X8085100Y-7899200D01*
X8205100Y-7839200D02*
G75*
G02*
X8085100Y-7839200I-60000J0D01*
G01*
X8085100Y-7839200D02*
G75*
G02*
X8205100Y-7839200I60000J0D01*
G01*
X8085100Y-8029200D02*
X8205100Y-8149200D01*
X8205100Y-8029200D02*
X8085100Y-8149200D01*
X8205100Y-8089200D02*
G75*
G02*
X8085100Y-8089200I-60000J0D01*
G01*
X8085100Y-8089200D02*
G75*
G02*
X8205100Y-8089200I60000J0D01*
G01*
X8085100Y-8279200D02*
X8205100Y-8399200D01*
X8205100Y-8279200D02*
X8085100Y-8399200D01*
X8205100Y-8339200D02*
G75*
G02*
X8085100Y-8339200I-60000J0D01*
G01*
X8085100Y-8339200D02*
G75*
G02*
X8205100Y-8339200I60000J0D01*
G01*
X8708100Y-8902200D02*
X8828100Y-9022200D01*
X8828100Y-8902200D02*
X8708100Y-9022200D01*
X8828100Y-8962200D02*
G75*
G02*
X8708100Y-8962200I-60000J0D01*
G01*
X8708100Y-8962200D02*
G75*
G02*
X8828100Y-8962200I60000J0D01*
G01*
X8958000Y-8902200D02*
X9078000Y-9022200D01*
X9078000Y-8902200D02*
X8958000Y-9022200D01*
X9078000Y-8962200D02*
G75*
G02*
X8958000Y-8962200I-60000J0D01*
G01*
X8958000Y-8962200D02*
G75*
G02*
X9078000Y-8962200I60000J0D01*
G01*
X9208100Y-8902200D02*
X9328100Y-9022200D01*
X9328100Y-8902200D02*
X9208100Y-9022200D01*
X9328100Y-8962200D02*
G75*
G02*
X9208100Y-8962200I-60000J0D01*
G01*
X9208100Y-8962200D02*
G75*
G02*
X9328100Y-8962200I60000J0D01*
G01*
X10612513Y-5910711D02*
X10732513Y-6030711D01*
X10732513Y-5910711D02*
X10612513Y-6030711D01*
X10732513Y-5970711D02*
G75*
G02*
X10612513Y-5970711I-60000J0D01*
G01*
X10612513Y-5970711D02*
G75*
G02*
X10732513Y-5970711I60000J0D01*
G01*
X10930711Y-5592513D02*
X11050711Y-5712513D01*
X11050711Y-5592513D02*
X10930711Y-5712513D01*
X11050711Y-5652513D02*
G75*
G02*
X10930711Y-5652513I-60000J0D01*
G01*
X10930711Y-5652513D02*
G75*
G02*
X11050711Y-5652513I60000J0D01*
G01*
X13609289Y-5592513D02*
X13729289Y-5712513D01*
X13729289Y-5592513D02*
X13609289Y-5712513D01*
X13729289Y-5652513D02*
G75*
G02*
X13609289Y-5652513I-60000J0D01*
G01*
X13609289Y-5652513D02*
G75*
G02*
X13729289Y-5652513I60000J0D01*
G01*
X13927487Y-5910711D02*
X14047487Y-6030711D01*
X14047487Y-5910711D02*
X13927487Y-6030711D01*
X14047487Y-5970711D02*
G75*
G02*
X13927487Y-5970711I-60000J0D01*
G01*
X13927487Y-5970711D02*
G75*
G02*
X14047487Y-5970711I60000J0D01*
G01*
X14675100Y-7769200D02*
X14795100Y-7889200D01*
X14795100Y-7769200D02*
X14675100Y-7889200D01*
X14795100Y-7829200D02*
G75*
G02*
X14675100Y-7829200I-60000J0D01*
G01*
X14675100Y-7829200D02*
G75*
G02*
X14795100Y-7829200I60000J0D01*
G01*
X14675100Y-8019200D02*
X14795100Y-8139200D01*
X14795100Y-8019200D02*
X14675100Y-8139200D01*
X14795100Y-8079200D02*
G75*
G02*
X14675100Y-8079200I-60000J0D01*
G01*
X14675100Y-8079200D02*
G75*
G02*
X14795100Y-8079200I60000J0D01*
G01*
X14675100Y-8269200D02*
X14795100Y-8389200D01*
X14795100Y-8269200D02*
X14675100Y-8389200D01*
X14795100Y-8329200D02*
G75*
G02*
X14675100Y-8329200I-60000J0D01*
G01*
X14675100Y-8329200D02*
G75*
G02*
X14795100Y-8329200I60000J0D01*
G01*
X15298100Y-8892200D02*
X15418100Y-9012200D01*
X15418100Y-8892200D02*
X15298100Y-9012200D01*
X15418100Y-8952200D02*
G75*
G02*
X15298100Y-8952200I-60000J0D01*
G01*
X15298100Y-8952200D02*
G75*
G02*
X15418100Y-8952200I60000J0D01*
G01*
X15548000Y-8892200D02*
X15668000Y-9012200D01*
X15668000Y-8892200D02*
X15548000Y-9012200D01*
X15668000Y-8952200D02*
G75*
G02*
X15548000Y-8952200I-60000J0D01*
G01*
X15548000Y-8952200D02*
G75*
G02*
X15668000Y-8952200I60000J0D01*
G01*
X15798100Y-8892200D02*
X15918100Y-9012200D01*
X15918100Y-8892200D02*
X15798100Y-9012200D01*
X15918100Y-8952200D02*
G75*
G02*
X15798100Y-8952200I-60000J0D01*
G01*
X15798100Y-8952200D02*
G75*
G02*
X15918100Y-8952200I60000J0D01*
G01*
D13*
X10685901Y-6160876D02*
X10835901Y-6310876D01*
X10835901Y-6160876D02*
X10685901Y-6310876D01*
X10760901Y-6160876D02*
X10760901Y-6310876D01*
X10685901Y-6235876D02*
X10835901Y-6235876D01*
X11180876Y-5665901D02*
X11330876Y-5815901D01*
X11330876Y-5665901D02*
X11180876Y-5815901D01*
X11255876Y-5665901D02*
X11255876Y-5815901D01*
X11180876Y-5740901D02*
X11330876Y-5740901D01*
X13329124Y-5665901D02*
X13479124Y-5815901D01*
X13479124Y-5665901D02*
X13329124Y-5815901D01*
X13404124Y-5665901D02*
X13404124Y-5815901D01*
X13329124Y-5740901D02*
X13479124Y-5740901D01*
X13824099Y-6160876D02*
X13974099Y-6310876D01*
X13974099Y-6160876D02*
X13824099Y-6310876D01*
X13899099Y-6160876D02*
X13899099Y-6310876D01*
X13824099Y-6235876D02*
X13974099Y-6235876D01*
D14*
X8590000Y-6980000D02*
X8750000Y-7140000D01*
X8750000Y-6980000D02*
X8590000Y-7140000D01*
X8726569Y-7116569D02*
X8726569Y-7003431D01*
X8613431Y-7003431D01*
X8613431Y-7116569D01*
X8726569Y-7116569D01*
X8590000Y-7430000D02*
X8750000Y-7590000D01*
X8750000Y-7430000D02*
X8590000Y-7590000D01*
X8726569Y-7566569D02*
X8726569Y-7453431D01*
X8613431Y-7453431D01*
X8613431Y-7566569D01*
X8726569Y-7566569D01*
X9290000Y-6980000D02*
X9450000Y-7140000D01*
X9450000Y-6980000D02*
X9290000Y-7140000D01*
X9426569Y-7116569D02*
X9426569Y-7003431D01*
X9313431Y-7003431D01*
X9313431Y-7116569D01*
X9426569Y-7116569D01*
X9290000Y-7430000D02*
X9450000Y-7590000D01*
X9450000Y-7430000D02*
X9290000Y-7590000D01*
X9426569Y-7566569D02*
X9426569Y-7453431D01*
X9313431Y-7453431D01*
X9313431Y-7566569D01*
X9426569Y-7566569D01*
X15180000Y-6970000D02*
X15340000Y-7130000D01*
X15340000Y-6970000D02*
X15180000Y-7130000D01*
X15316569Y-7106569D02*
X15316569Y-6993431D01*
X15203431Y-6993431D01*
X15203431Y-7106569D01*
X15316569Y-7106569D01*
X15180000Y-7420000D02*
X15340000Y-7580000D01*
X15340000Y-7420000D02*
X15180000Y-7580000D01*
X15316569Y-7556569D02*
X15316569Y-7443431D01*
X15203431Y-7443431D01*
X15203431Y-7556569D01*
X15316569Y-7556569D01*
X15880000Y-6970000D02*
X16040000Y-7130000D01*
X16040000Y-6970000D02*
X15880000Y-7130000D01*
X16016569Y-7106569D02*
X16016569Y-6993431D01*
X15903431Y-6993431D01*
X15903431Y-7106569D01*
X16016569Y-7106569D01*
X15880000Y-7420000D02*
X16040000Y-7580000D01*
X16040000Y-7420000D02*
X15880000Y-7580000D01*
X16016569Y-7556569D02*
X16016569Y-7443431D01*
X15903431Y-7443431D01*
X15903431Y-7556569D01*
X16016569Y-7556569D01*
D15*
X8295500Y-7499200D02*
X8475500Y-7679200D01*
X8475500Y-7499200D02*
X8295500Y-7679200D01*
X8385500Y-7679200D02*
X8475500Y-7589200D01*
X8385500Y-7499200D01*
X8295500Y-7589200D01*
X8385500Y-7679200D01*
X8295500Y-8499200D02*
X8475500Y-8679200D01*
X8475500Y-8499200D02*
X8295500Y-8679200D01*
X8385500Y-8679200D02*
X8475500Y-8589200D01*
X8385500Y-8499200D01*
X8295500Y-8589200D01*
X8385500Y-8679200D01*
X9560500Y-7499200D02*
X9740500Y-7679200D01*
X9740500Y-7499200D02*
X9560500Y-7679200D01*
X9650500Y-7679200D02*
X9740500Y-7589200D01*
X9650500Y-7499200D01*
X9560500Y-7589200D01*
X9650500Y-7679200D01*
X9560500Y-8499200D02*
X9740500Y-8679200D01*
X9740500Y-8499200D02*
X9560500Y-8679200D01*
X9650500Y-8679200D02*
X9740500Y-8589200D01*
X9650500Y-8499200D01*
X9560500Y-8589200D01*
X9650500Y-8679200D01*
X14885500Y-7489200D02*
X15065500Y-7669200D01*
X15065500Y-7489200D02*
X14885500Y-7669200D01*
X14975500Y-7669200D02*
X15065500Y-7579200D01*
X14975500Y-7489200D01*
X14885500Y-7579200D01*
X14975500Y-7669200D01*
X14885500Y-8489200D02*
X15065500Y-8669200D01*
X15065500Y-8489200D02*
X14885500Y-8669200D01*
X14975500Y-8669200D02*
X15065500Y-8579200D01*
X14975500Y-8489200D01*
X14885500Y-8579200D01*
X14975500Y-8669200D01*
X16150500Y-7489200D02*
X16330500Y-7669200D01*
X16330500Y-7489200D02*
X16150500Y-7669200D01*
X16240500Y-7669200D02*
X16330500Y-7579200D01*
X16240500Y-7489200D01*
X16150500Y-7579200D01*
X16240500Y-7669200D01*
X16150500Y-8489200D02*
X16330500Y-8669200D01*
X16330500Y-8489200D02*
X16150500Y-8669200D01*
X16240500Y-8669200D02*
X16330500Y-8579200D01*
X16240500Y-8489200D01*
X16150500Y-8579200D01*
X16240500Y-8669200D01*
D16*
X10330000Y-6580000D02*
X10330000Y-6800000D01*
X10220000Y-6690000D02*
X10440000Y-6690000D01*
X10440000Y-6690000D02*
G75*
G02*
X10220000Y-6690000I-110000J0D01*
G01*
X10220000Y-6690000D02*
G75*
G02*
X10440000Y-6690000I110000J0D01*
G01*
X10330000Y-9390000D02*
X10330000Y-9610000D01*
X10220000Y-9500000D02*
X10440000Y-9500000D01*
X10440000Y-9500000D02*
G75*
G02*
X10220000Y-9500000I-110000J0D01*
G01*
X10220000Y-9500000D02*
G75*
G02*
X10440000Y-9500000I110000J0D01*
G01*
X14330000Y-6580000D02*
X14330000Y-6800000D01*
X14220000Y-6690000D02*
X14440000Y-6690000D01*
X14440000Y-6690000D02*
G75*
G02*
X14220000Y-6690000I-110000J0D01*
G01*
X14220000Y-6690000D02*
G75*
G02*
X14440000Y-6690000I110000J0D01*
G01*
X14330000Y-9390000D02*
X14330000Y-9610000D01*
X14220000Y-9500000D02*
X14440000Y-9500000D01*
X14440000Y-9500000D02*
G75*
G02*
X14220000Y-9500000I-110000J0D01*
G01*
X14220000Y-9500000D02*
G75*
G02*
X14440000Y-9500000I110000J0D01*
G01*
D10*
X7582775Y-11034492D02*
X7582775Y-10834492D01*
X7582775Y-10834492D02*
X7630394Y-10834492D01*
X7630394Y-10834492D02*
X7658966Y-10844016D01*
X7658966Y-10844016D02*
X7678013Y-10863063D01*
X7678013Y-10863063D02*
X7687537Y-10882111D01*
X7687537Y-10882111D02*
X7697061Y-10920206D01*
X7697061Y-10920206D02*
X7697061Y-10948778D01*
X7697061Y-10948778D02*
X7687537Y-10986873D01*
X7687537Y-10986873D02*
X7678013Y-11005921D01*
X7678013Y-11005921D02*
X7658966Y-11024968D01*
X7658966Y-11024968D02*
X7630394Y-11034492D01*
X7630394Y-11034492D02*
X7582775Y-11034492D01*
X7782775Y-11034492D02*
X7782775Y-10901159D01*
X7782775Y-10939254D02*
X7792299Y-10920206D01*
X7792299Y-10920206D02*
X7801823Y-10910682D01*
X7801823Y-10910682D02*
X7820871Y-10901159D01*
X7820871Y-10901159D02*
X7839918Y-10901159D01*
X7906585Y-11034492D02*
X7906585Y-10901159D01*
X7906585Y-10834492D02*
X7897061Y-10844016D01*
X7897061Y-10844016D02*
X7906585Y-10853540D01*
X7906585Y-10853540D02*
X7916109Y-10844016D01*
X7916109Y-10844016D02*
X7906585Y-10834492D01*
X7906585Y-10834492D02*
X7906585Y-10853540D01*
X8030394Y-11034492D02*
X8011347Y-11024968D01*
X8011347Y-11024968D02*
X8001823Y-11005921D01*
X8001823Y-11005921D02*
X8001823Y-10834492D01*
X8135156Y-11034492D02*
X8116109Y-11024968D01*
X8116109Y-11024968D02*
X8106585Y-11005921D01*
X8106585Y-11005921D02*
X8106585Y-10834492D01*
X8363728Y-11034492D02*
X8363728Y-10834492D01*
X8363728Y-10834492D02*
X8430395Y-10977349D01*
X8430395Y-10977349D02*
X8497061Y-10834492D01*
X8497061Y-10834492D02*
X8497061Y-11034492D01*
X8678014Y-11034492D02*
X8678014Y-10929730D01*
X8678014Y-10929730D02*
X8668490Y-10910682D01*
X8668490Y-10910682D02*
X8649442Y-10901159D01*
X8649442Y-10901159D02*
X8611347Y-10901159D01*
X8611347Y-10901159D02*
X8592299Y-10910682D01*
X8678014Y-11024968D02*
X8658966Y-11034492D01*
X8658966Y-11034492D02*
X8611347Y-11034492D01*
X8611347Y-11034492D02*
X8592299Y-11024968D01*
X8592299Y-11024968D02*
X8582775Y-11005921D01*
X8582775Y-11005921D02*
X8582775Y-10986873D01*
X8582775Y-10986873D02*
X8592299Y-10967825D01*
X8592299Y-10967825D02*
X8611347Y-10958302D01*
X8611347Y-10958302D02*
X8658966Y-10958302D01*
X8658966Y-10958302D02*
X8678014Y-10948778D01*
X8773252Y-10901159D02*
X8773252Y-11101159D01*
X8773252Y-10910682D02*
X8792299Y-10901159D01*
X8792299Y-10901159D02*
X8830395Y-10901159D01*
X8830395Y-10901159D02*
X8849442Y-10910682D01*
X8849442Y-10910682D02*
X8858966Y-10920206D01*
X8858966Y-10920206D02*
X8868490Y-10939254D01*
X8868490Y-10939254D02*
X8868490Y-10996397D01*
X8868490Y-10996397D02*
X8858966Y-11015444D01*
X8858966Y-11015444D02*
X8849442Y-11024968D01*
X8849442Y-11024968D02*
X8830395Y-11034492D01*
X8830395Y-11034492D02*
X8792299Y-11034492D01*
X8792299Y-11034492D02*
X8773252Y-11024968D01*
X8954204Y-11015444D02*
X8963728Y-11024968D01*
X8963728Y-11024968D02*
X8954204Y-11034492D01*
X8954204Y-11034492D02*
X8944680Y-11024968D01*
X8944680Y-11024968D02*
X8954204Y-11015444D01*
X8954204Y-11015444D02*
X8954204Y-11034492D01*
X8954204Y-10910682D02*
X8963728Y-10920206D01*
X8963728Y-10920206D02*
X8954204Y-10929730D01*
X8954204Y-10929730D02*
X8944680Y-10920206D01*
X8944680Y-10920206D02*
X8954204Y-10910682D01*
X8954204Y-10910682D02*
X8954204Y-10929730D01*
D11*
X7296999Y-11350508D02*
X7321999Y-11375508D01*
X7321999Y-11350508D02*
X7296999Y-11375508D01*
D10*
X7620871Y-11254492D02*
X7639918Y-11254492D01*
X7639918Y-11254492D02*
X7658966Y-11264016D01*
X7658966Y-11264016D02*
X7668490Y-11273540D01*
X7668490Y-11273540D02*
X7678013Y-11292587D01*
X7678013Y-11292587D02*
X7687537Y-11330682D01*
X7687537Y-11330682D02*
X7687537Y-11378301D01*
X7687537Y-11378301D02*
X7678013Y-11416397D01*
X7678013Y-11416397D02*
X7668490Y-11435444D01*
X7668490Y-11435444D02*
X7658966Y-11444968D01*
X7658966Y-11444968D02*
X7639918Y-11454492D01*
X7639918Y-11454492D02*
X7620871Y-11454492D01*
X7620871Y-11454492D02*
X7601823Y-11444968D01*
X7601823Y-11444968D02*
X7592299Y-11435444D01*
X7592299Y-11435444D02*
X7582775Y-11416397D01*
X7582775Y-11416397D02*
X7573252Y-11378301D01*
X7573252Y-11378301D02*
X7573252Y-11330682D01*
X7573252Y-11330682D02*
X7582775Y-11292587D01*
X7582775Y-11292587D02*
X7592299Y-11273540D01*
X7592299Y-11273540D02*
X7601823Y-11264016D01*
X7601823Y-11264016D02*
X7620871Y-11254492D01*
X7773252Y-11435444D02*
X7782775Y-11444968D01*
X7782775Y-11444968D02*
X7773252Y-11454492D01*
X7773252Y-11454492D02*
X7763728Y-11444968D01*
X7763728Y-11444968D02*
X7773252Y-11435444D01*
X7773252Y-11435444D02*
X7773252Y-11454492D01*
X7858966Y-11273540D02*
X7868490Y-11264016D01*
X7868490Y-11264016D02*
X7887537Y-11254492D01*
X7887537Y-11254492D02*
X7935156Y-11254492D01*
X7935156Y-11254492D02*
X7954204Y-11264016D01*
X7954204Y-11264016D02*
X7963728Y-11273540D01*
X7963728Y-11273540D02*
X7973252Y-11292587D01*
X7973252Y-11292587D02*
X7973252Y-11311635D01*
X7973252Y-11311635D02*
X7963728Y-11340206D01*
X7963728Y-11340206D02*
X7849442Y-11454492D01*
X7849442Y-11454492D02*
X7973252Y-11454492D01*
X8154204Y-11254492D02*
X8058966Y-11254492D01*
X8058966Y-11254492D02*
X8049442Y-11349730D01*
X8049442Y-11349730D02*
X8058966Y-11340206D01*
X8058966Y-11340206D02*
X8078013Y-11330682D01*
X8078013Y-11330682D02*
X8125633Y-11330682D01*
X8125633Y-11330682D02*
X8144680Y-11340206D01*
X8144680Y-11340206D02*
X8154204Y-11349730D01*
X8154204Y-11349730D02*
X8163728Y-11368778D01*
X8163728Y-11368778D02*
X8163728Y-11416397D01*
X8163728Y-11416397D02*
X8154204Y-11435444D01*
X8154204Y-11435444D02*
X8144680Y-11444968D01*
X8144680Y-11444968D02*
X8125633Y-11454492D01*
X8125633Y-11454492D02*
X8078013Y-11454492D01*
X8078013Y-11454492D02*
X8058966Y-11444968D01*
X8058966Y-11444968D02*
X8049442Y-11435444D01*
X8287537Y-11254492D02*
X8306585Y-11254492D01*
X8306585Y-11254492D02*
X8325633Y-11264016D01*
X8325633Y-11264016D02*
X8335156Y-11273540D01*
X8335156Y-11273540D02*
X8344680Y-11292587D01*
X8344680Y-11292587D02*
X8354204Y-11330682D01*
X8354204Y-11330682D02*
X8354204Y-11378301D01*
X8354204Y-11378301D02*
X8344680Y-11416397D01*
X8344680Y-11416397D02*
X8335156Y-11435444D01*
X8335156Y-11435444D02*
X8325633Y-11444968D01*
X8325633Y-11444968D02*
X8306585Y-11454492D01*
X8306585Y-11454492D02*
X8287537Y-11454492D01*
X8287537Y-11454492D02*
X8268490Y-11444968D01*
X8268490Y-11444968D02*
X8258966Y-11435444D01*
X8258966Y-11435444D02*
X8249442Y-11416397D01*
X8249442Y-11416397D02*
X8239918Y-11378301D01*
X8239918Y-11378301D02*
X8239918Y-11330682D01*
X8239918Y-11330682D02*
X8249442Y-11292587D01*
X8249442Y-11292587D02*
X8258966Y-11273540D01*
X8258966Y-11273540D02*
X8268490Y-11264016D01*
X8268490Y-11264016D02*
X8287537Y-11254492D01*
X8439918Y-11454492D02*
X8439918Y-11321159D01*
X8439918Y-11340206D02*
X8449442Y-11330682D01*
X8449442Y-11330682D02*
X8468490Y-11321159D01*
X8468490Y-11321159D02*
X8497061Y-11321159D01*
X8497061Y-11321159D02*
X8516109Y-11330682D01*
X8516109Y-11330682D02*
X8525633Y-11349730D01*
X8525633Y-11349730D02*
X8525633Y-11454492D01*
X8525633Y-11349730D02*
X8535156Y-11330682D01*
X8535156Y-11330682D02*
X8554204Y-11321159D01*
X8554204Y-11321159D02*
X8582775Y-11321159D01*
X8582775Y-11321159D02*
X8601823Y-11330682D01*
X8601823Y-11330682D02*
X8611347Y-11349730D01*
X8611347Y-11349730D02*
X8611347Y-11454492D01*
X8706585Y-11454492D02*
X8706585Y-11321159D01*
X8706585Y-11340206D02*
X8716109Y-11330682D01*
X8716109Y-11330682D02*
X8735156Y-11321159D01*
X8735156Y-11321159D02*
X8763728Y-11321159D01*
X8763728Y-11321159D02*
X8782776Y-11330682D01*
X8782776Y-11330682D02*
X8792299Y-11349730D01*
X8792299Y-11349730D02*
X8792299Y-11454492D01*
X8792299Y-11349730D02*
X8801823Y-11330682D01*
X8801823Y-11330682D02*
X8820871Y-11321159D01*
X8820871Y-11321159D02*
X8849442Y-11321159D01*
X8849442Y-11321159D02*
X8868490Y-11330682D01*
X8868490Y-11330682D02*
X8878014Y-11349730D01*
X8878014Y-11349730D02*
X8878014Y-11454492D01*
X9268490Y-11244968D02*
X9097061Y-11502111D01*
X9525633Y-11254492D02*
X9544680Y-11254492D01*
X9544680Y-11254492D02*
X9563728Y-11264016D01*
X9563728Y-11264016D02*
X9573252Y-11273540D01*
X9573252Y-11273540D02*
X9582776Y-11292587D01*
X9582776Y-11292587D02*
X9592299Y-11330682D01*
X9592299Y-11330682D02*
X9592299Y-11378301D01*
X9592299Y-11378301D02*
X9582776Y-11416397D01*
X9582776Y-11416397D02*
X9573252Y-11435444D01*
X9573252Y-11435444D02*
X9563728Y-11444968D01*
X9563728Y-11444968D02*
X9544680Y-11454492D01*
X9544680Y-11454492D02*
X9525633Y-11454492D01*
X9525633Y-11454492D02*
X9506585Y-11444968D01*
X9506585Y-11444968D02*
X9497061Y-11435444D01*
X9497061Y-11435444D02*
X9487538Y-11416397D01*
X9487538Y-11416397D02*
X9478014Y-11378301D01*
X9478014Y-11378301D02*
X9478014Y-11330682D01*
X9478014Y-11330682D02*
X9487538Y-11292587D01*
X9487538Y-11292587D02*
X9497061Y-11273540D01*
X9497061Y-11273540D02*
X9506585Y-11264016D01*
X9506585Y-11264016D02*
X9525633Y-11254492D01*
X9678014Y-11435444D02*
X9687538Y-11444968D01*
X9687538Y-11444968D02*
X9678014Y-11454492D01*
X9678014Y-11454492D02*
X9668490Y-11444968D01*
X9668490Y-11444968D02*
X9678014Y-11435444D01*
X9678014Y-11435444D02*
X9678014Y-11454492D01*
X9811347Y-11254492D02*
X9830395Y-11254492D01*
X9830395Y-11254492D02*
X9849442Y-11264016D01*
X9849442Y-11264016D02*
X9858966Y-11273540D01*
X9858966Y-11273540D02*
X9868490Y-11292587D01*
X9868490Y-11292587D02*
X9878014Y-11330682D01*
X9878014Y-11330682D02*
X9878014Y-11378301D01*
X9878014Y-11378301D02*
X9868490Y-11416397D01*
X9868490Y-11416397D02*
X9858966Y-11435444D01*
X9858966Y-11435444D02*
X9849442Y-11444968D01*
X9849442Y-11444968D02*
X9830395Y-11454492D01*
X9830395Y-11454492D02*
X9811347Y-11454492D01*
X9811347Y-11454492D02*
X9792299Y-11444968D01*
X9792299Y-11444968D02*
X9782776Y-11435444D01*
X9782776Y-11435444D02*
X9773252Y-11416397D01*
X9773252Y-11416397D02*
X9763728Y-11378301D01*
X9763728Y-11378301D02*
X9763728Y-11330682D01*
X9763728Y-11330682D02*
X9773252Y-11292587D01*
X9773252Y-11292587D02*
X9782776Y-11273540D01*
X9782776Y-11273540D02*
X9792299Y-11264016D01*
X9792299Y-11264016D02*
X9811347Y-11254492D01*
X10001823Y-11254492D02*
X10020871Y-11254492D01*
X10020871Y-11254492D02*
X10039919Y-11264016D01*
X10039919Y-11264016D02*
X10049442Y-11273540D01*
X10049442Y-11273540D02*
X10058966Y-11292587D01*
X10058966Y-11292587D02*
X10068490Y-11330682D01*
X10068490Y-11330682D02*
X10068490Y-11378301D01*
X10068490Y-11378301D02*
X10058966Y-11416397D01*
X10058966Y-11416397D02*
X10049442Y-11435444D01*
X10049442Y-11435444D02*
X10039919Y-11444968D01*
X10039919Y-11444968D02*
X10020871Y-11454492D01*
X10020871Y-11454492D02*
X10001823Y-11454492D01*
X10001823Y-11454492D02*
X9982776Y-11444968D01*
X9982776Y-11444968D02*
X9973252Y-11435444D01*
X9973252Y-11435444D02*
X9963728Y-11416397D01*
X9963728Y-11416397D02*
X9954204Y-11378301D01*
X9954204Y-11378301D02*
X9954204Y-11330682D01*
X9954204Y-11330682D02*
X9963728Y-11292587D01*
X9963728Y-11292587D02*
X9973252Y-11273540D01*
X9973252Y-11273540D02*
X9982776Y-11264016D01*
X9982776Y-11264016D02*
X10001823Y-11254492D01*
X10163728Y-11454492D02*
X10201823Y-11454492D01*
X10201823Y-11454492D02*
X10220871Y-11444968D01*
X10220871Y-11444968D02*
X10230395Y-11435444D01*
X10230395Y-11435444D02*
X10249442Y-11406873D01*
X10249442Y-11406873D02*
X10258966Y-11368778D01*
X10258966Y-11368778D02*
X10258966Y-11292587D01*
X10258966Y-11292587D02*
X10249442Y-11273540D01*
X10249442Y-11273540D02*
X10239919Y-11264016D01*
X10239919Y-11264016D02*
X10220871Y-11254492D01*
X10220871Y-11254492D02*
X10182776Y-11254492D01*
X10182776Y-11254492D02*
X10163728Y-11264016D01*
X10163728Y-11264016D02*
X10154204Y-11273540D01*
X10154204Y-11273540D02*
X10144680Y-11292587D01*
X10144680Y-11292587D02*
X10144680Y-11340206D01*
X10144680Y-11340206D02*
X10154204Y-11359254D01*
X10154204Y-11359254D02*
X10163728Y-11368778D01*
X10163728Y-11368778D02*
X10182776Y-11378301D01*
X10182776Y-11378301D02*
X10220871Y-11378301D01*
X10220871Y-11378301D02*
X10239919Y-11368778D01*
X10239919Y-11368778D02*
X10249442Y-11359254D01*
X10249442Y-11359254D02*
X10258966Y-11340206D01*
X10373252Y-11340206D02*
X10354204Y-11330682D01*
X10354204Y-11330682D02*
X10344680Y-11321159D01*
X10344680Y-11321159D02*
X10335157Y-11302111D01*
X10335157Y-11302111D02*
X10335157Y-11292587D01*
X10335157Y-11292587D02*
X10344680Y-11273540D01*
X10344680Y-11273540D02*
X10354204Y-11264016D01*
X10354204Y-11264016D02*
X10373252Y-11254492D01*
X10373252Y-11254492D02*
X10411347Y-11254492D01*
X10411347Y-11254492D02*
X10430395Y-11264016D01*
X10430395Y-11264016D02*
X10439919Y-11273540D01*
X10439919Y-11273540D02*
X10449442Y-11292587D01*
X10449442Y-11292587D02*
X10449442Y-11302111D01*
X10449442Y-11302111D02*
X10439919Y-11321159D01*
X10439919Y-11321159D02*
X10430395Y-11330682D01*
X10430395Y-11330682D02*
X10411347Y-11340206D01*
X10411347Y-11340206D02*
X10373252Y-11340206D01*
X10373252Y-11340206D02*
X10354204Y-11349730D01*
X10354204Y-11349730D02*
X10344680Y-11359254D01*
X10344680Y-11359254D02*
X10335157Y-11378301D01*
X10335157Y-11378301D02*
X10335157Y-11416397D01*
X10335157Y-11416397D02*
X10344680Y-11435444D01*
X10344680Y-11435444D02*
X10354204Y-11444968D01*
X10354204Y-11444968D02*
X10373252Y-11454492D01*
X10373252Y-11454492D02*
X10411347Y-11454492D01*
X10411347Y-11454492D02*
X10430395Y-11444968D01*
X10430395Y-11444968D02*
X10439919Y-11435444D01*
X10439919Y-11435444D02*
X10449442Y-11416397D01*
X10449442Y-11416397D02*
X10449442Y-11378301D01*
X10449442Y-11378301D02*
X10439919Y-11359254D01*
X10439919Y-11359254D02*
X10430395Y-11349730D01*
X10430395Y-11349730D02*
X10411347Y-11340206D01*
X10525633Y-11254492D02*
X10525633Y-11292587D01*
X10601823Y-11254492D02*
X10601823Y-11292587D01*
X10897062Y-11530682D02*
X10887538Y-11521159D01*
X10887538Y-11521159D02*
X10868490Y-11492587D01*
X10868490Y-11492587D02*
X10858966Y-11473540D01*
X10858966Y-11473540D02*
X10849442Y-11444968D01*
X10849442Y-11444968D02*
X10839919Y-11397349D01*
X10839919Y-11397349D02*
X10839919Y-11359254D01*
X10839919Y-11359254D02*
X10849442Y-11311635D01*
X10849442Y-11311635D02*
X10858966Y-11283063D01*
X10858966Y-11283063D02*
X10868490Y-11264016D01*
X10868490Y-11264016D02*
X10887538Y-11235444D01*
X10887538Y-11235444D02*
X10897062Y-11225920D01*
X10963728Y-11273540D02*
X10973252Y-11264016D01*
X10973252Y-11264016D02*
X10992300Y-11254492D01*
X10992300Y-11254492D02*
X11039919Y-11254492D01*
X11039919Y-11254492D02*
X11058966Y-11264016D01*
X11058966Y-11264016D02*
X11068490Y-11273540D01*
X11068490Y-11273540D02*
X11078014Y-11292587D01*
X11078014Y-11292587D02*
X11078014Y-11311635D01*
X11078014Y-11311635D02*
X11068490Y-11340206D01*
X11068490Y-11340206D02*
X10954204Y-11454492D01*
X10954204Y-11454492D02*
X11078014Y-11454492D01*
X11201823Y-11254492D02*
X11220871Y-11254492D01*
X11220871Y-11254492D02*
X11239919Y-11264016D01*
X11239919Y-11264016D02*
X11249442Y-11273540D01*
X11249442Y-11273540D02*
X11258966Y-11292587D01*
X11258966Y-11292587D02*
X11268490Y-11330682D01*
X11268490Y-11330682D02*
X11268490Y-11378301D01*
X11268490Y-11378301D02*
X11258966Y-11416397D01*
X11258966Y-11416397D02*
X11249442Y-11435444D01*
X11249442Y-11435444D02*
X11239919Y-11444968D01*
X11239919Y-11444968D02*
X11220871Y-11454492D01*
X11220871Y-11454492D02*
X11201823Y-11454492D01*
X11201823Y-11454492D02*
X11182776Y-11444968D01*
X11182776Y-11444968D02*
X11173252Y-11435444D01*
X11173252Y-11435444D02*
X11163728Y-11416397D01*
X11163728Y-11416397D02*
X11154204Y-11378301D01*
X11154204Y-11378301D02*
X11154204Y-11330682D01*
X11154204Y-11330682D02*
X11163728Y-11292587D01*
X11163728Y-11292587D02*
X11173252Y-11273540D01*
X11173252Y-11273540D02*
X11182776Y-11264016D01*
X11182776Y-11264016D02*
X11201823Y-11254492D01*
X11506585Y-11454492D02*
X11506585Y-11254492D01*
X11592300Y-11454492D02*
X11592300Y-11349730D01*
X11592300Y-11349730D02*
X11582776Y-11330682D01*
X11582776Y-11330682D02*
X11563728Y-11321159D01*
X11563728Y-11321159D02*
X11535157Y-11321159D01*
X11535157Y-11321159D02*
X11516109Y-11330682D01*
X11516109Y-11330682D02*
X11506585Y-11340206D01*
X11716109Y-11454492D02*
X11697061Y-11444968D01*
X11697061Y-11444968D02*
X11687538Y-11435444D01*
X11687538Y-11435444D02*
X11678014Y-11416397D01*
X11678014Y-11416397D02*
X11678014Y-11359254D01*
X11678014Y-11359254D02*
X11687538Y-11340206D01*
X11687538Y-11340206D02*
X11697061Y-11330682D01*
X11697061Y-11330682D02*
X11716109Y-11321159D01*
X11716109Y-11321159D02*
X11744681Y-11321159D01*
X11744681Y-11321159D02*
X11763728Y-11330682D01*
X11763728Y-11330682D02*
X11773252Y-11340206D01*
X11773252Y-11340206D02*
X11782776Y-11359254D01*
X11782776Y-11359254D02*
X11782776Y-11416397D01*
X11782776Y-11416397D02*
X11773252Y-11435444D01*
X11773252Y-11435444D02*
X11763728Y-11444968D01*
X11763728Y-11444968D02*
X11744681Y-11454492D01*
X11744681Y-11454492D02*
X11716109Y-11454492D01*
X11897061Y-11454492D02*
X11878014Y-11444968D01*
X11878014Y-11444968D02*
X11868490Y-11425920D01*
X11868490Y-11425920D02*
X11868490Y-11254492D01*
X12049442Y-11444968D02*
X12030395Y-11454492D01*
X12030395Y-11454492D02*
X11992300Y-11454492D01*
X11992300Y-11454492D02*
X11973252Y-11444968D01*
X11973252Y-11444968D02*
X11963728Y-11425920D01*
X11963728Y-11425920D02*
X11963728Y-11349730D01*
X11963728Y-11349730D02*
X11973252Y-11330682D01*
X11973252Y-11330682D02*
X11992300Y-11321159D01*
X11992300Y-11321159D02*
X12030395Y-11321159D01*
X12030395Y-11321159D02*
X12049442Y-11330682D01*
X12049442Y-11330682D02*
X12058966Y-11349730D01*
X12058966Y-11349730D02*
X12058966Y-11368778D01*
X12058966Y-11368778D02*
X11963728Y-11387825D01*
X12135157Y-11444968D02*
X12154204Y-11454492D01*
X12154204Y-11454492D02*
X12192300Y-11454492D01*
X12192300Y-11454492D02*
X12211347Y-11444968D01*
X12211347Y-11444968D02*
X12220871Y-11425920D01*
X12220871Y-11425920D02*
X12220871Y-11416397D01*
X12220871Y-11416397D02*
X12211347Y-11397349D01*
X12211347Y-11397349D02*
X12192300Y-11387825D01*
X12192300Y-11387825D02*
X12163728Y-11387825D01*
X12163728Y-11387825D02*
X12144681Y-11378301D01*
X12144681Y-11378301D02*
X12135157Y-11359254D01*
X12135157Y-11359254D02*
X12135157Y-11349730D01*
X12135157Y-11349730D02*
X12144681Y-11330682D01*
X12144681Y-11330682D02*
X12163728Y-11321159D01*
X12163728Y-11321159D02*
X12192300Y-11321159D01*
X12192300Y-11321159D02*
X12211347Y-11330682D01*
X12287538Y-11530682D02*
X12297062Y-11521159D01*
X12297062Y-11521159D02*
X12316109Y-11492587D01*
X12316109Y-11492587D02*
X12325633Y-11473540D01*
X12325633Y-11473540D02*
X12335157Y-11444968D01*
X12335157Y-11444968D02*
X12344681Y-11397349D01*
X12344681Y-11397349D02*
X12344681Y-11359254D01*
X12344681Y-11359254D02*
X12335157Y-11311635D01*
X12335157Y-11311635D02*
X12325633Y-11283063D01*
X12325633Y-11283063D02*
X12316109Y-11264016D01*
X12316109Y-11264016D02*
X12297062Y-11235444D01*
X12297062Y-11235444D02*
X12287538Y-11225920D01*
D11*
X7321999Y-11627008D02*
G75*
G02*
X7271999Y-11627008I-25000J0D01*
G01*
X7271999Y-11627008D02*
G75*
G02*
X7321999Y-11627008I25000J0D01*
G01*
D10*
X7620871Y-11518492D02*
X7639918Y-11518492D01*
X7639918Y-11518492D02*
X7658966Y-11528016D01*
X7658966Y-11528016D02*
X7668490Y-11537540D01*
X7668490Y-11537540D02*
X7678013Y-11556587D01*
X7678013Y-11556587D02*
X7687537Y-11594682D01*
X7687537Y-11594682D02*
X7687537Y-11642301D01*
X7687537Y-11642301D02*
X7678013Y-11680397D01*
X7678013Y-11680397D02*
X7668490Y-11699444D01*
X7668490Y-11699444D02*
X7658966Y-11708968D01*
X7658966Y-11708968D02*
X7639918Y-11718492D01*
X7639918Y-11718492D02*
X7620871Y-11718492D01*
X7620871Y-11718492D02*
X7601823Y-11708968D01*
X7601823Y-11708968D02*
X7592299Y-11699444D01*
X7592299Y-11699444D02*
X7582775Y-11680397D01*
X7582775Y-11680397D02*
X7573252Y-11642301D01*
X7573252Y-11642301D02*
X7573252Y-11594682D01*
X7573252Y-11594682D02*
X7582775Y-11556587D01*
X7582775Y-11556587D02*
X7592299Y-11537540D01*
X7592299Y-11537540D02*
X7601823Y-11528016D01*
X7601823Y-11528016D02*
X7620871Y-11518492D01*
X7773252Y-11699444D02*
X7782775Y-11708968D01*
X7782775Y-11708968D02*
X7773252Y-11718492D01*
X7773252Y-11718492D02*
X7763728Y-11708968D01*
X7763728Y-11708968D02*
X7773252Y-11699444D01*
X7773252Y-11699444D02*
X7773252Y-11718492D01*
X7963728Y-11518492D02*
X7868490Y-11518492D01*
X7868490Y-11518492D02*
X7858966Y-11613730D01*
X7858966Y-11613730D02*
X7868490Y-11604206D01*
X7868490Y-11604206D02*
X7887537Y-11594682D01*
X7887537Y-11594682D02*
X7935156Y-11594682D01*
X7935156Y-11594682D02*
X7954204Y-11604206D01*
X7954204Y-11604206D02*
X7963728Y-11613730D01*
X7963728Y-11613730D02*
X7973252Y-11632778D01*
X7973252Y-11632778D02*
X7973252Y-11680397D01*
X7973252Y-11680397D02*
X7963728Y-11699444D01*
X7963728Y-11699444D02*
X7954204Y-11708968D01*
X7954204Y-11708968D02*
X7935156Y-11718492D01*
X7935156Y-11718492D02*
X7887537Y-11718492D01*
X7887537Y-11718492D02*
X7868490Y-11708968D01*
X7868490Y-11708968D02*
X7858966Y-11699444D01*
X8097061Y-11518492D02*
X8116109Y-11518492D01*
X8116109Y-11518492D02*
X8135156Y-11528016D01*
X8135156Y-11528016D02*
X8144680Y-11537540D01*
X8144680Y-11537540D02*
X8154204Y-11556587D01*
X8154204Y-11556587D02*
X8163728Y-11594682D01*
X8163728Y-11594682D02*
X8163728Y-11642301D01*
X8163728Y-11642301D02*
X8154204Y-11680397D01*
X8154204Y-11680397D02*
X8144680Y-11699444D01*
X8144680Y-11699444D02*
X8135156Y-11708968D01*
X8135156Y-11708968D02*
X8116109Y-11718492D01*
X8116109Y-11718492D02*
X8097061Y-11718492D01*
X8097061Y-11718492D02*
X8078013Y-11708968D01*
X8078013Y-11708968D02*
X8068490Y-11699444D01*
X8068490Y-11699444D02*
X8058966Y-11680397D01*
X8058966Y-11680397D02*
X8049442Y-11642301D01*
X8049442Y-11642301D02*
X8049442Y-11594682D01*
X8049442Y-11594682D02*
X8058966Y-11556587D01*
X8058966Y-11556587D02*
X8068490Y-11537540D01*
X8068490Y-11537540D02*
X8078013Y-11528016D01*
X8078013Y-11528016D02*
X8097061Y-11518492D01*
X8287537Y-11518492D02*
X8306585Y-11518492D01*
X8306585Y-11518492D02*
X8325633Y-11528016D01*
X8325633Y-11528016D02*
X8335156Y-11537540D01*
X8335156Y-11537540D02*
X8344680Y-11556587D01*
X8344680Y-11556587D02*
X8354204Y-11594682D01*
X8354204Y-11594682D02*
X8354204Y-11642301D01*
X8354204Y-11642301D02*
X8344680Y-11680397D01*
X8344680Y-11680397D02*
X8335156Y-11699444D01*
X8335156Y-11699444D02*
X8325633Y-11708968D01*
X8325633Y-11708968D02*
X8306585Y-11718492D01*
X8306585Y-11718492D02*
X8287537Y-11718492D01*
X8287537Y-11718492D02*
X8268490Y-11708968D01*
X8268490Y-11708968D02*
X8258966Y-11699444D01*
X8258966Y-11699444D02*
X8249442Y-11680397D01*
X8249442Y-11680397D02*
X8239918Y-11642301D01*
X8239918Y-11642301D02*
X8239918Y-11594682D01*
X8239918Y-11594682D02*
X8249442Y-11556587D01*
X8249442Y-11556587D02*
X8258966Y-11537540D01*
X8258966Y-11537540D02*
X8268490Y-11528016D01*
X8268490Y-11528016D02*
X8287537Y-11518492D01*
X8439918Y-11718492D02*
X8439918Y-11585159D01*
X8439918Y-11604206D02*
X8449442Y-11594682D01*
X8449442Y-11594682D02*
X8468490Y-11585159D01*
X8468490Y-11585159D02*
X8497061Y-11585159D01*
X8497061Y-11585159D02*
X8516109Y-11594682D01*
X8516109Y-11594682D02*
X8525633Y-11613730D01*
X8525633Y-11613730D02*
X8525633Y-11718492D01*
X8525633Y-11613730D02*
X8535156Y-11594682D01*
X8535156Y-11594682D02*
X8554204Y-11585159D01*
X8554204Y-11585159D02*
X8582775Y-11585159D01*
X8582775Y-11585159D02*
X8601823Y-11594682D01*
X8601823Y-11594682D02*
X8611347Y-11613730D01*
X8611347Y-11613730D02*
X8611347Y-11718492D01*
X8706585Y-11718492D02*
X8706585Y-11585159D01*
X8706585Y-11604206D02*
X8716109Y-11594682D01*
X8716109Y-11594682D02*
X8735156Y-11585159D01*
X8735156Y-11585159D02*
X8763728Y-11585159D01*
X8763728Y-11585159D02*
X8782776Y-11594682D01*
X8782776Y-11594682D02*
X8792299Y-11613730D01*
X8792299Y-11613730D02*
X8792299Y-11718492D01*
X8792299Y-11613730D02*
X8801823Y-11594682D01*
X8801823Y-11594682D02*
X8820871Y-11585159D01*
X8820871Y-11585159D02*
X8849442Y-11585159D01*
X8849442Y-11585159D02*
X8868490Y-11594682D01*
X8868490Y-11594682D02*
X8878014Y-11613730D01*
X8878014Y-11613730D02*
X8878014Y-11718492D01*
X9268490Y-11508968D02*
X9097061Y-11766111D01*
X9525633Y-11518492D02*
X9544680Y-11518492D01*
X9544680Y-11518492D02*
X9563728Y-11528016D01*
X9563728Y-11528016D02*
X9573252Y-11537540D01*
X9573252Y-11537540D02*
X9582776Y-11556587D01*
X9582776Y-11556587D02*
X9592299Y-11594682D01*
X9592299Y-11594682D02*
X9592299Y-11642301D01*
X9592299Y-11642301D02*
X9582776Y-11680397D01*
X9582776Y-11680397D02*
X9573252Y-11699444D01*
X9573252Y-11699444D02*
X9563728Y-11708968D01*
X9563728Y-11708968D02*
X9544680Y-11718492D01*
X9544680Y-11718492D02*
X9525633Y-11718492D01*
X9525633Y-11718492D02*
X9506585Y-11708968D01*
X9506585Y-11708968D02*
X9497061Y-11699444D01*
X9497061Y-11699444D02*
X9487538Y-11680397D01*
X9487538Y-11680397D02*
X9478014Y-11642301D01*
X9478014Y-11642301D02*
X9478014Y-11594682D01*
X9478014Y-11594682D02*
X9487538Y-11556587D01*
X9487538Y-11556587D02*
X9497061Y-11537540D01*
X9497061Y-11537540D02*
X9506585Y-11528016D01*
X9506585Y-11528016D02*
X9525633Y-11518492D01*
X9678014Y-11699444D02*
X9687538Y-11708968D01*
X9687538Y-11708968D02*
X9678014Y-11718492D01*
X9678014Y-11718492D02*
X9668490Y-11708968D01*
X9668490Y-11708968D02*
X9678014Y-11699444D01*
X9678014Y-11699444D02*
X9678014Y-11718492D01*
X9811347Y-11518492D02*
X9830395Y-11518492D01*
X9830395Y-11518492D02*
X9849442Y-11528016D01*
X9849442Y-11528016D02*
X9858966Y-11537540D01*
X9858966Y-11537540D02*
X9868490Y-11556587D01*
X9868490Y-11556587D02*
X9878014Y-11594682D01*
X9878014Y-11594682D02*
X9878014Y-11642301D01*
X9878014Y-11642301D02*
X9868490Y-11680397D01*
X9868490Y-11680397D02*
X9858966Y-11699444D01*
X9858966Y-11699444D02*
X9849442Y-11708968D01*
X9849442Y-11708968D02*
X9830395Y-11718492D01*
X9830395Y-11718492D02*
X9811347Y-11718492D01*
X9811347Y-11718492D02*
X9792299Y-11708968D01*
X9792299Y-11708968D02*
X9782776Y-11699444D01*
X9782776Y-11699444D02*
X9773252Y-11680397D01*
X9773252Y-11680397D02*
X9763728Y-11642301D01*
X9763728Y-11642301D02*
X9763728Y-11594682D01*
X9763728Y-11594682D02*
X9773252Y-11556587D01*
X9773252Y-11556587D02*
X9782776Y-11537540D01*
X9782776Y-11537540D02*
X9792299Y-11528016D01*
X9792299Y-11528016D02*
X9811347Y-11518492D01*
X10068490Y-11718492D02*
X9954204Y-11718492D01*
X10011347Y-11718492D02*
X10011347Y-11518492D01*
X10011347Y-11518492D02*
X9992299Y-11547063D01*
X9992299Y-11547063D02*
X9973252Y-11566111D01*
X9973252Y-11566111D02*
X9954204Y-11575635D01*
X10163728Y-11718492D02*
X10201823Y-11718492D01*
X10201823Y-11718492D02*
X10220871Y-11708968D01*
X10220871Y-11708968D02*
X10230395Y-11699444D01*
X10230395Y-11699444D02*
X10249442Y-11670873D01*
X10249442Y-11670873D02*
X10258966Y-11632778D01*
X10258966Y-11632778D02*
X10258966Y-11556587D01*
X10258966Y-11556587D02*
X10249442Y-11537540D01*
X10249442Y-11537540D02*
X10239919Y-11528016D01*
X10239919Y-11528016D02*
X10220871Y-11518492D01*
X10220871Y-11518492D02*
X10182776Y-11518492D01*
X10182776Y-11518492D02*
X10163728Y-11528016D01*
X10163728Y-11528016D02*
X10154204Y-11537540D01*
X10154204Y-11537540D02*
X10144680Y-11556587D01*
X10144680Y-11556587D02*
X10144680Y-11604206D01*
X10144680Y-11604206D02*
X10154204Y-11623254D01*
X10154204Y-11623254D02*
X10163728Y-11632778D01*
X10163728Y-11632778D02*
X10182776Y-11642301D01*
X10182776Y-11642301D02*
X10220871Y-11642301D01*
X10220871Y-11642301D02*
X10239919Y-11632778D01*
X10239919Y-11632778D02*
X10249442Y-11623254D01*
X10249442Y-11623254D02*
X10258966Y-11604206D01*
X10325633Y-11518492D02*
X10458966Y-11518492D01*
X10458966Y-11518492D02*
X10373252Y-11718492D01*
X10525633Y-11518492D02*
X10525633Y-11556587D01*
X10601823Y-11518492D02*
X10601823Y-11556587D01*
X10897062Y-11794682D02*
X10887538Y-11785159D01*
X10887538Y-11785159D02*
X10868490Y-11756587D01*
X10868490Y-11756587D02*
X10858966Y-11737540D01*
X10858966Y-11737540D02*
X10849442Y-11708968D01*
X10849442Y-11708968D02*
X10839919Y-11661349D01*
X10839919Y-11661349D02*
X10839919Y-11623254D01*
X10839919Y-11623254D02*
X10849442Y-11575635D01*
X10849442Y-11575635D02*
X10858966Y-11547063D01*
X10858966Y-11547063D02*
X10868490Y-11528016D01*
X10868490Y-11528016D02*
X10887538Y-11499444D01*
X10887538Y-11499444D02*
X10897062Y-11489920D01*
X10954204Y-11518492D02*
X11087538Y-11518492D01*
X11087538Y-11518492D02*
X11001823Y-11718492D01*
X11316109Y-11718492D02*
X11316109Y-11518492D01*
X11401823Y-11718492D02*
X11401823Y-11613730D01*
X11401823Y-11613730D02*
X11392300Y-11594682D01*
X11392300Y-11594682D02*
X11373252Y-11585159D01*
X11373252Y-11585159D02*
X11344680Y-11585159D01*
X11344680Y-11585159D02*
X11325633Y-11594682D01*
X11325633Y-11594682D02*
X11316109Y-11604206D01*
X11525633Y-11718492D02*
X11506585Y-11708968D01*
X11506585Y-11708968D02*
X11497061Y-11699444D01*
X11497061Y-11699444D02*
X11487538Y-11680397D01*
X11487538Y-11680397D02*
X11487538Y-11623254D01*
X11487538Y-11623254D02*
X11497061Y-11604206D01*
X11497061Y-11604206D02*
X11506585Y-11594682D01*
X11506585Y-11594682D02*
X11525633Y-11585159D01*
X11525633Y-11585159D02*
X11554204Y-11585159D01*
X11554204Y-11585159D02*
X11573252Y-11594682D01*
X11573252Y-11594682D02*
X11582776Y-11604206D01*
X11582776Y-11604206D02*
X11592300Y-11623254D01*
X11592300Y-11623254D02*
X11592300Y-11680397D01*
X11592300Y-11680397D02*
X11582776Y-11699444D01*
X11582776Y-11699444D02*
X11573252Y-11708968D01*
X11573252Y-11708968D02*
X11554204Y-11718492D01*
X11554204Y-11718492D02*
X11525633Y-11718492D01*
X11706585Y-11718492D02*
X11687538Y-11708968D01*
X11687538Y-11708968D02*
X11678014Y-11689920D01*
X11678014Y-11689920D02*
X11678014Y-11518492D01*
X11858966Y-11708968D02*
X11839919Y-11718492D01*
X11839919Y-11718492D02*
X11801823Y-11718492D01*
X11801823Y-11718492D02*
X11782776Y-11708968D01*
X11782776Y-11708968D02*
X11773252Y-11689920D01*
X11773252Y-11689920D02*
X11773252Y-11613730D01*
X11773252Y-11613730D02*
X11782776Y-11594682D01*
X11782776Y-11594682D02*
X11801823Y-11585159D01*
X11801823Y-11585159D02*
X11839919Y-11585159D01*
X11839919Y-11585159D02*
X11858966Y-11594682D01*
X11858966Y-11594682D02*
X11868490Y-11613730D01*
X11868490Y-11613730D02*
X11868490Y-11632778D01*
X11868490Y-11632778D02*
X11773252Y-11651825D01*
X11944681Y-11708968D02*
X11963728Y-11718492D01*
X11963728Y-11718492D02*
X12001823Y-11718492D01*
X12001823Y-11718492D02*
X12020871Y-11708968D01*
X12020871Y-11708968D02*
X12030395Y-11689920D01*
X12030395Y-11689920D02*
X12030395Y-11680397D01*
X12030395Y-11680397D02*
X12020871Y-11661349D01*
X12020871Y-11661349D02*
X12001823Y-11651825D01*
X12001823Y-11651825D02*
X11973252Y-11651825D01*
X11973252Y-11651825D02*
X11954204Y-11642301D01*
X11954204Y-11642301D02*
X11944681Y-11623254D01*
X11944681Y-11623254D02*
X11944681Y-11613730D01*
X11944681Y-11613730D02*
X11954204Y-11594682D01*
X11954204Y-11594682D02*
X11973252Y-11585159D01*
X11973252Y-11585159D02*
X12001823Y-11585159D01*
X12001823Y-11585159D02*
X12020871Y-11594682D01*
X12097062Y-11794682D02*
X12106585Y-11785159D01*
X12106585Y-11785159D02*
X12125633Y-11756587D01*
X12125633Y-11756587D02*
X12135157Y-11737540D01*
X12135157Y-11737540D02*
X12144681Y-11708968D01*
X12144681Y-11708968D02*
X12154204Y-11661349D01*
X12154204Y-11661349D02*
X12154204Y-11623254D01*
X12154204Y-11623254D02*
X12144681Y-11575635D01*
X12144681Y-11575635D02*
X12135157Y-11547063D01*
X12135157Y-11547063D02*
X12125633Y-11528016D01*
X12125633Y-11528016D02*
X12106585Y-11499444D01*
X12106585Y-11499444D02*
X12097062Y-11489920D01*
D11*
X7296999Y-11866008D02*
X7296999Y-11916008D01*
X7271999Y-11891008D02*
X7321999Y-11891008D01*
D10*
X7620871Y-11782492D02*
X7639918Y-11782492D01*
X7639918Y-11782492D02*
X7658966Y-11792016D01*
X7658966Y-11792016D02*
X7668490Y-11801540D01*
X7668490Y-11801540D02*
X7678013Y-11820587D01*
X7678013Y-11820587D02*
X7687537Y-11858682D01*
X7687537Y-11858682D02*
X7687537Y-11906301D01*
X7687537Y-11906301D02*
X7678013Y-11944397D01*
X7678013Y-11944397D02*
X7668490Y-11963444D01*
X7668490Y-11963444D02*
X7658966Y-11972968D01*
X7658966Y-11972968D02*
X7639918Y-11982492D01*
X7639918Y-11982492D02*
X7620871Y-11982492D01*
X7620871Y-11982492D02*
X7601823Y-11972968D01*
X7601823Y-11972968D02*
X7592299Y-11963444D01*
X7592299Y-11963444D02*
X7582775Y-11944397D01*
X7582775Y-11944397D02*
X7573252Y-11906301D01*
X7573252Y-11906301D02*
X7573252Y-11858682D01*
X7573252Y-11858682D02*
X7582775Y-11820587D01*
X7582775Y-11820587D02*
X7592299Y-11801540D01*
X7592299Y-11801540D02*
X7601823Y-11792016D01*
X7601823Y-11792016D02*
X7620871Y-11782492D01*
X7773252Y-11963444D02*
X7782775Y-11972968D01*
X7782775Y-11972968D02*
X7773252Y-11982492D01*
X7773252Y-11982492D02*
X7763728Y-11972968D01*
X7763728Y-11972968D02*
X7773252Y-11963444D01*
X7773252Y-11963444D02*
X7773252Y-11982492D01*
X7963728Y-11782492D02*
X7868490Y-11782492D01*
X7868490Y-11782492D02*
X7858966Y-11877730D01*
X7858966Y-11877730D02*
X7868490Y-11868206D01*
X7868490Y-11868206D02*
X7887537Y-11858682D01*
X7887537Y-11858682D02*
X7935156Y-11858682D01*
X7935156Y-11858682D02*
X7954204Y-11868206D01*
X7954204Y-11868206D02*
X7963728Y-11877730D01*
X7963728Y-11877730D02*
X7973252Y-11896778D01*
X7973252Y-11896778D02*
X7973252Y-11944397D01*
X7973252Y-11944397D02*
X7963728Y-11963444D01*
X7963728Y-11963444D02*
X7954204Y-11972968D01*
X7954204Y-11972968D02*
X7935156Y-11982492D01*
X7935156Y-11982492D02*
X7887537Y-11982492D01*
X7887537Y-11982492D02*
X7868490Y-11972968D01*
X7868490Y-11972968D02*
X7858966Y-11963444D01*
X8097061Y-11782492D02*
X8116109Y-11782492D01*
X8116109Y-11782492D02*
X8135156Y-11792016D01*
X8135156Y-11792016D02*
X8144680Y-11801540D01*
X8144680Y-11801540D02*
X8154204Y-11820587D01*
X8154204Y-11820587D02*
X8163728Y-11858682D01*
X8163728Y-11858682D02*
X8163728Y-11906301D01*
X8163728Y-11906301D02*
X8154204Y-11944397D01*
X8154204Y-11944397D02*
X8144680Y-11963444D01*
X8144680Y-11963444D02*
X8135156Y-11972968D01*
X8135156Y-11972968D02*
X8116109Y-11982492D01*
X8116109Y-11982492D02*
X8097061Y-11982492D01*
X8097061Y-11982492D02*
X8078013Y-11972968D01*
X8078013Y-11972968D02*
X8068490Y-11963444D01*
X8068490Y-11963444D02*
X8058966Y-11944397D01*
X8058966Y-11944397D02*
X8049442Y-11906301D01*
X8049442Y-11906301D02*
X8049442Y-11858682D01*
X8049442Y-11858682D02*
X8058966Y-11820587D01*
X8058966Y-11820587D02*
X8068490Y-11801540D01*
X8068490Y-11801540D02*
X8078013Y-11792016D01*
X8078013Y-11792016D02*
X8097061Y-11782492D01*
X8287537Y-11782492D02*
X8306585Y-11782492D01*
X8306585Y-11782492D02*
X8325633Y-11792016D01*
X8325633Y-11792016D02*
X8335156Y-11801540D01*
X8335156Y-11801540D02*
X8344680Y-11820587D01*
X8344680Y-11820587D02*
X8354204Y-11858682D01*
X8354204Y-11858682D02*
X8354204Y-11906301D01*
X8354204Y-11906301D02*
X8344680Y-11944397D01*
X8344680Y-11944397D02*
X8335156Y-11963444D01*
X8335156Y-11963444D02*
X8325633Y-11972968D01*
X8325633Y-11972968D02*
X8306585Y-11982492D01*
X8306585Y-11982492D02*
X8287537Y-11982492D01*
X8287537Y-11982492D02*
X8268490Y-11972968D01*
X8268490Y-11972968D02*
X8258966Y-11963444D01*
X8258966Y-11963444D02*
X8249442Y-11944397D01*
X8249442Y-11944397D02*
X8239918Y-11906301D01*
X8239918Y-11906301D02*
X8239918Y-11858682D01*
X8239918Y-11858682D02*
X8249442Y-11820587D01*
X8249442Y-11820587D02*
X8258966Y-11801540D01*
X8258966Y-11801540D02*
X8268490Y-11792016D01*
X8268490Y-11792016D02*
X8287537Y-11782492D01*
X8439918Y-11982492D02*
X8439918Y-11849159D01*
X8439918Y-11868206D02*
X8449442Y-11858682D01*
X8449442Y-11858682D02*
X8468490Y-11849159D01*
X8468490Y-11849159D02*
X8497061Y-11849159D01*
X8497061Y-11849159D02*
X8516109Y-11858682D01*
X8516109Y-11858682D02*
X8525633Y-11877730D01*
X8525633Y-11877730D02*
X8525633Y-11982492D01*
X8525633Y-11877730D02*
X8535156Y-11858682D01*
X8535156Y-11858682D02*
X8554204Y-11849159D01*
X8554204Y-11849159D02*
X8582775Y-11849159D01*
X8582775Y-11849159D02*
X8601823Y-11858682D01*
X8601823Y-11858682D02*
X8611347Y-11877730D01*
X8611347Y-11877730D02*
X8611347Y-11982492D01*
X8706585Y-11982492D02*
X8706585Y-11849159D01*
X8706585Y-11868206D02*
X8716109Y-11858682D01*
X8716109Y-11858682D02*
X8735156Y-11849159D01*
X8735156Y-11849159D02*
X8763728Y-11849159D01*
X8763728Y-11849159D02*
X8782776Y-11858682D01*
X8782776Y-11858682D02*
X8792299Y-11877730D01*
X8792299Y-11877730D02*
X8792299Y-11982492D01*
X8792299Y-11877730D02*
X8801823Y-11858682D01*
X8801823Y-11858682D02*
X8820871Y-11849159D01*
X8820871Y-11849159D02*
X8849442Y-11849159D01*
X8849442Y-11849159D02*
X8868490Y-11858682D01*
X8868490Y-11858682D02*
X8878014Y-11877730D01*
X8878014Y-11877730D02*
X8878014Y-11982492D01*
X9268490Y-11772968D02*
X9097061Y-12030111D01*
X9525633Y-11782492D02*
X9544680Y-11782492D01*
X9544680Y-11782492D02*
X9563728Y-11792016D01*
X9563728Y-11792016D02*
X9573252Y-11801540D01*
X9573252Y-11801540D02*
X9582776Y-11820587D01*
X9582776Y-11820587D02*
X9592299Y-11858682D01*
X9592299Y-11858682D02*
X9592299Y-11906301D01*
X9592299Y-11906301D02*
X9582776Y-11944397D01*
X9582776Y-11944397D02*
X9573252Y-11963444D01*
X9573252Y-11963444D02*
X9563728Y-11972968D01*
X9563728Y-11972968D02*
X9544680Y-11982492D01*
X9544680Y-11982492D02*
X9525633Y-11982492D01*
X9525633Y-11982492D02*
X9506585Y-11972968D01*
X9506585Y-11972968D02*
X9497061Y-11963444D01*
X9497061Y-11963444D02*
X9487538Y-11944397D01*
X9487538Y-11944397D02*
X9478014Y-11906301D01*
X9478014Y-11906301D02*
X9478014Y-11858682D01*
X9478014Y-11858682D02*
X9487538Y-11820587D01*
X9487538Y-11820587D02*
X9497061Y-11801540D01*
X9497061Y-11801540D02*
X9506585Y-11792016D01*
X9506585Y-11792016D02*
X9525633Y-11782492D01*
X9678014Y-11963444D02*
X9687538Y-11972968D01*
X9687538Y-11972968D02*
X9678014Y-11982492D01*
X9678014Y-11982492D02*
X9668490Y-11972968D01*
X9668490Y-11972968D02*
X9678014Y-11963444D01*
X9678014Y-11963444D02*
X9678014Y-11982492D01*
X9811347Y-11782492D02*
X9830395Y-11782492D01*
X9830395Y-11782492D02*
X9849442Y-11792016D01*
X9849442Y-11792016D02*
X9858966Y-11801540D01*
X9858966Y-11801540D02*
X9868490Y-11820587D01*
X9868490Y-11820587D02*
X9878014Y-11858682D01*
X9878014Y-11858682D02*
X9878014Y-11906301D01*
X9878014Y-11906301D02*
X9868490Y-11944397D01*
X9868490Y-11944397D02*
X9858966Y-11963444D01*
X9858966Y-11963444D02*
X9849442Y-11972968D01*
X9849442Y-11972968D02*
X9830395Y-11982492D01*
X9830395Y-11982492D02*
X9811347Y-11982492D01*
X9811347Y-11982492D02*
X9792299Y-11972968D01*
X9792299Y-11972968D02*
X9782776Y-11963444D01*
X9782776Y-11963444D02*
X9773252Y-11944397D01*
X9773252Y-11944397D02*
X9763728Y-11906301D01*
X9763728Y-11906301D02*
X9763728Y-11858682D01*
X9763728Y-11858682D02*
X9773252Y-11820587D01*
X9773252Y-11820587D02*
X9782776Y-11801540D01*
X9782776Y-11801540D02*
X9792299Y-11792016D01*
X9792299Y-11792016D02*
X9811347Y-11782492D01*
X10068490Y-11982492D02*
X9954204Y-11982492D01*
X10011347Y-11982492D02*
X10011347Y-11782492D01*
X10011347Y-11782492D02*
X9992299Y-11811063D01*
X9992299Y-11811063D02*
X9973252Y-11830111D01*
X9973252Y-11830111D02*
X9954204Y-11839635D01*
X10163728Y-11982492D02*
X10201823Y-11982492D01*
X10201823Y-11982492D02*
X10220871Y-11972968D01*
X10220871Y-11972968D02*
X10230395Y-11963444D01*
X10230395Y-11963444D02*
X10249442Y-11934873D01*
X10249442Y-11934873D02*
X10258966Y-11896778D01*
X10258966Y-11896778D02*
X10258966Y-11820587D01*
X10258966Y-11820587D02*
X10249442Y-11801540D01*
X10249442Y-11801540D02*
X10239919Y-11792016D01*
X10239919Y-11792016D02*
X10220871Y-11782492D01*
X10220871Y-11782492D02*
X10182776Y-11782492D01*
X10182776Y-11782492D02*
X10163728Y-11792016D01*
X10163728Y-11792016D02*
X10154204Y-11801540D01*
X10154204Y-11801540D02*
X10144680Y-11820587D01*
X10144680Y-11820587D02*
X10144680Y-11868206D01*
X10144680Y-11868206D02*
X10154204Y-11887254D01*
X10154204Y-11887254D02*
X10163728Y-11896778D01*
X10163728Y-11896778D02*
X10182776Y-11906301D01*
X10182776Y-11906301D02*
X10220871Y-11906301D01*
X10220871Y-11906301D02*
X10239919Y-11896778D01*
X10239919Y-11896778D02*
X10249442Y-11887254D01*
X10249442Y-11887254D02*
X10258966Y-11868206D01*
X10325633Y-11782492D02*
X10458966Y-11782492D01*
X10458966Y-11782492D02*
X10373252Y-11982492D01*
X10525633Y-11782492D02*
X10525633Y-11820587D01*
X10601823Y-11782492D02*
X10601823Y-11820587D01*
X10897062Y-12058682D02*
X10887538Y-12049159D01*
X10887538Y-12049159D02*
X10868490Y-12020587D01*
X10868490Y-12020587D02*
X10858966Y-12001540D01*
X10858966Y-12001540D02*
X10849442Y-11972968D01*
X10849442Y-11972968D02*
X10839919Y-11925349D01*
X10839919Y-11925349D02*
X10839919Y-11887254D01*
X10839919Y-11887254D02*
X10849442Y-11839635D01*
X10849442Y-11839635D02*
X10858966Y-11811063D01*
X10858966Y-11811063D02*
X10868490Y-11792016D01*
X10868490Y-11792016D02*
X10887538Y-11763444D01*
X10887538Y-11763444D02*
X10897062Y-11753920D01*
X11011347Y-11782492D02*
X11030395Y-11782492D01*
X11030395Y-11782492D02*
X11049442Y-11792016D01*
X11049442Y-11792016D02*
X11058966Y-11801540D01*
X11058966Y-11801540D02*
X11068490Y-11820587D01*
X11068490Y-11820587D02*
X11078014Y-11858682D01*
X11078014Y-11858682D02*
X11078014Y-11906301D01*
X11078014Y-11906301D02*
X11068490Y-11944397D01*
X11068490Y-11944397D02*
X11058966Y-11963444D01*
X11058966Y-11963444D02*
X11049442Y-11972968D01*
X11049442Y-11972968D02*
X11030395Y-11982492D01*
X11030395Y-11982492D02*
X11011347Y-11982492D01*
X11011347Y-11982492D02*
X10992300Y-11972968D01*
X10992300Y-11972968D02*
X10982776Y-11963444D01*
X10982776Y-11963444D02*
X10973252Y-11944397D01*
X10973252Y-11944397D02*
X10963728Y-11906301D01*
X10963728Y-11906301D02*
X10963728Y-11858682D01*
X10963728Y-11858682D02*
X10973252Y-11820587D01*
X10973252Y-11820587D02*
X10982776Y-11801540D01*
X10982776Y-11801540D02*
X10992300Y-11792016D01*
X10992300Y-11792016D02*
X11011347Y-11782492D01*
X11316109Y-11982492D02*
X11316109Y-11782492D01*
X11401823Y-11982492D02*
X11401823Y-11877730D01*
X11401823Y-11877730D02*
X11392300Y-11858682D01*
X11392300Y-11858682D02*
X11373252Y-11849159D01*
X11373252Y-11849159D02*
X11344680Y-11849159D01*
X11344680Y-11849159D02*
X11325633Y-11858682D01*
X11325633Y-11858682D02*
X11316109Y-11868206D01*
X11525633Y-11982492D02*
X11506585Y-11972968D01*
X11506585Y-11972968D02*
X11497061Y-11963444D01*
X11497061Y-11963444D02*
X11487538Y-11944397D01*
X11487538Y-11944397D02*
X11487538Y-11887254D01*
X11487538Y-11887254D02*
X11497061Y-11868206D01*
X11497061Y-11868206D02*
X11506585Y-11858682D01*
X11506585Y-11858682D02*
X11525633Y-11849159D01*
X11525633Y-11849159D02*
X11554204Y-11849159D01*
X11554204Y-11849159D02*
X11573252Y-11858682D01*
X11573252Y-11858682D02*
X11582776Y-11868206D01*
X11582776Y-11868206D02*
X11592300Y-11887254D01*
X11592300Y-11887254D02*
X11592300Y-11944397D01*
X11592300Y-11944397D02*
X11582776Y-11963444D01*
X11582776Y-11963444D02*
X11573252Y-11972968D01*
X11573252Y-11972968D02*
X11554204Y-11982492D01*
X11554204Y-11982492D02*
X11525633Y-11982492D01*
X11706585Y-11982492D02*
X11687538Y-11972968D01*
X11687538Y-11972968D02*
X11678014Y-11953920D01*
X11678014Y-11953920D02*
X11678014Y-11782492D01*
X11858966Y-11972968D02*
X11839919Y-11982492D01*
X11839919Y-11982492D02*
X11801823Y-11982492D01*
X11801823Y-11982492D02*
X11782776Y-11972968D01*
X11782776Y-11972968D02*
X11773252Y-11953920D01*
X11773252Y-11953920D02*
X11773252Y-11877730D01*
X11773252Y-11877730D02*
X11782776Y-11858682D01*
X11782776Y-11858682D02*
X11801823Y-11849159D01*
X11801823Y-11849159D02*
X11839919Y-11849159D01*
X11839919Y-11849159D02*
X11858966Y-11858682D01*
X11858966Y-11858682D02*
X11868490Y-11877730D01*
X11868490Y-11877730D02*
X11868490Y-11896778D01*
X11868490Y-11896778D02*
X11773252Y-11915825D01*
X11944681Y-11972968D02*
X11963728Y-11982492D01*
X11963728Y-11982492D02*
X12001823Y-11982492D01*
X12001823Y-11982492D02*
X12020871Y-11972968D01*
X12020871Y-11972968D02*
X12030395Y-11953920D01*
X12030395Y-11953920D02*
X12030395Y-11944397D01*
X12030395Y-11944397D02*
X12020871Y-11925349D01*
X12020871Y-11925349D02*
X12001823Y-11915825D01*
X12001823Y-11915825D02*
X11973252Y-11915825D01*
X11973252Y-11915825D02*
X11954204Y-11906301D01*
X11954204Y-11906301D02*
X11944681Y-11887254D01*
X11944681Y-11887254D02*
X11944681Y-11877730D01*
X11944681Y-11877730D02*
X11954204Y-11858682D01*
X11954204Y-11858682D02*
X11973252Y-11849159D01*
X11973252Y-11849159D02*
X12001823Y-11849159D01*
X12001823Y-11849159D02*
X12020871Y-11858682D01*
X12268490Y-11906301D02*
X12420871Y-11906301D01*
X12344681Y-11982492D02*
X12344681Y-11830111D01*
X12754204Y-11849159D02*
X12754204Y-11982492D01*
X12706585Y-11772968D02*
X12658966Y-11915825D01*
X12658966Y-11915825D02*
X12782776Y-11915825D01*
X13001824Y-11972968D02*
X13020871Y-11982492D01*
X13020871Y-11982492D02*
X13058966Y-11982492D01*
X13058966Y-11982492D02*
X13078014Y-11972968D01*
X13078014Y-11972968D02*
X13087538Y-11953920D01*
X13087538Y-11953920D02*
X13087538Y-11944397D01*
X13087538Y-11944397D02*
X13078014Y-11925349D01*
X13078014Y-11925349D02*
X13058966Y-11915825D01*
X13058966Y-11915825D02*
X13030395Y-11915825D01*
X13030395Y-11915825D02*
X13011347Y-11906301D01*
X13011347Y-11906301D02*
X13001824Y-11887254D01*
X13001824Y-11887254D02*
X13001824Y-11877730D01*
X13001824Y-11877730D02*
X13011347Y-11858682D01*
X13011347Y-11858682D02*
X13030395Y-11849159D01*
X13030395Y-11849159D02*
X13058966Y-11849159D01*
X13058966Y-11849159D02*
X13078014Y-11858682D01*
X13201824Y-11982492D02*
X13182776Y-11972968D01*
X13182776Y-11972968D02*
X13173252Y-11953920D01*
X13173252Y-11953920D02*
X13173252Y-11782492D01*
X13306585Y-11982492D02*
X13287538Y-11972968D01*
X13287538Y-11972968D02*
X13278014Y-11963444D01*
X13278014Y-11963444D02*
X13268490Y-11944397D01*
X13268490Y-11944397D02*
X13268490Y-11887254D01*
X13268490Y-11887254D02*
X13278014Y-11868206D01*
X13278014Y-11868206D02*
X13287538Y-11858682D01*
X13287538Y-11858682D02*
X13306585Y-11849159D01*
X13306585Y-11849159D02*
X13335157Y-11849159D01*
X13335157Y-11849159D02*
X13354205Y-11858682D01*
X13354205Y-11858682D02*
X13363728Y-11868206D01*
X13363728Y-11868206D02*
X13373252Y-11887254D01*
X13373252Y-11887254D02*
X13373252Y-11944397D01*
X13373252Y-11944397D02*
X13363728Y-11963444D01*
X13363728Y-11963444D02*
X13354205Y-11972968D01*
X13354205Y-11972968D02*
X13335157Y-11982492D01*
X13335157Y-11982492D02*
X13306585Y-11982492D01*
X13430395Y-11849159D02*
X13506585Y-11849159D01*
X13458966Y-11782492D02*
X13458966Y-11953920D01*
X13458966Y-11953920D02*
X13468490Y-11972968D01*
X13468490Y-11972968D02*
X13487538Y-11982492D01*
X13487538Y-11982492D02*
X13506585Y-11982492D01*
X13563728Y-11972968D02*
X13582776Y-11982492D01*
X13582776Y-11982492D02*
X13620871Y-11982492D01*
X13620871Y-11982492D02*
X13639919Y-11972968D01*
X13639919Y-11972968D02*
X13649443Y-11953920D01*
X13649443Y-11953920D02*
X13649443Y-11944397D01*
X13649443Y-11944397D02*
X13639919Y-11925349D01*
X13639919Y-11925349D02*
X13620871Y-11915825D01*
X13620871Y-11915825D02*
X13592300Y-11915825D01*
X13592300Y-11915825D02*
X13573252Y-11906301D01*
X13573252Y-11906301D02*
X13563728Y-11887254D01*
X13563728Y-11887254D02*
X13563728Y-11877730D01*
X13563728Y-11877730D02*
X13573252Y-11858682D01*
X13573252Y-11858682D02*
X13592300Y-11849159D01*
X13592300Y-11849159D02*
X13620871Y-11849159D01*
X13620871Y-11849159D02*
X13639919Y-11858682D01*
X13716109Y-12058682D02*
X13725633Y-12049159D01*
X13725633Y-12049159D02*
X13744681Y-12020587D01*
X13744681Y-12020587D02*
X13754205Y-12001540D01*
X13754205Y-12001540D02*
X13763728Y-11972968D01*
X13763728Y-11972968D02*
X13773252Y-11925349D01*
X13773252Y-11925349D02*
X13773252Y-11887254D01*
X13773252Y-11887254D02*
X13763728Y-11839635D01*
X13763728Y-11839635D02*
X13754205Y-11811063D01*
X13754205Y-11811063D02*
X13744681Y-11792016D01*
X13744681Y-11792016D02*
X13725633Y-11763444D01*
X13725633Y-11763444D02*
X13716109Y-11753920D01*
D11*
X7313212Y-12176222D02*
X7313212Y-12133795D01*
X7270785Y-12133795D01*
X7270785Y-12176222D01*
X7313212Y-12176222D01*
D10*
X7620871Y-12046492D02*
X7639918Y-12046492D01*
X7639918Y-12046492D02*
X7658966Y-12056016D01*
X7658966Y-12056016D02*
X7668490Y-12065540D01*
X7668490Y-12065540D02*
X7678013Y-12084587D01*
X7678013Y-12084587D02*
X7687537Y-12122682D01*
X7687537Y-12122682D02*
X7687537Y-12170301D01*
X7687537Y-12170301D02*
X7678013Y-12208397D01*
X7678013Y-12208397D02*
X7668490Y-12227444D01*
X7668490Y-12227444D02*
X7658966Y-12236968D01*
X7658966Y-12236968D02*
X7639918Y-12246492D01*
X7639918Y-12246492D02*
X7620871Y-12246492D01*
X7620871Y-12246492D02*
X7601823Y-12236968D01*
X7601823Y-12236968D02*
X7592299Y-12227444D01*
X7592299Y-12227444D02*
X7582775Y-12208397D01*
X7582775Y-12208397D02*
X7573252Y-12170301D01*
X7573252Y-12170301D02*
X7573252Y-12122682D01*
X7573252Y-12122682D02*
X7582775Y-12084587D01*
X7582775Y-12084587D02*
X7592299Y-12065540D01*
X7592299Y-12065540D02*
X7601823Y-12056016D01*
X7601823Y-12056016D02*
X7620871Y-12046492D01*
X7773252Y-12227444D02*
X7782775Y-12236968D01*
X7782775Y-12236968D02*
X7773252Y-12246492D01*
X7773252Y-12246492D02*
X7763728Y-12236968D01*
X7763728Y-12236968D02*
X7773252Y-12227444D01*
X7773252Y-12227444D02*
X7773252Y-12246492D01*
X7954204Y-12046492D02*
X7916109Y-12046492D01*
X7916109Y-12046492D02*
X7897061Y-12056016D01*
X7897061Y-12056016D02*
X7887537Y-12065540D01*
X7887537Y-12065540D02*
X7868490Y-12094111D01*
X7868490Y-12094111D02*
X7858966Y-12132206D01*
X7858966Y-12132206D02*
X7858966Y-12208397D01*
X7858966Y-12208397D02*
X7868490Y-12227444D01*
X7868490Y-12227444D02*
X7878013Y-12236968D01*
X7878013Y-12236968D02*
X7897061Y-12246492D01*
X7897061Y-12246492D02*
X7935156Y-12246492D01*
X7935156Y-12246492D02*
X7954204Y-12236968D01*
X7954204Y-12236968D02*
X7963728Y-12227444D01*
X7963728Y-12227444D02*
X7973252Y-12208397D01*
X7973252Y-12208397D02*
X7973252Y-12160778D01*
X7973252Y-12160778D02*
X7963728Y-12141730D01*
X7963728Y-12141730D02*
X7954204Y-12132206D01*
X7954204Y-12132206D02*
X7935156Y-12122682D01*
X7935156Y-12122682D02*
X7897061Y-12122682D01*
X7897061Y-12122682D02*
X7878013Y-12132206D01*
X7878013Y-12132206D02*
X7868490Y-12141730D01*
X7868490Y-12141730D02*
X7858966Y-12160778D01*
X8097061Y-12046492D02*
X8116109Y-12046492D01*
X8116109Y-12046492D02*
X8135156Y-12056016D01*
X8135156Y-12056016D02*
X8144680Y-12065540D01*
X8144680Y-12065540D02*
X8154204Y-12084587D01*
X8154204Y-12084587D02*
X8163728Y-12122682D01*
X8163728Y-12122682D02*
X8163728Y-12170301D01*
X8163728Y-12170301D02*
X8154204Y-12208397D01*
X8154204Y-12208397D02*
X8144680Y-12227444D01*
X8144680Y-12227444D02*
X8135156Y-12236968D01*
X8135156Y-12236968D02*
X8116109Y-12246492D01*
X8116109Y-12246492D02*
X8097061Y-12246492D01*
X8097061Y-12246492D02*
X8078013Y-12236968D01*
X8078013Y-12236968D02*
X8068490Y-12227444D01*
X8068490Y-12227444D02*
X8058966Y-12208397D01*
X8058966Y-12208397D02*
X8049442Y-12170301D01*
X8049442Y-12170301D02*
X8049442Y-12122682D01*
X8049442Y-12122682D02*
X8058966Y-12084587D01*
X8058966Y-12084587D02*
X8068490Y-12065540D01*
X8068490Y-12065540D02*
X8078013Y-12056016D01*
X8078013Y-12056016D02*
X8097061Y-12046492D01*
X8287537Y-12046492D02*
X8306585Y-12046492D01*
X8306585Y-12046492D02*
X8325633Y-12056016D01*
X8325633Y-12056016D02*
X8335156Y-12065540D01*
X8335156Y-12065540D02*
X8344680Y-12084587D01*
X8344680Y-12084587D02*
X8354204Y-12122682D01*
X8354204Y-12122682D02*
X8354204Y-12170301D01*
X8354204Y-12170301D02*
X8344680Y-12208397D01*
X8344680Y-12208397D02*
X8335156Y-12227444D01*
X8335156Y-12227444D02*
X8325633Y-12236968D01*
X8325633Y-12236968D02*
X8306585Y-12246492D01*
X8306585Y-12246492D02*
X8287537Y-12246492D01*
X8287537Y-12246492D02*
X8268490Y-12236968D01*
X8268490Y-12236968D02*
X8258966Y-12227444D01*
X8258966Y-12227444D02*
X8249442Y-12208397D01*
X8249442Y-12208397D02*
X8239918Y-12170301D01*
X8239918Y-12170301D02*
X8239918Y-12122682D01*
X8239918Y-12122682D02*
X8249442Y-12084587D01*
X8249442Y-12084587D02*
X8258966Y-12065540D01*
X8258966Y-12065540D02*
X8268490Y-12056016D01*
X8268490Y-12056016D02*
X8287537Y-12046492D01*
X8439918Y-12246492D02*
X8439918Y-12113159D01*
X8439918Y-12132206D02*
X8449442Y-12122682D01*
X8449442Y-12122682D02*
X8468490Y-12113159D01*
X8468490Y-12113159D02*
X8497061Y-12113159D01*
X8497061Y-12113159D02*
X8516109Y-12122682D01*
X8516109Y-12122682D02*
X8525633Y-12141730D01*
X8525633Y-12141730D02*
X8525633Y-12246492D01*
X8525633Y-12141730D02*
X8535156Y-12122682D01*
X8535156Y-12122682D02*
X8554204Y-12113159D01*
X8554204Y-12113159D02*
X8582775Y-12113159D01*
X8582775Y-12113159D02*
X8601823Y-12122682D01*
X8601823Y-12122682D02*
X8611347Y-12141730D01*
X8611347Y-12141730D02*
X8611347Y-12246492D01*
X8706585Y-12246492D02*
X8706585Y-12113159D01*
X8706585Y-12132206D02*
X8716109Y-12122682D01*
X8716109Y-12122682D02*
X8735156Y-12113159D01*
X8735156Y-12113159D02*
X8763728Y-12113159D01*
X8763728Y-12113159D02*
X8782776Y-12122682D01*
X8782776Y-12122682D02*
X8792299Y-12141730D01*
X8792299Y-12141730D02*
X8792299Y-12246492D01*
X8792299Y-12141730D02*
X8801823Y-12122682D01*
X8801823Y-12122682D02*
X8820871Y-12113159D01*
X8820871Y-12113159D02*
X8849442Y-12113159D01*
X8849442Y-12113159D02*
X8868490Y-12122682D01*
X8868490Y-12122682D02*
X8878014Y-12141730D01*
X8878014Y-12141730D02*
X8878014Y-12246492D01*
X9268490Y-12036968D02*
X9097061Y-12294111D01*
X9525633Y-12046492D02*
X9544680Y-12046492D01*
X9544680Y-12046492D02*
X9563728Y-12056016D01*
X9563728Y-12056016D02*
X9573252Y-12065540D01*
X9573252Y-12065540D02*
X9582776Y-12084587D01*
X9582776Y-12084587D02*
X9592299Y-12122682D01*
X9592299Y-12122682D02*
X9592299Y-12170301D01*
X9592299Y-12170301D02*
X9582776Y-12208397D01*
X9582776Y-12208397D02*
X9573252Y-12227444D01*
X9573252Y-12227444D02*
X9563728Y-12236968D01*
X9563728Y-12236968D02*
X9544680Y-12246492D01*
X9544680Y-12246492D02*
X9525633Y-12246492D01*
X9525633Y-12246492D02*
X9506585Y-12236968D01*
X9506585Y-12236968D02*
X9497061Y-12227444D01*
X9497061Y-12227444D02*
X9487538Y-12208397D01*
X9487538Y-12208397D02*
X9478014Y-12170301D01*
X9478014Y-12170301D02*
X9478014Y-12122682D01*
X9478014Y-12122682D02*
X9487538Y-12084587D01*
X9487538Y-12084587D02*
X9497061Y-12065540D01*
X9497061Y-12065540D02*
X9506585Y-12056016D01*
X9506585Y-12056016D02*
X9525633Y-12046492D01*
X9678014Y-12227444D02*
X9687538Y-12236968D01*
X9687538Y-12236968D02*
X9678014Y-12246492D01*
X9678014Y-12246492D02*
X9668490Y-12236968D01*
X9668490Y-12236968D02*
X9678014Y-12227444D01*
X9678014Y-12227444D02*
X9678014Y-12246492D01*
X9811347Y-12046492D02*
X9830395Y-12046492D01*
X9830395Y-12046492D02*
X9849442Y-12056016D01*
X9849442Y-12056016D02*
X9858966Y-12065540D01*
X9858966Y-12065540D02*
X9868490Y-12084587D01*
X9868490Y-12084587D02*
X9878014Y-12122682D01*
X9878014Y-12122682D02*
X9878014Y-12170301D01*
X9878014Y-12170301D02*
X9868490Y-12208397D01*
X9868490Y-12208397D02*
X9858966Y-12227444D01*
X9858966Y-12227444D02*
X9849442Y-12236968D01*
X9849442Y-12236968D02*
X9830395Y-12246492D01*
X9830395Y-12246492D02*
X9811347Y-12246492D01*
X9811347Y-12246492D02*
X9792299Y-12236968D01*
X9792299Y-12236968D02*
X9782776Y-12227444D01*
X9782776Y-12227444D02*
X9773252Y-12208397D01*
X9773252Y-12208397D02*
X9763728Y-12170301D01*
X9763728Y-12170301D02*
X9763728Y-12122682D01*
X9763728Y-12122682D02*
X9773252Y-12084587D01*
X9773252Y-12084587D02*
X9782776Y-12065540D01*
X9782776Y-12065540D02*
X9792299Y-12056016D01*
X9792299Y-12056016D02*
X9811347Y-12046492D01*
X9954204Y-12065540D02*
X9963728Y-12056016D01*
X9963728Y-12056016D02*
X9982776Y-12046492D01*
X9982776Y-12046492D02*
X10030395Y-12046492D01*
X10030395Y-12046492D02*
X10049442Y-12056016D01*
X10049442Y-12056016D02*
X10058966Y-12065540D01*
X10058966Y-12065540D02*
X10068490Y-12084587D01*
X10068490Y-12084587D02*
X10068490Y-12103635D01*
X10068490Y-12103635D02*
X10058966Y-12132206D01*
X10058966Y-12132206D02*
X9944680Y-12246492D01*
X9944680Y-12246492D02*
X10068490Y-12246492D01*
X10135157Y-12046492D02*
X10258966Y-12046492D01*
X10258966Y-12046492D02*
X10192299Y-12122682D01*
X10192299Y-12122682D02*
X10220871Y-12122682D01*
X10220871Y-12122682D02*
X10239919Y-12132206D01*
X10239919Y-12132206D02*
X10249442Y-12141730D01*
X10249442Y-12141730D02*
X10258966Y-12160778D01*
X10258966Y-12160778D02*
X10258966Y-12208397D01*
X10258966Y-12208397D02*
X10249442Y-12227444D01*
X10249442Y-12227444D02*
X10239919Y-12236968D01*
X10239919Y-12236968D02*
X10220871Y-12246492D01*
X10220871Y-12246492D02*
X10163728Y-12246492D01*
X10163728Y-12246492D02*
X10144680Y-12236968D01*
X10144680Y-12236968D02*
X10135157Y-12227444D01*
X10430395Y-12046492D02*
X10392299Y-12046492D01*
X10392299Y-12046492D02*
X10373252Y-12056016D01*
X10373252Y-12056016D02*
X10363728Y-12065540D01*
X10363728Y-12065540D02*
X10344680Y-12094111D01*
X10344680Y-12094111D02*
X10335157Y-12132206D01*
X10335157Y-12132206D02*
X10335157Y-12208397D01*
X10335157Y-12208397D02*
X10344680Y-12227444D01*
X10344680Y-12227444D02*
X10354204Y-12236968D01*
X10354204Y-12236968D02*
X10373252Y-12246492D01*
X10373252Y-12246492D02*
X10411347Y-12246492D01*
X10411347Y-12246492D02*
X10430395Y-12236968D01*
X10430395Y-12236968D02*
X10439919Y-12227444D01*
X10439919Y-12227444D02*
X10449442Y-12208397D01*
X10449442Y-12208397D02*
X10449442Y-12160778D01*
X10449442Y-12160778D02*
X10439919Y-12141730D01*
X10439919Y-12141730D02*
X10430395Y-12132206D01*
X10430395Y-12132206D02*
X10411347Y-12122682D01*
X10411347Y-12122682D02*
X10373252Y-12122682D01*
X10373252Y-12122682D02*
X10354204Y-12132206D01*
X10354204Y-12132206D02*
X10344680Y-12141730D01*
X10344680Y-12141730D02*
X10335157Y-12160778D01*
X10525633Y-12046492D02*
X10525633Y-12084587D01*
X10601823Y-12046492D02*
X10601823Y-12084587D01*
X10897062Y-12322682D02*
X10887538Y-12313159D01*
X10887538Y-12313159D02*
X10868490Y-12284587D01*
X10868490Y-12284587D02*
X10858966Y-12265540D01*
X10858966Y-12265540D02*
X10849442Y-12236968D01*
X10849442Y-12236968D02*
X10839919Y-12189349D01*
X10839919Y-12189349D02*
X10839919Y-12151254D01*
X10839919Y-12151254D02*
X10849442Y-12103635D01*
X10849442Y-12103635D02*
X10858966Y-12075063D01*
X10858966Y-12075063D02*
X10868490Y-12056016D01*
X10868490Y-12056016D02*
X10887538Y-12027444D01*
X10887538Y-12027444D02*
X10897062Y-12017920D01*
X11078014Y-12246492D02*
X10963728Y-12246492D01*
X11020871Y-12246492D02*
X11020871Y-12046492D01*
X11020871Y-12046492D02*
X11001823Y-12075063D01*
X11001823Y-12075063D02*
X10982776Y-12094111D01*
X10982776Y-12094111D02*
X10963728Y-12103635D01*
X11144681Y-12046492D02*
X11268490Y-12046492D01*
X11268490Y-12046492D02*
X11201823Y-12122682D01*
X11201823Y-12122682D02*
X11230395Y-12122682D01*
X11230395Y-12122682D02*
X11249442Y-12132206D01*
X11249442Y-12132206D02*
X11258966Y-12141730D01*
X11258966Y-12141730D02*
X11268490Y-12160778D01*
X11268490Y-12160778D02*
X11268490Y-12208397D01*
X11268490Y-12208397D02*
X11258966Y-12227444D01*
X11258966Y-12227444D02*
X11249442Y-12236968D01*
X11249442Y-12236968D02*
X11230395Y-12246492D01*
X11230395Y-12246492D02*
X11173252Y-12246492D01*
X11173252Y-12246492D02*
X11154204Y-12236968D01*
X11154204Y-12236968D02*
X11144681Y-12227444D01*
X11506585Y-12246492D02*
X11506585Y-12046492D01*
X11592300Y-12246492D02*
X11592300Y-12141730D01*
X11592300Y-12141730D02*
X11582776Y-12122682D01*
X11582776Y-12122682D02*
X11563728Y-12113159D01*
X11563728Y-12113159D02*
X11535157Y-12113159D01*
X11535157Y-12113159D02*
X11516109Y-12122682D01*
X11516109Y-12122682D02*
X11506585Y-12132206D01*
X11716109Y-12246492D02*
X11697061Y-12236968D01*
X11697061Y-12236968D02*
X11687538Y-12227444D01*
X11687538Y-12227444D02*
X11678014Y-12208397D01*
X11678014Y-12208397D02*
X11678014Y-12151254D01*
X11678014Y-12151254D02*
X11687538Y-12132206D01*
X11687538Y-12132206D02*
X11697061Y-12122682D01*
X11697061Y-12122682D02*
X11716109Y-12113159D01*
X11716109Y-12113159D02*
X11744681Y-12113159D01*
X11744681Y-12113159D02*
X11763728Y-12122682D01*
X11763728Y-12122682D02*
X11773252Y-12132206D01*
X11773252Y-12132206D02*
X11782776Y-12151254D01*
X11782776Y-12151254D02*
X11782776Y-12208397D01*
X11782776Y-12208397D02*
X11773252Y-12227444D01*
X11773252Y-12227444D02*
X11763728Y-12236968D01*
X11763728Y-12236968D02*
X11744681Y-12246492D01*
X11744681Y-12246492D02*
X11716109Y-12246492D01*
X11897061Y-12246492D02*
X11878014Y-12236968D01*
X11878014Y-12236968D02*
X11868490Y-12217920D01*
X11868490Y-12217920D02*
X11868490Y-12046492D01*
X12049442Y-12236968D02*
X12030395Y-12246492D01*
X12030395Y-12246492D02*
X11992300Y-12246492D01*
X11992300Y-12246492D02*
X11973252Y-12236968D01*
X11973252Y-12236968D02*
X11963728Y-12217920D01*
X11963728Y-12217920D02*
X11963728Y-12141730D01*
X11963728Y-12141730D02*
X11973252Y-12122682D01*
X11973252Y-12122682D02*
X11992300Y-12113159D01*
X11992300Y-12113159D02*
X12030395Y-12113159D01*
X12030395Y-12113159D02*
X12049442Y-12122682D01*
X12049442Y-12122682D02*
X12058966Y-12141730D01*
X12058966Y-12141730D02*
X12058966Y-12160778D01*
X12058966Y-12160778D02*
X11963728Y-12179825D01*
X12135157Y-12236968D02*
X12154204Y-12246492D01*
X12154204Y-12246492D02*
X12192300Y-12246492D01*
X12192300Y-12246492D02*
X12211347Y-12236968D01*
X12211347Y-12236968D02*
X12220871Y-12217920D01*
X12220871Y-12217920D02*
X12220871Y-12208397D01*
X12220871Y-12208397D02*
X12211347Y-12189349D01*
X12211347Y-12189349D02*
X12192300Y-12179825D01*
X12192300Y-12179825D02*
X12163728Y-12179825D01*
X12163728Y-12179825D02*
X12144681Y-12170301D01*
X12144681Y-12170301D02*
X12135157Y-12151254D01*
X12135157Y-12151254D02*
X12135157Y-12141730D01*
X12135157Y-12141730D02*
X12144681Y-12122682D01*
X12144681Y-12122682D02*
X12163728Y-12113159D01*
X12163728Y-12113159D02*
X12192300Y-12113159D01*
X12192300Y-12113159D02*
X12211347Y-12122682D01*
X12287538Y-12322682D02*
X12297062Y-12313159D01*
X12297062Y-12313159D02*
X12316109Y-12284587D01*
X12316109Y-12284587D02*
X12325633Y-12265540D01*
X12325633Y-12265540D02*
X12335157Y-12236968D01*
X12335157Y-12236968D02*
X12344681Y-12189349D01*
X12344681Y-12189349D02*
X12344681Y-12151254D01*
X12344681Y-12151254D02*
X12335157Y-12103635D01*
X12335157Y-12103635D02*
X12325633Y-12075063D01*
X12325633Y-12075063D02*
X12316109Y-12056016D01*
X12316109Y-12056016D02*
X12297062Y-12027444D01*
X12297062Y-12027444D02*
X12287538Y-12017920D01*
D11*
X7281999Y-12459008D02*
X7321999Y-12419008D01*
X7281999Y-12379008D01*
X7241999Y-12419008D01*
X7281999Y-12459008D01*
D10*
X7620871Y-12310492D02*
X7639918Y-12310492D01*
X7639918Y-12310492D02*
X7658966Y-12320016D01*
X7658966Y-12320016D02*
X7668490Y-12329540D01*
X7668490Y-12329540D02*
X7678013Y-12348587D01*
X7678013Y-12348587D02*
X7687537Y-12386682D01*
X7687537Y-12386682D02*
X7687537Y-12434301D01*
X7687537Y-12434301D02*
X7678013Y-12472397D01*
X7678013Y-12472397D02*
X7668490Y-12491444D01*
X7668490Y-12491444D02*
X7658966Y-12500968D01*
X7658966Y-12500968D02*
X7639918Y-12510492D01*
X7639918Y-12510492D02*
X7620871Y-12510492D01*
X7620871Y-12510492D02*
X7601823Y-12500968D01*
X7601823Y-12500968D02*
X7592299Y-12491444D01*
X7592299Y-12491444D02*
X7582775Y-12472397D01*
X7582775Y-12472397D02*
X7573252Y-12434301D01*
X7573252Y-12434301D02*
X7573252Y-12386682D01*
X7573252Y-12386682D02*
X7582775Y-12348587D01*
X7582775Y-12348587D02*
X7592299Y-12329540D01*
X7592299Y-12329540D02*
X7601823Y-12320016D01*
X7601823Y-12320016D02*
X7620871Y-12310492D01*
X7773252Y-12491444D02*
X7782775Y-12500968D01*
X7782775Y-12500968D02*
X7773252Y-12510492D01*
X7773252Y-12510492D02*
X7763728Y-12500968D01*
X7763728Y-12500968D02*
X7773252Y-12491444D01*
X7773252Y-12491444D02*
X7773252Y-12510492D01*
X7897061Y-12396206D02*
X7878013Y-12386682D01*
X7878013Y-12386682D02*
X7868490Y-12377159D01*
X7868490Y-12377159D02*
X7858966Y-12358111D01*
X7858966Y-12358111D02*
X7858966Y-12348587D01*
X7858966Y-12348587D02*
X7868490Y-12329540D01*
X7868490Y-12329540D02*
X7878013Y-12320016D01*
X7878013Y-12320016D02*
X7897061Y-12310492D01*
X7897061Y-12310492D02*
X7935156Y-12310492D01*
X7935156Y-12310492D02*
X7954204Y-12320016D01*
X7954204Y-12320016D02*
X7963728Y-12329540D01*
X7963728Y-12329540D02*
X7973252Y-12348587D01*
X7973252Y-12348587D02*
X7973252Y-12358111D01*
X7973252Y-12358111D02*
X7963728Y-12377159D01*
X7963728Y-12377159D02*
X7954204Y-12386682D01*
X7954204Y-12386682D02*
X7935156Y-12396206D01*
X7935156Y-12396206D02*
X7897061Y-12396206D01*
X7897061Y-12396206D02*
X7878013Y-12405730D01*
X7878013Y-12405730D02*
X7868490Y-12415254D01*
X7868490Y-12415254D02*
X7858966Y-12434301D01*
X7858966Y-12434301D02*
X7858966Y-12472397D01*
X7858966Y-12472397D02*
X7868490Y-12491444D01*
X7868490Y-12491444D02*
X7878013Y-12500968D01*
X7878013Y-12500968D02*
X7897061Y-12510492D01*
X7897061Y-12510492D02*
X7935156Y-12510492D01*
X7935156Y-12510492D02*
X7954204Y-12500968D01*
X7954204Y-12500968D02*
X7963728Y-12491444D01*
X7963728Y-12491444D02*
X7973252Y-12472397D01*
X7973252Y-12472397D02*
X7973252Y-12434301D01*
X7973252Y-12434301D02*
X7963728Y-12415254D01*
X7963728Y-12415254D02*
X7954204Y-12405730D01*
X7954204Y-12405730D02*
X7935156Y-12396206D01*
X8097061Y-12310492D02*
X8116109Y-12310492D01*
X8116109Y-12310492D02*
X8135156Y-12320016D01*
X8135156Y-12320016D02*
X8144680Y-12329540D01*
X8144680Y-12329540D02*
X8154204Y-12348587D01*
X8154204Y-12348587D02*
X8163728Y-12386682D01*
X8163728Y-12386682D02*
X8163728Y-12434301D01*
X8163728Y-12434301D02*
X8154204Y-12472397D01*
X8154204Y-12472397D02*
X8144680Y-12491444D01*
X8144680Y-12491444D02*
X8135156Y-12500968D01*
X8135156Y-12500968D02*
X8116109Y-12510492D01*
X8116109Y-12510492D02*
X8097061Y-12510492D01*
X8097061Y-12510492D02*
X8078013Y-12500968D01*
X8078013Y-12500968D02*
X8068490Y-12491444D01*
X8068490Y-12491444D02*
X8058966Y-12472397D01*
X8058966Y-12472397D02*
X8049442Y-12434301D01*
X8049442Y-12434301D02*
X8049442Y-12386682D01*
X8049442Y-12386682D02*
X8058966Y-12348587D01*
X8058966Y-12348587D02*
X8068490Y-12329540D01*
X8068490Y-12329540D02*
X8078013Y-12320016D01*
X8078013Y-12320016D02*
X8097061Y-12310492D01*
X8287537Y-12310492D02*
X8306585Y-12310492D01*
X8306585Y-12310492D02*
X8325633Y-12320016D01*
X8325633Y-12320016D02*
X8335156Y-12329540D01*
X8335156Y-12329540D02*
X8344680Y-12348587D01*
X8344680Y-12348587D02*
X8354204Y-12386682D01*
X8354204Y-12386682D02*
X8354204Y-12434301D01*
X8354204Y-12434301D02*
X8344680Y-12472397D01*
X8344680Y-12472397D02*
X8335156Y-12491444D01*
X8335156Y-12491444D02*
X8325633Y-12500968D01*
X8325633Y-12500968D02*
X8306585Y-12510492D01*
X8306585Y-12510492D02*
X8287537Y-12510492D01*
X8287537Y-12510492D02*
X8268490Y-12500968D01*
X8268490Y-12500968D02*
X8258966Y-12491444D01*
X8258966Y-12491444D02*
X8249442Y-12472397D01*
X8249442Y-12472397D02*
X8239918Y-12434301D01*
X8239918Y-12434301D02*
X8239918Y-12386682D01*
X8239918Y-12386682D02*
X8249442Y-12348587D01*
X8249442Y-12348587D02*
X8258966Y-12329540D01*
X8258966Y-12329540D02*
X8268490Y-12320016D01*
X8268490Y-12320016D02*
X8287537Y-12310492D01*
X8439918Y-12510492D02*
X8439918Y-12377159D01*
X8439918Y-12396206D02*
X8449442Y-12386682D01*
X8449442Y-12386682D02*
X8468490Y-12377159D01*
X8468490Y-12377159D02*
X8497061Y-12377159D01*
X8497061Y-12377159D02*
X8516109Y-12386682D01*
X8516109Y-12386682D02*
X8525633Y-12405730D01*
X8525633Y-12405730D02*
X8525633Y-12510492D01*
X8525633Y-12405730D02*
X8535156Y-12386682D01*
X8535156Y-12386682D02*
X8554204Y-12377159D01*
X8554204Y-12377159D02*
X8582775Y-12377159D01*
X8582775Y-12377159D02*
X8601823Y-12386682D01*
X8601823Y-12386682D02*
X8611347Y-12405730D01*
X8611347Y-12405730D02*
X8611347Y-12510492D01*
X8706585Y-12510492D02*
X8706585Y-12377159D01*
X8706585Y-12396206D02*
X8716109Y-12386682D01*
X8716109Y-12386682D02*
X8735156Y-12377159D01*
X8735156Y-12377159D02*
X8763728Y-12377159D01*
X8763728Y-12377159D02*
X8782776Y-12386682D01*
X8782776Y-12386682D02*
X8792299Y-12405730D01*
X8792299Y-12405730D02*
X8792299Y-12510492D01*
X8792299Y-12405730D02*
X8801823Y-12386682D01*
X8801823Y-12386682D02*
X8820871Y-12377159D01*
X8820871Y-12377159D02*
X8849442Y-12377159D01*
X8849442Y-12377159D02*
X8868490Y-12386682D01*
X8868490Y-12386682D02*
X8878014Y-12405730D01*
X8878014Y-12405730D02*
X8878014Y-12510492D01*
X9268490Y-12300968D02*
X9097061Y-12558111D01*
X9525633Y-12310492D02*
X9544680Y-12310492D01*
X9544680Y-12310492D02*
X9563728Y-12320016D01*
X9563728Y-12320016D02*
X9573252Y-12329540D01*
X9573252Y-12329540D02*
X9582776Y-12348587D01*
X9582776Y-12348587D02*
X9592299Y-12386682D01*
X9592299Y-12386682D02*
X9592299Y-12434301D01*
X9592299Y-12434301D02*
X9582776Y-12472397D01*
X9582776Y-12472397D02*
X9573252Y-12491444D01*
X9573252Y-12491444D02*
X9563728Y-12500968D01*
X9563728Y-12500968D02*
X9544680Y-12510492D01*
X9544680Y-12510492D02*
X9525633Y-12510492D01*
X9525633Y-12510492D02*
X9506585Y-12500968D01*
X9506585Y-12500968D02*
X9497061Y-12491444D01*
X9497061Y-12491444D02*
X9487538Y-12472397D01*
X9487538Y-12472397D02*
X9478014Y-12434301D01*
X9478014Y-12434301D02*
X9478014Y-12386682D01*
X9478014Y-12386682D02*
X9487538Y-12348587D01*
X9487538Y-12348587D02*
X9497061Y-12329540D01*
X9497061Y-12329540D02*
X9506585Y-12320016D01*
X9506585Y-12320016D02*
X9525633Y-12310492D01*
X9678014Y-12491444D02*
X9687538Y-12500968D01*
X9687538Y-12500968D02*
X9678014Y-12510492D01*
X9678014Y-12510492D02*
X9668490Y-12500968D01*
X9668490Y-12500968D02*
X9678014Y-12491444D01*
X9678014Y-12491444D02*
X9678014Y-12510492D01*
X9811347Y-12310492D02*
X9830395Y-12310492D01*
X9830395Y-12310492D02*
X9849442Y-12320016D01*
X9849442Y-12320016D02*
X9858966Y-12329540D01*
X9858966Y-12329540D02*
X9868490Y-12348587D01*
X9868490Y-12348587D02*
X9878014Y-12386682D01*
X9878014Y-12386682D02*
X9878014Y-12434301D01*
X9878014Y-12434301D02*
X9868490Y-12472397D01*
X9868490Y-12472397D02*
X9858966Y-12491444D01*
X9858966Y-12491444D02*
X9849442Y-12500968D01*
X9849442Y-12500968D02*
X9830395Y-12510492D01*
X9830395Y-12510492D02*
X9811347Y-12510492D01*
X9811347Y-12510492D02*
X9792299Y-12500968D01*
X9792299Y-12500968D02*
X9782776Y-12491444D01*
X9782776Y-12491444D02*
X9773252Y-12472397D01*
X9773252Y-12472397D02*
X9763728Y-12434301D01*
X9763728Y-12434301D02*
X9763728Y-12386682D01*
X9763728Y-12386682D02*
X9773252Y-12348587D01*
X9773252Y-12348587D02*
X9782776Y-12329540D01*
X9782776Y-12329540D02*
X9792299Y-12320016D01*
X9792299Y-12320016D02*
X9811347Y-12310492D01*
X9944680Y-12310492D02*
X10068490Y-12310492D01*
X10068490Y-12310492D02*
X10001823Y-12386682D01*
X10001823Y-12386682D02*
X10030395Y-12386682D01*
X10030395Y-12386682D02*
X10049442Y-12396206D01*
X10049442Y-12396206D02*
X10058966Y-12405730D01*
X10058966Y-12405730D02*
X10068490Y-12424778D01*
X10068490Y-12424778D02*
X10068490Y-12472397D01*
X10068490Y-12472397D02*
X10058966Y-12491444D01*
X10058966Y-12491444D02*
X10049442Y-12500968D01*
X10049442Y-12500968D02*
X10030395Y-12510492D01*
X10030395Y-12510492D02*
X9973252Y-12510492D01*
X9973252Y-12510492D02*
X9954204Y-12500968D01*
X9954204Y-12500968D02*
X9944680Y-12491444D01*
X10258966Y-12510492D02*
X10144680Y-12510492D01*
X10201823Y-12510492D02*
X10201823Y-12310492D01*
X10201823Y-12310492D02*
X10182776Y-12339063D01*
X10182776Y-12339063D02*
X10163728Y-12358111D01*
X10163728Y-12358111D02*
X10144680Y-12367635D01*
X10439919Y-12310492D02*
X10344680Y-12310492D01*
X10344680Y-12310492D02*
X10335157Y-12405730D01*
X10335157Y-12405730D02*
X10344680Y-12396206D01*
X10344680Y-12396206D02*
X10363728Y-12386682D01*
X10363728Y-12386682D02*
X10411347Y-12386682D01*
X10411347Y-12386682D02*
X10430395Y-12396206D01*
X10430395Y-12396206D02*
X10439919Y-12405730D01*
X10439919Y-12405730D02*
X10449442Y-12424778D01*
X10449442Y-12424778D02*
X10449442Y-12472397D01*
X10449442Y-12472397D02*
X10439919Y-12491444D01*
X10439919Y-12491444D02*
X10430395Y-12500968D01*
X10430395Y-12500968D02*
X10411347Y-12510492D01*
X10411347Y-12510492D02*
X10363728Y-12510492D01*
X10363728Y-12510492D02*
X10344680Y-12500968D01*
X10344680Y-12500968D02*
X10335157Y-12491444D01*
X10525633Y-12310492D02*
X10525633Y-12348587D01*
X10601823Y-12310492D02*
X10601823Y-12348587D01*
X10897062Y-12586682D02*
X10887538Y-12577159D01*
X10887538Y-12577159D02*
X10868490Y-12548587D01*
X10868490Y-12548587D02*
X10858966Y-12529540D01*
X10858966Y-12529540D02*
X10849442Y-12500968D01*
X10849442Y-12500968D02*
X10839919Y-12453349D01*
X10839919Y-12453349D02*
X10839919Y-12415254D01*
X10839919Y-12415254D02*
X10849442Y-12367635D01*
X10849442Y-12367635D02*
X10858966Y-12339063D01*
X10858966Y-12339063D02*
X10868490Y-12320016D01*
X10868490Y-12320016D02*
X10887538Y-12291444D01*
X10887538Y-12291444D02*
X10897062Y-12281920D01*
X11058966Y-12377159D02*
X11058966Y-12510492D01*
X11011347Y-12300968D02*
X10963728Y-12443825D01*
X10963728Y-12443825D02*
X11087538Y-12443825D01*
X11316109Y-12510492D02*
X11316109Y-12310492D01*
X11401823Y-12510492D02*
X11401823Y-12405730D01*
X11401823Y-12405730D02*
X11392300Y-12386682D01*
X11392300Y-12386682D02*
X11373252Y-12377159D01*
X11373252Y-12377159D02*
X11344680Y-12377159D01*
X11344680Y-12377159D02*
X11325633Y-12386682D01*
X11325633Y-12386682D02*
X11316109Y-12396206D01*
X11525633Y-12510492D02*
X11506585Y-12500968D01*
X11506585Y-12500968D02*
X11497061Y-12491444D01*
X11497061Y-12491444D02*
X11487538Y-12472397D01*
X11487538Y-12472397D02*
X11487538Y-12415254D01*
X11487538Y-12415254D02*
X11497061Y-12396206D01*
X11497061Y-12396206D02*
X11506585Y-12386682D01*
X11506585Y-12386682D02*
X11525633Y-12377159D01*
X11525633Y-12377159D02*
X11554204Y-12377159D01*
X11554204Y-12377159D02*
X11573252Y-12386682D01*
X11573252Y-12386682D02*
X11582776Y-12396206D01*
X11582776Y-12396206D02*
X11592300Y-12415254D01*
X11592300Y-12415254D02*
X11592300Y-12472397D01*
X11592300Y-12472397D02*
X11582776Y-12491444D01*
X11582776Y-12491444D02*
X11573252Y-12500968D01*
X11573252Y-12500968D02*
X11554204Y-12510492D01*
X11554204Y-12510492D02*
X11525633Y-12510492D01*
X11706585Y-12510492D02*
X11687538Y-12500968D01*
X11687538Y-12500968D02*
X11678014Y-12481920D01*
X11678014Y-12481920D02*
X11678014Y-12310492D01*
X11858966Y-12500968D02*
X11839919Y-12510492D01*
X11839919Y-12510492D02*
X11801823Y-12510492D01*
X11801823Y-12510492D02*
X11782776Y-12500968D01*
X11782776Y-12500968D02*
X11773252Y-12481920D01*
X11773252Y-12481920D02*
X11773252Y-12405730D01*
X11773252Y-12405730D02*
X11782776Y-12386682D01*
X11782776Y-12386682D02*
X11801823Y-12377159D01*
X11801823Y-12377159D02*
X11839919Y-12377159D01*
X11839919Y-12377159D02*
X11858966Y-12386682D01*
X11858966Y-12386682D02*
X11868490Y-12405730D01*
X11868490Y-12405730D02*
X11868490Y-12424778D01*
X11868490Y-12424778D02*
X11773252Y-12443825D01*
X11944681Y-12500968D02*
X11963728Y-12510492D01*
X11963728Y-12510492D02*
X12001823Y-12510492D01*
X12001823Y-12510492D02*
X12020871Y-12500968D01*
X12020871Y-12500968D02*
X12030395Y-12481920D01*
X12030395Y-12481920D02*
X12030395Y-12472397D01*
X12030395Y-12472397D02*
X12020871Y-12453349D01*
X12020871Y-12453349D02*
X12001823Y-12443825D01*
X12001823Y-12443825D02*
X11973252Y-12443825D01*
X11973252Y-12443825D02*
X11954204Y-12434301D01*
X11954204Y-12434301D02*
X11944681Y-12415254D01*
X11944681Y-12415254D02*
X11944681Y-12405730D01*
X11944681Y-12405730D02*
X11954204Y-12386682D01*
X11954204Y-12386682D02*
X11973252Y-12377159D01*
X11973252Y-12377159D02*
X12001823Y-12377159D01*
X12001823Y-12377159D02*
X12020871Y-12386682D01*
X12097062Y-12586682D02*
X12106585Y-12577159D01*
X12106585Y-12577159D02*
X12125633Y-12548587D01*
X12125633Y-12548587D02*
X12135157Y-12529540D01*
X12135157Y-12529540D02*
X12144681Y-12500968D01*
X12144681Y-12500968D02*
X12154204Y-12453349D01*
X12154204Y-12453349D02*
X12154204Y-12415254D01*
X12154204Y-12415254D02*
X12144681Y-12367635D01*
X12144681Y-12367635D02*
X12135157Y-12339063D01*
X12135157Y-12339063D02*
X12125633Y-12320016D01*
X12125633Y-12320016D02*
X12106585Y-12291444D01*
X12106585Y-12291444D02*
X12097062Y-12281920D01*
D12*
X7201999Y-12623008D02*
X7321999Y-12743008D01*
X7321999Y-12623008D02*
X7201999Y-12743008D01*
X7321999Y-12683008D02*
G75*
G02*
X7201999Y-12683008I-60000J0D01*
G01*
X7201999Y-12683008D02*
G75*
G02*
X7321999Y-12683008I60000J0D01*
G01*
D10*
X7687537Y-12774492D02*
X7573252Y-12774492D01*
X7630394Y-12774492D02*
X7630394Y-12574492D01*
X7630394Y-12574492D02*
X7611347Y-12603063D01*
X7611347Y-12603063D02*
X7592299Y-12622111D01*
X7592299Y-12622111D02*
X7573252Y-12631635D01*
X7773252Y-12755444D02*
X7782775Y-12764968D01*
X7782775Y-12764968D02*
X7773252Y-12774492D01*
X7773252Y-12774492D02*
X7763728Y-12764968D01*
X7763728Y-12764968D02*
X7773252Y-12755444D01*
X7773252Y-12755444D02*
X7773252Y-12774492D01*
X7858966Y-12593540D02*
X7868490Y-12584016D01*
X7868490Y-12584016D02*
X7887537Y-12574492D01*
X7887537Y-12574492D02*
X7935156Y-12574492D01*
X7935156Y-12574492D02*
X7954204Y-12584016D01*
X7954204Y-12584016D02*
X7963728Y-12593540D01*
X7963728Y-12593540D02*
X7973252Y-12612587D01*
X7973252Y-12612587D02*
X7973252Y-12631635D01*
X7973252Y-12631635D02*
X7963728Y-12660206D01*
X7963728Y-12660206D02*
X7849442Y-12774492D01*
X7849442Y-12774492D02*
X7973252Y-12774492D01*
X8097061Y-12574492D02*
X8116109Y-12574492D01*
X8116109Y-12574492D02*
X8135156Y-12584016D01*
X8135156Y-12584016D02*
X8144680Y-12593540D01*
X8144680Y-12593540D02*
X8154204Y-12612587D01*
X8154204Y-12612587D02*
X8163728Y-12650682D01*
X8163728Y-12650682D02*
X8163728Y-12698301D01*
X8163728Y-12698301D02*
X8154204Y-12736397D01*
X8154204Y-12736397D02*
X8144680Y-12755444D01*
X8144680Y-12755444D02*
X8135156Y-12764968D01*
X8135156Y-12764968D02*
X8116109Y-12774492D01*
X8116109Y-12774492D02*
X8097061Y-12774492D01*
X8097061Y-12774492D02*
X8078013Y-12764968D01*
X8078013Y-12764968D02*
X8068490Y-12755444D01*
X8068490Y-12755444D02*
X8058966Y-12736397D01*
X8058966Y-12736397D02*
X8049442Y-12698301D01*
X8049442Y-12698301D02*
X8049442Y-12650682D01*
X8049442Y-12650682D02*
X8058966Y-12612587D01*
X8058966Y-12612587D02*
X8068490Y-12593540D01*
X8068490Y-12593540D02*
X8078013Y-12584016D01*
X8078013Y-12584016D02*
X8097061Y-12574492D01*
X8287537Y-12574492D02*
X8306585Y-12574492D01*
X8306585Y-12574492D02*
X8325633Y-12584016D01*
X8325633Y-12584016D02*
X8335156Y-12593540D01*
X8335156Y-12593540D02*
X8344680Y-12612587D01*
X8344680Y-12612587D02*
X8354204Y-12650682D01*
X8354204Y-12650682D02*
X8354204Y-12698301D01*
X8354204Y-12698301D02*
X8344680Y-12736397D01*
X8344680Y-12736397D02*
X8335156Y-12755444D01*
X8335156Y-12755444D02*
X8325633Y-12764968D01*
X8325633Y-12764968D02*
X8306585Y-12774492D01*
X8306585Y-12774492D02*
X8287537Y-12774492D01*
X8287537Y-12774492D02*
X8268490Y-12764968D01*
X8268490Y-12764968D02*
X8258966Y-12755444D01*
X8258966Y-12755444D02*
X8249442Y-12736397D01*
X8249442Y-12736397D02*
X8239918Y-12698301D01*
X8239918Y-12698301D02*
X8239918Y-12650682D01*
X8239918Y-12650682D02*
X8249442Y-12612587D01*
X8249442Y-12612587D02*
X8258966Y-12593540D01*
X8258966Y-12593540D02*
X8268490Y-12584016D01*
X8268490Y-12584016D02*
X8287537Y-12574492D01*
X8439918Y-12774492D02*
X8439918Y-12641159D01*
X8439918Y-12660206D02*
X8449442Y-12650682D01*
X8449442Y-12650682D02*
X8468490Y-12641159D01*
X8468490Y-12641159D02*
X8497061Y-12641159D01*
X8497061Y-12641159D02*
X8516109Y-12650682D01*
X8516109Y-12650682D02*
X8525633Y-12669730D01*
X8525633Y-12669730D02*
X8525633Y-12774492D01*
X8525633Y-12669730D02*
X8535156Y-12650682D01*
X8535156Y-12650682D02*
X8554204Y-12641159D01*
X8554204Y-12641159D02*
X8582775Y-12641159D01*
X8582775Y-12641159D02*
X8601823Y-12650682D01*
X8601823Y-12650682D02*
X8611347Y-12669730D01*
X8611347Y-12669730D02*
X8611347Y-12774492D01*
X8706585Y-12774492D02*
X8706585Y-12641159D01*
X8706585Y-12660206D02*
X8716109Y-12650682D01*
X8716109Y-12650682D02*
X8735156Y-12641159D01*
X8735156Y-12641159D02*
X8763728Y-12641159D01*
X8763728Y-12641159D02*
X8782776Y-12650682D01*
X8782776Y-12650682D02*
X8792299Y-12669730D01*
X8792299Y-12669730D02*
X8792299Y-12774492D01*
X8792299Y-12669730D02*
X8801823Y-12650682D01*
X8801823Y-12650682D02*
X8820871Y-12641159D01*
X8820871Y-12641159D02*
X8849442Y-12641159D01*
X8849442Y-12641159D02*
X8868490Y-12650682D01*
X8868490Y-12650682D02*
X8878014Y-12669730D01*
X8878014Y-12669730D02*
X8878014Y-12774492D01*
X9268490Y-12564968D02*
X9097061Y-12822111D01*
X9525633Y-12574492D02*
X9544680Y-12574492D01*
X9544680Y-12574492D02*
X9563728Y-12584016D01*
X9563728Y-12584016D02*
X9573252Y-12593540D01*
X9573252Y-12593540D02*
X9582776Y-12612587D01*
X9582776Y-12612587D02*
X9592299Y-12650682D01*
X9592299Y-12650682D02*
X9592299Y-12698301D01*
X9592299Y-12698301D02*
X9582776Y-12736397D01*
X9582776Y-12736397D02*
X9573252Y-12755444D01*
X9573252Y-12755444D02*
X9563728Y-12764968D01*
X9563728Y-12764968D02*
X9544680Y-12774492D01*
X9544680Y-12774492D02*
X9525633Y-12774492D01*
X9525633Y-12774492D02*
X9506585Y-12764968D01*
X9506585Y-12764968D02*
X9497061Y-12755444D01*
X9497061Y-12755444D02*
X9487538Y-12736397D01*
X9487538Y-12736397D02*
X9478014Y-12698301D01*
X9478014Y-12698301D02*
X9478014Y-12650682D01*
X9478014Y-12650682D02*
X9487538Y-12612587D01*
X9487538Y-12612587D02*
X9497061Y-12593540D01*
X9497061Y-12593540D02*
X9506585Y-12584016D01*
X9506585Y-12584016D02*
X9525633Y-12574492D01*
X9678014Y-12755444D02*
X9687538Y-12764968D01*
X9687538Y-12764968D02*
X9678014Y-12774492D01*
X9678014Y-12774492D02*
X9668490Y-12764968D01*
X9668490Y-12764968D02*
X9678014Y-12755444D01*
X9678014Y-12755444D02*
X9678014Y-12774492D01*
X9811347Y-12574492D02*
X9830395Y-12574492D01*
X9830395Y-12574492D02*
X9849442Y-12584016D01*
X9849442Y-12584016D02*
X9858966Y-12593540D01*
X9858966Y-12593540D02*
X9868490Y-12612587D01*
X9868490Y-12612587D02*
X9878014Y-12650682D01*
X9878014Y-12650682D02*
X9878014Y-12698301D01*
X9878014Y-12698301D02*
X9868490Y-12736397D01*
X9868490Y-12736397D02*
X9858966Y-12755444D01*
X9858966Y-12755444D02*
X9849442Y-12764968D01*
X9849442Y-12764968D02*
X9830395Y-12774492D01*
X9830395Y-12774492D02*
X9811347Y-12774492D01*
X9811347Y-12774492D02*
X9792299Y-12764968D01*
X9792299Y-12764968D02*
X9782776Y-12755444D01*
X9782776Y-12755444D02*
X9773252Y-12736397D01*
X9773252Y-12736397D02*
X9763728Y-12698301D01*
X9763728Y-12698301D02*
X9763728Y-12650682D01*
X9763728Y-12650682D02*
X9773252Y-12612587D01*
X9773252Y-12612587D02*
X9782776Y-12593540D01*
X9782776Y-12593540D02*
X9792299Y-12584016D01*
X9792299Y-12584016D02*
X9811347Y-12574492D01*
X10049442Y-12641159D02*
X10049442Y-12774492D01*
X10001823Y-12564968D02*
X9954204Y-12707825D01*
X9954204Y-12707825D02*
X10078014Y-12707825D01*
X10135157Y-12574492D02*
X10268490Y-12574492D01*
X10268490Y-12574492D02*
X10182776Y-12774492D01*
X10335157Y-12593540D02*
X10344680Y-12584016D01*
X10344680Y-12584016D02*
X10363728Y-12574492D01*
X10363728Y-12574492D02*
X10411347Y-12574492D01*
X10411347Y-12574492D02*
X10430395Y-12584016D01*
X10430395Y-12584016D02*
X10439919Y-12593540D01*
X10439919Y-12593540D02*
X10449442Y-12612587D01*
X10449442Y-12612587D02*
X10449442Y-12631635D01*
X10449442Y-12631635D02*
X10439919Y-12660206D01*
X10439919Y-12660206D02*
X10325633Y-12774492D01*
X10325633Y-12774492D02*
X10449442Y-12774492D01*
X10525633Y-12574492D02*
X10525633Y-12612587D01*
X10601823Y-12574492D02*
X10601823Y-12612587D01*
X10897062Y-12850682D02*
X10887538Y-12841159D01*
X10887538Y-12841159D02*
X10868490Y-12812587D01*
X10868490Y-12812587D02*
X10858966Y-12793540D01*
X10858966Y-12793540D02*
X10849442Y-12764968D01*
X10849442Y-12764968D02*
X10839919Y-12717349D01*
X10839919Y-12717349D02*
X10839919Y-12679254D01*
X10839919Y-12679254D02*
X10849442Y-12631635D01*
X10849442Y-12631635D02*
X10858966Y-12603063D01*
X10858966Y-12603063D02*
X10868490Y-12584016D01*
X10868490Y-12584016D02*
X10887538Y-12555444D01*
X10887538Y-12555444D02*
X10897062Y-12545920D01*
X11078014Y-12774492D02*
X10963728Y-12774492D01*
X11020871Y-12774492D02*
X11020871Y-12574492D01*
X11020871Y-12574492D02*
X11001823Y-12603063D01*
X11001823Y-12603063D02*
X10982776Y-12622111D01*
X10982776Y-12622111D02*
X10963728Y-12631635D01*
X11249442Y-12574492D02*
X11211347Y-12574492D01*
X11211347Y-12574492D02*
X11192299Y-12584016D01*
X11192299Y-12584016D02*
X11182776Y-12593540D01*
X11182776Y-12593540D02*
X11163728Y-12622111D01*
X11163728Y-12622111D02*
X11154204Y-12660206D01*
X11154204Y-12660206D02*
X11154204Y-12736397D01*
X11154204Y-12736397D02*
X11163728Y-12755444D01*
X11163728Y-12755444D02*
X11173252Y-12764968D01*
X11173252Y-12764968D02*
X11192299Y-12774492D01*
X11192299Y-12774492D02*
X11230395Y-12774492D01*
X11230395Y-12774492D02*
X11249442Y-12764968D01*
X11249442Y-12764968D02*
X11258966Y-12755444D01*
X11258966Y-12755444D02*
X11268490Y-12736397D01*
X11268490Y-12736397D02*
X11268490Y-12688778D01*
X11268490Y-12688778D02*
X11258966Y-12669730D01*
X11258966Y-12669730D02*
X11249442Y-12660206D01*
X11249442Y-12660206D02*
X11230395Y-12650682D01*
X11230395Y-12650682D02*
X11192299Y-12650682D01*
X11192299Y-12650682D02*
X11173252Y-12660206D01*
X11173252Y-12660206D02*
X11163728Y-12669730D01*
X11163728Y-12669730D02*
X11154204Y-12688778D01*
X11506585Y-12774492D02*
X11506585Y-12574492D01*
X11592300Y-12774492D02*
X11592300Y-12669730D01*
X11592300Y-12669730D02*
X11582776Y-12650682D01*
X11582776Y-12650682D02*
X11563728Y-12641159D01*
X11563728Y-12641159D02*
X11535157Y-12641159D01*
X11535157Y-12641159D02*
X11516109Y-12650682D01*
X11516109Y-12650682D02*
X11506585Y-12660206D01*
X11716109Y-12774492D02*
X11697061Y-12764968D01*
X11697061Y-12764968D02*
X11687538Y-12755444D01*
X11687538Y-12755444D02*
X11678014Y-12736397D01*
X11678014Y-12736397D02*
X11678014Y-12679254D01*
X11678014Y-12679254D02*
X11687538Y-12660206D01*
X11687538Y-12660206D02*
X11697061Y-12650682D01*
X11697061Y-12650682D02*
X11716109Y-12641159D01*
X11716109Y-12641159D02*
X11744681Y-12641159D01*
X11744681Y-12641159D02*
X11763728Y-12650682D01*
X11763728Y-12650682D02*
X11773252Y-12660206D01*
X11773252Y-12660206D02*
X11782776Y-12679254D01*
X11782776Y-12679254D02*
X11782776Y-12736397D01*
X11782776Y-12736397D02*
X11773252Y-12755444D01*
X11773252Y-12755444D02*
X11763728Y-12764968D01*
X11763728Y-12764968D02*
X11744681Y-12774492D01*
X11744681Y-12774492D02*
X11716109Y-12774492D01*
X11897061Y-12774492D02*
X11878014Y-12764968D01*
X11878014Y-12764968D02*
X11868490Y-12745920D01*
X11868490Y-12745920D02*
X11868490Y-12574492D01*
X12049442Y-12764968D02*
X12030395Y-12774492D01*
X12030395Y-12774492D02*
X11992300Y-12774492D01*
X11992300Y-12774492D02*
X11973252Y-12764968D01*
X11973252Y-12764968D02*
X11963728Y-12745920D01*
X11963728Y-12745920D02*
X11963728Y-12669730D01*
X11963728Y-12669730D02*
X11973252Y-12650682D01*
X11973252Y-12650682D02*
X11992300Y-12641159D01*
X11992300Y-12641159D02*
X12030395Y-12641159D01*
X12030395Y-12641159D02*
X12049442Y-12650682D01*
X12049442Y-12650682D02*
X12058966Y-12669730D01*
X12058966Y-12669730D02*
X12058966Y-12688778D01*
X12058966Y-12688778D02*
X11963728Y-12707825D01*
X12135157Y-12764968D02*
X12154204Y-12774492D01*
X12154204Y-12774492D02*
X12192300Y-12774492D01*
X12192300Y-12774492D02*
X12211347Y-12764968D01*
X12211347Y-12764968D02*
X12220871Y-12745920D01*
X12220871Y-12745920D02*
X12220871Y-12736397D01*
X12220871Y-12736397D02*
X12211347Y-12717349D01*
X12211347Y-12717349D02*
X12192300Y-12707825D01*
X12192300Y-12707825D02*
X12163728Y-12707825D01*
X12163728Y-12707825D02*
X12144681Y-12698301D01*
X12144681Y-12698301D02*
X12135157Y-12679254D01*
X12135157Y-12679254D02*
X12135157Y-12669730D01*
X12135157Y-12669730D02*
X12144681Y-12650682D01*
X12144681Y-12650682D02*
X12163728Y-12641159D01*
X12163728Y-12641159D02*
X12192300Y-12641159D01*
X12192300Y-12641159D02*
X12211347Y-12650682D01*
X12287538Y-12850682D02*
X12297062Y-12841159D01*
X12297062Y-12841159D02*
X12316109Y-12812587D01*
X12316109Y-12812587D02*
X12325633Y-12793540D01*
X12325633Y-12793540D02*
X12335157Y-12764968D01*
X12335157Y-12764968D02*
X12344681Y-12717349D01*
X12344681Y-12717349D02*
X12344681Y-12679254D01*
X12344681Y-12679254D02*
X12335157Y-12631635D01*
X12335157Y-12631635D02*
X12325633Y-12603063D01*
X12325633Y-12603063D02*
X12316109Y-12584016D01*
X12316109Y-12584016D02*
X12297062Y-12555444D01*
X12297062Y-12555444D02*
X12287538Y-12545920D01*
D13*
X7171999Y-12872008D02*
X7321999Y-13022008D01*
X7321999Y-12872008D02*
X7171999Y-13022008D01*
X7246999Y-12872008D02*
X7246999Y-13022008D01*
X7171999Y-12947008D02*
X7321999Y-12947008D01*
D10*
X7687537Y-13038492D02*
X7573252Y-13038492D01*
X7630394Y-13038492D02*
X7630394Y-12838492D01*
X7630394Y-12838492D02*
X7611347Y-12867063D01*
X7611347Y-12867063D02*
X7592299Y-12886111D01*
X7592299Y-12886111D02*
X7573252Y-12895635D01*
X7773252Y-13019444D02*
X7782775Y-13028968D01*
X7782775Y-13028968D02*
X7773252Y-13038492D01*
X7773252Y-13038492D02*
X7763728Y-13028968D01*
X7763728Y-13028968D02*
X7773252Y-13019444D01*
X7773252Y-13019444D02*
X7773252Y-13038492D01*
X7963728Y-12838492D02*
X7868490Y-12838492D01*
X7868490Y-12838492D02*
X7858966Y-12933730D01*
X7858966Y-12933730D02*
X7868490Y-12924206D01*
X7868490Y-12924206D02*
X7887537Y-12914682D01*
X7887537Y-12914682D02*
X7935156Y-12914682D01*
X7935156Y-12914682D02*
X7954204Y-12924206D01*
X7954204Y-12924206D02*
X7963728Y-12933730D01*
X7963728Y-12933730D02*
X7973252Y-12952778D01*
X7973252Y-12952778D02*
X7973252Y-13000397D01*
X7973252Y-13000397D02*
X7963728Y-13019444D01*
X7963728Y-13019444D02*
X7954204Y-13028968D01*
X7954204Y-13028968D02*
X7935156Y-13038492D01*
X7935156Y-13038492D02*
X7887537Y-13038492D01*
X7887537Y-13038492D02*
X7868490Y-13028968D01*
X7868490Y-13028968D02*
X7858966Y-13019444D01*
X8097061Y-12838492D02*
X8116109Y-12838492D01*
X8116109Y-12838492D02*
X8135156Y-12848016D01*
X8135156Y-12848016D02*
X8144680Y-12857540D01*
X8144680Y-12857540D02*
X8154204Y-12876587D01*
X8154204Y-12876587D02*
X8163728Y-12914682D01*
X8163728Y-12914682D02*
X8163728Y-12962301D01*
X8163728Y-12962301D02*
X8154204Y-13000397D01*
X8154204Y-13000397D02*
X8144680Y-13019444D01*
X8144680Y-13019444D02*
X8135156Y-13028968D01*
X8135156Y-13028968D02*
X8116109Y-13038492D01*
X8116109Y-13038492D02*
X8097061Y-13038492D01*
X8097061Y-13038492D02*
X8078013Y-13028968D01*
X8078013Y-13028968D02*
X8068490Y-13019444D01*
X8068490Y-13019444D02*
X8058966Y-13000397D01*
X8058966Y-13000397D02*
X8049442Y-12962301D01*
X8049442Y-12962301D02*
X8049442Y-12914682D01*
X8049442Y-12914682D02*
X8058966Y-12876587D01*
X8058966Y-12876587D02*
X8068490Y-12857540D01*
X8068490Y-12857540D02*
X8078013Y-12848016D01*
X8078013Y-12848016D02*
X8097061Y-12838492D01*
X8287537Y-12838492D02*
X8306585Y-12838492D01*
X8306585Y-12838492D02*
X8325633Y-12848016D01*
X8325633Y-12848016D02*
X8335156Y-12857540D01*
X8335156Y-12857540D02*
X8344680Y-12876587D01*
X8344680Y-12876587D02*
X8354204Y-12914682D01*
X8354204Y-12914682D02*
X8354204Y-12962301D01*
X8354204Y-12962301D02*
X8344680Y-13000397D01*
X8344680Y-13000397D02*
X8335156Y-13019444D01*
X8335156Y-13019444D02*
X8325633Y-13028968D01*
X8325633Y-13028968D02*
X8306585Y-13038492D01*
X8306585Y-13038492D02*
X8287537Y-13038492D01*
X8287537Y-13038492D02*
X8268490Y-13028968D01*
X8268490Y-13028968D02*
X8258966Y-13019444D01*
X8258966Y-13019444D02*
X8249442Y-13000397D01*
X8249442Y-13000397D02*
X8239918Y-12962301D01*
X8239918Y-12962301D02*
X8239918Y-12914682D01*
X8239918Y-12914682D02*
X8249442Y-12876587D01*
X8249442Y-12876587D02*
X8258966Y-12857540D01*
X8258966Y-12857540D02*
X8268490Y-12848016D01*
X8268490Y-12848016D02*
X8287537Y-12838492D01*
X8439918Y-13038492D02*
X8439918Y-12905159D01*
X8439918Y-12924206D02*
X8449442Y-12914682D01*
X8449442Y-12914682D02*
X8468490Y-12905159D01*
X8468490Y-12905159D02*
X8497061Y-12905159D01*
X8497061Y-12905159D02*
X8516109Y-12914682D01*
X8516109Y-12914682D02*
X8525633Y-12933730D01*
X8525633Y-12933730D02*
X8525633Y-13038492D01*
X8525633Y-12933730D02*
X8535156Y-12914682D01*
X8535156Y-12914682D02*
X8554204Y-12905159D01*
X8554204Y-12905159D02*
X8582775Y-12905159D01*
X8582775Y-12905159D02*
X8601823Y-12914682D01*
X8601823Y-12914682D02*
X8611347Y-12933730D01*
X8611347Y-12933730D02*
X8611347Y-13038492D01*
X8706585Y-13038492D02*
X8706585Y-12905159D01*
X8706585Y-12924206D02*
X8716109Y-12914682D01*
X8716109Y-12914682D02*
X8735156Y-12905159D01*
X8735156Y-12905159D02*
X8763728Y-12905159D01*
X8763728Y-12905159D02*
X8782776Y-12914682D01*
X8782776Y-12914682D02*
X8792299Y-12933730D01*
X8792299Y-12933730D02*
X8792299Y-13038492D01*
X8792299Y-12933730D02*
X8801823Y-12914682D01*
X8801823Y-12914682D02*
X8820871Y-12905159D01*
X8820871Y-12905159D02*
X8849442Y-12905159D01*
X8849442Y-12905159D02*
X8868490Y-12914682D01*
X8868490Y-12914682D02*
X8878014Y-12933730D01*
X8878014Y-12933730D02*
X8878014Y-13038492D01*
X9268490Y-12828968D02*
X9097061Y-13086111D01*
X9525633Y-12838492D02*
X9544680Y-12838492D01*
X9544680Y-12838492D02*
X9563728Y-12848016D01*
X9563728Y-12848016D02*
X9573252Y-12857540D01*
X9573252Y-12857540D02*
X9582776Y-12876587D01*
X9582776Y-12876587D02*
X9592299Y-12914682D01*
X9592299Y-12914682D02*
X9592299Y-12962301D01*
X9592299Y-12962301D02*
X9582776Y-13000397D01*
X9582776Y-13000397D02*
X9573252Y-13019444D01*
X9573252Y-13019444D02*
X9563728Y-13028968D01*
X9563728Y-13028968D02*
X9544680Y-13038492D01*
X9544680Y-13038492D02*
X9525633Y-13038492D01*
X9525633Y-13038492D02*
X9506585Y-13028968D01*
X9506585Y-13028968D02*
X9497061Y-13019444D01*
X9497061Y-13019444D02*
X9487538Y-13000397D01*
X9487538Y-13000397D02*
X9478014Y-12962301D01*
X9478014Y-12962301D02*
X9478014Y-12914682D01*
X9478014Y-12914682D02*
X9487538Y-12876587D01*
X9487538Y-12876587D02*
X9497061Y-12857540D01*
X9497061Y-12857540D02*
X9506585Y-12848016D01*
X9506585Y-12848016D02*
X9525633Y-12838492D01*
X9678014Y-13019444D02*
X9687538Y-13028968D01*
X9687538Y-13028968D02*
X9678014Y-13038492D01*
X9678014Y-13038492D02*
X9668490Y-13028968D01*
X9668490Y-13028968D02*
X9678014Y-13019444D01*
X9678014Y-13019444D02*
X9678014Y-13038492D01*
X9811347Y-12838492D02*
X9830395Y-12838492D01*
X9830395Y-12838492D02*
X9849442Y-12848016D01*
X9849442Y-12848016D02*
X9858966Y-12857540D01*
X9858966Y-12857540D02*
X9868490Y-12876587D01*
X9868490Y-12876587D02*
X9878014Y-12914682D01*
X9878014Y-12914682D02*
X9878014Y-12962301D01*
X9878014Y-12962301D02*
X9868490Y-13000397D01*
X9868490Y-13000397D02*
X9858966Y-13019444D01*
X9858966Y-13019444D02*
X9849442Y-13028968D01*
X9849442Y-13028968D02*
X9830395Y-13038492D01*
X9830395Y-13038492D02*
X9811347Y-13038492D01*
X9811347Y-13038492D02*
X9792299Y-13028968D01*
X9792299Y-13028968D02*
X9782776Y-13019444D01*
X9782776Y-13019444D02*
X9773252Y-13000397D01*
X9773252Y-13000397D02*
X9763728Y-12962301D01*
X9763728Y-12962301D02*
X9763728Y-12914682D01*
X9763728Y-12914682D02*
X9773252Y-12876587D01*
X9773252Y-12876587D02*
X9782776Y-12857540D01*
X9782776Y-12857540D02*
X9792299Y-12848016D01*
X9792299Y-12848016D02*
X9811347Y-12838492D01*
X10058966Y-12838492D02*
X9963728Y-12838492D01*
X9963728Y-12838492D02*
X9954204Y-12933730D01*
X9954204Y-12933730D02*
X9963728Y-12924206D01*
X9963728Y-12924206D02*
X9982776Y-12914682D01*
X9982776Y-12914682D02*
X10030395Y-12914682D01*
X10030395Y-12914682D02*
X10049442Y-12924206D01*
X10049442Y-12924206D02*
X10058966Y-12933730D01*
X10058966Y-12933730D02*
X10068490Y-12952778D01*
X10068490Y-12952778D02*
X10068490Y-13000397D01*
X10068490Y-13000397D02*
X10058966Y-13019444D01*
X10058966Y-13019444D02*
X10049442Y-13028968D01*
X10049442Y-13028968D02*
X10030395Y-13038492D01*
X10030395Y-13038492D02*
X9982776Y-13038492D01*
X9982776Y-13038492D02*
X9963728Y-13028968D01*
X9963728Y-13028968D02*
X9954204Y-13019444D01*
X10163728Y-13038492D02*
X10201823Y-13038492D01*
X10201823Y-13038492D02*
X10220871Y-13028968D01*
X10220871Y-13028968D02*
X10230395Y-13019444D01*
X10230395Y-13019444D02*
X10249442Y-12990873D01*
X10249442Y-12990873D02*
X10258966Y-12952778D01*
X10258966Y-12952778D02*
X10258966Y-12876587D01*
X10258966Y-12876587D02*
X10249442Y-12857540D01*
X10249442Y-12857540D02*
X10239919Y-12848016D01*
X10239919Y-12848016D02*
X10220871Y-12838492D01*
X10220871Y-12838492D02*
X10182776Y-12838492D01*
X10182776Y-12838492D02*
X10163728Y-12848016D01*
X10163728Y-12848016D02*
X10154204Y-12857540D01*
X10154204Y-12857540D02*
X10144680Y-12876587D01*
X10144680Y-12876587D02*
X10144680Y-12924206D01*
X10144680Y-12924206D02*
X10154204Y-12943254D01*
X10154204Y-12943254D02*
X10163728Y-12952778D01*
X10163728Y-12952778D02*
X10182776Y-12962301D01*
X10182776Y-12962301D02*
X10220871Y-12962301D01*
X10220871Y-12962301D02*
X10239919Y-12952778D01*
X10239919Y-12952778D02*
X10249442Y-12943254D01*
X10249442Y-12943254D02*
X10258966Y-12924206D01*
X10449442Y-13038492D02*
X10335157Y-13038492D01*
X10392299Y-13038492D02*
X10392299Y-12838492D01*
X10392299Y-12838492D02*
X10373252Y-12867063D01*
X10373252Y-12867063D02*
X10354204Y-12886111D01*
X10354204Y-12886111D02*
X10335157Y-12895635D01*
X10525633Y-12838492D02*
X10525633Y-12876587D01*
X10601823Y-12838492D02*
X10601823Y-12876587D01*
X10897062Y-13114682D02*
X10887538Y-13105159D01*
X10887538Y-13105159D02*
X10868490Y-13076587D01*
X10868490Y-13076587D02*
X10858966Y-13057540D01*
X10858966Y-13057540D02*
X10849442Y-13028968D01*
X10849442Y-13028968D02*
X10839919Y-12981349D01*
X10839919Y-12981349D02*
X10839919Y-12943254D01*
X10839919Y-12943254D02*
X10849442Y-12895635D01*
X10849442Y-12895635D02*
X10858966Y-12867063D01*
X10858966Y-12867063D02*
X10868490Y-12848016D01*
X10868490Y-12848016D02*
X10887538Y-12819444D01*
X10887538Y-12819444D02*
X10897062Y-12809920D01*
X11058966Y-12905159D02*
X11058966Y-13038492D01*
X11011347Y-12828968D02*
X10963728Y-12971825D01*
X10963728Y-12971825D02*
X11087538Y-12971825D01*
X11316109Y-13038492D02*
X11316109Y-12838492D01*
X11401823Y-13038492D02*
X11401823Y-12933730D01*
X11401823Y-12933730D02*
X11392300Y-12914682D01*
X11392300Y-12914682D02*
X11373252Y-12905159D01*
X11373252Y-12905159D02*
X11344680Y-12905159D01*
X11344680Y-12905159D02*
X11325633Y-12914682D01*
X11325633Y-12914682D02*
X11316109Y-12924206D01*
X11525633Y-13038492D02*
X11506585Y-13028968D01*
X11506585Y-13028968D02*
X11497061Y-13019444D01*
X11497061Y-13019444D02*
X11487538Y-13000397D01*
X11487538Y-13000397D02*
X11487538Y-12943254D01*
X11487538Y-12943254D02*
X11497061Y-12924206D01*
X11497061Y-12924206D02*
X11506585Y-12914682D01*
X11506585Y-12914682D02*
X11525633Y-12905159D01*
X11525633Y-12905159D02*
X11554204Y-12905159D01*
X11554204Y-12905159D02*
X11573252Y-12914682D01*
X11573252Y-12914682D02*
X11582776Y-12924206D01*
X11582776Y-12924206D02*
X11592300Y-12943254D01*
X11592300Y-12943254D02*
X11592300Y-13000397D01*
X11592300Y-13000397D02*
X11582776Y-13019444D01*
X11582776Y-13019444D02*
X11573252Y-13028968D01*
X11573252Y-13028968D02*
X11554204Y-13038492D01*
X11554204Y-13038492D02*
X11525633Y-13038492D01*
X11706585Y-13038492D02*
X11687538Y-13028968D01*
X11687538Y-13028968D02*
X11678014Y-13009920D01*
X11678014Y-13009920D02*
X11678014Y-12838492D01*
X11858966Y-13028968D02*
X11839919Y-13038492D01*
X11839919Y-13038492D02*
X11801823Y-13038492D01*
X11801823Y-13038492D02*
X11782776Y-13028968D01*
X11782776Y-13028968D02*
X11773252Y-13009920D01*
X11773252Y-13009920D02*
X11773252Y-12933730D01*
X11773252Y-12933730D02*
X11782776Y-12914682D01*
X11782776Y-12914682D02*
X11801823Y-12905159D01*
X11801823Y-12905159D02*
X11839919Y-12905159D01*
X11839919Y-12905159D02*
X11858966Y-12914682D01*
X11858966Y-12914682D02*
X11868490Y-12933730D01*
X11868490Y-12933730D02*
X11868490Y-12952778D01*
X11868490Y-12952778D02*
X11773252Y-12971825D01*
X11944681Y-13028968D02*
X11963728Y-13038492D01*
X11963728Y-13038492D02*
X12001823Y-13038492D01*
X12001823Y-13038492D02*
X12020871Y-13028968D01*
X12020871Y-13028968D02*
X12030395Y-13009920D01*
X12030395Y-13009920D02*
X12030395Y-13000397D01*
X12030395Y-13000397D02*
X12020871Y-12981349D01*
X12020871Y-12981349D02*
X12001823Y-12971825D01*
X12001823Y-12971825D02*
X11973252Y-12971825D01*
X11973252Y-12971825D02*
X11954204Y-12962301D01*
X11954204Y-12962301D02*
X11944681Y-12943254D01*
X11944681Y-12943254D02*
X11944681Y-12933730D01*
X11944681Y-12933730D02*
X11954204Y-12914682D01*
X11954204Y-12914682D02*
X11973252Y-12905159D01*
X11973252Y-12905159D02*
X12001823Y-12905159D01*
X12001823Y-12905159D02*
X12020871Y-12914682D01*
X12097062Y-13114682D02*
X12106585Y-13105159D01*
X12106585Y-13105159D02*
X12125633Y-13076587D01*
X12125633Y-13076587D02*
X12135157Y-13057540D01*
X12135157Y-13057540D02*
X12144681Y-13028968D01*
X12144681Y-13028968D02*
X12154204Y-12981349D01*
X12154204Y-12981349D02*
X12154204Y-12943254D01*
X12154204Y-12943254D02*
X12144681Y-12895635D01*
X12144681Y-12895635D02*
X12135157Y-12867063D01*
X12135157Y-12867063D02*
X12125633Y-12848016D01*
X12125633Y-12848016D02*
X12106585Y-12819444D01*
X12106585Y-12819444D02*
X12097062Y-12809920D01*
D14*
X7161999Y-13137008D02*
X7321999Y-13297008D01*
X7321999Y-13137008D02*
X7161999Y-13297008D01*
X7298568Y-13273577D02*
X7298568Y-13160439D01*
X7185429Y-13160439D01*
X7185429Y-13273577D01*
X7298568Y-13273577D01*
D10*
X7687537Y-13308492D02*
X7573252Y-13308492D01*
X7630394Y-13308492D02*
X7630394Y-13108492D01*
X7630394Y-13108492D02*
X7611347Y-13137063D01*
X7611347Y-13137063D02*
X7592299Y-13156111D01*
X7592299Y-13156111D02*
X7573252Y-13165635D01*
X7773252Y-13289444D02*
X7782775Y-13298968D01*
X7782775Y-13298968D02*
X7773252Y-13308492D01*
X7773252Y-13308492D02*
X7763728Y-13298968D01*
X7763728Y-13298968D02*
X7773252Y-13289444D01*
X7773252Y-13289444D02*
X7773252Y-13308492D01*
X7954204Y-13108492D02*
X7916109Y-13108492D01*
X7916109Y-13108492D02*
X7897061Y-13118016D01*
X7897061Y-13118016D02*
X7887537Y-13127540D01*
X7887537Y-13127540D02*
X7868490Y-13156111D01*
X7868490Y-13156111D02*
X7858966Y-13194206D01*
X7858966Y-13194206D02*
X7858966Y-13270397D01*
X7858966Y-13270397D02*
X7868490Y-13289444D01*
X7868490Y-13289444D02*
X7878013Y-13298968D01*
X7878013Y-13298968D02*
X7897061Y-13308492D01*
X7897061Y-13308492D02*
X7935156Y-13308492D01*
X7935156Y-13308492D02*
X7954204Y-13298968D01*
X7954204Y-13298968D02*
X7963728Y-13289444D01*
X7963728Y-13289444D02*
X7973252Y-13270397D01*
X7973252Y-13270397D02*
X7973252Y-13222778D01*
X7973252Y-13222778D02*
X7963728Y-13203730D01*
X7963728Y-13203730D02*
X7954204Y-13194206D01*
X7954204Y-13194206D02*
X7935156Y-13184682D01*
X7935156Y-13184682D02*
X7897061Y-13184682D01*
X7897061Y-13184682D02*
X7878013Y-13194206D01*
X7878013Y-13194206D02*
X7868490Y-13203730D01*
X7868490Y-13203730D02*
X7858966Y-13222778D01*
X8097061Y-13108492D02*
X8116109Y-13108492D01*
X8116109Y-13108492D02*
X8135156Y-13118016D01*
X8135156Y-13118016D02*
X8144680Y-13127540D01*
X8144680Y-13127540D02*
X8154204Y-13146587D01*
X8154204Y-13146587D02*
X8163728Y-13184682D01*
X8163728Y-13184682D02*
X8163728Y-13232301D01*
X8163728Y-13232301D02*
X8154204Y-13270397D01*
X8154204Y-13270397D02*
X8144680Y-13289444D01*
X8144680Y-13289444D02*
X8135156Y-13298968D01*
X8135156Y-13298968D02*
X8116109Y-13308492D01*
X8116109Y-13308492D02*
X8097061Y-13308492D01*
X8097061Y-13308492D02*
X8078013Y-13298968D01*
X8078013Y-13298968D02*
X8068490Y-13289444D01*
X8068490Y-13289444D02*
X8058966Y-13270397D01*
X8058966Y-13270397D02*
X8049442Y-13232301D01*
X8049442Y-13232301D02*
X8049442Y-13184682D01*
X8049442Y-13184682D02*
X8058966Y-13146587D01*
X8058966Y-13146587D02*
X8068490Y-13127540D01*
X8068490Y-13127540D02*
X8078013Y-13118016D01*
X8078013Y-13118016D02*
X8097061Y-13108492D01*
X8287537Y-13108492D02*
X8306585Y-13108492D01*
X8306585Y-13108492D02*
X8325633Y-13118016D01*
X8325633Y-13118016D02*
X8335156Y-13127540D01*
X8335156Y-13127540D02*
X8344680Y-13146587D01*
X8344680Y-13146587D02*
X8354204Y-13184682D01*
X8354204Y-13184682D02*
X8354204Y-13232301D01*
X8354204Y-13232301D02*
X8344680Y-13270397D01*
X8344680Y-13270397D02*
X8335156Y-13289444D01*
X8335156Y-13289444D02*
X8325633Y-13298968D01*
X8325633Y-13298968D02*
X8306585Y-13308492D01*
X8306585Y-13308492D02*
X8287537Y-13308492D01*
X8287537Y-13308492D02*
X8268490Y-13298968D01*
X8268490Y-13298968D02*
X8258966Y-13289444D01*
X8258966Y-13289444D02*
X8249442Y-13270397D01*
X8249442Y-13270397D02*
X8239918Y-13232301D01*
X8239918Y-13232301D02*
X8239918Y-13184682D01*
X8239918Y-13184682D02*
X8249442Y-13146587D01*
X8249442Y-13146587D02*
X8258966Y-13127540D01*
X8258966Y-13127540D02*
X8268490Y-13118016D01*
X8268490Y-13118016D02*
X8287537Y-13108492D01*
X8439918Y-13308492D02*
X8439918Y-13175159D01*
X8439918Y-13194206D02*
X8449442Y-13184682D01*
X8449442Y-13184682D02*
X8468490Y-13175159D01*
X8468490Y-13175159D02*
X8497061Y-13175159D01*
X8497061Y-13175159D02*
X8516109Y-13184682D01*
X8516109Y-13184682D02*
X8525633Y-13203730D01*
X8525633Y-13203730D02*
X8525633Y-13308492D01*
X8525633Y-13203730D02*
X8535156Y-13184682D01*
X8535156Y-13184682D02*
X8554204Y-13175159D01*
X8554204Y-13175159D02*
X8582775Y-13175159D01*
X8582775Y-13175159D02*
X8601823Y-13184682D01*
X8601823Y-13184682D02*
X8611347Y-13203730D01*
X8611347Y-13203730D02*
X8611347Y-13308492D01*
X8706585Y-13308492D02*
X8706585Y-13175159D01*
X8706585Y-13194206D02*
X8716109Y-13184682D01*
X8716109Y-13184682D02*
X8735156Y-13175159D01*
X8735156Y-13175159D02*
X8763728Y-13175159D01*
X8763728Y-13175159D02*
X8782776Y-13184682D01*
X8782776Y-13184682D02*
X8792299Y-13203730D01*
X8792299Y-13203730D02*
X8792299Y-13308492D01*
X8792299Y-13203730D02*
X8801823Y-13184682D01*
X8801823Y-13184682D02*
X8820871Y-13175159D01*
X8820871Y-13175159D02*
X8849442Y-13175159D01*
X8849442Y-13175159D02*
X8868490Y-13184682D01*
X8868490Y-13184682D02*
X8878014Y-13203730D01*
X8878014Y-13203730D02*
X8878014Y-13308492D01*
X9268490Y-13098968D02*
X9097061Y-13356111D01*
X9525633Y-13108492D02*
X9544680Y-13108492D01*
X9544680Y-13108492D02*
X9563728Y-13118016D01*
X9563728Y-13118016D02*
X9573252Y-13127540D01*
X9573252Y-13127540D02*
X9582776Y-13146587D01*
X9582776Y-13146587D02*
X9592299Y-13184682D01*
X9592299Y-13184682D02*
X9592299Y-13232301D01*
X9592299Y-13232301D02*
X9582776Y-13270397D01*
X9582776Y-13270397D02*
X9573252Y-13289444D01*
X9573252Y-13289444D02*
X9563728Y-13298968D01*
X9563728Y-13298968D02*
X9544680Y-13308492D01*
X9544680Y-13308492D02*
X9525633Y-13308492D01*
X9525633Y-13308492D02*
X9506585Y-13298968D01*
X9506585Y-13298968D02*
X9497061Y-13289444D01*
X9497061Y-13289444D02*
X9487538Y-13270397D01*
X9487538Y-13270397D02*
X9478014Y-13232301D01*
X9478014Y-13232301D02*
X9478014Y-13184682D01*
X9478014Y-13184682D02*
X9487538Y-13146587D01*
X9487538Y-13146587D02*
X9497061Y-13127540D01*
X9497061Y-13127540D02*
X9506585Y-13118016D01*
X9506585Y-13118016D02*
X9525633Y-13108492D01*
X9678014Y-13289444D02*
X9687538Y-13298968D01*
X9687538Y-13298968D02*
X9678014Y-13308492D01*
X9678014Y-13308492D02*
X9668490Y-13298968D01*
X9668490Y-13298968D02*
X9678014Y-13289444D01*
X9678014Y-13289444D02*
X9678014Y-13308492D01*
X9811347Y-13108492D02*
X9830395Y-13108492D01*
X9830395Y-13108492D02*
X9849442Y-13118016D01*
X9849442Y-13118016D02*
X9858966Y-13127540D01*
X9858966Y-13127540D02*
X9868490Y-13146587D01*
X9868490Y-13146587D02*
X9878014Y-13184682D01*
X9878014Y-13184682D02*
X9878014Y-13232301D01*
X9878014Y-13232301D02*
X9868490Y-13270397D01*
X9868490Y-13270397D02*
X9858966Y-13289444D01*
X9858966Y-13289444D02*
X9849442Y-13298968D01*
X9849442Y-13298968D02*
X9830395Y-13308492D01*
X9830395Y-13308492D02*
X9811347Y-13308492D01*
X9811347Y-13308492D02*
X9792299Y-13298968D01*
X9792299Y-13298968D02*
X9782776Y-13289444D01*
X9782776Y-13289444D02*
X9773252Y-13270397D01*
X9773252Y-13270397D02*
X9763728Y-13232301D01*
X9763728Y-13232301D02*
X9763728Y-13184682D01*
X9763728Y-13184682D02*
X9773252Y-13146587D01*
X9773252Y-13146587D02*
X9782776Y-13127540D01*
X9782776Y-13127540D02*
X9792299Y-13118016D01*
X9792299Y-13118016D02*
X9811347Y-13108492D01*
X10049442Y-13108492D02*
X10011347Y-13108492D01*
X10011347Y-13108492D02*
X9992299Y-13118016D01*
X9992299Y-13118016D02*
X9982776Y-13127540D01*
X9982776Y-13127540D02*
X9963728Y-13156111D01*
X9963728Y-13156111D02*
X9954204Y-13194206D01*
X9954204Y-13194206D02*
X9954204Y-13270397D01*
X9954204Y-13270397D02*
X9963728Y-13289444D01*
X9963728Y-13289444D02*
X9973252Y-13298968D01*
X9973252Y-13298968D02*
X9992299Y-13308492D01*
X9992299Y-13308492D02*
X10030395Y-13308492D01*
X10030395Y-13308492D02*
X10049442Y-13298968D01*
X10049442Y-13298968D02*
X10058966Y-13289444D01*
X10058966Y-13289444D02*
X10068490Y-13270397D01*
X10068490Y-13270397D02*
X10068490Y-13222778D01*
X10068490Y-13222778D02*
X10058966Y-13203730D01*
X10058966Y-13203730D02*
X10049442Y-13194206D01*
X10049442Y-13194206D02*
X10030395Y-13184682D01*
X10030395Y-13184682D02*
X9992299Y-13184682D01*
X9992299Y-13184682D02*
X9973252Y-13194206D01*
X9973252Y-13194206D02*
X9963728Y-13203730D01*
X9963728Y-13203730D02*
X9954204Y-13222778D01*
X10135157Y-13108492D02*
X10258966Y-13108492D01*
X10258966Y-13108492D02*
X10192299Y-13184682D01*
X10192299Y-13184682D02*
X10220871Y-13184682D01*
X10220871Y-13184682D02*
X10239919Y-13194206D01*
X10239919Y-13194206D02*
X10249442Y-13203730D01*
X10249442Y-13203730D02*
X10258966Y-13222778D01*
X10258966Y-13222778D02*
X10258966Y-13270397D01*
X10258966Y-13270397D02*
X10249442Y-13289444D01*
X10249442Y-13289444D02*
X10239919Y-13298968D01*
X10239919Y-13298968D02*
X10220871Y-13308492D01*
X10220871Y-13308492D02*
X10163728Y-13308492D01*
X10163728Y-13308492D02*
X10144680Y-13298968D01*
X10144680Y-13298968D02*
X10135157Y-13289444D01*
X10382776Y-13108492D02*
X10401823Y-13108492D01*
X10401823Y-13108492D02*
X10420871Y-13118016D01*
X10420871Y-13118016D02*
X10430395Y-13127540D01*
X10430395Y-13127540D02*
X10439919Y-13146587D01*
X10439919Y-13146587D02*
X10449442Y-13184682D01*
X10449442Y-13184682D02*
X10449442Y-13232301D01*
X10449442Y-13232301D02*
X10439919Y-13270397D01*
X10439919Y-13270397D02*
X10430395Y-13289444D01*
X10430395Y-13289444D02*
X10420871Y-13298968D01*
X10420871Y-13298968D02*
X10401823Y-13308492D01*
X10401823Y-13308492D02*
X10382776Y-13308492D01*
X10382776Y-13308492D02*
X10363728Y-13298968D01*
X10363728Y-13298968D02*
X10354204Y-13289444D01*
X10354204Y-13289444D02*
X10344680Y-13270397D01*
X10344680Y-13270397D02*
X10335157Y-13232301D01*
X10335157Y-13232301D02*
X10335157Y-13184682D01*
X10335157Y-13184682D02*
X10344680Y-13146587D01*
X10344680Y-13146587D02*
X10354204Y-13127540D01*
X10354204Y-13127540D02*
X10363728Y-13118016D01*
X10363728Y-13118016D02*
X10382776Y-13108492D01*
X10525633Y-13108492D02*
X10525633Y-13146587D01*
X10601823Y-13108492D02*
X10601823Y-13146587D01*
X10897062Y-13384682D02*
X10887538Y-13375159D01*
X10887538Y-13375159D02*
X10868490Y-13346587D01*
X10868490Y-13346587D02*
X10858966Y-13327540D01*
X10858966Y-13327540D02*
X10849442Y-13298968D01*
X10849442Y-13298968D02*
X10839919Y-13251349D01*
X10839919Y-13251349D02*
X10839919Y-13213254D01*
X10839919Y-13213254D02*
X10849442Y-13165635D01*
X10849442Y-13165635D02*
X10858966Y-13137063D01*
X10858966Y-13137063D02*
X10868490Y-13118016D01*
X10868490Y-13118016D02*
X10887538Y-13089444D01*
X10887538Y-13089444D02*
X10897062Y-13079920D01*
X11001823Y-13194206D02*
X10982776Y-13184682D01*
X10982776Y-13184682D02*
X10973252Y-13175159D01*
X10973252Y-13175159D02*
X10963728Y-13156111D01*
X10963728Y-13156111D02*
X10963728Y-13146587D01*
X10963728Y-13146587D02*
X10973252Y-13127540D01*
X10973252Y-13127540D02*
X10982776Y-13118016D01*
X10982776Y-13118016D02*
X11001823Y-13108492D01*
X11001823Y-13108492D02*
X11039919Y-13108492D01*
X11039919Y-13108492D02*
X11058966Y-13118016D01*
X11058966Y-13118016D02*
X11068490Y-13127540D01*
X11068490Y-13127540D02*
X11078014Y-13146587D01*
X11078014Y-13146587D02*
X11078014Y-13156111D01*
X11078014Y-13156111D02*
X11068490Y-13175159D01*
X11068490Y-13175159D02*
X11058966Y-13184682D01*
X11058966Y-13184682D02*
X11039919Y-13194206D01*
X11039919Y-13194206D02*
X11001823Y-13194206D01*
X11001823Y-13194206D02*
X10982776Y-13203730D01*
X10982776Y-13203730D02*
X10973252Y-13213254D01*
X10973252Y-13213254D02*
X10963728Y-13232301D01*
X10963728Y-13232301D02*
X10963728Y-13270397D01*
X10963728Y-13270397D02*
X10973252Y-13289444D01*
X10973252Y-13289444D02*
X10982776Y-13298968D01*
X10982776Y-13298968D02*
X11001823Y-13308492D01*
X11001823Y-13308492D02*
X11039919Y-13308492D01*
X11039919Y-13308492D02*
X11058966Y-13298968D01*
X11058966Y-13298968D02*
X11068490Y-13289444D01*
X11068490Y-13289444D02*
X11078014Y-13270397D01*
X11078014Y-13270397D02*
X11078014Y-13232301D01*
X11078014Y-13232301D02*
X11068490Y-13213254D01*
X11068490Y-13213254D02*
X11058966Y-13203730D01*
X11058966Y-13203730D02*
X11039919Y-13194206D01*
X11316109Y-13308492D02*
X11316109Y-13108492D01*
X11401823Y-13308492D02*
X11401823Y-13203730D01*
X11401823Y-13203730D02*
X11392300Y-13184682D01*
X11392300Y-13184682D02*
X11373252Y-13175159D01*
X11373252Y-13175159D02*
X11344680Y-13175159D01*
X11344680Y-13175159D02*
X11325633Y-13184682D01*
X11325633Y-13184682D02*
X11316109Y-13194206D01*
X11525633Y-13308492D02*
X11506585Y-13298968D01*
X11506585Y-13298968D02*
X11497061Y-13289444D01*
X11497061Y-13289444D02*
X11487538Y-13270397D01*
X11487538Y-13270397D02*
X11487538Y-13213254D01*
X11487538Y-13213254D02*
X11497061Y-13194206D01*
X11497061Y-13194206D02*
X11506585Y-13184682D01*
X11506585Y-13184682D02*
X11525633Y-13175159D01*
X11525633Y-13175159D02*
X11554204Y-13175159D01*
X11554204Y-13175159D02*
X11573252Y-13184682D01*
X11573252Y-13184682D02*
X11582776Y-13194206D01*
X11582776Y-13194206D02*
X11592300Y-13213254D01*
X11592300Y-13213254D02*
X11592300Y-13270397D01*
X11592300Y-13270397D02*
X11582776Y-13289444D01*
X11582776Y-13289444D02*
X11573252Y-13298968D01*
X11573252Y-13298968D02*
X11554204Y-13308492D01*
X11554204Y-13308492D02*
X11525633Y-13308492D01*
X11706585Y-13308492D02*
X11687538Y-13298968D01*
X11687538Y-13298968D02*
X11678014Y-13279920D01*
X11678014Y-13279920D02*
X11678014Y-13108492D01*
X11858966Y-13298968D02*
X11839919Y-13308492D01*
X11839919Y-13308492D02*
X11801823Y-13308492D01*
X11801823Y-13308492D02*
X11782776Y-13298968D01*
X11782776Y-13298968D02*
X11773252Y-13279920D01*
X11773252Y-13279920D02*
X11773252Y-13203730D01*
X11773252Y-13203730D02*
X11782776Y-13184682D01*
X11782776Y-13184682D02*
X11801823Y-13175159D01*
X11801823Y-13175159D02*
X11839919Y-13175159D01*
X11839919Y-13175159D02*
X11858966Y-13184682D01*
X11858966Y-13184682D02*
X11868490Y-13203730D01*
X11868490Y-13203730D02*
X11868490Y-13222778D01*
X11868490Y-13222778D02*
X11773252Y-13241825D01*
X11944681Y-13298968D02*
X11963728Y-13308492D01*
X11963728Y-13308492D02*
X12001823Y-13308492D01*
X12001823Y-13308492D02*
X12020871Y-13298968D01*
X12020871Y-13298968D02*
X12030395Y-13279920D01*
X12030395Y-13279920D02*
X12030395Y-13270397D01*
X12030395Y-13270397D02*
X12020871Y-13251349D01*
X12020871Y-13251349D02*
X12001823Y-13241825D01*
X12001823Y-13241825D02*
X11973252Y-13241825D01*
X11973252Y-13241825D02*
X11954204Y-13232301D01*
X11954204Y-13232301D02*
X11944681Y-13213254D01*
X11944681Y-13213254D02*
X11944681Y-13203730D01*
X11944681Y-13203730D02*
X11954204Y-13184682D01*
X11954204Y-13184682D02*
X11973252Y-13175159D01*
X11973252Y-13175159D02*
X12001823Y-13175159D01*
X12001823Y-13175159D02*
X12020871Y-13184682D01*
X12097062Y-13384682D02*
X12106585Y-13375159D01*
X12106585Y-13375159D02*
X12125633Y-13346587D01*
X12125633Y-13346587D02*
X12135157Y-13327540D01*
X12135157Y-13327540D02*
X12144681Y-13298968D01*
X12144681Y-13298968D02*
X12154204Y-13251349D01*
X12154204Y-13251349D02*
X12154204Y-13213254D01*
X12154204Y-13213254D02*
X12144681Y-13165635D01*
X12144681Y-13165635D02*
X12135157Y-13137063D01*
X12135157Y-13137063D02*
X12125633Y-13118016D01*
X12125633Y-13118016D02*
X12106585Y-13089444D01*
X12106585Y-13089444D02*
X12097062Y-13079920D01*
D15*
X7141999Y-13407008D02*
X7321999Y-13587008D01*
X7321999Y-13407008D02*
X7141999Y-13587008D01*
X7231999Y-13587008D02*
X7321999Y-13497008D01*
X7231999Y-13407008D01*
X7141999Y-13497008D01*
X7231999Y-13587008D01*
D10*
X7687537Y-13588492D02*
X7573252Y-13588492D01*
X7630394Y-13588492D02*
X7630394Y-13388492D01*
X7630394Y-13388492D02*
X7611347Y-13417063D01*
X7611347Y-13417063D02*
X7592299Y-13436111D01*
X7592299Y-13436111D02*
X7573252Y-13445635D01*
X7773252Y-13569444D02*
X7782775Y-13578968D01*
X7782775Y-13578968D02*
X7773252Y-13588492D01*
X7773252Y-13588492D02*
X7763728Y-13578968D01*
X7763728Y-13578968D02*
X7773252Y-13569444D01*
X7773252Y-13569444D02*
X7773252Y-13588492D01*
X7897061Y-13474206D02*
X7878013Y-13464682D01*
X7878013Y-13464682D02*
X7868490Y-13455159D01*
X7868490Y-13455159D02*
X7858966Y-13436111D01*
X7858966Y-13436111D02*
X7858966Y-13426587D01*
X7858966Y-13426587D02*
X7868490Y-13407540D01*
X7868490Y-13407540D02*
X7878013Y-13398016D01*
X7878013Y-13398016D02*
X7897061Y-13388492D01*
X7897061Y-13388492D02*
X7935156Y-13388492D01*
X7935156Y-13388492D02*
X7954204Y-13398016D01*
X7954204Y-13398016D02*
X7963728Y-13407540D01*
X7963728Y-13407540D02*
X7973252Y-13426587D01*
X7973252Y-13426587D02*
X7973252Y-13436111D01*
X7973252Y-13436111D02*
X7963728Y-13455159D01*
X7963728Y-13455159D02*
X7954204Y-13464682D01*
X7954204Y-13464682D02*
X7935156Y-13474206D01*
X7935156Y-13474206D02*
X7897061Y-13474206D01*
X7897061Y-13474206D02*
X7878013Y-13483730D01*
X7878013Y-13483730D02*
X7868490Y-13493254D01*
X7868490Y-13493254D02*
X7858966Y-13512301D01*
X7858966Y-13512301D02*
X7858966Y-13550397D01*
X7858966Y-13550397D02*
X7868490Y-13569444D01*
X7868490Y-13569444D02*
X7878013Y-13578968D01*
X7878013Y-13578968D02*
X7897061Y-13588492D01*
X7897061Y-13588492D02*
X7935156Y-13588492D01*
X7935156Y-13588492D02*
X7954204Y-13578968D01*
X7954204Y-13578968D02*
X7963728Y-13569444D01*
X7963728Y-13569444D02*
X7973252Y-13550397D01*
X7973252Y-13550397D02*
X7973252Y-13512301D01*
X7973252Y-13512301D02*
X7963728Y-13493254D01*
X7963728Y-13493254D02*
X7954204Y-13483730D01*
X7954204Y-13483730D02*
X7935156Y-13474206D01*
X8097061Y-13388492D02*
X8116109Y-13388492D01*
X8116109Y-13388492D02*
X8135156Y-13398016D01*
X8135156Y-13398016D02*
X8144680Y-13407540D01*
X8144680Y-13407540D02*
X8154204Y-13426587D01*
X8154204Y-13426587D02*
X8163728Y-13464682D01*
X8163728Y-13464682D02*
X8163728Y-13512301D01*
X8163728Y-13512301D02*
X8154204Y-13550397D01*
X8154204Y-13550397D02*
X8144680Y-13569444D01*
X8144680Y-13569444D02*
X8135156Y-13578968D01*
X8135156Y-13578968D02*
X8116109Y-13588492D01*
X8116109Y-13588492D02*
X8097061Y-13588492D01*
X8097061Y-13588492D02*
X8078013Y-13578968D01*
X8078013Y-13578968D02*
X8068490Y-13569444D01*
X8068490Y-13569444D02*
X8058966Y-13550397D01*
X8058966Y-13550397D02*
X8049442Y-13512301D01*
X8049442Y-13512301D02*
X8049442Y-13464682D01*
X8049442Y-13464682D02*
X8058966Y-13426587D01*
X8058966Y-13426587D02*
X8068490Y-13407540D01*
X8068490Y-13407540D02*
X8078013Y-13398016D01*
X8078013Y-13398016D02*
X8097061Y-13388492D01*
X8287537Y-13388492D02*
X8306585Y-13388492D01*
X8306585Y-13388492D02*
X8325633Y-13398016D01*
X8325633Y-13398016D02*
X8335156Y-13407540D01*
X8335156Y-13407540D02*
X8344680Y-13426587D01*
X8344680Y-13426587D02*
X8354204Y-13464682D01*
X8354204Y-13464682D02*
X8354204Y-13512301D01*
X8354204Y-13512301D02*
X8344680Y-13550397D01*
X8344680Y-13550397D02*
X8335156Y-13569444D01*
X8335156Y-13569444D02*
X8325633Y-13578968D01*
X8325633Y-13578968D02*
X8306585Y-13588492D01*
X8306585Y-13588492D02*
X8287537Y-13588492D01*
X8287537Y-13588492D02*
X8268490Y-13578968D01*
X8268490Y-13578968D02*
X8258966Y-13569444D01*
X8258966Y-13569444D02*
X8249442Y-13550397D01*
X8249442Y-13550397D02*
X8239918Y-13512301D01*
X8239918Y-13512301D02*
X8239918Y-13464682D01*
X8239918Y-13464682D02*
X8249442Y-13426587D01*
X8249442Y-13426587D02*
X8258966Y-13407540D01*
X8258966Y-13407540D02*
X8268490Y-13398016D01*
X8268490Y-13398016D02*
X8287537Y-13388492D01*
X8439918Y-13588492D02*
X8439918Y-13455159D01*
X8439918Y-13474206D02*
X8449442Y-13464682D01*
X8449442Y-13464682D02*
X8468490Y-13455159D01*
X8468490Y-13455159D02*
X8497061Y-13455159D01*
X8497061Y-13455159D02*
X8516109Y-13464682D01*
X8516109Y-13464682D02*
X8525633Y-13483730D01*
X8525633Y-13483730D02*
X8525633Y-13588492D01*
X8525633Y-13483730D02*
X8535156Y-13464682D01*
X8535156Y-13464682D02*
X8554204Y-13455159D01*
X8554204Y-13455159D02*
X8582775Y-13455159D01*
X8582775Y-13455159D02*
X8601823Y-13464682D01*
X8601823Y-13464682D02*
X8611347Y-13483730D01*
X8611347Y-13483730D02*
X8611347Y-13588492D01*
X8706585Y-13588492D02*
X8706585Y-13455159D01*
X8706585Y-13474206D02*
X8716109Y-13464682D01*
X8716109Y-13464682D02*
X8735156Y-13455159D01*
X8735156Y-13455159D02*
X8763728Y-13455159D01*
X8763728Y-13455159D02*
X8782776Y-13464682D01*
X8782776Y-13464682D02*
X8792299Y-13483730D01*
X8792299Y-13483730D02*
X8792299Y-13588492D01*
X8792299Y-13483730D02*
X8801823Y-13464682D01*
X8801823Y-13464682D02*
X8820871Y-13455159D01*
X8820871Y-13455159D02*
X8849442Y-13455159D01*
X8849442Y-13455159D02*
X8868490Y-13464682D01*
X8868490Y-13464682D02*
X8878014Y-13483730D01*
X8878014Y-13483730D02*
X8878014Y-13588492D01*
X9268490Y-13378968D02*
X9097061Y-13636111D01*
X9525633Y-13388492D02*
X9544680Y-13388492D01*
X9544680Y-13388492D02*
X9563728Y-13398016D01*
X9563728Y-13398016D02*
X9573252Y-13407540D01*
X9573252Y-13407540D02*
X9582776Y-13426587D01*
X9582776Y-13426587D02*
X9592299Y-13464682D01*
X9592299Y-13464682D02*
X9592299Y-13512301D01*
X9592299Y-13512301D02*
X9582776Y-13550397D01*
X9582776Y-13550397D02*
X9573252Y-13569444D01*
X9573252Y-13569444D02*
X9563728Y-13578968D01*
X9563728Y-13578968D02*
X9544680Y-13588492D01*
X9544680Y-13588492D02*
X9525633Y-13588492D01*
X9525633Y-13588492D02*
X9506585Y-13578968D01*
X9506585Y-13578968D02*
X9497061Y-13569444D01*
X9497061Y-13569444D02*
X9487538Y-13550397D01*
X9487538Y-13550397D02*
X9478014Y-13512301D01*
X9478014Y-13512301D02*
X9478014Y-13464682D01*
X9478014Y-13464682D02*
X9487538Y-13426587D01*
X9487538Y-13426587D02*
X9497061Y-13407540D01*
X9497061Y-13407540D02*
X9506585Y-13398016D01*
X9506585Y-13398016D02*
X9525633Y-13388492D01*
X9678014Y-13569444D02*
X9687538Y-13578968D01*
X9687538Y-13578968D02*
X9678014Y-13588492D01*
X9678014Y-13588492D02*
X9668490Y-13578968D01*
X9668490Y-13578968D02*
X9678014Y-13569444D01*
X9678014Y-13569444D02*
X9678014Y-13588492D01*
X9811347Y-13388492D02*
X9830395Y-13388492D01*
X9830395Y-13388492D02*
X9849442Y-13398016D01*
X9849442Y-13398016D02*
X9858966Y-13407540D01*
X9858966Y-13407540D02*
X9868490Y-13426587D01*
X9868490Y-13426587D02*
X9878014Y-13464682D01*
X9878014Y-13464682D02*
X9878014Y-13512301D01*
X9878014Y-13512301D02*
X9868490Y-13550397D01*
X9868490Y-13550397D02*
X9858966Y-13569444D01*
X9858966Y-13569444D02*
X9849442Y-13578968D01*
X9849442Y-13578968D02*
X9830395Y-13588492D01*
X9830395Y-13588492D02*
X9811347Y-13588492D01*
X9811347Y-13588492D02*
X9792299Y-13578968D01*
X9792299Y-13578968D02*
X9782776Y-13569444D01*
X9782776Y-13569444D02*
X9773252Y-13550397D01*
X9773252Y-13550397D02*
X9763728Y-13512301D01*
X9763728Y-13512301D02*
X9763728Y-13464682D01*
X9763728Y-13464682D02*
X9773252Y-13426587D01*
X9773252Y-13426587D02*
X9782776Y-13407540D01*
X9782776Y-13407540D02*
X9792299Y-13398016D01*
X9792299Y-13398016D02*
X9811347Y-13388492D01*
X9944680Y-13388492D02*
X10078014Y-13388492D01*
X10078014Y-13388492D02*
X9992299Y-13588492D01*
X10192299Y-13388492D02*
X10211347Y-13388492D01*
X10211347Y-13388492D02*
X10230395Y-13398016D01*
X10230395Y-13398016D02*
X10239919Y-13407540D01*
X10239919Y-13407540D02*
X10249442Y-13426587D01*
X10249442Y-13426587D02*
X10258966Y-13464682D01*
X10258966Y-13464682D02*
X10258966Y-13512301D01*
X10258966Y-13512301D02*
X10249442Y-13550397D01*
X10249442Y-13550397D02*
X10239919Y-13569444D01*
X10239919Y-13569444D02*
X10230395Y-13578968D01*
X10230395Y-13578968D02*
X10211347Y-13588492D01*
X10211347Y-13588492D02*
X10192299Y-13588492D01*
X10192299Y-13588492D02*
X10173252Y-13578968D01*
X10173252Y-13578968D02*
X10163728Y-13569444D01*
X10163728Y-13569444D02*
X10154204Y-13550397D01*
X10154204Y-13550397D02*
X10144680Y-13512301D01*
X10144680Y-13512301D02*
X10144680Y-13464682D01*
X10144680Y-13464682D02*
X10154204Y-13426587D01*
X10154204Y-13426587D02*
X10163728Y-13407540D01*
X10163728Y-13407540D02*
X10173252Y-13398016D01*
X10173252Y-13398016D02*
X10192299Y-13388492D01*
X10354204Y-13588492D02*
X10392299Y-13588492D01*
X10392299Y-13588492D02*
X10411347Y-13578968D01*
X10411347Y-13578968D02*
X10420871Y-13569444D01*
X10420871Y-13569444D02*
X10439919Y-13540873D01*
X10439919Y-13540873D02*
X10449442Y-13502778D01*
X10449442Y-13502778D02*
X10449442Y-13426587D01*
X10449442Y-13426587D02*
X10439919Y-13407540D01*
X10439919Y-13407540D02*
X10430395Y-13398016D01*
X10430395Y-13398016D02*
X10411347Y-13388492D01*
X10411347Y-13388492D02*
X10373252Y-13388492D01*
X10373252Y-13388492D02*
X10354204Y-13398016D01*
X10354204Y-13398016D02*
X10344680Y-13407540D01*
X10344680Y-13407540D02*
X10335157Y-13426587D01*
X10335157Y-13426587D02*
X10335157Y-13474206D01*
X10335157Y-13474206D02*
X10344680Y-13493254D01*
X10344680Y-13493254D02*
X10354204Y-13502778D01*
X10354204Y-13502778D02*
X10373252Y-13512301D01*
X10373252Y-13512301D02*
X10411347Y-13512301D01*
X10411347Y-13512301D02*
X10430395Y-13502778D01*
X10430395Y-13502778D02*
X10439919Y-13493254D01*
X10439919Y-13493254D02*
X10449442Y-13474206D01*
X10525633Y-13388492D02*
X10525633Y-13426587D01*
X10601823Y-13388492D02*
X10601823Y-13426587D01*
X10897062Y-13664682D02*
X10887538Y-13655159D01*
X10887538Y-13655159D02*
X10868490Y-13626587D01*
X10868490Y-13626587D02*
X10858966Y-13607540D01*
X10858966Y-13607540D02*
X10849442Y-13578968D01*
X10849442Y-13578968D02*
X10839919Y-13531349D01*
X10839919Y-13531349D02*
X10839919Y-13493254D01*
X10839919Y-13493254D02*
X10849442Y-13445635D01*
X10849442Y-13445635D02*
X10858966Y-13417063D01*
X10858966Y-13417063D02*
X10868490Y-13398016D01*
X10868490Y-13398016D02*
X10887538Y-13369444D01*
X10887538Y-13369444D02*
X10897062Y-13359920D01*
X11001823Y-13474206D02*
X10982776Y-13464682D01*
X10982776Y-13464682D02*
X10973252Y-13455159D01*
X10973252Y-13455159D02*
X10963728Y-13436111D01*
X10963728Y-13436111D02*
X10963728Y-13426587D01*
X10963728Y-13426587D02*
X10973252Y-13407540D01*
X10973252Y-13407540D02*
X10982776Y-13398016D01*
X10982776Y-13398016D02*
X11001823Y-13388492D01*
X11001823Y-13388492D02*
X11039919Y-13388492D01*
X11039919Y-13388492D02*
X11058966Y-13398016D01*
X11058966Y-13398016D02*
X11068490Y-13407540D01*
X11068490Y-13407540D02*
X11078014Y-13426587D01*
X11078014Y-13426587D02*
X11078014Y-13436111D01*
X11078014Y-13436111D02*
X11068490Y-13455159D01*
X11068490Y-13455159D02*
X11058966Y-13464682D01*
X11058966Y-13464682D02*
X11039919Y-13474206D01*
X11039919Y-13474206D02*
X11001823Y-13474206D01*
X11001823Y-13474206D02*
X10982776Y-13483730D01*
X10982776Y-13483730D02*
X10973252Y-13493254D01*
X10973252Y-13493254D02*
X10963728Y-13512301D01*
X10963728Y-13512301D02*
X10963728Y-13550397D01*
X10963728Y-13550397D02*
X10973252Y-13569444D01*
X10973252Y-13569444D02*
X10982776Y-13578968D01*
X10982776Y-13578968D02*
X11001823Y-13588492D01*
X11001823Y-13588492D02*
X11039919Y-13588492D01*
X11039919Y-13588492D02*
X11058966Y-13578968D01*
X11058966Y-13578968D02*
X11068490Y-13569444D01*
X11068490Y-13569444D02*
X11078014Y-13550397D01*
X11078014Y-13550397D02*
X11078014Y-13512301D01*
X11078014Y-13512301D02*
X11068490Y-13493254D01*
X11068490Y-13493254D02*
X11058966Y-13483730D01*
X11058966Y-13483730D02*
X11039919Y-13474206D01*
X11316109Y-13588492D02*
X11316109Y-13388492D01*
X11401823Y-13588492D02*
X11401823Y-13483730D01*
X11401823Y-13483730D02*
X11392300Y-13464682D01*
X11392300Y-13464682D02*
X11373252Y-13455159D01*
X11373252Y-13455159D02*
X11344680Y-13455159D01*
X11344680Y-13455159D02*
X11325633Y-13464682D01*
X11325633Y-13464682D02*
X11316109Y-13474206D01*
X11525633Y-13588492D02*
X11506585Y-13578968D01*
X11506585Y-13578968D02*
X11497061Y-13569444D01*
X11497061Y-13569444D02*
X11487538Y-13550397D01*
X11487538Y-13550397D02*
X11487538Y-13493254D01*
X11487538Y-13493254D02*
X11497061Y-13474206D01*
X11497061Y-13474206D02*
X11506585Y-13464682D01*
X11506585Y-13464682D02*
X11525633Y-13455159D01*
X11525633Y-13455159D02*
X11554204Y-13455159D01*
X11554204Y-13455159D02*
X11573252Y-13464682D01*
X11573252Y-13464682D02*
X11582776Y-13474206D01*
X11582776Y-13474206D02*
X11592300Y-13493254D01*
X11592300Y-13493254D02*
X11592300Y-13550397D01*
X11592300Y-13550397D02*
X11582776Y-13569444D01*
X11582776Y-13569444D02*
X11573252Y-13578968D01*
X11573252Y-13578968D02*
X11554204Y-13588492D01*
X11554204Y-13588492D02*
X11525633Y-13588492D01*
X11706585Y-13588492D02*
X11687538Y-13578968D01*
X11687538Y-13578968D02*
X11678014Y-13559920D01*
X11678014Y-13559920D02*
X11678014Y-13388492D01*
X11858966Y-13578968D02*
X11839919Y-13588492D01*
X11839919Y-13588492D02*
X11801823Y-13588492D01*
X11801823Y-13588492D02*
X11782776Y-13578968D01*
X11782776Y-13578968D02*
X11773252Y-13559920D01*
X11773252Y-13559920D02*
X11773252Y-13483730D01*
X11773252Y-13483730D02*
X11782776Y-13464682D01*
X11782776Y-13464682D02*
X11801823Y-13455159D01*
X11801823Y-13455159D02*
X11839919Y-13455159D01*
X11839919Y-13455159D02*
X11858966Y-13464682D01*
X11858966Y-13464682D02*
X11868490Y-13483730D01*
X11868490Y-13483730D02*
X11868490Y-13502778D01*
X11868490Y-13502778D02*
X11773252Y-13521825D01*
X11944681Y-13578968D02*
X11963728Y-13588492D01*
X11963728Y-13588492D02*
X12001823Y-13588492D01*
X12001823Y-13588492D02*
X12020871Y-13578968D01*
X12020871Y-13578968D02*
X12030395Y-13559920D01*
X12030395Y-13559920D02*
X12030395Y-13550397D01*
X12030395Y-13550397D02*
X12020871Y-13531349D01*
X12020871Y-13531349D02*
X12001823Y-13521825D01*
X12001823Y-13521825D02*
X11973252Y-13521825D01*
X11973252Y-13521825D02*
X11954204Y-13512301D01*
X11954204Y-13512301D02*
X11944681Y-13493254D01*
X11944681Y-13493254D02*
X11944681Y-13483730D01*
X11944681Y-13483730D02*
X11954204Y-13464682D01*
X11954204Y-13464682D02*
X11973252Y-13455159D01*
X11973252Y-13455159D02*
X12001823Y-13455159D01*
X12001823Y-13455159D02*
X12020871Y-13464682D01*
X12097062Y-13664682D02*
X12106585Y-13655159D01*
X12106585Y-13655159D02*
X12125633Y-13626587D01*
X12125633Y-13626587D02*
X12135157Y-13607540D01*
X12135157Y-13607540D02*
X12144681Y-13578968D01*
X12144681Y-13578968D02*
X12154204Y-13531349D01*
X12154204Y-13531349D02*
X12154204Y-13493254D01*
X12154204Y-13493254D02*
X12144681Y-13445635D01*
X12144681Y-13445635D02*
X12135157Y-13417063D01*
X12135157Y-13417063D02*
X12125633Y-13398016D01*
X12125633Y-13398016D02*
X12106585Y-13369444D01*
X12106585Y-13369444D02*
X12097062Y-13359920D01*
X7221999Y-13697008D02*
X7221999Y-13897008D01*
X7121999Y-13797008D02*
X7321999Y-13797008D01*
X7321999Y-13797008D02*
G75*
G02*
X7121999Y-13797008I-100000J0D01*
G01*
X7121999Y-13797008D02*
G75*
G02*
X7321999Y-13797008I100000J0D01*
G01*
X7573252Y-13707540D02*
X7582775Y-13698016D01*
X7582775Y-13698016D02*
X7601823Y-13688492D01*
X7601823Y-13688492D02*
X7649442Y-13688492D01*
X7649442Y-13688492D02*
X7668490Y-13698016D01*
X7668490Y-13698016D02*
X7678013Y-13707540D01*
X7678013Y-13707540D02*
X7687537Y-13726587D01*
X7687537Y-13726587D02*
X7687537Y-13745635D01*
X7687537Y-13745635D02*
X7678013Y-13774206D01*
X7678013Y-13774206D02*
X7563728Y-13888492D01*
X7563728Y-13888492D02*
X7687537Y-13888492D01*
X7773252Y-13869444D02*
X7782775Y-13878968D01*
X7782775Y-13878968D02*
X7773252Y-13888492D01*
X7773252Y-13888492D02*
X7763728Y-13878968D01*
X7763728Y-13878968D02*
X7773252Y-13869444D01*
X7773252Y-13869444D02*
X7773252Y-13888492D01*
X7858966Y-13707540D02*
X7868490Y-13698016D01*
X7868490Y-13698016D02*
X7887537Y-13688492D01*
X7887537Y-13688492D02*
X7935156Y-13688492D01*
X7935156Y-13688492D02*
X7954204Y-13698016D01*
X7954204Y-13698016D02*
X7963728Y-13707540D01*
X7963728Y-13707540D02*
X7973252Y-13726587D01*
X7973252Y-13726587D02*
X7973252Y-13745635D01*
X7973252Y-13745635D02*
X7963728Y-13774206D01*
X7963728Y-13774206D02*
X7849442Y-13888492D01*
X7849442Y-13888492D02*
X7973252Y-13888492D01*
X8097061Y-13688492D02*
X8116109Y-13688492D01*
X8116109Y-13688492D02*
X8135156Y-13698016D01*
X8135156Y-13698016D02*
X8144680Y-13707540D01*
X8144680Y-13707540D02*
X8154204Y-13726587D01*
X8154204Y-13726587D02*
X8163728Y-13764682D01*
X8163728Y-13764682D02*
X8163728Y-13812301D01*
X8163728Y-13812301D02*
X8154204Y-13850397D01*
X8154204Y-13850397D02*
X8144680Y-13869444D01*
X8144680Y-13869444D02*
X8135156Y-13878968D01*
X8135156Y-13878968D02*
X8116109Y-13888492D01*
X8116109Y-13888492D02*
X8097061Y-13888492D01*
X8097061Y-13888492D02*
X8078013Y-13878968D01*
X8078013Y-13878968D02*
X8068490Y-13869444D01*
X8068490Y-13869444D02*
X8058966Y-13850397D01*
X8058966Y-13850397D02*
X8049442Y-13812301D01*
X8049442Y-13812301D02*
X8049442Y-13764682D01*
X8049442Y-13764682D02*
X8058966Y-13726587D01*
X8058966Y-13726587D02*
X8068490Y-13707540D01*
X8068490Y-13707540D02*
X8078013Y-13698016D01*
X8078013Y-13698016D02*
X8097061Y-13688492D01*
X8287537Y-13688492D02*
X8306585Y-13688492D01*
X8306585Y-13688492D02*
X8325633Y-13698016D01*
X8325633Y-13698016D02*
X8335156Y-13707540D01*
X8335156Y-13707540D02*
X8344680Y-13726587D01*
X8344680Y-13726587D02*
X8354204Y-13764682D01*
X8354204Y-13764682D02*
X8354204Y-13812301D01*
X8354204Y-13812301D02*
X8344680Y-13850397D01*
X8344680Y-13850397D02*
X8335156Y-13869444D01*
X8335156Y-13869444D02*
X8325633Y-13878968D01*
X8325633Y-13878968D02*
X8306585Y-13888492D01*
X8306585Y-13888492D02*
X8287537Y-13888492D01*
X8287537Y-13888492D02*
X8268490Y-13878968D01*
X8268490Y-13878968D02*
X8258966Y-13869444D01*
X8258966Y-13869444D02*
X8249442Y-13850397D01*
X8249442Y-13850397D02*
X8239918Y-13812301D01*
X8239918Y-13812301D02*
X8239918Y-13764682D01*
X8239918Y-13764682D02*
X8249442Y-13726587D01*
X8249442Y-13726587D02*
X8258966Y-13707540D01*
X8258966Y-13707540D02*
X8268490Y-13698016D01*
X8268490Y-13698016D02*
X8287537Y-13688492D01*
X8439918Y-13888492D02*
X8439918Y-13755159D01*
X8439918Y-13774206D02*
X8449442Y-13764682D01*
X8449442Y-13764682D02*
X8468490Y-13755159D01*
X8468490Y-13755159D02*
X8497061Y-13755159D01*
X8497061Y-13755159D02*
X8516109Y-13764682D01*
X8516109Y-13764682D02*
X8525633Y-13783730D01*
X8525633Y-13783730D02*
X8525633Y-13888492D01*
X8525633Y-13783730D02*
X8535156Y-13764682D01*
X8535156Y-13764682D02*
X8554204Y-13755159D01*
X8554204Y-13755159D02*
X8582775Y-13755159D01*
X8582775Y-13755159D02*
X8601823Y-13764682D01*
X8601823Y-13764682D02*
X8611347Y-13783730D01*
X8611347Y-13783730D02*
X8611347Y-13888492D01*
X8706585Y-13888492D02*
X8706585Y-13755159D01*
X8706585Y-13774206D02*
X8716109Y-13764682D01*
X8716109Y-13764682D02*
X8735156Y-13755159D01*
X8735156Y-13755159D02*
X8763728Y-13755159D01*
X8763728Y-13755159D02*
X8782776Y-13764682D01*
X8782776Y-13764682D02*
X8792299Y-13783730D01*
X8792299Y-13783730D02*
X8792299Y-13888492D01*
X8792299Y-13783730D02*
X8801823Y-13764682D01*
X8801823Y-13764682D02*
X8820871Y-13755159D01*
X8820871Y-13755159D02*
X8849442Y-13755159D01*
X8849442Y-13755159D02*
X8868490Y-13764682D01*
X8868490Y-13764682D02*
X8878014Y-13783730D01*
X8878014Y-13783730D02*
X8878014Y-13888492D01*
X9268490Y-13678968D02*
X9097061Y-13936111D01*
X9525633Y-13688492D02*
X9544680Y-13688492D01*
X9544680Y-13688492D02*
X9563728Y-13698016D01*
X9563728Y-13698016D02*
X9573252Y-13707540D01*
X9573252Y-13707540D02*
X9582776Y-13726587D01*
X9582776Y-13726587D02*
X9592299Y-13764682D01*
X9592299Y-13764682D02*
X9592299Y-13812301D01*
X9592299Y-13812301D02*
X9582776Y-13850397D01*
X9582776Y-13850397D02*
X9573252Y-13869444D01*
X9573252Y-13869444D02*
X9563728Y-13878968D01*
X9563728Y-13878968D02*
X9544680Y-13888492D01*
X9544680Y-13888492D02*
X9525633Y-13888492D01*
X9525633Y-13888492D02*
X9506585Y-13878968D01*
X9506585Y-13878968D02*
X9497061Y-13869444D01*
X9497061Y-13869444D02*
X9487538Y-13850397D01*
X9487538Y-13850397D02*
X9478014Y-13812301D01*
X9478014Y-13812301D02*
X9478014Y-13764682D01*
X9478014Y-13764682D02*
X9487538Y-13726587D01*
X9487538Y-13726587D02*
X9497061Y-13707540D01*
X9497061Y-13707540D02*
X9506585Y-13698016D01*
X9506585Y-13698016D02*
X9525633Y-13688492D01*
X9678014Y-13869444D02*
X9687538Y-13878968D01*
X9687538Y-13878968D02*
X9678014Y-13888492D01*
X9678014Y-13888492D02*
X9668490Y-13878968D01*
X9668490Y-13878968D02*
X9678014Y-13869444D01*
X9678014Y-13869444D02*
X9678014Y-13888492D01*
X9811347Y-13688492D02*
X9830395Y-13688492D01*
X9830395Y-13688492D02*
X9849442Y-13698016D01*
X9849442Y-13698016D02*
X9858966Y-13707540D01*
X9858966Y-13707540D02*
X9868490Y-13726587D01*
X9868490Y-13726587D02*
X9878014Y-13764682D01*
X9878014Y-13764682D02*
X9878014Y-13812301D01*
X9878014Y-13812301D02*
X9868490Y-13850397D01*
X9868490Y-13850397D02*
X9858966Y-13869444D01*
X9858966Y-13869444D02*
X9849442Y-13878968D01*
X9849442Y-13878968D02*
X9830395Y-13888492D01*
X9830395Y-13888492D02*
X9811347Y-13888492D01*
X9811347Y-13888492D02*
X9792299Y-13878968D01*
X9792299Y-13878968D02*
X9782776Y-13869444D01*
X9782776Y-13869444D02*
X9773252Y-13850397D01*
X9773252Y-13850397D02*
X9763728Y-13812301D01*
X9763728Y-13812301D02*
X9763728Y-13764682D01*
X9763728Y-13764682D02*
X9773252Y-13726587D01*
X9773252Y-13726587D02*
X9782776Y-13707540D01*
X9782776Y-13707540D02*
X9792299Y-13698016D01*
X9792299Y-13698016D02*
X9811347Y-13688492D01*
X9992299Y-13774206D02*
X9973252Y-13764682D01*
X9973252Y-13764682D02*
X9963728Y-13755159D01*
X9963728Y-13755159D02*
X9954204Y-13736111D01*
X9954204Y-13736111D02*
X9954204Y-13726587D01*
X9954204Y-13726587D02*
X9963728Y-13707540D01*
X9963728Y-13707540D02*
X9973252Y-13698016D01*
X9973252Y-13698016D02*
X9992299Y-13688492D01*
X9992299Y-13688492D02*
X10030395Y-13688492D01*
X10030395Y-13688492D02*
X10049442Y-13698016D01*
X10049442Y-13698016D02*
X10058966Y-13707540D01*
X10058966Y-13707540D02*
X10068490Y-13726587D01*
X10068490Y-13726587D02*
X10068490Y-13736111D01*
X10068490Y-13736111D02*
X10058966Y-13755159D01*
X10058966Y-13755159D02*
X10049442Y-13764682D01*
X10049442Y-13764682D02*
X10030395Y-13774206D01*
X10030395Y-13774206D02*
X9992299Y-13774206D01*
X9992299Y-13774206D02*
X9973252Y-13783730D01*
X9973252Y-13783730D02*
X9963728Y-13793254D01*
X9963728Y-13793254D02*
X9954204Y-13812301D01*
X9954204Y-13812301D02*
X9954204Y-13850397D01*
X9954204Y-13850397D02*
X9963728Y-13869444D01*
X9963728Y-13869444D02*
X9973252Y-13878968D01*
X9973252Y-13878968D02*
X9992299Y-13888492D01*
X9992299Y-13888492D02*
X10030395Y-13888492D01*
X10030395Y-13888492D02*
X10049442Y-13878968D01*
X10049442Y-13878968D02*
X10058966Y-13869444D01*
X10058966Y-13869444D02*
X10068490Y-13850397D01*
X10068490Y-13850397D02*
X10068490Y-13812301D01*
X10068490Y-13812301D02*
X10058966Y-13793254D01*
X10058966Y-13793254D02*
X10049442Y-13783730D01*
X10049442Y-13783730D02*
X10030395Y-13774206D01*
X10239919Y-13688492D02*
X10201823Y-13688492D01*
X10201823Y-13688492D02*
X10182776Y-13698016D01*
X10182776Y-13698016D02*
X10173252Y-13707540D01*
X10173252Y-13707540D02*
X10154204Y-13736111D01*
X10154204Y-13736111D02*
X10144680Y-13774206D01*
X10144680Y-13774206D02*
X10144680Y-13850397D01*
X10144680Y-13850397D02*
X10154204Y-13869444D01*
X10154204Y-13869444D02*
X10163728Y-13878968D01*
X10163728Y-13878968D02*
X10182776Y-13888492D01*
X10182776Y-13888492D02*
X10220871Y-13888492D01*
X10220871Y-13888492D02*
X10239919Y-13878968D01*
X10239919Y-13878968D02*
X10249442Y-13869444D01*
X10249442Y-13869444D02*
X10258966Y-13850397D01*
X10258966Y-13850397D02*
X10258966Y-13802778D01*
X10258966Y-13802778D02*
X10249442Y-13783730D01*
X10249442Y-13783730D02*
X10239919Y-13774206D01*
X10239919Y-13774206D02*
X10220871Y-13764682D01*
X10220871Y-13764682D02*
X10182776Y-13764682D01*
X10182776Y-13764682D02*
X10163728Y-13774206D01*
X10163728Y-13774206D02*
X10154204Y-13783730D01*
X10154204Y-13783730D02*
X10144680Y-13802778D01*
X10430395Y-13688492D02*
X10392299Y-13688492D01*
X10392299Y-13688492D02*
X10373252Y-13698016D01*
X10373252Y-13698016D02*
X10363728Y-13707540D01*
X10363728Y-13707540D02*
X10344680Y-13736111D01*
X10344680Y-13736111D02*
X10335157Y-13774206D01*
X10335157Y-13774206D02*
X10335157Y-13850397D01*
X10335157Y-13850397D02*
X10344680Y-13869444D01*
X10344680Y-13869444D02*
X10354204Y-13878968D01*
X10354204Y-13878968D02*
X10373252Y-13888492D01*
X10373252Y-13888492D02*
X10411347Y-13888492D01*
X10411347Y-13888492D02*
X10430395Y-13878968D01*
X10430395Y-13878968D02*
X10439919Y-13869444D01*
X10439919Y-13869444D02*
X10449442Y-13850397D01*
X10449442Y-13850397D02*
X10449442Y-13802778D01*
X10449442Y-13802778D02*
X10439919Y-13783730D01*
X10439919Y-13783730D02*
X10430395Y-13774206D01*
X10430395Y-13774206D02*
X10411347Y-13764682D01*
X10411347Y-13764682D02*
X10373252Y-13764682D01*
X10373252Y-13764682D02*
X10354204Y-13774206D01*
X10354204Y-13774206D02*
X10344680Y-13783730D01*
X10344680Y-13783730D02*
X10335157Y-13802778D01*
X10525633Y-13688492D02*
X10525633Y-13726587D01*
X10601823Y-13688492D02*
X10601823Y-13726587D01*
X10897062Y-13964682D02*
X10887538Y-13955159D01*
X10887538Y-13955159D02*
X10868490Y-13926587D01*
X10868490Y-13926587D02*
X10858966Y-13907540D01*
X10858966Y-13907540D02*
X10849442Y-13878968D01*
X10849442Y-13878968D02*
X10839919Y-13831349D01*
X10839919Y-13831349D02*
X10839919Y-13793254D01*
X10839919Y-13793254D02*
X10849442Y-13745635D01*
X10849442Y-13745635D02*
X10858966Y-13717063D01*
X10858966Y-13717063D02*
X10868490Y-13698016D01*
X10868490Y-13698016D02*
X10887538Y-13669444D01*
X10887538Y-13669444D02*
X10897062Y-13659920D01*
X11058966Y-13755159D02*
X11058966Y-13888492D01*
X11011347Y-13678968D02*
X10963728Y-13821825D01*
X10963728Y-13821825D02*
X11087538Y-13821825D01*
X11316109Y-13888492D02*
X11316109Y-13688492D01*
X11401823Y-13888492D02*
X11401823Y-13783730D01*
X11401823Y-13783730D02*
X11392300Y-13764682D01*
X11392300Y-13764682D02*
X11373252Y-13755159D01*
X11373252Y-13755159D02*
X11344680Y-13755159D01*
X11344680Y-13755159D02*
X11325633Y-13764682D01*
X11325633Y-13764682D02*
X11316109Y-13774206D01*
X11525633Y-13888492D02*
X11506585Y-13878968D01*
X11506585Y-13878968D02*
X11497061Y-13869444D01*
X11497061Y-13869444D02*
X11487538Y-13850397D01*
X11487538Y-13850397D02*
X11487538Y-13793254D01*
X11487538Y-13793254D02*
X11497061Y-13774206D01*
X11497061Y-13774206D02*
X11506585Y-13764682D01*
X11506585Y-13764682D02*
X11525633Y-13755159D01*
X11525633Y-13755159D02*
X11554204Y-13755159D01*
X11554204Y-13755159D02*
X11573252Y-13764682D01*
X11573252Y-13764682D02*
X11582776Y-13774206D01*
X11582776Y-13774206D02*
X11592300Y-13793254D01*
X11592300Y-13793254D02*
X11592300Y-13850397D01*
X11592300Y-13850397D02*
X11582776Y-13869444D01*
X11582776Y-13869444D02*
X11573252Y-13878968D01*
X11573252Y-13878968D02*
X11554204Y-13888492D01*
X11554204Y-13888492D02*
X11525633Y-13888492D01*
X11706585Y-13888492D02*
X11687538Y-13878968D01*
X11687538Y-13878968D02*
X11678014Y-13859920D01*
X11678014Y-13859920D02*
X11678014Y-13688492D01*
X11858966Y-13878968D02*
X11839919Y-13888492D01*
X11839919Y-13888492D02*
X11801823Y-13888492D01*
X11801823Y-13888492D02*
X11782776Y-13878968D01*
X11782776Y-13878968D02*
X11773252Y-13859920D01*
X11773252Y-13859920D02*
X11773252Y-13783730D01*
X11773252Y-13783730D02*
X11782776Y-13764682D01*
X11782776Y-13764682D02*
X11801823Y-13755159D01*
X11801823Y-13755159D02*
X11839919Y-13755159D01*
X11839919Y-13755159D02*
X11858966Y-13764682D01*
X11858966Y-13764682D02*
X11868490Y-13783730D01*
X11868490Y-13783730D02*
X11868490Y-13802778D01*
X11868490Y-13802778D02*
X11773252Y-13821825D01*
X11944681Y-13878968D02*
X11963728Y-13888492D01*
X11963728Y-13888492D02*
X12001823Y-13888492D01*
X12001823Y-13888492D02*
X12020871Y-13878968D01*
X12020871Y-13878968D02*
X12030395Y-13859920D01*
X12030395Y-13859920D02*
X12030395Y-13850397D01*
X12030395Y-13850397D02*
X12020871Y-13831349D01*
X12020871Y-13831349D02*
X12001823Y-13821825D01*
X12001823Y-13821825D02*
X11973252Y-13821825D01*
X11973252Y-13821825D02*
X11954204Y-13812301D01*
X11954204Y-13812301D02*
X11944681Y-13793254D01*
X11944681Y-13793254D02*
X11944681Y-13783730D01*
X11944681Y-13783730D02*
X11954204Y-13764682D01*
X11954204Y-13764682D02*
X11973252Y-13755159D01*
X11973252Y-13755159D02*
X12001823Y-13755159D01*
X12001823Y-13755159D02*
X12020871Y-13764682D01*
X12097062Y-13964682D02*
X12106585Y-13955159D01*
X12106585Y-13955159D02*
X12125633Y-13926587D01*
X12125633Y-13926587D02*
X12135157Y-13907540D01*
X12135157Y-13907540D02*
X12144681Y-13878968D01*
X12144681Y-13878968D02*
X12154204Y-13831349D01*
X12154204Y-13831349D02*
X12154204Y-13793254D01*
X12154204Y-13793254D02*
X12144681Y-13745635D01*
X12144681Y-13745635D02*
X12135157Y-13717063D01*
X12135157Y-13717063D02*
X12125633Y-13698016D01*
X12125633Y-13698016D02*
X12106585Y-13669444D01*
X12106585Y-13669444D02*
X12097062Y-13659920D01*
M02*
