%TF.GenerationSoftware,KiCad,Pcbnew,8.0.2*%
%TF.CreationDate,2024-07-05T22:45:18+08:00*%
%TF.ProjectId,controller,636f6e74-726f-46c6-9c65-722e6b696361,rev?*%
%TF.SameCoordinates,Original*%
%TF.FileFunction,Drillmap*%
%TF.FilePolarity,Positive*%
%FSLAX45Y45*%
G04 Gerber Fmt 4.5, Leading zero omitted, Abs format (unit mm)*
G04 Created by KiCad (PCBNEW 8.0.2) date 2024-07-05 22:45:18*
%MOMM*%
%LPD*%
G01*
G04 APERTURE LIST*
%ADD10C,0.200000*%
%ADD11C,0.180000*%
G04 APERTURE END LIST*
D10*
X13561989Y-5323001D02*
X13451991Y-5323001D01*
X11420000Y-6120000D02*
X11420000Y-5530000D01*
X13451991Y-5323001D02*
X13240000Y-5530000D01*
X15041417Y-6233582D02*
X14981996Y-6293001D01*
X11211986Y-5323001D02*
X11101991Y-5323001D01*
X14531989Y-6293001D02*
X13561989Y-5323001D01*
X9501145Y-9973842D02*
X9501151Y-9973841D01*
X11461994Y-10713008D02*
X11581986Y-10593001D01*
X13081991Y-10593001D02*
X13201996Y-10713008D01*
X9501145Y-9973842D02*
G75*
G02*
X9622568Y-6233575I-269145J1880842D01*
G01*
X15041422Y-6233575D02*
X15041417Y-6233582D01*
X14332001Y-9893001D02*
X15081996Y-9893001D01*
X11420000Y-5530000D02*
X11211986Y-5323001D01*
X11581986Y-10593001D02*
X12331996Y-10593001D01*
X13201996Y-10713008D02*
X13511994Y-10713008D01*
X9501143Y-9973844D02*
X9501145Y-9973842D01*
X12331996Y-10593001D02*
X13081991Y-10593001D01*
X14981996Y-6293001D02*
X14531989Y-6293001D01*
X11151984Y-10713008D02*
X11461994Y-10713008D01*
X9581981Y-9893001D02*
X10331989Y-9893001D01*
X15081996Y-9893001D02*
X15162834Y-9973841D01*
X9681981Y-6293001D02*
X9622563Y-6233582D01*
X15041422Y-6233575D02*
G75*
G02*
X15162833Y-9973841I390582J-1859425D01*
G01*
X10331989Y-9893001D02*
X11151984Y-10713008D01*
X13511994Y-10713008D02*
X14332001Y-9893001D01*
X9622563Y-6233582D02*
X9622568Y-6233575D01*
X13240000Y-6120000D02*
X11420000Y-6120000D01*
X9501151Y-9973841D02*
X9501143Y-9973844D01*
X11101991Y-5323001D02*
X10131989Y-6293001D01*
X10131989Y-6293001D02*
X9681981Y-6293001D01*
X9501145Y-9973842D02*
X9581981Y-9893001D01*
X13240000Y-5530000D02*
X13240000Y-6120000D01*
D11*
X8498100Y-7999200D02*
X8678100Y-8179200D01*
X8678100Y-7999200D02*
X8498100Y-8179200D01*
X9358100Y-7999200D02*
X9538100Y-8179200D01*
X9538100Y-7999200D02*
X9358100Y-8179200D01*
X15088100Y-7989200D02*
X15268100Y-8169200D01*
X15268100Y-7989200D02*
X15088100Y-8169200D01*
X15948100Y-7989200D02*
X16128100Y-8169200D01*
X16128100Y-7989200D02*
X15948100Y-8169200D01*
D10*
X7582775Y-11034492D02*
X7582775Y-10834492D01*
X7582775Y-10834492D02*
X7630394Y-10834492D01*
X7630394Y-10834492D02*
X7658966Y-10844016D01*
X7658966Y-10844016D02*
X7678013Y-10863063D01*
X7678013Y-10863063D02*
X7687537Y-10882111D01*
X7687537Y-10882111D02*
X7697061Y-10920206D01*
X7697061Y-10920206D02*
X7697061Y-10948778D01*
X7697061Y-10948778D02*
X7687537Y-10986873D01*
X7687537Y-10986873D02*
X7678013Y-11005921D01*
X7678013Y-11005921D02*
X7658966Y-11024968D01*
X7658966Y-11024968D02*
X7630394Y-11034492D01*
X7630394Y-11034492D02*
X7582775Y-11034492D01*
X7782775Y-11034492D02*
X7782775Y-10901159D01*
X7782775Y-10939254D02*
X7792299Y-10920206D01*
X7792299Y-10920206D02*
X7801823Y-10910682D01*
X7801823Y-10910682D02*
X7820871Y-10901159D01*
X7820871Y-10901159D02*
X7839918Y-10901159D01*
X7906585Y-11034492D02*
X7906585Y-10901159D01*
X7906585Y-10834492D02*
X7897061Y-10844016D01*
X7897061Y-10844016D02*
X7906585Y-10853540D01*
X7906585Y-10853540D02*
X7916109Y-10844016D01*
X7916109Y-10844016D02*
X7906585Y-10834492D01*
X7906585Y-10834492D02*
X7906585Y-10853540D01*
X8030394Y-11034492D02*
X8011347Y-11024968D01*
X8011347Y-11024968D02*
X8001823Y-11005921D01*
X8001823Y-11005921D02*
X8001823Y-10834492D01*
X8135156Y-11034492D02*
X8116109Y-11024968D01*
X8116109Y-11024968D02*
X8106585Y-11005921D01*
X8106585Y-11005921D02*
X8106585Y-10834492D01*
X8363728Y-11034492D02*
X8363728Y-10834492D01*
X8363728Y-10834492D02*
X8430395Y-10977349D01*
X8430395Y-10977349D02*
X8497061Y-10834492D01*
X8497061Y-10834492D02*
X8497061Y-11034492D01*
X8678014Y-11034492D02*
X8678014Y-10929730D01*
X8678014Y-10929730D02*
X8668490Y-10910682D01*
X8668490Y-10910682D02*
X8649442Y-10901159D01*
X8649442Y-10901159D02*
X8611347Y-10901159D01*
X8611347Y-10901159D02*
X8592299Y-10910682D01*
X8678014Y-11024968D02*
X8658966Y-11034492D01*
X8658966Y-11034492D02*
X8611347Y-11034492D01*
X8611347Y-11034492D02*
X8592299Y-11024968D01*
X8592299Y-11024968D02*
X8582775Y-11005921D01*
X8582775Y-11005921D02*
X8582775Y-10986873D01*
X8582775Y-10986873D02*
X8592299Y-10967825D01*
X8592299Y-10967825D02*
X8611347Y-10958302D01*
X8611347Y-10958302D02*
X8658966Y-10958302D01*
X8658966Y-10958302D02*
X8678014Y-10948778D01*
X8773252Y-10901159D02*
X8773252Y-11101159D01*
X8773252Y-10910682D02*
X8792299Y-10901159D01*
X8792299Y-10901159D02*
X8830395Y-10901159D01*
X8830395Y-10901159D02*
X8849442Y-10910682D01*
X8849442Y-10910682D02*
X8858966Y-10920206D01*
X8858966Y-10920206D02*
X8868490Y-10939254D01*
X8868490Y-10939254D02*
X8868490Y-10996397D01*
X8868490Y-10996397D02*
X8858966Y-11015444D01*
X8858966Y-11015444D02*
X8849442Y-11024968D01*
X8849442Y-11024968D02*
X8830395Y-11034492D01*
X8830395Y-11034492D02*
X8792299Y-11034492D01*
X8792299Y-11034492D02*
X8773252Y-11024968D01*
X8954204Y-11015444D02*
X8963728Y-11024968D01*
X8963728Y-11024968D02*
X8954204Y-11034492D01*
X8954204Y-11034492D02*
X8944680Y-11024968D01*
X8944680Y-11024968D02*
X8954204Y-11015444D01*
X8954204Y-11015444D02*
X8954204Y-11034492D01*
X8954204Y-10910682D02*
X8963728Y-10920206D01*
X8963728Y-10920206D02*
X8954204Y-10929730D01*
X8954204Y-10929730D02*
X8944680Y-10920206D01*
X8944680Y-10920206D02*
X8954204Y-10910682D01*
X8954204Y-10910682D02*
X8954204Y-10929730D01*
D11*
X7141999Y-11273008D02*
X7321999Y-11453008D01*
X7321999Y-11273008D02*
X7141999Y-11453008D01*
D10*
X7687537Y-11454492D02*
X7573252Y-11454492D01*
X7630394Y-11454492D02*
X7630394Y-11254492D01*
X7630394Y-11254492D02*
X7611347Y-11283063D01*
X7611347Y-11283063D02*
X7592299Y-11302111D01*
X7592299Y-11302111D02*
X7573252Y-11311635D01*
X7773252Y-11435444D02*
X7782775Y-11444968D01*
X7782775Y-11444968D02*
X7773252Y-11454492D01*
X7773252Y-11454492D02*
X7763728Y-11444968D01*
X7763728Y-11444968D02*
X7773252Y-11435444D01*
X7773252Y-11435444D02*
X7773252Y-11454492D01*
X7897061Y-11340206D02*
X7878013Y-11330682D01*
X7878013Y-11330682D02*
X7868490Y-11321159D01*
X7868490Y-11321159D02*
X7858966Y-11302111D01*
X7858966Y-11302111D02*
X7858966Y-11292587D01*
X7858966Y-11292587D02*
X7868490Y-11273540D01*
X7868490Y-11273540D02*
X7878013Y-11264016D01*
X7878013Y-11264016D02*
X7897061Y-11254492D01*
X7897061Y-11254492D02*
X7935156Y-11254492D01*
X7935156Y-11254492D02*
X7954204Y-11264016D01*
X7954204Y-11264016D02*
X7963728Y-11273540D01*
X7963728Y-11273540D02*
X7973252Y-11292587D01*
X7973252Y-11292587D02*
X7973252Y-11302111D01*
X7973252Y-11302111D02*
X7963728Y-11321159D01*
X7963728Y-11321159D02*
X7954204Y-11330682D01*
X7954204Y-11330682D02*
X7935156Y-11340206D01*
X7935156Y-11340206D02*
X7897061Y-11340206D01*
X7897061Y-11340206D02*
X7878013Y-11349730D01*
X7878013Y-11349730D02*
X7868490Y-11359254D01*
X7868490Y-11359254D02*
X7858966Y-11378301D01*
X7858966Y-11378301D02*
X7858966Y-11416397D01*
X7858966Y-11416397D02*
X7868490Y-11435444D01*
X7868490Y-11435444D02*
X7878013Y-11444968D01*
X7878013Y-11444968D02*
X7897061Y-11454492D01*
X7897061Y-11454492D02*
X7935156Y-11454492D01*
X7935156Y-11454492D02*
X7954204Y-11444968D01*
X7954204Y-11444968D02*
X7963728Y-11435444D01*
X7963728Y-11435444D02*
X7973252Y-11416397D01*
X7973252Y-11416397D02*
X7973252Y-11378301D01*
X7973252Y-11378301D02*
X7963728Y-11359254D01*
X7963728Y-11359254D02*
X7954204Y-11349730D01*
X7954204Y-11349730D02*
X7935156Y-11340206D01*
X8097061Y-11254492D02*
X8116109Y-11254492D01*
X8116109Y-11254492D02*
X8135156Y-11264016D01*
X8135156Y-11264016D02*
X8144680Y-11273540D01*
X8144680Y-11273540D02*
X8154204Y-11292587D01*
X8154204Y-11292587D02*
X8163728Y-11330682D01*
X8163728Y-11330682D02*
X8163728Y-11378301D01*
X8163728Y-11378301D02*
X8154204Y-11416397D01*
X8154204Y-11416397D02*
X8144680Y-11435444D01*
X8144680Y-11435444D02*
X8135156Y-11444968D01*
X8135156Y-11444968D02*
X8116109Y-11454492D01*
X8116109Y-11454492D02*
X8097061Y-11454492D01*
X8097061Y-11454492D02*
X8078013Y-11444968D01*
X8078013Y-11444968D02*
X8068490Y-11435444D01*
X8068490Y-11435444D02*
X8058966Y-11416397D01*
X8058966Y-11416397D02*
X8049442Y-11378301D01*
X8049442Y-11378301D02*
X8049442Y-11330682D01*
X8049442Y-11330682D02*
X8058966Y-11292587D01*
X8058966Y-11292587D02*
X8068490Y-11273540D01*
X8068490Y-11273540D02*
X8078013Y-11264016D01*
X8078013Y-11264016D02*
X8097061Y-11254492D01*
X8287537Y-11254492D02*
X8306585Y-11254492D01*
X8306585Y-11254492D02*
X8325633Y-11264016D01*
X8325633Y-11264016D02*
X8335156Y-11273540D01*
X8335156Y-11273540D02*
X8344680Y-11292587D01*
X8344680Y-11292587D02*
X8354204Y-11330682D01*
X8354204Y-11330682D02*
X8354204Y-11378301D01*
X8354204Y-11378301D02*
X8344680Y-11416397D01*
X8344680Y-11416397D02*
X8335156Y-11435444D01*
X8335156Y-11435444D02*
X8325633Y-11444968D01*
X8325633Y-11444968D02*
X8306585Y-11454492D01*
X8306585Y-11454492D02*
X8287537Y-11454492D01*
X8287537Y-11454492D02*
X8268490Y-11444968D01*
X8268490Y-11444968D02*
X8258966Y-11435444D01*
X8258966Y-11435444D02*
X8249442Y-11416397D01*
X8249442Y-11416397D02*
X8239918Y-11378301D01*
X8239918Y-11378301D02*
X8239918Y-11330682D01*
X8239918Y-11330682D02*
X8249442Y-11292587D01*
X8249442Y-11292587D02*
X8258966Y-11273540D01*
X8258966Y-11273540D02*
X8268490Y-11264016D01*
X8268490Y-11264016D02*
X8287537Y-11254492D01*
X8439918Y-11454492D02*
X8439918Y-11321159D01*
X8439918Y-11340206D02*
X8449442Y-11330682D01*
X8449442Y-11330682D02*
X8468490Y-11321159D01*
X8468490Y-11321159D02*
X8497061Y-11321159D01*
X8497061Y-11321159D02*
X8516109Y-11330682D01*
X8516109Y-11330682D02*
X8525633Y-11349730D01*
X8525633Y-11349730D02*
X8525633Y-11454492D01*
X8525633Y-11349730D02*
X8535156Y-11330682D01*
X8535156Y-11330682D02*
X8554204Y-11321159D01*
X8554204Y-11321159D02*
X8582775Y-11321159D01*
X8582775Y-11321159D02*
X8601823Y-11330682D01*
X8601823Y-11330682D02*
X8611347Y-11349730D01*
X8611347Y-11349730D02*
X8611347Y-11454492D01*
X8706585Y-11454492D02*
X8706585Y-11321159D01*
X8706585Y-11340206D02*
X8716109Y-11330682D01*
X8716109Y-11330682D02*
X8735156Y-11321159D01*
X8735156Y-11321159D02*
X8763728Y-11321159D01*
X8763728Y-11321159D02*
X8782776Y-11330682D01*
X8782776Y-11330682D02*
X8792299Y-11349730D01*
X8792299Y-11349730D02*
X8792299Y-11454492D01*
X8792299Y-11349730D02*
X8801823Y-11330682D01*
X8801823Y-11330682D02*
X8820871Y-11321159D01*
X8820871Y-11321159D02*
X8849442Y-11321159D01*
X8849442Y-11321159D02*
X8868490Y-11330682D01*
X8868490Y-11330682D02*
X8878014Y-11349730D01*
X8878014Y-11349730D02*
X8878014Y-11454492D01*
X9268490Y-11244968D02*
X9097061Y-11502111D01*
X9525633Y-11254492D02*
X9544680Y-11254492D01*
X9544680Y-11254492D02*
X9563728Y-11264016D01*
X9563728Y-11264016D02*
X9573252Y-11273540D01*
X9573252Y-11273540D02*
X9582776Y-11292587D01*
X9582776Y-11292587D02*
X9592299Y-11330682D01*
X9592299Y-11330682D02*
X9592299Y-11378301D01*
X9592299Y-11378301D02*
X9582776Y-11416397D01*
X9582776Y-11416397D02*
X9573252Y-11435444D01*
X9573252Y-11435444D02*
X9563728Y-11444968D01*
X9563728Y-11444968D02*
X9544680Y-11454492D01*
X9544680Y-11454492D02*
X9525633Y-11454492D01*
X9525633Y-11454492D02*
X9506585Y-11444968D01*
X9506585Y-11444968D02*
X9497061Y-11435444D01*
X9497061Y-11435444D02*
X9487538Y-11416397D01*
X9487538Y-11416397D02*
X9478014Y-11378301D01*
X9478014Y-11378301D02*
X9478014Y-11330682D01*
X9478014Y-11330682D02*
X9487538Y-11292587D01*
X9487538Y-11292587D02*
X9497061Y-11273540D01*
X9497061Y-11273540D02*
X9506585Y-11264016D01*
X9506585Y-11264016D02*
X9525633Y-11254492D01*
X9678014Y-11435444D02*
X9687538Y-11444968D01*
X9687538Y-11444968D02*
X9678014Y-11454492D01*
X9678014Y-11454492D02*
X9668490Y-11444968D01*
X9668490Y-11444968D02*
X9678014Y-11435444D01*
X9678014Y-11435444D02*
X9678014Y-11454492D01*
X9811347Y-11254492D02*
X9830395Y-11254492D01*
X9830395Y-11254492D02*
X9849442Y-11264016D01*
X9849442Y-11264016D02*
X9858966Y-11273540D01*
X9858966Y-11273540D02*
X9868490Y-11292587D01*
X9868490Y-11292587D02*
X9878014Y-11330682D01*
X9878014Y-11330682D02*
X9878014Y-11378301D01*
X9878014Y-11378301D02*
X9868490Y-11416397D01*
X9868490Y-11416397D02*
X9858966Y-11435444D01*
X9858966Y-11435444D02*
X9849442Y-11444968D01*
X9849442Y-11444968D02*
X9830395Y-11454492D01*
X9830395Y-11454492D02*
X9811347Y-11454492D01*
X9811347Y-11454492D02*
X9792299Y-11444968D01*
X9792299Y-11444968D02*
X9782776Y-11435444D01*
X9782776Y-11435444D02*
X9773252Y-11416397D01*
X9773252Y-11416397D02*
X9763728Y-11378301D01*
X9763728Y-11378301D02*
X9763728Y-11330682D01*
X9763728Y-11330682D02*
X9773252Y-11292587D01*
X9773252Y-11292587D02*
X9782776Y-11273540D01*
X9782776Y-11273540D02*
X9792299Y-11264016D01*
X9792299Y-11264016D02*
X9811347Y-11254492D01*
X9944680Y-11254492D02*
X10078014Y-11254492D01*
X10078014Y-11254492D02*
X9992299Y-11454492D01*
X10192299Y-11254492D02*
X10211347Y-11254492D01*
X10211347Y-11254492D02*
X10230395Y-11264016D01*
X10230395Y-11264016D02*
X10239919Y-11273540D01*
X10239919Y-11273540D02*
X10249442Y-11292587D01*
X10249442Y-11292587D02*
X10258966Y-11330682D01*
X10258966Y-11330682D02*
X10258966Y-11378301D01*
X10258966Y-11378301D02*
X10249442Y-11416397D01*
X10249442Y-11416397D02*
X10239919Y-11435444D01*
X10239919Y-11435444D02*
X10230395Y-11444968D01*
X10230395Y-11444968D02*
X10211347Y-11454492D01*
X10211347Y-11454492D02*
X10192299Y-11454492D01*
X10192299Y-11454492D02*
X10173252Y-11444968D01*
X10173252Y-11444968D02*
X10163728Y-11435444D01*
X10163728Y-11435444D02*
X10154204Y-11416397D01*
X10154204Y-11416397D02*
X10144680Y-11378301D01*
X10144680Y-11378301D02*
X10144680Y-11330682D01*
X10144680Y-11330682D02*
X10154204Y-11292587D01*
X10154204Y-11292587D02*
X10163728Y-11273540D01*
X10163728Y-11273540D02*
X10173252Y-11264016D01*
X10173252Y-11264016D02*
X10192299Y-11254492D01*
X10354204Y-11454492D02*
X10392299Y-11454492D01*
X10392299Y-11454492D02*
X10411347Y-11444968D01*
X10411347Y-11444968D02*
X10420871Y-11435444D01*
X10420871Y-11435444D02*
X10439919Y-11406873D01*
X10439919Y-11406873D02*
X10449442Y-11368778D01*
X10449442Y-11368778D02*
X10449442Y-11292587D01*
X10449442Y-11292587D02*
X10439919Y-11273540D01*
X10439919Y-11273540D02*
X10430395Y-11264016D01*
X10430395Y-11264016D02*
X10411347Y-11254492D01*
X10411347Y-11254492D02*
X10373252Y-11254492D01*
X10373252Y-11254492D02*
X10354204Y-11264016D01*
X10354204Y-11264016D02*
X10344680Y-11273540D01*
X10344680Y-11273540D02*
X10335157Y-11292587D01*
X10335157Y-11292587D02*
X10335157Y-11340206D01*
X10335157Y-11340206D02*
X10344680Y-11359254D01*
X10344680Y-11359254D02*
X10354204Y-11368778D01*
X10354204Y-11368778D02*
X10373252Y-11378301D01*
X10373252Y-11378301D02*
X10411347Y-11378301D01*
X10411347Y-11378301D02*
X10430395Y-11368778D01*
X10430395Y-11368778D02*
X10439919Y-11359254D01*
X10439919Y-11359254D02*
X10449442Y-11340206D01*
X10525633Y-11254492D02*
X10525633Y-11292587D01*
X10601823Y-11254492D02*
X10601823Y-11292587D01*
X10897062Y-11530682D02*
X10887538Y-11521159D01*
X10887538Y-11521159D02*
X10868490Y-11492587D01*
X10868490Y-11492587D02*
X10858966Y-11473540D01*
X10858966Y-11473540D02*
X10849442Y-11444968D01*
X10849442Y-11444968D02*
X10839919Y-11397349D01*
X10839919Y-11397349D02*
X10839919Y-11359254D01*
X10839919Y-11359254D02*
X10849442Y-11311635D01*
X10849442Y-11311635D02*
X10858966Y-11283063D01*
X10858966Y-11283063D02*
X10868490Y-11264016D01*
X10868490Y-11264016D02*
X10887538Y-11235444D01*
X10887538Y-11235444D02*
X10897062Y-11225920D01*
X11058966Y-11321159D02*
X11058966Y-11454492D01*
X11011347Y-11244968D02*
X10963728Y-11387825D01*
X10963728Y-11387825D02*
X11087538Y-11387825D01*
X11316109Y-11454492D02*
X11316109Y-11254492D01*
X11401823Y-11454492D02*
X11401823Y-11349730D01*
X11401823Y-11349730D02*
X11392300Y-11330682D01*
X11392300Y-11330682D02*
X11373252Y-11321159D01*
X11373252Y-11321159D02*
X11344680Y-11321159D01*
X11344680Y-11321159D02*
X11325633Y-11330682D01*
X11325633Y-11330682D02*
X11316109Y-11340206D01*
X11525633Y-11454492D02*
X11506585Y-11444968D01*
X11506585Y-11444968D02*
X11497061Y-11435444D01*
X11497061Y-11435444D02*
X11487538Y-11416397D01*
X11487538Y-11416397D02*
X11487538Y-11359254D01*
X11487538Y-11359254D02*
X11497061Y-11340206D01*
X11497061Y-11340206D02*
X11506585Y-11330682D01*
X11506585Y-11330682D02*
X11525633Y-11321159D01*
X11525633Y-11321159D02*
X11554204Y-11321159D01*
X11554204Y-11321159D02*
X11573252Y-11330682D01*
X11573252Y-11330682D02*
X11582776Y-11340206D01*
X11582776Y-11340206D02*
X11592300Y-11359254D01*
X11592300Y-11359254D02*
X11592300Y-11416397D01*
X11592300Y-11416397D02*
X11582776Y-11435444D01*
X11582776Y-11435444D02*
X11573252Y-11444968D01*
X11573252Y-11444968D02*
X11554204Y-11454492D01*
X11554204Y-11454492D02*
X11525633Y-11454492D01*
X11706585Y-11454492D02*
X11687538Y-11444968D01*
X11687538Y-11444968D02*
X11678014Y-11425920D01*
X11678014Y-11425920D02*
X11678014Y-11254492D01*
X11858966Y-11444968D02*
X11839919Y-11454492D01*
X11839919Y-11454492D02*
X11801823Y-11454492D01*
X11801823Y-11454492D02*
X11782776Y-11444968D01*
X11782776Y-11444968D02*
X11773252Y-11425920D01*
X11773252Y-11425920D02*
X11773252Y-11349730D01*
X11773252Y-11349730D02*
X11782776Y-11330682D01*
X11782776Y-11330682D02*
X11801823Y-11321159D01*
X11801823Y-11321159D02*
X11839919Y-11321159D01*
X11839919Y-11321159D02*
X11858966Y-11330682D01*
X11858966Y-11330682D02*
X11868490Y-11349730D01*
X11868490Y-11349730D02*
X11868490Y-11368778D01*
X11868490Y-11368778D02*
X11773252Y-11387825D01*
X11944681Y-11444968D02*
X11963728Y-11454492D01*
X11963728Y-11454492D02*
X12001823Y-11454492D01*
X12001823Y-11454492D02*
X12020871Y-11444968D01*
X12020871Y-11444968D02*
X12030395Y-11425920D01*
X12030395Y-11425920D02*
X12030395Y-11416397D01*
X12030395Y-11416397D02*
X12020871Y-11397349D01*
X12020871Y-11397349D02*
X12001823Y-11387825D01*
X12001823Y-11387825D02*
X11973252Y-11387825D01*
X11973252Y-11387825D02*
X11954204Y-11378301D01*
X11954204Y-11378301D02*
X11944681Y-11359254D01*
X11944681Y-11359254D02*
X11944681Y-11349730D01*
X11944681Y-11349730D02*
X11954204Y-11330682D01*
X11954204Y-11330682D02*
X11973252Y-11321159D01*
X11973252Y-11321159D02*
X12001823Y-11321159D01*
X12001823Y-11321159D02*
X12020871Y-11330682D01*
X12097062Y-11530682D02*
X12106585Y-11521159D01*
X12106585Y-11521159D02*
X12125633Y-11492587D01*
X12125633Y-11492587D02*
X12135157Y-11473540D01*
X12135157Y-11473540D02*
X12144681Y-11444968D01*
X12144681Y-11444968D02*
X12154204Y-11397349D01*
X12154204Y-11397349D02*
X12154204Y-11359254D01*
X12154204Y-11359254D02*
X12144681Y-11311635D01*
X12144681Y-11311635D02*
X12135157Y-11283063D01*
X12135157Y-11283063D02*
X12125633Y-11264016D01*
X12125633Y-11264016D02*
X12106585Y-11235444D01*
X12106585Y-11235444D02*
X12097062Y-11225920D01*
X12458966Y-11530682D02*
X12449442Y-11521159D01*
X12449442Y-11521159D02*
X12430395Y-11492587D01*
X12430395Y-11492587D02*
X12420871Y-11473540D01*
X12420871Y-11473540D02*
X12411347Y-11444968D01*
X12411347Y-11444968D02*
X12401823Y-11397349D01*
X12401823Y-11397349D02*
X12401823Y-11359254D01*
X12401823Y-11359254D02*
X12411347Y-11311635D01*
X12411347Y-11311635D02*
X12420871Y-11283063D01*
X12420871Y-11283063D02*
X12430395Y-11264016D01*
X12430395Y-11264016D02*
X12449442Y-11235444D01*
X12449442Y-11235444D02*
X12458966Y-11225920D01*
X12535157Y-11321159D02*
X12535157Y-11454492D01*
X12535157Y-11340206D02*
X12544681Y-11330682D01*
X12544681Y-11330682D02*
X12563728Y-11321159D01*
X12563728Y-11321159D02*
X12592300Y-11321159D01*
X12592300Y-11321159D02*
X12611347Y-11330682D01*
X12611347Y-11330682D02*
X12620871Y-11349730D01*
X12620871Y-11349730D02*
X12620871Y-11454492D01*
X12744681Y-11454492D02*
X12725633Y-11444968D01*
X12725633Y-11444968D02*
X12716109Y-11435444D01*
X12716109Y-11435444D02*
X12706585Y-11416397D01*
X12706585Y-11416397D02*
X12706585Y-11359254D01*
X12706585Y-11359254D02*
X12716109Y-11340206D01*
X12716109Y-11340206D02*
X12725633Y-11330682D01*
X12725633Y-11330682D02*
X12744681Y-11321159D01*
X12744681Y-11321159D02*
X12773252Y-11321159D01*
X12773252Y-11321159D02*
X12792300Y-11330682D01*
X12792300Y-11330682D02*
X12801823Y-11340206D01*
X12801823Y-11340206D02*
X12811347Y-11359254D01*
X12811347Y-11359254D02*
X12811347Y-11416397D01*
X12811347Y-11416397D02*
X12801823Y-11435444D01*
X12801823Y-11435444D02*
X12792300Y-11444968D01*
X12792300Y-11444968D02*
X12773252Y-11454492D01*
X12773252Y-11454492D02*
X12744681Y-11454492D01*
X12868490Y-11321159D02*
X12944681Y-11321159D01*
X12897062Y-11254492D02*
X12897062Y-11425920D01*
X12897062Y-11425920D02*
X12906585Y-11444968D01*
X12906585Y-11444968D02*
X12925633Y-11454492D01*
X12925633Y-11454492D02*
X12944681Y-11454492D01*
X13163728Y-11321159D02*
X13163728Y-11521159D01*
X13163728Y-11330682D02*
X13182776Y-11321159D01*
X13182776Y-11321159D02*
X13220871Y-11321159D01*
X13220871Y-11321159D02*
X13239919Y-11330682D01*
X13239919Y-11330682D02*
X13249443Y-11340206D01*
X13249443Y-11340206D02*
X13258966Y-11359254D01*
X13258966Y-11359254D02*
X13258966Y-11416397D01*
X13258966Y-11416397D02*
X13249443Y-11435444D01*
X13249443Y-11435444D02*
X13239919Y-11444968D01*
X13239919Y-11444968D02*
X13220871Y-11454492D01*
X13220871Y-11454492D02*
X13182776Y-11454492D01*
X13182776Y-11454492D02*
X13163728Y-11444968D01*
X13373252Y-11454492D02*
X13354204Y-11444968D01*
X13354204Y-11444968D02*
X13344681Y-11425920D01*
X13344681Y-11425920D02*
X13344681Y-11254492D01*
X13535157Y-11454492D02*
X13535157Y-11349730D01*
X13535157Y-11349730D02*
X13525633Y-11330682D01*
X13525633Y-11330682D02*
X13506585Y-11321159D01*
X13506585Y-11321159D02*
X13468490Y-11321159D01*
X13468490Y-11321159D02*
X13449443Y-11330682D01*
X13535157Y-11444968D02*
X13516109Y-11454492D01*
X13516109Y-11454492D02*
X13468490Y-11454492D01*
X13468490Y-11454492D02*
X13449443Y-11444968D01*
X13449443Y-11444968D02*
X13439919Y-11425920D01*
X13439919Y-11425920D02*
X13439919Y-11406873D01*
X13439919Y-11406873D02*
X13449443Y-11387825D01*
X13449443Y-11387825D02*
X13468490Y-11378301D01*
X13468490Y-11378301D02*
X13516109Y-11378301D01*
X13516109Y-11378301D02*
X13535157Y-11368778D01*
X13601824Y-11321159D02*
X13678014Y-11321159D01*
X13630395Y-11254492D02*
X13630395Y-11425920D01*
X13630395Y-11425920D02*
X13639919Y-11444968D01*
X13639919Y-11444968D02*
X13658966Y-11454492D01*
X13658966Y-11454492D02*
X13678014Y-11454492D01*
X13820871Y-11444968D02*
X13801824Y-11454492D01*
X13801824Y-11454492D02*
X13763728Y-11454492D01*
X13763728Y-11454492D02*
X13744681Y-11444968D01*
X13744681Y-11444968D02*
X13735157Y-11425920D01*
X13735157Y-11425920D02*
X13735157Y-11349730D01*
X13735157Y-11349730D02*
X13744681Y-11330682D01*
X13744681Y-11330682D02*
X13763728Y-11321159D01*
X13763728Y-11321159D02*
X13801824Y-11321159D01*
X13801824Y-11321159D02*
X13820871Y-11330682D01*
X13820871Y-11330682D02*
X13830395Y-11349730D01*
X13830395Y-11349730D02*
X13830395Y-11368778D01*
X13830395Y-11368778D02*
X13735157Y-11387825D01*
X14001824Y-11454492D02*
X14001824Y-11254492D01*
X14001824Y-11444968D02*
X13982776Y-11454492D01*
X13982776Y-11454492D02*
X13944681Y-11454492D01*
X13944681Y-11454492D02*
X13925633Y-11444968D01*
X13925633Y-11444968D02*
X13916109Y-11435444D01*
X13916109Y-11435444D02*
X13906585Y-11416397D01*
X13906585Y-11416397D02*
X13906585Y-11359254D01*
X13906585Y-11359254D02*
X13916109Y-11340206D01*
X13916109Y-11340206D02*
X13925633Y-11330682D01*
X13925633Y-11330682D02*
X13944681Y-11321159D01*
X13944681Y-11321159D02*
X13982776Y-11321159D01*
X13982776Y-11321159D02*
X14001824Y-11330682D01*
X14078014Y-11530682D02*
X14087538Y-11521159D01*
X14087538Y-11521159D02*
X14106585Y-11492587D01*
X14106585Y-11492587D02*
X14116109Y-11473540D01*
X14116109Y-11473540D02*
X14125633Y-11444968D01*
X14125633Y-11444968D02*
X14135157Y-11397349D01*
X14135157Y-11397349D02*
X14135157Y-11359254D01*
X14135157Y-11359254D02*
X14125633Y-11311635D01*
X14125633Y-11311635D02*
X14116109Y-11283063D01*
X14116109Y-11283063D02*
X14106585Y-11264016D01*
X14106585Y-11264016D02*
X14087538Y-11235444D01*
X14087538Y-11235444D02*
X14078014Y-11225920D01*
M02*
