%TF.GenerationSoftware,KiCad,Pcbnew,8.0.2*%
%TF.CreationDate,2024-07-05T22:45:23+08:00*%
%TF.ProjectId,controller,636f6e74-726f-46c6-9c65-722e6b696361,rev?*%
%TF.SameCoordinates,Original*%
%TF.FileFunction,Paste,Top*%
%TF.FilePolarity,Positive*%
%FSLAX46Y46*%
G04 Gerber Fmt 4.6, Leading zero omitted, Abs format (unit mm)*
G04 Created by KiCad (PCBNEW 8.0.2) date 2024-07-05 22:45:23*
%MOMM*%
%LPD*%
G01*
G04 APERTURE LIST*
G04 Aperture macros list*
%AMRoundRect*
0 Rectangle with rounded corners*
0 $1 Rounding radius*
0 $2 $3 $4 $5 $6 $7 $8 $9 X,Y pos of 4 corners*
0 Add a 4 corners polygon primitive as box body*
4,1,4,$2,$3,$4,$5,$6,$7,$8,$9,$2,$3,0*
0 Add four circle primitives for the rounded corners*
1,1,$1+$1,$2,$3*
1,1,$1+$1,$4,$5*
1,1,$1+$1,$6,$7*
1,1,$1+$1,$8,$9*
0 Add four rect primitives between the rounded corners*
20,1,$1+$1,$2,$3,$4,$5,0*
20,1,$1+$1,$4,$5,$6,$7,0*
20,1,$1+$1,$6,$7,$8,$9,0*
20,1,$1+$1,$8,$9,$2,$3,0*%
%AMRotRect*
0 Rectangle, with rotation*
0 The origin of the aperture is its center*
0 $1 length*
0 $2 width*
0 $3 Rotation angle, in degrees counterclockwise*
0 Add horizontal line*
21,1,$1,$2,0,0,$3*%
G04 Aperture macros list end*
%ADD10R,1.500000X0.900000*%
%ADD11RoundRect,0.150000X-0.587500X-0.150000X0.587500X-0.150000X0.587500X0.150000X-0.587500X0.150000X0*%
%ADD12RoundRect,0.237500X0.237500X-0.300000X0.237500X0.300000X-0.237500X0.300000X-0.237500X-0.300000X0*%
%ADD13R,2.000000X1.200000*%
%ADD14R,1.600000X0.600000*%
%ADD15RoundRect,0.150000X0.150000X-0.512500X0.150000X0.512500X-0.150000X0.512500X-0.150000X-0.512500X0*%
%ADD16RoundRect,0.237500X0.237500X-0.250000X0.237500X0.250000X-0.237500X0.250000X-0.237500X-0.250000X0*%
%ADD17RoundRect,0.150000X-0.150000X0.587500X-0.150000X-0.587500X0.150000X-0.587500X0.150000X0.587500X0*%
%ADD18RotRect,2.000000X2.000000X45.000000*%
%ADD19RoundRect,0.237500X-0.250000X-0.237500X0.250000X-0.237500X0.250000X0.237500X-0.250000X0.237500X0*%
%ADD20RoundRect,0.237500X0.237500X-0.287500X0.237500X0.287500X-0.237500X0.287500X-0.237500X-0.287500X0*%
%ADD21RoundRect,0.250000X-0.475000X0.337500X-0.475000X-0.337500X0.475000X-0.337500X0.475000X0.337500X0*%
%ADD22RoundRect,0.237500X0.287500X0.237500X-0.287500X0.237500X-0.287500X-0.237500X0.287500X-0.237500X0*%
%ADD23RoundRect,0.237500X0.250000X0.237500X-0.250000X0.237500X-0.250000X-0.237500X0.250000X-0.237500X0*%
%ADD24RotRect,2.000000X2.000000X135.000000*%
%ADD25RoundRect,0.150000X0.150000X-0.587500X0.150000X0.587500X-0.150000X0.587500X-0.150000X-0.587500X0*%
%ADD26RoundRect,0.237500X-0.287500X-0.237500X0.287500X-0.237500X0.287500X0.237500X-0.287500X0.237500X0*%
%ADD27R,0.700000X0.700000*%
%ADD28RoundRect,0.237500X-0.237500X0.300000X-0.237500X-0.300000X0.237500X-0.300000X0.237500X0.300000X0*%
%ADD29RoundRect,0.250000X0.475000X-0.337500X0.475000X0.337500X-0.475000X0.337500X-0.475000X-0.337500X0*%
%ADD30RoundRect,0.237500X-0.237500X0.250000X-0.237500X-0.250000X0.237500X-0.250000X0.237500X0.250000X0*%
%ADD31R,1.100000X0.600000*%
%ADD32RoundRect,0.237500X-0.300000X-0.237500X0.300000X-0.237500X0.300000X0.237500X-0.300000X0.237500X0*%
%ADD33R,1.700000X0.700000*%
G04 APERTURE END LIST*
D10*
%TO.C,D3*%
X125450000Y-103950000D03*
X125450000Y-100650000D03*
X120550000Y-100650000D03*
X120550000Y-103950000D03*
%TD*%
D11*
%TO.C,Q3*%
X114420000Y-79450000D03*
X114420000Y-81350000D03*
X116295000Y-80400000D03*
%TD*%
D12*
%TO.C,C4*%
X118312500Y-94437500D03*
X118312500Y-92712500D03*
%TD*%
D13*
%TO.C,J3*%
X132800000Y-85400000D03*
X132800000Y-77800000D03*
D14*
X128800000Y-79100000D03*
X128800000Y-80100000D03*
X128800000Y-81100000D03*
X128800000Y-82100000D03*
X128800000Y-83100000D03*
X128800000Y-84100000D03*
%TD*%
D15*
%TO.C,U3*%
X133012500Y-93800000D03*
X133962500Y-93800000D03*
X134912500Y-93800000D03*
X134912500Y-91525000D03*
X133012500Y-91525000D03*
%TD*%
D16*
%TO.C,R11*%
X112400000Y-81387500D03*
X112400000Y-79562500D03*
%TD*%
D17*
%TO.C,Q2*%
X129312500Y-90325000D03*
X127412500Y-90325000D03*
X128362500Y-92200000D03*
%TD*%
D12*
%TO.C,C7*%
X131262500Y-93625000D03*
X131262500Y-91900000D03*
%TD*%
D18*
%TO.C,SW1*%
X132478680Y-105121320D03*
X136721320Y-100878680D03*
%TD*%
D16*
%TO.C,R1*%
X136612500Y-94500000D03*
X136612500Y-92675000D03*
%TD*%
D19*
%TO.C,R10*%
X123700000Y-87925000D03*
X125525000Y-87925000D03*
%TD*%
D16*
%TO.C,R3*%
X119912500Y-94537500D03*
X119912500Y-92712500D03*
%TD*%
%TO.C,R8*%
X123750000Y-96087500D03*
X123750000Y-94262500D03*
%TD*%
D20*
%TO.C,D2*%
X122012500Y-93500000D03*
X122012500Y-91750000D03*
%TD*%
D21*
%TO.C,C2*%
X110600000Y-62625000D03*
X110600000Y-64700000D03*
%TD*%
D12*
%TO.C,C1*%
X138212500Y-94450000D03*
X138212500Y-92725000D03*
%TD*%
D22*
%TO.C,D5*%
X123487500Y-86100000D03*
X121737500Y-86100000D03*
%TD*%
D23*
%TO.C,R4*%
X120125000Y-91025000D03*
X118300000Y-91025000D03*
%TD*%
D24*
%TO.C,SW5*%
X114200000Y-105200000D03*
X109957360Y-100957360D03*
%TD*%
D25*
%TO.C,D4*%
X123812500Y-92150000D03*
X125712500Y-92150000D03*
X124762500Y-90275000D03*
%TD*%
D26*
%TO.C,D1*%
X113912500Y-90775000D03*
X115662500Y-90775000D03*
%TD*%
D11*
%TO.C,Q1*%
X125675000Y-94225000D03*
X125675000Y-96125000D03*
X127550000Y-95175000D03*
%TD*%
D10*
%TO.C,U4*%
X114600000Y-62300000D03*
X114600000Y-63800000D03*
X114600000Y-65300000D03*
X114600000Y-66800000D03*
X114600000Y-68300000D03*
X114600000Y-69800000D03*
X114600000Y-71300000D03*
X114600000Y-72800000D03*
X114600000Y-74300000D03*
X132100000Y-74300000D03*
X132100000Y-72800000D03*
X132100000Y-71300000D03*
X132100000Y-69800000D03*
X132100000Y-68300000D03*
X132100000Y-66800000D03*
X132100000Y-65300000D03*
X132100000Y-63800000D03*
X132100000Y-62300000D03*
D27*
X123210000Y-67400000D03*
X123210000Y-68500000D03*
X123210000Y-69600000D03*
X124260000Y-67400000D03*
X124260000Y-68500000D03*
X124260000Y-69600000D03*
X125410000Y-67400000D03*
X125410000Y-68500000D03*
X125410000Y-69600000D03*
%TD*%
D28*
%TO.C,C11*%
X129000000Y-101337500D03*
X129000000Y-103062500D03*
%TD*%
D29*
%TO.C,C5*%
X111462500Y-94412500D03*
X111462500Y-92337500D03*
%TD*%
D30*
%TO.C,R2*%
X111900000Y-72287500D03*
X111900000Y-74112500D03*
%TD*%
D31*
%TO.C,U1*%
X113712500Y-92725000D03*
X113712500Y-93675000D03*
X113712500Y-94625000D03*
X116412500Y-94625000D03*
X116412500Y-93675000D03*
X116412500Y-92725000D03*
%TD*%
D19*
%TO.C,R9*%
X127450000Y-88400000D03*
X129275000Y-88400000D03*
%TD*%
D32*
%TO.C,C9*%
X133100000Y-89562500D03*
X134825000Y-89562500D03*
%TD*%
D33*
%TO.C,BUZZER2*%
X123500000Y-80450000D03*
X118900000Y-80450000D03*
X123500000Y-83950000D03*
%TD*%
D28*
%TO.C,C3*%
X112400000Y-62600000D03*
X112400000Y-64325000D03*
%TD*%
M02*
