%TF.GenerationSoftware,KiCad,Pcbnew,8.0.2*%
%TF.CreationDate,2024-07-08T12:14:40+08:00*%
%TF.ProjectId,bat_rf,6261745f-7266-42e6-9b69-6361645f7063,rev?*%
%TF.SameCoordinates,Original*%
%TF.FileFunction,Copper,L1,Top*%
%TF.FilePolarity,Positive*%
%FSLAX46Y46*%
G04 Gerber Fmt 4.6, Leading zero omitted, Abs format (unit mm)*
G04 Created by KiCad (PCBNEW 8.0.2) date 2024-07-08 12:14:40*
%MOMM*%
%LPD*%
G01*
G04 APERTURE LIST*
G04 Aperture macros list*
%AMRoundRect*
0 Rectangle with rounded corners*
0 $1 Rounding radius*
0 $2 $3 $4 $5 $6 $7 $8 $9 X,Y pos of 4 corners*
0 Add a 4 corners polygon primitive as box body*
4,1,4,$2,$3,$4,$5,$6,$7,$8,$9,$2,$3,0*
0 Add four circle primitives for the rounded corners*
1,1,$1+$1,$2,$3*
1,1,$1+$1,$4,$5*
1,1,$1+$1,$6,$7*
1,1,$1+$1,$8,$9*
0 Add four rect primitives between the rounded corners*
20,1,$1+$1,$2,$3,$4,$5,0*
20,1,$1+$1,$4,$5,$6,$7,0*
20,1,$1+$1,$6,$7,$8,$9,0*
20,1,$1+$1,$8,$9,$2,$3,0*%
G04 Aperture macros list end*
%TA.AperFunction,SMDPad,CuDef*%
%ADD10R,5.320000X7.350000*%
%TD*%
%TA.AperFunction,ComponentPad*%
%ADD11C,4.400000*%
%TD*%
%TA.AperFunction,SMDPad,CuDef*%
%ADD12RoundRect,0.237500X-0.287500X-0.237500X0.287500X-0.237500X0.287500X0.237500X-0.287500X0.237500X0*%
%TD*%
%TA.AperFunction,SMDPad,CuDef*%
%ADD13RoundRect,0.237500X0.287500X0.237500X-0.287500X0.237500X-0.287500X-0.237500X0.287500X-0.237500X0*%
%TD*%
%TA.AperFunction,SMDPad,CuDef*%
%ADD14R,0.700000X1.300000*%
%TD*%
%TA.AperFunction,ComponentPad*%
%ADD15O,1.700000X1.200000*%
%TD*%
%TA.AperFunction,ViaPad*%
%ADD16C,0.500000*%
%TD*%
%TA.AperFunction,ViaPad*%
%ADD17C,1.200000*%
%TD*%
%TA.AperFunction,ViaPad*%
%ADD18C,0.550000*%
%TD*%
%TA.AperFunction,ViaPad*%
%ADD19C,0.800000*%
%TD*%
%TA.AperFunction,ViaPad*%
%ADD20C,0.700000*%
%TD*%
%TA.AperFunction,ViaPad*%
%ADD21C,1.400000*%
%TD*%
%TA.AperFunction,Conductor*%
%ADD22C,0.250000*%
%TD*%
%TA.AperFunction,Conductor*%
%ADD23C,0.400000*%
%TD*%
%TA.AperFunction,Conductor*%
%ADD24C,0.800000*%
%TD*%
%TA.AperFunction,Conductor*%
%ADD25C,2.000000*%
%TD*%
%TA.AperFunction,Conductor*%
%ADD26C,1.200000*%
%TD*%
%TA.AperFunction,Conductor*%
%ADD27C,4.000000*%
%TD*%
%TA.AperFunction,Conductor*%
%ADD28C,0.300000*%
%TD*%
%TA.AperFunction,Conductor*%
%ADD29C,0.500000*%
%TD*%
%TA.AperFunction,Conductor*%
%ADD30C,0.600000*%
%TD*%
%TA.AperFunction,Conductor*%
%ADD31C,3.000000*%
%TD*%
G04 APERTURE END LIST*
D10*
%TO.P,BT1,4,-*%
%TO.N,GNDPWR*%
X68645000Y-98850000D03*
%TO.P,BT1,3,+*%
%TO.N,Net-(BT1-+-Pad3)*%
X150355000Y-98850000D03*
%TO.P,BT1,2,-*%
X150355000Y-79750000D03*
%TO.P,BT1,1,+*%
%TO.N,+BATT*%
X68645000Y-79750000D03*
%TD*%
D11*
%TO.P,H3,1*%
%TO.N,N/C*%
X67025000Y-107625000D03*
%TD*%
D12*
%TO.P,D13,1,K*%
%TO.N,GNDPWR*%
X66725000Y-75000000D03*
%TO.P,D13,2,A*%
%TO.N,Net-(D13-A)*%
X68475000Y-75000000D03*
%TD*%
D13*
%TO.P,D4,1,K*%
%TO.N,GNDPWR*%
X152375000Y-104000000D03*
%TO.P,D4,2,A*%
%TO.N,Net-(D4-A)*%
X150625000Y-104000000D03*
%TD*%
D12*
%TO.P,D3,1,K*%
%TO.N,GNDPWR*%
X66125000Y-104000000D03*
%TO.P,D3,2,A*%
%TO.N,Net-(D3-A)*%
X67875000Y-104000000D03*
%TD*%
D11*
%TO.P,H4,1*%
%TO.N,N/C*%
X67025000Y-71225000D03*
%TD*%
%TO.P,H1,1*%
%TO.N,N/C*%
X151725000Y-71225000D03*
%TD*%
D13*
%TO.P,D2,1,K*%
%TO.N,GNDPWR*%
X152075000Y-75000000D03*
%TO.P,D2,2,A*%
%TO.N,Net-(D2-A)*%
X150325000Y-75000000D03*
%TD*%
D14*
%TO.P,SW1,1,1*%
%TO.N,Net-(D1-K)*%
X67475000Y-86950000D03*
%TO.P,SW1,2,2*%
%TO.N,unconnected-(SW1-Pad2)*%
X67475000Y-91450000D03*
%TO.P,SW1,3,3*%
%TO.N,unconnected-(SW1-Pad3)*%
X65325000Y-86950000D03*
%TO.P,SW1,4,4*%
%TO.N,GNDPWR*%
X65325000Y-91450000D03*
%TD*%
D11*
%TO.P,H2,1*%
%TO.N,N/C*%
X151725000Y-107625000D03*
%TD*%
D15*
%TO.P,J1,13*%
%TO.N,N/C*%
X149400000Y-85160000D03*
%TO.P,J1,14*%
X149400000Y-93800000D03*
%TO.P,J1,15*%
X153200000Y-85160000D03*
%TO.P,J1,16*%
X153200000Y-93800000D03*
%TD*%
D16*
%TO.N,Net-(D1-K)*%
X67475000Y-86950000D03*
%TO.N,GNDPWR*%
X66725000Y-75000000D03*
D17*
%TO.N,+BATT*%
X66800000Y-81600000D03*
X68200000Y-82600000D03*
X68200000Y-81200000D03*
D16*
%TO.N,Net-(LED3-DI)*%
X80805000Y-70125000D03*
%TO.N,GNDPWR*%
X81238500Y-75200000D03*
D17*
%TO.N,+BATT*%
X69400000Y-82600000D03*
X69400000Y-81400000D03*
X69400000Y-80200000D03*
X66800000Y-82800000D03*
X70600000Y-82600000D03*
X70600000Y-81400000D03*
X70600000Y-80200000D03*
D18*
X131875000Y-93500000D03*
X132137162Y-94237838D03*
X132543750Y-93831250D03*
X131300000Y-93500000D03*
X131400000Y-94100000D03*
D19*
%TO.N,GNDPWR*%
X129000000Y-92500000D03*
D18*
X153675841Y-80900000D03*
X68645000Y-98850000D03*
D17*
X74900000Y-94800000D03*
X73900000Y-96700000D03*
X76100000Y-95100000D03*
D19*
X137832500Y-92332500D03*
X97500000Y-108900000D03*
X150207430Y-105207431D03*
D17*
X143600000Y-84400000D03*
X76000000Y-97400000D03*
X83900000Y-105100000D03*
D19*
X79500000Y-108500000D03*
X138500000Y-90500000D03*
X140182069Y-107090725D03*
X65549923Y-98250230D03*
X144000000Y-73000000D03*
D17*
X75200000Y-96100000D03*
D19*
X97200000Y-106500000D03*
D17*
X74800000Y-97600000D03*
D19*
X148000000Y-105000000D03*
D16*
X104226000Y-81200000D03*
D17*
X73900000Y-95500000D03*
X143700000Y-96400000D03*
D16*
X81526000Y-77900000D03*
D17*
X76600000Y-96300000D03*
D19*
X124500000Y-72000000D03*
X79500000Y-106500000D03*
X121373250Y-107600000D03*
X124500000Y-70000000D03*
X144000000Y-71000000D03*
X102200000Y-70100000D03*
X84500000Y-70000000D03*
X102500000Y-72000000D03*
X140000000Y-96500000D03*
X137500000Y-93500000D03*
D17*
X148256500Y-92600388D03*
D19*
X130500000Y-89500000D03*
X131500000Y-98700000D03*
D17*
%TO.N,Net-(U4-B)*%
X79700000Y-74400000D03*
D19*
%TO.N,GNDPWR*%
X121000000Y-105600000D03*
X140500000Y-109000000D03*
D18*
X85000000Y-72000000D03*
D17*
X94426000Y-77800000D03*
D19*
X137500000Y-95000000D03*
D20*
%TO.N,+5V*%
X84500442Y-74804293D03*
X91326000Y-84350000D03*
D19*
%TO.N,GNDD*%
X100650584Y-101831498D03*
X99000000Y-101500000D03*
X106300000Y-97800000D03*
X100000000Y-97700000D03*
D21*
X106300000Y-92100000D03*
D17*
X87208690Y-86891565D03*
D16*
X118400000Y-77100000D03*
D19*
X106000000Y-101900000D03*
D16*
X123800000Y-76600000D03*
D20*
X115035000Y-82300000D03*
D21*
X100879426Y-86161574D03*
D17*
X88226000Y-84100000D03*
D20*
%TO.N,+3V3*%
X98326000Y-78700000D03*
X101426000Y-76800000D03*
D21*
%TO.N,Net-(U2-LX)*%
X140974500Y-95362500D03*
X139275000Y-88100000D03*
D16*
%TO.N,/KEY*%
X99375049Y-93992537D03*
X86282542Y-88934619D03*
D19*
%TO.N,Net-(D2-A)*%
X146700000Y-78025000D03*
D16*
%TO.N,Net-(D13-A)*%
X72000000Y-73412500D03*
%TO.N,/POWER_EN*%
X99134752Y-94650000D03*
X83086439Y-79360439D03*
%TO.N,Net-(U2-LED)*%
X145725000Y-79937500D03*
X141400000Y-90800000D03*
D18*
%TO.N,/GREEN*%
X79300000Y-103300000D03*
X101800000Y-100200000D03*
%TO.N,Net-(D3-A)*%
X69500000Y-104000000D03*
%TO.N,Net-(D4-A)*%
X145000000Y-103800000D03*
D16*
%TO.N,/BLUE*%
X101150000Y-73750000D03*
X114000000Y-78100000D03*
X84647449Y-73799999D03*
D18*
X74300000Y-71800000D03*
%TO.N,/BEEP*%
X104000000Y-103278772D03*
D16*
X92912500Y-105300000D03*
%TO.N,Net-(U3-EN)*%
X84826000Y-80302000D03*
X84626000Y-76787500D03*
%TD*%
D22*
%TO.N,/BLUE*%
X114000000Y-78100000D02*
X106813500Y-78100000D01*
X102463500Y-73750000D02*
X101150000Y-73750000D01*
D23*
%TO.N,+5V*%
X87026442Y-74804293D02*
X84500442Y-74804293D01*
X91200000Y-84224000D02*
X91200000Y-78977851D01*
X91326000Y-84350000D02*
X91200000Y-84224000D01*
X91200000Y-78977851D02*
X87026442Y-74804293D01*
D22*
%TO.N,Net-(LED3-DI)*%
X74474327Y-70125000D02*
X80805000Y-70125000D01*
X70849327Y-73750000D02*
X74474327Y-70125000D01*
%TO.N,/POWER_EN*%
X93658978Y-94650000D02*
X99134752Y-94650000D01*
X93504489Y-94495511D02*
X93658978Y-94650000D01*
%TO.N,GNDPWR*%
X81526000Y-75487500D02*
X81238500Y-75200000D01*
X81526000Y-77900000D02*
X81526000Y-75487500D01*
D24*
%TO.N,GNDD*%
X101026000Y-86015000D02*
X100879426Y-86161574D01*
X103515000Y-86015000D02*
X101026000Y-86015000D01*
D25*
%TO.N,+BATT*%
X84995000Y-96100000D02*
X68645000Y-79750000D01*
X90200000Y-96100000D02*
X84995000Y-96100000D01*
D22*
%TO.N,Net-(U3-EN)*%
X84626000Y-80102000D02*
X84826000Y-80302000D01*
X84626000Y-76787500D02*
X84626000Y-80102000D01*
D26*
%TO.N,+BATT*%
X132543750Y-93831250D02*
X132375000Y-94000000D01*
D25*
X129275000Y-96100000D02*
X90200000Y-96100000D01*
D26*
X132375000Y-94000000D02*
X132275000Y-93900000D01*
D25*
X129275000Y-96100000D02*
X131875000Y-93500000D01*
D26*
X132543750Y-93831250D02*
X132137162Y-94237838D01*
D25*
X90200000Y-96100000D02*
X88300000Y-96100000D01*
D26*
X132375000Y-94000000D02*
X131875000Y-93500000D01*
D27*
%TO.N,GNDPWR*%
X67845000Y-97250000D02*
X74050000Y-97250000D01*
D28*
X152375000Y-104000000D02*
X151550000Y-104825000D01*
D29*
X68470000Y-99025000D02*
X68470000Y-98030000D01*
X68470000Y-99025000D02*
X70025000Y-99025000D01*
D28*
X150589861Y-104825000D02*
X150207430Y-105207431D01*
D29*
X68470000Y-99025000D02*
X70709582Y-99025000D01*
D27*
X74050000Y-97250000D02*
X75200000Y-96100000D01*
D28*
X66125000Y-104000000D02*
X66125000Y-103875000D01*
X151550000Y-104825000D02*
X150589861Y-104825000D01*
D29*
X153524998Y-84075002D02*
X153525000Y-84075000D01*
D23*
%TO.N,GNDD*%
X115200000Y-83200000D02*
X106300000Y-92100000D01*
D29*
X100000000Y-97700000D02*
X106200000Y-97700000D01*
D23*
X115035000Y-82300000D02*
X115200000Y-82465000D01*
D24*
X106300000Y-88800000D02*
X103515000Y-86015000D01*
D29*
X99400000Y-101100000D02*
X99000000Y-101500000D01*
X105200000Y-101100000D02*
X99400000Y-101100000D01*
D22*
X123800000Y-76600000D02*
X118900000Y-76600000D01*
D30*
X87208690Y-86891565D02*
X87208690Y-85117310D01*
D29*
X105931498Y-101831498D02*
X100650584Y-101831498D01*
X106200000Y-97700000D02*
X106300000Y-97800000D01*
D24*
X106300000Y-92100000D02*
X106300000Y-88800000D01*
D29*
X106000000Y-101900000D02*
X105931498Y-101831498D01*
X105200000Y-101100000D02*
X106000000Y-101900000D01*
D22*
X118900000Y-76600000D02*
X118400000Y-77100000D01*
D23*
X115200000Y-82465000D02*
X115200000Y-83200000D01*
D30*
X87208690Y-85117310D02*
X88226000Y-84100000D01*
D23*
%TO.N,+3V3*%
X101426000Y-76800000D02*
X100226000Y-76800000D01*
X100226000Y-76800000D02*
X98326000Y-78700000D01*
D24*
%TO.N,Net-(U2-LX)*%
X140550000Y-91135786D02*
X140550000Y-94938000D01*
X139275000Y-88100000D02*
X139275000Y-89860786D01*
X139275000Y-89860786D02*
X140550000Y-91135786D01*
X140550000Y-94938000D02*
X140974500Y-95362500D01*
D22*
%TO.N,/KEY*%
X86282542Y-88934619D02*
X94317131Y-88934619D01*
X94317131Y-88934619D02*
X99375049Y-93992537D01*
%TO.N,Net-(D2-A)*%
X147025000Y-75000000D02*
X150325000Y-75000000D01*
X146700000Y-75325000D02*
X147025000Y-75000000D01*
X146700000Y-78025000D02*
X146700000Y-75325000D01*
%TO.N,Net-(D13-A)*%
X68475000Y-75000000D02*
X70412500Y-75000000D01*
X70412500Y-75000000D02*
X72000000Y-73412500D01*
%TO.N,/POWER_EN*%
X83086439Y-79360439D02*
X83086439Y-84077462D01*
X83086439Y-84077462D02*
X93658977Y-94650000D01*
%TO.N,Net-(U2-LED)*%
X141400000Y-90800000D02*
X141400000Y-84262500D01*
X141400000Y-84262500D02*
X145725000Y-79937500D01*
%TO.N,/GREEN*%
X79400000Y-103300000D02*
X82674265Y-100025735D01*
X79300000Y-103300000D02*
X79400000Y-103300000D01*
X82400000Y-100200000D02*
X79300000Y-103300000D01*
X101800000Y-100200000D02*
X82400000Y-100200000D01*
D28*
%TO.N,Net-(D3-A)*%
X67875000Y-104000000D02*
X69500000Y-104000000D01*
%TO.N,Net-(D4-A)*%
X145200000Y-104000000D02*
X145000000Y-103800000D01*
X150625000Y-104000000D02*
X145200000Y-104000000D01*
%TO.N,/BLUE*%
X84647449Y-73799999D02*
X82647450Y-71800000D01*
X74300000Y-71800000D02*
X82647450Y-71800000D01*
D22*
X106813500Y-78100000D02*
X102463500Y-73750000D01*
%TO.N,/BEEP*%
X99821228Y-103278772D02*
X104000000Y-103278772D01*
X97800000Y-105300000D02*
X99821228Y-103278772D01*
X92912500Y-105300000D02*
X97800000Y-105300000D01*
D31*
%TO.N,Net-(BT1-+-Pad3)*%
X145956500Y-84418500D02*
X150425000Y-79950000D01*
X149592283Y-99050000D02*
X145956500Y-95414217D01*
X145956500Y-95414217D02*
X145956500Y-84418500D01*
D25*
X150180000Y-99025000D02*
X146456500Y-95301500D01*
X146456500Y-95301500D02*
X146456500Y-83648500D01*
X146456500Y-83648500D02*
X150180000Y-79925000D01*
D31*
X150425000Y-99050000D02*
X149592283Y-99050000D01*
%TD*%
%TA.AperFunction,Conductor*%
%TO.N,GNDPWR*%
G36*
X149873092Y-69045185D02*
G01*
X149918847Y-69097989D01*
X149928791Y-69167147D01*
X149899766Y-69230703D01*
X149893734Y-69237181D01*
X149699954Y-69430960D01*
X149498473Y-69688131D01*
X149329454Y-69967723D01*
X149329453Y-69967725D01*
X149280752Y-70075933D01*
X149202171Y-70250536D01*
X149195372Y-70265642D01*
X149195366Y-70265657D01*
X149098178Y-70577547D01*
X149039289Y-70898900D01*
X149019564Y-71225000D01*
X149039289Y-71551099D01*
X149098178Y-71872452D01*
X149195366Y-72184342D01*
X149195370Y-72184354D01*
X149195373Y-72184361D01*
X149329455Y-72482279D01*
X149388776Y-72580407D01*
X149498473Y-72761868D01*
X149699954Y-73019039D01*
X149930960Y-73250045D01*
X150188131Y-73451526D01*
X150188134Y-73451528D01*
X150188137Y-73451530D01*
X150467721Y-73620545D01*
X150765639Y-73754627D01*
X150765652Y-73754631D01*
X150765657Y-73754633D01*
X151077547Y-73851821D01*
X151398896Y-73910710D01*
X151725000Y-73930436D01*
X152051104Y-73910710D01*
X152372453Y-73851821D01*
X152684361Y-73754627D01*
X152982279Y-73620545D01*
X153261863Y-73451530D01*
X153519036Y-73250048D01*
X153620547Y-73148537D01*
X153738660Y-73030425D01*
X153799983Y-72996940D01*
X153869675Y-73001924D01*
X153925608Y-73043796D01*
X153950025Y-73109260D01*
X153950341Y-73118106D01*
X153950341Y-83994765D01*
X153930656Y-84061804D01*
X153877852Y-84107559D01*
X153808694Y-84117503D01*
X153788024Y-84112696D01*
X153707702Y-84086598D01*
X153707698Y-84086597D01*
X153576271Y-84065781D01*
X153536611Y-84059500D01*
X153375140Y-84059500D01*
X153308101Y-84039815D01*
X153262346Y-83987011D01*
X153252402Y-83917853D01*
X153281427Y-83854297D01*
X153300829Y-83836234D01*
X153358091Y-83793367D01*
X153372546Y-83782546D01*
X153458796Y-83667331D01*
X153509091Y-83532483D01*
X153515500Y-83472873D01*
X153515499Y-76027128D01*
X153509091Y-75967517D01*
X153491199Y-75919547D01*
X153458797Y-75832671D01*
X153458793Y-75832664D01*
X153372547Y-75717455D01*
X153372544Y-75717452D01*
X153257335Y-75631206D01*
X153257328Y-75631202D01*
X153122482Y-75580908D01*
X153122483Y-75580908D01*
X153062883Y-75574501D01*
X153062881Y-75574500D01*
X153062873Y-75574500D01*
X153062865Y-75574500D01*
X151450012Y-75574500D01*
X151382973Y-75554815D01*
X151337218Y-75502011D01*
X151327274Y-75432853D01*
X151332306Y-75411496D01*
X151340174Y-75387753D01*
X151350500Y-75286677D01*
X151350499Y-74713324D01*
X151340174Y-74612247D01*
X151285908Y-74448484D01*
X151195340Y-74301650D01*
X151073350Y-74179660D01*
X150926516Y-74089092D01*
X150762753Y-74034826D01*
X150762751Y-74034825D01*
X150661678Y-74024500D01*
X149988330Y-74024500D01*
X149988312Y-74024501D01*
X149887247Y-74034825D01*
X149723484Y-74089092D01*
X149723481Y-74089093D01*
X149576648Y-74179661D01*
X149454660Y-74301649D01*
X149454659Y-74301651D01*
X149446058Y-74315596D01*
X149394110Y-74362321D01*
X149340519Y-74374500D01*
X146963388Y-74374500D01*
X146842555Y-74398535D01*
X146842547Y-74398537D01*
X146728716Y-74445687D01*
X146639579Y-74505246D01*
X146639580Y-74505247D01*
X146626262Y-74514145D01*
X146626260Y-74514147D01*
X146341162Y-74799247D01*
X146301269Y-74839140D01*
X146301267Y-74839142D01*
X146257703Y-74882705D01*
X146214140Y-74926268D01*
X146182808Y-74973162D01*
X146182806Y-74973165D01*
X146145690Y-75028710D01*
X146145688Y-75028714D01*
X146132065Y-75061605D01*
X146132064Y-75061607D01*
X146098538Y-75142545D01*
X146098535Y-75142555D01*
X146074500Y-75263389D01*
X146074500Y-77326312D01*
X146054815Y-77393351D01*
X146042650Y-77409284D01*
X145967466Y-77492784D01*
X145872821Y-77656715D01*
X145872818Y-77656722D01*
X145814327Y-77836740D01*
X145814326Y-77836744D01*
X145794540Y-78025000D01*
X145814326Y-78213256D01*
X145814327Y-78213259D01*
X145872818Y-78393277D01*
X145872821Y-78393284D01*
X145967467Y-78557216D01*
X146078007Y-78679983D01*
X146094129Y-78697888D01*
X146247265Y-78809148D01*
X146247270Y-78809151D01*
X146420192Y-78886142D01*
X146420197Y-78886144D01*
X146605354Y-78925500D01*
X146605355Y-78925500D01*
X146794644Y-78925500D01*
X146794646Y-78925500D01*
X146979803Y-78886144D01*
X146998528Y-78877807D01*
X147020064Y-78868219D01*
X147089314Y-78858934D01*
X147152591Y-78888562D01*
X147189804Y-78947697D01*
X147194500Y-78981498D01*
X147194500Y-80300003D01*
X147174815Y-80367042D01*
X147158181Y-80387684D01*
X144449221Y-83096643D01*
X144449215Y-83096650D01*
X144370489Y-83199249D01*
X144289582Y-83304688D01*
X144289572Y-83304703D01*
X144231340Y-83405565D01*
X144158458Y-83531799D01*
X144158454Y-83531809D01*
X144058102Y-83774080D01*
X143990228Y-84027387D01*
X143975526Y-84139067D01*
X143975526Y-84139068D01*
X143956000Y-84287372D01*
X143956000Y-95545344D01*
X143966510Y-95625166D01*
X143966510Y-95625167D01*
X143989268Y-95798038D01*
X143990229Y-95805333D01*
X144037543Y-95981908D01*
X144041637Y-95997189D01*
X144058103Y-96058638D01*
X144058105Y-96058645D01*
X144158453Y-96300907D01*
X144158458Y-96300917D01*
X144289575Y-96528019D01*
X144333173Y-96584838D01*
X144333178Y-96584843D01*
X144449215Y-96736066D01*
X144449221Y-96736073D01*
X147158181Y-99445032D01*
X147191666Y-99506355D01*
X147194500Y-99532713D01*
X147194500Y-102572870D01*
X147194501Y-102572876D01*
X147200908Y-102632483D01*
X147251202Y-102767328D01*
X147251206Y-102767335D01*
X147337452Y-102882544D01*
X147337455Y-102882547D01*
X147452664Y-102968793D01*
X147452671Y-102968797D01*
X147587517Y-103019091D01*
X147587516Y-103019091D01*
X147592186Y-103019593D01*
X147647127Y-103025500D01*
X149731448Y-103025499D01*
X149798487Y-103045184D01*
X149844242Y-103097987D01*
X149854186Y-103167146D01*
X149825161Y-103230702D01*
X149819130Y-103237180D01*
X149754652Y-103301658D01*
X149754055Y-103302414D01*
X149753513Y-103302797D01*
X149749554Y-103306757D01*
X149748877Y-103306080D01*
X149697032Y-103342789D01*
X149656792Y-103349500D01*
X145697585Y-103349500D01*
X145630546Y-103329815D01*
X145609904Y-103313181D01*
X145486576Y-103189853D01*
X145385512Y-103126351D01*
X145338606Y-103096878D01*
X145338605Y-103096877D01*
X145338604Y-103096877D01*
X145173658Y-103039159D01*
X145173648Y-103039157D01*
X145000004Y-103019593D01*
X144999996Y-103019593D01*
X144826351Y-103039157D01*
X144826341Y-103039159D01*
X144661395Y-103096877D01*
X144513423Y-103189853D01*
X144389853Y-103313423D01*
X144296877Y-103461395D01*
X144239159Y-103626341D01*
X144239157Y-103626351D01*
X144219593Y-103799996D01*
X144219593Y-103800003D01*
X144239157Y-103973648D01*
X144239159Y-103973658D01*
X144277397Y-104082934D01*
X144296878Y-104138606D01*
X144389853Y-104286576D01*
X144513424Y-104410147D01*
X144661394Y-104503122D01*
X144799700Y-104551518D01*
X144826343Y-104560841D01*
X144848723Y-104563363D01*
X144885914Y-104574928D01*
X144886244Y-104574133D01*
X144891871Y-104576463D01*
X144891873Y-104576465D01*
X145010256Y-104625501D01*
X145010260Y-104625501D01*
X145010261Y-104625502D01*
X145135928Y-104650500D01*
X145135931Y-104650500D01*
X149656792Y-104650500D01*
X149723831Y-104670185D01*
X149749415Y-104693380D01*
X149749553Y-104693243D01*
X149752352Y-104696042D01*
X149754055Y-104697586D01*
X149754655Y-104698345D01*
X149754660Y-104698350D01*
X149876650Y-104820340D01*
X150023484Y-104910908D01*
X150187247Y-104965174D01*
X150288323Y-104975500D01*
X150454335Y-104975499D01*
X150521373Y-104995183D01*
X150567128Y-105047987D01*
X150577072Y-105117145D01*
X150548047Y-105180701D01*
X150505227Y-105212574D01*
X150467728Y-105229451D01*
X150467723Y-105229454D01*
X150188131Y-105398473D01*
X149930960Y-105599954D01*
X149699954Y-105830960D01*
X149498473Y-106088131D01*
X149371708Y-106297825D01*
X149329455Y-106367721D01*
X149226477Y-106596530D01*
X149195372Y-106665642D01*
X149195366Y-106665657D01*
X149098178Y-106977547D01*
X149039289Y-107298900D01*
X149019564Y-107625000D01*
X149039289Y-107951099D01*
X149098178Y-108272452D01*
X149195366Y-108584342D01*
X149195370Y-108584354D01*
X149195373Y-108584361D01*
X149329455Y-108882279D01*
X149486118Y-109141431D01*
X149498473Y-109161868D01*
X149699954Y-109419039D01*
X149893818Y-109612903D01*
X149927303Y-109674226D01*
X149922319Y-109743918D01*
X149880447Y-109799851D01*
X149814983Y-109824268D01*
X149806143Y-109824584D01*
X120774559Y-109826095D01*
X120707519Y-109806414D01*
X120661761Y-109753612D01*
X120650553Y-109702312D01*
X120650543Y-109696874D01*
X120645118Y-106596530D01*
X144379500Y-106596530D01*
X144379500Y-106803469D01*
X144419868Y-107006412D01*
X144419870Y-107006420D01*
X144499058Y-107197596D01*
X144614024Y-107369657D01*
X144760342Y-107515975D01*
X144760345Y-107515977D01*
X144932402Y-107630941D01*
X145123580Y-107710130D01*
X145326530Y-107750499D01*
X145326534Y-107750500D01*
X145326535Y-107750500D01*
X145533466Y-107750500D01*
X145533467Y-107750499D01*
X145736420Y-107710130D01*
X145927598Y-107630941D01*
X146099655Y-107515977D01*
X146245977Y-107369655D01*
X146360941Y-107197598D01*
X146440130Y-107006420D01*
X146480500Y-106803465D01*
X146480500Y-106596535D01*
X146440130Y-106393580D01*
X146360941Y-106202402D01*
X146245977Y-106030345D01*
X146245975Y-106030342D01*
X146099657Y-105884024D01*
X145972308Y-105798933D01*
X145927598Y-105769059D01*
X145878534Y-105748736D01*
X145736420Y-105689870D01*
X145736412Y-105689868D01*
X145533469Y-105649500D01*
X145533465Y-105649500D01*
X145326535Y-105649500D01*
X145326530Y-105649500D01*
X145123587Y-105689868D01*
X145123579Y-105689870D01*
X144932403Y-105769058D01*
X144760342Y-105884024D01*
X144614024Y-106030342D01*
X144499058Y-106202403D01*
X144419870Y-106393579D01*
X144419868Y-106393587D01*
X144379500Y-106596530D01*
X120645118Y-106596530D01*
X120640720Y-104082934D01*
X120640716Y-104037243D01*
X120640714Y-104037238D01*
X120640640Y-104036668D01*
X120628690Y-103992382D01*
X120628637Y-103992187D01*
X120628637Y-103992186D01*
X120616819Y-103948102D01*
X120616817Y-103948099D01*
X120616817Y-103948097D01*
X120616599Y-103947575D01*
X120616598Y-103947568D01*
X120612553Y-103940591D01*
X120593471Y-103907673D01*
X120593368Y-103907495D01*
X120593143Y-103907106D01*
X120570665Y-103868183D01*
X120570664Y-103868182D01*
X120570663Y-103868180D01*
X120570568Y-103868056D01*
X120570449Y-103867902D01*
X120570316Y-103867729D01*
X120570314Y-103867727D01*
X120570313Y-103867725D01*
X120538001Y-103835526D01*
X120537906Y-103835430D01*
X120505404Y-103802935D01*
X120505203Y-103802781D01*
X120504950Y-103802587D01*
X120504942Y-103802582D01*
X120465339Y-103779809D01*
X120465366Y-103779761D01*
X120465162Y-103779707D01*
X120425467Y-103756794D01*
X120425289Y-103756721D01*
X120425100Y-103756643D01*
X120424946Y-103756579D01*
X120380754Y-103744821D01*
X120380576Y-103744712D01*
X120380561Y-103744769D01*
X120336315Y-103732919D01*
X120336090Y-103732890D01*
X120335955Y-103732873D01*
X120335758Y-103732847D01*
X120335752Y-103732847D01*
X120289714Y-103732927D01*
X120289513Y-103732927D01*
X104836848Y-103734688D01*
X104769806Y-103715011D01*
X104724046Y-103662212D01*
X104714094Y-103593055D01*
X104719789Y-103569744D01*
X104760841Y-103452429D01*
X104761621Y-103445498D01*
X104780407Y-103278775D01*
X104780407Y-103278768D01*
X104760842Y-103105123D01*
X104760841Y-103105121D01*
X104760841Y-103105115D01*
X104703122Y-102940166D01*
X104610147Y-102792196D01*
X104610146Y-102792195D01*
X104605806Y-102786753D01*
X104607228Y-102785618D01*
X104578145Y-102732356D01*
X104583129Y-102662664D01*
X104625001Y-102606731D01*
X104690465Y-102582314D01*
X104699311Y-102581998D01*
X105366378Y-102581998D01*
X105433417Y-102601683D01*
X105439263Y-102605680D01*
X105547265Y-102684148D01*
X105547270Y-102684151D01*
X105720192Y-102761142D01*
X105720197Y-102761144D01*
X105905354Y-102800500D01*
X105905355Y-102800500D01*
X106094644Y-102800500D01*
X106094646Y-102800500D01*
X106279803Y-102761144D01*
X106452730Y-102684151D01*
X106605871Y-102572888D01*
X106732533Y-102432216D01*
X106827179Y-102268284D01*
X106885674Y-102088256D01*
X106905460Y-101900000D01*
X106885674Y-101711744D01*
X106827179Y-101531716D01*
X106732533Y-101367784D01*
X106605871Y-101227112D01*
X106605870Y-101227111D01*
X106452734Y-101115851D01*
X106452729Y-101115848D01*
X106279807Y-101038857D01*
X106279803Y-101038856D01*
X106214669Y-101025011D01*
X106153188Y-100991818D01*
X106152770Y-100991402D01*
X105678421Y-100517052D01*
X105678414Y-100517046D01*
X105604729Y-100467812D01*
X105604729Y-100467813D01*
X105555491Y-100434913D01*
X105418917Y-100378343D01*
X105418907Y-100378340D01*
X105273920Y-100349500D01*
X105273918Y-100349500D01*
X102702318Y-100349500D01*
X102635279Y-100329815D01*
X102589524Y-100277011D01*
X102579098Y-100211614D01*
X102580407Y-100199998D01*
X102580407Y-100199996D01*
X102560842Y-100026351D01*
X102560841Y-100026349D01*
X102560841Y-100026343D01*
X102503122Y-99861394D01*
X102410147Y-99713424D01*
X102286576Y-99589853D01*
X102138606Y-99496878D01*
X102138605Y-99496877D01*
X102138604Y-99496877D01*
X101973658Y-99439159D01*
X101973648Y-99439157D01*
X101800004Y-99419593D01*
X101799996Y-99419593D01*
X101626351Y-99439157D01*
X101626341Y-99439159D01*
X101461395Y-99496877D01*
X101446311Y-99506355D01*
X101368105Y-99555494D01*
X101302135Y-99574500D01*
X83158982Y-99574500D01*
X83091943Y-99554815D01*
X83077900Y-99543499D01*
X83077703Y-99543740D01*
X83073003Y-99539883D01*
X83072998Y-99539878D01*
X83022829Y-99506355D01*
X82970555Y-99471425D01*
X82970546Y-99471420D01*
X82856726Y-99424275D01*
X82856709Y-99424270D01*
X82735876Y-99400235D01*
X82735872Y-99400235D01*
X82612658Y-99400235D01*
X82612653Y-99400235D01*
X82491822Y-99424270D01*
X82491818Y-99424271D01*
X82491814Y-99424272D01*
X82377980Y-99471423D01*
X82377978Y-99471424D01*
X82275535Y-99539876D01*
X82275526Y-99539883D01*
X82233835Y-99581573D01*
X82193621Y-99608446D01*
X82184218Y-99612342D01*
X82184206Y-99612347D01*
X82103716Y-99645686D01*
X82103705Y-99645692D01*
X82001272Y-99714138D01*
X82001264Y-99714144D01*
X81914139Y-99801270D01*
X79213268Y-102502140D01*
X79151945Y-102535625D01*
X79139477Y-102537679D01*
X79126343Y-102539159D01*
X79126338Y-102539160D01*
X78961395Y-102596877D01*
X78813423Y-102689853D01*
X78689853Y-102813423D01*
X78596877Y-102961395D01*
X78539159Y-103126341D01*
X78539157Y-103126351D01*
X78519593Y-103299996D01*
X78519593Y-103300003D01*
X78539157Y-103473648D01*
X78539159Y-103473658D01*
X78596877Y-103638604D01*
X78596878Y-103638606D01*
X78689853Y-103786576D01*
X78813424Y-103910147D01*
X78961394Y-104003122D01*
X79126343Y-104060841D01*
X79126349Y-104060841D01*
X79126351Y-104060842D01*
X79299996Y-104080407D01*
X79300000Y-104080407D01*
X79300004Y-104080407D01*
X79473648Y-104060842D01*
X79473647Y-104060842D01*
X79473657Y-104060841D01*
X79638606Y-104003122D01*
X79786576Y-103910147D01*
X79910147Y-103786576D01*
X80003122Y-103638606D01*
X80024530Y-103577424D01*
X80053888Y-103530700D01*
X82722771Y-100861819D01*
X82784094Y-100828334D01*
X82810452Y-100825500D01*
X98134840Y-100825500D01*
X98201879Y-100845185D01*
X98247634Y-100897989D01*
X98257578Y-100967147D01*
X98242228Y-101011499D01*
X98172820Y-101131718D01*
X98172818Y-101131722D01*
X98114327Y-101311740D01*
X98114326Y-101311744D01*
X98094540Y-101500000D01*
X98114326Y-101688256D01*
X98114327Y-101688259D01*
X98172818Y-101868277D01*
X98172821Y-101868284D01*
X98267467Y-102032216D01*
X98384349Y-102162026D01*
X98394129Y-102172888D01*
X98547265Y-102284148D01*
X98547270Y-102284151D01*
X98720192Y-102361142D01*
X98720197Y-102361144D01*
X98905354Y-102400500D01*
X98905355Y-102400500D01*
X99094644Y-102400500D01*
X99094646Y-102400500D01*
X99279803Y-102361144D01*
X99452730Y-102284151D01*
X99605871Y-102172888D01*
X99615651Y-102162025D01*
X99675137Y-102125377D01*
X99744994Y-102126707D01*
X99803043Y-102165594D01*
X99821077Y-102194554D01*
X99823404Y-102199780D01*
X99823405Y-102199782D01*
X99918051Y-102363714D01*
X99979729Y-102432214D01*
X99992412Y-102446300D01*
X100022642Y-102509291D01*
X100014017Y-102578627D01*
X99969275Y-102632292D01*
X99902623Y-102653250D01*
X99900262Y-102653272D01*
X99759617Y-102653272D01*
X99699199Y-102665290D01*
X99638776Y-102677309D01*
X99638774Y-102677309D01*
X99638773Y-102677310D01*
X99638771Y-102677310D01*
X99614645Y-102687304D01*
X99524946Y-102724457D01*
X99524942Y-102724459D01*
X99493172Y-102745689D01*
X99493170Y-102745690D01*
X99422496Y-102792912D01*
X99378933Y-102836475D01*
X99335370Y-102880039D01*
X99335367Y-102880042D01*
X97577229Y-104638181D01*
X97515906Y-104671666D01*
X97489548Y-104674500D01*
X93363376Y-104674500D01*
X93297404Y-104655494D01*
X93240192Y-104619545D01*
X93240191Y-104619544D01*
X93240190Y-104619544D01*
X93201870Y-104606135D01*
X93080556Y-104563685D01*
X92912503Y-104544751D01*
X92912497Y-104544751D01*
X92744443Y-104563685D01*
X92584805Y-104619545D01*
X92584802Y-104619547D01*
X92441615Y-104709518D01*
X92441609Y-104709523D01*
X92322023Y-104829109D01*
X92322018Y-104829115D01*
X92232047Y-104972302D01*
X92232045Y-104972305D01*
X92176185Y-105131943D01*
X92157251Y-105299997D01*
X92157251Y-105300002D01*
X92176185Y-105468056D01*
X92232045Y-105627694D01*
X92232047Y-105627697D01*
X92322018Y-105770884D01*
X92322023Y-105770890D01*
X92441609Y-105890476D01*
X92441615Y-105890481D01*
X92584802Y-105980452D01*
X92584805Y-105980454D01*
X92584809Y-105980455D01*
X92584810Y-105980456D01*
X92629801Y-105996199D01*
X92744443Y-106036314D01*
X92912497Y-106055249D01*
X92912500Y-106055249D01*
X92912503Y-106055249D01*
X93080556Y-106036314D01*
X93080559Y-106036313D01*
X93240190Y-105980456D01*
X93297404Y-105944505D01*
X93363376Y-105925500D01*
X97861607Y-105925500D01*
X97922029Y-105913481D01*
X97982452Y-105901463D01*
X98024556Y-105884023D01*
X98096286Y-105854312D01*
X98147509Y-105820084D01*
X98198733Y-105785858D01*
X98285858Y-105698733D01*
X98285859Y-105698731D01*
X98292925Y-105691665D01*
X98292927Y-105691661D01*
X100043999Y-103940591D01*
X100105322Y-103907106D01*
X100131680Y-103904272D01*
X101601799Y-103904272D01*
X101668838Y-103923957D01*
X101714593Y-103976761D01*
X101722592Y-104030805D01*
X101725579Y-104030829D01*
X101725577Y-104031087D01*
X101725423Y-104033331D01*
X101725428Y-104084665D01*
X101725428Y-104084994D01*
X101711069Y-109696874D01*
X101691213Y-109763863D01*
X101638292Y-109809483D01*
X101587083Y-109820557D01*
X68944234Y-109824226D01*
X68877192Y-109804549D01*
X68831431Y-109751750D01*
X68821480Y-109682593D01*
X68850498Y-109619034D01*
X68856539Y-109612545D01*
X69050045Y-109419039D01*
X69050048Y-109419036D01*
X69251530Y-109161863D01*
X69420545Y-108882279D01*
X69554627Y-108584361D01*
X69651821Y-108272453D01*
X69710710Y-107951104D01*
X69730436Y-107625000D01*
X69710710Y-107298896D01*
X69651821Y-106977547D01*
X69554633Y-106665657D01*
X69554631Y-106665652D01*
X69554627Y-106665639D01*
X69420545Y-106367721D01*
X69251530Y-106088137D01*
X69251528Y-106088134D01*
X69251526Y-106088131D01*
X69050045Y-105830960D01*
X68819039Y-105599954D01*
X68561868Y-105398473D01*
X68554306Y-105393901D01*
X68282279Y-105229455D01*
X68282275Y-105229453D01*
X68282274Y-105229452D01*
X68230404Y-105206108D01*
X68177349Y-105160643D01*
X68157297Y-105093713D01*
X68176613Y-105026566D01*
X68229165Y-104980522D01*
X68268691Y-104969674D01*
X68312753Y-104965174D01*
X68476516Y-104910908D01*
X68623350Y-104820340D01*
X68745340Y-104698350D01*
X68745341Y-104698347D01*
X68745344Y-104698345D01*
X68745945Y-104697586D01*
X68746489Y-104697200D01*
X68750447Y-104693243D01*
X68751123Y-104693919D01*
X68802968Y-104657211D01*
X68843208Y-104650500D01*
X69041922Y-104650500D01*
X69107894Y-104669506D01*
X69161394Y-104703122D01*
X69326343Y-104760841D01*
X69326349Y-104760841D01*
X69326351Y-104760842D01*
X69499996Y-104780407D01*
X69500000Y-104780407D01*
X69500004Y-104780407D01*
X69673648Y-104760842D01*
X69673647Y-104760842D01*
X69673657Y-104760841D01*
X69838606Y-104703122D01*
X69986576Y-104610147D01*
X70110147Y-104486576D01*
X70203122Y-104338606D01*
X70260841Y-104173657D01*
X70276020Y-104038941D01*
X70280407Y-104000003D01*
X70280407Y-103999996D01*
X70260842Y-103826351D01*
X70260841Y-103826349D01*
X70260841Y-103826343D01*
X70203122Y-103661394D01*
X70110147Y-103513424D01*
X69986576Y-103389853D01*
X69838606Y-103296878D01*
X69838605Y-103296877D01*
X69838604Y-103296877D01*
X69673658Y-103239159D01*
X69673648Y-103239157D01*
X69500004Y-103219593D01*
X69499996Y-103219593D01*
X69326351Y-103239157D01*
X69326341Y-103239159D01*
X69161395Y-103296877D01*
X69161391Y-103296879D01*
X69107894Y-103330494D01*
X69041922Y-103349500D01*
X68843208Y-103349500D01*
X68776169Y-103329815D01*
X68750584Y-103306619D01*
X68750447Y-103306757D01*
X68747647Y-103303957D01*
X68745945Y-103302414D01*
X68745344Y-103301654D01*
X68623351Y-103179661D01*
X68623350Y-103179660D01*
X68504196Y-103106165D01*
X68476518Y-103089093D01*
X68476513Y-103089091D01*
X68475069Y-103088612D01*
X68312753Y-103034826D01*
X68312751Y-103034825D01*
X68211678Y-103024500D01*
X67538330Y-103024500D01*
X67538312Y-103024501D01*
X67437247Y-103034825D01*
X67273484Y-103089092D01*
X67273481Y-103089093D01*
X67126648Y-103179661D01*
X67004661Y-103301648D01*
X66914093Y-103448481D01*
X66914091Y-103448486D01*
X66905753Y-103473648D01*
X66859826Y-103612247D01*
X66859826Y-103612248D01*
X66859825Y-103612248D01*
X66849500Y-103713315D01*
X66849500Y-104286669D01*
X66849501Y-104286687D01*
X66859825Y-104387752D01*
X66892573Y-104486576D01*
X66914092Y-104551516D01*
X67003236Y-104696042D01*
X67004661Y-104698351D01*
X67019596Y-104713286D01*
X67053081Y-104774609D01*
X67048097Y-104844301D01*
X67006225Y-104900234D01*
X66940761Y-104924651D01*
X66939402Y-104924741D01*
X66698900Y-104939289D01*
X66377547Y-104998178D01*
X66065657Y-105095366D01*
X66065641Y-105095372D01*
X66065639Y-105095373D01*
X65984384Y-105131943D01*
X65767725Y-105229453D01*
X65767723Y-105229454D01*
X65488131Y-105398473D01*
X65230960Y-105599954D01*
X65082179Y-105748736D01*
X65020856Y-105782221D01*
X64951164Y-105777237D01*
X64895231Y-105735365D01*
X64870814Y-105669901D01*
X64870498Y-105661055D01*
X64870498Y-90752135D01*
X66624500Y-90752135D01*
X66624500Y-92147870D01*
X66624501Y-92147876D01*
X66630908Y-92207483D01*
X66681202Y-92342328D01*
X66681206Y-92342335D01*
X66767452Y-92457544D01*
X66767455Y-92457547D01*
X66882664Y-92543793D01*
X66882671Y-92543797D01*
X67017517Y-92594091D01*
X67017516Y-92594091D01*
X67024444Y-92594835D01*
X67077127Y-92600500D01*
X67872872Y-92600499D01*
X67932483Y-92594091D01*
X68067331Y-92543796D01*
X68182546Y-92457546D01*
X68268796Y-92342331D01*
X68319091Y-92207483D01*
X68325500Y-92147873D01*
X68325499Y-90752128D01*
X68319091Y-90692517D01*
X68296498Y-90631943D01*
X68268797Y-90557671D01*
X68268793Y-90557664D01*
X68182547Y-90442455D01*
X68182544Y-90442452D01*
X68067335Y-90356206D01*
X68067328Y-90356202D01*
X67932482Y-90305908D01*
X67932483Y-90305908D01*
X67872883Y-90299501D01*
X67872881Y-90299500D01*
X67872873Y-90299500D01*
X67872864Y-90299500D01*
X67077129Y-90299500D01*
X67077123Y-90299501D01*
X67017516Y-90305908D01*
X66882671Y-90356202D01*
X66882664Y-90356206D01*
X66767455Y-90442452D01*
X66767452Y-90442455D01*
X66681206Y-90557664D01*
X66681202Y-90557671D01*
X66630908Y-90692517D01*
X66624501Y-90752116D01*
X66624501Y-90752123D01*
X66624500Y-90752135D01*
X64870498Y-90752135D01*
X64870498Y-88224499D01*
X64890183Y-88157460D01*
X64942987Y-88111705D01*
X64994493Y-88100499D01*
X65722872Y-88100499D01*
X65782483Y-88094091D01*
X65917331Y-88043796D01*
X66032546Y-87957546D01*
X66118796Y-87842331D01*
X66169091Y-87707483D01*
X66175500Y-87647873D01*
X66175499Y-86252135D01*
X66624500Y-86252135D01*
X66624500Y-87647870D01*
X66624501Y-87647876D01*
X66630908Y-87707483D01*
X66681202Y-87842328D01*
X66681206Y-87842335D01*
X66767452Y-87957544D01*
X66767455Y-87957547D01*
X66882664Y-88043793D01*
X66882671Y-88043797D01*
X67017517Y-88094091D01*
X67017516Y-88094091D01*
X67020493Y-88094411D01*
X67077127Y-88100500D01*
X67872872Y-88100499D01*
X67932483Y-88094091D01*
X68067331Y-88043796D01*
X68182546Y-87957546D01*
X68268796Y-87842331D01*
X68319091Y-87707483D01*
X68325500Y-87647873D01*
X68325499Y-86252128D01*
X68319091Y-86192517D01*
X68314374Y-86179871D01*
X68268797Y-86057671D01*
X68268793Y-86057664D01*
X68182547Y-85942455D01*
X68182544Y-85942452D01*
X68067335Y-85856206D01*
X68067328Y-85856202D01*
X67932482Y-85805908D01*
X67932483Y-85805908D01*
X67872883Y-85799501D01*
X67872881Y-85799500D01*
X67872873Y-85799500D01*
X67872864Y-85799500D01*
X67077129Y-85799500D01*
X67077123Y-85799501D01*
X67017516Y-85805908D01*
X66882671Y-85856202D01*
X66882664Y-85856206D01*
X66767455Y-85942452D01*
X66767452Y-85942455D01*
X66681206Y-86057664D01*
X66681202Y-86057671D01*
X66630908Y-86192517D01*
X66625114Y-86246418D01*
X66624501Y-86252123D01*
X66624500Y-86252135D01*
X66175499Y-86252135D01*
X66175499Y-86252128D01*
X66169091Y-86192517D01*
X66164374Y-86179871D01*
X66118797Y-86057671D01*
X66118793Y-86057664D01*
X66032547Y-85942455D01*
X66032544Y-85942452D01*
X65917335Y-85856206D01*
X65917328Y-85856202D01*
X65782482Y-85805908D01*
X65782483Y-85805908D01*
X65722883Y-85799501D01*
X65722881Y-85799500D01*
X65722873Y-85799500D01*
X65722865Y-85799500D01*
X64994498Y-85799500D01*
X64927459Y-85779815D01*
X64881704Y-85727011D01*
X64870498Y-85675500D01*
X64870498Y-76027135D01*
X65484500Y-76027135D01*
X65484500Y-83472870D01*
X65484501Y-83472876D01*
X65490908Y-83532483D01*
X65541202Y-83667328D01*
X65541206Y-83667335D01*
X65627452Y-83782544D01*
X65627455Y-83782547D01*
X65742664Y-83868793D01*
X65742671Y-83868797D01*
X65877517Y-83919091D01*
X65877516Y-83919091D01*
X65884444Y-83919835D01*
X65937127Y-83925500D01*
X70647109Y-83925499D01*
X70714148Y-83945184D01*
X70734790Y-83961818D01*
X84017490Y-97244518D01*
X84193381Y-97372310D01*
X84193382Y-97372311D01*
X84193381Y-97372311D01*
X84207259Y-97382393D01*
X84208567Y-97383343D01*
X84342659Y-97451666D01*
X84419003Y-97490566D01*
X84419005Y-97490566D01*
X84419008Y-97490568D01*
X84539412Y-97529689D01*
X84643631Y-97563553D01*
X84876903Y-97600500D01*
X84876908Y-97600500D01*
X88181908Y-97600500D01*
X90081908Y-97600500D01*
X98972432Y-97600500D01*
X99039471Y-97620185D01*
X99085226Y-97672989D01*
X99095752Y-97711535D01*
X99114326Y-97888256D01*
X99114327Y-97888259D01*
X99172818Y-98068277D01*
X99172821Y-98068284D01*
X99267467Y-98232216D01*
X99357506Y-98332214D01*
X99394129Y-98372888D01*
X99547265Y-98484148D01*
X99547270Y-98484151D01*
X99720192Y-98561142D01*
X99720197Y-98561144D01*
X99905354Y-98600500D01*
X99905355Y-98600500D01*
X100094644Y-98600500D01*
X100094646Y-98600500D01*
X100279803Y-98561144D01*
X100452730Y-98484151D01*
X100454776Y-98482664D01*
X100466452Y-98474182D01*
X100532258Y-98450702D01*
X100539337Y-98450500D01*
X105623025Y-98450500D01*
X105690064Y-98470185D01*
X105695910Y-98474182D01*
X105847265Y-98584148D01*
X105847270Y-98584151D01*
X106020192Y-98661142D01*
X106020197Y-98661144D01*
X106205354Y-98700500D01*
X106205355Y-98700500D01*
X106394644Y-98700500D01*
X106394646Y-98700500D01*
X106579803Y-98661144D01*
X106752730Y-98584151D01*
X106905871Y-98472888D01*
X107032533Y-98332216D01*
X107127179Y-98168284D01*
X107185674Y-97988256D01*
X107205460Y-97800000D01*
X107198887Y-97737460D01*
X107211457Y-97668731D01*
X107259189Y-97617708D01*
X107322208Y-97600500D01*
X129393097Y-97600500D01*
X129626368Y-97563553D01*
X129850992Y-97490568D01*
X130061434Y-97383343D01*
X130252510Y-97244517D01*
X132122370Y-95374657D01*
X132183693Y-95341172D01*
X132210051Y-95338338D01*
X132223772Y-95338338D01*
X132223773Y-95338338D01*
X132394863Y-95311240D01*
X132559607Y-95257711D01*
X132713950Y-95179070D01*
X132854090Y-95077252D01*
X133383164Y-94548178D01*
X133384131Y-94546848D01*
X133394299Y-94532853D01*
X133418742Y-94499210D01*
X133418742Y-94499209D01*
X133448789Y-94457853D01*
X133484982Y-94408038D01*
X133563623Y-94253696D01*
X133589197Y-94174988D01*
X133617153Y-94088950D01*
X133642180Y-93930930D01*
X133644250Y-93917861D01*
X133644250Y-93744640D01*
X133641311Y-93726082D01*
X133617153Y-93573549D01*
X133563623Y-93408804D01*
X133563621Y-93408801D01*
X133563621Y-93408799D01*
X133512224Y-93307928D01*
X133484982Y-93254462D01*
X133484980Y-93254459D01*
X133484979Y-93254457D01*
X133383170Y-93114327D01*
X133321616Y-93052773D01*
X133291367Y-93003411D01*
X133265568Y-92924008D01*
X133158343Y-92713567D01*
X133019517Y-92522490D01*
X132852510Y-92355483D01*
X132661433Y-92216657D01*
X132643426Y-92207482D01*
X132450992Y-92109431D01*
X132450989Y-92109430D01*
X132226369Y-92036448D01*
X131993097Y-91999501D01*
X131993092Y-91999501D01*
X131756908Y-91999501D01*
X131756903Y-91999501D01*
X131523629Y-92036448D01*
X131299010Y-92109430D01*
X131299007Y-92109432D01*
X131088565Y-92216657D01*
X130897488Y-92355484D01*
X130897487Y-92355485D01*
X128689792Y-94563181D01*
X128628469Y-94596666D01*
X128602111Y-94599500D01*
X100104387Y-94599500D01*
X100037348Y-94579815D01*
X99991593Y-94527011D01*
X99981649Y-94457853D01*
X99999394Y-94409527D01*
X100055503Y-94320230D01*
X100055502Y-94320230D01*
X100055505Y-94320227D01*
X100111362Y-94160596D01*
X100111362Y-94160595D01*
X100111363Y-94160593D01*
X100130298Y-93992539D01*
X100130298Y-93992534D01*
X100111363Y-93824480D01*
X100055503Y-93664842D01*
X100055501Y-93664839D01*
X99965530Y-93521652D01*
X99965525Y-93521646D01*
X99845939Y-93402060D01*
X99845933Y-93402055D01*
X99702746Y-93312084D01*
X99702743Y-93312082D01*
X99539390Y-93254923D01*
X99492664Y-93225562D01*
X94807329Y-88540227D01*
X94807309Y-88540205D01*
X94715864Y-88448760D01*
X94664640Y-88414534D01*
X94613418Y-88380308D01*
X94613417Y-88380307D01*
X94613414Y-88380305D01*
X94613411Y-88380304D01*
X94526107Y-88344142D01*
X94526107Y-88344143D01*
X94526105Y-88344142D01*
X94499583Y-88333156D01*
X94439160Y-88321137D01*
X94378741Y-88309119D01*
X94378738Y-88309119D01*
X94378737Y-88309119D01*
X88254048Y-88309119D01*
X88187009Y-88289434D01*
X88166367Y-88272800D01*
X87857202Y-87963635D01*
X87823717Y-87902312D01*
X87828701Y-87832620D01*
X87870162Y-87776996D01*
X87874727Y-87773548D01*
X87874731Y-87773546D01*
X88025454Y-87636144D01*
X88148363Y-87473386D01*
X88239272Y-87290815D01*
X88295087Y-87094648D01*
X88313905Y-86891565D01*
X88295087Y-86688482D01*
X88239272Y-86492315D01*
X88148363Y-86309744D01*
X88050288Y-86179871D01*
X88036470Y-86161573D01*
X99673783Y-86161573D01*
X99673783Y-86161574D01*
X99694310Y-86383109D01*
X99694311Y-86383111D01*
X99755195Y-86597097D01*
X99755201Y-86597112D01*
X99854364Y-86796257D01*
X99854369Y-86796265D01*
X99988446Y-86973812D01*
X100152863Y-87123697D01*
X100152865Y-87123699D01*
X100342021Y-87240819D01*
X100342022Y-87240819D01*
X100342025Y-87240821D01*
X100549486Y-87321192D01*
X100768183Y-87362074D01*
X100768185Y-87362074D01*
X100990667Y-87362074D01*
X100990669Y-87362074D01*
X101209366Y-87321192D01*
X101416827Y-87240821D01*
X101605988Y-87123698D01*
X101770407Y-86973810D01*
X101777230Y-86964775D01*
X101833338Y-86923138D01*
X101876185Y-86915500D01*
X103090638Y-86915500D01*
X103157677Y-86935185D01*
X103178319Y-86951819D01*
X105363181Y-89136680D01*
X105396666Y-89198003D01*
X105399500Y-89224361D01*
X105399500Y-91258808D01*
X105379815Y-91325847D01*
X105374454Y-91333534D01*
X105274947Y-91465302D01*
X105274938Y-91465316D01*
X105175775Y-91664461D01*
X105175769Y-91664476D01*
X105114885Y-91878462D01*
X105114884Y-91878464D01*
X105094357Y-92099999D01*
X105094357Y-92100000D01*
X105114884Y-92321535D01*
X105114885Y-92321537D01*
X105175769Y-92535523D01*
X105175775Y-92535538D01*
X105274938Y-92734683D01*
X105274943Y-92734691D01*
X105409020Y-92912238D01*
X105573437Y-93062123D01*
X105573439Y-93062125D01*
X105762595Y-93179245D01*
X105762596Y-93179245D01*
X105762599Y-93179247D01*
X105970060Y-93259618D01*
X106188757Y-93300500D01*
X106188759Y-93300500D01*
X106411241Y-93300500D01*
X106411243Y-93300500D01*
X106629940Y-93259618D01*
X106837401Y-93179247D01*
X107026562Y-93062124D01*
X107190981Y-92912236D01*
X107325058Y-92734689D01*
X107424229Y-92535528D01*
X107485115Y-92321536D01*
X107505643Y-92100000D01*
X107492781Y-91961203D01*
X107506196Y-91892637D01*
X107528568Y-91862087D01*
X111290657Y-88099999D01*
X138069357Y-88099999D01*
X138069357Y-88100000D01*
X138089884Y-88321535D01*
X138089885Y-88321537D01*
X138150769Y-88535523D01*
X138150775Y-88535538D01*
X138249938Y-88734683D01*
X138249943Y-88734691D01*
X138274010Y-88766560D01*
X138349454Y-88866464D01*
X138374146Y-88931824D01*
X138374500Y-88941190D01*
X138374500Y-89949482D01*
X138409103Y-90123444D01*
X138409105Y-90123452D01*
X138443046Y-90205392D01*
X138443046Y-90205393D01*
X138476984Y-90287328D01*
X138476985Y-90287330D01*
X138536063Y-90375746D01*
X138575537Y-90434824D01*
X138575540Y-90434827D01*
X139613181Y-91472466D01*
X139646666Y-91533789D01*
X139649500Y-91560147D01*
X139649500Y-95026696D01*
X139684103Y-95200658D01*
X139684105Y-95200666D01*
X139714402Y-95273809D01*
X139751985Y-95364544D01*
X139751986Y-95364546D01*
X139751987Y-95364547D01*
X139754321Y-95368041D01*
X139774694Y-95425495D01*
X139789384Y-95584035D01*
X139789385Y-95584037D01*
X139850269Y-95798023D01*
X139850275Y-95798038D01*
X139949438Y-95997183D01*
X139949443Y-95997191D01*
X140083520Y-96174738D01*
X140247937Y-96324623D01*
X140247939Y-96324625D01*
X140437095Y-96441745D01*
X140437096Y-96441745D01*
X140437099Y-96441747D01*
X140644560Y-96522118D01*
X140863257Y-96563000D01*
X140863259Y-96563000D01*
X141085741Y-96563000D01*
X141085743Y-96563000D01*
X141304440Y-96522118D01*
X141511901Y-96441747D01*
X141701062Y-96324624D01*
X141865481Y-96174736D01*
X141999558Y-95997189D01*
X142098729Y-95798028D01*
X142159615Y-95584036D01*
X142180143Y-95362500D01*
X142159615Y-95140964D01*
X142098729Y-94926972D01*
X142097748Y-94925001D01*
X141999561Y-94727816D01*
X141999556Y-94727808D01*
X141865479Y-94550261D01*
X141701063Y-94400377D01*
X141701062Y-94400376D01*
X141511901Y-94283253D01*
X141511902Y-94283253D01*
X141509222Y-94281594D01*
X141462587Y-94229566D01*
X141450500Y-94176167D01*
X141450500Y-91660372D01*
X141470185Y-91593333D01*
X141522989Y-91547578D01*
X141560615Y-91537151D01*
X141568059Y-91536313D01*
X141727690Y-91480456D01*
X141727693Y-91480453D01*
X141727697Y-91480452D01*
X141870884Y-91390481D01*
X141870885Y-91390480D01*
X141870890Y-91390477D01*
X141990477Y-91270890D01*
X142080452Y-91127697D01*
X142080454Y-91127694D01*
X142080454Y-91127692D01*
X142080456Y-91127690D01*
X142136313Y-90968059D01*
X142136313Y-90968058D01*
X142136314Y-90968056D01*
X142155249Y-90800002D01*
X142155249Y-90799997D01*
X142136314Y-90631943D01*
X142110322Y-90557664D01*
X142080456Y-90472310D01*
X142056901Y-90434822D01*
X142044506Y-90415095D01*
X142025500Y-90349123D01*
X142025500Y-84572952D01*
X142045185Y-84505913D01*
X142061819Y-84485271D01*
X143899261Y-82647829D01*
X145842618Y-80704471D01*
X145889343Y-80675112D01*
X145893053Y-80673813D01*
X145893059Y-80673813D01*
X146052690Y-80617956D01*
X146052692Y-80617955D01*
X146052697Y-80617952D01*
X146195884Y-80527981D01*
X146195885Y-80527980D01*
X146195890Y-80527977D01*
X146315477Y-80408390D01*
X146315481Y-80408384D01*
X146405452Y-80265197D01*
X146405454Y-80265194D01*
X146405454Y-80265192D01*
X146405456Y-80265190D01*
X146461313Y-80105559D01*
X146461313Y-80105558D01*
X146461314Y-80105556D01*
X146480249Y-79937502D01*
X146480249Y-79937497D01*
X146461314Y-79769443D01*
X146405454Y-79609805D01*
X146405452Y-79609802D01*
X146315481Y-79466615D01*
X146315476Y-79466609D01*
X146195890Y-79347023D01*
X146195884Y-79347018D01*
X146052697Y-79257047D01*
X146052694Y-79257045D01*
X145893056Y-79201185D01*
X145725003Y-79182251D01*
X145724997Y-79182251D01*
X145556943Y-79201185D01*
X145397305Y-79257045D01*
X145397302Y-79257047D01*
X145254115Y-79347018D01*
X145254109Y-79347023D01*
X145134523Y-79466609D01*
X145134518Y-79466615D01*
X145044547Y-79609802D01*
X145044544Y-79609808D01*
X144987388Y-79773153D01*
X144958027Y-79819880D01*
X141975246Y-82802663D01*
X141001269Y-83776640D01*
X141001267Y-83776642D01*
X140959538Y-83818371D01*
X140914140Y-83863768D01*
X140891994Y-83896914D01*
X140891992Y-83896917D01*
X140845688Y-83966214D01*
X140822552Y-84022070D01*
X140807048Y-84059500D01*
X140798538Y-84080045D01*
X140798535Y-84080053D01*
X140786797Y-84139066D01*
X140786798Y-84139067D01*
X140786798Y-84139068D01*
X140780209Y-84172197D01*
X140778433Y-84181124D01*
X140778432Y-84181130D01*
X140774500Y-84200894D01*
X140774500Y-89787424D01*
X140754815Y-89854463D01*
X140702011Y-89900218D01*
X140632853Y-89910162D01*
X140569297Y-89881137D01*
X140562819Y-89875105D01*
X140211819Y-89524105D01*
X140178334Y-89462782D01*
X140175500Y-89436424D01*
X140175500Y-88941190D01*
X140195185Y-88874151D01*
X140200538Y-88866473D01*
X140300058Y-88734689D01*
X140399229Y-88535528D01*
X140460115Y-88321536D01*
X140480643Y-88100000D01*
X140480095Y-88094091D01*
X140460115Y-87878464D01*
X140460114Y-87878462D01*
X140452852Y-87852939D01*
X140399229Y-87664472D01*
X140390969Y-87647883D01*
X140300061Y-87465316D01*
X140300056Y-87465308D01*
X140165979Y-87287761D01*
X140001562Y-87137876D01*
X140001560Y-87137874D01*
X139812404Y-87020754D01*
X139812398Y-87020752D01*
X139604940Y-86940382D01*
X139386243Y-86899500D01*
X139163757Y-86899500D01*
X138945060Y-86940382D01*
X138813864Y-86991207D01*
X138737601Y-87020752D01*
X138737595Y-87020754D01*
X138548439Y-87137874D01*
X138548437Y-87137876D01*
X138384020Y-87287761D01*
X138249943Y-87465308D01*
X138249938Y-87465316D01*
X138150775Y-87664461D01*
X138150769Y-87664476D01*
X138089885Y-87878462D01*
X138089884Y-87878464D01*
X138069357Y-88099999D01*
X111290657Y-88099999D01*
X115744114Y-83646543D01*
X115820775Y-83531811D01*
X115820779Y-83531803D01*
X115847177Y-83468069D01*
X115873580Y-83404328D01*
X115900500Y-83268994D01*
X115900500Y-83131006D01*
X115900500Y-82396007D01*
X115890818Y-82347335D01*
X115889115Y-82310173D01*
X115890185Y-82300000D01*
X115871497Y-82122197D01*
X115816250Y-81952165D01*
X115726859Y-81797335D01*
X115680003Y-81745296D01*
X115607235Y-81664478D01*
X115607232Y-81664476D01*
X115607231Y-81664475D01*
X115607230Y-81664474D01*
X115462593Y-81559388D01*
X115299267Y-81486671D01*
X115299265Y-81486670D01*
X115171594Y-81459533D01*
X115124391Y-81449500D01*
X114945609Y-81449500D01*
X114914954Y-81456015D01*
X114770733Y-81486670D01*
X114770728Y-81486672D01*
X114607408Y-81559387D01*
X114462768Y-81664475D01*
X114343140Y-81797336D01*
X114253750Y-81952164D01*
X114253747Y-81952170D01*
X114198504Y-82122192D01*
X114198503Y-82122194D01*
X114179815Y-82300000D01*
X114198503Y-82477805D01*
X114198504Y-82477807D01*
X114253747Y-82647829D01*
X114253750Y-82647835D01*
X114343141Y-82802665D01*
X114362994Y-82824714D01*
X114389266Y-82853893D01*
X114419495Y-82916885D01*
X114410869Y-82986220D01*
X114384796Y-83024545D01*
X107412181Y-89997161D01*
X107350858Y-90030646D01*
X107281166Y-90025662D01*
X107225233Y-89983790D01*
X107200816Y-89918326D01*
X107200500Y-89909480D01*
X107200500Y-88711308D01*
X107200499Y-88711307D01*
X107186674Y-88641800D01*
X107186674Y-88641796D01*
X107165896Y-88537341D01*
X107165895Y-88537334D01*
X107100339Y-88379071D01*
X107098695Y-88374474D01*
X107078428Y-88344143D01*
X107041873Y-88289434D01*
X106999465Y-88225966D01*
X106952869Y-88179370D01*
X106874035Y-88100536D01*
X106238807Y-87465308D01*
X104089041Y-85315540D01*
X104089038Y-85315537D01*
X104007526Y-85261073D01*
X103941544Y-85216985D01*
X103941542Y-85216984D01*
X103859607Y-85183046D01*
X103859606Y-85183046D01*
X103777666Y-85149105D01*
X103777658Y-85149103D01*
X103603696Y-85114500D01*
X103603692Y-85114500D01*
X103603691Y-85114500D01*
X101504070Y-85114500D01*
X101438792Y-85095927D01*
X101416828Y-85082327D01*
X101416826Y-85082326D01*
X101345217Y-85054585D01*
X101209366Y-85001956D01*
X100990669Y-84961074D01*
X100768183Y-84961074D01*
X100549486Y-85001956D01*
X100455251Y-85038463D01*
X100342027Y-85082326D01*
X100342021Y-85082328D01*
X100152865Y-85199448D01*
X100152863Y-85199450D01*
X99988446Y-85349335D01*
X99854369Y-85526882D01*
X99854364Y-85526890D01*
X99755201Y-85726035D01*
X99755195Y-85726050D01*
X99694311Y-85940036D01*
X99694310Y-85940038D01*
X99673783Y-86161573D01*
X88036470Y-86161573D01*
X88034236Y-86158615D01*
X88009544Y-86093253D01*
X88009190Y-86083888D01*
X88009190Y-85500250D01*
X88028875Y-85433211D01*
X88045509Y-85412569D01*
X88221259Y-85236819D01*
X88282582Y-85203334D01*
X88308940Y-85200500D01*
X88327974Y-85200500D01*
X88327976Y-85200500D01*
X88528456Y-85163024D01*
X88718637Y-85089348D01*
X88892041Y-84981981D01*
X89042764Y-84844579D01*
X89165673Y-84681821D01*
X89256582Y-84499250D01*
X89312397Y-84303083D01*
X89331215Y-84100000D01*
X89326043Y-84044189D01*
X89312397Y-83896917D01*
X89312396Y-83896914D01*
X89300270Y-83854297D01*
X89256582Y-83700750D01*
X89239943Y-83667335D01*
X89212272Y-83611764D01*
X89165673Y-83518179D01*
X89042764Y-83355421D01*
X89042762Y-83355418D01*
X88892041Y-83218019D01*
X88892039Y-83218017D01*
X88718642Y-83110655D01*
X88718635Y-83110651D01*
X88623546Y-83073814D01*
X88528456Y-83036976D01*
X88327976Y-82999500D01*
X88124024Y-82999500D01*
X87923544Y-83036976D01*
X87923541Y-83036976D01*
X87923541Y-83036977D01*
X87733364Y-83110651D01*
X87733357Y-83110655D01*
X87559960Y-83218017D01*
X87559958Y-83218019D01*
X87409237Y-83355418D01*
X87286327Y-83518178D01*
X87195422Y-83700739D01*
X87195417Y-83700752D01*
X87139604Y-83896914D01*
X87139602Y-83896917D01*
X87127659Y-84025812D01*
X87101873Y-84090750D01*
X87091869Y-84102052D01*
X86890840Y-84303082D01*
X86698401Y-84495521D01*
X86666119Y-84527803D01*
X86586899Y-84607022D01*
X86499299Y-84738124D01*
X86499292Y-84738137D01*
X86438954Y-84883808D01*
X86438951Y-84883820D01*
X86408190Y-85038463D01*
X86408190Y-86083888D01*
X86388505Y-86150927D01*
X86383144Y-86158615D01*
X86326620Y-86233464D01*
X86270511Y-86275100D01*
X86200799Y-86279791D01*
X86139985Y-86246418D01*
X84975895Y-85082328D01*
X83748258Y-83854690D01*
X83714773Y-83793367D01*
X83711939Y-83767009D01*
X83711939Y-79811314D01*
X83730946Y-79745341D01*
X83770601Y-79682232D01*
X83772816Y-79683624D01*
X83811588Y-79640671D01*
X83879012Y-79622348D01*
X83945639Y-79643387D01*
X83990315Y-79697107D01*
X84000500Y-79746323D01*
X84000500Y-80163611D01*
X84024535Y-80284444D01*
X84024540Y-80284461D01*
X84071684Y-80398278D01*
X84073044Y-80400822D01*
X84073966Y-80403789D01*
X84074019Y-80403915D01*
X84074007Y-80403919D01*
X84086907Y-80445394D01*
X84089687Y-80470059D01*
X84109953Y-80527976D01*
X84145544Y-80629692D01*
X84145547Y-80629697D01*
X84235518Y-80772884D01*
X84235523Y-80772890D01*
X84355109Y-80892476D01*
X84355115Y-80892481D01*
X84498302Y-80982452D01*
X84498305Y-80982454D01*
X84498309Y-80982455D01*
X84498310Y-80982456D01*
X84570913Y-81007860D01*
X84657943Y-81038314D01*
X84825997Y-81057249D01*
X84826000Y-81057249D01*
X84826003Y-81057249D01*
X84994056Y-81038314D01*
X84994059Y-81038313D01*
X85153690Y-80982456D01*
X85153692Y-80982454D01*
X85153694Y-80982454D01*
X85153697Y-80982452D01*
X85296884Y-80892481D01*
X85296885Y-80892480D01*
X85296890Y-80892477D01*
X85416477Y-80772890D01*
X85438960Y-80737109D01*
X85506452Y-80629697D01*
X85506454Y-80629694D01*
X85506454Y-80629692D01*
X85506456Y-80629690D01*
X85562313Y-80470059D01*
X85562313Y-80470058D01*
X85562314Y-80470056D01*
X85581249Y-80302002D01*
X85581249Y-80301997D01*
X85562314Y-80133943D01*
X85506454Y-79974305D01*
X85506452Y-79974302D01*
X85416481Y-79831115D01*
X85416476Y-79831109D01*
X85291966Y-79706599D01*
X85293162Y-79705402D01*
X85258042Y-79655353D01*
X85251500Y-79615610D01*
X85251500Y-77238375D01*
X85270507Y-77172402D01*
X85306456Y-77115190D01*
X85354528Y-76977807D01*
X85362313Y-76955559D01*
X85381249Y-76787500D01*
X85381249Y-76787497D01*
X85362314Y-76619443D01*
X85306454Y-76459805D01*
X85306452Y-76459802D01*
X85216481Y-76316615D01*
X85216476Y-76316609D01*
X85096890Y-76197023D01*
X85096884Y-76197018D01*
X84953697Y-76107047D01*
X84953694Y-76107045D01*
X84794056Y-76051185D01*
X84626003Y-76032251D01*
X84625997Y-76032251D01*
X84457943Y-76051185D01*
X84298305Y-76107045D01*
X84298302Y-76107047D01*
X84155115Y-76197018D01*
X84155109Y-76197023D01*
X84035523Y-76316609D01*
X84035518Y-76316615D01*
X83945547Y-76459802D01*
X83945545Y-76459805D01*
X83889685Y-76619443D01*
X83870751Y-76787497D01*
X83870751Y-76787502D01*
X83889686Y-76955557D01*
X83945543Y-77115190D01*
X83981493Y-77172402D01*
X84000500Y-77238375D01*
X84000500Y-78974554D01*
X83980815Y-79041593D01*
X83928011Y-79087348D01*
X83858853Y-79097292D01*
X83795297Y-79068267D01*
X83771982Y-79037776D01*
X83770601Y-79038645D01*
X83676920Y-78889554D01*
X83676915Y-78889548D01*
X83557329Y-78769962D01*
X83557323Y-78769957D01*
X83414136Y-78679986D01*
X83414133Y-78679984D01*
X83254495Y-78624124D01*
X83086442Y-78605190D01*
X83086436Y-78605190D01*
X82918382Y-78624124D01*
X82758744Y-78679984D01*
X82758741Y-78679986D01*
X82615554Y-78769957D01*
X82615548Y-78769962D01*
X82495962Y-78889548D01*
X82495957Y-78889554D01*
X82405986Y-79032741D01*
X82405984Y-79032744D01*
X82350124Y-79192382D01*
X82331190Y-79360436D01*
X82331190Y-79360441D01*
X82350125Y-79528496D01*
X82405982Y-79688129D01*
X82441932Y-79745341D01*
X82460939Y-79811314D01*
X82460939Y-84139067D01*
X82460938Y-84139067D01*
X82468849Y-84178841D01*
X82484974Y-84259909D01*
X82484976Y-84259914D01*
X82493713Y-84281005D01*
X82493714Y-84281009D01*
X82532124Y-84373742D01*
X82532125Y-84373744D01*
X82532127Y-84373748D01*
X82547294Y-84396447D01*
X82562358Y-84418992D01*
X82562359Y-84418993D01*
X82562360Y-84418994D01*
X82600581Y-84476195D01*
X82687706Y-84563320D01*
X82687707Y-84563320D01*
X82694774Y-84570387D01*
X82694773Y-84570387D01*
X82694777Y-84570390D01*
X86129178Y-88004791D01*
X86162663Y-88066114D01*
X86157679Y-88135806D01*
X86115807Y-88191739D01*
X86082452Y-88209513D01*
X85954855Y-88254161D01*
X85954844Y-88254166D01*
X85811657Y-88344137D01*
X85811651Y-88344142D01*
X85692065Y-88463728D01*
X85692060Y-88463734D01*
X85602089Y-88606921D01*
X85602087Y-88606924D01*
X85546227Y-88766562D01*
X85527293Y-88934616D01*
X85527293Y-88934621D01*
X85546227Y-89102675D01*
X85602087Y-89262313D01*
X85602089Y-89262316D01*
X85692060Y-89405503D01*
X85692065Y-89405509D01*
X85811651Y-89525095D01*
X85811657Y-89525100D01*
X85954844Y-89615071D01*
X85954847Y-89615073D01*
X85954851Y-89615074D01*
X85954852Y-89615075D01*
X86027455Y-89640479D01*
X86114485Y-89670933D01*
X86282539Y-89689868D01*
X86282542Y-89689868D01*
X86282545Y-89689868D01*
X86450598Y-89670933D01*
X86450601Y-89670932D01*
X86610232Y-89615075D01*
X86667446Y-89579124D01*
X86733418Y-89560119D01*
X87633144Y-89560119D01*
X87700183Y-89579804D01*
X87720825Y-89596438D01*
X92512205Y-94387819D01*
X92545690Y-94449142D01*
X92540706Y-94518834D01*
X92498834Y-94574767D01*
X92433370Y-94599184D01*
X92424524Y-94599500D01*
X85667890Y-94599500D01*
X85600851Y-94579815D01*
X85580209Y-94563181D01*
X71841818Y-80824790D01*
X71808333Y-80763467D01*
X71805499Y-80737109D01*
X71805499Y-76027129D01*
X71805498Y-76027123D01*
X71805497Y-76027116D01*
X71799091Y-75967517D01*
X71781199Y-75919547D01*
X71748797Y-75832671D01*
X71748793Y-75832664D01*
X71662547Y-75717455D01*
X71662544Y-75717452D01*
X71547335Y-75631206D01*
X71547328Y-75631202D01*
X71412482Y-75580908D01*
X71412483Y-75580908D01*
X71352883Y-75574501D01*
X71352881Y-75574500D01*
X71352873Y-75574500D01*
X71352865Y-75574500D01*
X71021951Y-75574500D01*
X70954912Y-75554815D01*
X70909157Y-75502011D01*
X70899213Y-75432853D01*
X70928238Y-75369297D01*
X70934270Y-75362819D01*
X71497842Y-74799247D01*
X71897089Y-74399999D01*
X78594785Y-74399999D01*
X78594785Y-74400000D01*
X78613602Y-74603082D01*
X78669417Y-74799247D01*
X78669422Y-74799260D01*
X78760327Y-74981821D01*
X78883237Y-75144581D01*
X79033958Y-75281980D01*
X79033960Y-75281982D01*
X79041559Y-75286687D01*
X79207363Y-75389348D01*
X79397544Y-75463024D01*
X79598024Y-75500500D01*
X79598026Y-75500500D01*
X79801974Y-75500500D01*
X79801976Y-75500500D01*
X80002456Y-75463024D01*
X80192637Y-75389348D01*
X80366041Y-75281981D01*
X80516764Y-75144579D01*
X80639673Y-74981821D01*
X80730582Y-74799250D01*
X80786397Y-74603083D01*
X80805215Y-74400000D01*
X80805079Y-74398537D01*
X80786397Y-74196917D01*
X80781434Y-74179474D01*
X80730582Y-74000750D01*
X80714303Y-73968058D01*
X80672141Y-73883384D01*
X80639673Y-73818179D01*
X80541663Y-73688393D01*
X80516762Y-73655418D01*
X80366041Y-73518019D01*
X80366039Y-73518017D01*
X80192642Y-73410655D01*
X80192635Y-73410651D01*
X80039353Y-73351270D01*
X80002456Y-73336976D01*
X79801976Y-73299500D01*
X79598024Y-73299500D01*
X79397544Y-73336976D01*
X79397541Y-73336976D01*
X79397541Y-73336977D01*
X79207364Y-73410651D01*
X79207357Y-73410655D01*
X79033960Y-73518017D01*
X79033958Y-73518019D01*
X78883237Y-73655418D01*
X78760327Y-73818178D01*
X78669422Y-74000739D01*
X78669417Y-74000752D01*
X78613602Y-74196917D01*
X78594785Y-74399999D01*
X71897089Y-74399999D01*
X72117616Y-74179472D01*
X72164341Y-74150113D01*
X72168054Y-74148813D01*
X72168059Y-74148813D01*
X72327690Y-74092956D01*
X72327692Y-74092955D01*
X72327697Y-74092952D01*
X72470884Y-74002981D01*
X72470885Y-74002980D01*
X72470890Y-74002977D01*
X72590477Y-73883390D01*
X72635579Y-73811611D01*
X72680452Y-73740197D01*
X72680454Y-73740194D01*
X72680454Y-73740192D01*
X72680456Y-73740190D01*
X72736313Y-73580559D01*
X72736313Y-73580558D01*
X72736314Y-73580556D01*
X72755249Y-73412502D01*
X72755249Y-73412497D01*
X72736314Y-73244443D01*
X72702755Y-73148537D01*
X72680456Y-73084810D01*
X72680454Y-73084807D01*
X72680454Y-73084806D01*
X72624500Y-72995757D01*
X72605499Y-72928520D01*
X72625866Y-72861685D01*
X72641803Y-72842113D01*
X73392126Y-72091789D01*
X73453447Y-72058306D01*
X73523139Y-72063290D01*
X73579072Y-72105162D01*
X73593616Y-72132451D01*
X73593858Y-72132335D01*
X73596703Y-72138244D01*
X73596842Y-72138504D01*
X73596876Y-72138603D01*
X73689853Y-72286576D01*
X73813424Y-72410147D01*
X73961394Y-72503122D01*
X74126343Y-72560841D01*
X74126349Y-72560841D01*
X74126351Y-72560842D01*
X74299996Y-72580407D01*
X74300000Y-72580407D01*
X74300004Y-72580407D01*
X74473648Y-72560842D01*
X74473647Y-72560842D01*
X74473657Y-72560841D01*
X74638606Y-72503122D01*
X74692106Y-72469506D01*
X74758078Y-72450500D01*
X82326642Y-72450500D01*
X82393681Y-72470185D01*
X82414323Y-72486819D01*
X83899505Y-73972001D01*
X83928865Y-74018726D01*
X83930886Y-74024501D01*
X83942229Y-74056918D01*
X83945790Y-74126697D01*
X83917337Y-74180844D01*
X83808582Y-74301629D01*
X83719192Y-74456457D01*
X83719189Y-74456463D01*
X83663946Y-74626485D01*
X83663945Y-74626487D01*
X83645257Y-74804293D01*
X83663945Y-74982098D01*
X83663946Y-74982100D01*
X83719189Y-75152122D01*
X83719192Y-75152128D01*
X83808583Y-75306958D01*
X83850254Y-75353239D01*
X83928206Y-75439814D01*
X83928209Y-75439816D01*
X83928212Y-75439819D01*
X84072849Y-75544905D01*
X84236175Y-75617622D01*
X84411051Y-75654793D01*
X84411052Y-75654793D01*
X84589831Y-75654793D01*
X84589833Y-75654793D01*
X84764709Y-75617622D01*
X84928035Y-75544905D01*
X84933256Y-75541112D01*
X84950650Y-75528475D01*
X85016457Y-75504995D01*
X85023535Y-75504793D01*
X86684923Y-75504793D01*
X86751962Y-75524478D01*
X86772604Y-75541112D01*
X90463181Y-79231688D01*
X90496666Y-79293011D01*
X90499500Y-79319369D01*
X90499500Y-84121790D01*
X90493432Y-84160106D01*
X90489503Y-84172196D01*
X90470815Y-84350000D01*
X90489503Y-84527805D01*
X90489504Y-84527807D01*
X90544747Y-84697829D01*
X90544750Y-84697835D01*
X90634141Y-84852665D01*
X90662187Y-84883813D01*
X90753764Y-84985521D01*
X90753767Y-84985523D01*
X90753770Y-84985526D01*
X90898407Y-85090612D01*
X91061733Y-85163329D01*
X91236609Y-85200500D01*
X91236610Y-85200500D01*
X91415389Y-85200500D01*
X91415391Y-85200500D01*
X91590267Y-85163329D01*
X91753593Y-85090612D01*
X91898230Y-84985526D01*
X92017859Y-84852665D01*
X92107250Y-84697835D01*
X92162497Y-84527803D01*
X92181185Y-84350000D01*
X92162497Y-84172197D01*
X92125879Y-84059500D01*
X92107252Y-84002170D01*
X92107249Y-84002164D01*
X92102977Y-83994765D01*
X92017859Y-83847335D01*
X91969266Y-83793367D01*
X91932350Y-83752367D01*
X91902120Y-83689375D01*
X91900500Y-83669395D01*
X91900500Y-78908855D01*
X91878934Y-78800442D01*
X91873580Y-78773522D01*
X91843126Y-78700000D01*
X97470815Y-78700000D01*
X97489503Y-78877805D01*
X97489504Y-78877807D01*
X97544747Y-79047829D01*
X97544750Y-79047835D01*
X97634141Y-79202665D01*
X97660274Y-79231688D01*
X97753764Y-79335521D01*
X97753767Y-79335523D01*
X97753770Y-79335526D01*
X97898407Y-79440612D01*
X98061733Y-79513329D01*
X98236609Y-79550500D01*
X98236610Y-79550500D01*
X98415389Y-79550500D01*
X98415391Y-79550500D01*
X98590267Y-79513329D01*
X98753593Y-79440612D01*
X98898230Y-79335526D01*
X99017859Y-79202665D01*
X99107250Y-79047835D01*
X99162497Y-78877803D01*
X99162497Y-78877801D01*
X99164505Y-78871622D01*
X99167310Y-78872533D01*
X99194304Y-78822354D01*
X99194664Y-78821991D01*
X100479838Y-77536819D01*
X100541161Y-77503334D01*
X100567519Y-77500500D01*
X100902907Y-77500500D01*
X100969946Y-77520185D01*
X100975792Y-77524182D01*
X100998402Y-77540609D01*
X100998404Y-77540610D01*
X100998407Y-77540612D01*
X101161733Y-77613329D01*
X101336609Y-77650500D01*
X101336610Y-77650500D01*
X101515389Y-77650500D01*
X101515391Y-77650500D01*
X101690267Y-77613329D01*
X101853593Y-77540612D01*
X101998230Y-77435526D01*
X102005280Y-77427697D01*
X102024148Y-77406741D01*
X102117859Y-77302665D01*
X102207250Y-77147835D01*
X102262497Y-76977803D01*
X102281185Y-76800000D01*
X102262497Y-76622197D01*
X102209734Y-76459810D01*
X102207252Y-76452170D01*
X102207249Y-76452164D01*
X102117859Y-76297335D01*
X102071003Y-76245296D01*
X101998235Y-76164478D01*
X101998232Y-76164476D01*
X101998231Y-76164475D01*
X101998230Y-76164474D01*
X101853593Y-76059388D01*
X101690267Y-75986671D01*
X101690265Y-75986670D01*
X101562594Y-75959533D01*
X101515391Y-75949500D01*
X101336609Y-75949500D01*
X101308409Y-75955494D01*
X101161733Y-75986670D01*
X101161728Y-75986672D01*
X100998410Y-76059387D01*
X100998403Y-76059390D01*
X100975793Y-76075818D01*
X100909986Y-76099298D01*
X100902908Y-76099500D01*
X100157004Y-76099500D01*
X100021677Y-76126418D01*
X100021667Y-76126421D01*
X99894192Y-76179222D01*
X99779454Y-76255887D01*
X98198111Y-77837230D01*
X98136788Y-77870715D01*
X98136212Y-77870839D01*
X98061732Y-77886671D01*
X98061728Y-77886672D01*
X97898408Y-77959387D01*
X97753768Y-78064475D01*
X97634140Y-78197336D01*
X97544750Y-78352164D01*
X97544747Y-78352170D01*
X97489504Y-78522192D01*
X97489503Y-78522194D01*
X97470815Y-78700000D01*
X91843126Y-78700000D01*
X91838631Y-78689148D01*
X91834834Y-78679981D01*
X91820776Y-78646042D01*
X91820771Y-78646033D01*
X91744115Y-78531310D01*
X91708411Y-78495606D01*
X91646542Y-78433737D01*
X90606156Y-77393351D01*
X87472988Y-74260181D01*
X87472987Y-74260180D01*
X87358249Y-74183515D01*
X87230774Y-74130714D01*
X87230764Y-74130711D01*
X87095438Y-74103793D01*
X87095436Y-74103793D01*
X87095435Y-74103793D01*
X85507225Y-74103793D01*
X85440186Y-74084108D01*
X85394431Y-74031304D01*
X85384005Y-73965910D01*
X85402698Y-73800002D01*
X85402698Y-73799996D01*
X85397065Y-73749997D01*
X100394751Y-73749997D01*
X100394751Y-73750002D01*
X100413685Y-73918056D01*
X100469545Y-74077694D01*
X100469547Y-74077697D01*
X100559518Y-74220884D01*
X100559523Y-74220890D01*
X100679109Y-74340476D01*
X100679115Y-74340481D01*
X100822302Y-74430452D01*
X100822305Y-74430454D01*
X100822309Y-74430455D01*
X100822310Y-74430456D01*
X100873837Y-74448486D01*
X100981943Y-74486314D01*
X101149997Y-74505249D01*
X101150000Y-74505249D01*
X101150003Y-74505249D01*
X101318056Y-74486314D01*
X101318059Y-74486313D01*
X101477690Y-74430456D01*
X101534904Y-74394505D01*
X101600876Y-74375500D01*
X102153048Y-74375500D01*
X102220087Y-74395185D01*
X102240729Y-74411819D01*
X106324516Y-78495606D01*
X106324545Y-78495637D01*
X106414764Y-78585856D01*
X106414767Y-78585858D01*
X106465990Y-78620084D01*
X106517214Y-78654312D01*
X106541655Y-78664435D01*
X106579184Y-78679981D01*
X106579189Y-78679982D01*
X106579191Y-78679983D01*
X106631048Y-78701463D01*
X106644728Y-78704184D01*
X106651096Y-78705451D01*
X106651109Y-78705453D01*
X106651123Y-78705456D01*
X106751891Y-78725499D01*
X106751892Y-78725500D01*
X106751893Y-78725500D01*
X106751894Y-78725500D01*
X113549124Y-78725500D01*
X113615095Y-78744505D01*
X113672310Y-78780456D01*
X113792048Y-78822354D01*
X113831943Y-78836314D01*
X113999997Y-78855249D01*
X114000000Y-78855249D01*
X114000003Y-78855249D01*
X114168056Y-78836314D01*
X114168059Y-78836313D01*
X114327690Y-78780456D01*
X114327692Y-78780454D01*
X114327694Y-78780454D01*
X114327697Y-78780452D01*
X114470884Y-78690481D01*
X114470885Y-78690480D01*
X114470890Y-78690477D01*
X114590477Y-78570890D01*
X114621076Y-78522192D01*
X114680452Y-78427697D01*
X114680454Y-78427694D01*
X114680454Y-78427692D01*
X114680456Y-78427690D01*
X114736313Y-78268059D01*
X114736313Y-78268058D01*
X114736314Y-78268056D01*
X114755249Y-78100002D01*
X114755249Y-78099997D01*
X114736314Y-77931943D01*
X114683306Y-77780456D01*
X114680456Y-77772310D01*
X114680455Y-77772309D01*
X114680454Y-77772305D01*
X114680452Y-77772302D01*
X114590481Y-77629115D01*
X114590476Y-77629109D01*
X114470890Y-77509523D01*
X114470884Y-77509518D01*
X114327697Y-77419547D01*
X114327694Y-77419545D01*
X114168056Y-77363685D01*
X114000003Y-77344751D01*
X113999997Y-77344751D01*
X113831943Y-77363685D01*
X113672307Y-77419545D01*
X113615096Y-77455494D01*
X113549124Y-77474500D01*
X107123952Y-77474500D01*
X107056913Y-77454815D01*
X107036271Y-77438181D01*
X106698087Y-77099997D01*
X117644751Y-77099997D01*
X117644751Y-77100002D01*
X117663685Y-77268056D01*
X117719545Y-77427694D01*
X117719547Y-77427697D01*
X117809518Y-77570884D01*
X117809523Y-77570890D01*
X117929109Y-77690476D01*
X117929115Y-77690481D01*
X118072302Y-77780452D01*
X118072305Y-77780454D01*
X118072309Y-77780455D01*
X118072310Y-77780456D01*
X118144913Y-77805860D01*
X118231943Y-77836314D01*
X118399997Y-77855249D01*
X118400000Y-77855249D01*
X118400003Y-77855249D01*
X118568056Y-77836314D01*
X118568059Y-77836313D01*
X118727690Y-77780456D01*
X118727692Y-77780454D01*
X118727694Y-77780454D01*
X118727697Y-77780452D01*
X118870884Y-77690481D01*
X118870885Y-77690480D01*
X118870890Y-77690477D01*
X118990477Y-77570890D01*
X119009502Y-77540612D01*
X119080452Y-77427697D01*
X119080455Y-77427691D01*
X119080456Y-77427690D01*
X119122146Y-77308545D01*
X119162868Y-77251770D01*
X119227821Y-77226022D01*
X119239188Y-77225500D01*
X123349124Y-77225500D01*
X123415095Y-77244505D01*
X123472310Y-77280456D01*
X123593621Y-77322904D01*
X123631943Y-77336314D01*
X123799997Y-77355249D01*
X123800000Y-77355249D01*
X123800003Y-77355249D01*
X123968056Y-77336314D01*
X123996640Y-77326312D01*
X124127690Y-77280456D01*
X124127692Y-77280454D01*
X124127694Y-77280454D01*
X124127697Y-77280452D01*
X124270884Y-77190481D01*
X124270885Y-77190480D01*
X124270890Y-77190477D01*
X124390477Y-77070890D01*
X124390481Y-77070884D01*
X124480452Y-76927697D01*
X124480454Y-76927694D01*
X124480454Y-76927692D01*
X124480456Y-76927690D01*
X124536313Y-76768059D01*
X124536313Y-76768058D01*
X124536314Y-76768056D01*
X124555249Y-76600002D01*
X124555249Y-76599997D01*
X124536314Y-76431943D01*
X124489213Y-76297336D01*
X124480456Y-76272310D01*
X124480455Y-76272309D01*
X124480454Y-76272305D01*
X124480452Y-76272302D01*
X124390481Y-76129115D01*
X124390476Y-76129109D01*
X124270890Y-76009523D01*
X124270884Y-76009518D01*
X124127697Y-75919547D01*
X124127694Y-75919545D01*
X123968056Y-75863685D01*
X123800003Y-75844751D01*
X123799997Y-75844751D01*
X123631943Y-75863685D01*
X123472307Y-75919545D01*
X123415096Y-75955494D01*
X123349124Y-75974500D01*
X118838389Y-75974500D01*
X118777971Y-75986518D01*
X118717548Y-75998537D01*
X118717543Y-75998538D01*
X118683546Y-76012620D01*
X118670397Y-76018067D01*
X118603719Y-76045685D01*
X118603715Y-76045688D01*
X118583212Y-76059388D01*
X118501268Y-76114140D01*
X118457705Y-76157703D01*
X118414142Y-76201267D01*
X118414139Y-76201270D01*
X118343107Y-76272302D01*
X118282381Y-76333028D01*
X118235654Y-76362388D01*
X118231941Y-76363686D01*
X118231941Y-76363687D01*
X118195533Y-76376426D01*
X118072308Y-76419544D01*
X118072302Y-76419547D01*
X117929115Y-76509518D01*
X117929109Y-76509523D01*
X117809523Y-76629109D01*
X117809518Y-76629115D01*
X117719547Y-76772302D01*
X117719545Y-76772305D01*
X117663685Y-76931943D01*
X117644751Y-77099997D01*
X106698087Y-77099997D01*
X102953698Y-73355608D01*
X102953678Y-73355586D01*
X102862233Y-73264141D01*
X102780490Y-73209523D01*
X102780489Y-73209522D01*
X102759787Y-73195688D01*
X102723622Y-73180708D01*
X102672474Y-73159523D01*
X102645952Y-73148537D01*
X102585529Y-73136518D01*
X102525110Y-73124500D01*
X102525107Y-73124500D01*
X102525106Y-73124500D01*
X101600876Y-73124500D01*
X101534904Y-73105494D01*
X101477692Y-73069545D01*
X101477691Y-73069544D01*
X101477690Y-73069544D01*
X101427709Y-73052055D01*
X101318056Y-73013685D01*
X101150003Y-72994751D01*
X101149997Y-72994751D01*
X100981943Y-73013685D01*
X100822305Y-73069545D01*
X100822302Y-73069547D01*
X100679115Y-73159518D01*
X100679109Y-73159523D01*
X100559523Y-73279109D01*
X100559518Y-73279115D01*
X100469547Y-73422302D01*
X100469545Y-73422305D01*
X100413685Y-73581943D01*
X100394751Y-73749997D01*
X85397065Y-73749997D01*
X85383763Y-73631942D01*
X85353309Y-73544912D01*
X85327905Y-73472309D01*
X85327904Y-73472308D01*
X85327903Y-73472304D01*
X85327901Y-73472301D01*
X85237930Y-73329114D01*
X85237925Y-73329108D01*
X85118339Y-73209522D01*
X85118333Y-73209517D01*
X84975148Y-73119547D01*
X84975137Y-73119542D01*
X84866177Y-73081415D01*
X84819451Y-73052055D01*
X83062124Y-71294727D01*
X83062123Y-71294726D01*
X83062119Y-71294723D01*
X82955577Y-71223535D01*
X82837194Y-71174499D01*
X82837188Y-71174497D01*
X82711521Y-71149500D01*
X82711519Y-71149500D01*
X74758078Y-71149500D01*
X74692106Y-71130494D01*
X74638608Y-71096879D01*
X74638602Y-71096876D01*
X74638504Y-71096842D01*
X74638448Y-71096802D01*
X74632338Y-71093860D01*
X74632853Y-71092788D01*
X74581733Y-71056114D01*
X74555993Y-70991158D01*
X74569457Y-70922598D01*
X74591787Y-70892128D01*
X74697099Y-70786818D01*
X74758422Y-70753334D01*
X74784779Y-70750500D01*
X80354124Y-70750500D01*
X80420095Y-70769505D01*
X80477310Y-70805456D01*
X80598621Y-70847904D01*
X80636943Y-70861314D01*
X80804997Y-70880249D01*
X80805000Y-70880249D01*
X80805003Y-70880249D01*
X80973056Y-70861314D01*
X80973059Y-70861313D01*
X81132690Y-70805456D01*
X81132692Y-70805454D01*
X81132694Y-70805454D01*
X81132697Y-70805452D01*
X81275884Y-70715481D01*
X81275885Y-70715480D01*
X81275890Y-70715477D01*
X81395477Y-70595890D01*
X81485452Y-70452697D01*
X81485454Y-70452694D01*
X81485454Y-70452692D01*
X81485456Y-70452690D01*
X81541313Y-70293059D01*
X81541313Y-70293058D01*
X81541314Y-70293056D01*
X81560249Y-70125002D01*
X81560249Y-70124997D01*
X81541314Y-69956943D01*
X81485454Y-69797305D01*
X81485452Y-69797302D01*
X81395481Y-69654115D01*
X81395476Y-69654109D01*
X81275890Y-69534523D01*
X81275884Y-69534518D01*
X81132697Y-69444547D01*
X81132694Y-69444545D01*
X80973056Y-69388685D01*
X80805003Y-69369751D01*
X80804997Y-69369751D01*
X80636943Y-69388685D01*
X80477307Y-69444545D01*
X80420096Y-69480494D01*
X80354124Y-69499500D01*
X74412716Y-69499500D01*
X74352298Y-69511518D01*
X74309070Y-69520116D01*
X74291873Y-69523537D01*
X74178043Y-69570687D01*
X74178034Y-69570692D01*
X74075595Y-69639140D01*
X74032032Y-69682703D01*
X73988469Y-69726267D01*
X70363472Y-73351264D01*
X70363466Y-73351272D01*
X70295017Y-73453709D01*
X70295012Y-73453718D01*
X70247867Y-73567538D01*
X70247862Y-73567555D01*
X70223827Y-73688388D01*
X70223827Y-73811611D01*
X70247862Y-73932444D01*
X70247867Y-73932461D01*
X70295012Y-74046281D01*
X70295016Y-74046288D01*
X70313222Y-74073535D01*
X70334100Y-74140212D01*
X70315616Y-74207593D01*
X70297802Y-74230106D01*
X70189730Y-74338180D01*
X70128407Y-74371666D01*
X70102048Y-74374500D01*
X69459481Y-74374500D01*
X69392442Y-74354815D01*
X69353942Y-74315596D01*
X69352908Y-74313920D01*
X69345340Y-74301650D01*
X69223350Y-74179660D01*
X69076516Y-74089092D01*
X68912753Y-74034826D01*
X68912751Y-74034825D01*
X68811678Y-74024500D01*
X68138330Y-74024500D01*
X68138312Y-74024501D01*
X68037247Y-74034825D01*
X67873484Y-74089092D01*
X67873481Y-74089093D01*
X67726648Y-74179661D01*
X67604661Y-74301648D01*
X67514093Y-74448481D01*
X67514091Y-74448486D01*
X67501556Y-74486314D01*
X67459826Y-74612247D01*
X67459826Y-74612248D01*
X67459825Y-74612248D01*
X67449500Y-74713315D01*
X67449500Y-75286669D01*
X67449501Y-75286687D01*
X67459825Y-75387752D01*
X67459827Y-75387759D01*
X67467693Y-75411497D01*
X67470094Y-75481326D01*
X67434362Y-75541367D01*
X67371841Y-75572559D01*
X67349987Y-75574500D01*
X65937129Y-75574500D01*
X65937123Y-75574501D01*
X65877516Y-75580908D01*
X65742671Y-75631202D01*
X65742664Y-75631206D01*
X65627455Y-75717452D01*
X65627452Y-75717455D01*
X65541206Y-75832664D01*
X65541202Y-75832671D01*
X65490908Y-75967517D01*
X65485474Y-76018067D01*
X65484501Y-76027123D01*
X65484500Y-76027135D01*
X64870498Y-76027135D01*
X64870498Y-73188945D01*
X64890183Y-73121906D01*
X64942987Y-73076151D01*
X65012145Y-73066207D01*
X65075701Y-73095232D01*
X65082179Y-73101264D01*
X65230960Y-73250045D01*
X65488131Y-73451526D01*
X65488134Y-73451528D01*
X65488137Y-73451530D01*
X65767721Y-73620545D01*
X66065639Y-73754627D01*
X66065652Y-73754631D01*
X66065657Y-73754633D01*
X66377547Y-73851821D01*
X66698896Y-73910710D01*
X67025000Y-73930436D01*
X67351104Y-73910710D01*
X67672453Y-73851821D01*
X67984361Y-73754627D01*
X68282279Y-73620545D01*
X68561863Y-73451530D01*
X68819036Y-73250048D01*
X69050048Y-73019036D01*
X69251530Y-72761863D01*
X69420545Y-72482279D01*
X69554627Y-72184361D01*
X69651821Y-71872453D01*
X69710710Y-71551104D01*
X69730436Y-71225000D01*
X69710710Y-70898896D01*
X69651821Y-70577547D01*
X69637879Y-70532804D01*
X69554633Y-70265657D01*
X69554631Y-70265652D01*
X69554627Y-70265639D01*
X69420545Y-69967721D01*
X69251530Y-69688137D01*
X69251528Y-69688134D01*
X69251526Y-69688131D01*
X69050045Y-69430960D01*
X68856266Y-69237181D01*
X68822781Y-69175858D01*
X68827765Y-69106166D01*
X68869637Y-69050233D01*
X68935101Y-69025816D01*
X68943947Y-69025500D01*
X149806053Y-69025500D01*
X149873092Y-69045185D01*
G37*
%TD.AperFunction*%
%TA.AperFunction,Conductor*%
G36*
X153917697Y-94881388D02*
G01*
X153948525Y-94944089D01*
X153950341Y-94965234D01*
X153950341Y-105731894D01*
X153930656Y-105798933D01*
X153877852Y-105844688D01*
X153808694Y-105854632D01*
X153745138Y-105825607D01*
X153738660Y-105819575D01*
X153519039Y-105599954D01*
X153261868Y-105398473D01*
X153254306Y-105393901D01*
X152982279Y-105229455D01*
X152684361Y-105095373D01*
X152684354Y-105095370D01*
X152684342Y-105095366D01*
X152372452Y-104998178D01*
X152051099Y-104939289D01*
X151751021Y-104921138D01*
X151725000Y-104919564D01*
X151724999Y-104919564D01*
X151571460Y-104928851D01*
X151503355Y-104913250D01*
X151454495Y-104863304D01*
X151440395Y-104794872D01*
X151465529Y-104729680D01*
X151476287Y-104717402D01*
X151495340Y-104698350D01*
X151585908Y-104551516D01*
X151640174Y-104387753D01*
X151650500Y-104286677D01*
X151650499Y-103713324D01*
X151645194Y-103661395D01*
X151640174Y-103612247D01*
X151607427Y-103513424D01*
X151585908Y-103448484D01*
X151495340Y-103301650D01*
X151430870Y-103237180D01*
X151397385Y-103175857D01*
X151402369Y-103106165D01*
X151444241Y-103050232D01*
X151509705Y-103025815D01*
X151518551Y-103025499D01*
X153062871Y-103025499D01*
X153062872Y-103025499D01*
X153122483Y-103019091D01*
X153257331Y-102968796D01*
X153372546Y-102882546D01*
X153458796Y-102767331D01*
X153509091Y-102632483D01*
X153515500Y-102572873D01*
X153515499Y-95127128D01*
X153509091Y-95067517D01*
X153509090Y-95067514D01*
X153504802Y-95056016D01*
X153499817Y-94986325D01*
X153533301Y-94925001D01*
X153594624Y-94891516D01*
X153601580Y-94890209D01*
X153707701Y-94873402D01*
X153788025Y-94847302D01*
X153857864Y-94845308D01*
X153917697Y-94881388D01*
G37*
%TD.AperFunction*%
%TA.AperFunction,Conductor*%
G36*
X152499327Y-83945184D02*
G01*
X152545082Y-83997988D01*
X152555026Y-84067146D01*
X152526001Y-84130702D01*
X152488583Y-84159984D01*
X152373211Y-84218768D01*
X152293256Y-84276859D01*
X152233072Y-84320586D01*
X152233070Y-84320588D01*
X152233069Y-84320588D01*
X152110588Y-84443069D01*
X152110588Y-84443070D01*
X152110586Y-84443072D01*
X152072479Y-84495522D01*
X152008768Y-84583211D01*
X151930128Y-84737552D01*
X151876597Y-84902302D01*
X151863416Y-84985526D01*
X151849500Y-85073389D01*
X151849500Y-85246611D01*
X151876598Y-85417701D01*
X151930127Y-85582445D01*
X152008768Y-85736788D01*
X152110586Y-85876928D01*
X152233072Y-85999414D01*
X152373212Y-86101232D01*
X152527555Y-86179873D01*
X152692299Y-86233402D01*
X152863389Y-86260500D01*
X152863390Y-86260500D01*
X153536610Y-86260500D01*
X153536611Y-86260500D01*
X153707701Y-86233402D01*
X153788025Y-86207302D01*
X153857864Y-86205308D01*
X153917697Y-86241388D01*
X153948525Y-86304089D01*
X153950341Y-86325234D01*
X153950341Y-92634765D01*
X153930656Y-92701804D01*
X153877852Y-92747559D01*
X153808694Y-92757503D01*
X153788024Y-92752696D01*
X153707702Y-92726598D01*
X153707698Y-92726597D01*
X153576271Y-92705781D01*
X153536611Y-92699500D01*
X152863389Y-92699500D01*
X152823728Y-92705781D01*
X152692302Y-92726597D01*
X152527552Y-92780128D01*
X152373211Y-92858768D01*
X152299620Y-92912236D01*
X152233072Y-92960586D01*
X152233070Y-92960588D01*
X152233069Y-92960588D01*
X152110588Y-93083069D01*
X152110588Y-93083070D01*
X152110586Y-93083072D01*
X152087878Y-93114327D01*
X152008768Y-93223211D01*
X151930128Y-93377552D01*
X151876597Y-93542302D01*
X151849500Y-93713389D01*
X151849500Y-93886610D01*
X151868221Y-94004815D01*
X151876598Y-94057701D01*
X151930127Y-94222445D01*
X152008768Y-94376788D01*
X152067665Y-94457853D01*
X152082023Y-94477614D01*
X152105503Y-94543421D01*
X152089678Y-94611474D01*
X152039572Y-94660169D01*
X151981705Y-94674500D01*
X150618295Y-94674500D01*
X150551256Y-94654815D01*
X150505501Y-94602011D01*
X150495557Y-94532853D01*
X150517977Y-94477614D01*
X150591232Y-94376788D01*
X150669873Y-94222445D01*
X150723402Y-94057701D01*
X150750500Y-93886611D01*
X150750500Y-93713389D01*
X150723402Y-93542299D01*
X150669873Y-93377555D01*
X150591232Y-93223212D01*
X150489414Y-93083072D01*
X150366928Y-92960586D01*
X150226788Y-92858768D01*
X150072445Y-92780127D01*
X149907701Y-92726598D01*
X149907699Y-92726597D01*
X149907698Y-92726597D01*
X149776271Y-92705781D01*
X149736611Y-92699500D01*
X149063389Y-92699500D01*
X149023728Y-92705781D01*
X148892302Y-92726597D01*
X148727552Y-92780128D01*
X148573211Y-92858768D01*
X148499620Y-92912236D01*
X148433072Y-92960586D01*
X148433070Y-92960588D01*
X148433069Y-92960588D01*
X148310588Y-93083069D01*
X148310588Y-93083070D01*
X148310586Y-93083072D01*
X148287878Y-93114327D01*
X148208768Y-93223211D01*
X148191485Y-93257132D01*
X148143510Y-93307928D01*
X148075689Y-93324723D01*
X148009554Y-93302186D01*
X147966103Y-93247470D01*
X147957000Y-93200837D01*
X147957000Y-85759162D01*
X147976685Y-85692123D01*
X148029489Y-85646368D01*
X148098647Y-85636424D01*
X148162203Y-85665449D01*
X148191485Y-85702868D01*
X148208766Y-85736786D01*
X148239357Y-85778890D01*
X148310586Y-85876928D01*
X148433072Y-85999414D01*
X148573212Y-86101232D01*
X148727555Y-86179873D01*
X148892299Y-86233402D01*
X149063389Y-86260500D01*
X149063390Y-86260500D01*
X149736610Y-86260500D01*
X149736611Y-86260500D01*
X149907701Y-86233402D01*
X150072445Y-86179873D01*
X150226788Y-86101232D01*
X150366928Y-85999414D01*
X150489414Y-85876928D01*
X150591232Y-85736788D01*
X150669873Y-85582445D01*
X150723402Y-85417701D01*
X150750500Y-85246611D01*
X150750500Y-85073389D01*
X150723402Y-84902299D01*
X150669873Y-84737555D01*
X150591232Y-84583212D01*
X150489414Y-84443072D01*
X150366928Y-84320586D01*
X150226788Y-84218768D01*
X150148426Y-84178841D01*
X150111417Y-84159984D01*
X150060621Y-84112010D01*
X150043826Y-84044189D01*
X150066363Y-83978054D01*
X150121078Y-83934602D01*
X150167712Y-83925499D01*
X152432288Y-83925499D01*
X152499327Y-83945184D01*
G37*
%TD.AperFunction*%
%TD*%
M02*
