M48
; DRILL file {KiCad 8.0.2} date 2024-07-08T12:14:34+0800
; FORMAT={-:-/ absolute / inch / decimal}
; #@! TF.CreationDate,2024-07-08T12:14:34+08:00
; #@! TF.GenerationSoftware,Kicad,Pcbnew,8.0.2
; #@! TF.FileFunction,Plated,1,2,PTH
FMAT,2
INCH
; #@! TA.AperFunction,Plated,PTH,ViaDrill
T1C0.0098
; #@! TA.AperFunction,Plated,PTH,ViaDrill
T2C0.0118
; #@! TA.AperFunction,Plated,PTH,ViaDrill
T3C0.0157
; #@! TA.AperFunction,Plated,PTH,ViaDrill
T4C0.0197
; #@! TA.AperFunction,Plated,PTH,ComponentDrill
T5C0.0197
; #@! TA.AperFunction,Plated,PTH,ViaDrill
T6C0.0236
; #@! TA.AperFunction,Plated,PTH,ViaDrill
T7C0.0315
; #@! TA.AperFunction,Plated,PTH,ComponentDrill
T8C0.0866
%
G90
G05
T1
X2.627Y-2.9528
X2.6565Y-3.4232
X2.8346Y-2.8903
X3.1813Y-2.7608
X3.1984Y-2.9606
X3.2097Y-3.0669
X3.2711Y-3.1244
X3.3317Y-3.0231
X3.3326Y-2.9055
X3.3396Y-3.1615
X3.397Y-3.5014
X3.658Y-4.1457
X3.9029Y-3.7264
X3.9124Y-3.7005
X3.9823Y-2.9035
X4.1034Y-3.1969
X4.4882Y-3.0748
X4.6614Y-3.0354
X4.874Y-3.0157
X5.5669Y-3.5748
X5.7372Y-3.1471
T2
X2.7026Y-3.8917
X2.7362Y-4.0945
X2.9252Y-2.8268
X3.122Y-4.0669
X3.3465Y-2.8346
X4.0079Y-3.9449
X4.0945Y-4.0661
X5.1693Y-3.6811
X5.1732Y-3.7047
X5.1919Y-3.6811
X5.2023Y-3.7102
X5.2183Y-3.6941
X5.7087Y-4.0866
X6.0502Y-3.185
T3
X3.3268Y-2.9451
X3.5955Y-3.3209
X3.8711Y-3.0984
X3.9931Y-3.0236
X4.5289Y-3.2402
T4
X2.5807Y-3.8681
X3.1299Y-4.1929
X3.1299Y-4.2717
X3.3268Y-2.7559
X3.8268Y-4.1929
X3.8386Y-4.2874
X3.8976Y-3.9961
X3.937Y-3.8465
X3.9626Y-4.0091
X4.0236Y-2.7598
X4.0354Y-2.8346
X4.1732Y-4.0118
X4.185Y-3.8504
X4.7638Y-4.1575
X4.7785Y-4.2362
X4.9016Y-2.7559
X4.9016Y-2.8346
X5.0787Y-3.6417
X5.1378Y-3.5236
X5.1772Y-3.8858
X5.4134Y-3.6811
X5.4134Y-3.7402
X5.4265Y-3.6351
X5.4528Y-3.563
X5.5118Y-3.7992
X5.519Y-4.2162
X5.5315Y-4.2913
X5.6693Y-2.7953
X5.6693Y-2.874
X5.7756Y-3.0719
X5.8268Y-4.1339
X5.9137Y-4.142
T6
X2.6299Y-3.2126
X2.6299Y-3.2598
X2.685Y-3.1969
X2.685Y-3.252
X2.7323Y-3.1575
X2.7323Y-3.2047
X2.7323Y-3.252
X2.7795Y-3.1575
X2.7795Y-3.2047
X2.7795Y-3.252
X2.9094Y-3.7598
X2.9094Y-3.8071
X2.9449Y-3.8425
X2.9488Y-3.7323
X2.9606Y-3.7835
X2.9921Y-3.8346
X2.9961Y-3.7441
X3.0157Y-3.7913
X3.1378Y-2.9291
X3.3031Y-4.1378
X3.4334Y-3.4209
X3.4735Y-3.311
X3.7176Y-3.063
X5.6535Y-3.3228
X5.6575Y-3.7953
X5.8369Y-3.6457
T7
X3.9716Y-3.3922
X4.185Y-3.626
X5.4833Y-3.4685
X5.5502Y-3.7544
T8
X2.6388Y-2.8041
X2.6388Y-4.2372
X5.9734Y-2.8041
X5.9734Y-4.2372
T5
G00X5.8957Y-3.3528
M15
G01X5.8681Y-3.3528
M16
G05
G00X5.8957Y-3.6929
M15
G01X5.8681Y-3.6929
M16
G05
G00X6.0453Y-3.3528
M15
G01X6.0177Y-3.3528
M16
G05
G00X6.0453Y-3.6929
M15
G01X6.0177Y-3.6929
M16
G05
M30
