%TF.GenerationSoftware,KiCad,Pcbnew,8.0.2*%
%TF.CreationDate,2024-07-08T12:14:41+08:00*%
%TF.ProjectId,bat_rf,6261745f-7266-42e6-9b69-6361645f7063,rev?*%
%TF.SameCoordinates,Original*%
%TF.FileFunction,Legend,Top*%
%TF.FilePolarity,Positive*%
%FSLAX46Y46*%
G04 Gerber Fmt 4.6, Leading zero omitted, Abs format (unit mm)*
G04 Created by KiCad (PCBNEW 8.0.2) date 2024-07-08 12:14:41*
%MOMM*%
%LPD*%
G01*
G04 APERTURE LIST*
%ADD10C,0.200000*%
%ADD11C,0.150000*%
%ADD12C,0.254000*%
%ADD13C,1.000000*%
%ADD14C,0.120000*%
G04 APERTURE END LIST*
D10*
G36*
X151401295Y-90245221D02*
G01*
X150955978Y-90097521D01*
X151400331Y-89948665D01*
X151401295Y-90245221D01*
G37*
G36*
X151095315Y-88747792D02*
G01*
X151130696Y-88781844D01*
X151171397Y-88860659D01*
X151171998Y-89009698D01*
X151171337Y-89013447D01*
X151172026Y-89016557D01*
X151172757Y-89198048D01*
X150742345Y-89198726D01*
X150741006Y-88866338D01*
X150779255Y-88787277D01*
X150813308Y-88751895D01*
X150892370Y-88711067D01*
X151016816Y-88709815D01*
X151095315Y-88747792D01*
G37*
G36*
X152076075Y-93073183D02*
G01*
X150409409Y-93073183D01*
X150409409Y-92325564D01*
X150542742Y-92325564D01*
X150544388Y-92440235D01*
X150543527Y-92452357D01*
X150544632Y-92457217D01*
X150544663Y-92459359D01*
X150545674Y-92461801D01*
X150547874Y-92471473D01*
X150601806Y-92628243D01*
X150601807Y-92630789D01*
X150606976Y-92643269D01*
X150613008Y-92660802D01*
X150615362Y-92663517D01*
X150616738Y-92666837D01*
X150629175Y-92681990D01*
X150744315Y-92794712D01*
X150752859Y-92804564D01*
X150757113Y-92807241D01*
X150758614Y-92808711D01*
X150761051Y-92809720D01*
X150769450Y-92815007D01*
X150878523Y-92867776D01*
X150885743Y-92873126D01*
X150900413Y-92878367D01*
X150902044Y-92879156D01*
X150902764Y-92879207D01*
X150904203Y-92879721D01*
X151127403Y-92933738D01*
X151137519Y-92937929D01*
X151149654Y-92939123D01*
X151152167Y-92939732D01*
X151153625Y-92939514D01*
X151157028Y-92939850D01*
X151322896Y-92938181D01*
X151333318Y-92939732D01*
X151345330Y-92937955D01*
X151347966Y-92937929D01*
X151349329Y-92937364D01*
X151352711Y-92936864D01*
X151573685Y-92879849D01*
X151583441Y-92879156D01*
X151598071Y-92873557D01*
X151599743Y-92873126D01*
X151600324Y-92872695D01*
X151601749Y-92872150D01*
X151715364Y-92813477D01*
X151726871Y-92808712D01*
X151730735Y-92805540D01*
X151732626Y-92804564D01*
X151734357Y-92802567D01*
X151742024Y-92796275D01*
X151844729Y-92691369D01*
X151846912Y-92690278D01*
X151855563Y-92680302D01*
X151868747Y-92666837D01*
X151870122Y-92663517D01*
X151872477Y-92660802D01*
X151880468Y-92642901D01*
X151935735Y-92471635D01*
X151940821Y-92459359D01*
X151941314Y-92454348D01*
X151941957Y-92452357D01*
X151941769Y-92449723D01*
X151942742Y-92439850D01*
X151941095Y-92325178D01*
X151941957Y-92313057D01*
X151940851Y-92308195D01*
X151940821Y-92306055D01*
X151939810Y-92303614D01*
X151937611Y-92293942D01*
X151883678Y-92137171D01*
X151883678Y-92134627D01*
X151878510Y-92122149D01*
X151872477Y-92104613D01*
X151870121Y-92101897D01*
X151868747Y-92098578D01*
X151856310Y-92083425D01*
X151784014Y-92013846D01*
X151747966Y-91998914D01*
X151708948Y-91998914D01*
X151672900Y-92013846D01*
X151645310Y-92041436D01*
X151630378Y-92077484D01*
X151630378Y-92116502D01*
X151645310Y-92152550D01*
X151657746Y-92167704D01*
X151697773Y-92206227D01*
X151742912Y-92337436D01*
X151744096Y-92419931D01*
X151700387Y-92555381D01*
X151615971Y-92641606D01*
X151528426Y-92686814D01*
X151322650Y-92739908D01*
X151175310Y-92741390D01*
X150969903Y-92691679D01*
X150876183Y-92646337D01*
X150787989Y-92559994D01*
X150742571Y-92427976D01*
X150741387Y-92345482D01*
X150785221Y-92209650D01*
X150840175Y-92152551D01*
X150855106Y-92116502D01*
X150855106Y-92077484D01*
X150840175Y-92041436D01*
X150812585Y-92013846D01*
X150776537Y-91998915D01*
X150737519Y-91998915D01*
X150701470Y-92013846D01*
X150686317Y-92026283D01*
X150639971Y-92074438D01*
X150638574Y-92075137D01*
X150631959Y-92082763D01*
X150616738Y-92098579D01*
X150615363Y-92101897D01*
X150613008Y-92104613D01*
X150605017Y-92122513D01*
X150549747Y-92293780D01*
X150544663Y-92306055D01*
X150544169Y-92311064D01*
X150543527Y-92313056D01*
X150543714Y-92315690D01*
X150542742Y-92325564D01*
X150409409Y-92325564D01*
X150409409Y-90877484D01*
X150544663Y-90877484D01*
X150544663Y-90916502D01*
X150559595Y-90952550D01*
X150587185Y-90980140D01*
X150623233Y-90995072D01*
X150642742Y-90996993D01*
X151114441Y-90996249D01*
X151115769Y-91483852D01*
X150623233Y-91484628D01*
X150587185Y-91499560D01*
X150559595Y-91527150D01*
X150544663Y-91563198D01*
X150544663Y-91602216D01*
X150559595Y-91638264D01*
X150587185Y-91665854D01*
X150623233Y-91680786D01*
X150642742Y-91682707D01*
X151862251Y-91680786D01*
X151898299Y-91665854D01*
X151925889Y-91638264D01*
X151940821Y-91602216D01*
X151940821Y-91563198D01*
X151925889Y-91527150D01*
X151898299Y-91499560D01*
X151862251Y-91484628D01*
X151842742Y-91482707D01*
X151313900Y-91483540D01*
X151312572Y-90995937D01*
X151862251Y-90995072D01*
X151898299Y-90980140D01*
X151925889Y-90952550D01*
X151940821Y-90916502D01*
X151940821Y-90877484D01*
X151925889Y-90841436D01*
X151898299Y-90813846D01*
X151862251Y-90798914D01*
X151842742Y-90796993D01*
X150623233Y-90798914D01*
X150587185Y-90813846D01*
X150559595Y-90841436D01*
X150544663Y-90877484D01*
X150409409Y-90877484D01*
X150409409Y-90084486D01*
X150543527Y-90084486D01*
X150544415Y-90096993D01*
X150543527Y-90109500D01*
X150545786Y-90116278D01*
X150546293Y-90123406D01*
X150551899Y-90134618D01*
X150555865Y-90146516D01*
X150560548Y-90151915D01*
X150563743Y-90158305D01*
X150573214Y-90166520D01*
X150581430Y-90175992D01*
X150587819Y-90179186D01*
X150593219Y-90183870D01*
X150611119Y-90191861D01*
X151472910Y-90477693D01*
X151480376Y-90480786D01*
X151482234Y-90480786D01*
X151830234Y-90596208D01*
X151869155Y-90593442D01*
X151904053Y-90575992D01*
X151929619Y-90546516D01*
X151941957Y-90509500D01*
X151939191Y-90470580D01*
X151921741Y-90435681D01*
X151892265Y-90410116D01*
X151874365Y-90402125D01*
X151599651Y-90311010D01*
X151598258Y-89882360D01*
X151892265Y-89783870D01*
X151921741Y-89758305D01*
X151939191Y-89723406D01*
X151941957Y-89684486D01*
X151929619Y-89647470D01*
X151904053Y-89617994D01*
X151869155Y-89600544D01*
X151830234Y-89597778D01*
X151811119Y-89602125D01*
X150623263Y-90000051D01*
X150616329Y-90000544D01*
X150605237Y-90006089D01*
X150593219Y-90010116D01*
X150587819Y-90014799D01*
X150581430Y-90017994D01*
X150573214Y-90027465D01*
X150563743Y-90035681D01*
X150560548Y-90042070D01*
X150555865Y-90047470D01*
X150551899Y-90059367D01*
X150546293Y-90070580D01*
X150545786Y-90077707D01*
X150543527Y-90084486D01*
X150409409Y-90084486D01*
X150409409Y-88839850D01*
X150542742Y-88839850D01*
X150544663Y-89316502D01*
X150559595Y-89352550D01*
X150587185Y-89380140D01*
X150623233Y-89395072D01*
X150642742Y-89396993D01*
X151862251Y-89395072D01*
X151898299Y-89380140D01*
X151925889Y-89352550D01*
X151940821Y-89316502D01*
X151940821Y-89277484D01*
X151925889Y-89241436D01*
X151898299Y-89213846D01*
X151862251Y-89198914D01*
X151842742Y-89196993D01*
X151370913Y-89197736D01*
X151370374Y-89063835D01*
X151914969Y-88680441D01*
X151935938Y-88647536D01*
X151942719Y-88609111D01*
X151934279Y-88571017D01*
X151911904Y-88539052D01*
X151878999Y-88518083D01*
X151840574Y-88511302D01*
X151802480Y-88519742D01*
X151785396Y-88529356D01*
X151369400Y-88822216D01*
X151369393Y-88820341D01*
X151368017Y-88817020D01*
X151367763Y-88813437D01*
X151360757Y-88795129D01*
X151302080Y-88681506D01*
X151297318Y-88670007D01*
X151294147Y-88666144D01*
X151293171Y-88664253D01*
X151291173Y-88662520D01*
X151284881Y-88654854D01*
X151225639Y-88597839D01*
X151218340Y-88589422D01*
X151214159Y-88586790D01*
X151212585Y-88585275D01*
X151210148Y-88584265D01*
X151201750Y-88578979D01*
X151099844Y-88529677D01*
X151098299Y-88528132D01*
X151086832Y-88523382D01*
X151069155Y-88514830D01*
X151065571Y-88514575D01*
X151062251Y-88513200D01*
X151042742Y-88511279D01*
X150886191Y-88512854D01*
X150883822Y-88512064D01*
X150870481Y-88513012D01*
X150851805Y-88513200D01*
X150848484Y-88514575D01*
X150844901Y-88514830D01*
X150826593Y-88521836D01*
X150712970Y-88580511D01*
X150701470Y-88585275D01*
X150697607Y-88588445D01*
X150695716Y-88589422D01*
X150693983Y-88591419D01*
X150686317Y-88597712D01*
X150629303Y-88656951D01*
X150620885Y-88664253D01*
X150618254Y-88668432D01*
X150616738Y-88670008D01*
X150615727Y-88672446D01*
X150610443Y-88680843D01*
X150561141Y-88782746D01*
X150559595Y-88784293D01*
X150554843Y-88795762D01*
X150546293Y-88813437D01*
X150546038Y-88817020D01*
X150544663Y-88820341D01*
X150542742Y-88839850D01*
X150409409Y-88839850D01*
X150409409Y-87582708D01*
X150542742Y-87582708D01*
X150544460Y-87753509D01*
X150543527Y-87766643D01*
X150544641Y-87771545D01*
X150544663Y-87773645D01*
X150545674Y-87776087D01*
X150547874Y-87785759D01*
X150601806Y-87942529D01*
X150601807Y-87945075D01*
X150606976Y-87957555D01*
X150613008Y-87975088D01*
X150615362Y-87977803D01*
X150616738Y-87981123D01*
X150629175Y-87996276D01*
X150744315Y-88108998D01*
X150752859Y-88118850D01*
X150757113Y-88121527D01*
X150758614Y-88122997D01*
X150761051Y-88124006D01*
X150769450Y-88129293D01*
X150878523Y-88182062D01*
X150885743Y-88187412D01*
X150900413Y-88192653D01*
X150902044Y-88193442D01*
X150902764Y-88193493D01*
X150904203Y-88194007D01*
X151127403Y-88248024D01*
X151137519Y-88252215D01*
X151149654Y-88253409D01*
X151152167Y-88254018D01*
X151153625Y-88253800D01*
X151157028Y-88254136D01*
X151322896Y-88252467D01*
X151333318Y-88254018D01*
X151345330Y-88252241D01*
X151347966Y-88252215D01*
X151349329Y-88251650D01*
X151352711Y-88251150D01*
X151573685Y-88194135D01*
X151583441Y-88193442D01*
X151598071Y-88187843D01*
X151599743Y-88187412D01*
X151600324Y-88186981D01*
X151601749Y-88186436D01*
X151715364Y-88127763D01*
X151726871Y-88122998D01*
X151730735Y-88119826D01*
X151732626Y-88118850D01*
X151734357Y-88116853D01*
X151742024Y-88110561D01*
X151844729Y-88005655D01*
X151846912Y-88004564D01*
X151855563Y-87994588D01*
X151868747Y-87981123D01*
X151870122Y-87977803D01*
X151872477Y-87975088D01*
X151880468Y-87957187D01*
X151935735Y-87785921D01*
X151940821Y-87773645D01*
X151941314Y-87768634D01*
X151941957Y-87766643D01*
X151941769Y-87764009D01*
X151942742Y-87754136D01*
X151941095Y-87639464D01*
X151941957Y-87627343D01*
X151940851Y-87622481D01*
X151940821Y-87620341D01*
X151939810Y-87617900D01*
X151937611Y-87608228D01*
X151883678Y-87451457D01*
X151883678Y-87448913D01*
X151878510Y-87436435D01*
X151872477Y-87418899D01*
X151870121Y-87416183D01*
X151868747Y-87412864D01*
X151856310Y-87397711D01*
X151784014Y-87328132D01*
X151747966Y-87313200D01*
X151728457Y-87311279D01*
X151308948Y-87313200D01*
X151272900Y-87328132D01*
X151245310Y-87355722D01*
X151230378Y-87391770D01*
X151228457Y-87411279D01*
X151230378Y-87659359D01*
X151245310Y-87695407D01*
X151272900Y-87722997D01*
X151308948Y-87737929D01*
X151347966Y-87737929D01*
X151384014Y-87722997D01*
X151411604Y-87695407D01*
X151426536Y-87659359D01*
X151428457Y-87639850D01*
X151427457Y-87510825D01*
X151686475Y-87509639D01*
X151697773Y-87520513D01*
X151742912Y-87651722D01*
X151744096Y-87734217D01*
X151700387Y-87869667D01*
X151615971Y-87955892D01*
X151528426Y-88001100D01*
X151322650Y-88054194D01*
X151175310Y-88055676D01*
X150969903Y-88005965D01*
X150876183Y-87960623D01*
X150787989Y-87874280D01*
X150742624Y-87742415D01*
X150741278Y-87608633D01*
X150796334Y-87494835D01*
X150799100Y-87455914D01*
X150786761Y-87418899D01*
X150761197Y-87389422D01*
X150726298Y-87371972D01*
X150687378Y-87369207D01*
X150650362Y-87381546D01*
X150620885Y-87407110D01*
X150610442Y-87423700D01*
X150561140Y-87525605D01*
X150559595Y-87527151D01*
X150554845Y-87538617D01*
X150546293Y-87556295D01*
X150546038Y-87559878D01*
X150544663Y-87563199D01*
X150542742Y-87582708D01*
X150409409Y-87582708D01*
X150409409Y-86325565D01*
X150542742Y-86325565D01*
X150544663Y-86916502D01*
X150559595Y-86952550D01*
X150587185Y-86980140D01*
X150623233Y-86995072D01*
X150642742Y-86996993D01*
X151862251Y-86995072D01*
X151898299Y-86980140D01*
X151925889Y-86952550D01*
X151940821Y-86916502D01*
X151942742Y-86896993D01*
X151940821Y-86306056D01*
X151925889Y-86270008D01*
X151898299Y-86242418D01*
X151862251Y-86227486D01*
X151823233Y-86227486D01*
X151787185Y-86242418D01*
X151759595Y-86270008D01*
X151744663Y-86306056D01*
X151742742Y-86325565D01*
X151744275Y-86797148D01*
X151313716Y-86797826D01*
X151312250Y-86477484D01*
X151297318Y-86441436D01*
X151269728Y-86413846D01*
X151233680Y-86398914D01*
X151194662Y-86398914D01*
X151158614Y-86413846D01*
X151131024Y-86441436D01*
X151116092Y-86477484D01*
X151114171Y-86496993D01*
X151115549Y-86798138D01*
X150742422Y-86798726D01*
X150740821Y-86306056D01*
X150725889Y-86270008D01*
X150698299Y-86242418D01*
X150662251Y-86227486D01*
X150623233Y-86227486D01*
X150587185Y-86242418D01*
X150559595Y-86270008D01*
X150544663Y-86306056D01*
X150542742Y-86325565D01*
X150409409Y-86325565D01*
X150409409Y-86094153D01*
X152076075Y-86094153D01*
X152076075Y-93073183D01*
G37*
D11*
G36*
X69947687Y-89645810D02*
G01*
X70019528Y-89716278D01*
X70055289Y-89785723D01*
X70056379Y-89940892D01*
X70023228Y-90009215D01*
X69950847Y-90083007D01*
X69792675Y-90123700D01*
X69477921Y-90125003D01*
X69312673Y-90084889D01*
X69240833Y-90014422D01*
X69205070Y-89944976D01*
X69203980Y-89789808D01*
X69237132Y-89721484D01*
X69309514Y-89647692D01*
X69467685Y-89606999D01*
X69782439Y-89605696D01*
X69947687Y-89645810D01*
G37*
G36*
X69947687Y-86502953D02*
G01*
X70019528Y-86573421D01*
X70055289Y-86642866D01*
X70056379Y-86798035D01*
X70023228Y-86866358D01*
X69950847Y-86940150D01*
X69792675Y-86980843D01*
X69477921Y-86982146D01*
X69312673Y-86942032D01*
X69240833Y-86871565D01*
X69205070Y-86802119D01*
X69203980Y-86646951D01*
X69237132Y-86578627D01*
X69309514Y-86504835D01*
X69467685Y-86464142D01*
X69782439Y-86462839D01*
X69947687Y-86502953D01*
G37*
G36*
X70363911Y-92145258D02*
G01*
X68705974Y-92145258D01*
X68705974Y-91469766D01*
X69056621Y-91469766D01*
X69056621Y-91499030D01*
X69067820Y-91526066D01*
X69088512Y-91546758D01*
X69115548Y-91557957D01*
X69130180Y-91559398D01*
X69579297Y-91558760D01*
X69580431Y-91832363D01*
X69591630Y-91859399D01*
X69612322Y-91880091D01*
X69639358Y-91891290D01*
X69668622Y-91891290D01*
X69695658Y-91880091D01*
X69716350Y-91859399D01*
X69727549Y-91832363D01*
X69728990Y-91817731D01*
X69727916Y-91558549D01*
X70055396Y-91558083D01*
X70056621Y-91975220D01*
X70067820Y-92002256D01*
X70088512Y-92022948D01*
X70115548Y-92034147D01*
X70144812Y-92034147D01*
X70171848Y-92022948D01*
X70192540Y-92002256D01*
X70203739Y-91975220D01*
X70205180Y-91960588D01*
X70203739Y-91469766D01*
X70192540Y-91442730D01*
X70171848Y-91422038D01*
X70144812Y-91410839D01*
X70130180Y-91409398D01*
X69115548Y-91410839D01*
X69088512Y-91422038D01*
X69067820Y-91442730D01*
X69056621Y-91469766D01*
X68705974Y-91469766D01*
X68705974Y-90612623D01*
X69056621Y-90612623D01*
X69056621Y-90641887D01*
X69067820Y-90668923D01*
X69088512Y-90689615D01*
X69115548Y-90700814D01*
X69130180Y-90702255D01*
X69579297Y-90701617D01*
X69580431Y-90975220D01*
X69591630Y-91002256D01*
X69612322Y-91022948D01*
X69639358Y-91034147D01*
X69668622Y-91034147D01*
X69695658Y-91022948D01*
X69716350Y-91002256D01*
X69727549Y-90975220D01*
X69728990Y-90960588D01*
X69727916Y-90701406D01*
X70055396Y-90700940D01*
X70056621Y-91118077D01*
X70067820Y-91145113D01*
X70088512Y-91165805D01*
X70115548Y-91177004D01*
X70144812Y-91177004D01*
X70171848Y-91165805D01*
X70192540Y-91145113D01*
X70203739Y-91118077D01*
X70205180Y-91103445D01*
X70203739Y-90612623D01*
X70192540Y-90585587D01*
X70171848Y-90564895D01*
X70144812Y-90553696D01*
X70130180Y-90552255D01*
X69115548Y-90553696D01*
X69088512Y-90564895D01*
X69067820Y-90585587D01*
X69056621Y-90612623D01*
X68705974Y-90612623D01*
X68705974Y-89770112D01*
X69055180Y-89770112D01*
X69056438Y-89949200D01*
X69055769Y-89951208D01*
X69056527Y-89961880D01*
X69056621Y-89975220D01*
X69057651Y-89977708D01*
X69057843Y-89980398D01*
X69063098Y-89994130D01*
X69111790Y-90088682D01*
X69115440Y-90097494D01*
X69117823Y-90100398D01*
X69118551Y-90101811D01*
X69120049Y-90103110D01*
X69124767Y-90108859D01*
X69215090Y-90197456D01*
X69217490Y-90201456D01*
X69224350Y-90206539D01*
X69231370Y-90213425D01*
X69236523Y-90215559D01*
X69241002Y-90218878D01*
X69254848Y-90223825D01*
X69441213Y-90269065D01*
X69448882Y-90272242D01*
X69457996Y-90273139D01*
X69459868Y-90273594D01*
X69460960Y-90273431D01*
X69463514Y-90273683D01*
X69791950Y-90272322D01*
X69800493Y-90273594D01*
X69809585Y-90272249D01*
X69811479Y-90272242D01*
X69812500Y-90271819D01*
X69815037Y-90271444D01*
X69997028Y-90224623D01*
X70001954Y-90224623D01*
X70010028Y-90221278D01*
X70019359Y-90218878D01*
X70023840Y-90215557D01*
X70028991Y-90213424D01*
X70040356Y-90204097D01*
X70134293Y-90108329D01*
X70141811Y-90101810D01*
X70143821Y-90098616D01*
X70144922Y-90097494D01*
X70145680Y-90095661D01*
X70149643Y-90089367D01*
X70191318Y-90003477D01*
X70192540Y-90002256D01*
X70196209Y-89993396D01*
X70202517Y-89980398D01*
X70202708Y-89977708D01*
X70203739Y-89975220D01*
X70205180Y-89960588D01*
X70203921Y-89781499D01*
X70204591Y-89779492D01*
X70203832Y-89768819D01*
X70203739Y-89755480D01*
X70202708Y-89752991D01*
X70202517Y-89750302D01*
X70197262Y-89736571D01*
X70148573Y-89642021D01*
X70144922Y-89633206D01*
X70142537Y-89630300D01*
X70141811Y-89628890D01*
X70140314Y-89627591D01*
X70135594Y-89621841D01*
X70045272Y-89533245D01*
X70042871Y-89529244D01*
X70036007Y-89524157D01*
X70028991Y-89517276D01*
X70023840Y-89515142D01*
X70019359Y-89511822D01*
X70005513Y-89506875D01*
X69819147Y-89461634D01*
X69811479Y-89458458D01*
X69802364Y-89457560D01*
X69800493Y-89457106D01*
X69799400Y-89457268D01*
X69796847Y-89457017D01*
X69468410Y-89458377D01*
X69459868Y-89457106D01*
X69450775Y-89458450D01*
X69448882Y-89458458D01*
X69447860Y-89458880D01*
X69445324Y-89459256D01*
X69263333Y-89506077D01*
X69258407Y-89506077D01*
X69250330Y-89509422D01*
X69241002Y-89511822D01*
X69236523Y-89515140D01*
X69231370Y-89517275D01*
X69220005Y-89526603D01*
X69126074Y-89622364D01*
X69118551Y-89628889D01*
X69116538Y-89632086D01*
X69115440Y-89633206D01*
X69114683Y-89635033D01*
X69110718Y-89641332D01*
X69069041Y-89727222D01*
X69067820Y-89728444D01*
X69064149Y-89737303D01*
X69057843Y-89750302D01*
X69057651Y-89752991D01*
X69056621Y-89755480D01*
X69055180Y-89770112D01*
X68705974Y-89770112D01*
X68705974Y-88389239D01*
X68817085Y-88389239D01*
X68822824Y-88417933D01*
X68839107Y-88442248D01*
X68850483Y-88451564D01*
X70149171Y-89315623D01*
X70177879Y-89321302D01*
X70206573Y-89315563D01*
X70230888Y-89299280D01*
X70247121Y-89274930D01*
X70252800Y-89246223D01*
X70247061Y-89217528D01*
X70230777Y-89193213D01*
X70219402Y-89183898D01*
X68920714Y-88319839D01*
X68892006Y-88314160D01*
X68863312Y-88319899D01*
X68838997Y-88336182D01*
X68822764Y-88360531D01*
X68817085Y-88389239D01*
X68705974Y-88389239D01*
X68705974Y-88050587D01*
X69055363Y-88050587D01*
X69056621Y-88060483D01*
X69056621Y-88070458D01*
X69058450Y-88074873D01*
X69059053Y-88079617D01*
X69064003Y-88088281D01*
X69067820Y-88097494D01*
X69071198Y-88100872D01*
X69073572Y-88105026D01*
X69081461Y-88111135D01*
X69088512Y-88118186D01*
X69092928Y-88120015D01*
X69096709Y-88122943D01*
X69106332Y-88125567D01*
X69115548Y-88129385D01*
X69123030Y-88130121D01*
X69124941Y-88130643D01*
X69126416Y-88130455D01*
X69130180Y-88130826D01*
X70144812Y-88129385D01*
X70171848Y-88118186D01*
X70192540Y-88097494D01*
X70203739Y-88070458D01*
X70203739Y-88041194D01*
X70192540Y-88014158D01*
X70171848Y-87993466D01*
X70144812Y-87982267D01*
X70130180Y-87980826D01*
X69410110Y-87981848D01*
X70162809Y-87550501D01*
X70171848Y-87546758D01*
X70175210Y-87543395D01*
X70179380Y-87541006D01*
X70185488Y-87533117D01*
X70192540Y-87526066D01*
X70194370Y-87521647D01*
X70197297Y-87517868D01*
X70199921Y-87508246D01*
X70203739Y-87499030D01*
X70203739Y-87494249D01*
X70204997Y-87489637D01*
X70203739Y-87479740D01*
X70203739Y-87469766D01*
X70201909Y-87465350D01*
X70201307Y-87460607D01*
X70196356Y-87451942D01*
X70192540Y-87442730D01*
X70189161Y-87439351D01*
X70186788Y-87435198D01*
X70178898Y-87429088D01*
X70171848Y-87422038D01*
X70167431Y-87420208D01*
X70163651Y-87417281D01*
X70154027Y-87414656D01*
X70144812Y-87410839D01*
X70137329Y-87410102D01*
X70135419Y-87409581D01*
X70133943Y-87409768D01*
X70130180Y-87409398D01*
X69115548Y-87410839D01*
X69088512Y-87422038D01*
X69067820Y-87442730D01*
X69056621Y-87469766D01*
X69056621Y-87499030D01*
X69067820Y-87526066D01*
X69088512Y-87546758D01*
X69115548Y-87557957D01*
X69130180Y-87559398D01*
X69850249Y-87558375D01*
X69097550Y-87989722D01*
X69088512Y-87993466D01*
X69085149Y-87996828D01*
X69080980Y-87999218D01*
X69074870Y-88007107D01*
X69067820Y-88014158D01*
X69065990Y-88018574D01*
X69063063Y-88022355D01*
X69060438Y-88031978D01*
X69056621Y-88041194D01*
X69056621Y-88045974D01*
X69055363Y-88050587D01*
X68705974Y-88050587D01*
X68705974Y-86627255D01*
X69055180Y-86627255D01*
X69056438Y-86806343D01*
X69055769Y-86808351D01*
X69056527Y-86819023D01*
X69056621Y-86832363D01*
X69057651Y-86834851D01*
X69057843Y-86837541D01*
X69063098Y-86851273D01*
X69111790Y-86945825D01*
X69115440Y-86954637D01*
X69117823Y-86957541D01*
X69118551Y-86958954D01*
X69120049Y-86960253D01*
X69124767Y-86966002D01*
X69215090Y-87054599D01*
X69217490Y-87058599D01*
X69224350Y-87063682D01*
X69231370Y-87070568D01*
X69236523Y-87072702D01*
X69241002Y-87076021D01*
X69254848Y-87080968D01*
X69441213Y-87126208D01*
X69448882Y-87129385D01*
X69457996Y-87130282D01*
X69459868Y-87130737D01*
X69460960Y-87130574D01*
X69463514Y-87130826D01*
X69791950Y-87129465D01*
X69800493Y-87130737D01*
X69809585Y-87129392D01*
X69811479Y-87129385D01*
X69812500Y-87128962D01*
X69815037Y-87128587D01*
X69997028Y-87081766D01*
X70001954Y-87081766D01*
X70010028Y-87078421D01*
X70019359Y-87076021D01*
X70023840Y-87072700D01*
X70028991Y-87070567D01*
X70040356Y-87061240D01*
X70134293Y-86965472D01*
X70141811Y-86958953D01*
X70143821Y-86955759D01*
X70144922Y-86954637D01*
X70145680Y-86952804D01*
X70149643Y-86946510D01*
X70191318Y-86860620D01*
X70192540Y-86859399D01*
X70196209Y-86850539D01*
X70202517Y-86837541D01*
X70202708Y-86834851D01*
X70203739Y-86832363D01*
X70205180Y-86817731D01*
X70203921Y-86638642D01*
X70204591Y-86636635D01*
X70203832Y-86625962D01*
X70203739Y-86612623D01*
X70202708Y-86610134D01*
X70202517Y-86607445D01*
X70197262Y-86593714D01*
X70148573Y-86499164D01*
X70144922Y-86490349D01*
X70142537Y-86487443D01*
X70141811Y-86486033D01*
X70140314Y-86484734D01*
X70135594Y-86478984D01*
X70045272Y-86390388D01*
X70042871Y-86386387D01*
X70036007Y-86381300D01*
X70028991Y-86374419D01*
X70023840Y-86372285D01*
X70019359Y-86368965D01*
X70005513Y-86364018D01*
X69819147Y-86318777D01*
X69811479Y-86315601D01*
X69802364Y-86314703D01*
X69800493Y-86314249D01*
X69799400Y-86314411D01*
X69796847Y-86314160D01*
X69468410Y-86315520D01*
X69459868Y-86314249D01*
X69450775Y-86315593D01*
X69448882Y-86315601D01*
X69447860Y-86316023D01*
X69445324Y-86316399D01*
X69263333Y-86363220D01*
X69258407Y-86363220D01*
X69250330Y-86366565D01*
X69241002Y-86368965D01*
X69236523Y-86372283D01*
X69231370Y-86374418D01*
X69220005Y-86383746D01*
X69126074Y-86479507D01*
X69118551Y-86486032D01*
X69116538Y-86489229D01*
X69115440Y-86490349D01*
X69114683Y-86492176D01*
X69110718Y-86498475D01*
X69069041Y-86584365D01*
X69067820Y-86585587D01*
X69064149Y-86594446D01*
X69057843Y-86607445D01*
X69057651Y-86610134D01*
X69056621Y-86612623D01*
X69055180Y-86627255D01*
X68705974Y-86627255D01*
X68705974Y-86203049D01*
X70363911Y-86203049D01*
X70363911Y-92145258D01*
G37*
X150761905Y-105884819D02*
X150761905Y-104884819D01*
X150761905Y-104884819D02*
X151000000Y-104884819D01*
X151000000Y-104884819D02*
X151142857Y-104932438D01*
X151142857Y-104932438D02*
X151238095Y-105027676D01*
X151238095Y-105027676D02*
X151285714Y-105122914D01*
X151285714Y-105122914D02*
X151333333Y-105313390D01*
X151333333Y-105313390D02*
X151333333Y-105456247D01*
X151333333Y-105456247D02*
X151285714Y-105646723D01*
X151285714Y-105646723D02*
X151238095Y-105741961D01*
X151238095Y-105741961D02*
X151142857Y-105837200D01*
X151142857Y-105837200D02*
X151000000Y-105884819D01*
X151000000Y-105884819D02*
X150761905Y-105884819D01*
X152190476Y-105218152D02*
X152190476Y-105884819D01*
X151952381Y-104837200D02*
X151714286Y-105551485D01*
X151714286Y-105551485D02*
X152333333Y-105551485D01*
D12*
%TO.C,BT1*%
X147981000Y-109239000D02*
X71019000Y-109239000D01*
X147981000Y-102756000D02*
X147981000Y-109239000D01*
X147981000Y-83656000D02*
X147981000Y-94944000D01*
X147981000Y-69361000D02*
X147981000Y-75844000D01*
D13*
X134500000Y-95800000D02*
X134500000Y-101800000D01*
X131500000Y-98800000D02*
X137500000Y-98800000D01*
X131500000Y-79800000D02*
X137500000Y-79800000D01*
X84500000Y-76800000D02*
X84500000Y-82800000D01*
X81500000Y-98800000D02*
X87500000Y-98800000D01*
X81500000Y-79800000D02*
X87500000Y-79800000D01*
D12*
X71019000Y-109239000D02*
X71019000Y-102756000D01*
X71019000Y-94944000D02*
X71019000Y-83656000D01*
X71019000Y-75844000D02*
X71019000Y-69361000D01*
X71019000Y-69361000D02*
X147981000Y-69361000D01*
D14*
%TO.C,D13*%
X65940000Y-74265000D02*
X65940000Y-75735000D01*
X65940000Y-75735000D02*
X68400000Y-75735000D01*
X68400000Y-74265000D02*
X65940000Y-74265000D01*
%TO.C,D4*%
X150700000Y-104735000D02*
X153160000Y-104735000D01*
X153160000Y-103265000D02*
X150700000Y-103265000D01*
X153160000Y-104735000D02*
X153160000Y-103265000D01*
%TO.C,D3*%
X65340000Y-103265000D02*
X65340000Y-104735000D01*
X65340000Y-104735000D02*
X67800000Y-104735000D01*
X67800000Y-103265000D02*
X65340000Y-103265000D01*
%TO.C,D2*%
X150400000Y-75735000D02*
X152860000Y-75735000D01*
X152860000Y-74265000D02*
X150400000Y-74265000D01*
X152860000Y-75735000D02*
X152860000Y-74265000D01*
D12*
%TO.C,SW1*%
X64700000Y-87100000D02*
X64700000Y-91300000D01*
X64769000Y-87100000D02*
X64700000Y-87100000D01*
X64769000Y-91300000D02*
X64700000Y-91300000D01*
X65765000Y-88438000D02*
X65765000Y-89962000D01*
X66919000Y-87100000D02*
X65881000Y-87100000D01*
X66919000Y-91300000D02*
X65881000Y-91300000D01*
X67035000Y-88438000D02*
X67035000Y-89962000D01*
X68100000Y-87100000D02*
X68031000Y-87100000D01*
X68100000Y-87100000D02*
X68100000Y-91300000D01*
X68100000Y-91300000D02*
X68031000Y-91300000D01*
X65764000Y-88437000D02*
G75*
G02*
X67036000Y-88437000I636000J0D01*
G01*
X67034000Y-89960932D02*
G75*
G02*
X65766000Y-89961000I-634000J3932D01*
G01*
%TD*%
M02*
