%TF.GenerationSoftware,KiCad,Pcbnew,8.0.2*%
%TF.CreationDate,2024-07-08T12:14:32+08:00*%
%TF.ProjectId,bat_rf,6261745f-7266-42e6-9b69-6361645f7063,rev?*%
%TF.SameCoordinates,Original*%
%TF.FileFunction,Drillmap*%
%TF.FilePolarity,Positive*%
%FSLAX45Y45*%
G04 Gerber Fmt 4.5, Leading zero omitted, Abs format (unit mm)*
G04 Created by KiCad (PCBNEW 8.0.2) date 2024-07-08 12:14:32*
%MOMM*%
%LPD*%
G01*
G04 APERTURE LIST*
%ADD10C,0.100000*%
%ADD11C,0.200000*%
%ADD12C,0.220000*%
G04 APERTURE END LIST*
D10*
X6652000Y-11017500D02*
X10206036Y-11017101D01*
X10207593Y-10408550D02*
X12029022Y-10408343D01*
X15230084Y-6867500D02*
G75*
G02*
X15430090Y-7067500I-4J-200010D01*
G01*
X15430084Y-7067500D02*
X15430084Y-10817500D01*
X15230084Y-11017500D02*
X15142000Y-11017500D01*
X12030088Y-11017662D02*
X15142000Y-11017500D01*
X6452000Y-10817500D02*
X6452000Y-7067500D01*
X6452000Y-7067500D02*
G75*
G02*
X6652000Y-6867500I200000J0D01*
G01*
X6652000Y-6867500D02*
X15142000Y-6867500D01*
X15142000Y-6867500D02*
X15230084Y-6867500D01*
X10206036Y-11017101D02*
X10207593Y-10408550D01*
X6652000Y-11017500D02*
G75*
G02*
X6452000Y-10817500I0J200000D01*
G01*
X12029022Y-10408343D02*
X12030088Y-11017662D01*
X15430084Y-10817500D02*
G75*
G02*
X15230084Y-11017494I-199994J0D01*
G01*
D11*
D10*
X6660000Y-7487500D02*
X6685000Y-7512500D01*
X6685000Y-7487500D02*
X6660000Y-7512500D01*
X6735000Y-8682500D02*
X6760000Y-8707500D01*
X6760000Y-8682500D02*
X6735000Y-8707500D01*
X7187500Y-7328750D02*
X7212500Y-7353750D01*
X7212500Y-7328750D02*
X7187500Y-7353750D01*
X8068000Y-7000000D02*
X8093000Y-7025000D01*
X8093000Y-7000000D02*
X8068000Y-7025000D01*
X8111350Y-7507500D02*
X8136350Y-7532500D01*
X8136350Y-7507500D02*
X8111350Y-7532500D01*
X8140100Y-7777500D02*
X8165100Y-7802500D01*
X8165100Y-7777500D02*
X8140100Y-7802500D01*
X8296144Y-7923544D02*
X8321144Y-7948544D01*
X8321144Y-7923544D02*
X8296144Y-7948544D01*
X8450100Y-7666250D02*
X8475100Y-7691250D01*
X8475100Y-7666250D02*
X8450100Y-7691250D01*
X8452245Y-7367500D02*
X8477245Y-7392500D01*
X8477245Y-7367500D02*
X8452245Y-7392500D01*
X8470100Y-8017700D02*
X8495100Y-8042700D01*
X8495100Y-8017700D02*
X8470100Y-8042700D01*
X8615754Y-8880962D02*
X8640754Y-8905962D01*
X8640754Y-8880962D02*
X8615754Y-8905962D01*
X9278750Y-10517500D02*
X9303750Y-10542500D01*
X9303750Y-10517500D02*
X9278750Y-10542500D01*
X9900975Y-9452500D02*
X9925975Y-9477500D01*
X9925975Y-9452500D02*
X9900975Y-9477500D01*
X9925005Y-9386754D02*
X9950005Y-9411754D01*
X9950005Y-9386754D02*
X9925005Y-9411754D01*
X10102500Y-7362500D02*
X10127500Y-7387500D01*
X10127500Y-7362500D02*
X10102500Y-7387500D01*
X10410100Y-8107500D02*
X10435100Y-8132500D01*
X10435100Y-8107500D02*
X10410100Y-8132500D01*
X11387500Y-7797500D02*
X11412500Y-7822500D01*
X11412500Y-7797500D02*
X11387500Y-7822500D01*
X11827500Y-7697500D02*
X11852500Y-7722500D01*
X11852500Y-7697500D02*
X11827500Y-7722500D01*
X12367500Y-7647500D02*
X12392500Y-7672500D01*
X12392500Y-7647500D02*
X12367500Y-7672500D01*
X14127500Y-9067500D02*
X14152500Y-9092500D01*
X14152500Y-9067500D02*
X14127500Y-9092500D01*
X14560000Y-7981250D02*
X14585000Y-8006250D01*
X14585000Y-7981250D02*
X14560000Y-8006250D01*
X6879500Y-9885000D02*
G75*
G02*
X6849500Y-9885000I-15000J0D01*
G01*
X6849500Y-9885000D02*
G75*
G02*
X6879500Y-9885000I15000J0D01*
G01*
X6965000Y-10400000D02*
G75*
G02*
X6935000Y-10400000I-15000J0D01*
G01*
X6935000Y-10400000D02*
G75*
G02*
X6965000Y-10400000I15000J0D01*
G01*
X7445000Y-7180000D02*
G75*
G02*
X7415000Y-7180000I-15000J0D01*
G01*
X7415000Y-7180000D02*
G75*
G02*
X7445000Y-7180000I15000J0D01*
G01*
X7945000Y-10330000D02*
G75*
G02*
X7915000Y-10330000I-15000J0D01*
G01*
X7915000Y-10330000D02*
G75*
G02*
X7945000Y-10330000I15000J0D01*
G01*
X8515000Y-7200000D02*
G75*
G02*
X8485000Y-7200000I-15000J0D01*
G01*
X8485000Y-7200000D02*
G75*
G02*
X8515000Y-7200000I15000J0D01*
G01*
X10195000Y-10020000D02*
G75*
G02*
X10165000Y-10020000I-15000J0D01*
G01*
X10165000Y-10020000D02*
G75*
G02*
X10195000Y-10020000I15000J0D01*
G01*
X10415000Y-10327877D02*
G75*
G02*
X10385000Y-10327877I-15000J0D01*
G01*
X10385000Y-10327877D02*
G75*
G02*
X10415000Y-10327877I15000J0D01*
G01*
X13145000Y-9350000D02*
G75*
G02*
X13115000Y-9350000I-15000J0D01*
G01*
X13115000Y-9350000D02*
G75*
G02*
X13145000Y-9350000I15000J0D01*
G01*
X13155000Y-9410000D02*
G75*
G02*
X13125000Y-9410000I-15000J0D01*
G01*
X13125000Y-9410000D02*
G75*
G02*
X13155000Y-9410000I15000J0D01*
G01*
X13202500Y-9350000D02*
G75*
G02*
X13172500Y-9350000I-15000J0D01*
G01*
X13172500Y-9350000D02*
G75*
G02*
X13202500Y-9350000I15000J0D01*
G01*
X13228716Y-9423784D02*
G75*
G02*
X13198716Y-9423784I-15000J0D01*
G01*
X13198716Y-9423784D02*
G75*
G02*
X13228716Y-9423784I15000J0D01*
G01*
X13269375Y-9383125D02*
G75*
G02*
X13239375Y-9383125I-15000J0D01*
G01*
X13239375Y-9383125D02*
G75*
G02*
X13269375Y-9383125I15000J0D01*
G01*
X14515000Y-10380000D02*
G75*
G02*
X14485000Y-10380000I-15000J0D01*
G01*
X14485000Y-10380000D02*
G75*
G02*
X14515000Y-10380000I15000J0D01*
G01*
X15382584Y-8090000D02*
G75*
G02*
X15352584Y-8090000I-15000J0D01*
G01*
X15352584Y-8090000D02*
G75*
G02*
X15382584Y-8090000I15000J0D01*
G01*
X8450044Y-7460429D02*
X8450044Y-7500429D01*
X8430044Y-7480429D02*
X8470044Y-7480429D01*
X9132600Y-8415000D02*
X9132600Y-8455000D01*
X9112600Y-8435000D02*
X9152600Y-8435000D01*
X9832600Y-7850000D02*
X9832600Y-7890000D01*
X9812600Y-7870000D02*
X9852600Y-7870000D01*
X10142600Y-7660000D02*
X10142600Y-7700000D01*
X10122600Y-7680000D02*
X10162600Y-7680000D01*
X11503500Y-8210000D02*
X11503500Y-8250000D01*
X11483500Y-8230000D02*
X11523500Y-8230000D01*
X6572670Y-9842701D02*
X6572670Y-9807345D01*
X6537314Y-9807345D01*
X6537314Y-9842701D01*
X6572670Y-9842701D01*
X7967678Y-10667678D02*
X7967678Y-10632322D01*
X7932322Y-10632322D01*
X7932322Y-10667678D01*
X7967678Y-10667678D01*
X7967678Y-10867678D02*
X7967678Y-10832322D01*
X7932322Y-10832322D01*
X7932322Y-10867678D01*
X7967678Y-10867678D01*
X8467678Y-7017678D02*
X8467678Y-6982322D01*
X8432322Y-6982322D01*
X8432322Y-7017678D01*
X8467678Y-7017678D01*
X9737678Y-10667678D02*
X9737678Y-10632322D01*
X9702322Y-10632322D01*
X9702322Y-10667678D01*
X9737678Y-10667678D01*
X9767678Y-10907678D02*
X9767678Y-10872322D01*
X9732322Y-10872322D01*
X9732322Y-10907678D01*
X9767678Y-10907678D01*
X9917678Y-10167678D02*
X9917678Y-10132322D01*
X9882322Y-10132322D01*
X9882322Y-10167678D01*
X9917678Y-10167678D01*
X10017678Y-9787678D02*
X10017678Y-9752322D01*
X9982322Y-9752322D01*
X9982322Y-9787678D01*
X10017678Y-9787678D01*
X10082736Y-10200828D02*
X10082736Y-10165472D01*
X10047381Y-10165472D01*
X10047381Y-10200828D01*
X10082736Y-10200828D01*
X10237678Y-7027678D02*
X10237678Y-6992322D01*
X10202322Y-6992322D01*
X10202322Y-7027678D01*
X10237678Y-7027678D01*
X10267678Y-7217678D02*
X10267678Y-7182322D01*
X10232322Y-7182322D01*
X10232322Y-7217678D01*
X10267678Y-7217678D01*
X10617678Y-10207678D02*
X10617678Y-10172322D01*
X10582322Y-10172322D01*
X10582322Y-10207678D01*
X10617678Y-10207678D01*
X10647678Y-9797678D02*
X10647678Y-9762322D01*
X10612322Y-9762322D01*
X10612322Y-9797678D01*
X10647678Y-9797678D01*
X12117678Y-10577678D02*
X12117678Y-10542322D01*
X12082322Y-10542322D01*
X12082322Y-10577678D01*
X12117678Y-10577678D01*
X12155003Y-10777678D02*
X12155003Y-10742322D01*
X12119647Y-10742322D01*
X12119647Y-10777678D01*
X12155003Y-10777678D01*
X12467678Y-7017678D02*
X12467678Y-6982322D01*
X12432322Y-6982322D01*
X12432322Y-7017678D01*
X12467678Y-7017678D01*
X12467678Y-7217678D02*
X12467678Y-7182322D01*
X12432322Y-7182322D01*
X12432322Y-7217678D01*
X12467678Y-7217678D01*
X12917678Y-9267678D02*
X12917678Y-9232322D01*
X12882322Y-9232322D01*
X12882322Y-9267678D01*
X12917678Y-9267678D01*
X13067678Y-8967678D02*
X13067678Y-8932322D01*
X13032322Y-8932322D01*
X13032322Y-8967678D01*
X13067678Y-8967678D01*
X13167678Y-9887678D02*
X13167678Y-9852322D01*
X13132322Y-9852322D01*
X13132322Y-9887678D01*
X13167678Y-9887678D01*
X13767678Y-9367678D02*
X13767678Y-9332322D01*
X13732322Y-9332322D01*
X13732322Y-9367678D01*
X13767678Y-9367678D01*
X13767678Y-9517678D02*
X13767678Y-9482322D01*
X13732322Y-9482322D01*
X13732322Y-9517678D01*
X13767678Y-9517678D01*
X13800928Y-9250928D02*
X13800928Y-9215572D01*
X13765572Y-9215572D01*
X13765572Y-9250928D01*
X13800928Y-9250928D01*
X13867678Y-9067678D02*
X13867678Y-9032322D01*
X13832322Y-9032322D01*
X13832322Y-9067678D01*
X13867678Y-9067678D01*
X14017678Y-9667678D02*
X14017678Y-9632322D01*
X13982322Y-9632322D01*
X13982322Y-9667678D01*
X14017678Y-9667678D01*
X14035885Y-10726750D02*
X14035885Y-10691395D01*
X14000529Y-10691395D01*
X14000529Y-10726750D01*
X14035885Y-10726750D01*
X14067678Y-10917678D02*
X14067678Y-10882322D01*
X14032322Y-10882322D01*
X14032322Y-10917678D01*
X14067678Y-10917678D01*
X14417678Y-7117678D02*
X14417678Y-7082322D01*
X14382322Y-7082322D01*
X14382322Y-7117678D01*
X14417678Y-7117678D01*
X14417678Y-7317678D02*
X14417678Y-7282322D01*
X14382322Y-7282322D01*
X14382322Y-7317678D01*
X14417678Y-7317678D01*
X14687678Y-7820178D02*
X14687678Y-7784822D01*
X14652322Y-7784822D01*
X14652322Y-7820178D01*
X14687678Y-7820178D01*
X14817678Y-10517678D02*
X14817678Y-10482322D01*
X14782322Y-10482322D01*
X14782322Y-10517678D01*
X14817678Y-10517678D01*
X15038421Y-10538421D02*
X15038421Y-10503065D01*
X15003065Y-10503065D01*
X15003065Y-10538421D01*
X15038421Y-10538421D01*
X14940000Y-8541000D02*
X14965000Y-8516000D01*
X14940000Y-8491000D01*
X14915000Y-8516000D01*
X14940000Y-8541000D01*
X14975000Y-8491000D02*
X14905000Y-8491000D01*
X14905000Y-8541000D02*
G75*
G02*
X14905000Y-8491000I0J25000D01*
G01*
X14905000Y-8541000D02*
X14975000Y-8541000D01*
X14975000Y-8541000D02*
G75*
G03*
X14975000Y-8491000I0J25000D01*
G01*
X14940000Y-9405000D02*
X14965000Y-9380000D01*
X14940000Y-9355000D01*
X14915000Y-9380000D01*
X14940000Y-9405000D01*
X14975000Y-9355000D02*
X14905000Y-9355000D01*
X14905000Y-9405000D02*
G75*
G02*
X14905000Y-9355000I0J25000D01*
G01*
X14905000Y-9405000D02*
X14975000Y-9405000D01*
X14975000Y-9405000D02*
G75*
G03*
X14975000Y-9355000I0J25000D01*
G01*
X15320000Y-8541000D02*
X15345000Y-8516000D01*
X15320000Y-8491000D01*
X15295000Y-8516000D01*
X15320000Y-8541000D01*
X15355000Y-8491000D02*
X15285000Y-8491000D01*
X15285000Y-8541000D02*
G75*
G02*
X15285000Y-8491000I0J25000D01*
G01*
X15285000Y-8541000D02*
X15355000Y-8541000D01*
X15355000Y-8541000D02*
G75*
G03*
X15355000Y-8491000I0J25000D01*
G01*
X15320000Y-9405000D02*
X15345000Y-9380000D01*
X15320000Y-9355000D01*
X15295000Y-9380000D01*
X15320000Y-9405000D01*
X15355000Y-9355000D02*
X15285000Y-9355000D01*
X15285000Y-9405000D02*
G75*
G02*
X15285000Y-9355000I0J25000D01*
G01*
X15285000Y-9405000D02*
X15355000Y-9405000D01*
X15355000Y-9405000D02*
G75*
G03*
X15355000Y-9355000I0J25000D01*
G01*
X6650000Y-8130000D02*
X6710000Y-8190000D01*
X6710000Y-8130000D02*
X6650000Y-8190000D01*
X6710000Y-8160000D02*
G75*
G02*
X6650000Y-8160000I-30000J0D01*
G01*
X6650000Y-8160000D02*
G75*
G02*
X6710000Y-8160000I30000J0D01*
G01*
X6650000Y-8250000D02*
X6710000Y-8310000D01*
X6710000Y-8250000D02*
X6650000Y-8310000D01*
X6710000Y-8280000D02*
G75*
G02*
X6650000Y-8280000I-30000J0D01*
G01*
X6650000Y-8280000D02*
G75*
G02*
X6710000Y-8280000I30000J0D01*
G01*
X6790000Y-8090000D02*
X6850000Y-8150000D01*
X6850000Y-8090000D02*
X6790000Y-8150000D01*
X6850000Y-8120000D02*
G75*
G02*
X6790000Y-8120000I-30000J0D01*
G01*
X6790000Y-8120000D02*
G75*
G02*
X6850000Y-8120000I30000J0D01*
G01*
X6790000Y-8230000D02*
X6850000Y-8290000D01*
X6850000Y-8230000D02*
X6790000Y-8290000D01*
X6850000Y-8260000D02*
G75*
G02*
X6790000Y-8260000I-30000J0D01*
G01*
X6790000Y-8260000D02*
G75*
G02*
X6850000Y-8260000I30000J0D01*
G01*
X6910000Y-7990000D02*
X6970000Y-8050000D01*
X6970000Y-7990000D02*
X6910000Y-8050000D01*
X6970000Y-8020000D02*
G75*
G02*
X6910000Y-8020000I-30000J0D01*
G01*
X6910000Y-8020000D02*
G75*
G02*
X6970000Y-8020000I30000J0D01*
G01*
X6910000Y-8110000D02*
X6970000Y-8170000D01*
X6970000Y-8110000D02*
X6910000Y-8170000D01*
X6970000Y-8140000D02*
G75*
G02*
X6910000Y-8140000I-30000J0D01*
G01*
X6910000Y-8140000D02*
G75*
G02*
X6970000Y-8140000I30000J0D01*
G01*
X6910000Y-8230000D02*
X6970000Y-8290000D01*
X6970000Y-8230000D02*
X6910000Y-8290000D01*
X6970000Y-8260000D02*
G75*
G02*
X6910000Y-8260000I-30000J0D01*
G01*
X6910000Y-8260000D02*
G75*
G02*
X6970000Y-8260000I30000J0D01*
G01*
X7030000Y-7990000D02*
X7090000Y-8050000D01*
X7090000Y-7990000D02*
X7030000Y-8050000D01*
X7090000Y-8020000D02*
G75*
G02*
X7030000Y-8020000I-30000J0D01*
G01*
X7030000Y-8020000D02*
G75*
G02*
X7090000Y-8020000I30000J0D01*
G01*
X7030000Y-8110000D02*
X7090000Y-8170000D01*
X7090000Y-8110000D02*
X7030000Y-8170000D01*
X7090000Y-8140000D02*
G75*
G02*
X7030000Y-8140000I-30000J0D01*
G01*
X7030000Y-8140000D02*
G75*
G02*
X7090000Y-8140000I30000J0D01*
G01*
X7030000Y-8230000D02*
X7090000Y-8290000D01*
X7090000Y-8230000D02*
X7030000Y-8290000D01*
X7090000Y-8260000D02*
G75*
G02*
X7030000Y-8260000I-30000J0D01*
G01*
X7030000Y-8260000D02*
G75*
G02*
X7090000Y-8260000I30000J0D01*
G01*
X7360000Y-9520000D02*
X7420000Y-9580000D01*
X7420000Y-9520000D02*
X7360000Y-9580000D01*
X7420000Y-9550000D02*
G75*
G02*
X7360000Y-9550000I-30000J0D01*
G01*
X7360000Y-9550000D02*
G75*
G02*
X7420000Y-9550000I30000J0D01*
G01*
X7360000Y-9640000D02*
X7420000Y-9700000D01*
X7420000Y-9640000D02*
X7360000Y-9700000D01*
X7420000Y-9670000D02*
G75*
G02*
X7360000Y-9670000I-30000J0D01*
G01*
X7360000Y-9670000D02*
G75*
G02*
X7420000Y-9670000I30000J0D01*
G01*
X7450000Y-9730000D02*
X7510000Y-9790000D01*
X7510000Y-9730000D02*
X7450000Y-9790000D01*
X7510000Y-9760000D02*
G75*
G02*
X7450000Y-9760000I-30000J0D01*
G01*
X7450000Y-9760000D02*
G75*
G02*
X7510000Y-9760000I30000J0D01*
G01*
X7460000Y-9450000D02*
X7520000Y-9510000D01*
X7520000Y-9450000D02*
X7460000Y-9510000D01*
X7520000Y-9480000D02*
G75*
G02*
X7460000Y-9480000I-30000J0D01*
G01*
X7460000Y-9480000D02*
G75*
G02*
X7520000Y-9480000I30000J0D01*
G01*
X7490000Y-9580000D02*
X7550000Y-9640000D01*
X7550000Y-9580000D02*
X7490000Y-9640000D01*
X7550000Y-9610000D02*
G75*
G02*
X7490000Y-9610000I-30000J0D01*
G01*
X7490000Y-9610000D02*
G75*
G02*
X7550000Y-9610000I30000J0D01*
G01*
X7570000Y-9710000D02*
X7630000Y-9770000D01*
X7630000Y-9710000D02*
X7570000Y-9770000D01*
X7630000Y-9740000D02*
G75*
G02*
X7570000Y-9740000I-30000J0D01*
G01*
X7570000Y-9740000D02*
G75*
G02*
X7630000Y-9740000I30000J0D01*
G01*
X7580000Y-9480000D02*
X7640000Y-9540000D01*
X7640000Y-9480000D02*
X7580000Y-9540000D01*
X7640000Y-9510000D02*
G75*
G02*
X7580000Y-9510000I-30000J0D01*
G01*
X7580000Y-9510000D02*
G75*
G02*
X7640000Y-9510000I30000J0D01*
G01*
X7630000Y-9600000D02*
X7690000Y-9660000D01*
X7690000Y-9600000D02*
X7630000Y-9660000D01*
X7690000Y-9630000D02*
G75*
G02*
X7630000Y-9630000I-30000J0D01*
G01*
X7630000Y-9630000D02*
G75*
G02*
X7690000Y-9630000I30000J0D01*
G01*
X7940000Y-7410000D02*
X8000000Y-7470000D01*
X8000000Y-7410000D02*
X7940000Y-7470000D01*
X8000000Y-7440000D02*
G75*
G02*
X7940000Y-7440000I-30000J0D01*
G01*
X7940000Y-7440000D02*
G75*
G02*
X8000000Y-7440000I30000J0D01*
G01*
X8360000Y-10480000D02*
X8420000Y-10540000D01*
X8420000Y-10480000D02*
X8360000Y-10540000D01*
X8420000Y-10510000D02*
G75*
G02*
X8360000Y-10510000I-30000J0D01*
G01*
X8360000Y-10510000D02*
G75*
G02*
X8420000Y-10510000I30000J0D01*
G01*
X8690869Y-8659157D02*
X8750869Y-8719157D01*
X8750869Y-8659157D02*
X8690869Y-8719157D01*
X8750869Y-8689157D02*
G75*
G02*
X8690869Y-8689157I-30000J0D01*
G01*
X8690869Y-8689157D02*
G75*
G02*
X8750869Y-8689157I30000J0D01*
G01*
X8792600Y-8380000D02*
X8852600Y-8440000D01*
X8852600Y-8380000D02*
X8792600Y-8440000D01*
X8852600Y-8410000D02*
G75*
G02*
X8792600Y-8410000I-30000J0D01*
G01*
X8792600Y-8410000D02*
G75*
G02*
X8852600Y-8410000I30000J0D01*
G01*
X9412600Y-7750000D02*
X9472600Y-7810000D01*
X9472600Y-7750000D02*
X9412600Y-7810000D01*
X9472600Y-7780000D02*
G75*
G02*
X9412600Y-7780000I-30000J0D01*
G01*
X9412600Y-7780000D02*
G75*
G02*
X9472600Y-7780000I30000J0D01*
G01*
X14330000Y-8410000D02*
X14390000Y-8470000D01*
X14390000Y-8410000D02*
X14330000Y-8470000D01*
X14390000Y-8440000D02*
G75*
G02*
X14330000Y-8440000I-30000J0D01*
G01*
X14330000Y-8440000D02*
G75*
G02*
X14390000Y-8440000I30000J0D01*
G01*
X14340000Y-9610000D02*
X14400000Y-9670000D01*
X14400000Y-9610000D02*
X14340000Y-9670000D01*
X14400000Y-9640000D02*
G75*
G02*
X14340000Y-9640000I-30000J0D01*
G01*
X14340000Y-9640000D02*
G75*
G02*
X14400000Y-9640000I30000J0D01*
G01*
X14795650Y-9230039D02*
X14855650Y-9290039D01*
X14855650Y-9230039D02*
X14795650Y-9290039D01*
X14855650Y-9260039D02*
G75*
G02*
X14795650Y-9260039I-30000J0D01*
G01*
X14795650Y-9260039D02*
G75*
G02*
X14855650Y-9260039I30000J0D01*
G01*
X10047943Y-8576157D02*
X10127943Y-8656157D01*
X10127943Y-8576157D02*
X10047943Y-8656157D01*
X10087943Y-8576157D02*
X10087943Y-8656157D01*
X10047943Y-8616157D02*
X10127943Y-8616157D01*
X10590000Y-9170000D02*
X10670000Y-9250000D01*
X10670000Y-9170000D02*
X10590000Y-9250000D01*
X10630000Y-9170000D02*
X10630000Y-9250000D01*
X10590000Y-9210000D02*
X10670000Y-9210000D01*
X13887500Y-8770000D02*
X13967500Y-8850000D01*
X13967500Y-8770000D02*
X13887500Y-8850000D01*
X13927500Y-8770000D02*
X13927500Y-8850000D01*
X13887500Y-8810000D02*
X13967500Y-8810000D01*
X14057450Y-9496250D02*
X14137450Y-9576250D01*
X14137450Y-9496250D02*
X14057450Y-9576250D01*
X14097450Y-9496250D02*
X14097450Y-9576250D01*
X14057450Y-9536250D02*
X14137450Y-9536250D01*
D12*
X6592500Y-7012500D02*
X6812500Y-7232500D01*
X6812500Y-7012500D02*
X6592500Y-7232500D01*
X6780282Y-7200282D02*
X6780282Y-7044717D01*
X6624717Y-7044717D01*
X6624717Y-7200282D01*
X6780282Y-7200282D01*
X6592500Y-10652500D02*
X6812500Y-10872500D01*
X6812500Y-10652500D02*
X6592500Y-10872500D01*
X6780282Y-10840283D02*
X6780282Y-10684718D01*
X6624717Y-10684718D01*
X6624717Y-10840283D01*
X6780282Y-10840283D01*
X15062500Y-7012500D02*
X15282500Y-7232500D01*
X15282500Y-7012500D02*
X15062500Y-7232500D01*
X15250282Y-7200282D02*
X15250282Y-7044717D01*
X15094717Y-7044717D01*
X15094717Y-7200282D01*
X15250282Y-7200282D01*
X15062500Y-10652500D02*
X15282500Y-10872500D01*
X15282500Y-10652500D02*
X15062500Y-10872500D01*
X15250282Y-10840283D02*
X15250282Y-10684718D01*
X15094717Y-10684718D01*
X15094717Y-10840283D01*
X15250282Y-10840283D01*
D11*
X6707777Y-11334146D02*
X6707777Y-11134146D01*
X6707777Y-11134146D02*
X6755396Y-11134146D01*
X6755396Y-11134146D02*
X6783967Y-11143670D01*
X6783967Y-11143670D02*
X6803015Y-11162717D01*
X6803015Y-11162717D02*
X6812538Y-11181765D01*
X6812538Y-11181765D02*
X6822062Y-11219860D01*
X6822062Y-11219860D02*
X6822062Y-11248432D01*
X6822062Y-11248432D02*
X6812538Y-11286527D01*
X6812538Y-11286527D02*
X6803015Y-11305574D01*
X6803015Y-11305574D02*
X6783967Y-11324622D01*
X6783967Y-11324622D02*
X6755396Y-11334146D01*
X6755396Y-11334146D02*
X6707777Y-11334146D01*
X6907777Y-11334146D02*
X6907777Y-11200812D01*
X6907777Y-11238908D02*
X6917300Y-11219860D01*
X6917300Y-11219860D02*
X6926824Y-11210336D01*
X6926824Y-11210336D02*
X6945872Y-11200812D01*
X6945872Y-11200812D02*
X6964919Y-11200812D01*
X7031586Y-11334146D02*
X7031586Y-11200812D01*
X7031586Y-11134146D02*
X7022062Y-11143670D01*
X7022062Y-11143670D02*
X7031586Y-11153194D01*
X7031586Y-11153194D02*
X7041110Y-11143670D01*
X7041110Y-11143670D02*
X7031586Y-11134146D01*
X7031586Y-11134146D02*
X7031586Y-11153194D01*
X7155396Y-11334146D02*
X7136348Y-11324622D01*
X7136348Y-11324622D02*
X7126824Y-11305574D01*
X7126824Y-11305574D02*
X7126824Y-11134146D01*
X7260157Y-11334146D02*
X7241110Y-11324622D01*
X7241110Y-11324622D02*
X7231586Y-11305574D01*
X7231586Y-11305574D02*
X7231586Y-11134146D01*
X7488729Y-11334146D02*
X7488729Y-11134146D01*
X7488729Y-11134146D02*
X7555396Y-11277003D01*
X7555396Y-11277003D02*
X7622062Y-11134146D01*
X7622062Y-11134146D02*
X7622062Y-11334146D01*
X7803015Y-11334146D02*
X7803015Y-11229384D01*
X7803015Y-11229384D02*
X7793491Y-11210336D01*
X7793491Y-11210336D02*
X7774443Y-11200812D01*
X7774443Y-11200812D02*
X7736348Y-11200812D01*
X7736348Y-11200812D02*
X7717300Y-11210336D01*
X7803015Y-11324622D02*
X7783967Y-11334146D01*
X7783967Y-11334146D02*
X7736348Y-11334146D01*
X7736348Y-11334146D02*
X7717300Y-11324622D01*
X7717300Y-11324622D02*
X7707777Y-11305574D01*
X7707777Y-11305574D02*
X7707777Y-11286527D01*
X7707777Y-11286527D02*
X7717300Y-11267479D01*
X7717300Y-11267479D02*
X7736348Y-11257955D01*
X7736348Y-11257955D02*
X7783967Y-11257955D01*
X7783967Y-11257955D02*
X7803015Y-11248432D01*
X7898253Y-11200812D02*
X7898253Y-11400812D01*
X7898253Y-11210336D02*
X7917300Y-11200812D01*
X7917300Y-11200812D02*
X7955396Y-11200812D01*
X7955396Y-11200812D02*
X7974443Y-11210336D01*
X7974443Y-11210336D02*
X7983967Y-11219860D01*
X7983967Y-11219860D02*
X7993491Y-11238908D01*
X7993491Y-11238908D02*
X7993491Y-11296051D01*
X7993491Y-11296051D02*
X7983967Y-11315098D01*
X7983967Y-11315098D02*
X7974443Y-11324622D01*
X7974443Y-11324622D02*
X7955396Y-11334146D01*
X7955396Y-11334146D02*
X7917300Y-11334146D01*
X7917300Y-11334146D02*
X7898253Y-11324622D01*
X8079205Y-11315098D02*
X8088729Y-11324622D01*
X8088729Y-11324622D02*
X8079205Y-11334146D01*
X8079205Y-11334146D02*
X8069681Y-11324622D01*
X8069681Y-11324622D02*
X8079205Y-11315098D01*
X8079205Y-11315098D02*
X8079205Y-11334146D01*
X8079205Y-11210336D02*
X8088729Y-11219860D01*
X8088729Y-11219860D02*
X8079205Y-11229384D01*
X8079205Y-11229384D02*
X8069681Y-11219860D01*
X8069681Y-11219860D02*
X8079205Y-11210336D01*
X8079205Y-11210336D02*
X8079205Y-11229384D01*
D10*
X6422000Y-11650162D02*
X6447000Y-11675162D01*
X6447000Y-11650162D02*
X6422000Y-11675162D01*
D11*
X6745872Y-11554146D02*
X6764919Y-11554146D01*
X6764919Y-11554146D02*
X6783967Y-11563670D01*
X6783967Y-11563670D02*
X6793491Y-11573193D01*
X6793491Y-11573193D02*
X6803015Y-11592241D01*
X6803015Y-11592241D02*
X6812538Y-11630336D01*
X6812538Y-11630336D02*
X6812538Y-11677955D01*
X6812538Y-11677955D02*
X6803015Y-11716051D01*
X6803015Y-11716051D02*
X6793491Y-11735098D01*
X6793491Y-11735098D02*
X6783967Y-11744622D01*
X6783967Y-11744622D02*
X6764919Y-11754146D01*
X6764919Y-11754146D02*
X6745872Y-11754146D01*
X6745872Y-11754146D02*
X6726824Y-11744622D01*
X6726824Y-11744622D02*
X6717300Y-11735098D01*
X6717300Y-11735098D02*
X6707777Y-11716051D01*
X6707777Y-11716051D02*
X6698253Y-11677955D01*
X6698253Y-11677955D02*
X6698253Y-11630336D01*
X6698253Y-11630336D02*
X6707777Y-11592241D01*
X6707777Y-11592241D02*
X6717300Y-11573193D01*
X6717300Y-11573193D02*
X6726824Y-11563670D01*
X6726824Y-11563670D02*
X6745872Y-11554146D01*
X6898253Y-11735098D02*
X6907777Y-11744622D01*
X6907777Y-11744622D02*
X6898253Y-11754146D01*
X6898253Y-11754146D02*
X6888729Y-11744622D01*
X6888729Y-11744622D02*
X6898253Y-11735098D01*
X6898253Y-11735098D02*
X6898253Y-11754146D01*
X6983967Y-11573193D02*
X6993491Y-11563670D01*
X6993491Y-11563670D02*
X7012538Y-11554146D01*
X7012538Y-11554146D02*
X7060158Y-11554146D01*
X7060158Y-11554146D02*
X7079205Y-11563670D01*
X7079205Y-11563670D02*
X7088729Y-11573193D01*
X7088729Y-11573193D02*
X7098253Y-11592241D01*
X7098253Y-11592241D02*
X7098253Y-11611289D01*
X7098253Y-11611289D02*
X7088729Y-11639860D01*
X7088729Y-11639860D02*
X6974443Y-11754146D01*
X6974443Y-11754146D02*
X7098253Y-11754146D01*
X7279205Y-11554146D02*
X7183967Y-11554146D01*
X7183967Y-11554146D02*
X7174443Y-11649384D01*
X7174443Y-11649384D02*
X7183967Y-11639860D01*
X7183967Y-11639860D02*
X7203015Y-11630336D01*
X7203015Y-11630336D02*
X7250634Y-11630336D01*
X7250634Y-11630336D02*
X7269681Y-11639860D01*
X7269681Y-11639860D02*
X7279205Y-11649384D01*
X7279205Y-11649384D02*
X7288729Y-11668432D01*
X7288729Y-11668432D02*
X7288729Y-11716051D01*
X7288729Y-11716051D02*
X7279205Y-11735098D01*
X7279205Y-11735098D02*
X7269681Y-11744622D01*
X7269681Y-11744622D02*
X7250634Y-11754146D01*
X7250634Y-11754146D02*
X7203015Y-11754146D01*
X7203015Y-11754146D02*
X7183967Y-11744622D01*
X7183967Y-11744622D02*
X7174443Y-11735098D01*
X7412538Y-11554146D02*
X7431586Y-11554146D01*
X7431586Y-11554146D02*
X7450634Y-11563670D01*
X7450634Y-11563670D02*
X7460158Y-11573193D01*
X7460158Y-11573193D02*
X7469681Y-11592241D01*
X7469681Y-11592241D02*
X7479205Y-11630336D01*
X7479205Y-11630336D02*
X7479205Y-11677955D01*
X7479205Y-11677955D02*
X7469681Y-11716051D01*
X7469681Y-11716051D02*
X7460158Y-11735098D01*
X7460158Y-11735098D02*
X7450634Y-11744622D01*
X7450634Y-11744622D02*
X7431586Y-11754146D01*
X7431586Y-11754146D02*
X7412538Y-11754146D01*
X7412538Y-11754146D02*
X7393491Y-11744622D01*
X7393491Y-11744622D02*
X7383967Y-11735098D01*
X7383967Y-11735098D02*
X7374443Y-11716051D01*
X7374443Y-11716051D02*
X7364919Y-11677955D01*
X7364919Y-11677955D02*
X7364919Y-11630336D01*
X7364919Y-11630336D02*
X7374443Y-11592241D01*
X7374443Y-11592241D02*
X7383967Y-11573193D01*
X7383967Y-11573193D02*
X7393491Y-11563670D01*
X7393491Y-11563670D02*
X7412538Y-11554146D01*
X7564919Y-11754146D02*
X7564919Y-11620812D01*
X7564919Y-11639860D02*
X7574443Y-11630336D01*
X7574443Y-11630336D02*
X7593491Y-11620812D01*
X7593491Y-11620812D02*
X7622062Y-11620812D01*
X7622062Y-11620812D02*
X7641110Y-11630336D01*
X7641110Y-11630336D02*
X7650634Y-11649384D01*
X7650634Y-11649384D02*
X7650634Y-11754146D01*
X7650634Y-11649384D02*
X7660158Y-11630336D01*
X7660158Y-11630336D02*
X7679205Y-11620812D01*
X7679205Y-11620812D02*
X7707777Y-11620812D01*
X7707777Y-11620812D02*
X7726824Y-11630336D01*
X7726824Y-11630336D02*
X7736348Y-11649384D01*
X7736348Y-11649384D02*
X7736348Y-11754146D01*
X7831586Y-11754146D02*
X7831586Y-11620812D01*
X7831586Y-11639860D02*
X7841110Y-11630336D01*
X7841110Y-11630336D02*
X7860158Y-11620812D01*
X7860158Y-11620812D02*
X7888729Y-11620812D01*
X7888729Y-11620812D02*
X7907777Y-11630336D01*
X7907777Y-11630336D02*
X7917300Y-11649384D01*
X7917300Y-11649384D02*
X7917300Y-11754146D01*
X7917300Y-11649384D02*
X7926824Y-11630336D01*
X7926824Y-11630336D02*
X7945872Y-11620812D01*
X7945872Y-11620812D02*
X7974443Y-11620812D01*
X7974443Y-11620812D02*
X7993491Y-11630336D01*
X7993491Y-11630336D02*
X8003015Y-11649384D01*
X8003015Y-11649384D02*
X8003015Y-11754146D01*
X8393491Y-11544622D02*
X8222062Y-11801765D01*
X8650634Y-11554146D02*
X8669682Y-11554146D01*
X8669682Y-11554146D02*
X8688729Y-11563670D01*
X8688729Y-11563670D02*
X8698253Y-11573193D01*
X8698253Y-11573193D02*
X8707777Y-11592241D01*
X8707777Y-11592241D02*
X8717301Y-11630336D01*
X8717301Y-11630336D02*
X8717301Y-11677955D01*
X8717301Y-11677955D02*
X8707777Y-11716051D01*
X8707777Y-11716051D02*
X8698253Y-11735098D01*
X8698253Y-11735098D02*
X8688729Y-11744622D01*
X8688729Y-11744622D02*
X8669682Y-11754146D01*
X8669682Y-11754146D02*
X8650634Y-11754146D01*
X8650634Y-11754146D02*
X8631586Y-11744622D01*
X8631586Y-11744622D02*
X8622063Y-11735098D01*
X8622063Y-11735098D02*
X8612539Y-11716051D01*
X8612539Y-11716051D02*
X8603015Y-11677955D01*
X8603015Y-11677955D02*
X8603015Y-11630336D01*
X8603015Y-11630336D02*
X8612539Y-11592241D01*
X8612539Y-11592241D02*
X8622063Y-11573193D01*
X8622063Y-11573193D02*
X8631586Y-11563670D01*
X8631586Y-11563670D02*
X8650634Y-11554146D01*
X8803015Y-11735098D02*
X8812539Y-11744622D01*
X8812539Y-11744622D02*
X8803015Y-11754146D01*
X8803015Y-11754146D02*
X8793491Y-11744622D01*
X8793491Y-11744622D02*
X8803015Y-11735098D01*
X8803015Y-11735098D02*
X8803015Y-11754146D01*
X8936348Y-11554146D02*
X8955396Y-11554146D01*
X8955396Y-11554146D02*
X8974444Y-11563670D01*
X8974444Y-11563670D02*
X8983967Y-11573193D01*
X8983967Y-11573193D02*
X8993491Y-11592241D01*
X8993491Y-11592241D02*
X9003015Y-11630336D01*
X9003015Y-11630336D02*
X9003015Y-11677955D01*
X9003015Y-11677955D02*
X8993491Y-11716051D01*
X8993491Y-11716051D02*
X8983967Y-11735098D01*
X8983967Y-11735098D02*
X8974444Y-11744622D01*
X8974444Y-11744622D02*
X8955396Y-11754146D01*
X8955396Y-11754146D02*
X8936348Y-11754146D01*
X8936348Y-11754146D02*
X8917301Y-11744622D01*
X8917301Y-11744622D02*
X8907777Y-11735098D01*
X8907777Y-11735098D02*
X8898253Y-11716051D01*
X8898253Y-11716051D02*
X8888729Y-11677955D01*
X8888729Y-11677955D02*
X8888729Y-11630336D01*
X8888729Y-11630336D02*
X8898253Y-11592241D01*
X8898253Y-11592241D02*
X8907777Y-11573193D01*
X8907777Y-11573193D02*
X8917301Y-11563670D01*
X8917301Y-11563670D02*
X8936348Y-11554146D01*
X9126824Y-11554146D02*
X9145872Y-11554146D01*
X9145872Y-11554146D02*
X9164920Y-11563670D01*
X9164920Y-11563670D02*
X9174444Y-11573193D01*
X9174444Y-11573193D02*
X9183967Y-11592241D01*
X9183967Y-11592241D02*
X9193491Y-11630336D01*
X9193491Y-11630336D02*
X9193491Y-11677955D01*
X9193491Y-11677955D02*
X9183967Y-11716051D01*
X9183967Y-11716051D02*
X9174444Y-11735098D01*
X9174444Y-11735098D02*
X9164920Y-11744622D01*
X9164920Y-11744622D02*
X9145872Y-11754146D01*
X9145872Y-11754146D02*
X9126824Y-11754146D01*
X9126824Y-11754146D02*
X9107777Y-11744622D01*
X9107777Y-11744622D02*
X9098253Y-11735098D01*
X9098253Y-11735098D02*
X9088729Y-11716051D01*
X9088729Y-11716051D02*
X9079205Y-11677955D01*
X9079205Y-11677955D02*
X9079205Y-11630336D01*
X9079205Y-11630336D02*
X9088729Y-11592241D01*
X9088729Y-11592241D02*
X9098253Y-11573193D01*
X9098253Y-11573193D02*
X9107777Y-11563670D01*
X9107777Y-11563670D02*
X9126824Y-11554146D01*
X9288729Y-11754146D02*
X9326824Y-11754146D01*
X9326824Y-11754146D02*
X9345872Y-11744622D01*
X9345872Y-11744622D02*
X9355396Y-11735098D01*
X9355396Y-11735098D02*
X9374444Y-11706527D01*
X9374444Y-11706527D02*
X9383967Y-11668432D01*
X9383967Y-11668432D02*
X9383967Y-11592241D01*
X9383967Y-11592241D02*
X9374444Y-11573193D01*
X9374444Y-11573193D02*
X9364920Y-11563670D01*
X9364920Y-11563670D02*
X9345872Y-11554146D01*
X9345872Y-11554146D02*
X9307777Y-11554146D01*
X9307777Y-11554146D02*
X9288729Y-11563670D01*
X9288729Y-11563670D02*
X9279205Y-11573193D01*
X9279205Y-11573193D02*
X9269682Y-11592241D01*
X9269682Y-11592241D02*
X9269682Y-11639860D01*
X9269682Y-11639860D02*
X9279205Y-11658908D01*
X9279205Y-11658908D02*
X9288729Y-11668432D01*
X9288729Y-11668432D02*
X9307777Y-11677955D01*
X9307777Y-11677955D02*
X9345872Y-11677955D01*
X9345872Y-11677955D02*
X9364920Y-11668432D01*
X9364920Y-11668432D02*
X9374444Y-11658908D01*
X9374444Y-11658908D02*
X9383967Y-11639860D01*
X9498253Y-11639860D02*
X9479205Y-11630336D01*
X9479205Y-11630336D02*
X9469682Y-11620812D01*
X9469682Y-11620812D02*
X9460158Y-11601765D01*
X9460158Y-11601765D02*
X9460158Y-11592241D01*
X9460158Y-11592241D02*
X9469682Y-11573193D01*
X9469682Y-11573193D02*
X9479205Y-11563670D01*
X9479205Y-11563670D02*
X9498253Y-11554146D01*
X9498253Y-11554146D02*
X9536348Y-11554146D01*
X9536348Y-11554146D02*
X9555396Y-11563670D01*
X9555396Y-11563670D02*
X9564920Y-11573193D01*
X9564920Y-11573193D02*
X9574444Y-11592241D01*
X9574444Y-11592241D02*
X9574444Y-11601765D01*
X9574444Y-11601765D02*
X9564920Y-11620812D01*
X9564920Y-11620812D02*
X9555396Y-11630336D01*
X9555396Y-11630336D02*
X9536348Y-11639860D01*
X9536348Y-11639860D02*
X9498253Y-11639860D01*
X9498253Y-11639860D02*
X9479205Y-11649384D01*
X9479205Y-11649384D02*
X9469682Y-11658908D01*
X9469682Y-11658908D02*
X9460158Y-11677955D01*
X9460158Y-11677955D02*
X9460158Y-11716051D01*
X9460158Y-11716051D02*
X9469682Y-11735098D01*
X9469682Y-11735098D02*
X9479205Y-11744622D01*
X9479205Y-11744622D02*
X9498253Y-11754146D01*
X9498253Y-11754146D02*
X9536348Y-11754146D01*
X9536348Y-11754146D02*
X9555396Y-11744622D01*
X9555396Y-11744622D02*
X9564920Y-11735098D01*
X9564920Y-11735098D02*
X9574444Y-11716051D01*
X9574444Y-11716051D02*
X9574444Y-11677955D01*
X9574444Y-11677955D02*
X9564920Y-11658908D01*
X9564920Y-11658908D02*
X9555396Y-11649384D01*
X9555396Y-11649384D02*
X9536348Y-11639860D01*
X9650634Y-11554146D02*
X9650634Y-11592241D01*
X9726825Y-11554146D02*
X9726825Y-11592241D01*
X10022063Y-11830336D02*
X10012539Y-11820812D01*
X10012539Y-11820812D02*
X9993491Y-11792241D01*
X9993491Y-11792241D02*
X9983967Y-11773193D01*
X9983967Y-11773193D02*
X9974444Y-11744622D01*
X9974444Y-11744622D02*
X9964920Y-11697003D01*
X9964920Y-11697003D02*
X9964920Y-11658908D01*
X9964920Y-11658908D02*
X9974444Y-11611289D01*
X9974444Y-11611289D02*
X9983967Y-11582717D01*
X9983967Y-11582717D02*
X9993491Y-11563670D01*
X9993491Y-11563670D02*
X10012539Y-11535098D01*
X10012539Y-11535098D02*
X10022063Y-11525574D01*
X10088729Y-11573193D02*
X10098253Y-11563670D01*
X10098253Y-11563670D02*
X10117301Y-11554146D01*
X10117301Y-11554146D02*
X10164920Y-11554146D01*
X10164920Y-11554146D02*
X10183967Y-11563670D01*
X10183967Y-11563670D02*
X10193491Y-11573193D01*
X10193491Y-11573193D02*
X10203015Y-11592241D01*
X10203015Y-11592241D02*
X10203015Y-11611289D01*
X10203015Y-11611289D02*
X10193491Y-11639860D01*
X10193491Y-11639860D02*
X10079206Y-11754146D01*
X10079206Y-11754146D02*
X10203015Y-11754146D01*
X10393491Y-11754146D02*
X10279206Y-11754146D01*
X10336348Y-11754146D02*
X10336348Y-11554146D01*
X10336348Y-11554146D02*
X10317301Y-11582717D01*
X10317301Y-11582717D02*
X10298253Y-11601765D01*
X10298253Y-11601765D02*
X10279206Y-11611289D01*
X10631587Y-11754146D02*
X10631587Y-11554146D01*
X10717301Y-11754146D02*
X10717301Y-11649384D01*
X10717301Y-11649384D02*
X10707777Y-11630336D01*
X10707777Y-11630336D02*
X10688729Y-11620812D01*
X10688729Y-11620812D02*
X10660158Y-11620812D01*
X10660158Y-11620812D02*
X10641110Y-11630336D01*
X10641110Y-11630336D02*
X10631587Y-11639860D01*
X10841110Y-11754146D02*
X10822063Y-11744622D01*
X10822063Y-11744622D02*
X10812539Y-11735098D01*
X10812539Y-11735098D02*
X10803015Y-11716051D01*
X10803015Y-11716051D02*
X10803015Y-11658908D01*
X10803015Y-11658908D02*
X10812539Y-11639860D01*
X10812539Y-11639860D02*
X10822063Y-11630336D01*
X10822063Y-11630336D02*
X10841110Y-11620812D01*
X10841110Y-11620812D02*
X10869682Y-11620812D01*
X10869682Y-11620812D02*
X10888729Y-11630336D01*
X10888729Y-11630336D02*
X10898253Y-11639860D01*
X10898253Y-11639860D02*
X10907777Y-11658908D01*
X10907777Y-11658908D02*
X10907777Y-11716051D01*
X10907777Y-11716051D02*
X10898253Y-11735098D01*
X10898253Y-11735098D02*
X10888729Y-11744622D01*
X10888729Y-11744622D02*
X10869682Y-11754146D01*
X10869682Y-11754146D02*
X10841110Y-11754146D01*
X11022063Y-11754146D02*
X11003015Y-11744622D01*
X11003015Y-11744622D02*
X10993491Y-11725574D01*
X10993491Y-11725574D02*
X10993491Y-11554146D01*
X11174444Y-11744622D02*
X11155396Y-11754146D01*
X11155396Y-11754146D02*
X11117301Y-11754146D01*
X11117301Y-11754146D02*
X11098253Y-11744622D01*
X11098253Y-11744622D02*
X11088729Y-11725574D01*
X11088729Y-11725574D02*
X11088729Y-11649384D01*
X11088729Y-11649384D02*
X11098253Y-11630336D01*
X11098253Y-11630336D02*
X11117301Y-11620812D01*
X11117301Y-11620812D02*
X11155396Y-11620812D01*
X11155396Y-11620812D02*
X11174444Y-11630336D01*
X11174444Y-11630336D02*
X11183968Y-11649384D01*
X11183968Y-11649384D02*
X11183968Y-11668432D01*
X11183968Y-11668432D02*
X11088729Y-11687479D01*
X11260158Y-11744622D02*
X11279206Y-11754146D01*
X11279206Y-11754146D02*
X11317301Y-11754146D01*
X11317301Y-11754146D02*
X11336348Y-11744622D01*
X11336348Y-11744622D02*
X11345872Y-11725574D01*
X11345872Y-11725574D02*
X11345872Y-11716051D01*
X11345872Y-11716051D02*
X11336348Y-11697003D01*
X11336348Y-11697003D02*
X11317301Y-11687479D01*
X11317301Y-11687479D02*
X11288729Y-11687479D01*
X11288729Y-11687479D02*
X11269682Y-11677955D01*
X11269682Y-11677955D02*
X11260158Y-11658908D01*
X11260158Y-11658908D02*
X11260158Y-11649384D01*
X11260158Y-11649384D02*
X11269682Y-11630336D01*
X11269682Y-11630336D02*
X11288729Y-11620812D01*
X11288729Y-11620812D02*
X11317301Y-11620812D01*
X11317301Y-11620812D02*
X11336348Y-11630336D01*
X11412539Y-11830336D02*
X11422063Y-11820812D01*
X11422063Y-11820812D02*
X11441110Y-11792241D01*
X11441110Y-11792241D02*
X11450634Y-11773193D01*
X11450634Y-11773193D02*
X11460158Y-11744622D01*
X11460158Y-11744622D02*
X11469682Y-11697003D01*
X11469682Y-11697003D02*
X11469682Y-11658908D01*
X11469682Y-11658908D02*
X11460158Y-11611289D01*
X11460158Y-11611289D02*
X11450634Y-11582717D01*
X11450634Y-11582717D02*
X11441110Y-11563670D01*
X11441110Y-11563670D02*
X11422063Y-11535098D01*
X11422063Y-11535098D02*
X11412539Y-11525574D01*
D10*
X6447000Y-11926662D02*
G75*
G02*
X6417000Y-11926662I-15000J0D01*
G01*
X6417000Y-11926662D02*
G75*
G02*
X6447000Y-11926662I15000J0D01*
G01*
D11*
X6745872Y-11818146D02*
X6764919Y-11818146D01*
X6764919Y-11818146D02*
X6783967Y-11827670D01*
X6783967Y-11827670D02*
X6793491Y-11837193D01*
X6793491Y-11837193D02*
X6803015Y-11856241D01*
X6803015Y-11856241D02*
X6812538Y-11894336D01*
X6812538Y-11894336D02*
X6812538Y-11941955D01*
X6812538Y-11941955D02*
X6803015Y-11980051D01*
X6803015Y-11980051D02*
X6793491Y-11999098D01*
X6793491Y-11999098D02*
X6783967Y-12008622D01*
X6783967Y-12008622D02*
X6764919Y-12018146D01*
X6764919Y-12018146D02*
X6745872Y-12018146D01*
X6745872Y-12018146D02*
X6726824Y-12008622D01*
X6726824Y-12008622D02*
X6717300Y-11999098D01*
X6717300Y-11999098D02*
X6707777Y-11980051D01*
X6707777Y-11980051D02*
X6698253Y-11941955D01*
X6698253Y-11941955D02*
X6698253Y-11894336D01*
X6698253Y-11894336D02*
X6707777Y-11856241D01*
X6707777Y-11856241D02*
X6717300Y-11837193D01*
X6717300Y-11837193D02*
X6726824Y-11827670D01*
X6726824Y-11827670D02*
X6745872Y-11818146D01*
X6898253Y-11999098D02*
X6907777Y-12008622D01*
X6907777Y-12008622D02*
X6898253Y-12018146D01*
X6898253Y-12018146D02*
X6888729Y-12008622D01*
X6888729Y-12008622D02*
X6898253Y-11999098D01*
X6898253Y-11999098D02*
X6898253Y-12018146D01*
X6974443Y-11818146D02*
X7098253Y-11818146D01*
X7098253Y-11818146D02*
X7031586Y-11894336D01*
X7031586Y-11894336D02*
X7060158Y-11894336D01*
X7060158Y-11894336D02*
X7079205Y-11903860D01*
X7079205Y-11903860D02*
X7088729Y-11913384D01*
X7088729Y-11913384D02*
X7098253Y-11932432D01*
X7098253Y-11932432D02*
X7098253Y-11980051D01*
X7098253Y-11980051D02*
X7088729Y-11999098D01*
X7088729Y-11999098D02*
X7079205Y-12008622D01*
X7079205Y-12008622D02*
X7060158Y-12018146D01*
X7060158Y-12018146D02*
X7003015Y-12018146D01*
X7003015Y-12018146D02*
X6983967Y-12008622D01*
X6983967Y-12008622D02*
X6974443Y-11999098D01*
X7222062Y-11818146D02*
X7241110Y-11818146D01*
X7241110Y-11818146D02*
X7260158Y-11827670D01*
X7260158Y-11827670D02*
X7269681Y-11837193D01*
X7269681Y-11837193D02*
X7279205Y-11856241D01*
X7279205Y-11856241D02*
X7288729Y-11894336D01*
X7288729Y-11894336D02*
X7288729Y-11941955D01*
X7288729Y-11941955D02*
X7279205Y-11980051D01*
X7279205Y-11980051D02*
X7269681Y-11999098D01*
X7269681Y-11999098D02*
X7260158Y-12008622D01*
X7260158Y-12008622D02*
X7241110Y-12018146D01*
X7241110Y-12018146D02*
X7222062Y-12018146D01*
X7222062Y-12018146D02*
X7203015Y-12008622D01*
X7203015Y-12008622D02*
X7193491Y-11999098D01*
X7193491Y-11999098D02*
X7183967Y-11980051D01*
X7183967Y-11980051D02*
X7174443Y-11941955D01*
X7174443Y-11941955D02*
X7174443Y-11894336D01*
X7174443Y-11894336D02*
X7183967Y-11856241D01*
X7183967Y-11856241D02*
X7193491Y-11837193D01*
X7193491Y-11837193D02*
X7203015Y-11827670D01*
X7203015Y-11827670D02*
X7222062Y-11818146D01*
X7412538Y-11818146D02*
X7431586Y-11818146D01*
X7431586Y-11818146D02*
X7450634Y-11827670D01*
X7450634Y-11827670D02*
X7460158Y-11837193D01*
X7460158Y-11837193D02*
X7469681Y-11856241D01*
X7469681Y-11856241D02*
X7479205Y-11894336D01*
X7479205Y-11894336D02*
X7479205Y-11941955D01*
X7479205Y-11941955D02*
X7469681Y-11980051D01*
X7469681Y-11980051D02*
X7460158Y-11999098D01*
X7460158Y-11999098D02*
X7450634Y-12008622D01*
X7450634Y-12008622D02*
X7431586Y-12018146D01*
X7431586Y-12018146D02*
X7412538Y-12018146D01*
X7412538Y-12018146D02*
X7393491Y-12008622D01*
X7393491Y-12008622D02*
X7383967Y-11999098D01*
X7383967Y-11999098D02*
X7374443Y-11980051D01*
X7374443Y-11980051D02*
X7364919Y-11941955D01*
X7364919Y-11941955D02*
X7364919Y-11894336D01*
X7364919Y-11894336D02*
X7374443Y-11856241D01*
X7374443Y-11856241D02*
X7383967Y-11837193D01*
X7383967Y-11837193D02*
X7393491Y-11827670D01*
X7393491Y-11827670D02*
X7412538Y-11818146D01*
X7564919Y-12018146D02*
X7564919Y-11884812D01*
X7564919Y-11903860D02*
X7574443Y-11894336D01*
X7574443Y-11894336D02*
X7593491Y-11884812D01*
X7593491Y-11884812D02*
X7622062Y-11884812D01*
X7622062Y-11884812D02*
X7641110Y-11894336D01*
X7641110Y-11894336D02*
X7650634Y-11913384D01*
X7650634Y-11913384D02*
X7650634Y-12018146D01*
X7650634Y-11913384D02*
X7660158Y-11894336D01*
X7660158Y-11894336D02*
X7679205Y-11884812D01*
X7679205Y-11884812D02*
X7707777Y-11884812D01*
X7707777Y-11884812D02*
X7726824Y-11894336D01*
X7726824Y-11894336D02*
X7736348Y-11913384D01*
X7736348Y-11913384D02*
X7736348Y-12018146D01*
X7831586Y-12018146D02*
X7831586Y-11884812D01*
X7831586Y-11903860D02*
X7841110Y-11894336D01*
X7841110Y-11894336D02*
X7860158Y-11884812D01*
X7860158Y-11884812D02*
X7888729Y-11884812D01*
X7888729Y-11884812D02*
X7907777Y-11894336D01*
X7907777Y-11894336D02*
X7917300Y-11913384D01*
X7917300Y-11913384D02*
X7917300Y-12018146D01*
X7917300Y-11913384D02*
X7926824Y-11894336D01*
X7926824Y-11894336D02*
X7945872Y-11884812D01*
X7945872Y-11884812D02*
X7974443Y-11884812D01*
X7974443Y-11884812D02*
X7993491Y-11894336D01*
X7993491Y-11894336D02*
X8003015Y-11913384D01*
X8003015Y-11913384D02*
X8003015Y-12018146D01*
X8393491Y-11808622D02*
X8222062Y-12065765D01*
X8650634Y-11818146D02*
X8669682Y-11818146D01*
X8669682Y-11818146D02*
X8688729Y-11827670D01*
X8688729Y-11827670D02*
X8698253Y-11837193D01*
X8698253Y-11837193D02*
X8707777Y-11856241D01*
X8707777Y-11856241D02*
X8717301Y-11894336D01*
X8717301Y-11894336D02*
X8717301Y-11941955D01*
X8717301Y-11941955D02*
X8707777Y-11980051D01*
X8707777Y-11980051D02*
X8698253Y-11999098D01*
X8698253Y-11999098D02*
X8688729Y-12008622D01*
X8688729Y-12008622D02*
X8669682Y-12018146D01*
X8669682Y-12018146D02*
X8650634Y-12018146D01*
X8650634Y-12018146D02*
X8631586Y-12008622D01*
X8631586Y-12008622D02*
X8622063Y-11999098D01*
X8622063Y-11999098D02*
X8612539Y-11980051D01*
X8612539Y-11980051D02*
X8603015Y-11941955D01*
X8603015Y-11941955D02*
X8603015Y-11894336D01*
X8603015Y-11894336D02*
X8612539Y-11856241D01*
X8612539Y-11856241D02*
X8622063Y-11837193D01*
X8622063Y-11837193D02*
X8631586Y-11827670D01*
X8631586Y-11827670D02*
X8650634Y-11818146D01*
X8803015Y-11999098D02*
X8812539Y-12008622D01*
X8812539Y-12008622D02*
X8803015Y-12018146D01*
X8803015Y-12018146D02*
X8793491Y-12008622D01*
X8793491Y-12008622D02*
X8803015Y-11999098D01*
X8803015Y-11999098D02*
X8803015Y-12018146D01*
X8936348Y-11818146D02*
X8955396Y-11818146D01*
X8955396Y-11818146D02*
X8974444Y-11827670D01*
X8974444Y-11827670D02*
X8983967Y-11837193D01*
X8983967Y-11837193D02*
X8993491Y-11856241D01*
X8993491Y-11856241D02*
X9003015Y-11894336D01*
X9003015Y-11894336D02*
X9003015Y-11941955D01*
X9003015Y-11941955D02*
X8993491Y-11980051D01*
X8993491Y-11980051D02*
X8983967Y-11999098D01*
X8983967Y-11999098D02*
X8974444Y-12008622D01*
X8974444Y-12008622D02*
X8955396Y-12018146D01*
X8955396Y-12018146D02*
X8936348Y-12018146D01*
X8936348Y-12018146D02*
X8917301Y-12008622D01*
X8917301Y-12008622D02*
X8907777Y-11999098D01*
X8907777Y-11999098D02*
X8898253Y-11980051D01*
X8898253Y-11980051D02*
X8888729Y-11941955D01*
X8888729Y-11941955D02*
X8888729Y-11894336D01*
X8888729Y-11894336D02*
X8898253Y-11856241D01*
X8898253Y-11856241D02*
X8907777Y-11837193D01*
X8907777Y-11837193D02*
X8917301Y-11827670D01*
X8917301Y-11827670D02*
X8936348Y-11818146D01*
X9193491Y-12018146D02*
X9079205Y-12018146D01*
X9136348Y-12018146D02*
X9136348Y-11818146D01*
X9136348Y-11818146D02*
X9117301Y-11846717D01*
X9117301Y-11846717D02*
X9098253Y-11865765D01*
X9098253Y-11865765D02*
X9079205Y-11875289D01*
X9383967Y-12018146D02*
X9269682Y-12018146D01*
X9326824Y-12018146D02*
X9326824Y-11818146D01*
X9326824Y-11818146D02*
X9307777Y-11846717D01*
X9307777Y-11846717D02*
X9288729Y-11865765D01*
X9288729Y-11865765D02*
X9269682Y-11875289D01*
X9498253Y-11903860D02*
X9479205Y-11894336D01*
X9479205Y-11894336D02*
X9469682Y-11884812D01*
X9469682Y-11884812D02*
X9460158Y-11865765D01*
X9460158Y-11865765D02*
X9460158Y-11856241D01*
X9460158Y-11856241D02*
X9469682Y-11837193D01*
X9469682Y-11837193D02*
X9479205Y-11827670D01*
X9479205Y-11827670D02*
X9498253Y-11818146D01*
X9498253Y-11818146D02*
X9536348Y-11818146D01*
X9536348Y-11818146D02*
X9555396Y-11827670D01*
X9555396Y-11827670D02*
X9564920Y-11837193D01*
X9564920Y-11837193D02*
X9574444Y-11856241D01*
X9574444Y-11856241D02*
X9574444Y-11865765D01*
X9574444Y-11865765D02*
X9564920Y-11884812D01*
X9564920Y-11884812D02*
X9555396Y-11894336D01*
X9555396Y-11894336D02*
X9536348Y-11903860D01*
X9536348Y-11903860D02*
X9498253Y-11903860D01*
X9498253Y-11903860D02*
X9479205Y-11913384D01*
X9479205Y-11913384D02*
X9469682Y-11922908D01*
X9469682Y-11922908D02*
X9460158Y-11941955D01*
X9460158Y-11941955D02*
X9460158Y-11980051D01*
X9460158Y-11980051D02*
X9469682Y-11999098D01*
X9469682Y-11999098D02*
X9479205Y-12008622D01*
X9479205Y-12008622D02*
X9498253Y-12018146D01*
X9498253Y-12018146D02*
X9536348Y-12018146D01*
X9536348Y-12018146D02*
X9555396Y-12008622D01*
X9555396Y-12008622D02*
X9564920Y-11999098D01*
X9564920Y-11999098D02*
X9574444Y-11980051D01*
X9574444Y-11980051D02*
X9574444Y-11941955D01*
X9574444Y-11941955D02*
X9564920Y-11922908D01*
X9564920Y-11922908D02*
X9555396Y-11913384D01*
X9555396Y-11913384D02*
X9536348Y-11903860D01*
X9650634Y-11818146D02*
X9650634Y-11856241D01*
X9726825Y-11818146D02*
X9726825Y-11856241D01*
X10022063Y-12094336D02*
X10012539Y-12084812D01*
X10012539Y-12084812D02*
X9993491Y-12056241D01*
X9993491Y-12056241D02*
X9983967Y-12037193D01*
X9983967Y-12037193D02*
X9974444Y-12008622D01*
X9974444Y-12008622D02*
X9964920Y-11961003D01*
X9964920Y-11961003D02*
X9964920Y-11922908D01*
X9964920Y-11922908D02*
X9974444Y-11875289D01*
X9974444Y-11875289D02*
X9983967Y-11846717D01*
X9983967Y-11846717D02*
X9993491Y-11827670D01*
X9993491Y-11827670D02*
X10012539Y-11799098D01*
X10012539Y-11799098D02*
X10022063Y-11789574D01*
X10203015Y-12018146D02*
X10088729Y-12018146D01*
X10145872Y-12018146D02*
X10145872Y-11818146D01*
X10145872Y-11818146D02*
X10126825Y-11846717D01*
X10126825Y-11846717D02*
X10107777Y-11865765D01*
X10107777Y-11865765D02*
X10088729Y-11875289D01*
X10374444Y-11884812D02*
X10374444Y-12018146D01*
X10326825Y-11808622D02*
X10279206Y-11951479D01*
X10279206Y-11951479D02*
X10403015Y-11951479D01*
X10631587Y-12018146D02*
X10631587Y-11818146D01*
X10717301Y-12018146D02*
X10717301Y-11913384D01*
X10717301Y-11913384D02*
X10707777Y-11894336D01*
X10707777Y-11894336D02*
X10688729Y-11884812D01*
X10688729Y-11884812D02*
X10660158Y-11884812D01*
X10660158Y-11884812D02*
X10641110Y-11894336D01*
X10641110Y-11894336D02*
X10631587Y-11903860D01*
X10841110Y-12018146D02*
X10822063Y-12008622D01*
X10822063Y-12008622D02*
X10812539Y-11999098D01*
X10812539Y-11999098D02*
X10803015Y-11980051D01*
X10803015Y-11980051D02*
X10803015Y-11922908D01*
X10803015Y-11922908D02*
X10812539Y-11903860D01*
X10812539Y-11903860D02*
X10822063Y-11894336D01*
X10822063Y-11894336D02*
X10841110Y-11884812D01*
X10841110Y-11884812D02*
X10869682Y-11884812D01*
X10869682Y-11884812D02*
X10888729Y-11894336D01*
X10888729Y-11894336D02*
X10898253Y-11903860D01*
X10898253Y-11903860D02*
X10907777Y-11922908D01*
X10907777Y-11922908D02*
X10907777Y-11980051D01*
X10907777Y-11980051D02*
X10898253Y-11999098D01*
X10898253Y-11999098D02*
X10888729Y-12008622D01*
X10888729Y-12008622D02*
X10869682Y-12018146D01*
X10869682Y-12018146D02*
X10841110Y-12018146D01*
X11022063Y-12018146D02*
X11003015Y-12008622D01*
X11003015Y-12008622D02*
X10993491Y-11989574D01*
X10993491Y-11989574D02*
X10993491Y-11818146D01*
X11174444Y-12008622D02*
X11155396Y-12018146D01*
X11155396Y-12018146D02*
X11117301Y-12018146D01*
X11117301Y-12018146D02*
X11098253Y-12008622D01*
X11098253Y-12008622D02*
X11088729Y-11989574D01*
X11088729Y-11989574D02*
X11088729Y-11913384D01*
X11088729Y-11913384D02*
X11098253Y-11894336D01*
X11098253Y-11894336D02*
X11117301Y-11884812D01*
X11117301Y-11884812D02*
X11155396Y-11884812D01*
X11155396Y-11884812D02*
X11174444Y-11894336D01*
X11174444Y-11894336D02*
X11183968Y-11913384D01*
X11183968Y-11913384D02*
X11183968Y-11932432D01*
X11183968Y-11932432D02*
X11088729Y-11951479D01*
X11260158Y-12008622D02*
X11279206Y-12018146D01*
X11279206Y-12018146D02*
X11317301Y-12018146D01*
X11317301Y-12018146D02*
X11336348Y-12008622D01*
X11336348Y-12008622D02*
X11345872Y-11989574D01*
X11345872Y-11989574D02*
X11345872Y-11980051D01*
X11345872Y-11980051D02*
X11336348Y-11961003D01*
X11336348Y-11961003D02*
X11317301Y-11951479D01*
X11317301Y-11951479D02*
X11288729Y-11951479D01*
X11288729Y-11951479D02*
X11269682Y-11941955D01*
X11269682Y-11941955D02*
X11260158Y-11922908D01*
X11260158Y-11922908D02*
X11260158Y-11913384D01*
X11260158Y-11913384D02*
X11269682Y-11894336D01*
X11269682Y-11894336D02*
X11288729Y-11884812D01*
X11288729Y-11884812D02*
X11317301Y-11884812D01*
X11317301Y-11884812D02*
X11336348Y-11894336D01*
X11412539Y-12094336D02*
X11422063Y-12084812D01*
X11422063Y-12084812D02*
X11441110Y-12056241D01*
X11441110Y-12056241D02*
X11450634Y-12037193D01*
X11450634Y-12037193D02*
X11460158Y-12008622D01*
X11460158Y-12008622D02*
X11469682Y-11961003D01*
X11469682Y-11961003D02*
X11469682Y-11922908D01*
X11469682Y-11922908D02*
X11460158Y-11875289D01*
X11460158Y-11875289D02*
X11450634Y-11846717D01*
X11450634Y-11846717D02*
X11441110Y-11827670D01*
X11441110Y-11827670D02*
X11422063Y-11799098D01*
X11422063Y-11799098D02*
X11412539Y-11789574D01*
D10*
X6427000Y-12170662D02*
X6427000Y-12210662D01*
X6407000Y-12190662D02*
X6447000Y-12190662D01*
D11*
X6745872Y-12082146D02*
X6764919Y-12082146D01*
X6764919Y-12082146D02*
X6783967Y-12091670D01*
X6783967Y-12091670D02*
X6793491Y-12101193D01*
X6793491Y-12101193D02*
X6803015Y-12120241D01*
X6803015Y-12120241D02*
X6812538Y-12158336D01*
X6812538Y-12158336D02*
X6812538Y-12205955D01*
X6812538Y-12205955D02*
X6803015Y-12244051D01*
X6803015Y-12244051D02*
X6793491Y-12263098D01*
X6793491Y-12263098D02*
X6783967Y-12272622D01*
X6783967Y-12272622D02*
X6764919Y-12282146D01*
X6764919Y-12282146D02*
X6745872Y-12282146D01*
X6745872Y-12282146D02*
X6726824Y-12272622D01*
X6726824Y-12272622D02*
X6717300Y-12263098D01*
X6717300Y-12263098D02*
X6707777Y-12244051D01*
X6707777Y-12244051D02*
X6698253Y-12205955D01*
X6698253Y-12205955D02*
X6698253Y-12158336D01*
X6698253Y-12158336D02*
X6707777Y-12120241D01*
X6707777Y-12120241D02*
X6717300Y-12101193D01*
X6717300Y-12101193D02*
X6726824Y-12091670D01*
X6726824Y-12091670D02*
X6745872Y-12082146D01*
X6898253Y-12263098D02*
X6907777Y-12272622D01*
X6907777Y-12272622D02*
X6898253Y-12282146D01*
X6898253Y-12282146D02*
X6888729Y-12272622D01*
X6888729Y-12272622D02*
X6898253Y-12263098D01*
X6898253Y-12263098D02*
X6898253Y-12282146D01*
X7079205Y-12148812D02*
X7079205Y-12282146D01*
X7031586Y-12072622D02*
X6983967Y-12215479D01*
X6983967Y-12215479D02*
X7107777Y-12215479D01*
X7222062Y-12082146D02*
X7241110Y-12082146D01*
X7241110Y-12082146D02*
X7260158Y-12091670D01*
X7260158Y-12091670D02*
X7269681Y-12101193D01*
X7269681Y-12101193D02*
X7279205Y-12120241D01*
X7279205Y-12120241D02*
X7288729Y-12158336D01*
X7288729Y-12158336D02*
X7288729Y-12205955D01*
X7288729Y-12205955D02*
X7279205Y-12244051D01*
X7279205Y-12244051D02*
X7269681Y-12263098D01*
X7269681Y-12263098D02*
X7260158Y-12272622D01*
X7260158Y-12272622D02*
X7241110Y-12282146D01*
X7241110Y-12282146D02*
X7222062Y-12282146D01*
X7222062Y-12282146D02*
X7203015Y-12272622D01*
X7203015Y-12272622D02*
X7193491Y-12263098D01*
X7193491Y-12263098D02*
X7183967Y-12244051D01*
X7183967Y-12244051D02*
X7174443Y-12205955D01*
X7174443Y-12205955D02*
X7174443Y-12158336D01*
X7174443Y-12158336D02*
X7183967Y-12120241D01*
X7183967Y-12120241D02*
X7193491Y-12101193D01*
X7193491Y-12101193D02*
X7203015Y-12091670D01*
X7203015Y-12091670D02*
X7222062Y-12082146D01*
X7412538Y-12082146D02*
X7431586Y-12082146D01*
X7431586Y-12082146D02*
X7450634Y-12091670D01*
X7450634Y-12091670D02*
X7460158Y-12101193D01*
X7460158Y-12101193D02*
X7469681Y-12120241D01*
X7469681Y-12120241D02*
X7479205Y-12158336D01*
X7479205Y-12158336D02*
X7479205Y-12205955D01*
X7479205Y-12205955D02*
X7469681Y-12244051D01*
X7469681Y-12244051D02*
X7460158Y-12263098D01*
X7460158Y-12263098D02*
X7450634Y-12272622D01*
X7450634Y-12272622D02*
X7431586Y-12282146D01*
X7431586Y-12282146D02*
X7412538Y-12282146D01*
X7412538Y-12282146D02*
X7393491Y-12272622D01*
X7393491Y-12272622D02*
X7383967Y-12263098D01*
X7383967Y-12263098D02*
X7374443Y-12244051D01*
X7374443Y-12244051D02*
X7364919Y-12205955D01*
X7364919Y-12205955D02*
X7364919Y-12158336D01*
X7364919Y-12158336D02*
X7374443Y-12120241D01*
X7374443Y-12120241D02*
X7383967Y-12101193D01*
X7383967Y-12101193D02*
X7393491Y-12091670D01*
X7393491Y-12091670D02*
X7412538Y-12082146D01*
X7564919Y-12282146D02*
X7564919Y-12148812D01*
X7564919Y-12167860D02*
X7574443Y-12158336D01*
X7574443Y-12158336D02*
X7593491Y-12148812D01*
X7593491Y-12148812D02*
X7622062Y-12148812D01*
X7622062Y-12148812D02*
X7641110Y-12158336D01*
X7641110Y-12158336D02*
X7650634Y-12177384D01*
X7650634Y-12177384D02*
X7650634Y-12282146D01*
X7650634Y-12177384D02*
X7660158Y-12158336D01*
X7660158Y-12158336D02*
X7679205Y-12148812D01*
X7679205Y-12148812D02*
X7707777Y-12148812D01*
X7707777Y-12148812D02*
X7726824Y-12158336D01*
X7726824Y-12158336D02*
X7736348Y-12177384D01*
X7736348Y-12177384D02*
X7736348Y-12282146D01*
X7831586Y-12282146D02*
X7831586Y-12148812D01*
X7831586Y-12167860D02*
X7841110Y-12158336D01*
X7841110Y-12158336D02*
X7860158Y-12148812D01*
X7860158Y-12148812D02*
X7888729Y-12148812D01*
X7888729Y-12148812D02*
X7907777Y-12158336D01*
X7907777Y-12158336D02*
X7917300Y-12177384D01*
X7917300Y-12177384D02*
X7917300Y-12282146D01*
X7917300Y-12177384D02*
X7926824Y-12158336D01*
X7926824Y-12158336D02*
X7945872Y-12148812D01*
X7945872Y-12148812D02*
X7974443Y-12148812D01*
X7974443Y-12148812D02*
X7993491Y-12158336D01*
X7993491Y-12158336D02*
X8003015Y-12177384D01*
X8003015Y-12177384D02*
X8003015Y-12282146D01*
X8393491Y-12072622D02*
X8222062Y-12329765D01*
X8650634Y-12082146D02*
X8669682Y-12082146D01*
X8669682Y-12082146D02*
X8688729Y-12091670D01*
X8688729Y-12091670D02*
X8698253Y-12101193D01*
X8698253Y-12101193D02*
X8707777Y-12120241D01*
X8707777Y-12120241D02*
X8717301Y-12158336D01*
X8717301Y-12158336D02*
X8717301Y-12205955D01*
X8717301Y-12205955D02*
X8707777Y-12244051D01*
X8707777Y-12244051D02*
X8698253Y-12263098D01*
X8698253Y-12263098D02*
X8688729Y-12272622D01*
X8688729Y-12272622D02*
X8669682Y-12282146D01*
X8669682Y-12282146D02*
X8650634Y-12282146D01*
X8650634Y-12282146D02*
X8631586Y-12272622D01*
X8631586Y-12272622D02*
X8622063Y-12263098D01*
X8622063Y-12263098D02*
X8612539Y-12244051D01*
X8612539Y-12244051D02*
X8603015Y-12205955D01*
X8603015Y-12205955D02*
X8603015Y-12158336D01*
X8603015Y-12158336D02*
X8612539Y-12120241D01*
X8612539Y-12120241D02*
X8622063Y-12101193D01*
X8622063Y-12101193D02*
X8631586Y-12091670D01*
X8631586Y-12091670D02*
X8650634Y-12082146D01*
X8803015Y-12263098D02*
X8812539Y-12272622D01*
X8812539Y-12272622D02*
X8803015Y-12282146D01*
X8803015Y-12282146D02*
X8793491Y-12272622D01*
X8793491Y-12272622D02*
X8803015Y-12263098D01*
X8803015Y-12263098D02*
X8803015Y-12282146D01*
X8936348Y-12082146D02*
X8955396Y-12082146D01*
X8955396Y-12082146D02*
X8974444Y-12091670D01*
X8974444Y-12091670D02*
X8983967Y-12101193D01*
X8983967Y-12101193D02*
X8993491Y-12120241D01*
X8993491Y-12120241D02*
X9003015Y-12158336D01*
X9003015Y-12158336D02*
X9003015Y-12205955D01*
X9003015Y-12205955D02*
X8993491Y-12244051D01*
X8993491Y-12244051D02*
X8983967Y-12263098D01*
X8983967Y-12263098D02*
X8974444Y-12272622D01*
X8974444Y-12272622D02*
X8955396Y-12282146D01*
X8955396Y-12282146D02*
X8936348Y-12282146D01*
X8936348Y-12282146D02*
X8917301Y-12272622D01*
X8917301Y-12272622D02*
X8907777Y-12263098D01*
X8907777Y-12263098D02*
X8898253Y-12244051D01*
X8898253Y-12244051D02*
X8888729Y-12205955D01*
X8888729Y-12205955D02*
X8888729Y-12158336D01*
X8888729Y-12158336D02*
X8898253Y-12120241D01*
X8898253Y-12120241D02*
X8907777Y-12101193D01*
X8907777Y-12101193D02*
X8917301Y-12091670D01*
X8917301Y-12091670D02*
X8936348Y-12082146D01*
X9193491Y-12282146D02*
X9079205Y-12282146D01*
X9136348Y-12282146D02*
X9136348Y-12082146D01*
X9136348Y-12082146D02*
X9117301Y-12110717D01*
X9117301Y-12110717D02*
X9098253Y-12129765D01*
X9098253Y-12129765D02*
X9079205Y-12139289D01*
X9374444Y-12082146D02*
X9279205Y-12082146D01*
X9279205Y-12082146D02*
X9269682Y-12177384D01*
X9269682Y-12177384D02*
X9279205Y-12167860D01*
X9279205Y-12167860D02*
X9298253Y-12158336D01*
X9298253Y-12158336D02*
X9345872Y-12158336D01*
X9345872Y-12158336D02*
X9364920Y-12167860D01*
X9364920Y-12167860D02*
X9374444Y-12177384D01*
X9374444Y-12177384D02*
X9383967Y-12196432D01*
X9383967Y-12196432D02*
X9383967Y-12244051D01*
X9383967Y-12244051D02*
X9374444Y-12263098D01*
X9374444Y-12263098D02*
X9364920Y-12272622D01*
X9364920Y-12272622D02*
X9345872Y-12282146D01*
X9345872Y-12282146D02*
X9298253Y-12282146D01*
X9298253Y-12282146D02*
X9279205Y-12272622D01*
X9279205Y-12272622D02*
X9269682Y-12263098D01*
X9450634Y-12082146D02*
X9583967Y-12082146D01*
X9583967Y-12082146D02*
X9498253Y-12282146D01*
X9650634Y-12082146D02*
X9650634Y-12120241D01*
X9726825Y-12082146D02*
X9726825Y-12120241D01*
X10022063Y-12358336D02*
X10012539Y-12348812D01*
X10012539Y-12348812D02*
X9993491Y-12320241D01*
X9993491Y-12320241D02*
X9983967Y-12301193D01*
X9983967Y-12301193D02*
X9974444Y-12272622D01*
X9974444Y-12272622D02*
X9964920Y-12225003D01*
X9964920Y-12225003D02*
X9964920Y-12186908D01*
X9964920Y-12186908D02*
X9974444Y-12139289D01*
X9974444Y-12139289D02*
X9983967Y-12110717D01*
X9983967Y-12110717D02*
X9993491Y-12091670D01*
X9993491Y-12091670D02*
X10012539Y-12063098D01*
X10012539Y-12063098D02*
X10022063Y-12053574D01*
X10193491Y-12082146D02*
X10098253Y-12082146D01*
X10098253Y-12082146D02*
X10088729Y-12177384D01*
X10088729Y-12177384D02*
X10098253Y-12167860D01*
X10098253Y-12167860D02*
X10117301Y-12158336D01*
X10117301Y-12158336D02*
X10164920Y-12158336D01*
X10164920Y-12158336D02*
X10183967Y-12167860D01*
X10183967Y-12167860D02*
X10193491Y-12177384D01*
X10193491Y-12177384D02*
X10203015Y-12196432D01*
X10203015Y-12196432D02*
X10203015Y-12244051D01*
X10203015Y-12244051D02*
X10193491Y-12263098D01*
X10193491Y-12263098D02*
X10183967Y-12272622D01*
X10183967Y-12272622D02*
X10164920Y-12282146D01*
X10164920Y-12282146D02*
X10117301Y-12282146D01*
X10117301Y-12282146D02*
X10098253Y-12272622D01*
X10098253Y-12272622D02*
X10088729Y-12263098D01*
X10441110Y-12282146D02*
X10441110Y-12082146D01*
X10526825Y-12282146D02*
X10526825Y-12177384D01*
X10526825Y-12177384D02*
X10517301Y-12158336D01*
X10517301Y-12158336D02*
X10498253Y-12148812D01*
X10498253Y-12148812D02*
X10469682Y-12148812D01*
X10469682Y-12148812D02*
X10450634Y-12158336D01*
X10450634Y-12158336D02*
X10441110Y-12167860D01*
X10650634Y-12282146D02*
X10631587Y-12272622D01*
X10631587Y-12272622D02*
X10622063Y-12263098D01*
X10622063Y-12263098D02*
X10612539Y-12244051D01*
X10612539Y-12244051D02*
X10612539Y-12186908D01*
X10612539Y-12186908D02*
X10622063Y-12167860D01*
X10622063Y-12167860D02*
X10631587Y-12158336D01*
X10631587Y-12158336D02*
X10650634Y-12148812D01*
X10650634Y-12148812D02*
X10679206Y-12148812D01*
X10679206Y-12148812D02*
X10698253Y-12158336D01*
X10698253Y-12158336D02*
X10707777Y-12167860D01*
X10707777Y-12167860D02*
X10717301Y-12186908D01*
X10717301Y-12186908D02*
X10717301Y-12244051D01*
X10717301Y-12244051D02*
X10707777Y-12263098D01*
X10707777Y-12263098D02*
X10698253Y-12272622D01*
X10698253Y-12272622D02*
X10679206Y-12282146D01*
X10679206Y-12282146D02*
X10650634Y-12282146D01*
X10831587Y-12282146D02*
X10812539Y-12272622D01*
X10812539Y-12272622D02*
X10803015Y-12253574D01*
X10803015Y-12253574D02*
X10803015Y-12082146D01*
X10983968Y-12272622D02*
X10964920Y-12282146D01*
X10964920Y-12282146D02*
X10926825Y-12282146D01*
X10926825Y-12282146D02*
X10907777Y-12272622D01*
X10907777Y-12272622D02*
X10898253Y-12253574D01*
X10898253Y-12253574D02*
X10898253Y-12177384D01*
X10898253Y-12177384D02*
X10907777Y-12158336D01*
X10907777Y-12158336D02*
X10926825Y-12148812D01*
X10926825Y-12148812D02*
X10964920Y-12148812D01*
X10964920Y-12148812D02*
X10983968Y-12158336D01*
X10983968Y-12158336D02*
X10993491Y-12177384D01*
X10993491Y-12177384D02*
X10993491Y-12196432D01*
X10993491Y-12196432D02*
X10898253Y-12215479D01*
X11069682Y-12272622D02*
X11088729Y-12282146D01*
X11088729Y-12282146D02*
X11126825Y-12282146D01*
X11126825Y-12282146D02*
X11145872Y-12272622D01*
X11145872Y-12272622D02*
X11155396Y-12253574D01*
X11155396Y-12253574D02*
X11155396Y-12244051D01*
X11155396Y-12244051D02*
X11145872Y-12225003D01*
X11145872Y-12225003D02*
X11126825Y-12215479D01*
X11126825Y-12215479D02*
X11098253Y-12215479D01*
X11098253Y-12215479D02*
X11079206Y-12205955D01*
X11079206Y-12205955D02*
X11069682Y-12186908D01*
X11069682Y-12186908D02*
X11069682Y-12177384D01*
X11069682Y-12177384D02*
X11079206Y-12158336D01*
X11079206Y-12158336D02*
X11098253Y-12148812D01*
X11098253Y-12148812D02*
X11126825Y-12148812D01*
X11126825Y-12148812D02*
X11145872Y-12158336D01*
X11222063Y-12358336D02*
X11231587Y-12348812D01*
X11231587Y-12348812D02*
X11250634Y-12320241D01*
X11250634Y-12320241D02*
X11260158Y-12301193D01*
X11260158Y-12301193D02*
X11269682Y-12272622D01*
X11269682Y-12272622D02*
X11279206Y-12225003D01*
X11279206Y-12225003D02*
X11279206Y-12186908D01*
X11279206Y-12186908D02*
X11269682Y-12139289D01*
X11269682Y-12139289D02*
X11260158Y-12110717D01*
X11260158Y-12110717D02*
X11250634Y-12091670D01*
X11250634Y-12091670D02*
X11231587Y-12063098D01*
X11231587Y-12063098D02*
X11222063Y-12053574D01*
D10*
X6439678Y-12472340D02*
X6439678Y-12436984D01*
X6404322Y-12436984D01*
X6404322Y-12472340D01*
X6439678Y-12472340D01*
D11*
X6745872Y-12346146D02*
X6764919Y-12346146D01*
X6764919Y-12346146D02*
X6783967Y-12355670D01*
X6783967Y-12355670D02*
X6793491Y-12365193D01*
X6793491Y-12365193D02*
X6803015Y-12384241D01*
X6803015Y-12384241D02*
X6812538Y-12422336D01*
X6812538Y-12422336D02*
X6812538Y-12469955D01*
X6812538Y-12469955D02*
X6803015Y-12508051D01*
X6803015Y-12508051D02*
X6793491Y-12527098D01*
X6793491Y-12527098D02*
X6783967Y-12536622D01*
X6783967Y-12536622D02*
X6764919Y-12546146D01*
X6764919Y-12546146D02*
X6745872Y-12546146D01*
X6745872Y-12546146D02*
X6726824Y-12536622D01*
X6726824Y-12536622D02*
X6717300Y-12527098D01*
X6717300Y-12527098D02*
X6707777Y-12508051D01*
X6707777Y-12508051D02*
X6698253Y-12469955D01*
X6698253Y-12469955D02*
X6698253Y-12422336D01*
X6698253Y-12422336D02*
X6707777Y-12384241D01*
X6707777Y-12384241D02*
X6717300Y-12365193D01*
X6717300Y-12365193D02*
X6726824Y-12355670D01*
X6726824Y-12355670D02*
X6745872Y-12346146D01*
X6898253Y-12527098D02*
X6907777Y-12536622D01*
X6907777Y-12536622D02*
X6898253Y-12546146D01*
X6898253Y-12546146D02*
X6888729Y-12536622D01*
X6888729Y-12536622D02*
X6898253Y-12527098D01*
X6898253Y-12527098D02*
X6898253Y-12546146D01*
X7088729Y-12346146D02*
X6993491Y-12346146D01*
X6993491Y-12346146D02*
X6983967Y-12441384D01*
X6983967Y-12441384D02*
X6993491Y-12431860D01*
X6993491Y-12431860D02*
X7012538Y-12422336D01*
X7012538Y-12422336D02*
X7060158Y-12422336D01*
X7060158Y-12422336D02*
X7079205Y-12431860D01*
X7079205Y-12431860D02*
X7088729Y-12441384D01*
X7088729Y-12441384D02*
X7098253Y-12460432D01*
X7098253Y-12460432D02*
X7098253Y-12508051D01*
X7098253Y-12508051D02*
X7088729Y-12527098D01*
X7088729Y-12527098D02*
X7079205Y-12536622D01*
X7079205Y-12536622D02*
X7060158Y-12546146D01*
X7060158Y-12546146D02*
X7012538Y-12546146D01*
X7012538Y-12546146D02*
X6993491Y-12536622D01*
X6993491Y-12536622D02*
X6983967Y-12527098D01*
X7222062Y-12346146D02*
X7241110Y-12346146D01*
X7241110Y-12346146D02*
X7260158Y-12355670D01*
X7260158Y-12355670D02*
X7269681Y-12365193D01*
X7269681Y-12365193D02*
X7279205Y-12384241D01*
X7279205Y-12384241D02*
X7288729Y-12422336D01*
X7288729Y-12422336D02*
X7288729Y-12469955D01*
X7288729Y-12469955D02*
X7279205Y-12508051D01*
X7279205Y-12508051D02*
X7269681Y-12527098D01*
X7269681Y-12527098D02*
X7260158Y-12536622D01*
X7260158Y-12536622D02*
X7241110Y-12546146D01*
X7241110Y-12546146D02*
X7222062Y-12546146D01*
X7222062Y-12546146D02*
X7203015Y-12536622D01*
X7203015Y-12536622D02*
X7193491Y-12527098D01*
X7193491Y-12527098D02*
X7183967Y-12508051D01*
X7183967Y-12508051D02*
X7174443Y-12469955D01*
X7174443Y-12469955D02*
X7174443Y-12422336D01*
X7174443Y-12422336D02*
X7183967Y-12384241D01*
X7183967Y-12384241D02*
X7193491Y-12365193D01*
X7193491Y-12365193D02*
X7203015Y-12355670D01*
X7203015Y-12355670D02*
X7222062Y-12346146D01*
X7412538Y-12346146D02*
X7431586Y-12346146D01*
X7431586Y-12346146D02*
X7450634Y-12355670D01*
X7450634Y-12355670D02*
X7460158Y-12365193D01*
X7460158Y-12365193D02*
X7469681Y-12384241D01*
X7469681Y-12384241D02*
X7479205Y-12422336D01*
X7479205Y-12422336D02*
X7479205Y-12469955D01*
X7479205Y-12469955D02*
X7469681Y-12508051D01*
X7469681Y-12508051D02*
X7460158Y-12527098D01*
X7460158Y-12527098D02*
X7450634Y-12536622D01*
X7450634Y-12536622D02*
X7431586Y-12546146D01*
X7431586Y-12546146D02*
X7412538Y-12546146D01*
X7412538Y-12546146D02*
X7393491Y-12536622D01*
X7393491Y-12536622D02*
X7383967Y-12527098D01*
X7383967Y-12527098D02*
X7374443Y-12508051D01*
X7374443Y-12508051D02*
X7364919Y-12469955D01*
X7364919Y-12469955D02*
X7364919Y-12422336D01*
X7364919Y-12422336D02*
X7374443Y-12384241D01*
X7374443Y-12384241D02*
X7383967Y-12365193D01*
X7383967Y-12365193D02*
X7393491Y-12355670D01*
X7393491Y-12355670D02*
X7412538Y-12346146D01*
X7564919Y-12546146D02*
X7564919Y-12412812D01*
X7564919Y-12431860D02*
X7574443Y-12422336D01*
X7574443Y-12422336D02*
X7593491Y-12412812D01*
X7593491Y-12412812D02*
X7622062Y-12412812D01*
X7622062Y-12412812D02*
X7641110Y-12422336D01*
X7641110Y-12422336D02*
X7650634Y-12441384D01*
X7650634Y-12441384D02*
X7650634Y-12546146D01*
X7650634Y-12441384D02*
X7660158Y-12422336D01*
X7660158Y-12422336D02*
X7679205Y-12412812D01*
X7679205Y-12412812D02*
X7707777Y-12412812D01*
X7707777Y-12412812D02*
X7726824Y-12422336D01*
X7726824Y-12422336D02*
X7736348Y-12441384D01*
X7736348Y-12441384D02*
X7736348Y-12546146D01*
X7831586Y-12546146D02*
X7831586Y-12412812D01*
X7831586Y-12431860D02*
X7841110Y-12422336D01*
X7841110Y-12422336D02*
X7860158Y-12412812D01*
X7860158Y-12412812D02*
X7888729Y-12412812D01*
X7888729Y-12412812D02*
X7907777Y-12422336D01*
X7907777Y-12422336D02*
X7917300Y-12441384D01*
X7917300Y-12441384D02*
X7917300Y-12546146D01*
X7917300Y-12441384D02*
X7926824Y-12422336D01*
X7926824Y-12422336D02*
X7945872Y-12412812D01*
X7945872Y-12412812D02*
X7974443Y-12412812D01*
X7974443Y-12412812D02*
X7993491Y-12422336D01*
X7993491Y-12422336D02*
X8003015Y-12441384D01*
X8003015Y-12441384D02*
X8003015Y-12546146D01*
X8393491Y-12336622D02*
X8222062Y-12593765D01*
X8650634Y-12346146D02*
X8669682Y-12346146D01*
X8669682Y-12346146D02*
X8688729Y-12355670D01*
X8688729Y-12355670D02*
X8698253Y-12365193D01*
X8698253Y-12365193D02*
X8707777Y-12384241D01*
X8707777Y-12384241D02*
X8717301Y-12422336D01*
X8717301Y-12422336D02*
X8717301Y-12469955D01*
X8717301Y-12469955D02*
X8707777Y-12508051D01*
X8707777Y-12508051D02*
X8698253Y-12527098D01*
X8698253Y-12527098D02*
X8688729Y-12536622D01*
X8688729Y-12536622D02*
X8669682Y-12546146D01*
X8669682Y-12546146D02*
X8650634Y-12546146D01*
X8650634Y-12546146D02*
X8631586Y-12536622D01*
X8631586Y-12536622D02*
X8622063Y-12527098D01*
X8622063Y-12527098D02*
X8612539Y-12508051D01*
X8612539Y-12508051D02*
X8603015Y-12469955D01*
X8603015Y-12469955D02*
X8603015Y-12422336D01*
X8603015Y-12422336D02*
X8612539Y-12384241D01*
X8612539Y-12384241D02*
X8622063Y-12365193D01*
X8622063Y-12365193D02*
X8631586Y-12355670D01*
X8631586Y-12355670D02*
X8650634Y-12346146D01*
X8803015Y-12527098D02*
X8812539Y-12536622D01*
X8812539Y-12536622D02*
X8803015Y-12546146D01*
X8803015Y-12546146D02*
X8793491Y-12536622D01*
X8793491Y-12536622D02*
X8803015Y-12527098D01*
X8803015Y-12527098D02*
X8803015Y-12546146D01*
X8936348Y-12346146D02*
X8955396Y-12346146D01*
X8955396Y-12346146D02*
X8974444Y-12355670D01*
X8974444Y-12355670D02*
X8983967Y-12365193D01*
X8983967Y-12365193D02*
X8993491Y-12384241D01*
X8993491Y-12384241D02*
X9003015Y-12422336D01*
X9003015Y-12422336D02*
X9003015Y-12469955D01*
X9003015Y-12469955D02*
X8993491Y-12508051D01*
X8993491Y-12508051D02*
X8983967Y-12527098D01*
X8983967Y-12527098D02*
X8974444Y-12536622D01*
X8974444Y-12536622D02*
X8955396Y-12546146D01*
X8955396Y-12546146D02*
X8936348Y-12546146D01*
X8936348Y-12546146D02*
X8917301Y-12536622D01*
X8917301Y-12536622D02*
X8907777Y-12527098D01*
X8907777Y-12527098D02*
X8898253Y-12508051D01*
X8898253Y-12508051D02*
X8888729Y-12469955D01*
X8888729Y-12469955D02*
X8888729Y-12422336D01*
X8888729Y-12422336D02*
X8898253Y-12384241D01*
X8898253Y-12384241D02*
X8907777Y-12365193D01*
X8907777Y-12365193D02*
X8917301Y-12355670D01*
X8917301Y-12355670D02*
X8936348Y-12346146D01*
X9193491Y-12546146D02*
X9079205Y-12546146D01*
X9136348Y-12546146D02*
X9136348Y-12346146D01*
X9136348Y-12346146D02*
X9117301Y-12374717D01*
X9117301Y-12374717D02*
X9098253Y-12393765D01*
X9098253Y-12393765D02*
X9079205Y-12403289D01*
X9288729Y-12546146D02*
X9326824Y-12546146D01*
X9326824Y-12546146D02*
X9345872Y-12536622D01*
X9345872Y-12536622D02*
X9355396Y-12527098D01*
X9355396Y-12527098D02*
X9374444Y-12498527D01*
X9374444Y-12498527D02*
X9383967Y-12460432D01*
X9383967Y-12460432D02*
X9383967Y-12384241D01*
X9383967Y-12384241D02*
X9374444Y-12365193D01*
X9374444Y-12365193D02*
X9364920Y-12355670D01*
X9364920Y-12355670D02*
X9345872Y-12346146D01*
X9345872Y-12346146D02*
X9307777Y-12346146D01*
X9307777Y-12346146D02*
X9288729Y-12355670D01*
X9288729Y-12355670D02*
X9279205Y-12365193D01*
X9279205Y-12365193D02*
X9269682Y-12384241D01*
X9269682Y-12384241D02*
X9269682Y-12431860D01*
X9269682Y-12431860D02*
X9279205Y-12450908D01*
X9279205Y-12450908D02*
X9288729Y-12460432D01*
X9288729Y-12460432D02*
X9307777Y-12469955D01*
X9307777Y-12469955D02*
X9345872Y-12469955D01*
X9345872Y-12469955D02*
X9364920Y-12460432D01*
X9364920Y-12460432D02*
X9374444Y-12450908D01*
X9374444Y-12450908D02*
X9383967Y-12431860D01*
X9450634Y-12346146D02*
X9583967Y-12346146D01*
X9583967Y-12346146D02*
X9498253Y-12546146D01*
X9650634Y-12346146D02*
X9650634Y-12384241D01*
X9726825Y-12346146D02*
X9726825Y-12384241D01*
X10022063Y-12622336D02*
X10012539Y-12612812D01*
X10012539Y-12612812D02*
X9993491Y-12584241D01*
X9993491Y-12584241D02*
X9983967Y-12565193D01*
X9983967Y-12565193D02*
X9974444Y-12536622D01*
X9974444Y-12536622D02*
X9964920Y-12489003D01*
X9964920Y-12489003D02*
X9964920Y-12450908D01*
X9964920Y-12450908D02*
X9974444Y-12403289D01*
X9974444Y-12403289D02*
X9983967Y-12374717D01*
X9983967Y-12374717D02*
X9993491Y-12355670D01*
X9993491Y-12355670D02*
X10012539Y-12327098D01*
X10012539Y-12327098D02*
X10022063Y-12317574D01*
X10079206Y-12346146D02*
X10203015Y-12346146D01*
X10203015Y-12346146D02*
X10136348Y-12422336D01*
X10136348Y-12422336D02*
X10164920Y-12422336D01*
X10164920Y-12422336D02*
X10183967Y-12431860D01*
X10183967Y-12431860D02*
X10193491Y-12441384D01*
X10193491Y-12441384D02*
X10203015Y-12460432D01*
X10203015Y-12460432D02*
X10203015Y-12508051D01*
X10203015Y-12508051D02*
X10193491Y-12527098D01*
X10193491Y-12527098D02*
X10183967Y-12536622D01*
X10183967Y-12536622D02*
X10164920Y-12546146D01*
X10164920Y-12546146D02*
X10107777Y-12546146D01*
X10107777Y-12546146D02*
X10088729Y-12536622D01*
X10088729Y-12536622D02*
X10079206Y-12527098D01*
X10279206Y-12365193D02*
X10288729Y-12355670D01*
X10288729Y-12355670D02*
X10307777Y-12346146D01*
X10307777Y-12346146D02*
X10355396Y-12346146D01*
X10355396Y-12346146D02*
X10374444Y-12355670D01*
X10374444Y-12355670D02*
X10383967Y-12365193D01*
X10383967Y-12365193D02*
X10393491Y-12384241D01*
X10393491Y-12384241D02*
X10393491Y-12403289D01*
X10393491Y-12403289D02*
X10383967Y-12431860D01*
X10383967Y-12431860D02*
X10269682Y-12546146D01*
X10269682Y-12546146D02*
X10393491Y-12546146D01*
X10631587Y-12546146D02*
X10631587Y-12346146D01*
X10717301Y-12546146D02*
X10717301Y-12441384D01*
X10717301Y-12441384D02*
X10707777Y-12422336D01*
X10707777Y-12422336D02*
X10688729Y-12412812D01*
X10688729Y-12412812D02*
X10660158Y-12412812D01*
X10660158Y-12412812D02*
X10641110Y-12422336D01*
X10641110Y-12422336D02*
X10631587Y-12431860D01*
X10841110Y-12546146D02*
X10822063Y-12536622D01*
X10822063Y-12536622D02*
X10812539Y-12527098D01*
X10812539Y-12527098D02*
X10803015Y-12508051D01*
X10803015Y-12508051D02*
X10803015Y-12450908D01*
X10803015Y-12450908D02*
X10812539Y-12431860D01*
X10812539Y-12431860D02*
X10822063Y-12422336D01*
X10822063Y-12422336D02*
X10841110Y-12412812D01*
X10841110Y-12412812D02*
X10869682Y-12412812D01*
X10869682Y-12412812D02*
X10888729Y-12422336D01*
X10888729Y-12422336D02*
X10898253Y-12431860D01*
X10898253Y-12431860D02*
X10907777Y-12450908D01*
X10907777Y-12450908D02*
X10907777Y-12508051D01*
X10907777Y-12508051D02*
X10898253Y-12527098D01*
X10898253Y-12527098D02*
X10888729Y-12536622D01*
X10888729Y-12536622D02*
X10869682Y-12546146D01*
X10869682Y-12546146D02*
X10841110Y-12546146D01*
X11022063Y-12546146D02*
X11003015Y-12536622D01*
X11003015Y-12536622D02*
X10993491Y-12517574D01*
X10993491Y-12517574D02*
X10993491Y-12346146D01*
X11174444Y-12536622D02*
X11155396Y-12546146D01*
X11155396Y-12546146D02*
X11117301Y-12546146D01*
X11117301Y-12546146D02*
X11098253Y-12536622D01*
X11098253Y-12536622D02*
X11088729Y-12517574D01*
X11088729Y-12517574D02*
X11088729Y-12441384D01*
X11088729Y-12441384D02*
X11098253Y-12422336D01*
X11098253Y-12422336D02*
X11117301Y-12412812D01*
X11117301Y-12412812D02*
X11155396Y-12412812D01*
X11155396Y-12412812D02*
X11174444Y-12422336D01*
X11174444Y-12422336D02*
X11183968Y-12441384D01*
X11183968Y-12441384D02*
X11183968Y-12460432D01*
X11183968Y-12460432D02*
X11088729Y-12479479D01*
X11260158Y-12536622D02*
X11279206Y-12546146D01*
X11279206Y-12546146D02*
X11317301Y-12546146D01*
X11317301Y-12546146D02*
X11336348Y-12536622D01*
X11336348Y-12536622D02*
X11345872Y-12517574D01*
X11345872Y-12517574D02*
X11345872Y-12508051D01*
X11345872Y-12508051D02*
X11336348Y-12489003D01*
X11336348Y-12489003D02*
X11317301Y-12479479D01*
X11317301Y-12479479D02*
X11288729Y-12479479D01*
X11288729Y-12479479D02*
X11269682Y-12469955D01*
X11269682Y-12469955D02*
X11260158Y-12450908D01*
X11260158Y-12450908D02*
X11260158Y-12441384D01*
X11260158Y-12441384D02*
X11269682Y-12422336D01*
X11269682Y-12422336D02*
X11288729Y-12412812D01*
X11288729Y-12412812D02*
X11317301Y-12412812D01*
X11317301Y-12412812D02*
X11336348Y-12422336D01*
X11412539Y-12622336D02*
X11422063Y-12612812D01*
X11422063Y-12612812D02*
X11441110Y-12584241D01*
X11441110Y-12584241D02*
X11450634Y-12565193D01*
X11450634Y-12565193D02*
X11460158Y-12536622D01*
X11460158Y-12536622D02*
X11469682Y-12489003D01*
X11469682Y-12489003D02*
X11469682Y-12450908D01*
X11469682Y-12450908D02*
X11460158Y-12403289D01*
X11460158Y-12403289D02*
X11450634Y-12374717D01*
X11450634Y-12374717D02*
X11441110Y-12355670D01*
X11441110Y-12355670D02*
X11422063Y-12327098D01*
X11422063Y-12327098D02*
X11412539Y-12317574D01*
D10*
X6422000Y-12743662D02*
X6447000Y-12718662D01*
X6422000Y-12693662D01*
X6397000Y-12718662D01*
X6422000Y-12743662D01*
D11*
X6745872Y-12610146D02*
X6764919Y-12610146D01*
X6764919Y-12610146D02*
X6783967Y-12619670D01*
X6783967Y-12619670D02*
X6793491Y-12629193D01*
X6793491Y-12629193D02*
X6803015Y-12648241D01*
X6803015Y-12648241D02*
X6812538Y-12686336D01*
X6812538Y-12686336D02*
X6812538Y-12733955D01*
X6812538Y-12733955D02*
X6803015Y-12772051D01*
X6803015Y-12772051D02*
X6793491Y-12791098D01*
X6793491Y-12791098D02*
X6783967Y-12800622D01*
X6783967Y-12800622D02*
X6764919Y-12810146D01*
X6764919Y-12810146D02*
X6745872Y-12810146D01*
X6745872Y-12810146D02*
X6726824Y-12800622D01*
X6726824Y-12800622D02*
X6717300Y-12791098D01*
X6717300Y-12791098D02*
X6707777Y-12772051D01*
X6707777Y-12772051D02*
X6698253Y-12733955D01*
X6698253Y-12733955D02*
X6698253Y-12686336D01*
X6698253Y-12686336D02*
X6707777Y-12648241D01*
X6707777Y-12648241D02*
X6717300Y-12629193D01*
X6717300Y-12629193D02*
X6726824Y-12619670D01*
X6726824Y-12619670D02*
X6745872Y-12610146D01*
X6898253Y-12791098D02*
X6907777Y-12800622D01*
X6907777Y-12800622D02*
X6898253Y-12810146D01*
X6898253Y-12810146D02*
X6888729Y-12800622D01*
X6888729Y-12800622D02*
X6898253Y-12791098D01*
X6898253Y-12791098D02*
X6898253Y-12810146D01*
X7088729Y-12610146D02*
X6993491Y-12610146D01*
X6993491Y-12610146D02*
X6983967Y-12705384D01*
X6983967Y-12705384D02*
X6993491Y-12695860D01*
X6993491Y-12695860D02*
X7012538Y-12686336D01*
X7012538Y-12686336D02*
X7060158Y-12686336D01*
X7060158Y-12686336D02*
X7079205Y-12695860D01*
X7079205Y-12695860D02*
X7088729Y-12705384D01*
X7088729Y-12705384D02*
X7098253Y-12724432D01*
X7098253Y-12724432D02*
X7098253Y-12772051D01*
X7098253Y-12772051D02*
X7088729Y-12791098D01*
X7088729Y-12791098D02*
X7079205Y-12800622D01*
X7079205Y-12800622D02*
X7060158Y-12810146D01*
X7060158Y-12810146D02*
X7012538Y-12810146D01*
X7012538Y-12810146D02*
X6993491Y-12800622D01*
X6993491Y-12800622D02*
X6983967Y-12791098D01*
X7222062Y-12610146D02*
X7241110Y-12610146D01*
X7241110Y-12610146D02*
X7260158Y-12619670D01*
X7260158Y-12619670D02*
X7269681Y-12629193D01*
X7269681Y-12629193D02*
X7279205Y-12648241D01*
X7279205Y-12648241D02*
X7288729Y-12686336D01*
X7288729Y-12686336D02*
X7288729Y-12733955D01*
X7288729Y-12733955D02*
X7279205Y-12772051D01*
X7279205Y-12772051D02*
X7269681Y-12791098D01*
X7269681Y-12791098D02*
X7260158Y-12800622D01*
X7260158Y-12800622D02*
X7241110Y-12810146D01*
X7241110Y-12810146D02*
X7222062Y-12810146D01*
X7222062Y-12810146D02*
X7203015Y-12800622D01*
X7203015Y-12800622D02*
X7193491Y-12791098D01*
X7193491Y-12791098D02*
X7183967Y-12772051D01*
X7183967Y-12772051D02*
X7174443Y-12733955D01*
X7174443Y-12733955D02*
X7174443Y-12686336D01*
X7174443Y-12686336D02*
X7183967Y-12648241D01*
X7183967Y-12648241D02*
X7193491Y-12629193D01*
X7193491Y-12629193D02*
X7203015Y-12619670D01*
X7203015Y-12619670D02*
X7222062Y-12610146D01*
X7412538Y-12610146D02*
X7431586Y-12610146D01*
X7431586Y-12610146D02*
X7450634Y-12619670D01*
X7450634Y-12619670D02*
X7460158Y-12629193D01*
X7460158Y-12629193D02*
X7469681Y-12648241D01*
X7469681Y-12648241D02*
X7479205Y-12686336D01*
X7479205Y-12686336D02*
X7479205Y-12733955D01*
X7479205Y-12733955D02*
X7469681Y-12772051D01*
X7469681Y-12772051D02*
X7460158Y-12791098D01*
X7460158Y-12791098D02*
X7450634Y-12800622D01*
X7450634Y-12800622D02*
X7431586Y-12810146D01*
X7431586Y-12810146D02*
X7412538Y-12810146D01*
X7412538Y-12810146D02*
X7393491Y-12800622D01*
X7393491Y-12800622D02*
X7383967Y-12791098D01*
X7383967Y-12791098D02*
X7374443Y-12772051D01*
X7374443Y-12772051D02*
X7364919Y-12733955D01*
X7364919Y-12733955D02*
X7364919Y-12686336D01*
X7364919Y-12686336D02*
X7374443Y-12648241D01*
X7374443Y-12648241D02*
X7383967Y-12629193D01*
X7383967Y-12629193D02*
X7393491Y-12619670D01*
X7393491Y-12619670D02*
X7412538Y-12610146D01*
X7564919Y-12810146D02*
X7564919Y-12676812D01*
X7564919Y-12695860D02*
X7574443Y-12686336D01*
X7574443Y-12686336D02*
X7593491Y-12676812D01*
X7593491Y-12676812D02*
X7622062Y-12676812D01*
X7622062Y-12676812D02*
X7641110Y-12686336D01*
X7641110Y-12686336D02*
X7650634Y-12705384D01*
X7650634Y-12705384D02*
X7650634Y-12810146D01*
X7650634Y-12705384D02*
X7660158Y-12686336D01*
X7660158Y-12686336D02*
X7679205Y-12676812D01*
X7679205Y-12676812D02*
X7707777Y-12676812D01*
X7707777Y-12676812D02*
X7726824Y-12686336D01*
X7726824Y-12686336D02*
X7736348Y-12705384D01*
X7736348Y-12705384D02*
X7736348Y-12810146D01*
X7831586Y-12810146D02*
X7831586Y-12676812D01*
X7831586Y-12695860D02*
X7841110Y-12686336D01*
X7841110Y-12686336D02*
X7860158Y-12676812D01*
X7860158Y-12676812D02*
X7888729Y-12676812D01*
X7888729Y-12676812D02*
X7907777Y-12686336D01*
X7907777Y-12686336D02*
X7917300Y-12705384D01*
X7917300Y-12705384D02*
X7917300Y-12810146D01*
X7917300Y-12705384D02*
X7926824Y-12686336D01*
X7926824Y-12686336D02*
X7945872Y-12676812D01*
X7945872Y-12676812D02*
X7974443Y-12676812D01*
X7974443Y-12676812D02*
X7993491Y-12686336D01*
X7993491Y-12686336D02*
X8003015Y-12705384D01*
X8003015Y-12705384D02*
X8003015Y-12810146D01*
X8393491Y-12600622D02*
X8222062Y-12857765D01*
X8650634Y-12610146D02*
X8669682Y-12610146D01*
X8669682Y-12610146D02*
X8688729Y-12619670D01*
X8688729Y-12619670D02*
X8698253Y-12629193D01*
X8698253Y-12629193D02*
X8707777Y-12648241D01*
X8707777Y-12648241D02*
X8717301Y-12686336D01*
X8717301Y-12686336D02*
X8717301Y-12733955D01*
X8717301Y-12733955D02*
X8707777Y-12772051D01*
X8707777Y-12772051D02*
X8698253Y-12791098D01*
X8698253Y-12791098D02*
X8688729Y-12800622D01*
X8688729Y-12800622D02*
X8669682Y-12810146D01*
X8669682Y-12810146D02*
X8650634Y-12810146D01*
X8650634Y-12810146D02*
X8631586Y-12800622D01*
X8631586Y-12800622D02*
X8622063Y-12791098D01*
X8622063Y-12791098D02*
X8612539Y-12772051D01*
X8612539Y-12772051D02*
X8603015Y-12733955D01*
X8603015Y-12733955D02*
X8603015Y-12686336D01*
X8603015Y-12686336D02*
X8612539Y-12648241D01*
X8612539Y-12648241D02*
X8622063Y-12629193D01*
X8622063Y-12629193D02*
X8631586Y-12619670D01*
X8631586Y-12619670D02*
X8650634Y-12610146D01*
X8803015Y-12791098D02*
X8812539Y-12800622D01*
X8812539Y-12800622D02*
X8803015Y-12810146D01*
X8803015Y-12810146D02*
X8793491Y-12800622D01*
X8793491Y-12800622D02*
X8803015Y-12791098D01*
X8803015Y-12791098D02*
X8803015Y-12810146D01*
X8936348Y-12610146D02*
X8955396Y-12610146D01*
X8955396Y-12610146D02*
X8974444Y-12619670D01*
X8974444Y-12619670D02*
X8983967Y-12629193D01*
X8983967Y-12629193D02*
X8993491Y-12648241D01*
X8993491Y-12648241D02*
X9003015Y-12686336D01*
X9003015Y-12686336D02*
X9003015Y-12733955D01*
X9003015Y-12733955D02*
X8993491Y-12772051D01*
X8993491Y-12772051D02*
X8983967Y-12791098D01*
X8983967Y-12791098D02*
X8974444Y-12800622D01*
X8974444Y-12800622D02*
X8955396Y-12810146D01*
X8955396Y-12810146D02*
X8936348Y-12810146D01*
X8936348Y-12810146D02*
X8917301Y-12800622D01*
X8917301Y-12800622D02*
X8907777Y-12791098D01*
X8907777Y-12791098D02*
X8898253Y-12772051D01*
X8898253Y-12772051D02*
X8888729Y-12733955D01*
X8888729Y-12733955D02*
X8888729Y-12686336D01*
X8888729Y-12686336D02*
X8898253Y-12648241D01*
X8898253Y-12648241D02*
X8907777Y-12629193D01*
X8907777Y-12629193D02*
X8917301Y-12619670D01*
X8917301Y-12619670D02*
X8936348Y-12610146D01*
X9193491Y-12810146D02*
X9079205Y-12810146D01*
X9136348Y-12810146D02*
X9136348Y-12610146D01*
X9136348Y-12610146D02*
X9117301Y-12638717D01*
X9117301Y-12638717D02*
X9098253Y-12657765D01*
X9098253Y-12657765D02*
X9079205Y-12667289D01*
X9288729Y-12810146D02*
X9326824Y-12810146D01*
X9326824Y-12810146D02*
X9345872Y-12800622D01*
X9345872Y-12800622D02*
X9355396Y-12791098D01*
X9355396Y-12791098D02*
X9374444Y-12762527D01*
X9374444Y-12762527D02*
X9383967Y-12724432D01*
X9383967Y-12724432D02*
X9383967Y-12648241D01*
X9383967Y-12648241D02*
X9374444Y-12629193D01*
X9374444Y-12629193D02*
X9364920Y-12619670D01*
X9364920Y-12619670D02*
X9345872Y-12610146D01*
X9345872Y-12610146D02*
X9307777Y-12610146D01*
X9307777Y-12610146D02*
X9288729Y-12619670D01*
X9288729Y-12619670D02*
X9279205Y-12629193D01*
X9279205Y-12629193D02*
X9269682Y-12648241D01*
X9269682Y-12648241D02*
X9269682Y-12695860D01*
X9269682Y-12695860D02*
X9279205Y-12714908D01*
X9279205Y-12714908D02*
X9288729Y-12724432D01*
X9288729Y-12724432D02*
X9307777Y-12733955D01*
X9307777Y-12733955D02*
X9345872Y-12733955D01*
X9345872Y-12733955D02*
X9364920Y-12724432D01*
X9364920Y-12724432D02*
X9374444Y-12714908D01*
X9374444Y-12714908D02*
X9383967Y-12695860D01*
X9450634Y-12610146D02*
X9583967Y-12610146D01*
X9583967Y-12610146D02*
X9498253Y-12810146D01*
X9650634Y-12610146D02*
X9650634Y-12648241D01*
X9726825Y-12610146D02*
X9726825Y-12648241D01*
X10022063Y-12886336D02*
X10012539Y-12876812D01*
X10012539Y-12876812D02*
X9993491Y-12848241D01*
X9993491Y-12848241D02*
X9983967Y-12829193D01*
X9983967Y-12829193D02*
X9974444Y-12800622D01*
X9974444Y-12800622D02*
X9964920Y-12753003D01*
X9964920Y-12753003D02*
X9964920Y-12714908D01*
X9964920Y-12714908D02*
X9974444Y-12667289D01*
X9974444Y-12667289D02*
X9983967Y-12638717D01*
X9983967Y-12638717D02*
X9993491Y-12619670D01*
X9993491Y-12619670D02*
X10012539Y-12591098D01*
X10012539Y-12591098D02*
X10022063Y-12581574D01*
X10136348Y-12610146D02*
X10155396Y-12610146D01*
X10155396Y-12610146D02*
X10174444Y-12619670D01*
X10174444Y-12619670D02*
X10183967Y-12629193D01*
X10183967Y-12629193D02*
X10193491Y-12648241D01*
X10193491Y-12648241D02*
X10203015Y-12686336D01*
X10203015Y-12686336D02*
X10203015Y-12733955D01*
X10203015Y-12733955D02*
X10193491Y-12772051D01*
X10193491Y-12772051D02*
X10183967Y-12791098D01*
X10183967Y-12791098D02*
X10174444Y-12800622D01*
X10174444Y-12800622D02*
X10155396Y-12810146D01*
X10155396Y-12810146D02*
X10136348Y-12810146D01*
X10136348Y-12810146D02*
X10117301Y-12800622D01*
X10117301Y-12800622D02*
X10107777Y-12791098D01*
X10107777Y-12791098D02*
X10098253Y-12772051D01*
X10098253Y-12772051D02*
X10088729Y-12733955D01*
X10088729Y-12733955D02*
X10088729Y-12686336D01*
X10088729Y-12686336D02*
X10098253Y-12648241D01*
X10098253Y-12648241D02*
X10107777Y-12629193D01*
X10107777Y-12629193D02*
X10117301Y-12619670D01*
X10117301Y-12619670D02*
X10136348Y-12610146D01*
X10441110Y-12810146D02*
X10441110Y-12610146D01*
X10526825Y-12810146D02*
X10526825Y-12705384D01*
X10526825Y-12705384D02*
X10517301Y-12686336D01*
X10517301Y-12686336D02*
X10498253Y-12676812D01*
X10498253Y-12676812D02*
X10469682Y-12676812D01*
X10469682Y-12676812D02*
X10450634Y-12686336D01*
X10450634Y-12686336D02*
X10441110Y-12695860D01*
X10650634Y-12810146D02*
X10631587Y-12800622D01*
X10631587Y-12800622D02*
X10622063Y-12791098D01*
X10622063Y-12791098D02*
X10612539Y-12772051D01*
X10612539Y-12772051D02*
X10612539Y-12714908D01*
X10612539Y-12714908D02*
X10622063Y-12695860D01*
X10622063Y-12695860D02*
X10631587Y-12686336D01*
X10631587Y-12686336D02*
X10650634Y-12676812D01*
X10650634Y-12676812D02*
X10679206Y-12676812D01*
X10679206Y-12676812D02*
X10698253Y-12686336D01*
X10698253Y-12686336D02*
X10707777Y-12695860D01*
X10707777Y-12695860D02*
X10717301Y-12714908D01*
X10717301Y-12714908D02*
X10717301Y-12772051D01*
X10717301Y-12772051D02*
X10707777Y-12791098D01*
X10707777Y-12791098D02*
X10698253Y-12800622D01*
X10698253Y-12800622D02*
X10679206Y-12810146D01*
X10679206Y-12810146D02*
X10650634Y-12810146D01*
X10831587Y-12810146D02*
X10812539Y-12800622D01*
X10812539Y-12800622D02*
X10803015Y-12781574D01*
X10803015Y-12781574D02*
X10803015Y-12610146D01*
X10983968Y-12800622D02*
X10964920Y-12810146D01*
X10964920Y-12810146D02*
X10926825Y-12810146D01*
X10926825Y-12810146D02*
X10907777Y-12800622D01*
X10907777Y-12800622D02*
X10898253Y-12781574D01*
X10898253Y-12781574D02*
X10898253Y-12705384D01*
X10898253Y-12705384D02*
X10907777Y-12686336D01*
X10907777Y-12686336D02*
X10926825Y-12676812D01*
X10926825Y-12676812D02*
X10964920Y-12676812D01*
X10964920Y-12676812D02*
X10983968Y-12686336D01*
X10983968Y-12686336D02*
X10993491Y-12705384D01*
X10993491Y-12705384D02*
X10993491Y-12724432D01*
X10993491Y-12724432D02*
X10898253Y-12743479D01*
X11069682Y-12800622D02*
X11088729Y-12810146D01*
X11088729Y-12810146D02*
X11126825Y-12810146D01*
X11126825Y-12810146D02*
X11145872Y-12800622D01*
X11145872Y-12800622D02*
X11155396Y-12781574D01*
X11155396Y-12781574D02*
X11155396Y-12772051D01*
X11155396Y-12772051D02*
X11145872Y-12753003D01*
X11145872Y-12753003D02*
X11126825Y-12743479D01*
X11126825Y-12743479D02*
X11098253Y-12743479D01*
X11098253Y-12743479D02*
X11079206Y-12733955D01*
X11079206Y-12733955D02*
X11069682Y-12714908D01*
X11069682Y-12714908D02*
X11069682Y-12705384D01*
X11069682Y-12705384D02*
X11079206Y-12686336D01*
X11079206Y-12686336D02*
X11098253Y-12676812D01*
X11098253Y-12676812D02*
X11126825Y-12676812D01*
X11126825Y-12676812D02*
X11145872Y-12686336D01*
X11393491Y-12733955D02*
X11545872Y-12733955D01*
X11469682Y-12810146D02*
X11469682Y-12657765D01*
X11879206Y-12676812D02*
X11879206Y-12810146D01*
X11831587Y-12600622D02*
X11783968Y-12743479D01*
X11783968Y-12743479D02*
X11907777Y-12743479D01*
X12126825Y-12800622D02*
X12145872Y-12810146D01*
X12145872Y-12810146D02*
X12183968Y-12810146D01*
X12183968Y-12810146D02*
X12203015Y-12800622D01*
X12203015Y-12800622D02*
X12212539Y-12781574D01*
X12212539Y-12781574D02*
X12212539Y-12772051D01*
X12212539Y-12772051D02*
X12203015Y-12753003D01*
X12203015Y-12753003D02*
X12183968Y-12743479D01*
X12183968Y-12743479D02*
X12155396Y-12743479D01*
X12155396Y-12743479D02*
X12136349Y-12733955D01*
X12136349Y-12733955D02*
X12126825Y-12714908D01*
X12126825Y-12714908D02*
X12126825Y-12705384D01*
X12126825Y-12705384D02*
X12136349Y-12686336D01*
X12136349Y-12686336D02*
X12155396Y-12676812D01*
X12155396Y-12676812D02*
X12183968Y-12676812D01*
X12183968Y-12676812D02*
X12203015Y-12686336D01*
X12326825Y-12810146D02*
X12307777Y-12800622D01*
X12307777Y-12800622D02*
X12298253Y-12781574D01*
X12298253Y-12781574D02*
X12298253Y-12610146D01*
X12431587Y-12810146D02*
X12412539Y-12800622D01*
X12412539Y-12800622D02*
X12403015Y-12791098D01*
X12403015Y-12791098D02*
X12393491Y-12772051D01*
X12393491Y-12772051D02*
X12393491Y-12714908D01*
X12393491Y-12714908D02*
X12403015Y-12695860D01*
X12403015Y-12695860D02*
X12412539Y-12686336D01*
X12412539Y-12686336D02*
X12431587Y-12676812D01*
X12431587Y-12676812D02*
X12460158Y-12676812D01*
X12460158Y-12676812D02*
X12479206Y-12686336D01*
X12479206Y-12686336D02*
X12488730Y-12695860D01*
X12488730Y-12695860D02*
X12498253Y-12714908D01*
X12498253Y-12714908D02*
X12498253Y-12772051D01*
X12498253Y-12772051D02*
X12488730Y-12791098D01*
X12488730Y-12791098D02*
X12479206Y-12800622D01*
X12479206Y-12800622D02*
X12460158Y-12810146D01*
X12460158Y-12810146D02*
X12431587Y-12810146D01*
X12555396Y-12676812D02*
X12631587Y-12676812D01*
X12583968Y-12610146D02*
X12583968Y-12781574D01*
X12583968Y-12781574D02*
X12593491Y-12800622D01*
X12593491Y-12800622D02*
X12612539Y-12810146D01*
X12612539Y-12810146D02*
X12631587Y-12810146D01*
X12688730Y-12800622D02*
X12707777Y-12810146D01*
X12707777Y-12810146D02*
X12745872Y-12810146D01*
X12745872Y-12810146D02*
X12764920Y-12800622D01*
X12764920Y-12800622D02*
X12774444Y-12781574D01*
X12774444Y-12781574D02*
X12774444Y-12772051D01*
X12774444Y-12772051D02*
X12764920Y-12753003D01*
X12764920Y-12753003D02*
X12745872Y-12743479D01*
X12745872Y-12743479D02*
X12717301Y-12743479D01*
X12717301Y-12743479D02*
X12698253Y-12733955D01*
X12698253Y-12733955D02*
X12688730Y-12714908D01*
X12688730Y-12714908D02*
X12688730Y-12705384D01*
X12688730Y-12705384D02*
X12698253Y-12686336D01*
X12698253Y-12686336D02*
X12717301Y-12676812D01*
X12717301Y-12676812D02*
X12745872Y-12676812D01*
X12745872Y-12676812D02*
X12764920Y-12686336D01*
X12841111Y-12886336D02*
X12850634Y-12876812D01*
X12850634Y-12876812D02*
X12869682Y-12848241D01*
X12869682Y-12848241D02*
X12879206Y-12829193D01*
X12879206Y-12829193D02*
X12888730Y-12800622D01*
X12888730Y-12800622D02*
X12898253Y-12753003D01*
X12898253Y-12753003D02*
X12898253Y-12714908D01*
X12898253Y-12714908D02*
X12888730Y-12667289D01*
X12888730Y-12667289D02*
X12879206Y-12638717D01*
X12879206Y-12638717D02*
X12869682Y-12619670D01*
X12869682Y-12619670D02*
X12850634Y-12591098D01*
X12850634Y-12591098D02*
X12841111Y-12581574D01*
D10*
X6387000Y-12952662D02*
X6447000Y-13012662D01*
X6447000Y-12952662D02*
X6387000Y-13012662D01*
X6447000Y-12982662D02*
G75*
G02*
X6387000Y-12982662I-30000J0D01*
G01*
X6387000Y-12982662D02*
G75*
G02*
X6447000Y-12982662I30000J0D01*
G01*
D11*
X6745872Y-12874146D02*
X6764919Y-12874146D01*
X6764919Y-12874146D02*
X6783967Y-12883670D01*
X6783967Y-12883670D02*
X6793491Y-12893193D01*
X6793491Y-12893193D02*
X6803015Y-12912241D01*
X6803015Y-12912241D02*
X6812538Y-12950336D01*
X6812538Y-12950336D02*
X6812538Y-12997955D01*
X6812538Y-12997955D02*
X6803015Y-13036051D01*
X6803015Y-13036051D02*
X6793491Y-13055098D01*
X6793491Y-13055098D02*
X6783967Y-13064622D01*
X6783967Y-13064622D02*
X6764919Y-13074146D01*
X6764919Y-13074146D02*
X6745872Y-13074146D01*
X6745872Y-13074146D02*
X6726824Y-13064622D01*
X6726824Y-13064622D02*
X6717300Y-13055098D01*
X6717300Y-13055098D02*
X6707777Y-13036051D01*
X6707777Y-13036051D02*
X6698253Y-12997955D01*
X6698253Y-12997955D02*
X6698253Y-12950336D01*
X6698253Y-12950336D02*
X6707777Y-12912241D01*
X6707777Y-12912241D02*
X6717300Y-12893193D01*
X6717300Y-12893193D02*
X6726824Y-12883670D01*
X6726824Y-12883670D02*
X6745872Y-12874146D01*
X6898253Y-13055098D02*
X6907777Y-13064622D01*
X6907777Y-13064622D02*
X6898253Y-13074146D01*
X6898253Y-13074146D02*
X6888729Y-13064622D01*
X6888729Y-13064622D02*
X6898253Y-13055098D01*
X6898253Y-13055098D02*
X6898253Y-13074146D01*
X7079205Y-12874146D02*
X7041110Y-12874146D01*
X7041110Y-12874146D02*
X7022062Y-12883670D01*
X7022062Y-12883670D02*
X7012538Y-12893193D01*
X7012538Y-12893193D02*
X6993491Y-12921765D01*
X6993491Y-12921765D02*
X6983967Y-12959860D01*
X6983967Y-12959860D02*
X6983967Y-13036051D01*
X6983967Y-13036051D02*
X6993491Y-13055098D01*
X6993491Y-13055098D02*
X7003015Y-13064622D01*
X7003015Y-13064622D02*
X7022062Y-13074146D01*
X7022062Y-13074146D02*
X7060158Y-13074146D01*
X7060158Y-13074146D02*
X7079205Y-13064622D01*
X7079205Y-13064622D02*
X7088729Y-13055098D01*
X7088729Y-13055098D02*
X7098253Y-13036051D01*
X7098253Y-13036051D02*
X7098253Y-12988432D01*
X7098253Y-12988432D02*
X7088729Y-12969384D01*
X7088729Y-12969384D02*
X7079205Y-12959860D01*
X7079205Y-12959860D02*
X7060158Y-12950336D01*
X7060158Y-12950336D02*
X7022062Y-12950336D01*
X7022062Y-12950336D02*
X7003015Y-12959860D01*
X7003015Y-12959860D02*
X6993491Y-12969384D01*
X6993491Y-12969384D02*
X6983967Y-12988432D01*
X7222062Y-12874146D02*
X7241110Y-12874146D01*
X7241110Y-12874146D02*
X7260158Y-12883670D01*
X7260158Y-12883670D02*
X7269681Y-12893193D01*
X7269681Y-12893193D02*
X7279205Y-12912241D01*
X7279205Y-12912241D02*
X7288729Y-12950336D01*
X7288729Y-12950336D02*
X7288729Y-12997955D01*
X7288729Y-12997955D02*
X7279205Y-13036051D01*
X7279205Y-13036051D02*
X7269681Y-13055098D01*
X7269681Y-13055098D02*
X7260158Y-13064622D01*
X7260158Y-13064622D02*
X7241110Y-13074146D01*
X7241110Y-13074146D02*
X7222062Y-13074146D01*
X7222062Y-13074146D02*
X7203015Y-13064622D01*
X7203015Y-13064622D02*
X7193491Y-13055098D01*
X7193491Y-13055098D02*
X7183967Y-13036051D01*
X7183967Y-13036051D02*
X7174443Y-12997955D01*
X7174443Y-12997955D02*
X7174443Y-12950336D01*
X7174443Y-12950336D02*
X7183967Y-12912241D01*
X7183967Y-12912241D02*
X7193491Y-12893193D01*
X7193491Y-12893193D02*
X7203015Y-12883670D01*
X7203015Y-12883670D02*
X7222062Y-12874146D01*
X7412538Y-12874146D02*
X7431586Y-12874146D01*
X7431586Y-12874146D02*
X7450634Y-12883670D01*
X7450634Y-12883670D02*
X7460158Y-12893193D01*
X7460158Y-12893193D02*
X7469681Y-12912241D01*
X7469681Y-12912241D02*
X7479205Y-12950336D01*
X7479205Y-12950336D02*
X7479205Y-12997955D01*
X7479205Y-12997955D02*
X7469681Y-13036051D01*
X7469681Y-13036051D02*
X7460158Y-13055098D01*
X7460158Y-13055098D02*
X7450634Y-13064622D01*
X7450634Y-13064622D02*
X7431586Y-13074146D01*
X7431586Y-13074146D02*
X7412538Y-13074146D01*
X7412538Y-13074146D02*
X7393491Y-13064622D01*
X7393491Y-13064622D02*
X7383967Y-13055098D01*
X7383967Y-13055098D02*
X7374443Y-13036051D01*
X7374443Y-13036051D02*
X7364919Y-12997955D01*
X7364919Y-12997955D02*
X7364919Y-12950336D01*
X7364919Y-12950336D02*
X7374443Y-12912241D01*
X7374443Y-12912241D02*
X7383967Y-12893193D01*
X7383967Y-12893193D02*
X7393491Y-12883670D01*
X7393491Y-12883670D02*
X7412538Y-12874146D01*
X7564919Y-13074146D02*
X7564919Y-12940812D01*
X7564919Y-12959860D02*
X7574443Y-12950336D01*
X7574443Y-12950336D02*
X7593491Y-12940812D01*
X7593491Y-12940812D02*
X7622062Y-12940812D01*
X7622062Y-12940812D02*
X7641110Y-12950336D01*
X7641110Y-12950336D02*
X7650634Y-12969384D01*
X7650634Y-12969384D02*
X7650634Y-13074146D01*
X7650634Y-12969384D02*
X7660158Y-12950336D01*
X7660158Y-12950336D02*
X7679205Y-12940812D01*
X7679205Y-12940812D02*
X7707777Y-12940812D01*
X7707777Y-12940812D02*
X7726824Y-12950336D01*
X7726824Y-12950336D02*
X7736348Y-12969384D01*
X7736348Y-12969384D02*
X7736348Y-13074146D01*
X7831586Y-13074146D02*
X7831586Y-12940812D01*
X7831586Y-12959860D02*
X7841110Y-12950336D01*
X7841110Y-12950336D02*
X7860158Y-12940812D01*
X7860158Y-12940812D02*
X7888729Y-12940812D01*
X7888729Y-12940812D02*
X7907777Y-12950336D01*
X7907777Y-12950336D02*
X7917300Y-12969384D01*
X7917300Y-12969384D02*
X7917300Y-13074146D01*
X7917300Y-12969384D02*
X7926824Y-12950336D01*
X7926824Y-12950336D02*
X7945872Y-12940812D01*
X7945872Y-12940812D02*
X7974443Y-12940812D01*
X7974443Y-12940812D02*
X7993491Y-12950336D01*
X7993491Y-12950336D02*
X8003015Y-12969384D01*
X8003015Y-12969384D02*
X8003015Y-13074146D01*
X8393491Y-12864622D02*
X8222062Y-13121765D01*
X8650634Y-12874146D02*
X8669682Y-12874146D01*
X8669682Y-12874146D02*
X8688729Y-12883670D01*
X8688729Y-12883670D02*
X8698253Y-12893193D01*
X8698253Y-12893193D02*
X8707777Y-12912241D01*
X8707777Y-12912241D02*
X8717301Y-12950336D01*
X8717301Y-12950336D02*
X8717301Y-12997955D01*
X8717301Y-12997955D02*
X8707777Y-13036051D01*
X8707777Y-13036051D02*
X8698253Y-13055098D01*
X8698253Y-13055098D02*
X8688729Y-13064622D01*
X8688729Y-13064622D02*
X8669682Y-13074146D01*
X8669682Y-13074146D02*
X8650634Y-13074146D01*
X8650634Y-13074146D02*
X8631586Y-13064622D01*
X8631586Y-13064622D02*
X8622063Y-13055098D01*
X8622063Y-13055098D02*
X8612539Y-13036051D01*
X8612539Y-13036051D02*
X8603015Y-12997955D01*
X8603015Y-12997955D02*
X8603015Y-12950336D01*
X8603015Y-12950336D02*
X8612539Y-12912241D01*
X8612539Y-12912241D02*
X8622063Y-12893193D01*
X8622063Y-12893193D02*
X8631586Y-12883670D01*
X8631586Y-12883670D02*
X8650634Y-12874146D01*
X8803015Y-13055098D02*
X8812539Y-13064622D01*
X8812539Y-13064622D02*
X8803015Y-13074146D01*
X8803015Y-13074146D02*
X8793491Y-13064622D01*
X8793491Y-13064622D02*
X8803015Y-13055098D01*
X8803015Y-13055098D02*
X8803015Y-13074146D01*
X8936348Y-12874146D02*
X8955396Y-12874146D01*
X8955396Y-12874146D02*
X8974444Y-12883670D01*
X8974444Y-12883670D02*
X8983967Y-12893193D01*
X8983967Y-12893193D02*
X8993491Y-12912241D01*
X8993491Y-12912241D02*
X9003015Y-12950336D01*
X9003015Y-12950336D02*
X9003015Y-12997955D01*
X9003015Y-12997955D02*
X8993491Y-13036051D01*
X8993491Y-13036051D02*
X8983967Y-13055098D01*
X8983967Y-13055098D02*
X8974444Y-13064622D01*
X8974444Y-13064622D02*
X8955396Y-13074146D01*
X8955396Y-13074146D02*
X8936348Y-13074146D01*
X8936348Y-13074146D02*
X8917301Y-13064622D01*
X8917301Y-13064622D02*
X8907777Y-13055098D01*
X8907777Y-13055098D02*
X8898253Y-13036051D01*
X8898253Y-13036051D02*
X8888729Y-12997955D01*
X8888729Y-12997955D02*
X8888729Y-12950336D01*
X8888729Y-12950336D02*
X8898253Y-12912241D01*
X8898253Y-12912241D02*
X8907777Y-12893193D01*
X8907777Y-12893193D02*
X8917301Y-12883670D01*
X8917301Y-12883670D02*
X8936348Y-12874146D01*
X9079205Y-12893193D02*
X9088729Y-12883670D01*
X9088729Y-12883670D02*
X9107777Y-12874146D01*
X9107777Y-12874146D02*
X9155396Y-12874146D01*
X9155396Y-12874146D02*
X9174444Y-12883670D01*
X9174444Y-12883670D02*
X9183967Y-12893193D01*
X9183967Y-12893193D02*
X9193491Y-12912241D01*
X9193491Y-12912241D02*
X9193491Y-12931289D01*
X9193491Y-12931289D02*
X9183967Y-12959860D01*
X9183967Y-12959860D02*
X9069682Y-13074146D01*
X9069682Y-13074146D02*
X9193491Y-13074146D01*
X9260158Y-12874146D02*
X9383967Y-12874146D01*
X9383967Y-12874146D02*
X9317301Y-12950336D01*
X9317301Y-12950336D02*
X9345872Y-12950336D01*
X9345872Y-12950336D02*
X9364920Y-12959860D01*
X9364920Y-12959860D02*
X9374444Y-12969384D01*
X9374444Y-12969384D02*
X9383967Y-12988432D01*
X9383967Y-12988432D02*
X9383967Y-13036051D01*
X9383967Y-13036051D02*
X9374444Y-13055098D01*
X9374444Y-13055098D02*
X9364920Y-13064622D01*
X9364920Y-13064622D02*
X9345872Y-13074146D01*
X9345872Y-13074146D02*
X9288729Y-13074146D01*
X9288729Y-13074146D02*
X9269682Y-13064622D01*
X9269682Y-13064622D02*
X9260158Y-13055098D01*
X9555396Y-12874146D02*
X9517301Y-12874146D01*
X9517301Y-12874146D02*
X9498253Y-12883670D01*
X9498253Y-12883670D02*
X9488729Y-12893193D01*
X9488729Y-12893193D02*
X9469682Y-12921765D01*
X9469682Y-12921765D02*
X9460158Y-12959860D01*
X9460158Y-12959860D02*
X9460158Y-13036051D01*
X9460158Y-13036051D02*
X9469682Y-13055098D01*
X9469682Y-13055098D02*
X9479205Y-13064622D01*
X9479205Y-13064622D02*
X9498253Y-13074146D01*
X9498253Y-13074146D02*
X9536348Y-13074146D01*
X9536348Y-13074146D02*
X9555396Y-13064622D01*
X9555396Y-13064622D02*
X9564920Y-13055098D01*
X9564920Y-13055098D02*
X9574444Y-13036051D01*
X9574444Y-13036051D02*
X9574444Y-12988432D01*
X9574444Y-12988432D02*
X9564920Y-12969384D01*
X9564920Y-12969384D02*
X9555396Y-12959860D01*
X9555396Y-12959860D02*
X9536348Y-12950336D01*
X9536348Y-12950336D02*
X9498253Y-12950336D01*
X9498253Y-12950336D02*
X9479205Y-12959860D01*
X9479205Y-12959860D02*
X9469682Y-12969384D01*
X9469682Y-12969384D02*
X9460158Y-12988432D01*
X9650634Y-12874146D02*
X9650634Y-12912241D01*
X9726825Y-12874146D02*
X9726825Y-12912241D01*
X10022063Y-13150336D02*
X10012539Y-13140812D01*
X10012539Y-13140812D02*
X9993491Y-13112241D01*
X9993491Y-13112241D02*
X9983967Y-13093193D01*
X9983967Y-13093193D02*
X9974444Y-13064622D01*
X9974444Y-13064622D02*
X9964920Y-13017003D01*
X9964920Y-13017003D02*
X9964920Y-12978908D01*
X9964920Y-12978908D02*
X9974444Y-12931289D01*
X9974444Y-12931289D02*
X9983967Y-12902717D01*
X9983967Y-12902717D02*
X9993491Y-12883670D01*
X9993491Y-12883670D02*
X10012539Y-12855098D01*
X10012539Y-12855098D02*
X10022063Y-12845574D01*
X10088729Y-12893193D02*
X10098253Y-12883670D01*
X10098253Y-12883670D02*
X10117301Y-12874146D01*
X10117301Y-12874146D02*
X10164920Y-12874146D01*
X10164920Y-12874146D02*
X10183967Y-12883670D01*
X10183967Y-12883670D02*
X10193491Y-12893193D01*
X10193491Y-12893193D02*
X10203015Y-12912241D01*
X10203015Y-12912241D02*
X10203015Y-12931289D01*
X10203015Y-12931289D02*
X10193491Y-12959860D01*
X10193491Y-12959860D02*
X10079206Y-13074146D01*
X10079206Y-13074146D02*
X10203015Y-13074146D01*
X10374444Y-12874146D02*
X10336348Y-12874146D01*
X10336348Y-12874146D02*
X10317301Y-12883670D01*
X10317301Y-12883670D02*
X10307777Y-12893193D01*
X10307777Y-12893193D02*
X10288729Y-12921765D01*
X10288729Y-12921765D02*
X10279206Y-12959860D01*
X10279206Y-12959860D02*
X10279206Y-13036051D01*
X10279206Y-13036051D02*
X10288729Y-13055098D01*
X10288729Y-13055098D02*
X10298253Y-13064622D01*
X10298253Y-13064622D02*
X10317301Y-13074146D01*
X10317301Y-13074146D02*
X10355396Y-13074146D01*
X10355396Y-13074146D02*
X10374444Y-13064622D01*
X10374444Y-13064622D02*
X10383967Y-13055098D01*
X10383967Y-13055098D02*
X10393491Y-13036051D01*
X10393491Y-13036051D02*
X10393491Y-12988432D01*
X10393491Y-12988432D02*
X10383967Y-12969384D01*
X10383967Y-12969384D02*
X10374444Y-12959860D01*
X10374444Y-12959860D02*
X10355396Y-12950336D01*
X10355396Y-12950336D02*
X10317301Y-12950336D01*
X10317301Y-12950336D02*
X10298253Y-12959860D01*
X10298253Y-12959860D02*
X10288729Y-12969384D01*
X10288729Y-12969384D02*
X10279206Y-12988432D01*
X10631587Y-13074146D02*
X10631587Y-12874146D01*
X10717301Y-13074146D02*
X10717301Y-12969384D01*
X10717301Y-12969384D02*
X10707777Y-12950336D01*
X10707777Y-12950336D02*
X10688729Y-12940812D01*
X10688729Y-12940812D02*
X10660158Y-12940812D01*
X10660158Y-12940812D02*
X10641110Y-12950336D01*
X10641110Y-12950336D02*
X10631587Y-12959860D01*
X10841110Y-13074146D02*
X10822063Y-13064622D01*
X10822063Y-13064622D02*
X10812539Y-13055098D01*
X10812539Y-13055098D02*
X10803015Y-13036051D01*
X10803015Y-13036051D02*
X10803015Y-12978908D01*
X10803015Y-12978908D02*
X10812539Y-12959860D01*
X10812539Y-12959860D02*
X10822063Y-12950336D01*
X10822063Y-12950336D02*
X10841110Y-12940812D01*
X10841110Y-12940812D02*
X10869682Y-12940812D01*
X10869682Y-12940812D02*
X10888729Y-12950336D01*
X10888729Y-12950336D02*
X10898253Y-12959860D01*
X10898253Y-12959860D02*
X10907777Y-12978908D01*
X10907777Y-12978908D02*
X10907777Y-13036051D01*
X10907777Y-13036051D02*
X10898253Y-13055098D01*
X10898253Y-13055098D02*
X10888729Y-13064622D01*
X10888729Y-13064622D02*
X10869682Y-13074146D01*
X10869682Y-13074146D02*
X10841110Y-13074146D01*
X11022063Y-13074146D02*
X11003015Y-13064622D01*
X11003015Y-13064622D02*
X10993491Y-13045574D01*
X10993491Y-13045574D02*
X10993491Y-12874146D01*
X11174444Y-13064622D02*
X11155396Y-13074146D01*
X11155396Y-13074146D02*
X11117301Y-13074146D01*
X11117301Y-13074146D02*
X11098253Y-13064622D01*
X11098253Y-13064622D02*
X11088729Y-13045574D01*
X11088729Y-13045574D02*
X11088729Y-12969384D01*
X11088729Y-12969384D02*
X11098253Y-12950336D01*
X11098253Y-12950336D02*
X11117301Y-12940812D01*
X11117301Y-12940812D02*
X11155396Y-12940812D01*
X11155396Y-12940812D02*
X11174444Y-12950336D01*
X11174444Y-12950336D02*
X11183968Y-12969384D01*
X11183968Y-12969384D02*
X11183968Y-12988432D01*
X11183968Y-12988432D02*
X11088729Y-13007479D01*
X11260158Y-13064622D02*
X11279206Y-13074146D01*
X11279206Y-13074146D02*
X11317301Y-13074146D01*
X11317301Y-13074146D02*
X11336348Y-13064622D01*
X11336348Y-13064622D02*
X11345872Y-13045574D01*
X11345872Y-13045574D02*
X11345872Y-13036051D01*
X11345872Y-13036051D02*
X11336348Y-13017003D01*
X11336348Y-13017003D02*
X11317301Y-13007479D01*
X11317301Y-13007479D02*
X11288729Y-13007479D01*
X11288729Y-13007479D02*
X11269682Y-12997955D01*
X11269682Y-12997955D02*
X11260158Y-12978908D01*
X11260158Y-12978908D02*
X11260158Y-12969384D01*
X11260158Y-12969384D02*
X11269682Y-12950336D01*
X11269682Y-12950336D02*
X11288729Y-12940812D01*
X11288729Y-12940812D02*
X11317301Y-12940812D01*
X11317301Y-12940812D02*
X11336348Y-12950336D01*
X11412539Y-13150336D02*
X11422063Y-13140812D01*
X11422063Y-13140812D02*
X11441110Y-13112241D01*
X11441110Y-13112241D02*
X11450634Y-13093193D01*
X11450634Y-13093193D02*
X11460158Y-13064622D01*
X11460158Y-13064622D02*
X11469682Y-13017003D01*
X11469682Y-13017003D02*
X11469682Y-12978908D01*
X11469682Y-12978908D02*
X11460158Y-12931289D01*
X11460158Y-12931289D02*
X11450634Y-12902717D01*
X11450634Y-12902717D02*
X11441110Y-12883670D01*
X11441110Y-12883670D02*
X11422063Y-12855098D01*
X11422063Y-12855098D02*
X11412539Y-12845574D01*
D10*
X6367000Y-13206662D02*
X6447000Y-13286662D01*
X6447000Y-13206662D02*
X6367000Y-13286662D01*
X6407000Y-13206662D02*
X6407000Y-13286662D01*
X6367000Y-13246662D02*
X6447000Y-13246662D01*
D11*
X6745872Y-13138146D02*
X6764919Y-13138146D01*
X6764919Y-13138146D02*
X6783967Y-13147670D01*
X6783967Y-13147670D02*
X6793491Y-13157193D01*
X6793491Y-13157193D02*
X6803015Y-13176241D01*
X6803015Y-13176241D02*
X6812538Y-13214336D01*
X6812538Y-13214336D02*
X6812538Y-13261955D01*
X6812538Y-13261955D02*
X6803015Y-13300051D01*
X6803015Y-13300051D02*
X6793491Y-13319098D01*
X6793491Y-13319098D02*
X6783967Y-13328622D01*
X6783967Y-13328622D02*
X6764919Y-13338146D01*
X6764919Y-13338146D02*
X6745872Y-13338146D01*
X6745872Y-13338146D02*
X6726824Y-13328622D01*
X6726824Y-13328622D02*
X6717300Y-13319098D01*
X6717300Y-13319098D02*
X6707777Y-13300051D01*
X6707777Y-13300051D02*
X6698253Y-13261955D01*
X6698253Y-13261955D02*
X6698253Y-13214336D01*
X6698253Y-13214336D02*
X6707777Y-13176241D01*
X6707777Y-13176241D02*
X6717300Y-13157193D01*
X6717300Y-13157193D02*
X6726824Y-13147670D01*
X6726824Y-13147670D02*
X6745872Y-13138146D01*
X6898253Y-13319098D02*
X6907777Y-13328622D01*
X6907777Y-13328622D02*
X6898253Y-13338146D01*
X6898253Y-13338146D02*
X6888729Y-13328622D01*
X6888729Y-13328622D02*
X6898253Y-13319098D01*
X6898253Y-13319098D02*
X6898253Y-13338146D01*
X7022062Y-13223860D02*
X7003015Y-13214336D01*
X7003015Y-13214336D02*
X6993491Y-13204812D01*
X6993491Y-13204812D02*
X6983967Y-13185765D01*
X6983967Y-13185765D02*
X6983967Y-13176241D01*
X6983967Y-13176241D02*
X6993491Y-13157193D01*
X6993491Y-13157193D02*
X7003015Y-13147670D01*
X7003015Y-13147670D02*
X7022062Y-13138146D01*
X7022062Y-13138146D02*
X7060158Y-13138146D01*
X7060158Y-13138146D02*
X7079205Y-13147670D01*
X7079205Y-13147670D02*
X7088729Y-13157193D01*
X7088729Y-13157193D02*
X7098253Y-13176241D01*
X7098253Y-13176241D02*
X7098253Y-13185765D01*
X7098253Y-13185765D02*
X7088729Y-13204812D01*
X7088729Y-13204812D02*
X7079205Y-13214336D01*
X7079205Y-13214336D02*
X7060158Y-13223860D01*
X7060158Y-13223860D02*
X7022062Y-13223860D01*
X7022062Y-13223860D02*
X7003015Y-13233384D01*
X7003015Y-13233384D02*
X6993491Y-13242908D01*
X6993491Y-13242908D02*
X6983967Y-13261955D01*
X6983967Y-13261955D02*
X6983967Y-13300051D01*
X6983967Y-13300051D02*
X6993491Y-13319098D01*
X6993491Y-13319098D02*
X7003015Y-13328622D01*
X7003015Y-13328622D02*
X7022062Y-13338146D01*
X7022062Y-13338146D02*
X7060158Y-13338146D01*
X7060158Y-13338146D02*
X7079205Y-13328622D01*
X7079205Y-13328622D02*
X7088729Y-13319098D01*
X7088729Y-13319098D02*
X7098253Y-13300051D01*
X7098253Y-13300051D02*
X7098253Y-13261955D01*
X7098253Y-13261955D02*
X7088729Y-13242908D01*
X7088729Y-13242908D02*
X7079205Y-13233384D01*
X7079205Y-13233384D02*
X7060158Y-13223860D01*
X7222062Y-13138146D02*
X7241110Y-13138146D01*
X7241110Y-13138146D02*
X7260158Y-13147670D01*
X7260158Y-13147670D02*
X7269681Y-13157193D01*
X7269681Y-13157193D02*
X7279205Y-13176241D01*
X7279205Y-13176241D02*
X7288729Y-13214336D01*
X7288729Y-13214336D02*
X7288729Y-13261955D01*
X7288729Y-13261955D02*
X7279205Y-13300051D01*
X7279205Y-13300051D02*
X7269681Y-13319098D01*
X7269681Y-13319098D02*
X7260158Y-13328622D01*
X7260158Y-13328622D02*
X7241110Y-13338146D01*
X7241110Y-13338146D02*
X7222062Y-13338146D01*
X7222062Y-13338146D02*
X7203015Y-13328622D01*
X7203015Y-13328622D02*
X7193491Y-13319098D01*
X7193491Y-13319098D02*
X7183967Y-13300051D01*
X7183967Y-13300051D02*
X7174443Y-13261955D01*
X7174443Y-13261955D02*
X7174443Y-13214336D01*
X7174443Y-13214336D02*
X7183967Y-13176241D01*
X7183967Y-13176241D02*
X7193491Y-13157193D01*
X7193491Y-13157193D02*
X7203015Y-13147670D01*
X7203015Y-13147670D02*
X7222062Y-13138146D01*
X7412538Y-13138146D02*
X7431586Y-13138146D01*
X7431586Y-13138146D02*
X7450634Y-13147670D01*
X7450634Y-13147670D02*
X7460158Y-13157193D01*
X7460158Y-13157193D02*
X7469681Y-13176241D01*
X7469681Y-13176241D02*
X7479205Y-13214336D01*
X7479205Y-13214336D02*
X7479205Y-13261955D01*
X7479205Y-13261955D02*
X7469681Y-13300051D01*
X7469681Y-13300051D02*
X7460158Y-13319098D01*
X7460158Y-13319098D02*
X7450634Y-13328622D01*
X7450634Y-13328622D02*
X7431586Y-13338146D01*
X7431586Y-13338146D02*
X7412538Y-13338146D01*
X7412538Y-13338146D02*
X7393491Y-13328622D01*
X7393491Y-13328622D02*
X7383967Y-13319098D01*
X7383967Y-13319098D02*
X7374443Y-13300051D01*
X7374443Y-13300051D02*
X7364919Y-13261955D01*
X7364919Y-13261955D02*
X7364919Y-13214336D01*
X7364919Y-13214336D02*
X7374443Y-13176241D01*
X7374443Y-13176241D02*
X7383967Y-13157193D01*
X7383967Y-13157193D02*
X7393491Y-13147670D01*
X7393491Y-13147670D02*
X7412538Y-13138146D01*
X7564919Y-13338146D02*
X7564919Y-13204812D01*
X7564919Y-13223860D02*
X7574443Y-13214336D01*
X7574443Y-13214336D02*
X7593491Y-13204812D01*
X7593491Y-13204812D02*
X7622062Y-13204812D01*
X7622062Y-13204812D02*
X7641110Y-13214336D01*
X7641110Y-13214336D02*
X7650634Y-13233384D01*
X7650634Y-13233384D02*
X7650634Y-13338146D01*
X7650634Y-13233384D02*
X7660158Y-13214336D01*
X7660158Y-13214336D02*
X7679205Y-13204812D01*
X7679205Y-13204812D02*
X7707777Y-13204812D01*
X7707777Y-13204812D02*
X7726824Y-13214336D01*
X7726824Y-13214336D02*
X7736348Y-13233384D01*
X7736348Y-13233384D02*
X7736348Y-13338146D01*
X7831586Y-13338146D02*
X7831586Y-13204812D01*
X7831586Y-13223860D02*
X7841110Y-13214336D01*
X7841110Y-13214336D02*
X7860158Y-13204812D01*
X7860158Y-13204812D02*
X7888729Y-13204812D01*
X7888729Y-13204812D02*
X7907777Y-13214336D01*
X7907777Y-13214336D02*
X7917300Y-13233384D01*
X7917300Y-13233384D02*
X7917300Y-13338146D01*
X7917300Y-13233384D02*
X7926824Y-13214336D01*
X7926824Y-13214336D02*
X7945872Y-13204812D01*
X7945872Y-13204812D02*
X7974443Y-13204812D01*
X7974443Y-13204812D02*
X7993491Y-13214336D01*
X7993491Y-13214336D02*
X8003015Y-13233384D01*
X8003015Y-13233384D02*
X8003015Y-13338146D01*
X8393491Y-13128622D02*
X8222062Y-13385765D01*
X8650634Y-13138146D02*
X8669682Y-13138146D01*
X8669682Y-13138146D02*
X8688729Y-13147670D01*
X8688729Y-13147670D02*
X8698253Y-13157193D01*
X8698253Y-13157193D02*
X8707777Y-13176241D01*
X8707777Y-13176241D02*
X8717301Y-13214336D01*
X8717301Y-13214336D02*
X8717301Y-13261955D01*
X8717301Y-13261955D02*
X8707777Y-13300051D01*
X8707777Y-13300051D02*
X8698253Y-13319098D01*
X8698253Y-13319098D02*
X8688729Y-13328622D01*
X8688729Y-13328622D02*
X8669682Y-13338146D01*
X8669682Y-13338146D02*
X8650634Y-13338146D01*
X8650634Y-13338146D02*
X8631586Y-13328622D01*
X8631586Y-13328622D02*
X8622063Y-13319098D01*
X8622063Y-13319098D02*
X8612539Y-13300051D01*
X8612539Y-13300051D02*
X8603015Y-13261955D01*
X8603015Y-13261955D02*
X8603015Y-13214336D01*
X8603015Y-13214336D02*
X8612539Y-13176241D01*
X8612539Y-13176241D02*
X8622063Y-13157193D01*
X8622063Y-13157193D02*
X8631586Y-13147670D01*
X8631586Y-13147670D02*
X8650634Y-13138146D01*
X8803015Y-13319098D02*
X8812539Y-13328622D01*
X8812539Y-13328622D02*
X8803015Y-13338146D01*
X8803015Y-13338146D02*
X8793491Y-13328622D01*
X8793491Y-13328622D02*
X8803015Y-13319098D01*
X8803015Y-13319098D02*
X8803015Y-13338146D01*
X8936348Y-13138146D02*
X8955396Y-13138146D01*
X8955396Y-13138146D02*
X8974444Y-13147670D01*
X8974444Y-13147670D02*
X8983967Y-13157193D01*
X8983967Y-13157193D02*
X8993491Y-13176241D01*
X8993491Y-13176241D02*
X9003015Y-13214336D01*
X9003015Y-13214336D02*
X9003015Y-13261955D01*
X9003015Y-13261955D02*
X8993491Y-13300051D01*
X8993491Y-13300051D02*
X8983967Y-13319098D01*
X8983967Y-13319098D02*
X8974444Y-13328622D01*
X8974444Y-13328622D02*
X8955396Y-13338146D01*
X8955396Y-13338146D02*
X8936348Y-13338146D01*
X8936348Y-13338146D02*
X8917301Y-13328622D01*
X8917301Y-13328622D02*
X8907777Y-13319098D01*
X8907777Y-13319098D02*
X8898253Y-13300051D01*
X8898253Y-13300051D02*
X8888729Y-13261955D01*
X8888729Y-13261955D02*
X8888729Y-13214336D01*
X8888729Y-13214336D02*
X8898253Y-13176241D01*
X8898253Y-13176241D02*
X8907777Y-13157193D01*
X8907777Y-13157193D02*
X8917301Y-13147670D01*
X8917301Y-13147670D02*
X8936348Y-13138146D01*
X9069682Y-13138146D02*
X9193491Y-13138146D01*
X9193491Y-13138146D02*
X9126824Y-13214336D01*
X9126824Y-13214336D02*
X9155396Y-13214336D01*
X9155396Y-13214336D02*
X9174444Y-13223860D01*
X9174444Y-13223860D02*
X9183967Y-13233384D01*
X9183967Y-13233384D02*
X9193491Y-13252432D01*
X9193491Y-13252432D02*
X9193491Y-13300051D01*
X9193491Y-13300051D02*
X9183967Y-13319098D01*
X9183967Y-13319098D02*
X9174444Y-13328622D01*
X9174444Y-13328622D02*
X9155396Y-13338146D01*
X9155396Y-13338146D02*
X9098253Y-13338146D01*
X9098253Y-13338146D02*
X9079205Y-13328622D01*
X9079205Y-13328622D02*
X9069682Y-13319098D01*
X9383967Y-13338146D02*
X9269682Y-13338146D01*
X9326824Y-13338146D02*
X9326824Y-13138146D01*
X9326824Y-13138146D02*
X9307777Y-13166717D01*
X9307777Y-13166717D02*
X9288729Y-13185765D01*
X9288729Y-13185765D02*
X9269682Y-13195289D01*
X9564920Y-13138146D02*
X9469682Y-13138146D01*
X9469682Y-13138146D02*
X9460158Y-13233384D01*
X9460158Y-13233384D02*
X9469682Y-13223860D01*
X9469682Y-13223860D02*
X9488729Y-13214336D01*
X9488729Y-13214336D02*
X9536348Y-13214336D01*
X9536348Y-13214336D02*
X9555396Y-13223860D01*
X9555396Y-13223860D02*
X9564920Y-13233384D01*
X9564920Y-13233384D02*
X9574444Y-13252432D01*
X9574444Y-13252432D02*
X9574444Y-13300051D01*
X9574444Y-13300051D02*
X9564920Y-13319098D01*
X9564920Y-13319098D02*
X9555396Y-13328622D01*
X9555396Y-13328622D02*
X9536348Y-13338146D01*
X9536348Y-13338146D02*
X9488729Y-13338146D01*
X9488729Y-13338146D02*
X9469682Y-13328622D01*
X9469682Y-13328622D02*
X9460158Y-13319098D01*
X9650634Y-13138146D02*
X9650634Y-13176241D01*
X9726825Y-13138146D02*
X9726825Y-13176241D01*
X10022063Y-13414336D02*
X10012539Y-13404812D01*
X10012539Y-13404812D02*
X9993491Y-13376241D01*
X9993491Y-13376241D02*
X9983967Y-13357193D01*
X9983967Y-13357193D02*
X9974444Y-13328622D01*
X9974444Y-13328622D02*
X9964920Y-13281003D01*
X9964920Y-13281003D02*
X9964920Y-13242908D01*
X9964920Y-13242908D02*
X9974444Y-13195289D01*
X9974444Y-13195289D02*
X9983967Y-13166717D01*
X9983967Y-13166717D02*
X9993491Y-13147670D01*
X9993491Y-13147670D02*
X10012539Y-13119098D01*
X10012539Y-13119098D02*
X10022063Y-13109574D01*
X10183967Y-13204812D02*
X10183967Y-13338146D01*
X10136348Y-13128622D02*
X10088729Y-13271479D01*
X10088729Y-13271479D02*
X10212539Y-13271479D01*
X10441110Y-13338146D02*
X10441110Y-13138146D01*
X10526825Y-13338146D02*
X10526825Y-13233384D01*
X10526825Y-13233384D02*
X10517301Y-13214336D01*
X10517301Y-13214336D02*
X10498253Y-13204812D01*
X10498253Y-13204812D02*
X10469682Y-13204812D01*
X10469682Y-13204812D02*
X10450634Y-13214336D01*
X10450634Y-13214336D02*
X10441110Y-13223860D01*
X10650634Y-13338146D02*
X10631587Y-13328622D01*
X10631587Y-13328622D02*
X10622063Y-13319098D01*
X10622063Y-13319098D02*
X10612539Y-13300051D01*
X10612539Y-13300051D02*
X10612539Y-13242908D01*
X10612539Y-13242908D02*
X10622063Y-13223860D01*
X10622063Y-13223860D02*
X10631587Y-13214336D01*
X10631587Y-13214336D02*
X10650634Y-13204812D01*
X10650634Y-13204812D02*
X10679206Y-13204812D01*
X10679206Y-13204812D02*
X10698253Y-13214336D01*
X10698253Y-13214336D02*
X10707777Y-13223860D01*
X10707777Y-13223860D02*
X10717301Y-13242908D01*
X10717301Y-13242908D02*
X10717301Y-13300051D01*
X10717301Y-13300051D02*
X10707777Y-13319098D01*
X10707777Y-13319098D02*
X10698253Y-13328622D01*
X10698253Y-13328622D02*
X10679206Y-13338146D01*
X10679206Y-13338146D02*
X10650634Y-13338146D01*
X10831587Y-13338146D02*
X10812539Y-13328622D01*
X10812539Y-13328622D02*
X10803015Y-13309574D01*
X10803015Y-13309574D02*
X10803015Y-13138146D01*
X10983968Y-13328622D02*
X10964920Y-13338146D01*
X10964920Y-13338146D02*
X10926825Y-13338146D01*
X10926825Y-13338146D02*
X10907777Y-13328622D01*
X10907777Y-13328622D02*
X10898253Y-13309574D01*
X10898253Y-13309574D02*
X10898253Y-13233384D01*
X10898253Y-13233384D02*
X10907777Y-13214336D01*
X10907777Y-13214336D02*
X10926825Y-13204812D01*
X10926825Y-13204812D02*
X10964920Y-13204812D01*
X10964920Y-13204812D02*
X10983968Y-13214336D01*
X10983968Y-13214336D02*
X10993491Y-13233384D01*
X10993491Y-13233384D02*
X10993491Y-13252432D01*
X10993491Y-13252432D02*
X10898253Y-13271479D01*
X11069682Y-13328622D02*
X11088729Y-13338146D01*
X11088729Y-13338146D02*
X11126825Y-13338146D01*
X11126825Y-13338146D02*
X11145872Y-13328622D01*
X11145872Y-13328622D02*
X11155396Y-13309574D01*
X11155396Y-13309574D02*
X11155396Y-13300051D01*
X11155396Y-13300051D02*
X11145872Y-13281003D01*
X11145872Y-13281003D02*
X11126825Y-13271479D01*
X11126825Y-13271479D02*
X11098253Y-13271479D01*
X11098253Y-13271479D02*
X11079206Y-13261955D01*
X11079206Y-13261955D02*
X11069682Y-13242908D01*
X11069682Y-13242908D02*
X11069682Y-13233384D01*
X11069682Y-13233384D02*
X11079206Y-13214336D01*
X11079206Y-13214336D02*
X11098253Y-13204812D01*
X11098253Y-13204812D02*
X11126825Y-13204812D01*
X11126825Y-13204812D02*
X11145872Y-13214336D01*
X11222063Y-13414336D02*
X11231587Y-13404812D01*
X11231587Y-13404812D02*
X11250634Y-13376241D01*
X11250634Y-13376241D02*
X11260158Y-13357193D01*
X11260158Y-13357193D02*
X11269682Y-13328622D01*
X11269682Y-13328622D02*
X11279206Y-13281003D01*
X11279206Y-13281003D02*
X11279206Y-13242908D01*
X11279206Y-13242908D02*
X11269682Y-13195289D01*
X11269682Y-13195289D02*
X11260158Y-13166717D01*
X11260158Y-13166717D02*
X11250634Y-13147670D01*
X11250634Y-13147670D02*
X11231587Y-13119098D01*
X11231587Y-13119098D02*
X11222063Y-13109574D01*
X6247000Y-13410662D02*
X6447000Y-13610662D01*
X6447000Y-13410662D02*
X6247000Y-13610662D01*
X6417711Y-13581373D02*
X6417711Y-13439951D01*
X6276288Y-13439951D01*
X6276288Y-13581373D01*
X6417711Y-13581373D01*
X6698253Y-13421193D02*
X6707777Y-13411670D01*
X6707777Y-13411670D02*
X6726824Y-13402146D01*
X6726824Y-13402146D02*
X6774443Y-13402146D01*
X6774443Y-13402146D02*
X6793491Y-13411670D01*
X6793491Y-13411670D02*
X6803015Y-13421193D01*
X6803015Y-13421193D02*
X6812538Y-13440241D01*
X6812538Y-13440241D02*
X6812538Y-13459289D01*
X6812538Y-13459289D02*
X6803015Y-13487860D01*
X6803015Y-13487860D02*
X6688729Y-13602146D01*
X6688729Y-13602146D02*
X6812538Y-13602146D01*
X6898253Y-13583098D02*
X6907777Y-13592622D01*
X6907777Y-13592622D02*
X6898253Y-13602146D01*
X6898253Y-13602146D02*
X6888729Y-13592622D01*
X6888729Y-13592622D02*
X6898253Y-13583098D01*
X6898253Y-13583098D02*
X6898253Y-13602146D01*
X6983967Y-13421193D02*
X6993491Y-13411670D01*
X6993491Y-13411670D02*
X7012538Y-13402146D01*
X7012538Y-13402146D02*
X7060158Y-13402146D01*
X7060158Y-13402146D02*
X7079205Y-13411670D01*
X7079205Y-13411670D02*
X7088729Y-13421193D01*
X7088729Y-13421193D02*
X7098253Y-13440241D01*
X7098253Y-13440241D02*
X7098253Y-13459289D01*
X7098253Y-13459289D02*
X7088729Y-13487860D01*
X7088729Y-13487860D02*
X6974443Y-13602146D01*
X6974443Y-13602146D02*
X7098253Y-13602146D01*
X7222062Y-13402146D02*
X7241110Y-13402146D01*
X7241110Y-13402146D02*
X7260158Y-13411670D01*
X7260158Y-13411670D02*
X7269681Y-13421193D01*
X7269681Y-13421193D02*
X7279205Y-13440241D01*
X7279205Y-13440241D02*
X7288729Y-13478336D01*
X7288729Y-13478336D02*
X7288729Y-13525955D01*
X7288729Y-13525955D02*
X7279205Y-13564051D01*
X7279205Y-13564051D02*
X7269681Y-13583098D01*
X7269681Y-13583098D02*
X7260158Y-13592622D01*
X7260158Y-13592622D02*
X7241110Y-13602146D01*
X7241110Y-13602146D02*
X7222062Y-13602146D01*
X7222062Y-13602146D02*
X7203015Y-13592622D01*
X7203015Y-13592622D02*
X7193491Y-13583098D01*
X7193491Y-13583098D02*
X7183967Y-13564051D01*
X7183967Y-13564051D02*
X7174443Y-13525955D01*
X7174443Y-13525955D02*
X7174443Y-13478336D01*
X7174443Y-13478336D02*
X7183967Y-13440241D01*
X7183967Y-13440241D02*
X7193491Y-13421193D01*
X7193491Y-13421193D02*
X7203015Y-13411670D01*
X7203015Y-13411670D02*
X7222062Y-13402146D01*
X7412538Y-13402146D02*
X7431586Y-13402146D01*
X7431586Y-13402146D02*
X7450634Y-13411670D01*
X7450634Y-13411670D02*
X7460158Y-13421193D01*
X7460158Y-13421193D02*
X7469681Y-13440241D01*
X7469681Y-13440241D02*
X7479205Y-13478336D01*
X7479205Y-13478336D02*
X7479205Y-13525955D01*
X7479205Y-13525955D02*
X7469681Y-13564051D01*
X7469681Y-13564051D02*
X7460158Y-13583098D01*
X7460158Y-13583098D02*
X7450634Y-13592622D01*
X7450634Y-13592622D02*
X7431586Y-13602146D01*
X7431586Y-13602146D02*
X7412538Y-13602146D01*
X7412538Y-13602146D02*
X7393491Y-13592622D01*
X7393491Y-13592622D02*
X7383967Y-13583098D01*
X7383967Y-13583098D02*
X7374443Y-13564051D01*
X7374443Y-13564051D02*
X7364919Y-13525955D01*
X7364919Y-13525955D02*
X7364919Y-13478336D01*
X7364919Y-13478336D02*
X7374443Y-13440241D01*
X7374443Y-13440241D02*
X7383967Y-13421193D01*
X7383967Y-13421193D02*
X7393491Y-13411670D01*
X7393491Y-13411670D02*
X7412538Y-13402146D01*
X7564919Y-13602146D02*
X7564919Y-13468812D01*
X7564919Y-13487860D02*
X7574443Y-13478336D01*
X7574443Y-13478336D02*
X7593491Y-13468812D01*
X7593491Y-13468812D02*
X7622062Y-13468812D01*
X7622062Y-13468812D02*
X7641110Y-13478336D01*
X7641110Y-13478336D02*
X7650634Y-13497384D01*
X7650634Y-13497384D02*
X7650634Y-13602146D01*
X7650634Y-13497384D02*
X7660158Y-13478336D01*
X7660158Y-13478336D02*
X7679205Y-13468812D01*
X7679205Y-13468812D02*
X7707777Y-13468812D01*
X7707777Y-13468812D02*
X7726824Y-13478336D01*
X7726824Y-13478336D02*
X7736348Y-13497384D01*
X7736348Y-13497384D02*
X7736348Y-13602146D01*
X7831586Y-13602146D02*
X7831586Y-13468812D01*
X7831586Y-13487860D02*
X7841110Y-13478336D01*
X7841110Y-13478336D02*
X7860158Y-13468812D01*
X7860158Y-13468812D02*
X7888729Y-13468812D01*
X7888729Y-13468812D02*
X7907777Y-13478336D01*
X7907777Y-13478336D02*
X7917300Y-13497384D01*
X7917300Y-13497384D02*
X7917300Y-13602146D01*
X7917300Y-13497384D02*
X7926824Y-13478336D01*
X7926824Y-13478336D02*
X7945872Y-13468812D01*
X7945872Y-13468812D02*
X7974443Y-13468812D01*
X7974443Y-13468812D02*
X7993491Y-13478336D01*
X7993491Y-13478336D02*
X8003015Y-13497384D01*
X8003015Y-13497384D02*
X8003015Y-13602146D01*
X8393491Y-13392622D02*
X8222062Y-13649765D01*
X8650634Y-13402146D02*
X8669682Y-13402146D01*
X8669682Y-13402146D02*
X8688729Y-13411670D01*
X8688729Y-13411670D02*
X8698253Y-13421193D01*
X8698253Y-13421193D02*
X8707777Y-13440241D01*
X8707777Y-13440241D02*
X8717301Y-13478336D01*
X8717301Y-13478336D02*
X8717301Y-13525955D01*
X8717301Y-13525955D02*
X8707777Y-13564051D01*
X8707777Y-13564051D02*
X8698253Y-13583098D01*
X8698253Y-13583098D02*
X8688729Y-13592622D01*
X8688729Y-13592622D02*
X8669682Y-13602146D01*
X8669682Y-13602146D02*
X8650634Y-13602146D01*
X8650634Y-13602146D02*
X8631586Y-13592622D01*
X8631586Y-13592622D02*
X8622063Y-13583098D01*
X8622063Y-13583098D02*
X8612539Y-13564051D01*
X8612539Y-13564051D02*
X8603015Y-13525955D01*
X8603015Y-13525955D02*
X8603015Y-13478336D01*
X8603015Y-13478336D02*
X8612539Y-13440241D01*
X8612539Y-13440241D02*
X8622063Y-13421193D01*
X8622063Y-13421193D02*
X8631586Y-13411670D01*
X8631586Y-13411670D02*
X8650634Y-13402146D01*
X8803015Y-13583098D02*
X8812539Y-13592622D01*
X8812539Y-13592622D02*
X8803015Y-13602146D01*
X8803015Y-13602146D02*
X8793491Y-13592622D01*
X8793491Y-13592622D02*
X8803015Y-13583098D01*
X8803015Y-13583098D02*
X8803015Y-13602146D01*
X8936348Y-13402146D02*
X8955396Y-13402146D01*
X8955396Y-13402146D02*
X8974444Y-13411670D01*
X8974444Y-13411670D02*
X8983967Y-13421193D01*
X8983967Y-13421193D02*
X8993491Y-13440241D01*
X8993491Y-13440241D02*
X9003015Y-13478336D01*
X9003015Y-13478336D02*
X9003015Y-13525955D01*
X9003015Y-13525955D02*
X8993491Y-13564051D01*
X8993491Y-13564051D02*
X8983967Y-13583098D01*
X8983967Y-13583098D02*
X8974444Y-13592622D01*
X8974444Y-13592622D02*
X8955396Y-13602146D01*
X8955396Y-13602146D02*
X8936348Y-13602146D01*
X8936348Y-13602146D02*
X8917301Y-13592622D01*
X8917301Y-13592622D02*
X8907777Y-13583098D01*
X8907777Y-13583098D02*
X8898253Y-13564051D01*
X8898253Y-13564051D02*
X8888729Y-13525955D01*
X8888729Y-13525955D02*
X8888729Y-13478336D01*
X8888729Y-13478336D02*
X8898253Y-13440241D01*
X8898253Y-13440241D02*
X8907777Y-13421193D01*
X8907777Y-13421193D02*
X8917301Y-13411670D01*
X8917301Y-13411670D02*
X8936348Y-13402146D01*
X9117301Y-13487860D02*
X9098253Y-13478336D01*
X9098253Y-13478336D02*
X9088729Y-13468812D01*
X9088729Y-13468812D02*
X9079205Y-13449765D01*
X9079205Y-13449765D02*
X9079205Y-13440241D01*
X9079205Y-13440241D02*
X9088729Y-13421193D01*
X9088729Y-13421193D02*
X9098253Y-13411670D01*
X9098253Y-13411670D02*
X9117301Y-13402146D01*
X9117301Y-13402146D02*
X9155396Y-13402146D01*
X9155396Y-13402146D02*
X9174444Y-13411670D01*
X9174444Y-13411670D02*
X9183967Y-13421193D01*
X9183967Y-13421193D02*
X9193491Y-13440241D01*
X9193491Y-13440241D02*
X9193491Y-13449765D01*
X9193491Y-13449765D02*
X9183967Y-13468812D01*
X9183967Y-13468812D02*
X9174444Y-13478336D01*
X9174444Y-13478336D02*
X9155396Y-13487860D01*
X9155396Y-13487860D02*
X9117301Y-13487860D01*
X9117301Y-13487860D02*
X9098253Y-13497384D01*
X9098253Y-13497384D02*
X9088729Y-13506908D01*
X9088729Y-13506908D02*
X9079205Y-13525955D01*
X9079205Y-13525955D02*
X9079205Y-13564051D01*
X9079205Y-13564051D02*
X9088729Y-13583098D01*
X9088729Y-13583098D02*
X9098253Y-13592622D01*
X9098253Y-13592622D02*
X9117301Y-13602146D01*
X9117301Y-13602146D02*
X9155396Y-13602146D01*
X9155396Y-13602146D02*
X9174444Y-13592622D01*
X9174444Y-13592622D02*
X9183967Y-13583098D01*
X9183967Y-13583098D02*
X9193491Y-13564051D01*
X9193491Y-13564051D02*
X9193491Y-13525955D01*
X9193491Y-13525955D02*
X9183967Y-13506908D01*
X9183967Y-13506908D02*
X9174444Y-13497384D01*
X9174444Y-13497384D02*
X9155396Y-13487860D01*
X9364920Y-13402146D02*
X9326824Y-13402146D01*
X9326824Y-13402146D02*
X9307777Y-13411670D01*
X9307777Y-13411670D02*
X9298253Y-13421193D01*
X9298253Y-13421193D02*
X9279205Y-13449765D01*
X9279205Y-13449765D02*
X9269682Y-13487860D01*
X9269682Y-13487860D02*
X9269682Y-13564051D01*
X9269682Y-13564051D02*
X9279205Y-13583098D01*
X9279205Y-13583098D02*
X9288729Y-13592622D01*
X9288729Y-13592622D02*
X9307777Y-13602146D01*
X9307777Y-13602146D02*
X9345872Y-13602146D01*
X9345872Y-13602146D02*
X9364920Y-13592622D01*
X9364920Y-13592622D02*
X9374444Y-13583098D01*
X9374444Y-13583098D02*
X9383967Y-13564051D01*
X9383967Y-13564051D02*
X9383967Y-13516432D01*
X9383967Y-13516432D02*
X9374444Y-13497384D01*
X9374444Y-13497384D02*
X9364920Y-13487860D01*
X9364920Y-13487860D02*
X9345872Y-13478336D01*
X9345872Y-13478336D02*
X9307777Y-13478336D01*
X9307777Y-13478336D02*
X9288729Y-13487860D01*
X9288729Y-13487860D02*
X9279205Y-13497384D01*
X9279205Y-13497384D02*
X9269682Y-13516432D01*
X9555396Y-13402146D02*
X9517301Y-13402146D01*
X9517301Y-13402146D02*
X9498253Y-13411670D01*
X9498253Y-13411670D02*
X9488729Y-13421193D01*
X9488729Y-13421193D02*
X9469682Y-13449765D01*
X9469682Y-13449765D02*
X9460158Y-13487860D01*
X9460158Y-13487860D02*
X9460158Y-13564051D01*
X9460158Y-13564051D02*
X9469682Y-13583098D01*
X9469682Y-13583098D02*
X9479205Y-13592622D01*
X9479205Y-13592622D02*
X9498253Y-13602146D01*
X9498253Y-13602146D02*
X9536348Y-13602146D01*
X9536348Y-13602146D02*
X9555396Y-13592622D01*
X9555396Y-13592622D02*
X9564920Y-13583098D01*
X9564920Y-13583098D02*
X9574444Y-13564051D01*
X9574444Y-13564051D02*
X9574444Y-13516432D01*
X9574444Y-13516432D02*
X9564920Y-13497384D01*
X9564920Y-13497384D02*
X9555396Y-13487860D01*
X9555396Y-13487860D02*
X9536348Y-13478336D01*
X9536348Y-13478336D02*
X9498253Y-13478336D01*
X9498253Y-13478336D02*
X9479205Y-13487860D01*
X9479205Y-13487860D02*
X9469682Y-13497384D01*
X9469682Y-13497384D02*
X9460158Y-13516432D01*
X9650634Y-13402146D02*
X9650634Y-13440241D01*
X9726825Y-13402146D02*
X9726825Y-13440241D01*
X10022063Y-13678336D02*
X10012539Y-13668812D01*
X10012539Y-13668812D02*
X9993491Y-13640241D01*
X9993491Y-13640241D02*
X9983967Y-13621193D01*
X9983967Y-13621193D02*
X9974444Y-13592622D01*
X9974444Y-13592622D02*
X9964920Y-13545003D01*
X9964920Y-13545003D02*
X9964920Y-13506908D01*
X9964920Y-13506908D02*
X9974444Y-13459289D01*
X9974444Y-13459289D02*
X9983967Y-13430717D01*
X9983967Y-13430717D02*
X9993491Y-13411670D01*
X9993491Y-13411670D02*
X10012539Y-13383098D01*
X10012539Y-13383098D02*
X10022063Y-13373574D01*
X10183967Y-13468812D02*
X10183967Y-13602146D01*
X10136348Y-13392622D02*
X10088729Y-13535479D01*
X10088729Y-13535479D02*
X10212539Y-13535479D01*
X10441110Y-13602146D02*
X10441110Y-13402146D01*
X10526825Y-13602146D02*
X10526825Y-13497384D01*
X10526825Y-13497384D02*
X10517301Y-13478336D01*
X10517301Y-13478336D02*
X10498253Y-13468812D01*
X10498253Y-13468812D02*
X10469682Y-13468812D01*
X10469682Y-13468812D02*
X10450634Y-13478336D01*
X10450634Y-13478336D02*
X10441110Y-13487860D01*
X10650634Y-13602146D02*
X10631587Y-13592622D01*
X10631587Y-13592622D02*
X10622063Y-13583098D01*
X10622063Y-13583098D02*
X10612539Y-13564051D01*
X10612539Y-13564051D02*
X10612539Y-13506908D01*
X10612539Y-13506908D02*
X10622063Y-13487860D01*
X10622063Y-13487860D02*
X10631587Y-13478336D01*
X10631587Y-13478336D02*
X10650634Y-13468812D01*
X10650634Y-13468812D02*
X10679206Y-13468812D01*
X10679206Y-13468812D02*
X10698253Y-13478336D01*
X10698253Y-13478336D02*
X10707777Y-13487860D01*
X10707777Y-13487860D02*
X10717301Y-13506908D01*
X10717301Y-13506908D02*
X10717301Y-13564051D01*
X10717301Y-13564051D02*
X10707777Y-13583098D01*
X10707777Y-13583098D02*
X10698253Y-13592622D01*
X10698253Y-13592622D02*
X10679206Y-13602146D01*
X10679206Y-13602146D02*
X10650634Y-13602146D01*
X10831587Y-13602146D02*
X10812539Y-13592622D01*
X10812539Y-13592622D02*
X10803015Y-13573574D01*
X10803015Y-13573574D02*
X10803015Y-13402146D01*
X10983968Y-13592622D02*
X10964920Y-13602146D01*
X10964920Y-13602146D02*
X10926825Y-13602146D01*
X10926825Y-13602146D02*
X10907777Y-13592622D01*
X10907777Y-13592622D02*
X10898253Y-13573574D01*
X10898253Y-13573574D02*
X10898253Y-13497384D01*
X10898253Y-13497384D02*
X10907777Y-13478336D01*
X10907777Y-13478336D02*
X10926825Y-13468812D01*
X10926825Y-13468812D02*
X10964920Y-13468812D01*
X10964920Y-13468812D02*
X10983968Y-13478336D01*
X10983968Y-13478336D02*
X10993491Y-13497384D01*
X10993491Y-13497384D02*
X10993491Y-13516432D01*
X10993491Y-13516432D02*
X10898253Y-13535479D01*
X11069682Y-13592622D02*
X11088729Y-13602146D01*
X11088729Y-13602146D02*
X11126825Y-13602146D01*
X11126825Y-13602146D02*
X11145872Y-13592622D01*
X11145872Y-13592622D02*
X11155396Y-13573574D01*
X11155396Y-13573574D02*
X11155396Y-13564051D01*
X11155396Y-13564051D02*
X11145872Y-13545003D01*
X11145872Y-13545003D02*
X11126825Y-13535479D01*
X11126825Y-13535479D02*
X11098253Y-13535479D01*
X11098253Y-13535479D02*
X11079206Y-13525955D01*
X11079206Y-13525955D02*
X11069682Y-13506908D01*
X11069682Y-13506908D02*
X11069682Y-13497384D01*
X11069682Y-13497384D02*
X11079206Y-13478336D01*
X11079206Y-13478336D02*
X11098253Y-13468812D01*
X11098253Y-13468812D02*
X11126825Y-13468812D01*
X11126825Y-13468812D02*
X11145872Y-13478336D01*
X11222063Y-13678336D02*
X11231587Y-13668812D01*
X11231587Y-13668812D02*
X11250634Y-13640241D01*
X11250634Y-13640241D02*
X11260158Y-13621193D01*
X11260158Y-13621193D02*
X11269682Y-13592622D01*
X11269682Y-13592622D02*
X11279206Y-13545003D01*
X11279206Y-13545003D02*
X11279206Y-13506908D01*
X11279206Y-13506908D02*
X11269682Y-13459289D01*
X11269682Y-13459289D02*
X11260158Y-13430717D01*
X11260158Y-13430717D02*
X11250634Y-13411670D01*
X11250634Y-13411670D02*
X11231587Y-13383098D01*
X11231587Y-13383098D02*
X11222063Y-13373574D01*
M02*
