%TF.GenerationSoftware,KiCad,Pcbnew,8.0.1*%
%TF.CreationDate,2024-03-31T21:51:30+08:00*%
%TF.ProjectId,encoder,656e636f-6465-4722-9e6b-696361645f70,rev?*%
%TF.SameCoordinates,Original*%
%TF.FileFunction,Soldermask,Top*%
%TF.FilePolarity,Negative*%
%FSLAX46Y46*%
G04 Gerber Fmt 4.6, Leading zero omitted, Abs format (unit mm)*
G04 Created by KiCad (PCBNEW 8.0.1) date 2024-03-31 21:51:30*
%MOMM*%
%LPD*%
G01*
G04 APERTURE LIST*
G04 Aperture macros list*
%AMRoundRect*
0 Rectangle with rounded corners*
0 $1 Rounding radius*
0 $2 $3 $4 $5 $6 $7 $8 $9 X,Y pos of 4 corners*
0 Add a 4 corners polygon primitive as box body*
4,1,4,$2,$3,$4,$5,$6,$7,$8,$9,$2,$3,0*
0 Add four circle primitives for the rounded corners*
1,1,$1+$1,$2,$3*
1,1,$1+$1,$4,$5*
1,1,$1+$1,$6,$7*
1,1,$1+$1,$8,$9*
0 Add four rect primitives between the rounded corners*
20,1,$1+$1,$2,$3,$4,$5,0*
20,1,$1+$1,$4,$5,$6,$7,0*
20,1,$1+$1,$6,$7,$8,$9,0*
20,1,$1+$1,$8,$9,$2,$3,0*%
G04 Aperture macros list end*
%ADD10R,1.700000X1.700000*%
%ADD11O,1.700000X1.700000*%
%ADD12R,1.710000X0.600000*%
%ADD13R,2.550000X1.200000*%
%ADD14RoundRect,0.237500X0.237500X-0.300000X0.237500X0.300000X-0.237500X0.300000X-0.237500X-0.300000X0*%
%ADD15O,4.000000X10.000000*%
%ADD16O,10.000000X4.000000*%
%ADD17C,3.400000*%
%ADD18C,6.000000*%
%ADD19RoundRect,0.100000X-0.637500X-0.100000X0.637500X-0.100000X0.637500X0.100000X-0.637500X0.100000X0*%
G04 APERTURE END LIST*
D10*
%TO.C,J2*%
X160700000Y-63260000D03*
D11*
X160700000Y-65800000D03*
X160700000Y-68340000D03*
%TD*%
D10*
%TO.C,J3*%
X133650000Y-53500000D03*
D11*
X136190000Y-53500000D03*
X138730000Y-53500000D03*
X141270000Y-53500000D03*
X143810000Y-53500000D03*
X146350000Y-53500000D03*
%TD*%
D12*
%TO.C,J6*%
X119220000Y-64500000D03*
X119220000Y-63500000D03*
X119220000Y-62500000D03*
D13*
X122960000Y-61390000D03*
X122960000Y-65610000D03*
%TD*%
D14*
%TO.C,C1*%
X145500000Y-73500000D03*
X145500000Y-71775000D03*
%TD*%
D15*
%TO.C,H2*%
X140800000Y-86000000D03*
%TD*%
D16*
%TO.C,H4*%
X153100000Y-73400000D03*
%TD*%
D17*
%TO.C,H8*%
X159000000Y-55600000D03*
D18*
X159000000Y-55600000D03*
%TD*%
D19*
%TO.C,U1*%
X137650000Y-71562500D03*
X137650000Y-72212500D03*
X137650000Y-72862500D03*
X137650000Y-73512500D03*
X137650000Y-74162500D03*
X137650000Y-74812500D03*
X137650000Y-75462500D03*
X143375000Y-75462500D03*
X143375000Y-74812500D03*
X143375000Y-74162500D03*
X143375000Y-73512500D03*
X143375000Y-72862500D03*
X143375000Y-72212500D03*
X143375000Y-71562500D03*
%TD*%
D12*
%TO.C,J5*%
X123480000Y-81900000D03*
X123480000Y-82900000D03*
X123480000Y-83900000D03*
D13*
X119740000Y-85010000D03*
X119740000Y-80790000D03*
%TD*%
D15*
%TO.C,H3*%
X140800000Y-61375000D03*
%TD*%
D16*
%TO.C,H1*%
X128475000Y-73700000D03*
%TD*%
D17*
%TO.C,H5*%
X121800000Y-55800000D03*
D18*
X121800000Y-55800000D03*
%TD*%
D17*
%TO.C,H7*%
X158900000Y-94800000D03*
D18*
X158900000Y-94800000D03*
%TD*%
D10*
%TO.C,J1*%
X160475000Y-84225000D03*
D11*
X160475000Y-81685000D03*
X160475000Y-79145000D03*
%TD*%
D17*
%TO.C,H6*%
X121600000Y-94800000D03*
D18*
X121600000Y-94800000D03*
%TD*%
M02*
