%TF.GenerationSoftware,KiCad,Pcbnew,8.0.1*%
%TF.CreationDate,2024-03-31T21:51:29+08:00*%
%TF.ProjectId,encoder,656e636f-6465-4722-9e6b-696361645f70,rev?*%
%TF.SameCoordinates,Original*%
%TF.FileFunction,Copper,L1,Top*%
%TF.FilePolarity,Positive*%
%FSLAX46Y46*%
G04 Gerber Fmt 4.6, Leading zero omitted, Abs format (unit mm)*
G04 Created by KiCad (PCBNEW 8.0.1) date 2024-03-31 21:51:29*
%MOMM*%
%LPD*%
G01*
G04 APERTURE LIST*
G04 Aperture macros list*
%AMRoundRect*
0 Rectangle with rounded corners*
0 $1 Rounding radius*
0 $2 $3 $4 $5 $6 $7 $8 $9 X,Y pos of 4 corners*
0 Add a 4 corners polygon primitive as box body*
4,1,4,$2,$3,$4,$5,$6,$7,$8,$9,$2,$3,0*
0 Add four circle primitives for the rounded corners*
1,1,$1+$1,$2,$3*
1,1,$1+$1,$4,$5*
1,1,$1+$1,$6,$7*
1,1,$1+$1,$8,$9*
0 Add four rect primitives between the rounded corners*
20,1,$1+$1,$2,$3,$4,$5,0*
20,1,$1+$1,$4,$5,$6,$7,0*
20,1,$1+$1,$6,$7,$8,$9,0*
20,1,$1+$1,$8,$9,$2,$3,0*%
G04 Aperture macros list end*
%TA.AperFunction,ComponentPad*%
%ADD10R,1.700000X1.700000*%
%TD*%
%TA.AperFunction,ComponentPad*%
%ADD11O,1.700000X1.700000*%
%TD*%
%TA.AperFunction,SMDPad,CuDef*%
%ADD12R,1.710000X0.600000*%
%TD*%
%TA.AperFunction,SMDPad,CuDef*%
%ADD13R,2.550000X1.200000*%
%TD*%
%TA.AperFunction,SMDPad,CuDef*%
%ADD14RoundRect,0.237500X0.237500X-0.300000X0.237500X0.300000X-0.237500X0.300000X-0.237500X-0.300000X0*%
%TD*%
%TA.AperFunction,ComponentPad*%
%ADD15O,4.000000X10.000000*%
%TD*%
%TA.AperFunction,ComponentPad*%
%ADD16O,10.000000X4.000000*%
%TD*%
%TA.AperFunction,ComponentPad*%
%ADD17C,3.400000*%
%TD*%
%TA.AperFunction,ConnectorPad*%
%ADD18C,6.000000*%
%TD*%
%TA.AperFunction,SMDPad,CuDef*%
%ADD19RoundRect,0.100000X-0.637500X-0.100000X0.637500X-0.100000X0.637500X0.100000X-0.637500X0.100000X0*%
%TD*%
%TA.AperFunction,ViaPad*%
%ADD20C,0.500000*%
%TD*%
%TA.AperFunction,ViaPad*%
%ADD21C,1.000000*%
%TD*%
%TA.AperFunction,Conductor*%
%ADD22C,0.300000*%
%TD*%
%TA.AperFunction,Conductor*%
%ADD23C,0.600000*%
%TD*%
G04 APERTURE END LIST*
D10*
%TO.P,J2,1,Pin_1*%
%TO.N,/W*%
X160700000Y-63260000D03*
D11*
%TO.P,J2,2,Pin_2*%
%TO.N,/V*%
X160700000Y-65800000D03*
%TO.P,J2,3,Pin_3*%
%TO.N,/U*%
X160700000Y-68340000D03*
%TD*%
D10*
%TO.P,J3,1,Pin_1*%
%TO.N,/MOSI*%
X133650000Y-53500000D03*
D11*
%TO.P,J3,2,Pin_2*%
%TO.N,/MISO*%
X136190000Y-53500000D03*
%TO.P,J3,3,Pin_3*%
%TO.N,/CLK*%
X138730000Y-53500000D03*
%TO.P,J3,4,Pin_4*%
%TO.N,/CS*%
X141270000Y-53500000D03*
%TO.P,J3,5,Pin_5*%
%TO.N,+3V3*%
X143810000Y-53500000D03*
%TO.P,J3,6,Pin_6*%
%TO.N,GND*%
X146350000Y-53500000D03*
%TD*%
D12*
%TO.P,J6,1,Pin_1*%
%TO.N,/U*%
X119220000Y-64500000D03*
%TO.P,J6,2,Pin_2*%
%TO.N,/V*%
X119220000Y-63500000D03*
%TO.P,J6,3,Pin_3*%
%TO.N,/W*%
X119220000Y-62500000D03*
D13*
%TO.P,J6,4*%
%TO.N,N/C*%
X122960000Y-61390000D03*
%TO.P,J6,5*%
X122960000Y-65610000D03*
%TD*%
D14*
%TO.P,C1,1*%
%TO.N,+3V3*%
X145500000Y-73500000D03*
%TO.P,C1,2*%
%TO.N,GND*%
X145500000Y-71775000D03*
%TD*%
D15*
%TO.P,H2,1*%
%TO.N,N/C*%
X140800000Y-86000000D03*
%TD*%
D16*
%TO.P,H4,1*%
%TO.N,N/C*%
X153100000Y-73400000D03*
%TD*%
D17*
%TO.P,H8,1*%
%TO.N,N/C*%
X159000000Y-55600000D03*
D18*
X159000000Y-55600000D03*
%TD*%
D19*
%TO.P,U1,1,~{CS}*%
%TO.N,/CS*%
X137650000Y-71562500D03*
%TO.P,U1,2,CLK*%
%TO.N,/CLK*%
X137650000Y-72212500D03*
%TO.P,U1,3,MISO*%
%TO.N,/MISO*%
X137650000Y-72862500D03*
%TO.P,U1,4,MOSI*%
%TO.N,/MOSI*%
X137650000Y-73512500D03*
%TO.P,U1,5,TST*%
%TO.N,GND*%
X137650000Y-74162500D03*
%TO.P,U1,6,B*%
%TO.N,unconnected-(U1-B-Pad6)*%
X137650000Y-74812500D03*
%TO.P,U1,7,A*%
%TO.N,unconnected-(U1-A-Pad7)*%
X137650000Y-75462500D03*
%TO.P,U1,8,W/PWM*%
%TO.N,unconnected-(U1-W{slash}PWM-Pad8)*%
X143375000Y-75462500D03*
%TO.P,U1,9,V*%
%TO.N,unconnected-(U1-V-Pad9)*%
X143375000Y-74812500D03*
%TO.P,U1,10,U*%
%TO.N,unconnected-(U1-U-Pad10)*%
X143375000Y-74162500D03*
%TO.P,U1,11,VDD*%
%TO.N,+3V3*%
X143375000Y-73512500D03*
%TO.P,U1,12,VDD3V3*%
X143375000Y-72862500D03*
%TO.P,U1,13,GND*%
%TO.N,GND*%
X143375000Y-72212500D03*
%TO.P,U1,14,I/PWM*%
%TO.N,unconnected-(U1-I{slash}PWM-Pad14)*%
X143375000Y-71562500D03*
%TD*%
D12*
%TO.P,J5,1,Pin_1*%
%TO.N,/U*%
X123480000Y-81900000D03*
%TO.P,J5,2,Pin_2*%
%TO.N,/V*%
X123480000Y-82900000D03*
%TO.P,J5,3,Pin_3*%
%TO.N,/W*%
X123480000Y-83900000D03*
D13*
%TO.P,J5,4*%
%TO.N,N/C*%
X119740000Y-85010000D03*
%TO.P,J5,5*%
X119740000Y-80790000D03*
%TD*%
D15*
%TO.P,H3,1*%
%TO.N,N/C*%
X140800000Y-61375000D03*
%TD*%
D16*
%TO.P,H1,1*%
%TO.N,N/C*%
X128475000Y-73700000D03*
%TD*%
D17*
%TO.P,H5,1*%
%TO.N,N/C*%
X121800000Y-55800000D03*
D18*
X121800000Y-55800000D03*
%TD*%
D17*
%TO.P,H7,1*%
%TO.N,N/C*%
X158900000Y-94800000D03*
D18*
X158900000Y-94800000D03*
%TD*%
D10*
%TO.P,J1,1,Pin_1*%
%TO.N,/W*%
X160475000Y-84225000D03*
D11*
%TO.P,J1,2,Pin_2*%
%TO.N,/V*%
X160475000Y-81685000D03*
%TO.P,J1,3,Pin_3*%
%TO.N,/U*%
X160475000Y-79145000D03*
%TD*%
D17*
%TO.P,H6,1*%
%TO.N,N/C*%
X121600000Y-94800000D03*
D18*
X121600000Y-94800000D03*
%TD*%
D20*
%TO.N,GND*%
X136000000Y-74000000D03*
D21*
X145500000Y-70500000D03*
%TO.N,/V*%
X157500000Y-81000000D03*
X121515000Y-82090000D03*
%TO.N,/U*%
X121000000Y-67000000D03*
X123480000Y-79000000D03*
X119088390Y-65391655D03*
X157500000Y-79000000D03*
%TD*%
D22*
%TO.N,GND*%
X136162500Y-74162500D02*
X136000000Y-74000000D01*
X143375000Y-72212500D02*
X145062500Y-72212500D01*
X145062500Y-72212500D02*
X145500000Y-71775000D01*
D23*
X145500000Y-71775000D02*
X145500000Y-70500000D01*
D22*
X137650000Y-74162500D02*
X136162500Y-74162500D01*
D23*
%TO.N,+3V3*%
X145500000Y-73500000D02*
X146500000Y-72500000D01*
X144450000Y-72912500D02*
X143375000Y-72912500D01*
X145462500Y-73462500D02*
X145000000Y-73462500D01*
X146500000Y-56190000D02*
X143810000Y-53500000D01*
X146500000Y-72500000D02*
X146500000Y-56190000D01*
X145500000Y-73500000D02*
X145462500Y-73462500D01*
X145000000Y-73462500D02*
X143375000Y-73462500D01*
X145000000Y-73462500D02*
X144450000Y-72912500D01*
%TO.N,/W*%
X119420000Y-62500000D02*
X122925000Y-62500000D01*
X153200000Y-91500000D02*
X130248629Y-91500000D01*
X122925000Y-62500000D02*
X124935000Y-64510000D01*
X124935000Y-64510000D02*
X124935000Y-69704466D01*
X125200000Y-83000000D02*
X125200000Y-83635000D01*
X122980000Y-84231371D02*
X122980000Y-83900000D01*
X121975000Y-72664466D02*
X121975000Y-75175000D01*
X124935000Y-69704466D02*
X121975000Y-72664466D01*
X125200000Y-83635000D02*
X124935000Y-83900000D01*
X124935000Y-83900000D02*
X123780000Y-83900000D01*
X125200000Y-78400000D02*
X125200000Y-83000000D01*
X121975000Y-75175000D02*
X125200000Y-78400000D01*
X160475000Y-84225000D02*
X153200000Y-91500000D01*
X130248629Y-91500000D02*
X122980000Y-84231371D01*
%TO.N,/V*%
X120400000Y-63500000D02*
X119420000Y-63500000D01*
X157500000Y-81000000D02*
X158185000Y-81685000D01*
X162050000Y-67150000D02*
X162050000Y-80110000D01*
X120800000Y-65075000D02*
X120800000Y-63900000D01*
X119900000Y-77900000D02*
X119900000Y-65975000D01*
X120800000Y-63900000D02*
X120400000Y-63500000D01*
X123780000Y-82900000D02*
X122325000Y-82900000D01*
X122325000Y-82900000D02*
X123480000Y-82900000D01*
X162050000Y-80110000D02*
X160475000Y-81685000D01*
X160700000Y-65800000D02*
X162050000Y-67150000D01*
X121515000Y-82090000D02*
X121515000Y-79515000D01*
X121515000Y-79515000D02*
X119900000Y-77900000D01*
X122325000Y-82900000D02*
X121515000Y-82090000D01*
X158185000Y-81685000D02*
X160475000Y-81685000D01*
X119900000Y-65975000D02*
X120800000Y-65075000D01*
%TO.N,/U*%
X123480000Y-79000000D02*
X123480000Y-77980000D01*
X160475000Y-68565000D02*
X160700000Y-68340000D01*
X121000000Y-75500000D02*
X121000000Y-67000000D01*
X160330000Y-79000000D02*
X160475000Y-79145000D01*
X157500000Y-79000000D02*
X160330000Y-79000000D01*
X119088390Y-65391655D02*
X119088390Y-64631610D01*
X123480000Y-81900000D02*
X123480000Y-79000000D01*
X119088390Y-64631610D02*
X119220000Y-64500000D01*
X160475000Y-79145000D02*
X160475000Y-68565000D01*
X123480000Y-77980000D02*
X121000000Y-75500000D01*
D22*
%TO.N,/MISO*%
X136855395Y-72862500D02*
X135500000Y-71507105D01*
X135500000Y-54190000D02*
X136190000Y-53500000D01*
X137650000Y-72862500D02*
X136855395Y-72862500D01*
X135500000Y-71507105D02*
X135500000Y-54190000D01*
%TO.N,/MOSI*%
X136798289Y-73512500D02*
X133650000Y-70364211D01*
X137650000Y-73512500D02*
X136798289Y-73512500D01*
X133650000Y-70364211D02*
X133650000Y-53500000D01*
%TO.N,/CS*%
X137650000Y-57120000D02*
X141270000Y-53500000D01*
X137650000Y-71562500D02*
X137650000Y-57120000D01*
%TO.N,/CLK*%
X136912501Y-72212500D02*
X136562500Y-71862499D01*
X137650000Y-72212500D02*
X136912501Y-72212500D01*
X136562500Y-71862499D02*
X136562500Y-55667500D01*
X136562500Y-55667500D02*
X138730000Y-53500000D01*
%TD*%
M02*
