M48
; DRILL file {KiCad 8.0.1} date 2024-05-01T16:23:48+0800
; FORMAT={-:-/ absolute / inch / decimal}
; #@! TF.CreationDate,2024-05-01T16:23:48+08:00
; #@! TF.GenerationSoftware,Kicad,Pcbnew,8.0.1
; #@! TF.FileFunction,Plated,1,2,PTH
FMAT,2
INCH
; #@! TA.AperFunction,Plated,PTH,ViaDrill
T1C0.0098
; #@! TA.AperFunction,Plated,PTH,ViaDrill
T2C0.0157
; #@! TA.AperFunction,Plated,PTH,ComponentDrill
T3C0.0157
; #@! TA.AperFunction,Plated,PTH,ComponentDrill
T4C0.0866
%
G90
G05
T1
X7.9646Y-2.9159
X7.9646Y-2.9543
X7.988Y-2.8659
T2
X7.7006Y-2.9213
X7.7884Y-3.0134
T3
X7.4272Y-2.9409
X7.4462Y-2.895
X7.4462Y-2.9869
X7.4921Y-2.876
X7.4921Y-3.0059
X7.5381Y-2.895
X7.5381Y-2.9869
X7.5571Y-2.9409
X8.2146Y-2.9409
X8.2336Y-2.895
X8.2336Y-2.9869
X8.2795Y-2.876
X8.2795Y-3.0059
X8.3255Y-2.895
X8.3255Y-2.9869
X8.3445Y-2.9409
T4
X7.4921Y-2.9409
X8.2795Y-2.9409
M30
