%TF.GenerationSoftware,KiCad,Pcbnew,8.0.1*%
%TF.CreationDate,2024-05-01T16:23:47+08:00*%
%TF.ProjectId,encoder,656e636f-6465-4722-9e6b-696361645f70,rev?*%
%TF.SameCoordinates,Original*%
%TF.FileFunction,Drillmap*%
%TF.FilePolarity,Positive*%
%FSLAX45Y45*%
G04 Gerber Fmt 4.5, Leading zero omitted, Abs format (unit mm)*
G04 Created by KiCad (PCBNEW 8.0.1) date 2024-05-01 16:23:47*
%MOMM*%
%LPD*%
G01*
G04 APERTURE LIST*
%ADD10C,0.200000*%
G04 APERTURE END LIST*
D10*
X18490000Y-7385000D02*
X19834212Y-6816586D01*
X19834212Y-8137624D02*
X18490000Y-7569210D01*
X21567895Y-7569210D02*
X20223683Y-8137624D01*
X21567895Y-7385001D02*
G75*
G02*
X21567891Y-7569200I-38945J-92099D01*
G01*
X21567895Y-7385001D02*
X21567895Y-7385000D01*
X20223683Y-6816586D02*
X21567895Y-7385000D01*
X18490000Y-7569209D02*
X18490000Y-7569210D01*
X18490000Y-7569209D02*
G75*
G02*
X18489997Y-7384993I38950J92109D01*
G01*
X20223683Y-8137624D02*
G75*
G02*
X19834213Y-8137622I-194733J460514D01*
G01*
X21567895Y-7569209D02*
X21567895Y-7569210D01*
X18490000Y-7385001D02*
X18490000Y-7385000D01*
X19834212Y-6816586D02*
G75*
G02*
X20223683Y-6816586I194735J-460517D01*
G01*
X18679721Y-8498588D02*
X18679721Y-8298588D01*
X18679721Y-8298588D02*
X18727340Y-8298588D01*
X18727340Y-8298588D02*
X18755912Y-8308112D01*
X18755912Y-8308112D02*
X18774959Y-8327159D01*
X18774959Y-8327159D02*
X18784483Y-8346207D01*
X18784483Y-8346207D02*
X18794007Y-8384302D01*
X18794007Y-8384302D02*
X18794007Y-8412874D01*
X18794007Y-8412874D02*
X18784483Y-8450969D01*
X18784483Y-8450969D02*
X18774959Y-8470017D01*
X18774959Y-8470017D02*
X18755912Y-8489064D01*
X18755912Y-8489064D02*
X18727340Y-8498588D01*
X18727340Y-8498588D02*
X18679721Y-8498588D01*
X18879721Y-8498588D02*
X18879721Y-8365255D01*
X18879721Y-8403350D02*
X18889245Y-8384302D01*
X18889245Y-8384302D02*
X18898769Y-8374778D01*
X18898769Y-8374778D02*
X18917817Y-8365255D01*
X18917817Y-8365255D02*
X18936864Y-8365255D01*
X19003531Y-8498588D02*
X19003531Y-8365255D01*
X19003531Y-8298588D02*
X18994007Y-8308112D01*
X18994007Y-8308112D02*
X19003531Y-8317636D01*
X19003531Y-8317636D02*
X19013055Y-8308112D01*
X19013055Y-8308112D02*
X19003531Y-8298588D01*
X19003531Y-8298588D02*
X19003531Y-8317636D01*
X19127340Y-8498588D02*
X19108293Y-8489064D01*
X19108293Y-8489064D02*
X19098769Y-8470017D01*
X19098769Y-8470017D02*
X19098769Y-8298588D01*
X19232102Y-8498588D02*
X19213055Y-8489064D01*
X19213055Y-8489064D02*
X19203531Y-8470017D01*
X19203531Y-8470017D02*
X19203531Y-8298588D01*
X19460674Y-8498588D02*
X19460674Y-8298588D01*
X19460674Y-8298588D02*
X19527340Y-8441445D01*
X19527340Y-8441445D02*
X19594007Y-8298588D01*
X19594007Y-8298588D02*
X19594007Y-8498588D01*
X19774959Y-8498588D02*
X19774959Y-8393826D01*
X19774959Y-8393826D02*
X19765436Y-8374778D01*
X19765436Y-8374778D02*
X19746388Y-8365255D01*
X19746388Y-8365255D02*
X19708293Y-8365255D01*
X19708293Y-8365255D02*
X19689245Y-8374778D01*
X19774959Y-8489064D02*
X19755912Y-8498588D01*
X19755912Y-8498588D02*
X19708293Y-8498588D01*
X19708293Y-8498588D02*
X19689245Y-8489064D01*
X19689245Y-8489064D02*
X19679721Y-8470017D01*
X19679721Y-8470017D02*
X19679721Y-8450969D01*
X19679721Y-8450969D02*
X19689245Y-8431921D01*
X19689245Y-8431921D02*
X19708293Y-8422398D01*
X19708293Y-8422398D02*
X19755912Y-8422398D01*
X19755912Y-8422398D02*
X19774959Y-8412874D01*
X19870198Y-8365255D02*
X19870198Y-8565255D01*
X19870198Y-8374778D02*
X19889245Y-8365255D01*
X19889245Y-8365255D02*
X19927340Y-8365255D01*
X19927340Y-8365255D02*
X19946388Y-8374778D01*
X19946388Y-8374778D02*
X19955912Y-8384302D01*
X19955912Y-8384302D02*
X19965436Y-8403350D01*
X19965436Y-8403350D02*
X19965436Y-8460493D01*
X19965436Y-8460493D02*
X19955912Y-8479540D01*
X19955912Y-8479540D02*
X19946388Y-8489064D01*
X19946388Y-8489064D02*
X19927340Y-8498588D01*
X19927340Y-8498588D02*
X19889245Y-8498588D01*
X19889245Y-8498588D02*
X19870198Y-8489064D01*
X20051150Y-8479540D02*
X20060674Y-8489064D01*
X20060674Y-8489064D02*
X20051150Y-8498588D01*
X20051150Y-8498588D02*
X20041626Y-8489064D01*
X20041626Y-8489064D02*
X20051150Y-8479540D01*
X20051150Y-8479540D02*
X20051150Y-8498588D01*
X20051150Y-8374778D02*
X20060674Y-8384302D01*
X20060674Y-8384302D02*
X20051150Y-8393826D01*
X20051150Y-8393826D02*
X20041626Y-8384302D01*
X20041626Y-8384302D02*
X20051150Y-8374778D01*
X20051150Y-8374778D02*
X20051150Y-8393826D01*
M02*
