%TF.GenerationSoftware,KiCad,Pcbnew,8.0.2*%
%TF.CreationDate,2024-07-12T01:17:03+08:00*%
%TF.ProjectId,bldcDriver,626c6463-4472-4697-9665-722e6b696361,rev?*%
%TF.SameCoordinates,Original*%
%TF.FileFunction,Soldermask,Top*%
%TF.FilePolarity,Negative*%
%FSLAX46Y46*%
G04 Gerber Fmt 4.6, Leading zero omitted, Abs format (unit mm)*
G04 Created by KiCad (PCBNEW 8.0.2) date 2024-07-12 01:17:03*
%MOMM*%
%LPD*%
G01*
G04 APERTURE LIST*
%ADD10C,1.000000*%
%ADD11R,0.500000X1.700000*%
%ADD12R,2.000000X3.000000*%
%ADD13C,1.524000*%
%ADD14R,1.000000X1.000000*%
%ADD15R,1.700000X0.500000*%
%ADD16R,2.500000X1.200000*%
%ADD17R,0.400000X1.500000*%
%ADD18R,2.000000X2.400000*%
%ADD19R,1.800000X0.350000*%
%ADD20R,3.200000X2.500000*%
%ADD21C,4.400000*%
%ADD22R,1.530000X1.360000*%
%ADD23R,1.500000X0.900000*%
%ADD24R,3.800000X3.800000*%
%ADD25C,3.800000*%
G04 APERTURE END LIST*
D10*
%TO.C,TP7*%
X86600000Y-53600000D03*
%TD*%
%TO.C,TP13*%
X93200000Y-60700000D03*
%TD*%
D11*
%TO.C,J2*%
X88600000Y-66900000D03*
X89600000Y-66900000D03*
X90600000Y-66900000D03*
X91600000Y-66900000D03*
X92600000Y-66900000D03*
X93600000Y-66900000D03*
D12*
X94700000Y-70300000D03*
X87500000Y-70300000D03*
%TD*%
D13*
%TO.C,RV1*%
X107640000Y-34960000D03*
X105100000Y-37500000D03*
X102560000Y-34960000D03*
%TD*%
D14*
%TO.C,TP1*%
X37386500Y-59843500D03*
%TD*%
D10*
%TO.C,TP23*%
X82500000Y-36300000D03*
%TD*%
D15*
%TO.C,CN2*%
X117171500Y-61703500D03*
X117171500Y-60703500D03*
X117171500Y-59703500D03*
D16*
X120571500Y-58603500D03*
X120571500Y-62803500D03*
%TD*%
D17*
%TO.C,P1*%
X92487000Y-42113000D03*
X92987000Y-40085000D03*
X93487000Y-42113000D03*
X93987000Y-40085000D03*
D18*
X95800000Y-41100000D03*
X90674000Y-41091000D03*
%TD*%
D10*
%TO.C,TP25*%
X84300000Y-37500000D03*
%TD*%
%TO.C,TP35*%
X88600000Y-38900000D03*
%TD*%
%TO.C,TP19*%
X76100000Y-62700000D03*
%TD*%
%TO.C,TP27*%
X48800000Y-51200000D03*
%TD*%
D19*
%TO.C,U4*%
X117250000Y-42150000D03*
X117250000Y-42650000D03*
X117250000Y-43150000D03*
X117250000Y-43650000D03*
X117250000Y-44150000D03*
X117250000Y-44650000D03*
D20*
X119150000Y-46600000D03*
X119150000Y-40200000D03*
%TD*%
D14*
%TO.C,TP3*%
X37366500Y-56433500D03*
%TD*%
D10*
%TO.C,TP14*%
X63200000Y-52200000D03*
%TD*%
%TO.C,TP30*%
X71500000Y-49700000D03*
%TD*%
%TO.C,TP11*%
X85400000Y-56400000D03*
%TD*%
D21*
%TO.C,*%
X34960000Y-33240000D03*
%TD*%
D10*
%TO.C,TP9*%
X106600000Y-69000000D03*
%TD*%
%TO.C,TP21*%
X48400000Y-42800000D03*
%TD*%
%TO.C,TP29*%
X107000000Y-48400000D03*
%TD*%
D21*
%TO.C,*%
X119660000Y-33240000D03*
%TD*%
D14*
%TO.C,TP5*%
X118520000Y-60690000D03*
%TD*%
%TO.C,TP2*%
X35266500Y-58133500D03*
%TD*%
D10*
%TO.C,TP20*%
X43200000Y-33000000D03*
%TD*%
%TO.C,TP40*%
X75000000Y-59900000D03*
%TD*%
%TO.C,TP16*%
X73800000Y-53200000D03*
%TD*%
%TO.C,TP18*%
X84600000Y-63100000D03*
%TD*%
%TO.C,TP17*%
X73100000Y-63100000D03*
%TD*%
D22*
%TO.C,SW1*%
X90500000Y-32600000D03*
X94570000Y-32600000D03*
%TD*%
D10*
%TO.C,TP24*%
X76600000Y-38200000D03*
%TD*%
%TO.C,TP33*%
X93400000Y-45800000D03*
%TD*%
%TO.C,TP8*%
X62200000Y-61600000D03*
%TD*%
D23*
%TO.C,D12*%
X106350000Y-44450000D03*
X106350000Y-41150000D03*
X101450000Y-41150000D03*
X101450000Y-44450000D03*
%TD*%
D22*
%TO.C,SW2*%
X68835000Y-32400000D03*
X64765000Y-32400000D03*
%TD*%
D10*
%TO.C,TP12*%
X94900000Y-62700000D03*
%TD*%
%TO.C,TP10*%
X78600000Y-51900000D03*
%TD*%
%TO.C,TP26*%
X107300000Y-55600000D03*
%TD*%
%TO.C,TP15*%
X62900000Y-54400000D03*
%TD*%
%TO.C,TP32*%
X71300000Y-45200000D03*
%TD*%
%TO.C,TP28*%
X48400000Y-68200000D03*
%TD*%
D24*
%TO.C,J1*%
X60000000Y-47900000D03*
D25*
X55000000Y-47900000D03*
%TD*%
D14*
%TO.C,TP4*%
X117040000Y-59000000D03*
%TD*%
D15*
%TO.C,CN1*%
X37285000Y-57100000D03*
X37285000Y-58100000D03*
X37285000Y-59100000D03*
D16*
X33885000Y-60200000D03*
X33885000Y-56000000D03*
%TD*%
D21*
%TO.C,*%
X119660000Y-69640000D03*
%TD*%
D10*
%TO.C,TP34*%
X94400000Y-43100000D03*
%TD*%
%TO.C,TP38*%
X70600000Y-33200000D03*
%TD*%
D19*
%TO.C,U10*%
X37467000Y-43600000D03*
X37467000Y-43100000D03*
X37467000Y-42600000D03*
X37467000Y-42100000D03*
X37467000Y-41600000D03*
X37467000Y-41100000D03*
D20*
X35567000Y-39150000D03*
X35567000Y-45550000D03*
%TD*%
D10*
%TO.C,TP22*%
X111100000Y-32600000D03*
%TD*%
D14*
%TO.C,TP6*%
X116990000Y-62400000D03*
%TD*%
D21*
%TO.C,*%
X34960000Y-69640000D03*
%TD*%
D10*
%TO.C,TP31*%
X94800000Y-51000000D03*
%TD*%
M02*
