%TF.GenerationSoftware,KiCad,Pcbnew,8.0.2*%
%TF.CreationDate,2024-07-12T01:17:03+08:00*%
%TF.ProjectId,bldcDriver,626c6463-4472-4697-9665-722e6b696361,rev?*%
%TF.SameCoordinates,Original*%
%TF.FileFunction,Legend,Top*%
%TF.FilePolarity,Positive*%
%FSLAX46Y46*%
G04 Gerber Fmt 4.6, Leading zero omitted, Abs format (unit mm)*
G04 Created by KiCad (PCBNEW 8.0.2) date 2024-07-12 01:17:03*
%MOMM*%
%LPD*%
G01*
G04 APERTURE LIST*
%ADD10C,0.150000*%
%ADD11C,0.100000*%
%ADD12C,0.120000*%
%ADD13C,0.254000*%
%ADD14C,0.152000*%
G04 APERTURE END LIST*
D10*
X87736779Y-54869819D02*
X87736779Y-53869819D01*
X87736779Y-53869819D02*
X88117731Y-53869819D01*
X88117731Y-53869819D02*
X88212969Y-53917438D01*
X88212969Y-53917438D02*
X88260588Y-53965057D01*
X88260588Y-53965057D02*
X88308207Y-54060295D01*
X88308207Y-54060295D02*
X88308207Y-54203152D01*
X88308207Y-54203152D02*
X88260588Y-54298390D01*
X88260588Y-54298390D02*
X88212969Y-54346009D01*
X88212969Y-54346009D02*
X88117731Y-54393628D01*
X88117731Y-54393628D02*
X87736779Y-54393628D01*
X89070112Y-54346009D02*
X89212969Y-54393628D01*
X89212969Y-54393628D02*
X89260588Y-54441247D01*
X89260588Y-54441247D02*
X89308207Y-54536485D01*
X89308207Y-54536485D02*
X89308207Y-54679342D01*
X89308207Y-54679342D02*
X89260588Y-54774580D01*
X89260588Y-54774580D02*
X89212969Y-54822200D01*
X89212969Y-54822200D02*
X89117731Y-54869819D01*
X89117731Y-54869819D02*
X88736779Y-54869819D01*
X88736779Y-54869819D02*
X88736779Y-53869819D01*
X88736779Y-53869819D02*
X89070112Y-53869819D01*
X89070112Y-53869819D02*
X89165350Y-53917438D01*
X89165350Y-53917438D02*
X89212969Y-53965057D01*
X89212969Y-53965057D02*
X89260588Y-54060295D01*
X89260588Y-54060295D02*
X89260588Y-54155533D01*
X89260588Y-54155533D02*
X89212969Y-54250771D01*
X89212969Y-54250771D02*
X89165350Y-54298390D01*
X89165350Y-54298390D02*
X89070112Y-54346009D01*
X89070112Y-54346009D02*
X88736779Y-54346009D01*
X90260588Y-54869819D02*
X89689160Y-54869819D01*
X89974874Y-54869819D02*
X89974874Y-53869819D01*
X89974874Y-53869819D02*
X89879636Y-54012676D01*
X89879636Y-54012676D02*
X89784398Y-54107914D01*
X89784398Y-54107914D02*
X89689160Y-54155533D01*
X90641541Y-53965057D02*
X90689160Y-53917438D01*
X90689160Y-53917438D02*
X90784398Y-53869819D01*
X90784398Y-53869819D02*
X91022493Y-53869819D01*
X91022493Y-53869819D02*
X91117731Y-53917438D01*
X91117731Y-53917438D02*
X91165350Y-53965057D01*
X91165350Y-53965057D02*
X91212969Y-54060295D01*
X91212969Y-54060295D02*
X91212969Y-54155533D01*
X91212969Y-54155533D02*
X91165350Y-54298390D01*
X91165350Y-54298390D02*
X90593922Y-54869819D01*
X90593922Y-54869819D02*
X91212969Y-54869819D01*
X92336779Y-47869819D02*
X92336779Y-46869819D01*
X92336779Y-46869819D02*
X92908207Y-47869819D01*
X92908207Y-47869819D02*
X92908207Y-46869819D01*
X93336779Y-47822200D02*
X93479636Y-47869819D01*
X93479636Y-47869819D02*
X93717731Y-47869819D01*
X93717731Y-47869819D02*
X93812969Y-47822200D01*
X93812969Y-47822200D02*
X93860588Y-47774580D01*
X93860588Y-47774580D02*
X93908207Y-47679342D01*
X93908207Y-47679342D02*
X93908207Y-47584104D01*
X93908207Y-47584104D02*
X93860588Y-47488866D01*
X93860588Y-47488866D02*
X93812969Y-47441247D01*
X93812969Y-47441247D02*
X93717731Y-47393628D01*
X93717731Y-47393628D02*
X93527255Y-47346009D01*
X93527255Y-47346009D02*
X93432017Y-47298390D01*
X93432017Y-47298390D02*
X93384398Y-47250771D01*
X93384398Y-47250771D02*
X93336779Y-47155533D01*
X93336779Y-47155533D02*
X93336779Y-47060295D01*
X93336779Y-47060295D02*
X93384398Y-46965057D01*
X93384398Y-46965057D02*
X93432017Y-46917438D01*
X93432017Y-46917438D02*
X93527255Y-46869819D01*
X93527255Y-46869819D02*
X93765350Y-46869819D01*
X93765350Y-46869819D02*
X93908207Y-46917438D01*
X94289160Y-47822200D02*
X94432017Y-47869819D01*
X94432017Y-47869819D02*
X94670112Y-47869819D01*
X94670112Y-47869819D02*
X94765350Y-47822200D01*
X94765350Y-47822200D02*
X94812969Y-47774580D01*
X94812969Y-47774580D02*
X94860588Y-47679342D01*
X94860588Y-47679342D02*
X94860588Y-47584104D01*
X94860588Y-47584104D02*
X94812969Y-47488866D01*
X94812969Y-47488866D02*
X94765350Y-47441247D01*
X94765350Y-47441247D02*
X94670112Y-47393628D01*
X94670112Y-47393628D02*
X94479636Y-47346009D01*
X94479636Y-47346009D02*
X94384398Y-47298390D01*
X94384398Y-47298390D02*
X94336779Y-47250771D01*
X94336779Y-47250771D02*
X94289160Y-47155533D01*
X94289160Y-47155533D02*
X94289160Y-47060295D01*
X94289160Y-47060295D02*
X94336779Y-46965057D01*
X94336779Y-46965057D02*
X94384398Y-46917438D01*
X94384398Y-46917438D02*
X94479636Y-46869819D01*
X94479636Y-46869819D02*
X94717731Y-46869819D01*
X94717731Y-46869819D02*
X94860588Y-46917438D01*
X103136779Y-47469819D02*
X103136779Y-46469819D01*
X103136779Y-46469819D02*
X103470112Y-47184104D01*
X103470112Y-47184104D02*
X103803445Y-46469819D01*
X103803445Y-46469819D02*
X103803445Y-47469819D01*
X104470112Y-46469819D02*
X104660588Y-46469819D01*
X104660588Y-46469819D02*
X104755826Y-46517438D01*
X104755826Y-46517438D02*
X104851064Y-46612676D01*
X104851064Y-46612676D02*
X104898683Y-46803152D01*
X104898683Y-46803152D02*
X104898683Y-47136485D01*
X104898683Y-47136485D02*
X104851064Y-47326961D01*
X104851064Y-47326961D02*
X104755826Y-47422200D01*
X104755826Y-47422200D02*
X104660588Y-47469819D01*
X104660588Y-47469819D02*
X104470112Y-47469819D01*
X104470112Y-47469819D02*
X104374874Y-47422200D01*
X104374874Y-47422200D02*
X104279636Y-47326961D01*
X104279636Y-47326961D02*
X104232017Y-47136485D01*
X104232017Y-47136485D02*
X104232017Y-46803152D01*
X104232017Y-46803152D02*
X104279636Y-46612676D01*
X104279636Y-46612676D02*
X104374874Y-46517438D01*
X104374874Y-46517438D02*
X104470112Y-46469819D01*
X105279636Y-47422200D02*
X105422493Y-47469819D01*
X105422493Y-47469819D02*
X105660588Y-47469819D01*
X105660588Y-47469819D02*
X105755826Y-47422200D01*
X105755826Y-47422200D02*
X105803445Y-47374580D01*
X105803445Y-47374580D02*
X105851064Y-47279342D01*
X105851064Y-47279342D02*
X105851064Y-47184104D01*
X105851064Y-47184104D02*
X105803445Y-47088866D01*
X105803445Y-47088866D02*
X105755826Y-47041247D01*
X105755826Y-47041247D02*
X105660588Y-46993628D01*
X105660588Y-46993628D02*
X105470112Y-46946009D01*
X105470112Y-46946009D02*
X105374874Y-46898390D01*
X105374874Y-46898390D02*
X105327255Y-46850771D01*
X105327255Y-46850771D02*
X105279636Y-46755533D01*
X105279636Y-46755533D02*
X105279636Y-46660295D01*
X105279636Y-46660295D02*
X105327255Y-46565057D01*
X105327255Y-46565057D02*
X105374874Y-46517438D01*
X105374874Y-46517438D02*
X105470112Y-46469819D01*
X105470112Y-46469819D02*
X105708207Y-46469819D01*
X105708207Y-46469819D02*
X105851064Y-46517438D01*
X106279636Y-47469819D02*
X106279636Y-46469819D01*
X96089160Y-51822200D02*
X96232017Y-51869819D01*
X96232017Y-51869819D02*
X96470112Y-51869819D01*
X96470112Y-51869819D02*
X96565350Y-51822200D01*
X96565350Y-51822200D02*
X96612969Y-51774580D01*
X96612969Y-51774580D02*
X96660588Y-51679342D01*
X96660588Y-51679342D02*
X96660588Y-51584104D01*
X96660588Y-51584104D02*
X96612969Y-51488866D01*
X96612969Y-51488866D02*
X96565350Y-51441247D01*
X96565350Y-51441247D02*
X96470112Y-51393628D01*
X96470112Y-51393628D02*
X96279636Y-51346009D01*
X96279636Y-51346009D02*
X96184398Y-51298390D01*
X96184398Y-51298390D02*
X96136779Y-51250771D01*
X96136779Y-51250771D02*
X96089160Y-51155533D01*
X96089160Y-51155533D02*
X96089160Y-51060295D01*
X96089160Y-51060295D02*
X96136779Y-50965057D01*
X96136779Y-50965057D02*
X96184398Y-50917438D01*
X96184398Y-50917438D02*
X96279636Y-50869819D01*
X96279636Y-50869819D02*
X96517731Y-50869819D01*
X96517731Y-50869819D02*
X96660588Y-50917438D01*
X97660588Y-51774580D02*
X97612969Y-51822200D01*
X97612969Y-51822200D02*
X97470112Y-51869819D01*
X97470112Y-51869819D02*
X97374874Y-51869819D01*
X97374874Y-51869819D02*
X97232017Y-51822200D01*
X97232017Y-51822200D02*
X97136779Y-51726961D01*
X97136779Y-51726961D02*
X97089160Y-51631723D01*
X97089160Y-51631723D02*
X97041541Y-51441247D01*
X97041541Y-51441247D02*
X97041541Y-51298390D01*
X97041541Y-51298390D02*
X97089160Y-51107914D01*
X97089160Y-51107914D02*
X97136779Y-51012676D01*
X97136779Y-51012676D02*
X97232017Y-50917438D01*
X97232017Y-50917438D02*
X97374874Y-50869819D01*
X97374874Y-50869819D02*
X97470112Y-50869819D01*
X97470112Y-50869819D02*
X97612969Y-50917438D01*
X97612969Y-50917438D02*
X97660588Y-50965057D01*
X98089160Y-51869819D02*
X98089160Y-50869819D01*
X98660588Y-51869819D02*
X98232017Y-51298390D01*
X98660588Y-50869819D02*
X98089160Y-51441247D01*
X92308207Y-59574580D02*
X92260588Y-59622200D01*
X92260588Y-59622200D02*
X92117731Y-59669819D01*
X92117731Y-59669819D02*
X92022493Y-59669819D01*
X92022493Y-59669819D02*
X91879636Y-59622200D01*
X91879636Y-59622200D02*
X91784398Y-59526961D01*
X91784398Y-59526961D02*
X91736779Y-59431723D01*
X91736779Y-59431723D02*
X91689160Y-59241247D01*
X91689160Y-59241247D02*
X91689160Y-59098390D01*
X91689160Y-59098390D02*
X91736779Y-58907914D01*
X91736779Y-58907914D02*
X91784398Y-58812676D01*
X91784398Y-58812676D02*
X91879636Y-58717438D01*
X91879636Y-58717438D02*
X92022493Y-58669819D01*
X92022493Y-58669819D02*
X92117731Y-58669819D01*
X92117731Y-58669819D02*
X92260588Y-58717438D01*
X92260588Y-58717438D02*
X92308207Y-58765057D01*
X92736779Y-59669819D02*
X92736779Y-58669819D01*
X92736779Y-59146009D02*
X93308207Y-59146009D01*
X93308207Y-59669819D02*
X93308207Y-58669819D01*
X94308207Y-59669819D02*
X93736779Y-59669819D01*
X94022493Y-59669819D02*
X94022493Y-58669819D01*
X94022493Y-58669819D02*
X93927255Y-58812676D01*
X93927255Y-58812676D02*
X93832017Y-58907914D01*
X93832017Y-58907914D02*
X93736779Y-58955533D01*
X82308207Y-56774580D02*
X82260588Y-56822200D01*
X82260588Y-56822200D02*
X82117731Y-56869819D01*
X82117731Y-56869819D02*
X82022493Y-56869819D01*
X82022493Y-56869819D02*
X81879636Y-56822200D01*
X81879636Y-56822200D02*
X81784398Y-56726961D01*
X81784398Y-56726961D02*
X81736779Y-56631723D01*
X81736779Y-56631723D02*
X81689160Y-56441247D01*
X81689160Y-56441247D02*
X81689160Y-56298390D01*
X81689160Y-56298390D02*
X81736779Y-56107914D01*
X81736779Y-56107914D02*
X81784398Y-56012676D01*
X81784398Y-56012676D02*
X81879636Y-55917438D01*
X81879636Y-55917438D02*
X82022493Y-55869819D01*
X82022493Y-55869819D02*
X82117731Y-55869819D01*
X82117731Y-55869819D02*
X82260588Y-55917438D01*
X82260588Y-55917438D02*
X82308207Y-55965057D01*
X82736779Y-56869819D02*
X82736779Y-55869819D01*
X82736779Y-56346009D02*
X83308207Y-56346009D01*
X83308207Y-56869819D02*
X83308207Y-55869819D01*
X83689160Y-55869819D02*
X84308207Y-55869819D01*
X84308207Y-55869819D02*
X83974874Y-56250771D01*
X83974874Y-56250771D02*
X84117731Y-56250771D01*
X84117731Y-56250771D02*
X84212969Y-56298390D01*
X84212969Y-56298390D02*
X84260588Y-56346009D01*
X84260588Y-56346009D02*
X84308207Y-56441247D01*
X84308207Y-56441247D02*
X84308207Y-56679342D01*
X84308207Y-56679342D02*
X84260588Y-56774580D01*
X84260588Y-56774580D02*
X84212969Y-56822200D01*
X84212969Y-56822200D02*
X84117731Y-56869819D01*
X84117731Y-56869819D02*
X83832017Y-56869819D01*
X83832017Y-56869819D02*
X83736779Y-56822200D01*
X83736779Y-56822200D02*
X83689160Y-56774580D01*
X69936779Y-60269819D02*
X69936779Y-59269819D01*
X70412969Y-60269819D02*
X70412969Y-59269819D01*
X70412969Y-59269819D02*
X70984397Y-60269819D01*
X70984397Y-60269819D02*
X70984397Y-59269819D01*
X71412969Y-59984104D02*
X71889159Y-59984104D01*
X71317731Y-60269819D02*
X71651064Y-59269819D01*
X71651064Y-59269819D02*
X71984397Y-60269819D01*
X72270112Y-59365057D02*
X72317731Y-59317438D01*
X72317731Y-59317438D02*
X72412969Y-59269819D01*
X72412969Y-59269819D02*
X72651064Y-59269819D01*
X72651064Y-59269819D02*
X72746302Y-59317438D01*
X72746302Y-59317438D02*
X72793921Y-59365057D01*
X72793921Y-59365057D02*
X72841540Y-59460295D01*
X72841540Y-59460295D02*
X72841540Y-59555533D01*
X72841540Y-59555533D02*
X72793921Y-59698390D01*
X72793921Y-59698390D02*
X72222493Y-60269819D01*
X72222493Y-60269819D02*
X72841540Y-60269819D01*
X73270112Y-59888866D02*
X74032017Y-59888866D01*
X73651064Y-60269819D02*
X73651064Y-59507914D01*
X67536779Y-45869819D02*
X67536779Y-44869819D01*
X67536779Y-44869819D02*
X68108207Y-45869819D01*
X68108207Y-45869819D02*
X68108207Y-44869819D01*
X68536779Y-45822200D02*
X68679636Y-45869819D01*
X68679636Y-45869819D02*
X68917731Y-45869819D01*
X68917731Y-45869819D02*
X69012969Y-45822200D01*
X69012969Y-45822200D02*
X69060588Y-45774580D01*
X69060588Y-45774580D02*
X69108207Y-45679342D01*
X69108207Y-45679342D02*
X69108207Y-45584104D01*
X69108207Y-45584104D02*
X69060588Y-45488866D01*
X69060588Y-45488866D02*
X69012969Y-45441247D01*
X69012969Y-45441247D02*
X68917731Y-45393628D01*
X68917731Y-45393628D02*
X68727255Y-45346009D01*
X68727255Y-45346009D02*
X68632017Y-45298390D01*
X68632017Y-45298390D02*
X68584398Y-45250771D01*
X68584398Y-45250771D02*
X68536779Y-45155533D01*
X68536779Y-45155533D02*
X68536779Y-45060295D01*
X68536779Y-45060295D02*
X68584398Y-44965057D01*
X68584398Y-44965057D02*
X68632017Y-44917438D01*
X68632017Y-44917438D02*
X68727255Y-44869819D01*
X68727255Y-44869819D02*
X68965350Y-44869819D01*
X68965350Y-44869819D02*
X69108207Y-44917438D01*
X69489160Y-45822200D02*
X69632017Y-45869819D01*
X69632017Y-45869819D02*
X69870112Y-45869819D01*
X69870112Y-45869819D02*
X69965350Y-45822200D01*
X69965350Y-45822200D02*
X70012969Y-45774580D01*
X70012969Y-45774580D02*
X70060588Y-45679342D01*
X70060588Y-45679342D02*
X70060588Y-45584104D01*
X70060588Y-45584104D02*
X70012969Y-45488866D01*
X70012969Y-45488866D02*
X69965350Y-45441247D01*
X69965350Y-45441247D02*
X69870112Y-45393628D01*
X69870112Y-45393628D02*
X69679636Y-45346009D01*
X69679636Y-45346009D02*
X69584398Y-45298390D01*
X69584398Y-45298390D02*
X69536779Y-45250771D01*
X69536779Y-45250771D02*
X69489160Y-45155533D01*
X69489160Y-45155533D02*
X69489160Y-45060295D01*
X69489160Y-45060295D02*
X69536779Y-44965057D01*
X69536779Y-44965057D02*
X69584398Y-44917438D01*
X69584398Y-44917438D02*
X69679636Y-44869819D01*
X69679636Y-44869819D02*
X69917731Y-44869819D01*
X69917731Y-44869819D02*
X70060588Y-44917438D01*
X67336779Y-49669819D02*
X67336779Y-48669819D01*
X67336779Y-48669819D02*
X67670112Y-49384104D01*
X67670112Y-49384104D02*
X68003445Y-48669819D01*
X68003445Y-48669819D02*
X68003445Y-49669819D01*
X68479636Y-49669819D02*
X68479636Y-48669819D01*
X68908207Y-49622200D02*
X69051064Y-49669819D01*
X69051064Y-49669819D02*
X69289159Y-49669819D01*
X69289159Y-49669819D02*
X69384397Y-49622200D01*
X69384397Y-49622200D02*
X69432016Y-49574580D01*
X69432016Y-49574580D02*
X69479635Y-49479342D01*
X69479635Y-49479342D02*
X69479635Y-49384104D01*
X69479635Y-49384104D02*
X69432016Y-49288866D01*
X69432016Y-49288866D02*
X69384397Y-49241247D01*
X69384397Y-49241247D02*
X69289159Y-49193628D01*
X69289159Y-49193628D02*
X69098683Y-49146009D01*
X69098683Y-49146009D02*
X69003445Y-49098390D01*
X69003445Y-49098390D02*
X68955826Y-49050771D01*
X68955826Y-49050771D02*
X68908207Y-48955533D01*
X68908207Y-48955533D02*
X68908207Y-48860295D01*
X68908207Y-48860295D02*
X68955826Y-48765057D01*
X68955826Y-48765057D02*
X69003445Y-48717438D01*
X69003445Y-48717438D02*
X69098683Y-48669819D01*
X69098683Y-48669819D02*
X69336778Y-48669819D01*
X69336778Y-48669819D02*
X69479635Y-48717438D01*
X70098683Y-48669819D02*
X70289159Y-48669819D01*
X70289159Y-48669819D02*
X70384397Y-48717438D01*
X70384397Y-48717438D02*
X70479635Y-48812676D01*
X70479635Y-48812676D02*
X70527254Y-49003152D01*
X70527254Y-49003152D02*
X70527254Y-49336485D01*
X70527254Y-49336485D02*
X70479635Y-49526961D01*
X70479635Y-49526961D02*
X70384397Y-49622200D01*
X70384397Y-49622200D02*
X70289159Y-49669819D01*
X70289159Y-49669819D02*
X70098683Y-49669819D01*
X70098683Y-49669819D02*
X70003445Y-49622200D01*
X70003445Y-49622200D02*
X69908207Y-49526961D01*
X69908207Y-49526961D02*
X69860588Y-49336485D01*
X69860588Y-49336485D02*
X69860588Y-49003152D01*
X69860588Y-49003152D02*
X69908207Y-48812676D01*
X69908207Y-48812676D02*
X70003445Y-48717438D01*
X70003445Y-48717438D02*
X70098683Y-48669819D01*
X75508207Y-53974580D02*
X75460588Y-54022200D01*
X75460588Y-54022200D02*
X75317731Y-54069819D01*
X75317731Y-54069819D02*
X75222493Y-54069819D01*
X75222493Y-54069819D02*
X75079636Y-54022200D01*
X75079636Y-54022200D02*
X74984398Y-53926961D01*
X74984398Y-53926961D02*
X74936779Y-53831723D01*
X74936779Y-53831723D02*
X74889160Y-53641247D01*
X74889160Y-53641247D02*
X74889160Y-53498390D01*
X74889160Y-53498390D02*
X74936779Y-53307914D01*
X74936779Y-53307914D02*
X74984398Y-53212676D01*
X74984398Y-53212676D02*
X75079636Y-53117438D01*
X75079636Y-53117438D02*
X75222493Y-53069819D01*
X75222493Y-53069819D02*
X75317731Y-53069819D01*
X75317731Y-53069819D02*
X75460588Y-53117438D01*
X75460588Y-53117438D02*
X75508207Y-53165057D01*
X75936779Y-54069819D02*
X75936779Y-53069819D01*
X75936779Y-53546009D02*
X76508207Y-53546009D01*
X76508207Y-54069819D02*
X76508207Y-53069819D01*
X77508207Y-54069819D02*
X76936779Y-54069819D01*
X77222493Y-54069819D02*
X77222493Y-53069819D01*
X77222493Y-53069819D02*
X77127255Y-53212676D01*
X77127255Y-53212676D02*
X77032017Y-53307914D01*
X77032017Y-53307914D02*
X76936779Y-53355533D01*
X59708207Y-54974580D02*
X59660588Y-55022200D01*
X59660588Y-55022200D02*
X59517731Y-55069819D01*
X59517731Y-55069819D02*
X59422493Y-55069819D01*
X59422493Y-55069819D02*
X59279636Y-55022200D01*
X59279636Y-55022200D02*
X59184398Y-54926961D01*
X59184398Y-54926961D02*
X59136779Y-54831723D01*
X59136779Y-54831723D02*
X59089160Y-54641247D01*
X59089160Y-54641247D02*
X59089160Y-54498390D01*
X59089160Y-54498390D02*
X59136779Y-54307914D01*
X59136779Y-54307914D02*
X59184398Y-54212676D01*
X59184398Y-54212676D02*
X59279636Y-54117438D01*
X59279636Y-54117438D02*
X59422493Y-54069819D01*
X59422493Y-54069819D02*
X59517731Y-54069819D01*
X59517731Y-54069819D02*
X59660588Y-54117438D01*
X59660588Y-54117438D02*
X59708207Y-54165057D01*
X60136779Y-55069819D02*
X60136779Y-54069819D01*
X60136779Y-54546009D02*
X60708207Y-54546009D01*
X60708207Y-55069819D02*
X60708207Y-54069819D01*
X61136779Y-54165057D02*
X61184398Y-54117438D01*
X61184398Y-54117438D02*
X61279636Y-54069819D01*
X61279636Y-54069819D02*
X61517731Y-54069819D01*
X61517731Y-54069819D02*
X61612969Y-54117438D01*
X61612969Y-54117438D02*
X61660588Y-54165057D01*
X61660588Y-54165057D02*
X61708207Y-54260295D01*
X61708207Y-54260295D02*
X61708207Y-54355533D01*
X61708207Y-54355533D02*
X61660588Y-54498390D01*
X61660588Y-54498390D02*
X61089160Y-55069819D01*
X61089160Y-55069819D02*
X61708207Y-55069819D01*
X59708207Y-52574580D02*
X59660588Y-52622200D01*
X59660588Y-52622200D02*
X59517731Y-52669819D01*
X59517731Y-52669819D02*
X59422493Y-52669819D01*
X59422493Y-52669819D02*
X59279636Y-52622200D01*
X59279636Y-52622200D02*
X59184398Y-52526961D01*
X59184398Y-52526961D02*
X59136779Y-52431723D01*
X59136779Y-52431723D02*
X59089160Y-52241247D01*
X59089160Y-52241247D02*
X59089160Y-52098390D01*
X59089160Y-52098390D02*
X59136779Y-51907914D01*
X59136779Y-51907914D02*
X59184398Y-51812676D01*
X59184398Y-51812676D02*
X59279636Y-51717438D01*
X59279636Y-51717438D02*
X59422493Y-51669819D01*
X59422493Y-51669819D02*
X59517731Y-51669819D01*
X59517731Y-51669819D02*
X59660588Y-51717438D01*
X59660588Y-51717438D02*
X59708207Y-51765057D01*
X60136779Y-52669819D02*
X60136779Y-51669819D01*
X60136779Y-52146009D02*
X60708207Y-52146009D01*
X60708207Y-52669819D02*
X60708207Y-51669819D01*
X61089160Y-51669819D02*
X61708207Y-51669819D01*
X61708207Y-51669819D02*
X61374874Y-52050771D01*
X61374874Y-52050771D02*
X61517731Y-52050771D01*
X61517731Y-52050771D02*
X61612969Y-52098390D01*
X61612969Y-52098390D02*
X61660588Y-52146009D01*
X61660588Y-52146009D02*
X61708207Y-52241247D01*
X61708207Y-52241247D02*
X61708207Y-52479342D01*
X61708207Y-52479342D02*
X61660588Y-52574580D01*
X61660588Y-52574580D02*
X61612969Y-52622200D01*
X61612969Y-52622200D02*
X61517731Y-52669819D01*
X61517731Y-52669819D02*
X61232017Y-52669819D01*
X61232017Y-52669819D02*
X61136779Y-52622200D01*
X61136779Y-52622200D02*
X61089160Y-52574580D01*
X96508207Y-43869819D02*
X96174874Y-43393628D01*
X95936779Y-43869819D02*
X95936779Y-42869819D01*
X95936779Y-42869819D02*
X96317731Y-42869819D01*
X96317731Y-42869819D02*
X96412969Y-42917438D01*
X96412969Y-42917438D02*
X96460588Y-42965057D01*
X96460588Y-42965057D02*
X96508207Y-43060295D01*
X96508207Y-43060295D02*
X96508207Y-43203152D01*
X96508207Y-43203152D02*
X96460588Y-43298390D01*
X96460588Y-43298390D02*
X96412969Y-43346009D01*
X96412969Y-43346009D02*
X96317731Y-43393628D01*
X96317731Y-43393628D02*
X95936779Y-43393628D01*
X96841541Y-42869819D02*
X97508207Y-43869819D01*
X97508207Y-42869819D02*
X96841541Y-43869819D01*
D11*
X114861027Y-44009800D02*
X114932455Y-44033609D01*
X114932455Y-44033609D02*
X115051503Y-44033609D01*
X115051503Y-44033609D02*
X115099122Y-44009800D01*
X115099122Y-44009800D02*
X115122931Y-43985990D01*
X115122931Y-43985990D02*
X115146741Y-43938371D01*
X115146741Y-43938371D02*
X115146741Y-43890752D01*
X115146741Y-43890752D02*
X115122931Y-43843133D01*
X115122931Y-43843133D02*
X115099122Y-43819323D01*
X115099122Y-43819323D02*
X115051503Y-43795514D01*
X115051503Y-43795514D02*
X114956265Y-43771704D01*
X114956265Y-43771704D02*
X114908646Y-43747895D01*
X114908646Y-43747895D02*
X114884836Y-43724085D01*
X114884836Y-43724085D02*
X114861027Y-43676466D01*
X114861027Y-43676466D02*
X114861027Y-43628847D01*
X114861027Y-43628847D02*
X114884836Y-43581228D01*
X114884836Y-43581228D02*
X114908646Y-43557419D01*
X114908646Y-43557419D02*
X114956265Y-43533609D01*
X114956265Y-43533609D02*
X115075312Y-43533609D01*
X115075312Y-43533609D02*
X115146741Y-43557419D01*
X115646740Y-43985990D02*
X115622931Y-44009800D01*
X115622931Y-44009800D02*
X115551502Y-44033609D01*
X115551502Y-44033609D02*
X115503883Y-44033609D01*
X115503883Y-44033609D02*
X115432455Y-44009800D01*
X115432455Y-44009800D02*
X115384836Y-43962180D01*
X115384836Y-43962180D02*
X115361026Y-43914561D01*
X115361026Y-43914561D02*
X115337217Y-43819323D01*
X115337217Y-43819323D02*
X115337217Y-43747895D01*
X115337217Y-43747895D02*
X115361026Y-43652657D01*
X115361026Y-43652657D02*
X115384836Y-43605038D01*
X115384836Y-43605038D02*
X115432455Y-43557419D01*
X115432455Y-43557419D02*
X115503883Y-43533609D01*
X115503883Y-43533609D02*
X115551502Y-43533609D01*
X115551502Y-43533609D02*
X115622931Y-43557419D01*
X115622931Y-43557419D02*
X115646740Y-43581228D01*
X115861026Y-44033609D02*
X115861026Y-43533609D01*
X116146740Y-44033609D02*
X115932455Y-43747895D01*
X116146740Y-43533609D02*
X115861026Y-43819323D01*
D10*
G36*
X118279009Y-36017491D02*
G01*
X117308701Y-36987798D01*
X116593136Y-36272233D01*
X116797410Y-36272233D01*
X116797410Y-36301496D01*
X116808608Y-36328533D01*
X116817936Y-36339898D01*
X117267033Y-36786958D01*
X117294069Y-36798157D01*
X117323332Y-36798157D01*
X117350368Y-36786958D01*
X117371061Y-36766266D01*
X117382260Y-36739229D01*
X117382260Y-36709966D01*
X117371061Y-36682930D01*
X117361734Y-36671565D01*
X117050307Y-36361550D01*
X117667292Y-36360470D01*
X117669710Y-36361276D01*
X117681397Y-36360445D01*
X117693723Y-36360424D01*
X117696211Y-36359393D01*
X117698901Y-36359202D01*
X117712632Y-36353947D01*
X117846084Y-36285758D01*
X117855446Y-36281881D01*
X117858370Y-36279481D01*
X117859762Y-36278770D01*
X117861058Y-36277274D01*
X117866811Y-36272554D01*
X117925642Y-36212158D01*
X117927104Y-36211428D01*
X117933193Y-36204406D01*
X117943481Y-36193846D01*
X117944511Y-36191357D01*
X117946278Y-36189321D01*
X117952272Y-36175895D01*
X117984700Y-36074611D01*
X117988352Y-36065795D01*
X117988720Y-36062054D01*
X117989204Y-36060544D01*
X117989063Y-36058569D01*
X117989793Y-36051163D01*
X117988594Y-35983006D01*
X117989204Y-35974438D01*
X117988380Y-35970817D01*
X117988352Y-35969187D01*
X117987593Y-35967356D01*
X117985944Y-35960101D01*
X117954680Y-35869901D01*
X117954680Y-35868173D01*
X117951007Y-35859307D01*
X117946278Y-35845661D01*
X117944512Y-35843625D01*
X117943482Y-35841137D01*
X117934154Y-35829771D01*
X117773006Y-35670450D01*
X117772012Y-35668462D01*
X117763726Y-35661276D01*
X117754430Y-35652085D01*
X117751939Y-35651053D01*
X117749904Y-35649288D01*
X117736479Y-35643294D01*
X117635198Y-35610867D01*
X117626379Y-35607214D01*
X117622637Y-35606845D01*
X117621127Y-35606362D01*
X117619152Y-35606502D01*
X117611747Y-35605773D01*
X117529772Y-35607214D01*
X117502736Y-35618413D01*
X117482044Y-35639105D01*
X117470845Y-35666141D01*
X117470845Y-35695405D01*
X117482044Y-35722441D01*
X117502736Y-35743133D01*
X117529772Y-35754332D01*
X117544404Y-35755773D01*
X117597155Y-35754845D01*
X117670801Y-35778425D01*
X117814976Y-35920964D01*
X117839954Y-35993030D01*
X117840720Y-36036571D01*
X117817062Y-36110463D01*
X117772147Y-36156572D01*
X117663881Y-36211891D01*
X116856337Y-36213306D01*
X116848418Y-36216585D01*
X116829301Y-36224504D01*
X116808609Y-36245197D01*
X116797410Y-36272233D01*
X116593136Y-36272233D01*
X115866990Y-35546087D01*
X115881621Y-35531456D01*
X116056631Y-35531456D01*
X116056631Y-35560718D01*
X116067830Y-35587755D01*
X116088522Y-35608447D01*
X116115559Y-35619646D01*
X116144821Y-35619646D01*
X116171858Y-35608447D01*
X116183223Y-35599120D01*
X116653048Y-35127958D01*
X116499743Y-35551912D01*
X116495078Y-35561910D01*
X116494932Y-35565216D01*
X116493792Y-35568371D01*
X116494292Y-35579758D01*
X116493792Y-35591145D01*
X116494931Y-35594278D01*
X116495078Y-35597606D01*
X116499895Y-35607929D01*
X116503793Y-35618647D01*
X116506044Y-35621105D01*
X116507453Y-35624124D01*
X116515858Y-35631822D01*
X116523557Y-35640228D01*
X116526575Y-35641636D01*
X116529034Y-35643888D01*
X116539751Y-35647785D01*
X116550075Y-35652603D01*
X116553402Y-35652749D01*
X116556536Y-35653889D01*
X116567923Y-35653388D01*
X116579310Y-35653889D01*
X116584035Y-35652679D01*
X116585771Y-35652603D01*
X116587516Y-35651788D01*
X116593554Y-35650243D01*
X117019036Y-35494656D01*
X116539235Y-35975823D01*
X116528036Y-36002860D01*
X116528036Y-36032122D01*
X116539235Y-36059159D01*
X116559927Y-36079851D01*
X116586964Y-36091050D01*
X116616226Y-36091050D01*
X116643263Y-36079851D01*
X116654628Y-36070524D01*
X117359950Y-35363195D01*
X117369172Y-35354750D01*
X117369876Y-35353241D01*
X117371062Y-35352052D01*
X117376045Y-35340020D01*
X117381547Y-35328232D01*
X117381620Y-35326562D01*
X117382261Y-35325016D01*
X117382261Y-35312000D01*
X117382833Y-35298997D01*
X117382261Y-35297424D01*
X117382261Y-35295753D01*
X117377284Y-35283738D01*
X117372832Y-35271495D01*
X117371701Y-35270260D01*
X117371062Y-35268717D01*
X117361867Y-35259522D01*
X117353068Y-35249914D01*
X117351551Y-35249206D01*
X117350369Y-35248024D01*
X117338345Y-35243043D01*
X117326550Y-35237539D01*
X117324879Y-35237465D01*
X117323333Y-35236825D01*
X117310318Y-35236825D01*
X117297315Y-35236253D01*
X117295080Y-35236825D01*
X117294070Y-35236825D01*
X117292435Y-35237501D01*
X117283071Y-35239899D01*
X116692477Y-35455861D01*
X116906121Y-34865041D01*
X116910856Y-34853612D01*
X116910856Y-34851948D01*
X116911428Y-34850367D01*
X116910856Y-34837363D01*
X116910856Y-34824349D01*
X116910215Y-34822802D01*
X116910142Y-34821132D01*
X116904637Y-34809336D01*
X116899657Y-34797313D01*
X116898474Y-34796130D01*
X116897767Y-34794614D01*
X116888158Y-34785814D01*
X116878964Y-34776620D01*
X116877420Y-34775980D01*
X116876186Y-34774850D01*
X116863942Y-34770397D01*
X116851928Y-34765421D01*
X116850257Y-34765421D01*
X116848684Y-34764849D01*
X116835681Y-34765421D01*
X116822665Y-34765421D01*
X116821118Y-34766061D01*
X116819449Y-34766135D01*
X116807660Y-34771636D01*
X116795629Y-34776620D01*
X116793846Y-34778082D01*
X116792931Y-34778510D01*
X116791735Y-34779815D01*
X116784264Y-34785947D01*
X116067830Y-35504419D01*
X116056631Y-35531456D01*
X115881621Y-35531456D01*
X116837297Y-34575779D01*
X118279009Y-36017491D01*
G37*
G36*
X87675727Y-64781290D02*
G01*
X87749936Y-64854080D01*
X87788627Y-64929215D01*
X87833245Y-65102645D01*
X87834387Y-65227417D01*
X87792361Y-65400540D01*
X87753636Y-65480350D01*
X87679359Y-65556076D01*
X87566280Y-65594867D01*
X87411673Y-65595749D01*
X87410464Y-64744398D01*
X87559131Y-64743551D01*
X87675727Y-64781290D01*
G37*
G36*
X88766358Y-64776770D02*
G01*
X88840150Y-64849152D01*
X88880843Y-65007323D01*
X88882146Y-65322077D01*
X88842032Y-65487325D01*
X88771565Y-65559166D01*
X88702119Y-65594928D01*
X88546950Y-65596018D01*
X88478628Y-65562867D01*
X88404835Y-65490485D01*
X88364142Y-65332313D01*
X88362839Y-65017559D01*
X88402953Y-64852311D01*
X88473421Y-64780470D01*
X88542866Y-64744709D01*
X88698035Y-64743619D01*
X88766358Y-64776770D01*
G37*
G36*
X92813977Y-64776770D02*
G01*
X92887769Y-64849152D01*
X92928462Y-65007323D01*
X92929765Y-65322077D01*
X92889651Y-65487325D01*
X92819184Y-65559166D01*
X92749738Y-65594928D01*
X92594569Y-65596018D01*
X92526247Y-65562867D01*
X92452454Y-65490485D01*
X92411761Y-65332313D01*
X92410458Y-65017559D01*
X92450572Y-64852311D01*
X92521040Y-64780470D01*
X92590485Y-64744709D01*
X92745654Y-64743619D01*
X92813977Y-64776770D01*
G37*
G36*
X94628108Y-64781290D02*
G01*
X94702317Y-64854080D01*
X94741008Y-64929215D01*
X94785626Y-65102645D01*
X94786768Y-65227417D01*
X94744742Y-65400540D01*
X94706017Y-65480350D01*
X94631740Y-65556076D01*
X94518661Y-65594867D01*
X94364054Y-65595749D01*
X94362845Y-64744398D01*
X94511512Y-64743551D01*
X94628108Y-64781290D01*
G37*
G36*
X93757555Y-65309406D02*
G01*
X93487515Y-65310199D01*
X93622060Y-64904742D01*
X93757555Y-65309406D01*
G37*
G36*
X95046699Y-65855930D02*
G01*
X87150668Y-65855930D01*
X87150668Y-64669819D01*
X87261779Y-64669819D01*
X87263220Y-65684451D01*
X87274419Y-65711487D01*
X87295111Y-65732179D01*
X87322147Y-65743378D01*
X87336779Y-65744819D01*
X87573548Y-65743468D01*
X87584254Y-65744230D01*
X87587962Y-65743386D01*
X87589506Y-65743378D01*
X87591337Y-65742619D01*
X87598591Y-65740970D01*
X87730381Y-65695759D01*
X87732363Y-65695759D01*
X87741915Y-65691802D01*
X87754873Y-65687357D01*
X87756908Y-65685591D01*
X87759399Y-65684560D01*
X87770764Y-65675233D01*
X87864696Y-65579468D01*
X87872219Y-65572945D01*
X87874231Y-65569748D01*
X87875330Y-65568628D01*
X87876087Y-65566798D01*
X87880051Y-65560502D01*
X87924319Y-65469269D01*
X87928402Y-65463759D01*
X87932337Y-65452743D01*
X87932925Y-65451533D01*
X87932963Y-65450992D01*
X87933349Y-65449913D01*
X87978589Y-65263547D01*
X87981766Y-65255879D01*
X87982663Y-65246764D01*
X87983118Y-65244893D01*
X87982955Y-65243800D01*
X87983207Y-65241247D01*
X87981939Y-65102667D01*
X87983118Y-65094744D01*
X87981783Y-65085719D01*
X87981766Y-65083758D01*
X87981343Y-65082736D01*
X87980968Y-65080200D01*
X87961146Y-65003152D01*
X88214160Y-65003152D01*
X88215520Y-65331588D01*
X88214249Y-65340131D01*
X88215593Y-65349223D01*
X88215601Y-65351117D01*
X88216023Y-65352138D01*
X88216399Y-65354675D01*
X88263220Y-65536666D01*
X88263220Y-65541592D01*
X88266564Y-65549667D01*
X88268965Y-65558997D01*
X88272284Y-65563476D01*
X88274418Y-65568628D01*
X88283746Y-65579994D01*
X88379513Y-65673932D01*
X88386033Y-65681450D01*
X88389226Y-65683460D01*
X88390349Y-65684561D01*
X88392181Y-65685319D01*
X88398476Y-65689282D01*
X88484365Y-65730957D01*
X88485587Y-65732179D01*
X88494446Y-65735848D01*
X88507445Y-65742156D01*
X88510134Y-65742347D01*
X88512623Y-65743378D01*
X88527255Y-65744819D01*
X88706342Y-65743560D01*
X88708350Y-65744230D01*
X88719022Y-65743471D01*
X88732363Y-65743378D01*
X88734852Y-65742346D01*
X88737540Y-65742156D01*
X88751272Y-65736901D01*
X88845826Y-65688209D01*
X88854637Y-65684560D01*
X88857539Y-65682177D01*
X88858953Y-65681450D01*
X88860252Y-65679951D01*
X88866002Y-65675233D01*
X88954597Y-65584909D01*
X88958599Y-65582509D01*
X88963684Y-65575645D01*
X88970568Y-65568628D01*
X88972701Y-65563476D01*
X88976021Y-65558997D01*
X88980968Y-65545151D01*
X89026208Y-65358785D01*
X89029385Y-65351117D01*
X89030282Y-65342002D01*
X89030737Y-65340131D01*
X89030574Y-65339038D01*
X89030826Y-65336485D01*
X89029465Y-65008048D01*
X89030737Y-64999506D01*
X89029392Y-64990413D01*
X89029385Y-64988520D01*
X89028962Y-64987498D01*
X89028587Y-64984962D01*
X88981766Y-64802970D01*
X88981766Y-64798045D01*
X88978420Y-64789968D01*
X88976021Y-64780640D01*
X88972702Y-64776161D01*
X88970568Y-64771008D01*
X88961240Y-64759643D01*
X88872524Y-64672623D01*
X89214212Y-64672623D01*
X89216200Y-64687191D01*
X89454862Y-65683466D01*
X89456264Y-65694012D01*
X89458183Y-65697327D01*
X89459085Y-65701091D01*
X89465471Y-65709915D01*
X89470926Y-65719337D01*
X89473983Y-65721677D01*
X89476242Y-65724798D01*
X89485517Y-65730505D01*
X89494164Y-65737124D01*
X89497884Y-65738116D01*
X89501164Y-65740134D01*
X89511918Y-65741858D01*
X89522440Y-65744664D01*
X89526255Y-65744157D01*
X89530059Y-65744767D01*
X89540657Y-65742243D01*
X89551448Y-65740810D01*
X89554779Y-65738881D01*
X89558527Y-65737989D01*
X89567351Y-65731602D01*
X89576773Y-65726148D01*
X89579113Y-65723090D01*
X89582234Y-65720832D01*
X89587941Y-65711556D01*
X89594560Y-65702910D01*
X89596585Y-65697510D01*
X89597570Y-65695910D01*
X89597857Y-65694118D01*
X89599723Y-65689144D01*
X89717550Y-65243870D01*
X89836222Y-65685495D01*
X89837892Y-65695910D01*
X89839895Y-65699166D01*
X89840902Y-65702911D01*
X89847522Y-65711559D01*
X89853228Y-65720832D01*
X89856348Y-65723090D01*
X89858689Y-65726148D01*
X89868110Y-65731602D01*
X89876935Y-65737989D01*
X89880682Y-65738881D01*
X89884014Y-65740810D01*
X89894807Y-65742244D01*
X89905403Y-65744767D01*
X89909204Y-65744157D01*
X89913023Y-65744665D01*
X89923554Y-65741856D01*
X89934298Y-65740134D01*
X89937574Y-65738118D01*
X89941298Y-65737125D01*
X89949948Y-65730503D01*
X89959220Y-65724798D01*
X89961478Y-65721677D01*
X89964536Y-65719337D01*
X89969991Y-65709914D01*
X89976377Y-65701091D01*
X89978254Y-65695642D01*
X89979198Y-65694013D01*
X89979437Y-65692209D01*
X89981167Y-65687191D01*
X90221251Y-64672623D01*
X90220801Y-64669819D01*
X90452255Y-64669819D01*
X90453696Y-65684451D01*
X90464895Y-65711487D01*
X90485587Y-65732179D01*
X90512623Y-65743378D01*
X90541887Y-65743378D01*
X90568923Y-65732179D01*
X90589615Y-65711487D01*
X90600814Y-65684451D01*
X90602255Y-65669819D01*
X90601232Y-64949749D01*
X91032579Y-65702448D01*
X91036323Y-65711487D01*
X91039685Y-65714849D01*
X91042075Y-65719019D01*
X91049963Y-65725127D01*
X91057015Y-65732179D01*
X91061433Y-65734009D01*
X91065213Y-65736936D01*
X91074834Y-65739560D01*
X91084051Y-65743378D01*
X91088832Y-65743378D01*
X91093444Y-65744636D01*
X91103341Y-65743378D01*
X91113315Y-65743378D01*
X91117730Y-65741548D01*
X91122474Y-65740946D01*
X91131138Y-65735995D01*
X91140351Y-65732179D01*
X91143729Y-65728800D01*
X91147883Y-65726427D01*
X91153992Y-65718537D01*
X91161043Y-65711487D01*
X91162872Y-65707070D01*
X91165800Y-65703290D01*
X91168424Y-65693666D01*
X91172242Y-65684451D01*
X91172978Y-65676968D01*
X91173500Y-65675058D01*
X91173312Y-65673582D01*
X91173683Y-65669819D01*
X91172263Y-64669819D01*
X91499874Y-64669819D01*
X91501315Y-65684451D01*
X91512514Y-65711487D01*
X91533206Y-65732179D01*
X91560242Y-65743378D01*
X91574874Y-65744819D01*
X92065696Y-65743378D01*
X92092732Y-65732179D01*
X92113424Y-65711487D01*
X92124623Y-65684451D01*
X92124623Y-65655187D01*
X92113424Y-65628151D01*
X92092732Y-65607459D01*
X92065696Y-65596260D01*
X92051064Y-65594819D01*
X91649769Y-65595997D01*
X91648927Y-65003152D01*
X92261779Y-65003152D01*
X92263139Y-65331588D01*
X92261868Y-65340131D01*
X92263212Y-65349223D01*
X92263220Y-65351117D01*
X92263642Y-65352138D01*
X92264018Y-65354675D01*
X92310839Y-65536666D01*
X92310839Y-65541592D01*
X92314183Y-65549667D01*
X92316584Y-65558997D01*
X92319903Y-65563476D01*
X92322037Y-65568628D01*
X92331365Y-65579994D01*
X92427132Y-65673932D01*
X92433652Y-65681450D01*
X92436845Y-65683460D01*
X92437968Y-65684561D01*
X92439800Y-65685319D01*
X92446095Y-65689282D01*
X92531984Y-65730957D01*
X92533206Y-65732179D01*
X92542065Y-65735848D01*
X92555064Y-65742156D01*
X92557753Y-65742347D01*
X92560242Y-65743378D01*
X92574874Y-65744819D01*
X92753961Y-65743560D01*
X92755969Y-65744230D01*
X92766641Y-65743471D01*
X92779982Y-65743378D01*
X92782471Y-65742346D01*
X92785159Y-65742156D01*
X92798891Y-65736901D01*
X92893445Y-65688209D01*
X92902256Y-65684560D01*
X92905158Y-65682177D01*
X92906572Y-65681450D01*
X92907871Y-65679951D01*
X92913621Y-65675233D01*
X92928132Y-65660439D01*
X93214749Y-65660439D01*
X93216824Y-65689629D01*
X93229910Y-65715802D01*
X93252017Y-65734976D01*
X93279780Y-65744230D01*
X93308970Y-65742155D01*
X93335143Y-65729069D01*
X93354317Y-65706962D01*
X93360311Y-65693536D01*
X93438156Y-65458946D01*
X93807262Y-65457862D01*
X93890669Y-65706961D01*
X93909843Y-65729068D01*
X93936016Y-65742155D01*
X93965206Y-65744230D01*
X93992968Y-65734976D01*
X94015076Y-65715802D01*
X94028162Y-65689628D01*
X94030237Y-65660438D01*
X94026977Y-65646102D01*
X93700086Y-64669819D01*
X94214160Y-64669819D01*
X94215601Y-65684451D01*
X94226800Y-65711487D01*
X94247492Y-65732179D01*
X94274528Y-65743378D01*
X94289160Y-65744819D01*
X94525929Y-65743468D01*
X94536635Y-65744230D01*
X94540343Y-65743386D01*
X94541887Y-65743378D01*
X94543718Y-65742619D01*
X94550972Y-65740970D01*
X94682762Y-65695759D01*
X94684744Y-65695759D01*
X94694296Y-65691802D01*
X94707254Y-65687357D01*
X94709289Y-65685591D01*
X94711780Y-65684560D01*
X94723145Y-65675233D01*
X94817077Y-65579468D01*
X94824600Y-65572945D01*
X94826612Y-65569748D01*
X94827711Y-65568628D01*
X94828468Y-65566798D01*
X94832432Y-65560502D01*
X94876700Y-65469269D01*
X94880783Y-65463759D01*
X94884718Y-65452743D01*
X94885306Y-65451533D01*
X94885344Y-65450992D01*
X94885730Y-65449913D01*
X94930970Y-65263547D01*
X94934147Y-65255879D01*
X94935044Y-65246764D01*
X94935499Y-65244893D01*
X94935336Y-65243800D01*
X94935588Y-65241247D01*
X94934320Y-65102667D01*
X94935499Y-65094744D01*
X94934164Y-65085719D01*
X94934147Y-65083758D01*
X94933724Y-65082736D01*
X94933349Y-65080200D01*
X94885831Y-64895501D01*
X94885306Y-64888104D01*
X94881102Y-64877121D01*
X94880783Y-64875878D01*
X94880460Y-64875442D01*
X94880051Y-64874373D01*
X94831362Y-64779823D01*
X94827711Y-64771008D01*
X94825326Y-64768102D01*
X94824600Y-64766692D01*
X94823103Y-64765393D01*
X94818383Y-64759643D01*
X94730212Y-64673158D01*
X94729361Y-64671455D01*
X94721718Y-64664826D01*
X94711780Y-64655078D01*
X94709289Y-64654046D01*
X94707254Y-64652281D01*
X94693829Y-64646287D01*
X94551250Y-64600138D01*
X94541887Y-64596260D01*
X94538121Y-64595889D01*
X94536635Y-64595408D01*
X94534660Y-64595548D01*
X94527255Y-64594819D01*
X94274528Y-64596260D01*
X94247492Y-64607459D01*
X94226800Y-64628151D01*
X94215601Y-64655187D01*
X94214160Y-64669819D01*
X93700086Y-64669819D01*
X93695199Y-64655223D01*
X93694829Y-64650010D01*
X93690665Y-64641683D01*
X93687650Y-64632676D01*
X93684138Y-64628627D01*
X93681743Y-64623836D01*
X93674639Y-64617674D01*
X93668476Y-64610569D01*
X93663682Y-64608172D01*
X93659635Y-64604662D01*
X93650713Y-64601688D01*
X93642303Y-64597483D01*
X93636958Y-64597103D01*
X93631873Y-64595408D01*
X93622493Y-64596074D01*
X93613113Y-64595408D01*
X93608027Y-64597103D01*
X93602683Y-64597483D01*
X93594275Y-64601687D01*
X93585350Y-64604662D01*
X93581299Y-64608175D01*
X93576510Y-64610570D01*
X93570351Y-64617670D01*
X93563243Y-64623836D01*
X93560846Y-64628629D01*
X93557336Y-64632677D01*
X93551342Y-64646102D01*
X93313167Y-65363850D01*
X93310839Y-65369472D01*
X93310839Y-65370867D01*
X93214749Y-65660439D01*
X92928132Y-65660439D01*
X93002216Y-65584909D01*
X93006218Y-65582509D01*
X93011303Y-65575645D01*
X93018187Y-65568628D01*
X93020320Y-65563476D01*
X93023640Y-65558997D01*
X93028587Y-65545151D01*
X93073827Y-65358785D01*
X93077004Y-65351117D01*
X93077901Y-65342002D01*
X93078356Y-65340131D01*
X93078193Y-65339038D01*
X93078445Y-65336485D01*
X93077084Y-65008048D01*
X93078356Y-64999506D01*
X93077011Y-64990413D01*
X93077004Y-64988520D01*
X93076581Y-64987498D01*
X93076206Y-64984962D01*
X93029385Y-64802970D01*
X93029385Y-64798045D01*
X93026039Y-64789968D01*
X93023640Y-64780640D01*
X93020321Y-64776161D01*
X93018187Y-64771008D01*
X93008859Y-64759643D01*
X92913096Y-64665711D01*
X92906572Y-64658188D01*
X92903375Y-64656175D01*
X92902256Y-64655078D01*
X92900428Y-64654320D01*
X92894129Y-64650356D01*
X92808240Y-64608681D01*
X92807018Y-64607459D01*
X92798152Y-64603786D01*
X92785159Y-64597482D01*
X92782471Y-64597291D01*
X92779982Y-64596260D01*
X92765350Y-64594819D01*
X92586261Y-64596077D01*
X92584254Y-64595408D01*
X92573581Y-64596166D01*
X92560242Y-64596260D01*
X92557753Y-64597290D01*
X92555064Y-64597482D01*
X92541333Y-64602737D01*
X92446783Y-64651425D01*
X92437968Y-64655077D01*
X92435062Y-64657461D01*
X92433652Y-64658188D01*
X92432353Y-64659684D01*
X92426603Y-64664405D01*
X92338007Y-64754726D01*
X92334006Y-64757128D01*
X92328919Y-64763991D01*
X92322038Y-64771008D01*
X92319904Y-64776158D01*
X92316584Y-64780640D01*
X92311637Y-64794486D01*
X92266396Y-64980851D01*
X92263220Y-64988520D01*
X92262322Y-64997634D01*
X92261868Y-64999506D01*
X92262030Y-65000598D01*
X92261779Y-65003152D01*
X91648927Y-65003152D01*
X91648433Y-64655187D01*
X91637234Y-64628151D01*
X91616542Y-64607459D01*
X91589506Y-64596260D01*
X91560242Y-64596260D01*
X91533206Y-64607459D01*
X91512514Y-64628151D01*
X91501315Y-64655187D01*
X91499874Y-64669819D01*
X91172263Y-64669819D01*
X91172242Y-64655187D01*
X91161043Y-64628151D01*
X91140351Y-64607459D01*
X91113315Y-64596260D01*
X91084051Y-64596260D01*
X91057015Y-64607459D01*
X91036323Y-64628151D01*
X91025124Y-64655187D01*
X91023683Y-64669819D01*
X91024705Y-65389888D01*
X90593358Y-64637189D01*
X90589615Y-64628151D01*
X90586252Y-64624788D01*
X90583863Y-64620619D01*
X90575973Y-64614509D01*
X90568923Y-64607459D01*
X90564506Y-64605629D01*
X90560726Y-64602702D01*
X90551102Y-64600077D01*
X90541887Y-64596260D01*
X90537106Y-64596260D01*
X90532494Y-64595002D01*
X90522597Y-64596260D01*
X90512623Y-64596260D01*
X90508207Y-64598089D01*
X90503464Y-64598692D01*
X90494799Y-64603642D01*
X90485587Y-64607459D01*
X90482208Y-64610837D01*
X90478055Y-64613211D01*
X90471945Y-64621100D01*
X90464895Y-64628151D01*
X90463065Y-64632567D01*
X90460138Y-64636348D01*
X90457513Y-64645971D01*
X90453696Y-64655187D01*
X90452959Y-64662669D01*
X90452438Y-64664580D01*
X90452625Y-64666055D01*
X90452255Y-64669819D01*
X90220801Y-64669819D01*
X90216618Y-64643728D01*
X90201282Y-64618806D01*
X90177575Y-64601650D01*
X90149107Y-64594871D01*
X90120212Y-64599504D01*
X90095290Y-64614840D01*
X90078133Y-64638547D01*
X90073343Y-64652448D01*
X89904366Y-65366521D01*
X89789988Y-64940872D01*
X89788722Y-64931339D01*
X89786304Y-64927164D01*
X89785036Y-64922442D01*
X89779021Y-64914583D01*
X89774060Y-64906015D01*
X89770201Y-64903061D01*
X89767249Y-64899204D01*
X89758684Y-64894245D01*
X89750822Y-64888227D01*
X89746125Y-64886974D01*
X89741924Y-64884542D01*
X89732117Y-64883239D01*
X89722547Y-64880687D01*
X89717728Y-64881327D01*
X89712916Y-64880688D01*
X89703355Y-64883237D01*
X89693538Y-64884542D01*
X89689332Y-64886976D01*
X89684640Y-64888228D01*
X89676780Y-64894243D01*
X89668213Y-64899204D01*
X89665259Y-64903062D01*
X89661402Y-64906015D01*
X89656443Y-64914580D01*
X89650426Y-64922441D01*
X89647729Y-64929630D01*
X89646740Y-64931340D01*
X89646548Y-64932779D01*
X89645263Y-64936208D01*
X89531565Y-65365875D01*
X89357330Y-64638547D01*
X89340173Y-64614840D01*
X89315251Y-64599504D01*
X89286356Y-64594871D01*
X89257888Y-64601649D01*
X89234181Y-64618806D01*
X89218845Y-64643728D01*
X89214212Y-64672623D01*
X88872524Y-64672623D01*
X88865477Y-64665711D01*
X88858953Y-64658188D01*
X88855756Y-64656175D01*
X88854637Y-64655078D01*
X88852809Y-64654320D01*
X88846510Y-64650356D01*
X88760621Y-64608681D01*
X88759399Y-64607459D01*
X88750533Y-64603786D01*
X88737540Y-64597482D01*
X88734852Y-64597291D01*
X88732363Y-64596260D01*
X88717731Y-64594819D01*
X88538642Y-64596077D01*
X88536635Y-64595408D01*
X88525962Y-64596166D01*
X88512623Y-64596260D01*
X88510134Y-64597290D01*
X88507445Y-64597482D01*
X88493714Y-64602737D01*
X88399164Y-64651425D01*
X88390349Y-64655077D01*
X88387443Y-64657461D01*
X88386033Y-64658188D01*
X88384734Y-64659684D01*
X88378984Y-64664405D01*
X88290388Y-64754726D01*
X88286387Y-64757128D01*
X88281300Y-64763991D01*
X88274419Y-64771008D01*
X88272285Y-64776158D01*
X88268965Y-64780640D01*
X88264018Y-64794486D01*
X88218777Y-64980851D01*
X88215601Y-64988520D01*
X88214703Y-64997634D01*
X88214249Y-64999506D01*
X88214411Y-65000598D01*
X88214160Y-65003152D01*
X87961146Y-65003152D01*
X87933450Y-64895501D01*
X87932925Y-64888104D01*
X87928721Y-64877121D01*
X87928402Y-64875878D01*
X87928079Y-64875442D01*
X87927670Y-64874373D01*
X87878981Y-64779823D01*
X87875330Y-64771008D01*
X87872945Y-64768102D01*
X87872219Y-64766692D01*
X87870722Y-64765393D01*
X87866002Y-64759643D01*
X87777831Y-64673158D01*
X87776980Y-64671455D01*
X87769337Y-64664826D01*
X87759399Y-64655078D01*
X87756908Y-64654046D01*
X87754873Y-64652281D01*
X87741448Y-64646287D01*
X87598869Y-64600138D01*
X87589506Y-64596260D01*
X87585740Y-64595889D01*
X87584254Y-64595408D01*
X87582279Y-64595548D01*
X87574874Y-64594819D01*
X87322147Y-64596260D01*
X87295111Y-64607459D01*
X87274419Y-64628151D01*
X87263220Y-64655187D01*
X87261779Y-64669819D01*
X87150668Y-64669819D01*
X87150668Y-64483708D01*
X95046699Y-64483708D01*
X95046699Y-65855930D01*
G37*
X91708207Y-63174580D02*
X91660588Y-63222200D01*
X91660588Y-63222200D02*
X91517731Y-63269819D01*
X91517731Y-63269819D02*
X91422493Y-63269819D01*
X91422493Y-63269819D02*
X91279636Y-63222200D01*
X91279636Y-63222200D02*
X91184398Y-63126961D01*
X91184398Y-63126961D02*
X91136779Y-63031723D01*
X91136779Y-63031723D02*
X91089160Y-62841247D01*
X91089160Y-62841247D02*
X91089160Y-62698390D01*
X91089160Y-62698390D02*
X91136779Y-62507914D01*
X91136779Y-62507914D02*
X91184398Y-62412676D01*
X91184398Y-62412676D02*
X91279636Y-62317438D01*
X91279636Y-62317438D02*
X91422493Y-62269819D01*
X91422493Y-62269819D02*
X91517731Y-62269819D01*
X91517731Y-62269819D02*
X91660588Y-62317438D01*
X91660588Y-62317438D02*
X91708207Y-62365057D01*
X92136779Y-63269819D02*
X92136779Y-62269819D01*
X92136779Y-62746009D02*
X92708207Y-62746009D01*
X92708207Y-63269819D02*
X92708207Y-62269819D01*
X93136779Y-62365057D02*
X93184398Y-62317438D01*
X93184398Y-62317438D02*
X93279636Y-62269819D01*
X93279636Y-62269819D02*
X93517731Y-62269819D01*
X93517731Y-62269819D02*
X93612969Y-62317438D01*
X93612969Y-62317438D02*
X93660588Y-62365057D01*
X93660588Y-62365057D02*
X93708207Y-62460295D01*
X93708207Y-62460295D02*
X93708207Y-62555533D01*
X93708207Y-62555533D02*
X93660588Y-62698390D01*
X93660588Y-62698390D02*
X93089160Y-63269819D01*
X93089160Y-63269819D02*
X93708207Y-63269819D01*
D11*
X92733609Y-38786591D02*
X92733609Y-38500877D01*
X93233609Y-38643734D02*
X92733609Y-38643734D01*
X92733609Y-38381830D02*
X93233609Y-38048497D01*
X92733609Y-38048497D02*
X93233609Y-38381830D01*
X38787217Y-41183609D02*
X39096741Y-41183609D01*
X39096741Y-41183609D02*
X38930074Y-41374085D01*
X38930074Y-41374085D02*
X39001503Y-41374085D01*
X39001503Y-41374085D02*
X39049122Y-41397895D01*
X39049122Y-41397895D02*
X39072931Y-41421704D01*
X39072931Y-41421704D02*
X39096741Y-41469323D01*
X39096741Y-41469323D02*
X39096741Y-41588371D01*
X39096741Y-41588371D02*
X39072931Y-41635990D01*
X39072931Y-41635990D02*
X39049122Y-41659800D01*
X39049122Y-41659800D02*
X39001503Y-41683609D01*
X39001503Y-41683609D02*
X38858646Y-41683609D01*
X38858646Y-41683609D02*
X38811027Y-41659800D01*
X38811027Y-41659800D02*
X38787217Y-41635990D01*
X39239598Y-41183609D02*
X39406264Y-41683609D01*
X39406264Y-41683609D02*
X39572931Y-41183609D01*
X39691978Y-41183609D02*
X40001502Y-41183609D01*
X40001502Y-41183609D02*
X39834835Y-41374085D01*
X39834835Y-41374085D02*
X39906264Y-41374085D01*
X39906264Y-41374085D02*
X39953883Y-41397895D01*
X39953883Y-41397895D02*
X39977692Y-41421704D01*
X39977692Y-41421704D02*
X40001502Y-41469323D01*
X40001502Y-41469323D02*
X40001502Y-41588371D01*
X40001502Y-41588371D02*
X39977692Y-41635990D01*
X39977692Y-41635990D02*
X39953883Y-41659800D01*
X39953883Y-41659800D02*
X39906264Y-41683609D01*
X39906264Y-41683609D02*
X39763407Y-41683609D01*
X39763407Y-41683609D02*
X39715788Y-41659800D01*
X39715788Y-41659800D02*
X39691978Y-41635990D01*
X82951633Y-71747544D02*
X82951633Y-71347544D01*
X83651633Y-71547544D02*
X82951633Y-71547544D01*
X82951633Y-71180878D02*
X83651633Y-70714211D01*
X82951633Y-70714211D02*
X83651633Y-71180878D01*
X115146741Y-44757419D02*
X115099122Y-44733609D01*
X115099122Y-44733609D02*
X115027693Y-44733609D01*
X115027693Y-44733609D02*
X114956265Y-44757419D01*
X114956265Y-44757419D02*
X114908646Y-44805038D01*
X114908646Y-44805038D02*
X114884836Y-44852657D01*
X114884836Y-44852657D02*
X114861027Y-44947895D01*
X114861027Y-44947895D02*
X114861027Y-45019323D01*
X114861027Y-45019323D02*
X114884836Y-45114561D01*
X114884836Y-45114561D02*
X114908646Y-45162180D01*
X114908646Y-45162180D02*
X114956265Y-45209800D01*
X114956265Y-45209800D02*
X115027693Y-45233609D01*
X115027693Y-45233609D02*
X115075312Y-45233609D01*
X115075312Y-45233609D02*
X115146741Y-45209800D01*
X115146741Y-45209800D02*
X115170550Y-45185990D01*
X115170550Y-45185990D02*
X115170550Y-45019323D01*
X115170550Y-45019323D02*
X115075312Y-45019323D01*
X115384836Y-45233609D02*
X115384836Y-44733609D01*
X115384836Y-44733609D02*
X115670550Y-45233609D01*
X115670550Y-45233609D02*
X115670550Y-44733609D01*
X115908646Y-45233609D02*
X115908646Y-44733609D01*
X115908646Y-44733609D02*
X116027694Y-44733609D01*
X116027694Y-44733609D02*
X116099122Y-44757419D01*
X116099122Y-44757419D02*
X116146741Y-44805038D01*
X116146741Y-44805038D02*
X116170551Y-44852657D01*
X116170551Y-44852657D02*
X116194360Y-44947895D01*
X116194360Y-44947895D02*
X116194360Y-45019323D01*
X116194360Y-45019323D02*
X116170551Y-45114561D01*
X116170551Y-45114561D02*
X116146741Y-45162180D01*
X116146741Y-45162180D02*
X116099122Y-45209800D01*
X116099122Y-45209800D02*
X116027694Y-45233609D01*
X116027694Y-45233609D02*
X115908646Y-45233609D01*
X85051633Y-71764211D02*
X85051633Y-71330877D01*
X85051633Y-71330877D02*
X85318300Y-71564211D01*
X85318300Y-71564211D02*
X85318300Y-71464211D01*
X85318300Y-71464211D02*
X85351633Y-71397544D01*
X85351633Y-71397544D02*
X85384966Y-71364211D01*
X85384966Y-71364211D02*
X85451633Y-71330877D01*
X85451633Y-71330877D02*
X85618300Y-71330877D01*
X85618300Y-71330877D02*
X85684966Y-71364211D01*
X85684966Y-71364211D02*
X85718300Y-71397544D01*
X85718300Y-71397544D02*
X85751633Y-71464211D01*
X85751633Y-71464211D02*
X85751633Y-71664211D01*
X85751633Y-71664211D02*
X85718300Y-71730877D01*
X85718300Y-71730877D02*
X85684966Y-71764211D01*
X85051633Y-71130877D02*
X85751633Y-70897544D01*
X85751633Y-70897544D02*
X85051633Y-70664210D01*
X85051633Y-70497544D02*
X85051633Y-70064210D01*
X85051633Y-70064210D02*
X85318300Y-70297544D01*
X85318300Y-70297544D02*
X85318300Y-70197544D01*
X85318300Y-70197544D02*
X85351633Y-70130877D01*
X85351633Y-70130877D02*
X85384966Y-70097544D01*
X85384966Y-70097544D02*
X85451633Y-70064210D01*
X85451633Y-70064210D02*
X85618300Y-70064210D01*
X85618300Y-70064210D02*
X85684966Y-70097544D01*
X85684966Y-70097544D02*
X85718300Y-70130877D01*
X85718300Y-70130877D02*
X85751633Y-70197544D01*
X85751633Y-70197544D02*
X85751633Y-70397544D01*
X85751633Y-70397544D02*
X85718300Y-70464210D01*
X85718300Y-70464210D02*
X85684966Y-70497544D01*
X92333609Y-44262782D02*
X92333609Y-43953258D01*
X92333609Y-43953258D02*
X92524085Y-44119925D01*
X92524085Y-44119925D02*
X92524085Y-44048496D01*
X92524085Y-44048496D02*
X92547895Y-44000877D01*
X92547895Y-44000877D02*
X92571704Y-43977068D01*
X92571704Y-43977068D02*
X92619323Y-43953258D01*
X92619323Y-43953258D02*
X92738371Y-43953258D01*
X92738371Y-43953258D02*
X92785990Y-43977068D01*
X92785990Y-43977068D02*
X92809800Y-44000877D01*
X92809800Y-44000877D02*
X92833609Y-44048496D01*
X92833609Y-44048496D02*
X92833609Y-44191353D01*
X92833609Y-44191353D02*
X92809800Y-44238972D01*
X92809800Y-44238972D02*
X92785990Y-44262782D01*
X92333609Y-43810401D02*
X92833609Y-43643735D01*
X92833609Y-43643735D02*
X92333609Y-43477068D01*
X92333609Y-43358021D02*
X92333609Y-43048497D01*
X92333609Y-43048497D02*
X92524085Y-43215164D01*
X92524085Y-43215164D02*
X92524085Y-43143735D01*
X92524085Y-43143735D02*
X92547895Y-43096116D01*
X92547895Y-43096116D02*
X92571704Y-43072307D01*
X92571704Y-43072307D02*
X92619323Y-43048497D01*
X92619323Y-43048497D02*
X92738371Y-43048497D01*
X92738371Y-43048497D02*
X92785990Y-43072307D01*
X92785990Y-43072307D02*
X92809800Y-43096116D01*
X92809800Y-43096116D02*
X92833609Y-43143735D01*
X92833609Y-43143735D02*
X92833609Y-43286592D01*
X92833609Y-43286592D02*
X92809800Y-43334211D01*
X92809800Y-43334211D02*
X92785990Y-43358021D01*
D10*
X87993922Y-36769819D02*
X88565350Y-36769819D01*
X88279636Y-37769819D02*
X88279636Y-36769819D01*
X88803446Y-36769819D02*
X89470112Y-37769819D01*
X89470112Y-36769819D02*
X88803446Y-37769819D01*
X109860588Y-34017438D02*
X109765350Y-33969819D01*
X109765350Y-33969819D02*
X109622493Y-33969819D01*
X109622493Y-33969819D02*
X109479636Y-34017438D01*
X109479636Y-34017438D02*
X109384398Y-34112676D01*
X109384398Y-34112676D02*
X109336779Y-34207914D01*
X109336779Y-34207914D02*
X109289160Y-34398390D01*
X109289160Y-34398390D02*
X109289160Y-34541247D01*
X109289160Y-34541247D02*
X109336779Y-34731723D01*
X109336779Y-34731723D02*
X109384398Y-34826961D01*
X109384398Y-34826961D02*
X109479636Y-34922200D01*
X109479636Y-34922200D02*
X109622493Y-34969819D01*
X109622493Y-34969819D02*
X109717731Y-34969819D01*
X109717731Y-34969819D02*
X109860588Y-34922200D01*
X109860588Y-34922200D02*
X109908207Y-34874580D01*
X109908207Y-34874580D02*
X109908207Y-34541247D01*
X109908207Y-34541247D02*
X109717731Y-34541247D01*
X110336779Y-34969819D02*
X110336779Y-33969819D01*
X110336779Y-33969819D02*
X110908207Y-34969819D01*
X110908207Y-34969819D02*
X110908207Y-33969819D01*
X111384398Y-34969819D02*
X111384398Y-33969819D01*
X111384398Y-33969819D02*
X111622493Y-33969819D01*
X111622493Y-33969819D02*
X111765350Y-34017438D01*
X111765350Y-34017438D02*
X111860588Y-34112676D01*
X111860588Y-34112676D02*
X111908207Y-34207914D01*
X111908207Y-34207914D02*
X111955826Y-34398390D01*
X111955826Y-34398390D02*
X111955826Y-34541247D01*
X111955826Y-34541247D02*
X111908207Y-34731723D01*
X111908207Y-34731723D02*
X111860588Y-34826961D01*
X111860588Y-34826961D02*
X111765350Y-34922200D01*
X111765350Y-34922200D02*
X111622493Y-34969819D01*
X111622493Y-34969819D02*
X111384398Y-34969819D01*
X112384398Y-34969819D02*
X112384398Y-33969819D01*
X112384398Y-33969819D02*
X112622493Y-33969819D01*
X112622493Y-33969819D02*
X112765350Y-34017438D01*
X112765350Y-34017438D02*
X112860588Y-34112676D01*
X112860588Y-34112676D02*
X112908207Y-34207914D01*
X112908207Y-34207914D02*
X112955826Y-34398390D01*
X112955826Y-34398390D02*
X112955826Y-34541247D01*
X112955826Y-34541247D02*
X112908207Y-34731723D01*
X112908207Y-34731723D02*
X112860588Y-34826961D01*
X112860588Y-34826961D02*
X112765350Y-34922200D01*
X112765350Y-34922200D02*
X112622493Y-34969819D01*
X112622493Y-34969819D02*
X112384398Y-34969819D01*
D11*
X82601633Y-71197544D02*
X82268300Y-71430877D01*
X82601633Y-71597544D02*
X81901633Y-71597544D01*
X81901633Y-71597544D02*
X81901633Y-71330877D01*
X81901633Y-71330877D02*
X81934966Y-71264211D01*
X81934966Y-71264211D02*
X81968300Y-71230877D01*
X81968300Y-71230877D02*
X82034966Y-71197544D01*
X82034966Y-71197544D02*
X82134966Y-71197544D01*
X82134966Y-71197544D02*
X82201633Y-71230877D01*
X82201633Y-71230877D02*
X82234966Y-71264211D01*
X82234966Y-71264211D02*
X82268300Y-71330877D01*
X82268300Y-71330877D02*
X82268300Y-71597544D01*
X81901633Y-70964211D02*
X82601633Y-70497544D01*
X81901633Y-70497544D02*
X82601633Y-70964211D01*
X81624672Y-71697544D02*
X80924672Y-71697544D01*
X80924672Y-71697544D02*
X80924672Y-71530877D01*
X80924672Y-71530877D02*
X80958005Y-71430877D01*
X80958005Y-71430877D02*
X81024672Y-71364211D01*
X81024672Y-71364211D02*
X81091339Y-71330877D01*
X81091339Y-71330877D02*
X81224672Y-71297544D01*
X81224672Y-71297544D02*
X81324672Y-71297544D01*
X81324672Y-71297544D02*
X81458005Y-71330877D01*
X81458005Y-71330877D02*
X81524672Y-71364211D01*
X81524672Y-71364211D02*
X81591339Y-71430877D01*
X81591339Y-71430877D02*
X81624672Y-71530877D01*
X81624672Y-71530877D02*
X81624672Y-71697544D01*
X81624672Y-70997544D02*
X80924672Y-70997544D01*
X80924672Y-70530878D02*
X80924672Y-70397544D01*
X80924672Y-70397544D02*
X80958005Y-70330878D01*
X80958005Y-70330878D02*
X81024672Y-70264211D01*
X81024672Y-70264211D02*
X81158005Y-70230878D01*
X81158005Y-70230878D02*
X81391339Y-70230878D01*
X81391339Y-70230878D02*
X81524672Y-70264211D01*
X81524672Y-70264211D02*
X81591339Y-70330878D01*
X81591339Y-70330878D02*
X81624672Y-70397544D01*
X81624672Y-70397544D02*
X81624672Y-70530878D01*
X81624672Y-70530878D02*
X81591339Y-70597544D01*
X81591339Y-70597544D02*
X81524672Y-70664211D01*
X81524672Y-70664211D02*
X81391339Y-70697544D01*
X81391339Y-70697544D02*
X81158005Y-70697544D01*
X81158005Y-70697544D02*
X81024672Y-70664211D01*
X81024672Y-70664211D02*
X80958005Y-70597544D01*
X80958005Y-70597544D02*
X80924672Y-70530878D01*
D10*
X39641541Y-32669819D02*
X40260588Y-32669819D01*
X40260588Y-32669819D02*
X39927255Y-33050771D01*
X39927255Y-33050771D02*
X40070112Y-33050771D01*
X40070112Y-33050771D02*
X40165350Y-33098390D01*
X40165350Y-33098390D02*
X40212969Y-33146009D01*
X40212969Y-33146009D02*
X40260588Y-33241247D01*
X40260588Y-33241247D02*
X40260588Y-33479342D01*
X40260588Y-33479342D02*
X40212969Y-33574580D01*
X40212969Y-33574580D02*
X40165350Y-33622200D01*
X40165350Y-33622200D02*
X40070112Y-33669819D01*
X40070112Y-33669819D02*
X39784398Y-33669819D01*
X39784398Y-33669819D02*
X39689160Y-33622200D01*
X39689160Y-33622200D02*
X39641541Y-33574580D01*
X40546303Y-32669819D02*
X40879636Y-33669819D01*
X40879636Y-33669819D02*
X41212969Y-32669819D01*
X41451065Y-32669819D02*
X42070112Y-32669819D01*
X42070112Y-32669819D02*
X41736779Y-33050771D01*
X41736779Y-33050771D02*
X41879636Y-33050771D01*
X41879636Y-33050771D02*
X41974874Y-33098390D01*
X41974874Y-33098390D02*
X42022493Y-33146009D01*
X42022493Y-33146009D02*
X42070112Y-33241247D01*
X42070112Y-33241247D02*
X42070112Y-33479342D01*
X42070112Y-33479342D02*
X42022493Y-33574580D01*
X42022493Y-33574580D02*
X41974874Y-33622200D01*
X41974874Y-33622200D02*
X41879636Y-33669819D01*
X41879636Y-33669819D02*
X41593922Y-33669819D01*
X41593922Y-33669819D02*
X41498684Y-33622200D01*
X41498684Y-33622200D02*
X41451065Y-33574580D01*
D11*
X114484836Y-42833609D02*
X114484836Y-42333609D01*
X114484836Y-42333609D02*
X114651503Y-42690752D01*
X114651503Y-42690752D02*
X114818169Y-42333609D01*
X114818169Y-42333609D02*
X114818169Y-42833609D01*
X115151503Y-42333609D02*
X115246741Y-42333609D01*
X115246741Y-42333609D02*
X115294360Y-42357419D01*
X115294360Y-42357419D02*
X115341979Y-42405038D01*
X115341979Y-42405038D02*
X115365789Y-42500276D01*
X115365789Y-42500276D02*
X115365789Y-42666942D01*
X115365789Y-42666942D02*
X115341979Y-42762180D01*
X115341979Y-42762180D02*
X115294360Y-42809800D01*
X115294360Y-42809800D02*
X115246741Y-42833609D01*
X115246741Y-42833609D02*
X115151503Y-42833609D01*
X115151503Y-42833609D02*
X115103884Y-42809800D01*
X115103884Y-42809800D02*
X115056265Y-42762180D01*
X115056265Y-42762180D02*
X115032456Y-42666942D01*
X115032456Y-42666942D02*
X115032456Y-42500276D01*
X115032456Y-42500276D02*
X115056265Y-42405038D01*
X115056265Y-42405038D02*
X115103884Y-42357419D01*
X115103884Y-42357419D02*
X115151503Y-42333609D01*
X115556266Y-42809800D02*
X115627694Y-42833609D01*
X115627694Y-42833609D02*
X115746742Y-42833609D01*
X115746742Y-42833609D02*
X115794361Y-42809800D01*
X115794361Y-42809800D02*
X115818170Y-42785990D01*
X115818170Y-42785990D02*
X115841980Y-42738371D01*
X115841980Y-42738371D02*
X115841980Y-42690752D01*
X115841980Y-42690752D02*
X115818170Y-42643133D01*
X115818170Y-42643133D02*
X115794361Y-42619323D01*
X115794361Y-42619323D02*
X115746742Y-42595514D01*
X115746742Y-42595514D02*
X115651504Y-42571704D01*
X115651504Y-42571704D02*
X115603885Y-42547895D01*
X115603885Y-42547895D02*
X115580075Y-42524085D01*
X115580075Y-42524085D02*
X115556266Y-42476466D01*
X115556266Y-42476466D02*
X115556266Y-42428847D01*
X115556266Y-42428847D02*
X115580075Y-42381228D01*
X115580075Y-42381228D02*
X115603885Y-42357419D01*
X115603885Y-42357419D02*
X115651504Y-42333609D01*
X115651504Y-42333609D02*
X115770551Y-42333609D01*
X115770551Y-42333609D02*
X115841980Y-42357419D01*
X116056265Y-42833609D02*
X116056265Y-42333609D01*
X114937217Y-44133609D02*
X115246741Y-44133609D01*
X115246741Y-44133609D02*
X115080074Y-44324085D01*
X115080074Y-44324085D02*
X115151503Y-44324085D01*
X115151503Y-44324085D02*
X115199122Y-44347895D01*
X115199122Y-44347895D02*
X115222931Y-44371704D01*
X115222931Y-44371704D02*
X115246741Y-44419323D01*
X115246741Y-44419323D02*
X115246741Y-44538371D01*
X115246741Y-44538371D02*
X115222931Y-44585990D01*
X115222931Y-44585990D02*
X115199122Y-44609800D01*
X115199122Y-44609800D02*
X115151503Y-44633609D01*
X115151503Y-44633609D02*
X115008646Y-44633609D01*
X115008646Y-44633609D02*
X114961027Y-44609800D01*
X114961027Y-44609800D02*
X114937217Y-44585990D01*
X115389598Y-44133609D02*
X115556264Y-44633609D01*
X115556264Y-44633609D02*
X115722931Y-44133609D01*
X115841978Y-44133609D02*
X116151502Y-44133609D01*
X116151502Y-44133609D02*
X115984835Y-44324085D01*
X115984835Y-44324085D02*
X116056264Y-44324085D01*
X116056264Y-44324085D02*
X116103883Y-44347895D01*
X116103883Y-44347895D02*
X116127692Y-44371704D01*
X116127692Y-44371704D02*
X116151502Y-44419323D01*
X116151502Y-44419323D02*
X116151502Y-44538371D01*
X116151502Y-44538371D02*
X116127692Y-44585990D01*
X116127692Y-44585990D02*
X116103883Y-44609800D01*
X116103883Y-44609800D02*
X116056264Y-44633609D01*
X116056264Y-44633609D02*
X115913407Y-44633609D01*
X115913407Y-44633609D02*
X115865788Y-44609800D01*
X115865788Y-44609800D02*
X115841978Y-44585990D01*
X83984966Y-71380877D02*
X83951633Y-71447544D01*
X83951633Y-71447544D02*
X83951633Y-71547544D01*
X83951633Y-71547544D02*
X83984966Y-71647544D01*
X83984966Y-71647544D02*
X84051633Y-71714211D01*
X84051633Y-71714211D02*
X84118300Y-71747544D01*
X84118300Y-71747544D02*
X84251633Y-71780877D01*
X84251633Y-71780877D02*
X84351633Y-71780877D01*
X84351633Y-71780877D02*
X84484966Y-71747544D01*
X84484966Y-71747544D02*
X84551633Y-71714211D01*
X84551633Y-71714211D02*
X84618300Y-71647544D01*
X84618300Y-71647544D02*
X84651633Y-71547544D01*
X84651633Y-71547544D02*
X84651633Y-71480877D01*
X84651633Y-71480877D02*
X84618300Y-71380877D01*
X84618300Y-71380877D02*
X84584966Y-71347544D01*
X84584966Y-71347544D02*
X84351633Y-71347544D01*
X84351633Y-71347544D02*
X84351633Y-71480877D01*
X84651633Y-71047544D02*
X83951633Y-71047544D01*
X83951633Y-71047544D02*
X84651633Y-70647544D01*
X84651633Y-70647544D02*
X83951633Y-70647544D01*
X84651633Y-70314211D02*
X83951633Y-70314211D01*
X83951633Y-70314211D02*
X83951633Y-70147544D01*
X83951633Y-70147544D02*
X83984966Y-70047544D01*
X83984966Y-70047544D02*
X84051633Y-69980878D01*
X84051633Y-69980878D02*
X84118300Y-69947544D01*
X84118300Y-69947544D02*
X84251633Y-69914211D01*
X84251633Y-69914211D02*
X84351633Y-69914211D01*
X84351633Y-69914211D02*
X84484966Y-69947544D01*
X84484966Y-69947544D02*
X84551633Y-69980878D01*
X84551633Y-69980878D02*
X84618300Y-70047544D01*
X84618300Y-70047544D02*
X84651633Y-70147544D01*
X84651633Y-70147544D02*
X84651633Y-70314211D01*
X114884836Y-42233609D02*
X114884836Y-41733609D01*
X114884836Y-41733609D02*
X115170550Y-42233609D01*
X115170550Y-42233609D02*
X115170550Y-41733609D01*
X115384837Y-42209800D02*
X115456265Y-42233609D01*
X115456265Y-42233609D02*
X115575313Y-42233609D01*
X115575313Y-42233609D02*
X115622932Y-42209800D01*
X115622932Y-42209800D02*
X115646741Y-42185990D01*
X115646741Y-42185990D02*
X115670551Y-42138371D01*
X115670551Y-42138371D02*
X115670551Y-42090752D01*
X115670551Y-42090752D02*
X115646741Y-42043133D01*
X115646741Y-42043133D02*
X115622932Y-42019323D01*
X115622932Y-42019323D02*
X115575313Y-41995514D01*
X115575313Y-41995514D02*
X115480075Y-41971704D01*
X115480075Y-41971704D02*
X115432456Y-41947895D01*
X115432456Y-41947895D02*
X115408646Y-41924085D01*
X115408646Y-41924085D02*
X115384837Y-41876466D01*
X115384837Y-41876466D02*
X115384837Y-41828847D01*
X115384837Y-41828847D02*
X115408646Y-41781228D01*
X115408646Y-41781228D02*
X115432456Y-41757419D01*
X115432456Y-41757419D02*
X115480075Y-41733609D01*
X115480075Y-41733609D02*
X115599122Y-41733609D01*
X115599122Y-41733609D02*
X115670551Y-41757419D01*
X115861027Y-42209800D02*
X115932455Y-42233609D01*
X115932455Y-42233609D02*
X116051503Y-42233609D01*
X116051503Y-42233609D02*
X116099122Y-42209800D01*
X116099122Y-42209800D02*
X116122931Y-42185990D01*
X116122931Y-42185990D02*
X116146741Y-42138371D01*
X116146741Y-42138371D02*
X116146741Y-42090752D01*
X116146741Y-42090752D02*
X116122931Y-42043133D01*
X116122931Y-42043133D02*
X116099122Y-42019323D01*
X116099122Y-42019323D02*
X116051503Y-41995514D01*
X116051503Y-41995514D02*
X115956265Y-41971704D01*
X115956265Y-41971704D02*
X115908646Y-41947895D01*
X115908646Y-41947895D02*
X115884836Y-41924085D01*
X115884836Y-41924085D02*
X115861027Y-41876466D01*
X115861027Y-41876466D02*
X115861027Y-41828847D01*
X115861027Y-41828847D02*
X115884836Y-41781228D01*
X115884836Y-41781228D02*
X115908646Y-41757419D01*
X115908646Y-41757419D02*
X115956265Y-41733609D01*
X115956265Y-41733609D02*
X116075312Y-41733609D01*
X116075312Y-41733609D02*
X116146741Y-41757419D01*
X38834836Y-44283609D02*
X38834836Y-43783609D01*
X38834836Y-43783609D02*
X39120550Y-44283609D01*
X39120550Y-44283609D02*
X39120550Y-43783609D01*
X39334837Y-44259800D02*
X39406265Y-44283609D01*
X39406265Y-44283609D02*
X39525313Y-44283609D01*
X39525313Y-44283609D02*
X39572932Y-44259800D01*
X39572932Y-44259800D02*
X39596741Y-44235990D01*
X39596741Y-44235990D02*
X39620551Y-44188371D01*
X39620551Y-44188371D02*
X39620551Y-44140752D01*
X39620551Y-44140752D02*
X39596741Y-44093133D01*
X39596741Y-44093133D02*
X39572932Y-44069323D01*
X39572932Y-44069323D02*
X39525313Y-44045514D01*
X39525313Y-44045514D02*
X39430075Y-44021704D01*
X39430075Y-44021704D02*
X39382456Y-43997895D01*
X39382456Y-43997895D02*
X39358646Y-43974085D01*
X39358646Y-43974085D02*
X39334837Y-43926466D01*
X39334837Y-43926466D02*
X39334837Y-43878847D01*
X39334837Y-43878847D02*
X39358646Y-43831228D01*
X39358646Y-43831228D02*
X39382456Y-43807419D01*
X39382456Y-43807419D02*
X39430075Y-43783609D01*
X39430075Y-43783609D02*
X39549122Y-43783609D01*
X39549122Y-43783609D02*
X39620551Y-43807419D01*
X39811027Y-44259800D02*
X39882455Y-44283609D01*
X39882455Y-44283609D02*
X40001503Y-44283609D01*
X40001503Y-44283609D02*
X40049122Y-44259800D01*
X40049122Y-44259800D02*
X40072931Y-44235990D01*
X40072931Y-44235990D02*
X40096741Y-44188371D01*
X40096741Y-44188371D02*
X40096741Y-44140752D01*
X40096741Y-44140752D02*
X40072931Y-44093133D01*
X40072931Y-44093133D02*
X40049122Y-44069323D01*
X40049122Y-44069323D02*
X40001503Y-44045514D01*
X40001503Y-44045514D02*
X39906265Y-44021704D01*
X39906265Y-44021704D02*
X39858646Y-43997895D01*
X39858646Y-43997895D02*
X39834836Y-43974085D01*
X39834836Y-43974085D02*
X39811027Y-43926466D01*
X39811027Y-43926466D02*
X39811027Y-43878847D01*
X39811027Y-43878847D02*
X39834836Y-43831228D01*
X39834836Y-43831228D02*
X39858646Y-43807419D01*
X39858646Y-43807419D02*
X39906265Y-43783609D01*
X39906265Y-43783609D02*
X40025312Y-43783609D01*
X40025312Y-43783609D02*
X40096741Y-43807419D01*
X38784836Y-43633609D02*
X38784836Y-43133609D01*
X38784836Y-43133609D02*
X38951503Y-43490752D01*
X38951503Y-43490752D02*
X39118169Y-43133609D01*
X39118169Y-43133609D02*
X39118169Y-43633609D01*
X39451503Y-43133609D02*
X39546741Y-43133609D01*
X39546741Y-43133609D02*
X39594360Y-43157419D01*
X39594360Y-43157419D02*
X39641979Y-43205038D01*
X39641979Y-43205038D02*
X39665789Y-43300276D01*
X39665789Y-43300276D02*
X39665789Y-43466942D01*
X39665789Y-43466942D02*
X39641979Y-43562180D01*
X39641979Y-43562180D02*
X39594360Y-43609800D01*
X39594360Y-43609800D02*
X39546741Y-43633609D01*
X39546741Y-43633609D02*
X39451503Y-43633609D01*
X39451503Y-43633609D02*
X39403884Y-43609800D01*
X39403884Y-43609800D02*
X39356265Y-43562180D01*
X39356265Y-43562180D02*
X39332456Y-43466942D01*
X39332456Y-43466942D02*
X39332456Y-43300276D01*
X39332456Y-43300276D02*
X39356265Y-43205038D01*
X39356265Y-43205038D02*
X39403884Y-43157419D01*
X39403884Y-43157419D02*
X39451503Y-43133609D01*
X39856266Y-43609800D02*
X39927694Y-43633609D01*
X39927694Y-43633609D02*
X40046742Y-43633609D01*
X40046742Y-43633609D02*
X40094361Y-43609800D01*
X40094361Y-43609800D02*
X40118170Y-43585990D01*
X40118170Y-43585990D02*
X40141980Y-43538371D01*
X40141980Y-43538371D02*
X40141980Y-43490752D01*
X40141980Y-43490752D02*
X40118170Y-43443133D01*
X40118170Y-43443133D02*
X40094361Y-43419323D01*
X40094361Y-43419323D02*
X40046742Y-43395514D01*
X40046742Y-43395514D02*
X39951504Y-43371704D01*
X39951504Y-43371704D02*
X39903885Y-43347895D01*
X39903885Y-43347895D02*
X39880075Y-43324085D01*
X39880075Y-43324085D02*
X39856266Y-43276466D01*
X39856266Y-43276466D02*
X39856266Y-43228847D01*
X39856266Y-43228847D02*
X39880075Y-43181228D01*
X39880075Y-43181228D02*
X39903885Y-43157419D01*
X39903885Y-43157419D02*
X39951504Y-43133609D01*
X39951504Y-43133609D02*
X40070551Y-43133609D01*
X40070551Y-43133609D02*
X40141980Y-43157419D01*
X40356265Y-43633609D02*
X40356265Y-43133609D01*
X114584836Y-43433609D02*
X114584836Y-42933609D01*
X114584836Y-42933609D02*
X114751503Y-43290752D01*
X114751503Y-43290752D02*
X114918169Y-42933609D01*
X114918169Y-42933609D02*
X114918169Y-43433609D01*
X115156265Y-43433609D02*
X115156265Y-42933609D01*
X115370551Y-43409800D02*
X115441979Y-43433609D01*
X115441979Y-43433609D02*
X115561027Y-43433609D01*
X115561027Y-43433609D02*
X115608646Y-43409800D01*
X115608646Y-43409800D02*
X115632455Y-43385990D01*
X115632455Y-43385990D02*
X115656265Y-43338371D01*
X115656265Y-43338371D02*
X115656265Y-43290752D01*
X115656265Y-43290752D02*
X115632455Y-43243133D01*
X115632455Y-43243133D02*
X115608646Y-43219323D01*
X115608646Y-43219323D02*
X115561027Y-43195514D01*
X115561027Y-43195514D02*
X115465789Y-43171704D01*
X115465789Y-43171704D02*
X115418170Y-43147895D01*
X115418170Y-43147895D02*
X115394360Y-43124085D01*
X115394360Y-43124085D02*
X115370551Y-43076466D01*
X115370551Y-43076466D02*
X115370551Y-43028847D01*
X115370551Y-43028847D02*
X115394360Y-42981228D01*
X115394360Y-42981228D02*
X115418170Y-42957419D01*
X115418170Y-42957419D02*
X115465789Y-42933609D01*
X115465789Y-42933609D02*
X115584836Y-42933609D01*
X115584836Y-42933609D02*
X115656265Y-42957419D01*
X115965788Y-42933609D02*
X116061026Y-42933609D01*
X116061026Y-42933609D02*
X116108645Y-42957419D01*
X116108645Y-42957419D02*
X116156264Y-43005038D01*
X116156264Y-43005038D02*
X116180074Y-43100276D01*
X116180074Y-43100276D02*
X116180074Y-43266942D01*
X116180074Y-43266942D02*
X116156264Y-43362180D01*
X116156264Y-43362180D02*
X116108645Y-43409800D01*
X116108645Y-43409800D02*
X116061026Y-43433609D01*
X116061026Y-43433609D02*
X115965788Y-43433609D01*
X115965788Y-43433609D02*
X115918169Y-43409800D01*
X115918169Y-43409800D02*
X115870550Y-43362180D01*
X115870550Y-43362180D02*
X115846741Y-43266942D01*
X115846741Y-43266942D02*
X115846741Y-43100276D01*
X115846741Y-43100276D02*
X115870550Y-43005038D01*
X115870550Y-43005038D02*
X115918169Y-42957419D01*
X115918169Y-42957419D02*
X115965788Y-42933609D01*
D10*
G36*
X90766565Y-35076871D02*
G01*
X90797892Y-35107115D01*
X90833350Y-35175972D01*
X90834335Y-35283604D01*
X90801155Y-35351985D01*
X90770910Y-35383313D01*
X90702222Y-35418684D01*
X90576071Y-35419144D01*
X90573249Y-35418646D01*
X90570915Y-35419162D01*
X90410997Y-35419745D01*
X90410464Y-35044550D01*
X90697798Y-35043503D01*
X90766565Y-35076871D01*
G37*
G36*
X94711925Y-36155930D02*
G01*
X90150668Y-36155930D01*
X90150668Y-34969819D01*
X90261779Y-34969819D01*
X90263220Y-35984451D01*
X90274419Y-36011487D01*
X90295111Y-36032179D01*
X90322147Y-36043378D01*
X90351411Y-36043378D01*
X90378447Y-36032179D01*
X90399139Y-36011487D01*
X90410338Y-35984451D01*
X90411779Y-35969819D01*
X90411208Y-35568356D01*
X90535431Y-35567904D01*
X90856336Y-36023989D01*
X90881015Y-36039716D01*
X90909832Y-36044802D01*
X90938403Y-36038472D01*
X90962377Y-36021690D01*
X90978104Y-35997012D01*
X90983189Y-35968194D01*
X90976860Y-35939623D01*
X90969650Y-35926810D01*
X90716793Y-35567439D01*
X90719691Y-35567233D01*
X90732363Y-35567187D01*
X90734852Y-35566155D01*
X90737540Y-35565965D01*
X90751272Y-35560710D01*
X90845828Y-35512017D01*
X90854637Y-35508369D01*
X90857539Y-35505986D01*
X90858953Y-35505259D01*
X90860252Y-35503760D01*
X90866002Y-35499042D01*
X90913343Y-35450006D01*
X90919838Y-35444374D01*
X90921817Y-35441228D01*
X90922948Y-35440058D01*
X90923705Y-35438230D01*
X90927670Y-35431931D01*
X90969345Y-35346041D01*
X90970567Y-35344820D01*
X90974236Y-35335960D01*
X90980544Y-35322962D01*
X90980735Y-35320272D01*
X90981766Y-35317784D01*
X90983207Y-35303152D01*
X90982002Y-35171521D01*
X90982618Y-35169675D01*
X90981892Y-35159460D01*
X90981766Y-35145663D01*
X90980735Y-35143174D01*
X90980544Y-35140485D01*
X90975289Y-35126754D01*
X90926597Y-35032199D01*
X90922948Y-35023389D01*
X90920565Y-35020486D01*
X90919838Y-35019073D01*
X90918339Y-35017773D01*
X90913621Y-35012024D01*
X90869906Y-34969819D01*
X91261779Y-34969819D01*
X91263220Y-35984451D01*
X91274419Y-36011487D01*
X91295111Y-36032179D01*
X91322147Y-36043378D01*
X91336779Y-36044819D01*
X91827601Y-36043378D01*
X91854637Y-36032179D01*
X91875329Y-36011487D01*
X91886528Y-35984451D01*
X91886528Y-35955187D01*
X91875329Y-35928151D01*
X91854637Y-35907459D01*
X91827601Y-35896260D01*
X91812969Y-35894819D01*
X91411674Y-35895997D01*
X91411141Y-35520701D01*
X91684744Y-35519568D01*
X91711780Y-35508369D01*
X91732472Y-35487677D01*
X91743671Y-35460641D01*
X91743671Y-35431377D01*
X91732472Y-35404341D01*
X91711780Y-35383649D01*
X91684744Y-35372450D01*
X91670112Y-35371009D01*
X91410930Y-35372082D01*
X91410629Y-35160295D01*
X92118922Y-35160295D01*
X92120027Y-35244601D01*
X92119511Y-35246152D01*
X92120169Y-35255421D01*
X92120363Y-35270165D01*
X92121394Y-35272654D01*
X92121585Y-35275342D01*
X92126840Y-35289074D01*
X92175532Y-35383630D01*
X92179181Y-35392439D01*
X92181563Y-35395341D01*
X92182291Y-35396755D01*
X92183789Y-35398054D01*
X92188508Y-35403804D01*
X92237543Y-35451145D01*
X92243176Y-35457640D01*
X92246321Y-35459619D01*
X92247492Y-35460750D01*
X92249319Y-35461507D01*
X92255619Y-35465472D01*
X92346851Y-35509740D01*
X92352362Y-35513823D01*
X92363377Y-35517758D01*
X92364588Y-35518346D01*
X92365128Y-35518384D01*
X92366208Y-35518770D01*
X92543691Y-35561854D01*
X92623708Y-35600680D01*
X92655035Y-35630924D01*
X92690557Y-35699905D01*
X92691346Y-35760066D01*
X92658298Y-35828175D01*
X92628052Y-35859504D01*
X92559302Y-35894907D01*
X92352521Y-35896086D01*
X92203302Y-35847789D01*
X92174112Y-35849864D01*
X92147939Y-35862950D01*
X92128765Y-35885057D01*
X92119511Y-35912820D01*
X92121586Y-35942010D01*
X92134672Y-35968183D01*
X92156779Y-35987357D01*
X92170205Y-35993351D01*
X92312786Y-36039500D01*
X92322147Y-36043378D01*
X92325910Y-36043748D01*
X92327398Y-36044230D01*
X92329372Y-36044089D01*
X92336779Y-36044819D01*
X92563383Y-36043526D01*
X92565493Y-36044230D01*
X92576435Y-36043452D01*
X92589506Y-36043378D01*
X92591995Y-36042346D01*
X92594683Y-36042156D01*
X92608415Y-36036901D01*
X92702969Y-35988209D01*
X92711780Y-35984560D01*
X92714682Y-35982177D01*
X92716096Y-35981450D01*
X92717396Y-35979950D01*
X92723146Y-35975232D01*
X92770487Y-35926195D01*
X92776981Y-35920564D01*
X92778960Y-35917418D01*
X92780092Y-35916247D01*
X92780849Y-35914417D01*
X92784813Y-35908121D01*
X92826488Y-35822231D01*
X92827710Y-35821010D01*
X92831379Y-35812150D01*
X92837687Y-35799152D01*
X92837878Y-35796462D01*
X92838909Y-35793974D01*
X92840350Y-35779342D01*
X92839244Y-35695034D01*
X92839761Y-35693484D01*
X92839102Y-35684213D01*
X92838909Y-35669472D01*
X92837878Y-35666983D01*
X92837687Y-35664294D01*
X92832432Y-35650563D01*
X92783740Y-35556008D01*
X92780091Y-35547198D01*
X92777708Y-35544295D01*
X92776981Y-35542882D01*
X92775482Y-35541582D01*
X92770764Y-35535833D01*
X92721728Y-35488491D01*
X92716096Y-35481997D01*
X92712950Y-35480017D01*
X92711780Y-35478887D01*
X92709952Y-35478129D01*
X92703653Y-35474165D01*
X92612421Y-35429898D01*
X92606910Y-35425814D01*
X92595890Y-35421876D01*
X92594683Y-35421291D01*
X92594143Y-35421252D01*
X92593064Y-35420867D01*
X92415580Y-35377782D01*
X92335564Y-35338957D01*
X92304236Y-35308712D01*
X92268714Y-35239731D01*
X92267925Y-35179570D01*
X92300974Y-35111460D01*
X92331218Y-35080133D01*
X92399969Y-35044730D01*
X92606750Y-35043551D01*
X92755969Y-35091849D01*
X92785159Y-35089774D01*
X92811333Y-35076688D01*
X92830507Y-35054580D01*
X92839761Y-35026818D01*
X92837686Y-34997628D01*
X92824599Y-34971455D01*
X92822713Y-34969819D01*
X93118922Y-34969819D01*
X93120363Y-35984451D01*
X93131562Y-36011487D01*
X93152254Y-36032179D01*
X93179290Y-36043378D01*
X93193922Y-36044819D01*
X93684744Y-36043378D01*
X93711780Y-36032179D01*
X93732472Y-36011487D01*
X93743671Y-35984451D01*
X93743671Y-35955187D01*
X93732472Y-35928151D01*
X93711780Y-35907459D01*
X93684744Y-35896260D01*
X93670112Y-35894819D01*
X93268817Y-35895997D01*
X93268284Y-35520701D01*
X93541887Y-35519568D01*
X93568923Y-35508369D01*
X93589615Y-35487677D01*
X93600814Y-35460641D01*
X93600814Y-35431377D01*
X93589615Y-35404341D01*
X93568923Y-35383649D01*
X93541887Y-35372450D01*
X93527255Y-35371009D01*
X93268073Y-35372082D01*
X93267607Y-35044602D01*
X93684744Y-35043378D01*
X93711780Y-35032179D01*
X93732472Y-35011487D01*
X93743671Y-34984451D01*
X93743671Y-34955187D01*
X93882268Y-34955187D01*
X93882268Y-34984451D01*
X93893467Y-35011487D01*
X93914159Y-35032179D01*
X93941195Y-35043378D01*
X93955827Y-35044819D01*
X94166646Y-35044300D01*
X94167982Y-35984451D01*
X94179181Y-36011487D01*
X94199873Y-36032179D01*
X94226909Y-36043378D01*
X94256173Y-36043378D01*
X94283209Y-36032179D01*
X94303901Y-36011487D01*
X94315100Y-35984451D01*
X94316541Y-35969819D01*
X94315226Y-35043935D01*
X94541887Y-35043378D01*
X94568923Y-35032179D01*
X94589615Y-35011487D01*
X94600814Y-34984451D01*
X94600814Y-34955187D01*
X94589615Y-34928151D01*
X94568923Y-34907459D01*
X94541887Y-34896260D01*
X94527255Y-34894819D01*
X93941195Y-34896260D01*
X93914159Y-34907459D01*
X93893467Y-34928151D01*
X93882268Y-34955187D01*
X93743671Y-34955187D01*
X93732472Y-34928151D01*
X93711780Y-34907459D01*
X93684744Y-34896260D01*
X93670112Y-34894819D01*
X93179290Y-34896260D01*
X93152254Y-34907459D01*
X93131562Y-34928151D01*
X93120363Y-34955187D01*
X93118922Y-34969819D01*
X92822713Y-34969819D01*
X92802492Y-34952281D01*
X92789067Y-34946287D01*
X92646488Y-34900138D01*
X92637125Y-34896260D01*
X92633359Y-34895889D01*
X92631873Y-34895408D01*
X92629898Y-34895548D01*
X92622493Y-34894819D01*
X92395887Y-34896111D01*
X92393778Y-34895408D01*
X92382835Y-34896185D01*
X92369766Y-34896260D01*
X92367277Y-34897290D01*
X92364588Y-34897482D01*
X92350857Y-34902737D01*
X92256302Y-34951428D01*
X92247492Y-34955078D01*
X92244589Y-34957460D01*
X92243176Y-34958188D01*
X92241876Y-34959686D01*
X92236127Y-34964405D01*
X92188785Y-35013440D01*
X92182291Y-35019073D01*
X92180311Y-35022218D01*
X92179181Y-35023389D01*
X92178423Y-35025216D01*
X92174459Y-35031516D01*
X92132784Y-35117404D01*
X92131562Y-35118627D01*
X92127889Y-35127492D01*
X92121585Y-35140486D01*
X92121394Y-35143173D01*
X92120363Y-35145663D01*
X92118922Y-35160295D01*
X91410629Y-35160295D01*
X91410464Y-35044602D01*
X91827601Y-35043378D01*
X91854637Y-35032179D01*
X91875329Y-35011487D01*
X91886528Y-34984451D01*
X91886528Y-34955187D01*
X91875329Y-34928151D01*
X91854637Y-34907459D01*
X91827601Y-34896260D01*
X91812969Y-34894819D01*
X91322147Y-34896260D01*
X91295111Y-34907459D01*
X91274419Y-34928151D01*
X91263220Y-34955187D01*
X91261779Y-34969819D01*
X90869906Y-34969819D01*
X90864585Y-34964682D01*
X90858953Y-34958188D01*
X90855807Y-34956208D01*
X90854637Y-34955078D01*
X90852809Y-34954320D01*
X90846510Y-34950356D01*
X90760621Y-34908681D01*
X90759399Y-34907459D01*
X90750533Y-34903786D01*
X90737540Y-34897482D01*
X90734852Y-34897291D01*
X90732363Y-34896260D01*
X90717731Y-34894819D01*
X90322147Y-34896260D01*
X90295111Y-34907459D01*
X90274419Y-34928151D01*
X90263220Y-34955187D01*
X90261779Y-34969819D01*
X90150668Y-34969819D01*
X90150668Y-34783708D01*
X94711925Y-34783708D01*
X94711925Y-36155930D01*
G37*
D11*
X39046741Y-40557419D02*
X38999122Y-40533609D01*
X38999122Y-40533609D02*
X38927693Y-40533609D01*
X38927693Y-40533609D02*
X38856265Y-40557419D01*
X38856265Y-40557419D02*
X38808646Y-40605038D01*
X38808646Y-40605038D02*
X38784836Y-40652657D01*
X38784836Y-40652657D02*
X38761027Y-40747895D01*
X38761027Y-40747895D02*
X38761027Y-40819323D01*
X38761027Y-40819323D02*
X38784836Y-40914561D01*
X38784836Y-40914561D02*
X38808646Y-40962180D01*
X38808646Y-40962180D02*
X38856265Y-41009800D01*
X38856265Y-41009800D02*
X38927693Y-41033609D01*
X38927693Y-41033609D02*
X38975312Y-41033609D01*
X38975312Y-41033609D02*
X39046741Y-41009800D01*
X39046741Y-41009800D02*
X39070550Y-40985990D01*
X39070550Y-40985990D02*
X39070550Y-40819323D01*
X39070550Y-40819323D02*
X38975312Y-40819323D01*
X39284836Y-41033609D02*
X39284836Y-40533609D01*
X39284836Y-40533609D02*
X39570550Y-41033609D01*
X39570550Y-41033609D02*
X39570550Y-40533609D01*
X39808646Y-41033609D02*
X39808646Y-40533609D01*
X39808646Y-40533609D02*
X39927694Y-40533609D01*
X39927694Y-40533609D02*
X39999122Y-40557419D01*
X39999122Y-40557419D02*
X40046741Y-40605038D01*
X40046741Y-40605038D02*
X40070551Y-40652657D01*
X40070551Y-40652657D02*
X40094360Y-40747895D01*
X40094360Y-40747895D02*
X40094360Y-40819323D01*
X40094360Y-40819323D02*
X40070551Y-40914561D01*
X40070551Y-40914561D02*
X40046741Y-40962180D01*
X40046741Y-40962180D02*
X39999122Y-41009800D01*
X39999122Y-41009800D02*
X39927694Y-41033609D01*
X39927694Y-41033609D02*
X39808646Y-41033609D01*
X80534966Y-71397544D02*
X80568300Y-71430877D01*
X80568300Y-71430877D02*
X80601633Y-71530877D01*
X80601633Y-71530877D02*
X80601633Y-71597544D01*
X80601633Y-71597544D02*
X80568300Y-71697544D01*
X80568300Y-71697544D02*
X80501633Y-71764211D01*
X80501633Y-71764211D02*
X80434966Y-71797544D01*
X80434966Y-71797544D02*
X80301633Y-71830877D01*
X80301633Y-71830877D02*
X80201633Y-71830877D01*
X80201633Y-71830877D02*
X80068300Y-71797544D01*
X80068300Y-71797544D02*
X80001633Y-71764211D01*
X80001633Y-71764211D02*
X79934966Y-71697544D01*
X79934966Y-71697544D02*
X79901633Y-71597544D01*
X79901633Y-71597544D02*
X79901633Y-71530877D01*
X79901633Y-71530877D02*
X79934966Y-71430877D01*
X79934966Y-71430877D02*
X79968300Y-71397544D01*
X80601633Y-70764211D02*
X80601633Y-71097544D01*
X80601633Y-71097544D02*
X79901633Y-71097544D01*
X80601633Y-70530877D02*
X79901633Y-70530877D01*
X80601633Y-70130877D02*
X80201633Y-70430877D01*
X79901633Y-70130877D02*
X80301633Y-70530877D01*
X38811027Y-42309800D02*
X38882455Y-42333609D01*
X38882455Y-42333609D02*
X39001503Y-42333609D01*
X39001503Y-42333609D02*
X39049122Y-42309800D01*
X39049122Y-42309800D02*
X39072931Y-42285990D01*
X39072931Y-42285990D02*
X39096741Y-42238371D01*
X39096741Y-42238371D02*
X39096741Y-42190752D01*
X39096741Y-42190752D02*
X39072931Y-42143133D01*
X39072931Y-42143133D02*
X39049122Y-42119323D01*
X39049122Y-42119323D02*
X39001503Y-42095514D01*
X39001503Y-42095514D02*
X38906265Y-42071704D01*
X38906265Y-42071704D02*
X38858646Y-42047895D01*
X38858646Y-42047895D02*
X38834836Y-42024085D01*
X38834836Y-42024085D02*
X38811027Y-41976466D01*
X38811027Y-41976466D02*
X38811027Y-41928847D01*
X38811027Y-41928847D02*
X38834836Y-41881228D01*
X38834836Y-41881228D02*
X38858646Y-41857419D01*
X38858646Y-41857419D02*
X38906265Y-41833609D01*
X38906265Y-41833609D02*
X39025312Y-41833609D01*
X39025312Y-41833609D02*
X39096741Y-41857419D01*
X39596740Y-42285990D02*
X39572931Y-42309800D01*
X39572931Y-42309800D02*
X39501502Y-42333609D01*
X39501502Y-42333609D02*
X39453883Y-42333609D01*
X39453883Y-42333609D02*
X39382455Y-42309800D01*
X39382455Y-42309800D02*
X39334836Y-42262180D01*
X39334836Y-42262180D02*
X39311026Y-42214561D01*
X39311026Y-42214561D02*
X39287217Y-42119323D01*
X39287217Y-42119323D02*
X39287217Y-42047895D01*
X39287217Y-42047895D02*
X39311026Y-41952657D01*
X39311026Y-41952657D02*
X39334836Y-41905038D01*
X39334836Y-41905038D02*
X39382455Y-41857419D01*
X39382455Y-41857419D02*
X39453883Y-41833609D01*
X39453883Y-41833609D02*
X39501502Y-41833609D01*
X39501502Y-41833609D02*
X39572931Y-41857419D01*
X39572931Y-41857419D02*
X39596740Y-41881228D01*
X39811026Y-42333609D02*
X39811026Y-41833609D01*
X40096740Y-42333609D02*
X39882455Y-42047895D01*
X40096740Y-41833609D02*
X39811026Y-42119323D01*
X94233609Y-38529449D02*
X93995514Y-38696115D01*
X94233609Y-38815163D02*
X93733609Y-38815163D01*
X93733609Y-38815163D02*
X93733609Y-38624687D01*
X93733609Y-38624687D02*
X93757419Y-38577068D01*
X93757419Y-38577068D02*
X93781228Y-38553258D01*
X93781228Y-38553258D02*
X93828847Y-38529449D01*
X93828847Y-38529449D02*
X93900276Y-38529449D01*
X93900276Y-38529449D02*
X93947895Y-38553258D01*
X93947895Y-38553258D02*
X93971704Y-38577068D01*
X93971704Y-38577068D02*
X93995514Y-38624687D01*
X93995514Y-38624687D02*
X93995514Y-38815163D01*
X93733609Y-38362782D02*
X94233609Y-38029449D01*
X93733609Y-38029449D02*
X94233609Y-38362782D01*
D10*
X43736779Y-42469819D02*
X43736779Y-41469819D01*
X43736779Y-41469819D02*
X44117731Y-41469819D01*
X44117731Y-41469819D02*
X44212969Y-41517438D01*
X44212969Y-41517438D02*
X44260588Y-41565057D01*
X44260588Y-41565057D02*
X44308207Y-41660295D01*
X44308207Y-41660295D02*
X44308207Y-41803152D01*
X44308207Y-41803152D02*
X44260588Y-41898390D01*
X44260588Y-41898390D02*
X44212969Y-41946009D01*
X44212969Y-41946009D02*
X44117731Y-41993628D01*
X44117731Y-41993628D02*
X43736779Y-41993628D01*
X45260588Y-41517438D02*
X45165350Y-41469819D01*
X45165350Y-41469819D02*
X45022493Y-41469819D01*
X45022493Y-41469819D02*
X44879636Y-41517438D01*
X44879636Y-41517438D02*
X44784398Y-41612676D01*
X44784398Y-41612676D02*
X44736779Y-41707914D01*
X44736779Y-41707914D02*
X44689160Y-41898390D01*
X44689160Y-41898390D02*
X44689160Y-42041247D01*
X44689160Y-42041247D02*
X44736779Y-42231723D01*
X44736779Y-42231723D02*
X44784398Y-42326961D01*
X44784398Y-42326961D02*
X44879636Y-42422200D01*
X44879636Y-42422200D02*
X45022493Y-42469819D01*
X45022493Y-42469819D02*
X45117731Y-42469819D01*
X45117731Y-42469819D02*
X45260588Y-42422200D01*
X45260588Y-42422200D02*
X45308207Y-42374580D01*
X45308207Y-42374580D02*
X45308207Y-42041247D01*
X45308207Y-42041247D02*
X45117731Y-42041247D01*
X45736779Y-42469819D02*
X45736779Y-41469819D01*
X45736779Y-41469819D02*
X46308207Y-42469819D01*
X46308207Y-42469819D02*
X46308207Y-41469819D01*
X46784398Y-42469819D02*
X46784398Y-41469819D01*
X46784398Y-41469819D02*
X47022493Y-41469819D01*
X47022493Y-41469819D02*
X47165350Y-41517438D01*
X47165350Y-41517438D02*
X47260588Y-41612676D01*
X47260588Y-41612676D02*
X47308207Y-41707914D01*
X47308207Y-41707914D02*
X47355826Y-41898390D01*
X47355826Y-41898390D02*
X47355826Y-42041247D01*
X47355826Y-42041247D02*
X47308207Y-42231723D01*
X47308207Y-42231723D02*
X47260588Y-42326961D01*
X47260588Y-42326961D02*
X47165350Y-42422200D01*
X47165350Y-42422200D02*
X47022493Y-42469819D01*
X47022493Y-42469819D02*
X46784398Y-42469819D01*
D11*
X93157419Y-44153258D02*
X93133609Y-44200877D01*
X93133609Y-44200877D02*
X93133609Y-44272306D01*
X93133609Y-44272306D02*
X93157419Y-44343734D01*
X93157419Y-44343734D02*
X93205038Y-44391353D01*
X93205038Y-44391353D02*
X93252657Y-44415163D01*
X93252657Y-44415163D02*
X93347895Y-44438972D01*
X93347895Y-44438972D02*
X93419323Y-44438972D01*
X93419323Y-44438972D02*
X93514561Y-44415163D01*
X93514561Y-44415163D02*
X93562180Y-44391353D01*
X93562180Y-44391353D02*
X93609800Y-44343734D01*
X93609800Y-44343734D02*
X93633609Y-44272306D01*
X93633609Y-44272306D02*
X93633609Y-44224687D01*
X93633609Y-44224687D02*
X93609800Y-44153258D01*
X93609800Y-44153258D02*
X93585990Y-44129449D01*
X93585990Y-44129449D02*
X93419323Y-44129449D01*
X93419323Y-44129449D02*
X93419323Y-44224687D01*
X93633609Y-43915163D02*
X93133609Y-43915163D01*
X93133609Y-43915163D02*
X93633609Y-43629449D01*
X93633609Y-43629449D02*
X93133609Y-43629449D01*
X93633609Y-43391353D02*
X93133609Y-43391353D01*
X93133609Y-43391353D02*
X93133609Y-43272305D01*
X93133609Y-43272305D02*
X93157419Y-43200877D01*
X93157419Y-43200877D02*
X93205038Y-43153258D01*
X93205038Y-43153258D02*
X93252657Y-43129448D01*
X93252657Y-43129448D02*
X93347895Y-43105639D01*
X93347895Y-43105639D02*
X93419323Y-43105639D01*
X93419323Y-43105639D02*
X93514561Y-43129448D01*
X93514561Y-43129448D02*
X93562180Y-43153258D01*
X93562180Y-43153258D02*
X93609800Y-43200877D01*
X93609800Y-43200877D02*
X93633609Y-43272305D01*
X93633609Y-43272305D02*
X93633609Y-43391353D01*
X38784836Y-42983609D02*
X38784836Y-42483609D01*
X38784836Y-42483609D02*
X38951503Y-42840752D01*
X38951503Y-42840752D02*
X39118169Y-42483609D01*
X39118169Y-42483609D02*
X39118169Y-42983609D01*
X39356265Y-42983609D02*
X39356265Y-42483609D01*
X39570551Y-42959800D02*
X39641979Y-42983609D01*
X39641979Y-42983609D02*
X39761027Y-42983609D01*
X39761027Y-42983609D02*
X39808646Y-42959800D01*
X39808646Y-42959800D02*
X39832455Y-42935990D01*
X39832455Y-42935990D02*
X39856265Y-42888371D01*
X39856265Y-42888371D02*
X39856265Y-42840752D01*
X39856265Y-42840752D02*
X39832455Y-42793133D01*
X39832455Y-42793133D02*
X39808646Y-42769323D01*
X39808646Y-42769323D02*
X39761027Y-42745514D01*
X39761027Y-42745514D02*
X39665789Y-42721704D01*
X39665789Y-42721704D02*
X39618170Y-42697895D01*
X39618170Y-42697895D02*
X39594360Y-42674085D01*
X39594360Y-42674085D02*
X39570551Y-42626466D01*
X39570551Y-42626466D02*
X39570551Y-42578847D01*
X39570551Y-42578847D02*
X39594360Y-42531228D01*
X39594360Y-42531228D02*
X39618170Y-42507419D01*
X39618170Y-42507419D02*
X39665789Y-42483609D01*
X39665789Y-42483609D02*
X39784836Y-42483609D01*
X39784836Y-42483609D02*
X39856265Y-42507419D01*
X40165788Y-42483609D02*
X40261026Y-42483609D01*
X40261026Y-42483609D02*
X40308645Y-42507419D01*
X40308645Y-42507419D02*
X40356264Y-42555038D01*
X40356264Y-42555038D02*
X40380074Y-42650276D01*
X40380074Y-42650276D02*
X40380074Y-42816942D01*
X40380074Y-42816942D02*
X40356264Y-42912180D01*
X40356264Y-42912180D02*
X40308645Y-42959800D01*
X40308645Y-42959800D02*
X40261026Y-42983609D01*
X40261026Y-42983609D02*
X40165788Y-42983609D01*
X40165788Y-42983609D02*
X40118169Y-42959800D01*
X40118169Y-42959800D02*
X40070550Y-42912180D01*
X40070550Y-42912180D02*
X40046741Y-42816942D01*
X40046741Y-42816942D02*
X40046741Y-42650276D01*
X40046741Y-42650276D02*
X40070550Y-42555038D01*
X40070550Y-42555038D02*
X40118169Y-42507419D01*
X40118169Y-42507419D02*
X40165788Y-42483609D01*
D10*
X50428571Y-48014700D02*
X51571429Y-48014700D01*
X51000000Y-48586128D02*
X51000000Y-47443271D01*
X63428571Y-48014700D02*
X64571429Y-48014700D01*
D12*
%TO.C,TP7*%
X87300000Y-53600000D02*
G75*
G02*
X85900000Y-53600000I-700000J0D01*
G01*
X85900000Y-53600000D02*
G75*
G02*
X87300000Y-53600000I700000J0D01*
G01*
%TO.C,TP13*%
X93900000Y-60700000D02*
G75*
G02*
X92500000Y-60700000I-700000J0D01*
G01*
X92500000Y-60700000D02*
G75*
G02*
X93900000Y-60700000I700000J0D01*
G01*
D13*
%TO.C,J2*%
X86925000Y-67000000D02*
X86925000Y-68869000D01*
X88119000Y-67000000D02*
X86925000Y-67000000D01*
X88300000Y-71300000D02*
X93900000Y-71300000D01*
X89081000Y-67000000D02*
X89119000Y-67000000D01*
X90081000Y-67000000D02*
X90119000Y-67000000D01*
X91081000Y-67000000D02*
X91119000Y-67000000D01*
X92081000Y-67000000D02*
X92119000Y-67000000D01*
X93081000Y-67000000D02*
X93119000Y-67000000D01*
X94081000Y-67000000D02*
X95275000Y-67000000D01*
X95275000Y-67027000D02*
X95275000Y-68882000D01*
D12*
X88076000Y-66773000D02*
X87568000Y-66773000D01*
X87822000Y-66392000D01*
X88076000Y-66773000D01*
G36*
X88076000Y-66773000D02*
G01*
X87568000Y-66773000D01*
X87822000Y-66392000D01*
X88076000Y-66773000D01*
G37*
D13*
%TO.C,RV1*%
X101544000Y-31404000D02*
X102052000Y-31404000D01*
X101544000Y-31912000D02*
X101544000Y-31404000D01*
X101544000Y-35976000D02*
X101544000Y-31912000D01*
X101544000Y-38516000D02*
X101544000Y-35468000D01*
X102052000Y-31404000D02*
X102052000Y-31912000D01*
X102052000Y-31912000D02*
X103068000Y-31912000D01*
X103068000Y-31404000D02*
X104592000Y-31404000D01*
X103068000Y-31912000D02*
X103068000Y-31404000D01*
X104084000Y-34960000D02*
X106116000Y-34960000D01*
X104592000Y-31404000D02*
X104592000Y-31912000D01*
X104592000Y-31912000D02*
X105608000Y-31912000D01*
X105100000Y-33944000D02*
X105100000Y-35976000D01*
X105608000Y-31404000D02*
X107132000Y-31404000D01*
X105608000Y-31912000D02*
X105608000Y-31404000D01*
X107132000Y-31404000D02*
X107132000Y-31912000D01*
X107132000Y-31912000D02*
X108148000Y-31912000D01*
X108148000Y-31404000D02*
X108656000Y-31404000D01*
X108148000Y-31912000D02*
X108148000Y-31404000D01*
X108656000Y-31404000D02*
X108656000Y-31912000D01*
X108656000Y-31912000D02*
X108656000Y-35468000D01*
X108656000Y-35468000D02*
X108656000Y-38516000D01*
X108656000Y-38516000D02*
X101544000Y-38516000D01*
X105080000Y-36095000D02*
G75*
G02*
X105100304Y-36094997I10000J1135000D01*
G01*
X107637000Y-37881000D02*
G75*
G02*
X107639534Y-37881024I1987J76000D01*
G01*
D12*
%TO.C,TP1*%
X36686500Y-59143500D02*
X38086500Y-59143500D01*
X36686500Y-60543500D02*
X36686500Y-59143500D01*
X38086500Y-59143500D02*
X38086500Y-60543500D01*
X38086500Y-60543500D02*
X36686500Y-60543500D01*
%TO.C,TP23*%
X83200000Y-36300000D02*
G75*
G02*
X81800000Y-36300000I-700000J0D01*
G01*
X81800000Y-36300000D02*
G75*
G02*
X83200000Y-36300000I700000J0D01*
G01*
D13*
%TO.C,CN2*%
X117171500Y-58123500D02*
X119090500Y-58123500D01*
X117171500Y-59222500D02*
X117171500Y-58123500D01*
X117171500Y-62184500D02*
X117171500Y-63283500D01*
X117171500Y-63283500D02*
X119090500Y-63283500D01*
X121870500Y-61977500D02*
X121870500Y-59429500D01*
D12*
X116790500Y-62648500D02*
X116282500Y-62648500D01*
X116536500Y-62267500D01*
X116790500Y-62648500D01*
G36*
X116790500Y-62648500D02*
G01*
X116282500Y-62648500D01*
X116536500Y-62267500D01*
X116790500Y-62648500D01*
G37*
D14*
%TO.C,P1*%
X89437000Y-40099000D02*
X89437000Y-42099000D01*
X91854000Y-40099000D02*
X92607000Y-40099000D01*
X91854000Y-42099000D02*
X92107000Y-42099000D01*
X92867000Y-42099000D02*
X93107000Y-42099000D01*
X93367000Y-40099000D02*
X93607000Y-40099000D01*
X93867000Y-42099000D02*
X94619000Y-42099000D01*
X94367000Y-40099000D02*
X94619000Y-40099000D01*
X97037000Y-42099000D02*
X97037000Y-40099000D01*
D12*
%TO.C,TP25*%
X85000000Y-37500000D02*
G75*
G02*
X83600000Y-37500000I-700000J0D01*
G01*
X83600000Y-37500000D02*
G75*
G02*
X85000000Y-37500000I700000J0D01*
G01*
%TO.C,TP35*%
X89300000Y-38900000D02*
G75*
G02*
X87900000Y-38900000I-700000J0D01*
G01*
X87900000Y-38900000D02*
G75*
G02*
X89300000Y-38900000I700000J0D01*
G01*
%TO.C,TP19*%
X76800000Y-62700000D02*
G75*
G02*
X75400000Y-62700000I-700000J0D01*
G01*
X75400000Y-62700000D02*
G75*
G02*
X76800000Y-62700000I700000J0D01*
G01*
%TO.C,TP27*%
X49500000Y-51200000D02*
G75*
G02*
X48100000Y-51200000I-700000J0D01*
G01*
X48100000Y-51200000D02*
G75*
G02*
X49500000Y-51200000I700000J0D01*
G01*
D13*
%TO.C,U4*%
X120977000Y-38906000D02*
X122137000Y-38906000D01*
X122137000Y-38906000D02*
X122137000Y-47894000D01*
X122137000Y-47894000D02*
X120977000Y-47894000D01*
D12*
X116883000Y-40565000D02*
X116960000Y-40588000D01*
X117031000Y-40626000D01*
X117094000Y-40677000D01*
X117145000Y-40740000D01*
X117183000Y-40811000D01*
X117206000Y-40888000D01*
X117214000Y-40968000D01*
X117206000Y-41048000D01*
X117183000Y-41125000D01*
X117145000Y-41196000D01*
X117094000Y-41259000D01*
X117031000Y-41310000D01*
X116960000Y-41348000D01*
X116883000Y-41371000D01*
X116803000Y-41379000D01*
X116723000Y-41371000D01*
X116646000Y-41348000D01*
X116575000Y-41310000D01*
X116512000Y-41259000D01*
X116461000Y-41196000D01*
X116423000Y-41125000D01*
X116400000Y-41048000D01*
X116392000Y-40968000D01*
X116400000Y-40888000D01*
X116423000Y-40811000D01*
X116461000Y-40740000D01*
X116512000Y-40677000D01*
X116575000Y-40626000D01*
X116646000Y-40588000D01*
X116723000Y-40565000D01*
X116803000Y-40557000D01*
X116883000Y-40565000D01*
G36*
X116883000Y-40565000D02*
G01*
X116960000Y-40588000D01*
X117031000Y-40626000D01*
X117094000Y-40677000D01*
X117145000Y-40740000D01*
X117183000Y-40811000D01*
X117206000Y-40888000D01*
X117214000Y-40968000D01*
X117206000Y-41048000D01*
X117183000Y-41125000D01*
X117145000Y-41196000D01*
X117094000Y-41259000D01*
X117031000Y-41310000D01*
X116960000Y-41348000D01*
X116883000Y-41371000D01*
X116803000Y-41379000D01*
X116723000Y-41371000D01*
X116646000Y-41348000D01*
X116575000Y-41310000D01*
X116512000Y-41259000D01*
X116461000Y-41196000D01*
X116423000Y-41125000D01*
X116400000Y-41048000D01*
X116392000Y-40968000D01*
X116400000Y-40888000D01*
X116423000Y-40811000D01*
X116461000Y-40740000D01*
X116512000Y-40677000D01*
X116575000Y-40626000D01*
X116646000Y-40588000D01*
X116723000Y-40565000D01*
X116803000Y-40557000D01*
X116883000Y-40565000D01*
G37*
%TO.C,TP3*%
X36666500Y-55733500D02*
X38066500Y-55733500D01*
X36666500Y-57133500D02*
X36666500Y-55733500D01*
X38066500Y-55733500D02*
X38066500Y-57133500D01*
X38066500Y-57133500D02*
X36666500Y-57133500D01*
%TO.C,TP14*%
X63900000Y-52200000D02*
G75*
G02*
X62500000Y-52200000I-700000J0D01*
G01*
X62500000Y-52200000D02*
G75*
G02*
X63900000Y-52200000I700000J0D01*
G01*
%TO.C,TP30*%
X72200000Y-49700000D02*
G75*
G02*
X70800000Y-49700000I-700000J0D01*
G01*
X70800000Y-49700000D02*
G75*
G02*
X72200000Y-49700000I700000J0D01*
G01*
%TO.C,TP11*%
X86100000Y-56400000D02*
G75*
G02*
X84700000Y-56400000I-700000J0D01*
G01*
X84700000Y-56400000D02*
G75*
G02*
X86100000Y-56400000I700000J0D01*
G01*
%TO.C,TP9*%
X107300000Y-69000000D02*
G75*
G02*
X105900000Y-69000000I-700000J0D01*
G01*
X105900000Y-69000000D02*
G75*
G02*
X107300000Y-69000000I700000J0D01*
G01*
%TO.C,TP21*%
X49100000Y-42800000D02*
G75*
G02*
X47700000Y-42800000I-700000J0D01*
G01*
X47700000Y-42800000D02*
G75*
G02*
X49100000Y-42800000I700000J0D01*
G01*
%TO.C,TP29*%
X107700000Y-48400000D02*
G75*
G02*
X106300000Y-48400000I-700000J0D01*
G01*
X106300000Y-48400000D02*
G75*
G02*
X107700000Y-48400000I700000J0D01*
G01*
%TO.C,TP5*%
X117820000Y-59990000D02*
X119220000Y-59990000D01*
X117820000Y-61390000D02*
X117820000Y-59990000D01*
X119220000Y-59990000D02*
X119220000Y-61390000D01*
X119220000Y-61390000D02*
X117820000Y-61390000D01*
%TO.C,TP2*%
X34566500Y-57433500D02*
X35966500Y-57433500D01*
X34566500Y-58833500D02*
X34566500Y-57433500D01*
X35966500Y-57433500D02*
X35966500Y-58833500D01*
X35966500Y-58833500D02*
X34566500Y-58833500D01*
%TO.C,TP20*%
X43900000Y-33000000D02*
G75*
G02*
X42500000Y-33000000I-700000J0D01*
G01*
X42500000Y-33000000D02*
G75*
G02*
X43900000Y-33000000I700000J0D01*
G01*
%TO.C,TP40*%
X75700000Y-59900000D02*
G75*
G02*
X74300000Y-59900000I-700000J0D01*
G01*
X74300000Y-59900000D02*
G75*
G02*
X75700000Y-59900000I700000J0D01*
G01*
%TO.C,TP16*%
X74500000Y-53200000D02*
G75*
G02*
X73100000Y-53200000I-700000J0D01*
G01*
X73100000Y-53200000D02*
G75*
G02*
X74500000Y-53200000I700000J0D01*
G01*
%TO.C,TP18*%
X85300000Y-63100000D02*
G75*
G02*
X83900000Y-63100000I-700000J0D01*
G01*
X83900000Y-63100000D02*
G75*
G02*
X85300000Y-63100000I700000J0D01*
G01*
%TO.C,TP17*%
X73800000Y-63100000D02*
G75*
G02*
X72400000Y-63100000I-700000J0D01*
G01*
X72400000Y-63100000D02*
G75*
G02*
X73800000Y-63100000I700000J0D01*
G01*
D14*
%TO.C,SW1*%
X90459000Y-31024000D02*
X90459000Y-31717000D01*
X90459000Y-34176000D02*
X90459000Y-33483000D01*
X94611000Y-31024000D02*
X90459000Y-31024000D01*
X94611000Y-31024000D02*
X94611000Y-31717000D01*
X94611000Y-34176000D02*
X90459000Y-34176000D01*
X94611000Y-34176000D02*
X94611000Y-33483000D01*
D13*
X93348000Y-32600000D02*
G75*
G02*
X91722000Y-32600000I-813000J0D01*
G01*
X91722000Y-32600000D02*
G75*
G02*
X93348000Y-32600000I813000J0D01*
G01*
D12*
%TO.C,TP24*%
X77300000Y-38200000D02*
G75*
G02*
X75900000Y-38200000I-700000J0D01*
G01*
X75900000Y-38200000D02*
G75*
G02*
X77300000Y-38200000I700000J0D01*
G01*
%TO.C,TP33*%
X94100000Y-45800000D02*
G75*
G02*
X92700000Y-45800000I-700000J0D01*
G01*
X92700000Y-45800000D02*
G75*
G02*
X94100000Y-45800000I700000J0D01*
G01*
%TO.C,TP8*%
X62900000Y-61600000D02*
G75*
G02*
X61500000Y-61600000I-700000J0D01*
G01*
X61500000Y-61600000D02*
G75*
G02*
X62900000Y-61600000I700000J0D01*
G01*
%TO.C,D12*%
X100250000Y-40050000D02*
X100250000Y-41200000D01*
X107550000Y-40050000D02*
X100250000Y-40050000D01*
X107550000Y-45550000D02*
X100250000Y-45550000D01*
D14*
%TO.C,SW2*%
X64724000Y-30824000D02*
X64724000Y-31517000D01*
X64724000Y-30824000D02*
X68876000Y-30824000D01*
X64724000Y-33976000D02*
X64724000Y-33283000D01*
X64724000Y-33976000D02*
X68876000Y-33976000D01*
X68876000Y-30824000D02*
X68876000Y-31517000D01*
X68876000Y-33976000D02*
X68876000Y-33283000D01*
D13*
X67613000Y-32400000D02*
G75*
G02*
X65987000Y-32400000I-813000J0D01*
G01*
X65987000Y-32400000D02*
G75*
G02*
X67613000Y-32400000I813000J0D01*
G01*
D12*
%TO.C,TP12*%
X95600000Y-62700000D02*
G75*
G02*
X94200000Y-62700000I-700000J0D01*
G01*
X94200000Y-62700000D02*
G75*
G02*
X95600000Y-62700000I700000J0D01*
G01*
%TO.C,TP10*%
X79300000Y-51900000D02*
G75*
G02*
X77900000Y-51900000I-700000J0D01*
G01*
X77900000Y-51900000D02*
G75*
G02*
X79300000Y-51900000I700000J0D01*
G01*
%TO.C,TP26*%
X108000000Y-55600000D02*
G75*
G02*
X106600000Y-55600000I-700000J0D01*
G01*
X106600000Y-55600000D02*
G75*
G02*
X108000000Y-55600000I700000J0D01*
G01*
%TO.C,TP15*%
X63600000Y-54400000D02*
G75*
G02*
X62200000Y-54400000I-700000J0D01*
G01*
X62200000Y-54400000D02*
G75*
G02*
X63600000Y-54400000I700000J0D01*
G01*
%TO.C,TP32*%
X72000000Y-45200000D02*
G75*
G02*
X70600000Y-45200000I-700000J0D01*
G01*
X70600000Y-45200000D02*
G75*
G02*
X72000000Y-45200000I700000J0D01*
G01*
%TO.C,TP28*%
X49100000Y-68200000D02*
G75*
G02*
X47700000Y-68200000I-700000J0D01*
G01*
X47700000Y-68200000D02*
G75*
G02*
X49100000Y-68200000I700000J0D01*
G01*
%TO.C,J1*%
X52290000Y-50610000D02*
X52290000Y-45190000D01*
X61010000Y-45190000D02*
X52290000Y-45190000D01*
X61010000Y-50610000D02*
X52290000Y-50610000D01*
X62710000Y-46490000D02*
X61010000Y-45190000D01*
X62710000Y-49310000D02*
X61010000Y-50610000D01*
X62710000Y-49310000D02*
X62710000Y-46490000D01*
%TO.C,TP4*%
X116340000Y-58300000D02*
X117740000Y-58300000D01*
X116340000Y-59700000D02*
X116340000Y-58300000D01*
X117740000Y-58300000D02*
X117740000Y-59700000D01*
X117740000Y-59700000D02*
X116340000Y-59700000D01*
D13*
%TO.C,CN1*%
X32586000Y-56826000D02*
X32586000Y-59374000D01*
X37285000Y-55520000D02*
X35366000Y-55520000D01*
X37285000Y-56619000D02*
X37285000Y-55520000D01*
X37285000Y-59581000D02*
X37285000Y-60680000D01*
X37285000Y-60680000D02*
X35366000Y-60680000D01*
D12*
X37920000Y-56536000D02*
X37666000Y-56155000D01*
X38174000Y-56155000D01*
X37920000Y-56536000D01*
G36*
X37920000Y-56536000D02*
G01*
X37666000Y-56155000D01*
X38174000Y-56155000D01*
X37920000Y-56536000D01*
G37*
%TO.C,TP34*%
X95100000Y-43100000D02*
G75*
G02*
X93700000Y-43100000I-700000J0D01*
G01*
X93700000Y-43100000D02*
G75*
G02*
X95100000Y-43100000I700000J0D01*
G01*
%TO.C,TP38*%
X71300000Y-33200000D02*
G75*
G02*
X69900000Y-33200000I-700000J0D01*
G01*
X69900000Y-33200000D02*
G75*
G02*
X71300000Y-33200000I700000J0D01*
G01*
D13*
%TO.C,U10*%
X32580000Y-37856000D02*
X33740000Y-37856000D01*
X32580000Y-46844000D02*
X32580000Y-37856000D01*
X33740000Y-46844000D02*
X32580000Y-46844000D01*
D12*
X37994000Y-44379000D02*
X38071000Y-44402000D01*
X38142000Y-44440000D01*
X38205000Y-44491000D01*
X38256000Y-44554000D01*
X38294000Y-44625000D01*
X38317000Y-44702000D01*
X38325000Y-44782000D01*
X38317000Y-44862000D01*
X38294000Y-44939000D01*
X38256000Y-45010000D01*
X38205000Y-45073000D01*
X38142000Y-45124000D01*
X38071000Y-45162000D01*
X37994000Y-45185000D01*
X37914000Y-45193000D01*
X37834000Y-45185000D01*
X37757000Y-45162000D01*
X37686000Y-45124000D01*
X37623000Y-45073000D01*
X37572000Y-45010000D01*
X37534000Y-44939000D01*
X37511000Y-44862000D01*
X37503000Y-44782000D01*
X37511000Y-44702000D01*
X37534000Y-44625000D01*
X37572000Y-44554000D01*
X37623000Y-44491000D01*
X37686000Y-44440000D01*
X37757000Y-44402000D01*
X37834000Y-44379000D01*
X37914000Y-44371000D01*
X37994000Y-44379000D01*
G36*
X37994000Y-44379000D02*
G01*
X38071000Y-44402000D01*
X38142000Y-44440000D01*
X38205000Y-44491000D01*
X38256000Y-44554000D01*
X38294000Y-44625000D01*
X38317000Y-44702000D01*
X38325000Y-44782000D01*
X38317000Y-44862000D01*
X38294000Y-44939000D01*
X38256000Y-45010000D01*
X38205000Y-45073000D01*
X38142000Y-45124000D01*
X38071000Y-45162000D01*
X37994000Y-45185000D01*
X37914000Y-45193000D01*
X37834000Y-45185000D01*
X37757000Y-45162000D01*
X37686000Y-45124000D01*
X37623000Y-45073000D01*
X37572000Y-45010000D01*
X37534000Y-44939000D01*
X37511000Y-44862000D01*
X37503000Y-44782000D01*
X37511000Y-44702000D01*
X37534000Y-44625000D01*
X37572000Y-44554000D01*
X37623000Y-44491000D01*
X37686000Y-44440000D01*
X37757000Y-44402000D01*
X37834000Y-44379000D01*
X37914000Y-44371000D01*
X37994000Y-44379000D01*
G37*
%TO.C,TP22*%
X111800000Y-32600000D02*
G75*
G02*
X110400000Y-32600000I-700000J0D01*
G01*
X110400000Y-32600000D02*
G75*
G02*
X111800000Y-32600000I700000J0D01*
G01*
%TO.C,TP6*%
X116290000Y-61700000D02*
X117690000Y-61700000D01*
X116290000Y-63100000D02*
X116290000Y-61700000D01*
X117690000Y-61700000D02*
X117690000Y-63100000D01*
X117690000Y-63100000D02*
X116290000Y-63100000D01*
%TO.C,TP31*%
X95500000Y-51000000D02*
G75*
G02*
X94100000Y-51000000I-700000J0D01*
G01*
X94100000Y-51000000D02*
G75*
G02*
X95500000Y-51000000I700000J0D01*
G01*
%TD*%
M02*
