%TF.GenerationSoftware,KiCad,Pcbnew,8.0.2*%
%TF.CreationDate,2024-07-12T01:17:03+08:00*%
%TF.ProjectId,bldcDriver,626c6463-4472-4697-9665-722e6b696361,rev?*%
%TF.SameCoordinates,Original*%
%TF.FileFunction,Paste,Bot*%
%TF.FilePolarity,Positive*%
%FSLAX46Y46*%
G04 Gerber Fmt 4.6, Leading zero omitted, Abs format (unit mm)*
G04 Created by KiCad (PCBNEW 8.0.2) date 2024-07-12 01:17:03*
%MOMM*%
%LPD*%
G01*
G04 APERTURE LIST*
G04 Aperture macros list*
%AMRoundRect*
0 Rectangle with rounded corners*
0 $1 Rounding radius*
0 $2 $3 $4 $5 $6 $7 $8 $9 X,Y pos of 4 corners*
0 Add a 4 corners polygon primitive as box body*
4,1,4,$2,$3,$4,$5,$6,$7,$8,$9,$2,$3,0*
0 Add four circle primitives for the rounded corners*
1,1,$1+$1,$2,$3*
1,1,$1+$1,$4,$5*
1,1,$1+$1,$6,$7*
1,1,$1+$1,$8,$9*
0 Add four rect primitives between the rounded corners*
20,1,$1+$1,$2,$3,$4,$5,0*
20,1,$1+$1,$4,$5,$6,$7,0*
20,1,$1+$1,$6,$7,$8,$9,0*
20,1,$1+$1,$8,$9,$2,$3,0*%
G04 Aperture macros list end*
%ADD10C,0.120000*%
%ADD11RoundRect,0.237500X0.237500X-0.250000X0.237500X0.250000X-0.237500X0.250000X-0.237500X-0.250000X0*%
%ADD12RoundRect,0.237500X-0.237500X0.300000X-0.237500X-0.300000X0.237500X-0.300000X0.237500X0.300000X0*%
%ADD13RoundRect,0.150000X0.825000X0.150000X-0.825000X0.150000X-0.825000X-0.150000X0.825000X-0.150000X0*%
%ADD14RoundRect,0.237500X-0.250000X-0.237500X0.250000X-0.237500X0.250000X0.237500X-0.250000X0.237500X0*%
%ADD15RoundRect,0.237500X0.250000X0.237500X-0.250000X0.237500X-0.250000X-0.237500X0.250000X-0.237500X0*%
%ADD16RoundRect,0.237500X-0.237500X0.250000X-0.237500X-0.250000X0.237500X-0.250000X0.237500X0.250000X0*%
%ADD17RoundRect,0.250000X0.650000X-0.412500X0.650000X0.412500X-0.650000X0.412500X-0.650000X-0.412500X0*%
%ADD18R,1.200000X1.400000*%
%ADD19RoundRect,0.237500X0.300000X0.237500X-0.300000X0.237500X-0.300000X-0.237500X0.300000X-0.237500X0*%
%ADD20R,0.700000X0.400000*%
%ADD21R,1.800000X2.480000*%
%ADD22RoundRect,0.237500X0.237500X-0.300000X0.237500X0.300000X-0.237500X0.300000X-0.237500X-0.300000X0*%
%ADD23RoundRect,0.225000X-0.225000X-0.375000X0.225000X-0.375000X0.225000X0.375000X-0.225000X0.375000X0*%
%ADD24RoundRect,0.250000X0.475000X-0.337500X0.475000X0.337500X-0.475000X0.337500X-0.475000X-0.337500X0*%
%ADD25RoundRect,0.225000X0.225000X0.375000X-0.225000X0.375000X-0.225000X-0.375000X0.225000X-0.375000X0*%
%ADD26RoundRect,0.250000X0.412500X0.650000X-0.412500X0.650000X-0.412500X-0.650000X0.412500X-0.650000X0*%
%ADD27RoundRect,0.237500X-0.300000X-0.237500X0.300000X-0.237500X0.300000X0.237500X-0.300000X0.237500X0*%
%ADD28R,0.203200X0.558800*%
%ADD29R,0.558800X0.203200*%
%ADD30R,1.600200X1.752600*%
%ADD31RoundRect,0.250000X-0.315000X0.315000X-0.315000X-0.315000X0.315000X-0.315000X0.315000X0.315000X0*%
%ADD32RoundRect,0.062500X-0.062500X0.375000X-0.062500X-0.375000X0.062500X-0.375000X0.062500X0.375000X0*%
%ADD33RoundRect,0.062500X-0.375000X0.062500X-0.375000X-0.062500X0.375000X-0.062500X0.375000X0.062500X0*%
%ADD34RoundRect,0.250000X-0.412500X-0.650000X0.412500X-0.650000X0.412500X0.650000X-0.412500X0.650000X0*%
%ADD35RoundRect,0.250000X-0.400000X-0.625000X0.400000X-0.625000X0.400000X0.625000X-0.400000X0.625000X0*%
%ADD36RoundRect,0.237500X0.287500X0.237500X-0.287500X0.237500X-0.287500X-0.237500X0.287500X-0.237500X0*%
%ADD37R,1.620000X2.046000*%
%ADD38RoundRect,0.250000X-0.625000X0.400000X-0.625000X-0.400000X0.625000X-0.400000X0.625000X0.400000X0*%
%ADD39RoundRect,0.250000X0.400000X0.625000X-0.400000X0.625000X-0.400000X-0.625000X0.400000X-0.625000X0*%
%ADD40R,3.900000X2.200000*%
%ADD41O,1.742000X0.364000*%
%ADD42R,1.400000X1.200000*%
%ADD43R,1.550000X0.600000*%
%ADD44R,2.600000X3.100000*%
G04 APERTURE END LIST*
D10*
%TO.C,Q11*%
X112332500Y-54654476D02*
X111632500Y-54654476D01*
X111632500Y-54254476D01*
X112332500Y-54254476D01*
X112332500Y-54654476D01*
G36*
X112332500Y-54654476D02*
G01*
X111632500Y-54654476D01*
X111632500Y-54254476D01*
X112332500Y-54254476D01*
X112332500Y-54654476D01*
G37*
X112332500Y-55304476D02*
X111632500Y-55304476D01*
X111632500Y-54904476D01*
X112332500Y-54904476D01*
X112332500Y-55304476D01*
G36*
X112332500Y-55304476D02*
G01*
X111632500Y-55304476D01*
X111632500Y-54904476D01*
X112332500Y-54904476D01*
X112332500Y-55304476D01*
G37*
X112332500Y-55954476D02*
X111632500Y-55954476D01*
X111632500Y-55554476D01*
X112332500Y-55554476D01*
X112332500Y-55954476D01*
G36*
X112332500Y-55954476D02*
G01*
X111632500Y-55954476D01*
X111632500Y-55554476D01*
X112332500Y-55554476D01*
X112332500Y-55954476D01*
G37*
X112332500Y-56604476D02*
X111632500Y-56604476D01*
X111632500Y-56204476D01*
X112332500Y-56204476D01*
X112332500Y-56604476D01*
G36*
X112332500Y-56604476D02*
G01*
X111632500Y-56604476D01*
X111632500Y-56204476D01*
X112332500Y-56204476D01*
X112332500Y-56604476D01*
G37*
X114652500Y-54254476D02*
X115302500Y-54254476D01*
X115302500Y-54654476D01*
X114652500Y-54654476D01*
X114652500Y-54904476D01*
X115302500Y-54904476D01*
X115302500Y-55304476D01*
X114652500Y-55304476D01*
X114652500Y-55554476D01*
X115302500Y-55554476D01*
X115302500Y-55954476D01*
X114652500Y-55954476D01*
X114652500Y-56204476D01*
X115302500Y-56204476D01*
X115302500Y-56604476D01*
X114652500Y-56604476D01*
X114652500Y-56669476D01*
X112852500Y-56669476D01*
X112852500Y-54189476D01*
X114652500Y-54189476D01*
X114652500Y-54254476D01*
G36*
X114652500Y-54254476D02*
G01*
X115302500Y-54254476D01*
X115302500Y-54654476D01*
X114652500Y-54654476D01*
X114652500Y-54904476D01*
X115302500Y-54904476D01*
X115302500Y-55304476D01*
X114652500Y-55304476D01*
X114652500Y-55554476D01*
X115302500Y-55554476D01*
X115302500Y-55954476D01*
X114652500Y-55954476D01*
X114652500Y-56204476D01*
X115302500Y-56204476D01*
X115302500Y-56604476D01*
X114652500Y-56604476D01*
X114652500Y-56669476D01*
X112852500Y-56669476D01*
X112852500Y-54189476D01*
X114652500Y-54189476D01*
X114652500Y-54254476D01*
G37*
%TO.C,Q9*%
X112080000Y-62025000D02*
X111380000Y-62025000D01*
X111380000Y-61625000D01*
X112080000Y-61625000D01*
X112080000Y-62025000D01*
G36*
X112080000Y-62025000D02*
G01*
X111380000Y-62025000D01*
X111380000Y-61625000D01*
X112080000Y-61625000D01*
X112080000Y-62025000D01*
G37*
X112080000Y-62675000D02*
X111380000Y-62675000D01*
X111380000Y-62275000D01*
X112080000Y-62275000D01*
X112080000Y-62675000D01*
G36*
X112080000Y-62675000D02*
G01*
X111380000Y-62675000D01*
X111380000Y-62275000D01*
X112080000Y-62275000D01*
X112080000Y-62675000D01*
G37*
X112080000Y-63325000D02*
X111380000Y-63325000D01*
X111380000Y-62925000D01*
X112080000Y-62925000D01*
X112080000Y-63325000D01*
G36*
X112080000Y-63325000D02*
G01*
X111380000Y-63325000D01*
X111380000Y-62925000D01*
X112080000Y-62925000D01*
X112080000Y-63325000D01*
G37*
X112080000Y-63975000D02*
X111380000Y-63975000D01*
X111380000Y-63575000D01*
X112080000Y-63575000D01*
X112080000Y-63975000D01*
G36*
X112080000Y-63975000D02*
G01*
X111380000Y-63975000D01*
X111380000Y-63575000D01*
X112080000Y-63575000D01*
X112080000Y-63975000D01*
G37*
X114400000Y-61625000D02*
X115050000Y-61625000D01*
X115050000Y-62025000D01*
X114400000Y-62025000D01*
X114400000Y-62275000D01*
X115050000Y-62275000D01*
X115050000Y-62675000D01*
X114400000Y-62675000D01*
X114400000Y-62925000D01*
X115050000Y-62925000D01*
X115050000Y-63325000D01*
X114400000Y-63325000D01*
X114400000Y-63575000D01*
X115050000Y-63575000D01*
X115050000Y-63975000D01*
X114400000Y-63975000D01*
X114400000Y-64040000D01*
X112600000Y-64040000D01*
X112600000Y-61560000D01*
X114400000Y-61560000D01*
X114400000Y-61625000D01*
G36*
X114400000Y-61625000D02*
G01*
X115050000Y-61625000D01*
X115050000Y-62025000D01*
X114400000Y-62025000D01*
X114400000Y-62275000D01*
X115050000Y-62275000D01*
X115050000Y-62675000D01*
X114400000Y-62675000D01*
X114400000Y-62925000D01*
X115050000Y-62925000D01*
X115050000Y-63325000D01*
X114400000Y-63325000D01*
X114400000Y-63575000D01*
X115050000Y-63575000D01*
X115050000Y-63975000D01*
X114400000Y-63975000D01*
X114400000Y-64040000D01*
X112600000Y-64040000D01*
X112600000Y-61560000D01*
X114400000Y-61560000D01*
X114400000Y-61625000D01*
G37*
%TO.C,Q8*%
X108182500Y-69546476D02*
X107482500Y-69546476D01*
X107482500Y-69146476D01*
X108182500Y-69146476D01*
X108182500Y-69546476D01*
G36*
X108182500Y-69546476D02*
G01*
X107482500Y-69546476D01*
X107482500Y-69146476D01*
X108182500Y-69146476D01*
X108182500Y-69546476D01*
G37*
X108182500Y-70196476D02*
X107482500Y-70196476D01*
X107482500Y-69796476D01*
X108182500Y-69796476D01*
X108182500Y-70196476D01*
G36*
X108182500Y-70196476D02*
G01*
X107482500Y-70196476D01*
X107482500Y-69796476D01*
X108182500Y-69796476D01*
X108182500Y-70196476D01*
G37*
X108182500Y-70846476D02*
X107482500Y-70846476D01*
X107482500Y-70446476D01*
X108182500Y-70446476D01*
X108182500Y-70846476D01*
G36*
X108182500Y-70846476D02*
G01*
X107482500Y-70846476D01*
X107482500Y-70446476D01*
X108182500Y-70446476D01*
X108182500Y-70846476D01*
G37*
X108182500Y-71496476D02*
X107482500Y-71496476D01*
X107482500Y-71096476D01*
X108182500Y-71096476D01*
X108182500Y-71496476D01*
G36*
X108182500Y-71496476D02*
G01*
X107482500Y-71496476D01*
X107482500Y-71096476D01*
X108182500Y-71096476D01*
X108182500Y-71496476D01*
G37*
X110502500Y-69146476D02*
X111152500Y-69146476D01*
X111152500Y-69546476D01*
X110502500Y-69546476D01*
X110502500Y-69796476D01*
X111152500Y-69796476D01*
X111152500Y-70196476D01*
X110502500Y-70196476D01*
X110502500Y-70446476D01*
X111152500Y-70446476D01*
X111152500Y-70846476D01*
X110502500Y-70846476D01*
X110502500Y-71096476D01*
X111152500Y-71096476D01*
X111152500Y-71496476D01*
X110502500Y-71496476D01*
X110502500Y-71561476D01*
X108702500Y-71561476D01*
X108702500Y-69081476D01*
X110502500Y-69081476D01*
X110502500Y-69146476D01*
G36*
X110502500Y-69146476D02*
G01*
X111152500Y-69146476D01*
X111152500Y-69546476D01*
X110502500Y-69546476D01*
X110502500Y-69796476D01*
X111152500Y-69796476D01*
X111152500Y-70196476D01*
X110502500Y-70196476D01*
X110502500Y-70446476D01*
X111152500Y-70446476D01*
X111152500Y-70846476D01*
X110502500Y-70846476D01*
X110502500Y-71096476D01*
X111152500Y-71096476D01*
X111152500Y-71496476D01*
X110502500Y-71496476D01*
X110502500Y-71561476D01*
X108702500Y-71561476D01*
X108702500Y-69081476D01*
X110502500Y-69081476D01*
X110502500Y-69146476D01*
G37*
%TO.C,Q13*%
X43103500Y-65600000D02*
X42403500Y-65600000D01*
X42403500Y-65200000D01*
X43103500Y-65200000D01*
X43103500Y-65600000D01*
G36*
X43103500Y-65600000D02*
G01*
X42403500Y-65600000D01*
X42403500Y-65200000D01*
X43103500Y-65200000D01*
X43103500Y-65600000D01*
G37*
X43103500Y-66250000D02*
X42403500Y-66250000D01*
X42403500Y-65850000D01*
X43103500Y-65850000D01*
X43103500Y-66250000D01*
G36*
X43103500Y-66250000D02*
G01*
X42403500Y-66250000D01*
X42403500Y-65850000D01*
X43103500Y-65850000D01*
X43103500Y-66250000D01*
G37*
X43103500Y-66900000D02*
X42403500Y-66900000D01*
X42403500Y-66500000D01*
X43103500Y-66500000D01*
X43103500Y-66900000D01*
G36*
X43103500Y-66900000D02*
G01*
X42403500Y-66900000D01*
X42403500Y-66500000D01*
X43103500Y-66500000D01*
X43103500Y-66900000D01*
G37*
X43103500Y-67550000D02*
X42403500Y-67550000D01*
X42403500Y-67150000D01*
X43103500Y-67150000D01*
X43103500Y-67550000D01*
G36*
X43103500Y-67550000D02*
G01*
X42403500Y-67550000D01*
X42403500Y-67150000D01*
X43103500Y-67150000D01*
X43103500Y-67550000D01*
G37*
X41883500Y-67615000D02*
X40083500Y-67615000D01*
X40083500Y-67550000D01*
X39433500Y-67550000D01*
X39433500Y-67150000D01*
X40083500Y-67150000D01*
X40083500Y-66900000D01*
X39433500Y-66900000D01*
X39433500Y-66500000D01*
X40083500Y-66500000D01*
X40083500Y-66250000D01*
X39433500Y-66250000D01*
X39433500Y-65850000D01*
X40083500Y-65850000D01*
X40083500Y-65600000D01*
X39433500Y-65600000D01*
X39433500Y-65200000D01*
X40083500Y-65200000D01*
X40083500Y-65135000D01*
X41883500Y-65135000D01*
X41883500Y-67615000D01*
G36*
X41883500Y-67615000D02*
G01*
X40083500Y-67615000D01*
X40083500Y-67550000D01*
X39433500Y-67550000D01*
X39433500Y-67150000D01*
X40083500Y-67150000D01*
X40083500Y-66900000D01*
X39433500Y-66900000D01*
X39433500Y-66500000D01*
X40083500Y-66500000D01*
X40083500Y-66250000D01*
X39433500Y-66250000D01*
X39433500Y-65850000D01*
X40083500Y-65850000D01*
X40083500Y-65600000D01*
X39433500Y-65600000D01*
X39433500Y-65200000D01*
X40083500Y-65200000D01*
X40083500Y-65135000D01*
X41883500Y-65135000D01*
X41883500Y-67615000D01*
G37*
%TO.C,Q14*%
X47370000Y-58115000D02*
X46670000Y-58115000D01*
X46670000Y-57715000D01*
X47370000Y-57715000D01*
X47370000Y-58115000D01*
G36*
X47370000Y-58115000D02*
G01*
X46670000Y-58115000D01*
X46670000Y-57715000D01*
X47370000Y-57715000D01*
X47370000Y-58115000D01*
G37*
X47370000Y-58765000D02*
X46670000Y-58765000D01*
X46670000Y-58365000D01*
X47370000Y-58365000D01*
X47370000Y-58765000D01*
G36*
X47370000Y-58765000D02*
G01*
X46670000Y-58765000D01*
X46670000Y-58365000D01*
X47370000Y-58365000D01*
X47370000Y-58765000D01*
G37*
X47370000Y-59415000D02*
X46670000Y-59415000D01*
X46670000Y-59015000D01*
X47370000Y-59015000D01*
X47370000Y-59415000D01*
G36*
X47370000Y-59415000D02*
G01*
X46670000Y-59415000D01*
X46670000Y-59015000D01*
X47370000Y-59015000D01*
X47370000Y-59415000D01*
G37*
X47370000Y-60065000D02*
X46670000Y-60065000D01*
X46670000Y-59665000D01*
X47370000Y-59665000D01*
X47370000Y-60065000D01*
G36*
X47370000Y-60065000D02*
G01*
X46670000Y-60065000D01*
X46670000Y-59665000D01*
X47370000Y-59665000D01*
X47370000Y-60065000D01*
G37*
X46150000Y-60130000D02*
X44350000Y-60130000D01*
X44350000Y-60065000D01*
X43700000Y-60065000D01*
X43700000Y-59665000D01*
X44350000Y-59665000D01*
X44350000Y-59415000D01*
X43700000Y-59415000D01*
X43700000Y-59015000D01*
X44350000Y-59015000D01*
X44350000Y-58765000D01*
X43700000Y-58765000D01*
X43700000Y-58365000D01*
X44350000Y-58365000D01*
X44350000Y-58115000D01*
X43700000Y-58115000D01*
X43700000Y-57715000D01*
X44350000Y-57715000D01*
X44350000Y-57650000D01*
X46150000Y-57650000D01*
X46150000Y-60130000D01*
G36*
X46150000Y-60130000D02*
G01*
X44350000Y-60130000D01*
X44350000Y-60065000D01*
X43700000Y-60065000D01*
X43700000Y-59665000D01*
X44350000Y-59665000D01*
X44350000Y-59415000D01*
X43700000Y-59415000D01*
X43700000Y-59015000D01*
X44350000Y-59015000D01*
X44350000Y-58765000D01*
X43700000Y-58765000D01*
X43700000Y-58365000D01*
X44350000Y-58365000D01*
X44350000Y-58115000D01*
X43700000Y-58115000D01*
X43700000Y-57715000D01*
X44350000Y-57715000D01*
X44350000Y-57650000D01*
X46150000Y-57650000D01*
X46150000Y-60130000D01*
G37*
%TO.C,Q15*%
X43540000Y-50625714D02*
X42840000Y-50625714D01*
X42840000Y-50225714D01*
X43540000Y-50225714D01*
X43540000Y-50625714D01*
G36*
X43540000Y-50625714D02*
G01*
X42840000Y-50625714D01*
X42840000Y-50225714D01*
X43540000Y-50225714D01*
X43540000Y-50625714D01*
G37*
X43540000Y-51275714D02*
X42840000Y-51275714D01*
X42840000Y-50875714D01*
X43540000Y-50875714D01*
X43540000Y-51275714D01*
G36*
X43540000Y-51275714D02*
G01*
X42840000Y-51275714D01*
X42840000Y-50875714D01*
X43540000Y-50875714D01*
X43540000Y-51275714D01*
G37*
X43540000Y-51925714D02*
X42840000Y-51925714D01*
X42840000Y-51525714D01*
X43540000Y-51525714D01*
X43540000Y-51925714D01*
G36*
X43540000Y-51925714D02*
G01*
X42840000Y-51925714D01*
X42840000Y-51525714D01*
X43540000Y-51525714D01*
X43540000Y-51925714D01*
G37*
X43540000Y-52575714D02*
X42840000Y-52575714D01*
X42840000Y-52175714D01*
X43540000Y-52175714D01*
X43540000Y-52575714D01*
G36*
X43540000Y-52575714D02*
G01*
X42840000Y-52575714D01*
X42840000Y-52175714D01*
X43540000Y-52175714D01*
X43540000Y-52575714D01*
G37*
X42320000Y-52640714D02*
X40520000Y-52640714D01*
X40520000Y-52575714D01*
X39870000Y-52575714D01*
X39870000Y-52175714D01*
X40520000Y-52175714D01*
X40520000Y-51925714D01*
X39870000Y-51925714D01*
X39870000Y-51525714D01*
X40520000Y-51525714D01*
X40520000Y-51275714D01*
X39870000Y-51275714D01*
X39870000Y-50875714D01*
X40520000Y-50875714D01*
X40520000Y-50625714D01*
X39870000Y-50625714D01*
X39870000Y-50225714D01*
X40520000Y-50225714D01*
X40520000Y-50160714D01*
X42320000Y-50160714D01*
X42320000Y-52640714D01*
G36*
X42320000Y-52640714D02*
G01*
X40520000Y-52640714D01*
X40520000Y-52575714D01*
X39870000Y-52575714D01*
X39870000Y-52175714D01*
X40520000Y-52175714D01*
X40520000Y-51925714D01*
X39870000Y-51925714D01*
X39870000Y-51525714D01*
X40520000Y-51525714D01*
X40520000Y-51275714D01*
X39870000Y-51275714D01*
X39870000Y-50875714D01*
X40520000Y-50875714D01*
X40520000Y-50625714D01*
X39870000Y-50625714D01*
X39870000Y-50225714D01*
X40520000Y-50225714D01*
X40520000Y-50160714D01*
X42320000Y-50160714D01*
X42320000Y-52640714D01*
G37*
%TO.C,Q1*%
X47252500Y-65600000D02*
X46552500Y-65600000D01*
X46552500Y-65200000D01*
X47252500Y-65200000D01*
X47252500Y-65600000D01*
G36*
X47252500Y-65600000D02*
G01*
X46552500Y-65600000D01*
X46552500Y-65200000D01*
X47252500Y-65200000D01*
X47252500Y-65600000D01*
G37*
X47252500Y-66250000D02*
X46552500Y-66250000D01*
X46552500Y-65850000D01*
X47252500Y-65850000D01*
X47252500Y-66250000D01*
G36*
X47252500Y-66250000D02*
G01*
X46552500Y-66250000D01*
X46552500Y-65850000D01*
X47252500Y-65850000D01*
X47252500Y-66250000D01*
G37*
X47252500Y-66900000D02*
X46552500Y-66900000D01*
X46552500Y-66500000D01*
X47252500Y-66500000D01*
X47252500Y-66900000D01*
G36*
X47252500Y-66900000D02*
G01*
X46552500Y-66900000D01*
X46552500Y-66500000D01*
X47252500Y-66500000D01*
X47252500Y-66900000D01*
G37*
X47252500Y-67550000D02*
X46552500Y-67550000D01*
X46552500Y-67150000D01*
X47252500Y-67150000D01*
X47252500Y-67550000D01*
G36*
X47252500Y-67550000D02*
G01*
X46552500Y-67550000D01*
X46552500Y-67150000D01*
X47252500Y-67150000D01*
X47252500Y-67550000D01*
G37*
X46032500Y-67615000D02*
X44232500Y-67615000D01*
X44232500Y-67550000D01*
X43582500Y-67550000D01*
X43582500Y-67150000D01*
X44232500Y-67150000D01*
X44232500Y-66900000D01*
X43582500Y-66900000D01*
X43582500Y-66500000D01*
X44232500Y-66500000D01*
X44232500Y-66250000D01*
X43582500Y-66250000D01*
X43582500Y-65850000D01*
X44232500Y-65850000D01*
X44232500Y-65600000D01*
X43582500Y-65600000D01*
X43582500Y-65200000D01*
X44232500Y-65200000D01*
X44232500Y-65135000D01*
X46032500Y-65135000D01*
X46032500Y-67615000D01*
G36*
X46032500Y-67615000D02*
G01*
X44232500Y-67615000D01*
X44232500Y-67550000D01*
X43582500Y-67550000D01*
X43582500Y-67150000D01*
X44232500Y-67150000D01*
X44232500Y-66900000D01*
X43582500Y-66900000D01*
X43582500Y-66500000D01*
X44232500Y-66500000D01*
X44232500Y-66250000D01*
X43582500Y-66250000D01*
X43582500Y-65850000D01*
X44232500Y-65850000D01*
X44232500Y-65600000D01*
X43582500Y-65600000D01*
X43582500Y-65200000D01*
X44232500Y-65200000D01*
X44232500Y-65135000D01*
X46032500Y-65135000D01*
X46032500Y-67615000D01*
G37*
%TO.C,Q7*%
X112311500Y-69531476D02*
X111611500Y-69531476D01*
X111611500Y-69131476D01*
X112311500Y-69131476D01*
X112311500Y-69531476D01*
G36*
X112311500Y-69531476D02*
G01*
X111611500Y-69531476D01*
X111611500Y-69131476D01*
X112311500Y-69131476D01*
X112311500Y-69531476D01*
G37*
X112311500Y-70181476D02*
X111611500Y-70181476D01*
X111611500Y-69781476D01*
X112311500Y-69781476D01*
X112311500Y-70181476D01*
G36*
X112311500Y-70181476D02*
G01*
X111611500Y-70181476D01*
X111611500Y-69781476D01*
X112311500Y-69781476D01*
X112311500Y-70181476D01*
G37*
X112311500Y-70831476D02*
X111611500Y-70831476D01*
X111611500Y-70431476D01*
X112311500Y-70431476D01*
X112311500Y-70831476D01*
G36*
X112311500Y-70831476D02*
G01*
X111611500Y-70831476D01*
X111611500Y-70431476D01*
X112311500Y-70431476D01*
X112311500Y-70831476D01*
G37*
X112311500Y-71481476D02*
X111611500Y-71481476D01*
X111611500Y-71081476D01*
X112311500Y-71081476D01*
X112311500Y-71481476D01*
G36*
X112311500Y-71481476D02*
G01*
X111611500Y-71481476D01*
X111611500Y-71081476D01*
X112311500Y-71081476D01*
X112311500Y-71481476D01*
G37*
X114631500Y-69131476D02*
X115281500Y-69131476D01*
X115281500Y-69531476D01*
X114631500Y-69531476D01*
X114631500Y-69781476D01*
X115281500Y-69781476D01*
X115281500Y-70181476D01*
X114631500Y-70181476D01*
X114631500Y-70431476D01*
X115281500Y-70431476D01*
X115281500Y-70831476D01*
X114631500Y-70831476D01*
X114631500Y-71081476D01*
X115281500Y-71081476D01*
X115281500Y-71481476D01*
X114631500Y-71481476D01*
X114631500Y-71546476D01*
X112831500Y-71546476D01*
X112831500Y-69066476D01*
X114631500Y-69066476D01*
X114631500Y-69131476D01*
G36*
X114631500Y-69131476D02*
G01*
X115281500Y-69131476D01*
X115281500Y-69531476D01*
X114631500Y-69531476D01*
X114631500Y-69781476D01*
X115281500Y-69781476D01*
X115281500Y-70181476D01*
X114631500Y-70181476D01*
X114631500Y-70431476D01*
X115281500Y-70431476D01*
X115281500Y-70831476D01*
X114631500Y-70831476D01*
X114631500Y-71081476D01*
X115281500Y-71081476D01*
X115281500Y-71481476D01*
X114631500Y-71481476D01*
X114631500Y-71546476D01*
X112831500Y-71546476D01*
X112831500Y-69066476D01*
X114631500Y-69066476D01*
X114631500Y-69131476D01*
G37*
%TO.C,Q12*%
X108242500Y-54681476D02*
X107542500Y-54681476D01*
X107542500Y-54281476D01*
X108242500Y-54281476D01*
X108242500Y-54681476D01*
G36*
X108242500Y-54681476D02*
G01*
X107542500Y-54681476D01*
X107542500Y-54281476D01*
X108242500Y-54281476D01*
X108242500Y-54681476D01*
G37*
X108242500Y-55331476D02*
X107542500Y-55331476D01*
X107542500Y-54931476D01*
X108242500Y-54931476D01*
X108242500Y-55331476D01*
G36*
X108242500Y-55331476D02*
G01*
X107542500Y-55331476D01*
X107542500Y-54931476D01*
X108242500Y-54931476D01*
X108242500Y-55331476D01*
G37*
X108242500Y-55981476D02*
X107542500Y-55981476D01*
X107542500Y-55581476D01*
X108242500Y-55581476D01*
X108242500Y-55981476D01*
G36*
X108242500Y-55981476D02*
G01*
X107542500Y-55981476D01*
X107542500Y-55581476D01*
X108242500Y-55581476D01*
X108242500Y-55981476D01*
G37*
X108242500Y-56631476D02*
X107542500Y-56631476D01*
X107542500Y-56231476D01*
X108242500Y-56231476D01*
X108242500Y-56631476D01*
G36*
X108242500Y-56631476D02*
G01*
X107542500Y-56631476D01*
X107542500Y-56231476D01*
X108242500Y-56231476D01*
X108242500Y-56631476D01*
G37*
X110562500Y-54281476D02*
X111212500Y-54281476D01*
X111212500Y-54681476D01*
X110562500Y-54681476D01*
X110562500Y-54931476D01*
X111212500Y-54931476D01*
X111212500Y-55331476D01*
X110562500Y-55331476D01*
X110562500Y-55581476D01*
X111212500Y-55581476D01*
X111212500Y-55981476D01*
X110562500Y-55981476D01*
X110562500Y-56231476D01*
X111212500Y-56231476D01*
X111212500Y-56631476D01*
X110562500Y-56631476D01*
X110562500Y-56696476D01*
X108762500Y-56696476D01*
X108762500Y-54216476D01*
X110562500Y-54216476D01*
X110562500Y-54281476D01*
G36*
X110562500Y-54281476D02*
G01*
X111212500Y-54281476D01*
X111212500Y-54681476D01*
X110562500Y-54681476D01*
X110562500Y-54931476D01*
X111212500Y-54931476D01*
X111212500Y-55331476D01*
X110562500Y-55331476D01*
X110562500Y-55581476D01*
X111212500Y-55581476D01*
X111212500Y-55981476D01*
X110562500Y-55981476D01*
X110562500Y-56231476D01*
X111212500Y-56231476D01*
X111212500Y-56631476D01*
X110562500Y-56631476D01*
X110562500Y-56696476D01*
X108762500Y-56696476D01*
X108762500Y-54216476D01*
X110562500Y-54216476D01*
X110562500Y-54281476D01*
G37*
%TO.C,Q16*%
X47649000Y-50635000D02*
X46949000Y-50635000D01*
X46949000Y-50235000D01*
X47649000Y-50235000D01*
X47649000Y-50635000D01*
G36*
X47649000Y-50635000D02*
G01*
X46949000Y-50635000D01*
X46949000Y-50235000D01*
X47649000Y-50235000D01*
X47649000Y-50635000D01*
G37*
X47649000Y-51285000D02*
X46949000Y-51285000D01*
X46949000Y-50885000D01*
X47649000Y-50885000D01*
X47649000Y-51285000D01*
G36*
X47649000Y-51285000D02*
G01*
X46949000Y-51285000D01*
X46949000Y-50885000D01*
X47649000Y-50885000D01*
X47649000Y-51285000D01*
G37*
X47649000Y-51935000D02*
X46949000Y-51935000D01*
X46949000Y-51535000D01*
X47649000Y-51535000D01*
X47649000Y-51935000D01*
G36*
X47649000Y-51935000D02*
G01*
X46949000Y-51935000D01*
X46949000Y-51535000D01*
X47649000Y-51535000D01*
X47649000Y-51935000D01*
G37*
X47649000Y-52585000D02*
X46949000Y-52585000D01*
X46949000Y-52185000D01*
X47649000Y-52185000D01*
X47649000Y-52585000D01*
G36*
X47649000Y-52585000D02*
G01*
X46949000Y-52585000D01*
X46949000Y-52185000D01*
X47649000Y-52185000D01*
X47649000Y-52585000D01*
G37*
X46429000Y-52650000D02*
X44629000Y-52650000D01*
X44629000Y-52585000D01*
X43979000Y-52585000D01*
X43979000Y-52185000D01*
X44629000Y-52185000D01*
X44629000Y-51935000D01*
X43979000Y-51935000D01*
X43979000Y-51535000D01*
X44629000Y-51535000D01*
X44629000Y-51285000D01*
X43979000Y-51285000D01*
X43979000Y-50885000D01*
X44629000Y-50885000D01*
X44629000Y-50635000D01*
X43979000Y-50635000D01*
X43979000Y-50235000D01*
X44629000Y-50235000D01*
X44629000Y-50170000D01*
X46429000Y-50170000D01*
X46429000Y-52650000D01*
G36*
X46429000Y-52650000D02*
G01*
X44629000Y-52650000D01*
X44629000Y-52585000D01*
X43979000Y-52585000D01*
X43979000Y-52185000D01*
X44629000Y-52185000D01*
X44629000Y-51935000D01*
X43979000Y-51935000D01*
X43979000Y-51535000D01*
X44629000Y-51535000D01*
X44629000Y-51285000D01*
X43979000Y-51285000D01*
X43979000Y-50885000D01*
X44629000Y-50885000D01*
X44629000Y-50635000D01*
X43979000Y-50635000D01*
X43979000Y-50235000D01*
X44629000Y-50235000D01*
X44629000Y-50170000D01*
X46429000Y-50170000D01*
X46429000Y-52650000D01*
G37*
%TO.C,Q10*%
X107950000Y-62091476D02*
X107250000Y-62091476D01*
X107250000Y-61691476D01*
X107950000Y-61691476D01*
X107950000Y-62091476D01*
G36*
X107950000Y-62091476D02*
G01*
X107250000Y-62091476D01*
X107250000Y-61691476D01*
X107950000Y-61691476D01*
X107950000Y-62091476D01*
G37*
X107950000Y-62741476D02*
X107250000Y-62741476D01*
X107250000Y-62341476D01*
X107950000Y-62341476D01*
X107950000Y-62741476D01*
G36*
X107950000Y-62741476D02*
G01*
X107250000Y-62741476D01*
X107250000Y-62341476D01*
X107950000Y-62341476D01*
X107950000Y-62741476D01*
G37*
X107950000Y-63391476D02*
X107250000Y-63391476D01*
X107250000Y-62991476D01*
X107950000Y-62991476D01*
X107950000Y-63391476D01*
G36*
X107950000Y-63391476D02*
G01*
X107250000Y-63391476D01*
X107250000Y-62991476D01*
X107950000Y-62991476D01*
X107950000Y-63391476D01*
G37*
X107950000Y-64041476D02*
X107250000Y-64041476D01*
X107250000Y-63641476D01*
X107950000Y-63641476D01*
X107950000Y-64041476D01*
G36*
X107950000Y-64041476D02*
G01*
X107250000Y-64041476D01*
X107250000Y-63641476D01*
X107950000Y-63641476D01*
X107950000Y-64041476D01*
G37*
X110270000Y-61691476D02*
X110920000Y-61691476D01*
X110920000Y-62091476D01*
X110270000Y-62091476D01*
X110270000Y-62341476D01*
X110920000Y-62341476D01*
X110920000Y-62741476D01*
X110270000Y-62741476D01*
X110270000Y-62991476D01*
X110920000Y-62991476D01*
X110920000Y-63391476D01*
X110270000Y-63391476D01*
X110270000Y-63641476D01*
X110920000Y-63641476D01*
X110920000Y-64041476D01*
X110270000Y-64041476D01*
X110270000Y-64106476D01*
X108470000Y-64106476D01*
X108470000Y-61626476D01*
X110270000Y-61626476D01*
X110270000Y-61691476D01*
G36*
X110270000Y-61691476D02*
G01*
X110920000Y-61691476D01*
X110920000Y-62091476D01*
X110270000Y-62091476D01*
X110270000Y-62341476D01*
X110920000Y-62341476D01*
X110920000Y-62741476D01*
X110270000Y-62741476D01*
X110270000Y-62991476D01*
X110920000Y-62991476D01*
X110920000Y-63391476D01*
X110270000Y-63391476D01*
X110270000Y-63641476D01*
X110920000Y-63641476D01*
X110920000Y-64041476D01*
X110270000Y-64041476D01*
X110270000Y-64106476D01*
X108470000Y-64106476D01*
X108470000Y-61626476D01*
X110270000Y-61626476D01*
X110270000Y-61691476D01*
G37*
%TO.C,Q2*%
X43220000Y-58055000D02*
X42520000Y-58055000D01*
X42520000Y-57655000D01*
X43220000Y-57655000D01*
X43220000Y-58055000D01*
G36*
X43220000Y-58055000D02*
G01*
X42520000Y-58055000D01*
X42520000Y-57655000D01*
X43220000Y-57655000D01*
X43220000Y-58055000D01*
G37*
X43220000Y-58705000D02*
X42520000Y-58705000D01*
X42520000Y-58305000D01*
X43220000Y-58305000D01*
X43220000Y-58705000D01*
G36*
X43220000Y-58705000D02*
G01*
X42520000Y-58705000D01*
X42520000Y-58305000D01*
X43220000Y-58305000D01*
X43220000Y-58705000D01*
G37*
X43220000Y-59355000D02*
X42520000Y-59355000D01*
X42520000Y-58955000D01*
X43220000Y-58955000D01*
X43220000Y-59355000D01*
G36*
X43220000Y-59355000D02*
G01*
X42520000Y-59355000D01*
X42520000Y-58955000D01*
X43220000Y-58955000D01*
X43220000Y-59355000D01*
G37*
X43220000Y-60005000D02*
X42520000Y-60005000D01*
X42520000Y-59605000D01*
X43220000Y-59605000D01*
X43220000Y-60005000D01*
G36*
X43220000Y-60005000D02*
G01*
X42520000Y-60005000D01*
X42520000Y-59605000D01*
X43220000Y-59605000D01*
X43220000Y-60005000D01*
G37*
X42000000Y-60070000D02*
X40200000Y-60070000D01*
X40200000Y-60005000D01*
X39550000Y-60005000D01*
X39550000Y-59605000D01*
X40200000Y-59605000D01*
X40200000Y-59355000D01*
X39550000Y-59355000D01*
X39550000Y-58955000D01*
X40200000Y-58955000D01*
X40200000Y-58705000D01*
X39550000Y-58705000D01*
X39550000Y-58305000D01*
X40200000Y-58305000D01*
X40200000Y-58055000D01*
X39550000Y-58055000D01*
X39550000Y-57655000D01*
X40200000Y-57655000D01*
X40200000Y-57590000D01*
X42000000Y-57590000D01*
X42000000Y-60070000D01*
G36*
X42000000Y-60070000D02*
G01*
X40200000Y-60070000D01*
X40200000Y-60005000D01*
X39550000Y-60005000D01*
X39550000Y-59605000D01*
X40200000Y-59605000D01*
X40200000Y-59355000D01*
X39550000Y-59355000D01*
X39550000Y-58955000D01*
X40200000Y-58955000D01*
X40200000Y-58705000D01*
X39550000Y-58705000D01*
X39550000Y-58305000D01*
X40200000Y-58305000D01*
X40200000Y-58055000D01*
X39550000Y-58055000D01*
X39550000Y-57655000D01*
X40200000Y-57655000D01*
X40200000Y-57590000D01*
X42000000Y-57590000D01*
X42000000Y-60070000D01*
G37*
%TD*%
D11*
%TO.C,R20*%
X88500000Y-66225000D03*
X88500000Y-64400000D03*
%TD*%
D12*
%TO.C,C9*%
X85030000Y-59400000D03*
X85030000Y-61125000D03*
%TD*%
D13*
%TO.C,U8*%
X74575000Y-57395000D03*
X74575000Y-58665000D03*
X74575000Y-59935000D03*
X74575000Y-61205000D03*
X69625000Y-61205000D03*
X69625000Y-59935000D03*
X69625000Y-58665000D03*
X69625000Y-57395000D03*
%TD*%
D14*
%TO.C,R2*%
X61978500Y-43054000D03*
X63803500Y-43054000D03*
%TD*%
D15*
%TO.C,R23*%
X53642500Y-68190000D03*
X51817500Y-68190000D03*
%TD*%
D16*
%TO.C,R3*%
X43281000Y-33016500D03*
X43281000Y-34841500D03*
%TD*%
D11*
%TO.C,R54*%
X68593750Y-55406250D03*
X68593750Y-53581250D03*
%TD*%
D17*
%TO.C,C6*%
X49341000Y-36366500D03*
X49341000Y-33241500D03*
%TD*%
D18*
%TO.C,D2*%
X98500000Y-66665000D03*
X98500000Y-70135000D03*
%TD*%
D19*
%TO.C,C18*%
X80862500Y-54050000D03*
X79137500Y-54050000D03*
%TD*%
D14*
%TO.C,R8*%
X40890000Y-68900000D03*
X42715000Y-68900000D03*
%TD*%
D20*
%TO.C,Q11*%
X111982500Y-56404476D03*
X111982500Y-55754476D03*
X111982500Y-55104476D03*
X111982500Y-54454476D03*
X114952500Y-54454476D03*
X114952500Y-55104476D03*
X114952500Y-55754476D03*
X114952500Y-56404476D03*
D21*
X113752500Y-55429476D03*
%TD*%
D15*
%TO.C,R17*%
X114265000Y-53071476D03*
X112440000Y-53071476D03*
%TD*%
D22*
%TO.C,C4*%
X61991000Y-39116500D03*
X61991000Y-37391500D03*
%TD*%
D19*
%TO.C,C41*%
X77900000Y-62900000D03*
X76175000Y-62900000D03*
%TD*%
D20*
%TO.C,Q9*%
X111730000Y-63775000D03*
X111730000Y-63125000D03*
X111730000Y-62475000D03*
X111730000Y-61825000D03*
X114700000Y-61825000D03*
X114700000Y-62475000D03*
X114700000Y-63125000D03*
X114700000Y-63775000D03*
D21*
X113500000Y-62800000D03*
%TD*%
D12*
%TO.C,C29*%
X53500000Y-54637500D03*
X53500000Y-56362500D03*
%TD*%
D20*
%TO.C,Q8*%
X107832500Y-71296476D03*
X107832500Y-70646476D03*
X107832500Y-69996476D03*
X107832500Y-69346476D03*
X110802500Y-69346476D03*
X110802500Y-69996476D03*
X110802500Y-70646476D03*
X110802500Y-71296476D03*
D21*
X109602500Y-70321476D03*
%TD*%
D14*
%TO.C,R4*%
X40807500Y-61300000D03*
X42632500Y-61300000D03*
%TD*%
D20*
%TO.C,Q13*%
X42753500Y-65400000D03*
X42753500Y-66050000D03*
X42753500Y-66700000D03*
X42753500Y-67350000D03*
X39783500Y-67350000D03*
X39783500Y-66700000D03*
X39783500Y-66050000D03*
X39783500Y-65400000D03*
D21*
X40983500Y-66375000D03*
%TD*%
D14*
%TO.C,R19*%
X44867500Y-53910000D03*
X46692500Y-53910000D03*
%TD*%
D23*
%TO.C,D22*%
X44372500Y-63350000D03*
X47672500Y-63350000D03*
%TD*%
D22*
%TO.C,C68*%
X85400000Y-43325000D03*
X85400000Y-41600000D03*
%TD*%
D19*
%TO.C,C35*%
X51822500Y-54510000D03*
X50097500Y-54510000D03*
%TD*%
D24*
%TO.C,C2*%
X48691000Y-42791500D03*
X48691000Y-40716500D03*
%TD*%
D25*
%TO.C,D19*%
X110250000Y-58471476D03*
X106950000Y-58471476D03*
%TD*%
D12*
%TO.C,C30*%
X50000000Y-58375000D03*
X50000000Y-60100000D03*
%TD*%
D16*
%TO.C,R30*%
X87000000Y-67775000D03*
X87000000Y-69600000D03*
%TD*%
D15*
%TO.C,R37*%
X74050000Y-62900000D03*
X72225000Y-62900000D03*
%TD*%
D22*
%TO.C,C50*%
X44841000Y-34816500D03*
X44841000Y-33091500D03*
%TD*%
D20*
%TO.C,Q14*%
X47020000Y-57915000D03*
X47020000Y-58565000D03*
X47020000Y-59215000D03*
X47020000Y-59865000D03*
X44050000Y-59865000D03*
X44050000Y-59215000D03*
X44050000Y-58565000D03*
X44050000Y-57915000D03*
D21*
X45250000Y-58890000D03*
%TD*%
D19*
%TO.C,C42*%
X63862500Y-61700000D03*
X62137500Y-61700000D03*
%TD*%
D13*
%TO.C,U6*%
X84975000Y-64460000D03*
X84975000Y-65730000D03*
X84975000Y-67000000D03*
X84975000Y-68270000D03*
X80025000Y-68270000D03*
X80025000Y-67000000D03*
X80025000Y-65730000D03*
X80025000Y-64460000D03*
%TD*%
D16*
%TO.C,R45*%
X78000000Y-69187500D03*
X78000000Y-71012500D03*
%TD*%
D26*
%TO.C,C33*%
X120662500Y-65500000D03*
X117537500Y-65500000D03*
%TD*%
D20*
%TO.C,Q15*%
X43190000Y-50425714D03*
X43190000Y-51075714D03*
X43190000Y-51725714D03*
X43190000Y-52375714D03*
X40220000Y-52375714D03*
X40220000Y-51725714D03*
X40220000Y-51075714D03*
X40220000Y-50425714D03*
D21*
X41420000Y-51400714D03*
%TD*%
D20*
%TO.C,Q1*%
X46902500Y-65400000D03*
X46902500Y-66050000D03*
X46902500Y-66700000D03*
X46902500Y-67350000D03*
X43932500Y-67350000D03*
X43932500Y-66700000D03*
X43932500Y-66050000D03*
X43932500Y-65400000D03*
D21*
X45132500Y-66375000D03*
%TD*%
D27*
%TO.C,C27*%
X68875000Y-62900000D03*
X70600000Y-62900000D03*
%TD*%
D28*
%TO.C,U9*%
X78300001Y-37273201D03*
X77899999Y-37273201D03*
X77500000Y-37273201D03*
X77100000Y-37273201D03*
X76700001Y-37273201D03*
X76299999Y-37273201D03*
D29*
X75826800Y-36800002D03*
X75826800Y-36400000D03*
X75826800Y-36000001D03*
X75826800Y-35600001D03*
X75826800Y-35200002D03*
X75826800Y-34800000D03*
D28*
X76299999Y-34326801D03*
X76700001Y-34326801D03*
X77100000Y-34326801D03*
X77500000Y-34326801D03*
X77899999Y-34326801D03*
X78300001Y-34326801D03*
D29*
X78773200Y-34800000D03*
X78773200Y-35200002D03*
X78773200Y-35600001D03*
X78773200Y-36000001D03*
X78773200Y-36400000D03*
X78773200Y-36800002D03*
D30*
X77300000Y-35800001D03*
%TD*%
D13*
%TO.C,U7*%
X70887500Y-64500000D03*
X70887500Y-65770000D03*
X70887500Y-67040000D03*
X70887500Y-68310000D03*
X65937500Y-68310000D03*
X65937500Y-67040000D03*
X65937500Y-65770000D03*
X65937500Y-64500000D03*
%TD*%
D19*
%TO.C,C47*%
X74762500Y-55600000D03*
X73037500Y-55600000D03*
%TD*%
D31*
%TO.C,U5*%
X85200000Y-47000000D03*
X83800000Y-47000000D03*
X82400000Y-47000000D03*
X81000000Y-47000000D03*
X85200000Y-48400000D03*
X83800000Y-48400000D03*
X82400000Y-48400000D03*
X81000000Y-48400000D03*
X85200000Y-49800000D03*
X83800000Y-49800000D03*
X82400000Y-49800000D03*
X81000000Y-49800000D03*
X85200000Y-51200000D03*
X83800000Y-51200000D03*
X82400000Y-51200000D03*
X81000000Y-51200000D03*
D32*
X80350000Y-45662500D03*
X80850000Y-45662500D03*
X81350000Y-45662500D03*
X81850000Y-45662500D03*
X82350000Y-45662500D03*
X82850000Y-45662500D03*
X83350000Y-45662500D03*
X83850000Y-45662500D03*
X84350000Y-45662500D03*
X84850000Y-45662500D03*
X85350000Y-45662500D03*
X85850000Y-45662500D03*
D33*
X86537500Y-46350000D03*
X86537500Y-46850000D03*
X86537500Y-47350000D03*
X86537500Y-47850000D03*
X86537500Y-48350000D03*
X86537500Y-48850000D03*
X86537500Y-49350000D03*
X86537500Y-49850000D03*
X86537500Y-50350000D03*
X86537500Y-50850000D03*
X86537500Y-51350000D03*
X86537500Y-51850000D03*
D32*
X85850000Y-52537500D03*
X85350000Y-52537500D03*
X84850000Y-52537500D03*
X84350000Y-52537500D03*
X83850000Y-52537500D03*
X83350000Y-52537500D03*
X82850000Y-52537500D03*
X82350000Y-52537500D03*
X81850000Y-52537500D03*
X81350000Y-52537500D03*
X80850000Y-52537500D03*
X80350000Y-52537500D03*
D33*
X79662500Y-51850000D03*
X79662500Y-51350000D03*
X79662500Y-50850000D03*
X79662500Y-50350000D03*
X79662500Y-49850000D03*
X79662500Y-49350000D03*
X79662500Y-48850000D03*
X79662500Y-48350000D03*
X79662500Y-47850000D03*
X79662500Y-47350000D03*
X79662500Y-46850000D03*
X79662500Y-46350000D03*
%TD*%
D34*
%TO.C,C51*%
X34037500Y-65400000D03*
X37162500Y-65400000D03*
%TD*%
D11*
%TO.C,R21*%
X74400000Y-66312500D03*
X74400000Y-64487500D03*
%TD*%
D14*
%TO.C,R22*%
X48417500Y-68190000D03*
X50242500Y-68190000D03*
%TD*%
D35*
%TO.C,R11*%
X103171500Y-70900000D03*
X106271500Y-70900000D03*
%TD*%
D36*
%TO.C,D8*%
X44791000Y-36454000D03*
X43041000Y-36454000D03*
%TD*%
D14*
%TO.C,R44*%
X79587500Y-69900000D03*
X81412500Y-69900000D03*
%TD*%
D15*
%TO.C,R50*%
X78012500Y-64400000D03*
X76187500Y-64400000D03*
%TD*%
D14*
%TO.C,R29*%
X101480000Y-53851476D03*
X103305000Y-53851476D03*
%TD*%
D26*
%TO.C,C12*%
X120900000Y-52800000D03*
X117775000Y-52800000D03*
%TD*%
D14*
%TO.C,R24*%
X48447500Y-53010000D03*
X50272500Y-53010000D03*
%TD*%
D26*
%TO.C,C14*%
X120962500Y-56000000D03*
X117837500Y-56000000D03*
%TD*%
D12*
%TO.C,C10*%
X83530000Y-59425000D03*
X83530000Y-61150000D03*
%TD*%
D14*
%TO.C,R41*%
X76700000Y-61400000D03*
X78525000Y-61400000D03*
%TD*%
%TO.C,R7*%
X44977500Y-68900000D03*
X46802500Y-68900000D03*
%TD*%
D27*
%TO.C,C48*%
X65637500Y-58400000D03*
X67362500Y-58400000D03*
%TD*%
D24*
%TO.C,FB3*%
X86630000Y-61300000D03*
X86630000Y-59225000D03*
%TD*%
D22*
%TO.C,C52*%
X70600000Y-33300000D03*
X70600000Y-31575000D03*
%TD*%
D37*
%TO.C,D1*%
X59432000Y-37108000D03*
X59450000Y-32300000D03*
%TD*%
D38*
%TO.C,FB2*%
X62241000Y-32304000D03*
X62241000Y-35404000D03*
%TD*%
D14*
%TO.C,R5*%
X44767500Y-61290000D03*
X46592500Y-61290000D03*
%TD*%
D22*
%TO.C,C16*%
X104892500Y-65532976D03*
X104892500Y-63807976D03*
%TD*%
D20*
%TO.C,Q7*%
X111961500Y-71281476D03*
X111961500Y-70631476D03*
X111961500Y-69981476D03*
X111961500Y-69331476D03*
X114931500Y-69331476D03*
X114931500Y-69981476D03*
X114931500Y-70631476D03*
X114931500Y-71281476D03*
D21*
X113731500Y-70306476D03*
%TD*%
D34*
%TO.C,C34*%
X34037500Y-62800000D03*
X37162500Y-62800000D03*
%TD*%
D19*
%TO.C,C44*%
X78500000Y-58300000D03*
X76775000Y-58300000D03*
%TD*%
%TO.C,C19*%
X78025000Y-45650000D03*
X76300000Y-45650000D03*
%TD*%
D20*
%TO.C,Q12*%
X107892500Y-56431476D03*
X107892500Y-55781476D03*
X107892500Y-55131476D03*
X107892500Y-54481476D03*
X110862500Y-54481476D03*
X110862500Y-55131476D03*
X110862500Y-55781476D03*
X110862500Y-56431476D03*
D21*
X109662500Y-55456476D03*
%TD*%
D15*
%TO.C,R18*%
X110052500Y-52991476D03*
X108227500Y-52991476D03*
%TD*%
D12*
%TO.C,C26*%
X101200000Y-55937500D03*
X101200000Y-57662500D03*
%TD*%
D19*
%TO.C,C46*%
X67200000Y-62900000D03*
X65475000Y-62900000D03*
%TD*%
D15*
%TO.C,R57*%
X90125000Y-58212500D03*
X88300000Y-58212500D03*
%TD*%
%TO.C,R26*%
X106512500Y-69000000D03*
X104687500Y-69000000D03*
%TD*%
D11*
%TO.C,R48*%
X78000000Y-67712500D03*
X78000000Y-65887500D03*
%TD*%
D19*
%TO.C,C45*%
X81300000Y-62900000D03*
X79575000Y-62900000D03*
%TD*%
D16*
%TO.C,R31*%
X88500000Y-67775000D03*
X88500000Y-69600000D03*
%TD*%
D15*
%TO.C,R14*%
X109974000Y-67971476D03*
X108149000Y-67971476D03*
%TD*%
D27*
%TO.C,C23*%
X78137500Y-32800000D03*
X79862500Y-32800000D03*
%TD*%
D34*
%TO.C,C49*%
X35337500Y-51500000D03*
X38462500Y-51500000D03*
%TD*%
D18*
%TO.C,D7*%
X56000000Y-56335000D03*
X56000000Y-52865000D03*
%TD*%
D17*
%TO.C,C7*%
X46881000Y-36346500D03*
X46881000Y-33221500D03*
%TD*%
D27*
%TO.C,C43*%
X65637500Y-56900000D03*
X67362500Y-56900000D03*
%TD*%
D18*
%TO.C,D3*%
X96900000Y-57935000D03*
X96900000Y-54465000D03*
%TD*%
D39*
%TO.C,R9*%
X51680000Y-66180000D03*
X48580000Y-66180000D03*
%TD*%
D27*
%TO.C,C17*%
X88667732Y-50200000D03*
X90392732Y-50200000D03*
%TD*%
D12*
%TO.C,C40*%
X80400000Y-59430000D03*
X80400000Y-61155000D03*
%TD*%
D25*
%TO.C,D20*%
X115570000Y-51051476D03*
X112270000Y-51051476D03*
%TD*%
D19*
%TO.C,C22*%
X74362500Y-34895001D03*
X72637500Y-34895001D03*
%TD*%
%TO.C,C20*%
X78012500Y-44150000D03*
X76287500Y-44150000D03*
%TD*%
D11*
%TO.C,R55*%
X67083750Y-55406250D03*
X67083750Y-53581250D03*
%TD*%
D15*
%TO.C,R56*%
X90125000Y-59900000D03*
X88300000Y-59900000D03*
%TD*%
D11*
%TO.C,R51*%
X63900000Y-66512500D03*
X63900000Y-64687500D03*
%TD*%
D20*
%TO.C,Q16*%
X47299000Y-50435000D03*
X47299000Y-51085000D03*
X47299000Y-51735000D03*
X47299000Y-52385000D03*
X44329000Y-52385000D03*
X44329000Y-51735000D03*
X44329000Y-51085000D03*
X44329000Y-50435000D03*
D21*
X45529000Y-51410000D03*
%TD*%
D40*
%TO.C,L1*%
X55441000Y-36904000D03*
X55441000Y-33104000D03*
%TD*%
D14*
%TO.C,R32*%
X72875000Y-69400000D03*
X74700000Y-69400000D03*
%TD*%
%TO.C,R33*%
X72875000Y-67900000D03*
X74700000Y-67900000D03*
%TD*%
D12*
%TO.C,C67*%
X79600000Y-41977500D03*
X79600000Y-43702500D03*
%TD*%
D19*
%TO.C,C53*%
X78500000Y-56800000D03*
X76775000Y-56800000D03*
%TD*%
D25*
%TO.C,D17*%
X110559000Y-66071476D03*
X107259000Y-66071476D03*
%TD*%
D16*
%TO.C,R40*%
X70083750Y-53581250D03*
X70083750Y-55406250D03*
%TD*%
D41*
%TO.C,U1*%
X96929000Y-65396500D03*
X96929000Y-64746500D03*
X96929000Y-64096500D03*
X96929000Y-63446500D03*
X96929000Y-62796500D03*
X96929000Y-62146500D03*
X96929000Y-61496500D03*
X96929000Y-60846500D03*
X96929000Y-60196500D03*
X96929000Y-59546500D03*
X102671000Y-59546500D03*
X102671000Y-60196500D03*
X102671000Y-60846500D03*
X102671000Y-61496500D03*
X102671000Y-62146500D03*
X102671000Y-62796500D03*
X102671000Y-63446500D03*
X102671000Y-64096500D03*
X102671000Y-64746500D03*
X102671000Y-65396500D03*
%TD*%
D27*
%TO.C,C11*%
X82975000Y-62900000D03*
X84700000Y-62900000D03*
%TD*%
D24*
%TO.C,C1*%
X50791000Y-42791500D03*
X50791000Y-40716500D03*
%TD*%
D18*
%TO.C,D10*%
X58100000Y-65565000D03*
X58100000Y-69035000D03*
%TD*%
D14*
%TO.C,R6*%
X40837500Y-53890000D03*
X42662500Y-53890000D03*
%TD*%
%TO.C,R47*%
X65487500Y-69900000D03*
X67312500Y-69900000D03*
%TD*%
D19*
%TO.C,FB4*%
X90262500Y-48700000D03*
X88537500Y-48700000D03*
%TD*%
D15*
%TO.C,R1*%
X63803500Y-41504000D03*
X61978500Y-41504000D03*
%TD*%
D39*
%TO.C,R10*%
X51920000Y-51140000D03*
X48820000Y-51140000D03*
%TD*%
D22*
%TO.C,C15*%
X94800000Y-60800000D03*
X94800000Y-59075000D03*
%TD*%
D15*
%TO.C,R38*%
X67412500Y-61400000D03*
X65587500Y-61400000D03*
%TD*%
D25*
%TO.C,D16*%
X115361500Y-66071476D03*
X112061500Y-66071476D03*
%TD*%
D15*
%TO.C,R58*%
X90125000Y-56712500D03*
X88300000Y-56712500D03*
%TD*%
D42*
%TO.C,Y1*%
X81400000Y-41900000D03*
X83600000Y-41900000D03*
X83600000Y-43500000D03*
X81400000Y-43500000D03*
%TD*%
D16*
%TO.C,R46*%
X63900000Y-67987500D03*
X63900000Y-69812500D03*
%TD*%
D18*
%TO.C,D4*%
X99100000Y-57935000D03*
X99100000Y-54465000D03*
%TD*%
D14*
%TO.C,R39*%
X65587500Y-59900000D03*
X67412500Y-59900000D03*
%TD*%
D27*
%TO.C,C36*%
X103137500Y-67500000D03*
X104862500Y-67500000D03*
%TD*%
D12*
%TO.C,C54*%
X108400000Y-42837500D03*
X108400000Y-44562500D03*
%TD*%
D23*
%TO.C,D9*%
X39460000Y-63320000D03*
X42760000Y-63320000D03*
%TD*%
D27*
%TO.C,C8*%
X88680232Y-51900000D03*
X90405232Y-51900000D03*
%TD*%
D22*
%TO.C,C38*%
X100500000Y-37300000D03*
X100500000Y-35575000D03*
%TD*%
D35*
%TO.C,R12*%
X103212500Y-55821476D03*
X106312500Y-55821476D03*
%TD*%
D41*
%TO.C,U2*%
X58071000Y-58003500D03*
X58071000Y-58653500D03*
X58071000Y-59303500D03*
X58071000Y-59953500D03*
X58071000Y-60603500D03*
X58071000Y-61253500D03*
X58071000Y-61903500D03*
X58071000Y-62553500D03*
X58071000Y-63203500D03*
X58071000Y-63853500D03*
X52329000Y-63853500D03*
X52329000Y-63203500D03*
X52329000Y-62553500D03*
X52329000Y-61903500D03*
X52329000Y-61253500D03*
X52329000Y-60603500D03*
X52329000Y-59953500D03*
X52329000Y-59303500D03*
X52329000Y-58653500D03*
X52329000Y-58003500D03*
%TD*%
D11*
%TO.C,R42*%
X76500000Y-67712500D03*
X76500000Y-65887500D03*
%TD*%
D15*
%TO.C,R49*%
X78525000Y-59900000D03*
X76700000Y-59900000D03*
%TD*%
D43*
%TO.C,U3*%
X59991000Y-39354000D03*
X59991000Y-40624000D03*
X59991000Y-41894000D03*
X59991000Y-43164000D03*
X54591000Y-43164000D03*
X54591000Y-41894000D03*
X54591000Y-40624000D03*
X54591000Y-39354000D03*
D44*
X57291000Y-41259000D03*
%TD*%
D12*
%TO.C,C32*%
X60200000Y-62675000D03*
X60200000Y-64400000D03*
%TD*%
D11*
%TO.C,R34*%
X87000000Y-66212500D03*
X87000000Y-64387500D03*
%TD*%
D18*
%TO.C,D11*%
X55700000Y-65565000D03*
X55700000Y-69035000D03*
%TD*%
D25*
%TO.C,D18*%
X115117500Y-58400000D03*
X111817500Y-58400000D03*
%TD*%
D12*
%TO.C,C39*%
X81910000Y-59430000D03*
X81910000Y-61155000D03*
%TD*%
D23*
%TO.C,D23*%
X39502500Y-55940000D03*
X42802500Y-55940000D03*
%TD*%
D15*
%TO.C,R16*%
X109692500Y-60411476D03*
X107867500Y-60411476D03*
%TD*%
D23*
%TO.C,D24*%
X44350000Y-55950000D03*
X47650000Y-55950000D03*
%TD*%
D15*
%TO.C,R52*%
X63950000Y-63100000D03*
X62125000Y-63100000D03*
%TD*%
D20*
%TO.C,Q10*%
X107600000Y-63841476D03*
X107600000Y-63191476D03*
X107600000Y-62541476D03*
X107600000Y-61891476D03*
X110570000Y-61891476D03*
X110570000Y-62541476D03*
X110570000Y-63191476D03*
X110570000Y-63841476D03*
D21*
X109370000Y-62866476D03*
%TD*%
D15*
%TO.C,R25*%
X53592500Y-53010000D03*
X51767500Y-53010000D03*
%TD*%
D19*
%TO.C,C13*%
X73962500Y-36400000D03*
X72237500Y-36400000D03*
%TD*%
D22*
%TO.C,C21*%
X88635000Y-33362500D03*
X88635000Y-31637500D03*
%TD*%
D25*
%TO.C,D21*%
X110740000Y-51081476D03*
X107440000Y-51081476D03*
%TD*%
D14*
%TO.C,R27*%
X101387500Y-69000000D03*
X103212500Y-69000000D03*
%TD*%
D19*
%TO.C,C28*%
X51882500Y-69720000D03*
X50157500Y-69720000D03*
%TD*%
%TO.C,C24*%
X76162500Y-32995001D03*
X74437500Y-32995001D03*
%TD*%
D23*
%TO.C,D5*%
X40152500Y-70900000D03*
X43452500Y-70900000D03*
%TD*%
D22*
%TO.C,C25*%
X104900000Y-61962500D03*
X104900000Y-60237500D03*
%TD*%
%TO.C,C3*%
X52641000Y-42416500D03*
X52641000Y-40691500D03*
%TD*%
D15*
%TO.C,R35*%
X88050000Y-62900000D03*
X86225000Y-62900000D03*
%TD*%
D27*
%TO.C,C37*%
X103230000Y-52341476D03*
X104955000Y-52341476D03*
%TD*%
D11*
%TO.C,R43*%
X62300000Y-66512500D03*
X62300000Y-64687500D03*
%TD*%
D15*
%TO.C,R28*%
X106675000Y-53851476D03*
X104850000Y-53851476D03*
%TD*%
%TO.C,R15*%
X113792500Y-60400000D03*
X111967500Y-60400000D03*
%TD*%
D19*
%TO.C,FB1*%
X76162500Y-31500001D03*
X74437500Y-31500001D03*
%TD*%
D17*
%TO.C,C5*%
X51851000Y-36386500D03*
X51851000Y-33261500D03*
%TD*%
D11*
%TO.C,R36*%
X72900000Y-66312500D03*
X72900000Y-64487500D03*
%TD*%
D20*
%TO.C,Q2*%
X42870000Y-57855000D03*
X42870000Y-58505000D03*
X42870000Y-59155000D03*
X42870000Y-59805000D03*
X39900000Y-59805000D03*
X39900000Y-59155000D03*
X39900000Y-58505000D03*
X39900000Y-57855000D03*
D21*
X41100000Y-58830000D03*
%TD*%
D23*
%TO.C,D6*%
X44952500Y-70900000D03*
X48252500Y-70900000D03*
%TD*%
D15*
%TO.C,R13*%
X114004000Y-67971476D03*
X112179000Y-67971476D03*
%TD*%
D12*
%TO.C,C31*%
X50000000Y-61775000D03*
X50000000Y-63500000D03*
%TD*%
M02*
