%TF.GenerationSoftware,KiCad,Pcbnew,8.0.2*%
%TF.CreationDate,2024-07-12T01:16:58+08:00*%
%TF.ProjectId,bldcDriver,626c6463-4472-4697-9665-722e6b696361,rev?*%
%TF.SameCoordinates,Original*%
%TF.FileFunction,Drillmap*%
%TF.FilePolarity,Positive*%
%FSLAX45Y45*%
G04 Gerber Fmt 4.5, Leading zero omitted, Abs format (unit mm)*
G04 Created by KiCad (PCBNEW 8.0.2) date 2024-07-12 01:16:58*
%MOMM*%
%LPD*%
G01*
G04 APERTURE LIST*
%ADD10C,0.100000*%
%ADD11C,0.200000*%
G04 APERTURE END LIST*
D10*
X3245500Y-7019000D02*
X3245500Y-3269000D01*
X3445500Y-7219000D02*
G75*
G02*
X3245500Y-7019000I0J200000D01*
G01*
X12023584Y-7219000D02*
X11935500Y-7219000D01*
X12023584Y-3069000D02*
G75*
G02*
X12223580Y-3269000I-4J-200000D01*
G01*
X12223584Y-3269000D02*
X12223584Y-7019000D01*
X3445500Y-3069000D02*
X11935500Y-3069000D01*
X12223584Y-7019000D02*
G75*
G02*
X12023584Y-7219004I-200004J0D01*
G01*
X3245500Y-3269000D02*
G75*
G02*
X3445500Y-3069000I200000J0D01*
G01*
X11935500Y-7219000D02*
X3445500Y-7219000D01*
X11935500Y-3069000D02*
X12023584Y-3069000D01*
D11*
X3501277Y-7535484D02*
X3501277Y-7335484D01*
X3501277Y-7335484D02*
X3548896Y-7335484D01*
X3548896Y-7335484D02*
X3577467Y-7345008D01*
X3577467Y-7345008D02*
X3596515Y-7364055D01*
X3596515Y-7364055D02*
X3606038Y-7383103D01*
X3606038Y-7383103D02*
X3615562Y-7421198D01*
X3615562Y-7421198D02*
X3615562Y-7449769D01*
X3615562Y-7449769D02*
X3606038Y-7487865D01*
X3606038Y-7487865D02*
X3596515Y-7506912D01*
X3596515Y-7506912D02*
X3577467Y-7525960D01*
X3577467Y-7525960D02*
X3548896Y-7535484D01*
X3548896Y-7535484D02*
X3501277Y-7535484D01*
X3701277Y-7535484D02*
X3701277Y-7402150D01*
X3701277Y-7440246D02*
X3710800Y-7421198D01*
X3710800Y-7421198D02*
X3720324Y-7411674D01*
X3720324Y-7411674D02*
X3739372Y-7402150D01*
X3739372Y-7402150D02*
X3758419Y-7402150D01*
X3825086Y-7535484D02*
X3825086Y-7402150D01*
X3825086Y-7335484D02*
X3815562Y-7345008D01*
X3815562Y-7345008D02*
X3825086Y-7354531D01*
X3825086Y-7354531D02*
X3834610Y-7345008D01*
X3834610Y-7345008D02*
X3825086Y-7335484D01*
X3825086Y-7335484D02*
X3825086Y-7354531D01*
X3948896Y-7535484D02*
X3929848Y-7525960D01*
X3929848Y-7525960D02*
X3920324Y-7506912D01*
X3920324Y-7506912D02*
X3920324Y-7335484D01*
X4053657Y-7535484D02*
X4034610Y-7525960D01*
X4034610Y-7525960D02*
X4025086Y-7506912D01*
X4025086Y-7506912D02*
X4025086Y-7335484D01*
X4282229Y-7535484D02*
X4282229Y-7335484D01*
X4282229Y-7335484D02*
X4348896Y-7478341D01*
X4348896Y-7478341D02*
X4415562Y-7335484D01*
X4415562Y-7335484D02*
X4415562Y-7535484D01*
X4596515Y-7535484D02*
X4596515Y-7430722D01*
X4596515Y-7430722D02*
X4586991Y-7411674D01*
X4586991Y-7411674D02*
X4567943Y-7402150D01*
X4567943Y-7402150D02*
X4529848Y-7402150D01*
X4529848Y-7402150D02*
X4510800Y-7411674D01*
X4596515Y-7525960D02*
X4577467Y-7535484D01*
X4577467Y-7535484D02*
X4529848Y-7535484D01*
X4529848Y-7535484D02*
X4510800Y-7525960D01*
X4510800Y-7525960D02*
X4501277Y-7506912D01*
X4501277Y-7506912D02*
X4501277Y-7487865D01*
X4501277Y-7487865D02*
X4510800Y-7468817D01*
X4510800Y-7468817D02*
X4529848Y-7459293D01*
X4529848Y-7459293D02*
X4577467Y-7459293D01*
X4577467Y-7459293D02*
X4596515Y-7449769D01*
X4691753Y-7402150D02*
X4691753Y-7602150D01*
X4691753Y-7411674D02*
X4710800Y-7402150D01*
X4710800Y-7402150D02*
X4748896Y-7402150D01*
X4748896Y-7402150D02*
X4767943Y-7411674D01*
X4767943Y-7411674D02*
X4777467Y-7421198D01*
X4777467Y-7421198D02*
X4786991Y-7440246D01*
X4786991Y-7440246D02*
X4786991Y-7497388D01*
X4786991Y-7497388D02*
X4777467Y-7516436D01*
X4777467Y-7516436D02*
X4767943Y-7525960D01*
X4767943Y-7525960D02*
X4748896Y-7535484D01*
X4748896Y-7535484D02*
X4710800Y-7535484D01*
X4710800Y-7535484D02*
X4691753Y-7525960D01*
X4872705Y-7516436D02*
X4882229Y-7525960D01*
X4882229Y-7525960D02*
X4872705Y-7535484D01*
X4872705Y-7535484D02*
X4863181Y-7525960D01*
X4863181Y-7525960D02*
X4872705Y-7516436D01*
X4872705Y-7516436D02*
X4872705Y-7535484D01*
X4872705Y-7411674D02*
X4882229Y-7421198D01*
X4882229Y-7421198D02*
X4872705Y-7430722D01*
X4872705Y-7430722D02*
X4863181Y-7421198D01*
X4863181Y-7421198D02*
X4872705Y-7411674D01*
X4872705Y-7411674D02*
X4872705Y-7430722D01*
M02*
